G04*
G04 #@! TF.GenerationSoftware,Altium Limited,Altium Designer,22.7.1 (60)*
G04*
G04 Layer_Physical_Order=1*
G04 Layer_Color=16776960*
%FSLAX43Y43*%
%MOMM*%
G71*
G04*
G04 #@! TF.SameCoordinates,BF121B45-6408-4E43-B4A1-C448907F0F72*
G04*
G04*
G04 #@! TF.FilePolarity,Positive*
G04*
G01*
G75*
%ADD10C,0.200*%
%ADD11C,0.500*%
%ADD14C,0.400*%
%ADD15C,0.250*%
%ADD20C,0.300*%
%ADD71C,1.700*%
%ADD74C,1.600*%
%ADD75C,1.800*%
%ADD79C,1.900*%
G04:AMPARAMS|DCode=82|XSize=0.7mm|YSize=2.2mm|CornerRadius=0.088mm|HoleSize=0mm|Usage=FLASHONLY|Rotation=90.000|XOffset=0mm|YOffset=0mm|HoleType=Round|Shape=RoundedRectangle|*
%AMROUNDEDRECTD82*
21,1,0.700,2.025,0,0,90.0*
21,1,0.525,2.200,0,0,90.0*
1,1,0.175,1.013,0.263*
1,1,0.175,1.013,-0.263*
1,1,0.175,-1.013,-0.263*
1,1,0.175,-1.013,0.263*
%
%ADD82ROUNDEDRECTD82*%
G04:AMPARAMS|DCode=83|XSize=0.65mm|YSize=0.7mm|CornerRadius=0.081mm|HoleSize=0mm|Usage=FLASHONLY|Rotation=180.000|XOffset=0mm|YOffset=0mm|HoleType=Round|Shape=RoundedRectangle|*
%AMROUNDEDRECTD83*
21,1,0.650,0.538,0,0,180.0*
21,1,0.488,0.700,0,0,180.0*
1,1,0.163,-0.244,0.269*
1,1,0.163,0.244,0.269*
1,1,0.163,0.244,-0.269*
1,1,0.163,-0.244,-0.269*
%
%ADD83ROUNDEDRECTD83*%
G04:AMPARAMS|DCode=84|XSize=0.65mm|YSize=0.7mm|CornerRadius=0.081mm|HoleSize=0mm|Usage=FLASHONLY|Rotation=90.000|XOffset=0mm|YOffset=0mm|HoleType=Round|Shape=RoundedRectangle|*
%AMROUNDEDRECTD84*
21,1,0.650,0.538,0,0,90.0*
21,1,0.488,0.700,0,0,90.0*
1,1,0.163,0.269,0.244*
1,1,0.163,0.269,-0.244*
1,1,0.163,-0.269,-0.244*
1,1,0.163,-0.269,0.244*
%
%ADD84ROUNDEDRECTD84*%
G04:AMPARAMS|DCode=85|XSize=1.9mm|YSize=0.3mm|CornerRadius=0.038mm|HoleSize=0mm|Usage=FLASHONLY|Rotation=0.000|XOffset=0mm|YOffset=0mm|HoleType=Round|Shape=RoundedRectangle|*
%AMROUNDEDRECTD85*
21,1,1.900,0.225,0,0,0.0*
21,1,1.825,0.300,0,0,0.0*
1,1,0.075,0.913,-0.113*
1,1,0.075,-0.913,-0.113*
1,1,0.075,-0.913,0.113*
1,1,0.075,0.913,0.113*
%
%ADD85ROUNDEDRECTD85*%
G04:AMPARAMS|DCode=86|XSize=1.9mm|YSize=0.3mm|CornerRadius=0.038mm|HoleSize=0mm|Usage=FLASHONLY|Rotation=270.000|XOffset=0mm|YOffset=0mm|HoleType=Round|Shape=RoundedRectangle|*
%AMROUNDEDRECTD86*
21,1,1.900,0.225,0,0,270.0*
21,1,1.825,0.300,0,0,270.0*
1,1,0.075,-0.113,-0.913*
1,1,0.075,-0.113,0.913*
1,1,0.075,0.113,0.913*
1,1,0.075,0.113,-0.913*
%
%ADD86ROUNDEDRECTD86*%
G04:AMPARAMS|DCode=87|XSize=0.8mm|YSize=2.4mm|CornerRadius=0.1mm|HoleSize=0mm|Usage=FLASHONLY|Rotation=180.000|XOffset=0mm|YOffset=0mm|HoleType=Round|Shape=RoundedRectangle|*
%AMROUNDEDRECTD87*
21,1,0.800,2.200,0,0,180.0*
21,1,0.600,2.400,0,0,180.0*
1,1,0.200,-0.300,1.100*
1,1,0.200,0.300,1.100*
1,1,0.200,0.300,-1.100*
1,1,0.200,-0.300,-1.100*
%
%ADD87ROUNDEDRECTD87*%
G04:AMPARAMS|DCode=88|XSize=1.1mm|YSize=1.1mm|CornerRadius=0.138mm|HoleSize=0mm|Usage=FLASHONLY|Rotation=90.000|XOffset=0mm|YOffset=0mm|HoleType=Round|Shape=RoundedRectangle|*
%AMROUNDEDRECTD88*
21,1,1.100,0.825,0,0,90.0*
21,1,0.825,1.100,0,0,90.0*
1,1,0.275,0.413,0.413*
1,1,0.275,0.413,-0.413*
1,1,0.275,-0.413,-0.413*
1,1,0.275,-0.413,0.413*
%
%ADD88ROUNDEDRECTD88*%
G04:AMPARAMS|DCode=89|XSize=1.8mm|YSize=2mm|CornerRadius=0.225mm|HoleSize=0mm|Usage=FLASHONLY|Rotation=180.000|XOffset=0mm|YOffset=0mm|HoleType=Round|Shape=RoundedRectangle|*
%AMROUNDEDRECTD89*
21,1,1.800,1.550,0,0,180.0*
21,1,1.350,2.000,0,0,180.0*
1,1,0.450,-0.675,0.775*
1,1,0.450,0.675,0.775*
1,1,0.450,0.675,-0.775*
1,1,0.450,-0.675,-0.775*
%
%ADD89ROUNDEDRECTD89*%
G04:AMPARAMS|DCode=90|XSize=0.9mm|YSize=1.3mm|CornerRadius=0.225mm|HoleSize=0mm|Usage=FLASHONLY|Rotation=270.000|XOffset=0mm|YOffset=0mm|HoleType=Round|Shape=RoundedRectangle|*
%AMROUNDEDRECTD90*
21,1,0.900,0.850,0,0,270.0*
21,1,0.450,1.300,0,0,270.0*
1,1,0.450,-0.425,-0.225*
1,1,0.450,-0.425,0.225*
1,1,0.450,0.425,0.225*
1,1,0.450,0.425,-0.225*
%
%ADD90ROUNDEDRECTD90*%
G04:AMPARAMS|DCode=91|XSize=1.1mm|YSize=1.1mm|CornerRadius=0.138mm|HoleSize=0mm|Usage=FLASHONLY|Rotation=0.000|XOffset=0mm|YOffset=0mm|HoleType=Round|Shape=RoundedRectangle|*
%AMROUNDEDRECTD91*
21,1,1.100,0.825,0,0,0.0*
21,1,0.825,1.100,0,0,0.0*
1,1,0.275,0.413,-0.413*
1,1,0.275,-0.413,-0.413*
1,1,0.275,-0.413,0.413*
1,1,0.275,0.413,0.413*
%
%ADD91ROUNDEDRECTD91*%
G04:AMPARAMS|DCode=92|XSize=0.65mm|YSize=1.8mm|CornerRadius=0.081mm|HoleSize=0mm|Usage=FLASHONLY|Rotation=0.000|XOffset=0mm|YOffset=0mm|HoleType=Round|Shape=RoundedRectangle|*
%AMROUNDEDRECTD92*
21,1,0.650,1.638,0,0,0.0*
21,1,0.488,1.800,0,0,0.0*
1,1,0.163,0.244,-0.819*
1,1,0.163,-0.244,-0.819*
1,1,0.163,-0.244,0.819*
1,1,0.163,0.244,0.819*
%
%ADD92ROUNDEDRECTD92*%
G04:AMPARAMS|DCode=93|XSize=5.8mm|YSize=2.1mm|CornerRadius=0.525mm|HoleSize=0mm|Usage=FLASHONLY|Rotation=90.000|XOffset=0mm|YOffset=0mm|HoleType=Round|Shape=RoundedRectangle|*
%AMROUNDEDRECTD93*
21,1,5.800,1.050,0,0,90.0*
21,1,4.750,2.100,0,0,90.0*
1,1,1.050,0.525,2.375*
1,1,1.050,0.525,-2.375*
1,1,1.050,-0.525,-2.375*
1,1,1.050,-0.525,2.375*
%
%ADD93ROUNDEDRECTD93*%
G04:AMPARAMS|DCode=94|XSize=0.65mm|YSize=1.3mm|CornerRadius=0.081mm|HoleSize=0mm|Usage=FLASHONLY|Rotation=90.000|XOffset=0mm|YOffset=0mm|HoleType=Round|Shape=RoundedRectangle|*
%AMROUNDEDRECTD94*
21,1,0.650,1.138,0,0,90.0*
21,1,0.488,1.300,0,0,90.0*
1,1,0.163,0.569,0.244*
1,1,0.163,0.569,-0.244*
1,1,0.163,-0.569,-0.244*
1,1,0.163,-0.569,0.244*
%
%ADD94ROUNDEDRECTD94*%
G04:AMPARAMS|DCode=95|XSize=0.65mm|YSize=0.65mm|CornerRadius=0.081mm|HoleSize=0mm|Usage=FLASHONLY|Rotation=270.000|XOffset=0mm|YOffset=0mm|HoleType=Round|Shape=RoundedRectangle|*
%AMROUNDEDRECTD95*
21,1,0.650,0.488,0,0,270.0*
21,1,0.488,0.650,0,0,270.0*
1,1,0.163,-0.244,-0.244*
1,1,0.163,-0.244,0.244*
1,1,0.163,0.244,0.244*
1,1,0.163,0.244,-0.244*
%
%ADD95ROUNDEDRECTD95*%
G04:AMPARAMS|DCode=96|XSize=1.35mm|YSize=1.55mm|CornerRadius=0.169mm|HoleSize=0mm|Usage=FLASHONLY|Rotation=270.000|XOffset=0mm|YOffset=0mm|HoleType=Round|Shape=RoundedRectangle|*
%AMROUNDEDRECTD96*
21,1,1.350,1.212,0,0,270.0*
21,1,1.013,1.550,0,0,270.0*
1,1,0.338,-0.606,-0.506*
1,1,0.338,-0.606,0.506*
1,1,0.338,0.606,0.506*
1,1,0.338,0.606,-0.506*
%
%ADD96ROUNDEDRECTD96*%
G04:AMPARAMS|DCode=97|XSize=1.6mm|YSize=3.6mm|CornerRadius=0.2mm|HoleSize=0mm|Usage=FLASHONLY|Rotation=270.000|XOffset=0mm|YOffset=0mm|HoleType=Round|Shape=RoundedRectangle|*
%AMROUNDEDRECTD97*
21,1,1.600,3.200,0,0,270.0*
21,1,1.200,3.600,0,0,270.0*
1,1,0.400,-1.600,-0.600*
1,1,0.400,-1.600,0.600*
1,1,0.400,1.600,0.600*
1,1,0.400,1.600,-0.600*
%
%ADD97ROUNDEDRECTD97*%
G04:AMPARAMS|DCode=98|XSize=3.2mm|YSize=2.6mm|CornerRadius=0.325mm|HoleSize=0mm|Usage=FLASHONLY|Rotation=0.000|XOffset=0mm|YOffset=0mm|HoleType=Round|Shape=RoundedRectangle|*
%AMROUNDEDRECTD98*
21,1,3.200,1.950,0,0,0.0*
21,1,2.550,2.600,0,0,0.0*
1,1,0.650,1.275,-0.975*
1,1,0.650,-1.275,-0.975*
1,1,0.650,-1.275,0.975*
1,1,0.650,1.275,0.975*
%
%ADD98ROUNDEDRECTD98*%
G04:AMPARAMS|DCode=99|XSize=0.7mm|YSize=2.5mm|CornerRadius=0.175mm|HoleSize=0mm|Usage=FLASHONLY|Rotation=180.000|XOffset=0mm|YOffset=0mm|HoleType=Round|Shape=RoundedRectangle|*
%AMROUNDEDRECTD99*
21,1,0.700,2.150,0,0,180.0*
21,1,0.350,2.500,0,0,180.0*
1,1,0.350,-0.175,1.075*
1,1,0.350,0.175,1.075*
1,1,0.350,0.175,-1.075*
1,1,0.350,-0.175,-1.075*
%
%ADD99ROUNDEDRECTD99*%
G04:AMPARAMS|DCode=100|XSize=0.7mm|YSize=1.8mm|CornerRadius=0.088mm|HoleSize=0mm|Usage=FLASHONLY|Rotation=270.000|XOffset=0mm|YOffset=0mm|HoleType=Round|Shape=RoundedRectangle|*
%AMROUNDEDRECTD100*
21,1,0.700,1.625,0,0,270.0*
21,1,0.525,1.800,0,0,270.0*
1,1,0.175,-0.813,-0.263*
1,1,0.175,-0.813,0.263*
1,1,0.175,0.813,0.263*
1,1,0.175,0.813,-0.263*
%
%ADD100ROUNDEDRECTD100*%
G04:AMPARAMS|DCode=101|XSize=0.3mm|YSize=1.8mm|CornerRadius=0.038mm|HoleSize=0mm|Usage=FLASHONLY|Rotation=0.000|XOffset=0mm|YOffset=0mm|HoleType=Round|Shape=RoundedRectangle|*
%AMROUNDEDRECTD101*
21,1,0.300,1.725,0,0,0.0*
21,1,0.225,1.800,0,0,0.0*
1,1,0.075,0.113,-0.863*
1,1,0.075,-0.113,-0.863*
1,1,0.075,-0.113,0.863*
1,1,0.075,0.113,0.863*
%
%ADD101ROUNDEDRECTD101*%
G04:AMPARAMS|DCode=102|XSize=0.3mm|YSize=1.8mm|CornerRadius=0.038mm|HoleSize=0mm|Usage=FLASHONLY|Rotation=270.000|XOffset=0mm|YOffset=0mm|HoleType=Round|Shape=RoundedRectangle|*
%AMROUNDEDRECTD102*
21,1,0.300,1.725,0,0,270.0*
21,1,0.225,1.800,0,0,270.0*
1,1,0.075,-0.863,-0.113*
1,1,0.075,-0.863,0.113*
1,1,0.075,0.863,0.113*
1,1,0.075,0.863,-0.113*
%
%ADD102ROUNDEDRECTD102*%
G04:AMPARAMS|DCode=103|XSize=1.7mm|YSize=2.8mm|CornerRadius=0.213mm|HoleSize=0mm|Usage=FLASHONLY|Rotation=90.000|XOffset=0mm|YOffset=0mm|HoleType=Round|Shape=RoundedRectangle|*
%AMROUNDEDRECTD103*
21,1,1.700,2.375,0,0,90.0*
21,1,1.275,2.800,0,0,90.0*
1,1,0.425,1.188,0.638*
1,1,0.425,1.188,-0.638*
1,1,0.425,-1.188,-0.638*
1,1,0.425,-1.188,0.638*
%
%ADD103ROUNDEDRECTD103*%
G04:AMPARAMS|DCode=104|XSize=0.7mm|YSize=1.8mm|CornerRadius=0.088mm|HoleSize=0mm|Usage=FLASHONLY|Rotation=0.000|XOffset=0mm|YOffset=0mm|HoleType=Round|Shape=RoundedRectangle|*
%AMROUNDEDRECTD104*
21,1,0.700,1.625,0,0,0.0*
21,1,0.525,1.800,0,0,0.0*
1,1,0.175,0.263,-0.813*
1,1,0.175,-0.263,-0.813*
1,1,0.175,-0.263,0.813*
1,1,0.175,0.263,0.813*
%
%ADD104ROUNDEDRECTD104*%
%ADD105R,1.000X1.000*%
G04:AMPARAMS|DCode=106|XSize=0.65mm|YSize=1.9mm|CornerRadius=0.081mm|HoleSize=0mm|Usage=FLASHONLY|Rotation=180.000|XOffset=0mm|YOffset=0mm|HoleType=Round|Shape=RoundedRectangle|*
%AMROUNDEDRECTD106*
21,1,0.650,1.738,0,0,180.0*
21,1,0.488,1.900,0,0,180.0*
1,1,0.163,-0.244,0.869*
1,1,0.163,0.244,0.869*
1,1,0.163,0.244,-0.869*
1,1,0.163,-0.244,-0.869*
%
%ADD106ROUNDEDRECTD106*%
G04:AMPARAMS|DCode=107|XSize=3.1mm|YSize=2.4mm|CornerRadius=0.3mm|HoleSize=0mm|Usage=FLASHONLY|Rotation=180.000|XOffset=0mm|YOffset=0mm|HoleType=Round|Shape=RoundedRectangle|*
%AMROUNDEDRECTD107*
21,1,3.100,1.800,0,0,180.0*
21,1,2.500,2.400,0,0,180.0*
1,1,0.600,-1.250,0.900*
1,1,0.600,1.250,0.900*
1,1,0.600,1.250,-0.900*
1,1,0.600,-1.250,-0.900*
%
%ADD107ROUNDEDRECTD107*%
G04:AMPARAMS|DCode=108|XSize=2.7mm|YSize=2.6mm|CornerRadius=0.325mm|HoleSize=0mm|Usage=FLASHONLY|Rotation=0.000|XOffset=0mm|YOffset=0mm|HoleType=Round|Shape=RoundedRectangle|*
%AMROUNDEDRECTD108*
21,1,2.700,1.950,0,0,0.0*
21,1,2.050,2.600,0,0,0.0*
1,1,0.650,1.025,-0.975*
1,1,0.650,-1.025,-0.975*
1,1,0.650,-1.025,0.975*
1,1,0.650,1.025,0.975*
%
%ADD108ROUNDEDRECTD108*%
G04:AMPARAMS|DCode=109|XSize=3.2mm|YSize=2.6mm|CornerRadius=0.325mm|HoleSize=0mm|Usage=FLASHONLY|Rotation=90.000|XOffset=0mm|YOffset=0mm|HoleType=Round|Shape=RoundedRectangle|*
%AMROUNDEDRECTD109*
21,1,3.200,1.950,0,0,90.0*
21,1,2.550,2.600,0,0,90.0*
1,1,0.650,0.975,1.275*
1,1,0.650,0.975,-1.275*
1,1,0.650,-0.975,-1.275*
1,1,0.650,-0.975,1.275*
%
%ADD109ROUNDEDRECTD109*%
G04:AMPARAMS|DCode=110|XSize=2.15mm|YSize=2.45mm|CornerRadius=0.269mm|HoleSize=0mm|Usage=FLASHONLY|Rotation=270.000|XOffset=0mm|YOffset=0mm|HoleType=Round|Shape=RoundedRectangle|*
%AMROUNDEDRECTD110*
21,1,2.150,1.913,0,0,270.0*
21,1,1.613,2.450,0,0,270.0*
1,1,0.538,-0.956,-0.806*
1,1,0.538,-0.956,0.806*
1,1,0.538,0.956,0.806*
1,1,0.538,0.956,-0.806*
%
%ADD110ROUNDEDRECTD110*%
G04:AMPARAMS|DCode=111|XSize=1.4mm|YSize=3mm|CornerRadius=0.175mm|HoleSize=0mm|Usage=FLASHONLY|Rotation=180.000|XOffset=0mm|YOffset=0mm|HoleType=Round|Shape=RoundedRectangle|*
%AMROUNDEDRECTD111*
21,1,1.400,2.650,0,0,180.0*
21,1,1.050,3.000,0,0,180.0*
1,1,0.350,-0.525,1.325*
1,1,0.350,0.525,1.325*
1,1,0.350,0.525,-1.325*
1,1,0.350,-0.525,-1.325*
%
%ADD111ROUNDEDRECTD111*%
G04:AMPARAMS|DCode=112|XSize=1.5mm|YSize=4mm|CornerRadius=0.188mm|HoleSize=0mm|Usage=FLASHONLY|Rotation=180.000|XOffset=0mm|YOffset=0mm|HoleType=Round|Shape=RoundedRectangle|*
%AMROUNDEDRECTD112*
21,1,1.500,3.625,0,0,180.0*
21,1,1.125,4.000,0,0,180.0*
1,1,0.375,-0.563,1.813*
1,1,0.375,0.563,1.813*
1,1,0.375,0.563,-1.813*
1,1,0.375,-0.563,-1.813*
%
%ADD112ROUNDEDRECTD112*%
G04:AMPARAMS|DCode=113|XSize=1.6mm|YSize=3.6mm|CornerRadius=0.2mm|HoleSize=0mm|Usage=FLASHONLY|Rotation=180.000|XOffset=0mm|YOffset=0mm|HoleType=Round|Shape=RoundedRectangle|*
%AMROUNDEDRECTD113*
21,1,1.600,3.200,0,0,180.0*
21,1,1.200,3.600,0,0,180.0*
1,1,0.400,-0.600,1.600*
1,1,0.400,0.600,1.600*
1,1,0.400,0.600,-1.600*
1,1,0.400,-0.600,-1.600*
%
%ADD113ROUNDEDRECTD113*%
G04:AMPARAMS|DCode=114|XSize=1.7mm|YSize=2.8mm|CornerRadius=0.213mm|HoleSize=0mm|Usage=FLASHONLY|Rotation=225.000|XOffset=0mm|YOffset=0mm|HoleType=Round|Shape=RoundedRectangle|*
%AMROUNDEDRECTD114*
21,1,1.700,2.375,0,0,225.0*
21,1,1.275,2.800,0,0,225.0*
1,1,0.425,-1.290,0.389*
1,1,0.425,-0.389,1.290*
1,1,0.425,1.290,-0.389*
1,1,0.425,0.389,-1.290*
%
%ADD114ROUNDEDRECTD114*%
G04:AMPARAMS|DCode=115|XSize=0.65mm|YSize=0.7mm|CornerRadius=0.081mm|HoleSize=0mm|Usage=FLASHONLY|Rotation=45.000|XOffset=0mm|YOffset=0mm|HoleType=Round|Shape=RoundedRectangle|*
%AMROUNDEDRECTD115*
21,1,0.650,0.538,0,0,45.0*
21,1,0.488,0.700,0,0,45.0*
1,1,0.163,0.362,-0.018*
1,1,0.163,0.018,-0.362*
1,1,0.163,-0.362,0.018*
1,1,0.163,-0.018,0.362*
%
%ADD115ROUNDEDRECTD115*%
G04:AMPARAMS|DCode=116|XSize=0.65mm|YSize=0.7mm|CornerRadius=0.081mm|HoleSize=0mm|Usage=FLASHONLY|Rotation=315.000|XOffset=0mm|YOffset=0mm|HoleType=Round|Shape=RoundedRectangle|*
%AMROUNDEDRECTD116*
21,1,0.650,0.538,0,0,315.0*
21,1,0.488,0.700,0,0,315.0*
1,1,0.163,-0.018,-0.362*
1,1,0.163,-0.362,-0.018*
1,1,0.163,0.018,0.362*
1,1,0.163,0.362,0.018*
%
%ADD116ROUNDEDRECTD116*%
G04:AMPARAMS|DCode=117|XSize=0.65mm|YSize=1.35mm|CornerRadius=0.081mm|HoleSize=0mm|Usage=FLASHONLY|Rotation=270.000|XOffset=0mm|YOffset=0mm|HoleType=Round|Shape=RoundedRectangle|*
%AMROUNDEDRECTD117*
21,1,0.650,1.188,0,0,270.0*
21,1,0.488,1.350,0,0,270.0*
1,1,0.163,-0.594,-0.244*
1,1,0.163,-0.594,0.244*
1,1,0.163,0.594,0.244*
1,1,0.163,0.594,-0.244*
%
%ADD117ROUNDEDRECTD117*%
%ADD118C,1.000*%
G04:AMPARAMS|DCode=119|XSize=5.8mm|YSize=2.1mm|CornerRadius=0.525mm|HoleSize=0mm|Usage=FLASHONLY|Rotation=0.000|XOffset=0mm|YOffset=0mm|HoleType=Round|Shape=RoundedRectangle|*
%AMROUNDEDRECTD119*
21,1,5.800,1.050,0,0,0.0*
21,1,4.750,2.100,0,0,0.0*
1,1,1.050,2.375,-0.525*
1,1,1.050,-2.375,-0.525*
1,1,1.050,-2.375,0.525*
1,1,1.050,2.375,0.525*
%
%ADD119ROUNDEDRECTD119*%
G04:AMPARAMS|DCode=120|XSize=0.9mm|YSize=1.3mm|CornerRadius=0.225mm|HoleSize=0mm|Usage=FLASHONLY|Rotation=0.000|XOffset=0mm|YOffset=0mm|HoleType=Round|Shape=RoundedRectangle|*
%AMROUNDEDRECTD120*
21,1,0.900,0.850,0,0,0.0*
21,1,0.450,1.300,0,0,0.0*
1,1,0.450,0.225,-0.425*
1,1,0.450,-0.225,-0.425*
1,1,0.450,-0.225,0.425*
1,1,0.450,0.225,0.425*
%
%ADD120ROUNDEDRECTD120*%
G04:AMPARAMS|DCode=121|XSize=3.1mm|YSize=5.6mm|CornerRadius=0.388mm|HoleSize=0mm|Usage=FLASHONLY|Rotation=270.000|XOffset=0mm|YOffset=0mm|HoleType=Round|Shape=RoundedRectangle|*
%AMROUNDEDRECTD121*
21,1,3.100,4.825,0,0,270.0*
21,1,2.325,5.600,0,0,270.0*
1,1,0.775,-2.413,-1.163*
1,1,0.775,-2.413,1.163*
1,1,0.775,2.413,1.163*
1,1,0.775,2.413,-1.163*
%
%ADD121ROUNDEDRECTD121*%
G04:AMPARAMS|DCode=122|XSize=0.45mm|YSize=1.5mm|CornerRadius=0.056mm|HoleSize=0mm|Usage=FLASHONLY|Rotation=180.000|XOffset=0mm|YOffset=0mm|HoleType=Round|Shape=RoundedRectangle|*
%AMROUNDEDRECTD122*
21,1,0.450,1.388,0,0,180.0*
21,1,0.338,1.500,0,0,180.0*
1,1,0.113,-0.169,0.694*
1,1,0.113,0.169,0.694*
1,1,0.113,0.169,-0.694*
1,1,0.113,-0.169,-0.694*
%
%ADD122ROUNDEDRECTD122*%
G04:AMPARAMS|DCode=123|XSize=1.8mm|YSize=2mm|CornerRadius=0.225mm|HoleSize=0mm|Usage=FLASHONLY|Rotation=90.000|XOffset=0mm|YOffset=0mm|HoleType=Round|Shape=RoundedRectangle|*
%AMROUNDEDRECTD123*
21,1,1.800,1.550,0,0,90.0*
21,1,1.350,2.000,0,0,90.0*
1,1,0.450,0.775,0.675*
1,1,0.450,0.775,-0.675*
1,1,0.450,-0.775,-0.675*
1,1,0.450,-0.775,0.675*
%
%ADD123ROUNDEDRECTD123*%
G04:AMPARAMS|DCode=124|XSize=0.65mm|YSize=1.35mm|CornerRadius=0.081mm|HoleSize=0mm|Usage=FLASHONLY|Rotation=225.000|XOffset=0mm|YOffset=0mm|HoleType=Round|Shape=RoundedRectangle|*
%AMROUNDEDRECTD124*
21,1,0.650,1.188,0,0,225.0*
21,1,0.488,1.350,0,0,225.0*
1,1,0.163,-0.592,0.247*
1,1,0.163,-0.247,0.592*
1,1,0.163,0.592,-0.247*
1,1,0.163,0.247,-0.592*
%
%ADD124ROUNDEDRECTD124*%
G04:AMPARAMS|DCode=125|XSize=2.2mm|YSize=0.7mm|CornerRadius=0.088mm|HoleSize=0mm|Usage=FLASHONLY|Rotation=135.000|XOffset=0mm|YOffset=0mm|HoleType=Round|Shape=RoundedRectangle|*
%AMROUNDEDRECTD125*
21,1,2.200,0.525,0,0,135.0*
21,1,2.025,0.700,0,0,135.0*
1,1,0.175,-0.530,0.902*
1,1,0.175,0.902,-0.530*
1,1,0.175,0.530,-0.902*
1,1,0.175,-0.902,0.530*
%
%ADD125ROUNDEDRECTD125*%
%ADD126R,1.000X1.000*%
G04:AMPARAMS|DCode=127|XSize=1.35mm|YSize=1.9mm|CornerRadius=0.169mm|HoleSize=0mm|Usage=FLASHONLY|Rotation=0.000|XOffset=0mm|YOffset=0mm|HoleType=Round|Shape=RoundedRectangle|*
%AMROUNDEDRECTD127*
21,1,1.350,1.563,0,0,0.0*
21,1,1.013,1.900,0,0,0.0*
1,1,0.338,0.506,-0.781*
1,1,0.338,-0.506,-0.781*
1,1,0.338,-0.506,0.781*
1,1,0.338,0.506,0.781*
%
%ADD127ROUNDEDRECTD127*%
G04:AMPARAMS|DCode=128|XSize=10mm|YSize=3.6mm|CornerRadius=0.9mm|HoleSize=0mm|Usage=FLASHONLY|Rotation=90.000|XOffset=0mm|YOffset=0mm|HoleType=Round|Shape=RoundedRectangle|*
%AMROUNDEDRECTD128*
21,1,10.000,1.800,0,0,90.0*
21,1,8.200,3.600,0,0,90.0*
1,1,1.800,0.900,4.100*
1,1,1.800,0.900,-4.100*
1,1,1.800,-0.900,-4.100*
1,1,1.800,-0.900,4.100*
%
%ADD128ROUNDEDRECTD128*%
%ADD129C,1.000*%
%ADD130C,0.450*%
%ADD131C,0.350*%
%ADD132C,2.000*%
%ADD133C,1.408*%
%ADD134R,1.408X1.408*%
%ADD135C,4.000*%
%ADD136C,1.500*%
%ADD137R,1.700X1.700*%
%ADD138C,2.400*%
%ADD139C,3.250*%
%ADD140C,2.600*%
%ADD141C,1.100*%
%ADD142C,0.700*%
G36*
X72125Y87825D02*
X72125Y86375D01*
X71900Y86150D01*
X67850D01*
X67500Y86500D01*
Y87975D01*
X68213D01*
Y87825D01*
X68963D01*
X69713D01*
Y87975D01*
X69913D01*
Y87825D01*
X70663D01*
X71413D01*
Y87975D01*
X71975D01*
X72125Y87825D01*
D02*
G37*
G36*
X37263Y89525D02*
X38322D01*
Y89125D01*
X38722D01*
Y87066D01*
X38922D01*
X39097Y87101D01*
X39246Y87201D01*
X39295Y87205D01*
X40025Y86475D01*
X40025Y86068D01*
X39725D01*
Y84513D01*
X39325D01*
D01*
X39725D01*
Y82958D01*
X40025D01*
Y82375D01*
X36966D01*
Y82544D01*
X34907D01*
X32849D01*
Y82375D01*
X32559D01*
Y82525D01*
X30500D01*
Y82925D01*
X30100D01*
Y83984D01*
X29950D01*
Y84746D01*
X30268Y85063D01*
X35787Y85063D01*
X36498Y85775D01*
Y89750D01*
X37263D01*
Y89525D01*
D02*
G37*
G36*
X83000Y91952D02*
X82975Y91935D01*
Y88850D01*
Y85849D01*
X82966Y85842D01*
X82900Y85815D01*
X83000Y85748D01*
Y84857D01*
X79714D01*
X79100Y85471D01*
X79100Y88092D01*
X79200D01*
Y88900D01*
Y89708D01*
X79100D01*
X79100Y92517D01*
X79640Y93057D01*
X83000D01*
Y91952D01*
D02*
G37*
G36*
X44675Y91501D02*
X44675Y88254D01*
X45670Y87260D01*
X46789D01*
X47750Y86300D01*
Y83650D01*
X49933Y81467D01*
Y81206D01*
X49731D01*
X49602Y81181D01*
X49492Y81108D01*
X49419Y80998D01*
X49394Y80869D01*
Y80850D01*
X49975D01*
Y80350D01*
X49394D01*
Y80331D01*
X49419Y80202D01*
X49492Y80092D01*
X49602Y80019D01*
X49731Y79994D01*
X49933D01*
X49933Y73531D01*
X49706D01*
X49577Y73506D01*
X49467Y73433D01*
X49394Y73323D01*
X49368Y73194D01*
Y73175D01*
X49950D01*
Y72675D01*
X49368D01*
Y72656D01*
X49394Y72527D01*
X49467Y72417D01*
X49577Y72344D01*
X49706Y72319D01*
X49933D01*
Y71899D01*
X48805Y70771D01*
X44369D01*
Y71459D01*
X44563Y71378D01*
X44750Y71354D01*
Y76550D01*
Y81746D01*
X44563Y81722D01*
X44369Y81641D01*
Y83067D01*
X44410Y83035D01*
X44550Y82978D01*
X44700Y82958D01*
X45475D01*
Y84513D01*
Y86068D01*
X44700D01*
X44550Y86048D01*
X44410Y85990D01*
X44369Y85959D01*
Y86118D01*
X44112Y86375D01*
X42700D01*
X42406Y86669D01*
X42409Y87066D01*
X42572D01*
Y89125D01*
Y91184D01*
X42444D01*
X42450Y91875D01*
X44301D01*
X44675Y91501D01*
D02*
G37*
G36*
X40575Y81863D02*
X40475Y81780D01*
X40250Y81810D01*
X39700D01*
Y76550D01*
Y71290D01*
X40250D01*
X40550Y71330D01*
X40688Y71387D01*
X42312Y69763D01*
Y67321D01*
X42242Y67250D01*
X41755Y67250D01*
Y67700D01*
X38045D01*
Y67321D01*
X37975Y67250D01*
X37684Y67250D01*
X37254Y66821D01*
X35275D01*
Y67425D01*
X34173Y68791D01*
X34146Y68818D01*
X34184Y68910D01*
X34413D01*
X34542Y68936D01*
X34652Y69009D01*
X34725Y69119D01*
X34751Y69248D01*
Y69767D01*
X34169D01*
Y70467D01*
X34751D01*
Y70550D01*
X35042D01*
X35275Y70783D01*
X36122Y71630D01*
Y76122D01*
X37000Y77025D01*
Y81325D01*
X37684Y82009D01*
X40575D01*
Y81863D01*
D02*
G37*
G36*
X132825Y82250D02*
Y81625D01*
X131483Y80283D01*
X131214Y80552D01*
X131118Y80616D01*
X130954Y80780D01*
X131160Y80986D01*
X129987Y82159D01*
X128814Y83332D01*
X128608Y83126D01*
X128060Y83675D01*
X129500Y85125D01*
X129950D01*
X132825Y82250D01*
D02*
G37*
G36*
X52716Y81677D02*
Y79350D01*
X52447Y79072D01*
X50850D01*
Y79994D01*
X51219D01*
X51348Y80019D01*
X51458Y80092D01*
X51531Y80202D01*
X51556Y80331D01*
Y80350D01*
X50975D01*
Y80850D01*
X51556D01*
Y80869D01*
X51531Y80998D01*
X51458Y81108D01*
X51348Y81181D01*
X51219Y81206D01*
X50850D01*
Y82125D01*
X52268D01*
X52716Y81677D01*
D02*
G37*
G36*
X127255Y81773D02*
X127046Y81564D01*
X128219Y80391D01*
X129392Y79218D01*
X129601Y79427D01*
X129618Y79410D01*
X129593Y79373D01*
X129568Y79244D01*
X129593Y79115D01*
X129667Y79005D01*
X129975Y78697D01*
X129178Y77900D01*
X128088D01*
X125475Y80513D01*
Y80955D01*
X126775Y82253D01*
X127255Y81773D01*
D02*
G37*
G36*
X36475Y79452D02*
X35307D01*
Y78444D01*
Y77437D01*
X36475D01*
Y77152D01*
X33577D01*
X33299Y76909D01*
Y75717D01*
X32499D01*
Y76933D01*
X32300Y77125D01*
X28692Y77125D01*
X27742Y76175D01*
Y71083D01*
X29675Y69150D01*
Y68428D01*
X29525D01*
Y66421D01*
Y64413D01*
X29675D01*
X29675Y63778D01*
X29550D01*
Y62171D01*
X30158D01*
Y63371D01*
X30127Y63527D01*
X30038Y63659D01*
X30009Y63678D01*
X30040Y63778D01*
X30172D01*
X30575Y63375D01*
X32108Y63375D01*
Y63039D01*
X32100Y63033D01*
X31900D01*
Y61025D01*
X31500D01*
D01*
X31900D01*
Y59017D01*
X32100D01*
X32108Y59011D01*
Y58767D01*
X32097Y58758D01*
X31897D01*
Y56750D01*
Y54742D01*
X32097D01*
X32108Y54733D01*
Y54350D01*
X30525D01*
X30125Y54750D01*
Y57725D01*
X30100D01*
X28850Y58950D01*
X27826D01*
X27400Y58524D01*
Y58448D01*
X27311Y58400D01*
Y57285D01*
X26511D01*
Y58456D01*
X26475Y58475D01*
Y59132D01*
X27225Y59882D01*
X27225Y68425D01*
X26356Y69294D01*
X26044Y69294D01*
X24244D01*
X22799Y67824D01*
X22799Y66374D01*
X22007Y65582D01*
X22007Y63600D01*
X20982Y63600D01*
Y63775D01*
X20075D01*
Y64175D01*
X19675D01*
Y65882D01*
X19599D01*
X19557Y65982D01*
X20025Y66450D01*
Y67733D01*
X20600Y68308D01*
X20693Y68270D01*
Y68050D01*
X22457D01*
Y68431D01*
X22429Y68575D01*
X22347Y68697D01*
X22225Y68779D01*
X22081Y68807D01*
X21230D01*
X21192Y68900D01*
X21546Y69254D01*
Y70250D01*
X21925Y70629D01*
X22018Y70591D01*
Y70475D01*
X23782D01*
Y70856D01*
X23754Y71000D01*
X23672Y71122D01*
X23550Y71204D01*
X23406Y71232D01*
X22983D01*
Y72875D01*
X23343Y73234D01*
X23443Y73193D01*
Y72875D01*
X23925D01*
Y73632D01*
X23882D01*
X23841Y73732D01*
X24374Y74266D01*
X24374Y76974D01*
X27425Y80025D01*
X36475D01*
Y79452D01*
D02*
G37*
G36*
X23775Y74297D02*
X23733Y74266D01*
X23633Y74316D01*
Y74500D01*
X21767D01*
Y74119D01*
X21799Y73955D01*
X21892Y73817D01*
X22030Y73724D01*
X22194Y73692D01*
X23075D01*
X23117Y73592D01*
X22275Y72750D01*
X22275Y71575D01*
X20750Y70050D01*
Y69100D01*
X20601Y68951D01*
X20524Y69015D01*
X20546Y69048D01*
X20601Y69130D01*
X20633Y69294D01*
Y69675D01*
X20100D01*
Y68867D01*
X20206D01*
X20370Y68899D01*
X20452Y68954D01*
X20485Y68976D01*
X20549Y68899D01*
X19525Y67875D01*
Y66603D01*
X18846Y65924D01*
X18800Y65933D01*
X18675D01*
Y64175D01*
X18275D01*
Y63775D01*
X17317D01*
Y63650D01*
X15325D01*
Y65759D01*
X15925Y66995D01*
X16250Y67600D01*
X17750Y69975D01*
Y70300D01*
X19400Y72588D01*
X19400Y72875D01*
X21024Y75025D01*
Y75248D01*
X22750Y77200D01*
X23775D01*
Y74297D01*
D02*
G37*
G36*
X52691Y74002D02*
Y71675D01*
X52422Y71397D01*
X50825D01*
Y72319D01*
X51194D01*
X51323Y72344D01*
X51433Y72417D01*
X51506Y72527D01*
X51531Y72656D01*
Y72675D01*
X50950D01*
Y73175D01*
X51531D01*
Y73194D01*
X51506Y73323D01*
X51433Y73433D01*
X51323Y73506D01*
X51194Y73531D01*
X50825D01*
Y74450D01*
X52243D01*
X52691Y74002D01*
D02*
G37*
G36*
X70575Y70807D02*
X70475Y70776D01*
X70458Y70803D01*
X70348Y70876D01*
X70225Y70900D01*
Y70295D01*
Y69690D01*
X70348Y69714D01*
X70458Y69787D01*
X70475Y69814D01*
X70575Y69783D01*
Y69030D01*
X70212D01*
Y67770D01*
X69962D01*
Y67520D01*
X68803D01*
Y67500D01*
X68221D01*
X68170Y67600D01*
X68228Y67686D01*
X68258Y67838D01*
Y68000D01*
X67450D01*
Y68250D01*
X67200D01*
Y69058D01*
X67125D01*
Y71275D01*
X67275Y71425D01*
X70575D01*
Y70807D01*
D02*
G37*
G36*
X66322Y66812D02*
Y64725D01*
X65968D01*
X65942Y64756D01*
Y65250D01*
X65410D01*
Y65450D01*
X65210D01*
Y66500D01*
X65102Y66479D01*
X65085Y66467D01*
X65068Y66479D01*
X64960Y66500D01*
Y65450D01*
X64560D01*
Y66500D01*
X64452Y66479D01*
X64435Y66467D01*
X64418Y66479D01*
X64310Y66500D01*
Y65450D01*
X63910D01*
Y66500D01*
X63802Y66479D01*
X63785Y66467D01*
X63768Y66479D01*
X63660Y66500D01*
Y65450D01*
X63460D01*
Y65250D01*
X62928D01*
Y64756D01*
X62902Y64725D01*
X62510D01*
Y66800D01*
X62810Y67100D01*
X66035D01*
X66322Y66812D01*
D02*
G37*
G36*
X47037Y62950D02*
X46737Y62650D01*
X43512D01*
X43224Y62938D01*
Y65025D01*
X43579D01*
X43605Y64994D01*
Y64500D01*
X44137D01*
Y64300D01*
X44337D01*
Y63250D01*
X44445Y63271D01*
X44462Y63283D01*
X44479Y63271D01*
X44587Y63250D01*
Y64300D01*
X44987D01*
Y63250D01*
X45095Y63271D01*
X45112Y63282D01*
X45129Y63271D01*
X45237Y63250D01*
Y64300D01*
X45637D01*
Y63250D01*
X45745Y63271D01*
X45762Y63283D01*
X45779Y63271D01*
X45887Y63250D01*
Y64300D01*
X46087D01*
Y64500D01*
X46619D01*
Y64994D01*
X46645Y65025D01*
X47037D01*
Y62950D01*
D02*
G37*
G36*
X76675Y65475D02*
X76925Y65225D01*
Y63050D01*
X76201D01*
Y63320D01*
X75042D01*
X73883D01*
Y63050D01*
X73050D01*
Y65225D01*
X73300Y65475D01*
X76675Y65475D01*
D02*
G37*
G36*
X130500Y62674D02*
X130500Y59821D01*
X130429Y59751D01*
X130196Y59755D01*
X130162Y59798D01*
X129551D01*
Y60048D01*
X129301D01*
Y60629D01*
X129282D01*
X129153Y60603D01*
X129084Y60558D01*
X128984Y60608D01*
Y60800D01*
X127725D01*
Y61050D01*
X127475D01*
Y62209D01*
X127175D01*
Y62798D01*
X127275Y62880D01*
X127338Y62867D01*
X127500D01*
Y63675D01*
X127750D01*
Y63925D01*
X128558D01*
Y64088D01*
X128556Y64098D01*
X128619Y64175D01*
X128999Y64175D01*
X130500Y62674D01*
D02*
G37*
G36*
X135507Y63903D02*
X138012Y61398D01*
X138012Y60962D01*
X136531Y59481D01*
X136144Y59872D01*
X136218Y59921D01*
X136492Y60195D01*
X135319Y61369D01*
X134145Y62542D01*
X133871Y62268D01*
X133832Y62208D01*
X133574Y62468D01*
X133641Y62513D01*
X133213Y62941D01*
X133389Y63118D01*
X133213Y63294D01*
X133624Y63706D01*
X133611Y63719D01*
X133501Y63792D01*
X133410Y63810D01*
X133503Y63903D01*
X135507Y63903D01*
D02*
G37*
G36*
X23566Y66821D02*
X24625D01*
Y66421D01*
X25025D01*
Y64362D01*
X25100D01*
Y63829D01*
X25050D01*
Y61771D01*
Y59712D01*
X25100D01*
Y59075D01*
X23782D01*
X22875Y59982D01*
Y65878D01*
X23050Y66053D01*
Y66925D01*
X23566D01*
Y66821D01*
D02*
G37*
G36*
X21534Y61891D02*
Y58650D01*
X21033D01*
Y58775D01*
X20075D01*
Y59275D01*
X19575D01*
Y61033D01*
X19550D01*
X19512Y61065D01*
Y61247D01*
X15253D01*
X15253Y61741D01*
Y53450D01*
X14250Y52447D01*
X14250Y47900D01*
X11000Y44650D01*
Y38050D01*
X10125Y37175D01*
X10125Y21117D01*
X10825Y20417D01*
Y14750D01*
X12176Y13399D01*
X15724Y13399D01*
X22750Y6374D01*
Y6115D01*
X22650Y6079D01*
X22529Y6226D01*
X22293Y6420D01*
X22024Y6564D01*
X21928Y6593D01*
Y5125D01*
Y3657D01*
X22024Y3686D01*
X22293Y3830D01*
X22529Y4024D01*
X22650Y4171D01*
X22750Y4135D01*
Y3025D01*
X16375D01*
X16350Y3050D01*
Y4643D01*
X16450Y4658D01*
X16489Y4529D01*
X16633Y4260D01*
X16827Y4024D01*
X17063Y3830D01*
X17332Y3686D01*
X17428Y3657D01*
Y5125D01*
Y6593D01*
X17332Y6564D01*
X17063Y6420D01*
X16827Y6226D01*
X16633Y5990D01*
X16489Y5721D01*
X16450Y5592D01*
X16350Y5607D01*
Y7975D01*
X14788Y9537D01*
X14755Y9616D01*
X14667Y9731D01*
X14552Y9819D01*
X14473Y9852D01*
X13400Y10925D01*
X13267D01*
X13227Y10955D01*
X13094Y11011D01*
X12950Y11030D01*
X12806Y11011D01*
X12673Y10955D01*
X12633Y10925D01*
X10892Y10925D01*
X10852Y10955D01*
X10719Y11011D01*
X10575Y11030D01*
X10431Y11011D01*
X10298Y10955D01*
X10258Y10925D01*
X10200D01*
X7775Y13350D01*
Y18675D01*
X6775Y19675D01*
Y38584D01*
X7775Y39584D01*
Y46225D01*
X10300Y48775D01*
Y51850D01*
Y54550D01*
X11249Y56500D01*
X11716Y57709D01*
X12176Y59017D01*
X13100Y60815D01*
X13950Y62200D01*
X21225Y62200D01*
X21534Y61891D01*
D02*
G37*
G36*
X132514Y60911D02*
X132378Y60774D01*
X133551Y59601D01*
X134724Y58428D01*
X134861Y58564D01*
X135275Y58150D01*
X134050Y56925D01*
X133450D01*
X130875Y59495D01*
X130875Y60100D01*
X132100Y61325D01*
X132514Y60911D01*
D02*
G37*
G36*
X122266Y56220D02*
X123525D01*
Y55970D01*
X123775D01*
Y54811D01*
X124025D01*
Y54275D01*
X121875D01*
X121656Y54494D01*
X121656Y56218D01*
X121825Y56387D01*
X122266D01*
Y56220D01*
D02*
G37*
G36*
X37725Y63325D02*
Y61525D01*
X38045D01*
Y61450D01*
X41755D01*
Y61525D01*
X42325D01*
X42325Y58823D01*
X37725D01*
Y55000D01*
X37725Y54475D01*
X37250Y54000D01*
X35500Y54000D01*
Y54691D01*
X35597D01*
Y56750D01*
Y58809D01*
X35997D01*
X35500D01*
Y58966D01*
X35600D01*
Y61025D01*
Y63084D01*
X35500D01*
Y63750D01*
X37300D01*
X37725Y63325D01*
D02*
G37*
G36*
X66168Y55811D02*
Y53724D01*
X65813D01*
X65787Y53755D01*
Y54249D01*
X65255D01*
Y54449D01*
X65055D01*
Y55500D01*
X64947Y55478D01*
X64930Y55467D01*
X64913Y55478D01*
X64805Y55500D01*
Y54449D01*
X64405D01*
Y55500D01*
X64297Y55478D01*
X64280Y55467D01*
X64263Y55478D01*
X64155Y55500D01*
Y54449D01*
X63755D01*
Y55500D01*
X63647Y55478D01*
X63630Y55467D01*
X63613Y55478D01*
X63505Y55500D01*
Y54449D01*
X63305D01*
Y54249D01*
X62773D01*
Y53755D01*
X62748Y53724D01*
X62355D01*
Y55799D01*
X62655Y56099D01*
X65880D01*
X66168Y55811D01*
D02*
G37*
G36*
X47053Y51899D02*
X46753Y51599D01*
X43530D01*
X43249Y51880D01*
Y53974D01*
X43623D01*
X43628Y53968D01*
Y53474D01*
X44160D01*
Y53274D01*
X44360D01*
Y52223D01*
X44468Y52245D01*
X44485Y52256D01*
X44502Y52245D01*
X44610Y52223D01*
Y53274D01*
X45010D01*
Y52223D01*
X45118Y52245D01*
X45135Y52256D01*
X45152Y52245D01*
X45260Y52223D01*
Y53274D01*
X45660D01*
Y52223D01*
X45768Y52245D01*
X45785Y52256D01*
X45802Y52245D01*
X45910Y52223D01*
Y53274D01*
X46110D01*
Y53474D01*
X46642D01*
Y53968D01*
X46647Y53974D01*
X47053D01*
Y51899D01*
D02*
G37*
G36*
X32362Y46562D02*
X30875Y45075D01*
X30550Y44750D01*
X29683D01*
Y44750D01*
X26375D01*
X23067D01*
Y44750D01*
X22636D01*
Y46461D01*
X23566Y47391D01*
X27566Y47391D01*
X28225Y48050D01*
Y49900D01*
X27661Y50464D01*
Y50632D01*
X27698Y50577D01*
X27808Y50504D01*
X27931Y50479D01*
Y51685D01*
X28431D01*
Y50479D01*
X28554Y50504D01*
X28663Y50577D01*
X28720Y50662D01*
Y50583D01*
X30025D01*
Y52188D01*
X29300D01*
X29150Y52168D01*
X29010Y52110D01*
X28890Y52018D01*
X28798Y51898D01*
X28762Y51812D01*
Y52553D01*
X28738Y52675D01*
X32362D01*
Y46562D01*
D02*
G37*
G36*
X39578Y52548D02*
Y44500D01*
X38519D01*
Y44597D01*
X37510D01*
X36501D01*
Y44500D01*
X35550D01*
Y47674D01*
X36291Y48414D01*
Y48479D01*
X36300Y48478D01*
X36875D01*
Y50333D01*
Y52188D01*
X36300D01*
X36291Y52187D01*
Y53075D01*
X39050D01*
X39578Y52548D01*
D02*
G37*
G36*
X66182Y44797D02*
Y42709D01*
X65827D01*
X65801Y42741D01*
Y43234D01*
X65269D01*
Y43434D01*
X65069D01*
Y44485D01*
X64961Y44464D01*
X64944Y44452D01*
X64927Y44464D01*
X64819Y44485D01*
Y43434D01*
X64419D01*
Y44485D01*
X64311Y44464D01*
X64294Y44452D01*
X64277Y44464D01*
X64169Y44485D01*
Y43434D01*
X63769D01*
Y44485D01*
X63661Y44464D01*
X63644Y44452D01*
X63627Y44464D01*
X63519Y44485D01*
Y43434D01*
X63319D01*
Y43234D01*
X62787D01*
Y42741D01*
X62761Y42709D01*
X62369D01*
Y44784D01*
X62669Y45084D01*
X65894D01*
X66182Y44797D01*
D02*
G37*
G36*
X121050Y42600D02*
Y41700D01*
X120777D01*
X120710Y41800D01*
X120725Y41875D01*
X120120D01*
X119515D01*
X119539Y41752D01*
X119594Y41669D01*
X119426Y41501D01*
X119334Y41540D01*
Y42388D01*
X119298Y42568D01*
X119196Y42721D01*
X119043Y42823D01*
X118863Y42859D01*
X117925D01*
Y41750D01*
X117675D01*
Y41500D01*
X116016D01*
Y41300D01*
X115225D01*
Y43282D01*
X115468Y43525D01*
X120125D01*
X121050Y42600D01*
D02*
G37*
G36*
X47055Y40949D02*
X46755Y40649D01*
X43530D01*
X43243Y40936D01*
Y43024D01*
X43598D01*
X43623Y42993D01*
Y42499D01*
X44155D01*
Y42299D01*
X44355D01*
Y41248D01*
X44463Y41270D01*
X44480Y41281D01*
X44497Y41270D01*
X44605Y41248D01*
Y42299D01*
X45005D01*
Y41248D01*
X45113Y41270D01*
X45130Y41281D01*
X45147Y41270D01*
X45255Y41248D01*
Y42299D01*
X45655D01*
Y41248D01*
X45763Y41270D01*
X45780Y41281D01*
X45797Y41270D01*
X45905Y41248D01*
Y42299D01*
X46105D01*
Y42499D01*
X46637D01*
Y42993D01*
X46663Y43024D01*
X47055D01*
Y40949D01*
D02*
G37*
G36*
X119975Y39044D02*
Y37305D01*
X119620Y36950D01*
X115975D01*
X115325Y37600D01*
Y39071D01*
X115400Y39150D01*
X116016D01*
Y39000D01*
X117675D01*
X119334D01*
Y39150D01*
X119869D01*
X119975Y39044D01*
D02*
G37*
G36*
X20300Y41150D02*
X20300Y39000D01*
X19784D01*
Y39172D01*
X17725D01*
X15666D01*
Y39000D01*
X15111D01*
X15111Y41061D01*
X15425Y41375D01*
X20075D01*
X20300Y41150D01*
D02*
G37*
G36*
X39234Y38872D02*
X39250Y38866D01*
X39250Y36625D01*
X38000Y35375D01*
X37025D01*
X35822Y36577D01*
Y38872D01*
X36552D01*
Y38597D01*
X37510D01*
X38468D01*
Y38872D01*
X39234D01*
D02*
G37*
G36*
X36690Y35400D02*
Y35083D01*
X36625D01*
Y34150D01*
X36225D01*
Y33750D01*
X35192D01*
Y33644D01*
X35189Y33640D01*
X34860D01*
X34854Y33647D01*
Y33753D01*
X33821D01*
Y34153D01*
X33421D01*
Y35086D01*
X33215D01*
X33177Y35079D01*
X33100Y35142D01*
Y35525D01*
X33300Y35725D01*
X36365Y35725D01*
X36690Y35400D01*
D02*
G37*
G36*
X66238Y33787D02*
Y31700D01*
X65883D01*
X65857Y31731D01*
Y32225D01*
X65325D01*
Y32425D01*
X65125D01*
Y33475D01*
X65017Y33454D01*
X65000Y33442D01*
X64983Y33454D01*
X64875Y33475D01*
Y32425D01*
X64475D01*
Y33475D01*
X64367Y33454D01*
X64350Y33442D01*
X64333Y33454D01*
X64225Y33475D01*
Y32425D01*
X63825D01*
Y33475D01*
X63717Y33454D01*
X63700Y33442D01*
X63683Y33454D01*
X63575Y33475D01*
Y32425D01*
X63375D01*
Y32225D01*
X62843D01*
Y31731D01*
X62817Y31700D01*
X62425D01*
Y33775D01*
X62725Y34075D01*
X65950D01*
X66238Y33787D01*
D02*
G37*
G36*
X15717Y35657D02*
Y35472D01*
X17725D01*
X19733D01*
Y35584D01*
X19804Y35655D01*
X23370Y35653D01*
Y35100D01*
X26375D01*
X29380D01*
Y35580D01*
X29451Y35650D01*
X30133Y35650D01*
X32899Y32883D01*
Y32851D01*
X32867Y32803D01*
X32839Y32659D01*
Y32553D01*
X33821D01*
X34803D01*
Y32650D01*
X35243D01*
Y32550D01*
X36225D01*
X37207D01*
Y32650D01*
X38450D01*
X38775Y32325D01*
Y31875D01*
X38747Y31852D01*
X38259D01*
X38150Y31830D01*
X38057Y31768D01*
X37994Y31675D01*
X37973Y31565D01*
Y31050D01*
X37937Y30984D01*
X37909Y30950D01*
X31075Y30950D01*
X29650Y32375D01*
X15908Y32375D01*
X15268Y33015D01*
Y35586D01*
X15339Y35657D01*
X15717Y35657D01*
D02*
G37*
G36*
X30013Y30500D02*
X37240D01*
X37465Y30490D01*
X37625Y30330D01*
Y30055D01*
X37525Y29973D01*
X37490Y29980D01*
Y28775D01*
X37240D01*
Y28525D01*
X36659D01*
Y27925D01*
X36125D01*
X35375Y27175D01*
X34088D01*
X34017Y27275D01*
X34030Y27375D01*
Y28100D01*
X30320D01*
Y27375D01*
X30333Y27275D01*
X30262Y27175D01*
X18050D01*
X17900Y27325D01*
Y31200D01*
X18400Y31700D01*
X19287D01*
X19353Y31625D01*
X19344Y31562D01*
Y30650D01*
X22400D01*
X25455D01*
Y31562D01*
X25447Y31625D01*
X25513Y31700D01*
X28813D01*
X30013Y30500D01*
D02*
G37*
G36*
X47057Y29950D02*
X46757Y29650D01*
X43532D01*
X43244Y29938D01*
Y32025D01*
X43599D01*
X43625Y31994D01*
Y31500D01*
X44157D01*
Y31300D01*
X44357D01*
Y30249D01*
X44465Y30271D01*
X44482Y30282D01*
X44499Y30271D01*
X44607Y30249D01*
Y31300D01*
X45007D01*
Y30249D01*
X45115Y30271D01*
X45132Y30282D01*
X45149Y30271D01*
X45257Y30249D01*
Y31300D01*
X45657D01*
Y30249D01*
X45765Y30271D01*
X45782Y30282D01*
X45799Y30271D01*
X45907Y30249D01*
Y31300D01*
X46107D01*
Y31500D01*
X46639D01*
Y31994D01*
X46665Y32025D01*
X47057D01*
Y29950D01*
D02*
G37*
G36*
X34525Y19950D02*
X34250Y19675D01*
X29925Y19675D01*
X29600Y20000D01*
Y22552D01*
X30277D01*
X30337Y22452D01*
X30320Y22325D01*
Y21750D01*
X34030D01*
Y22325D01*
X34013Y22452D01*
X34073Y22552D01*
X34525D01*
Y19950D01*
D02*
G37*
G36*
X69972Y21450D02*
Y20890D01*
X69895Y20826D01*
X69869Y20831D01*
X69381D01*
X69252Y20806D01*
X69142Y20733D01*
X69071Y20625D01*
X69625D01*
Y19825D01*
X69071D01*
X69142Y19717D01*
X69252Y19644D01*
X69381Y19619D01*
X69869D01*
X69895Y19624D01*
X69972Y19560D01*
Y19063D01*
X69901Y18992D01*
X68778Y18992D01*
X68421Y19349D01*
X68421Y21174D01*
X68697Y21450D01*
X69972Y21450D01*
D02*
G37*
G36*
X66238Y22784D02*
Y20697D01*
X65883D01*
X65857Y20728D01*
Y21222D01*
X65325D01*
Y21422D01*
X65125D01*
Y22472D01*
X65017Y22451D01*
X65000Y22439D01*
X64983Y22451D01*
X64875Y22472D01*
Y21422D01*
X64475D01*
Y22472D01*
X64367Y22451D01*
X64350Y22440D01*
X64333Y22451D01*
X64225Y22472D01*
Y21422D01*
X63825D01*
Y22472D01*
X63717Y22451D01*
X63700Y22439D01*
X63683Y22451D01*
X63575Y22472D01*
Y21422D01*
X63375D01*
Y21222D01*
X62843D01*
Y20728D01*
X62817Y20697D01*
X62425D01*
Y22772D01*
X62725Y23072D01*
X65950D01*
X66238Y22784D01*
D02*
G37*
G36*
X28462Y19438D02*
X33162D01*
X33421Y19179D01*
Y14532D01*
X33396Y14512D01*
Y13900D01*
Y13288D01*
X33421Y13268D01*
Y11943D01*
X33396Y11922D01*
Y11311D01*
Y10699D01*
X33421Y10678D01*
Y10050D01*
X33746Y9725D01*
X34619D01*
X34732Y9611D01*
X34728Y9328D01*
X34450D01*
Y8747D01*
X33950D01*
Y9328D01*
X33631D01*
X33502Y9303D01*
X33392Y9230D01*
X33284Y9247D01*
X33263Y9280D01*
X33153Y9353D01*
X33024Y9378D01*
X33005D01*
Y8797D01*
X32505D01*
Y9378D01*
X32486D01*
X32357Y9353D01*
X32247Y9280D01*
X32174Y9170D01*
X32149Y9041D01*
Y8643D01*
X32049Y8601D01*
X31525Y9125D01*
X31525Y13407D01*
X31153Y13778D01*
X30182Y14750D01*
X29296Y15636D01*
X29296Y16202D01*
X29199Y16299D01*
X29192Y16308D01*
X29200Y16350D01*
X28595D01*
X27951D01*
X27912Y16299D01*
X21026Y16299D01*
X20210D01*
X18609Y17900D01*
X18425Y18084D01*
Y21150D01*
X19344D01*
Y20350D01*
X22400D01*
X25455D01*
Y21150D01*
X26750D01*
X28462Y19438D01*
D02*
G37*
G36*
X71829Y21101D02*
X71829Y19276D01*
X71553Y19000D01*
X70278Y19000D01*
Y19560D01*
X70355Y19624D01*
X70375Y19620D01*
Y20225D01*
Y20830D01*
X70355Y20826D01*
X70278Y20890D01*
Y21442D01*
X71475D01*
X71829Y21101D01*
D02*
G37*
G36*
X47068Y18922D02*
X46768Y18622D01*
X43543D01*
X43256Y18909D01*
Y20997D01*
X43611D01*
X43636Y20965D01*
Y20472D01*
X44168D01*
Y20272D01*
X44368D01*
Y19221D01*
X44476Y19242D01*
X44493Y19254D01*
X44511Y19242D01*
X44618Y19221D01*
Y20272D01*
X45018D01*
Y19221D01*
X45126Y19242D01*
X45143Y19254D01*
X45161Y19242D01*
X45268Y19221D01*
Y20272D01*
X45668D01*
Y19221D01*
X45776Y19242D01*
X45793Y19254D01*
X45811Y19242D01*
X45918Y19221D01*
Y20272D01*
X46118D01*
Y20472D01*
X46650D01*
Y20965D01*
X46676Y20997D01*
X47068D01*
Y18922D01*
D02*
G37*
G36*
X117481Y18200D02*
Y17556D01*
X117381Y17474D01*
X117344Y17481D01*
X116856D01*
X116727Y17456D01*
X116617Y17383D01*
X116546Y17275D01*
X117100D01*
Y16475D01*
X116546D01*
X116617Y16367D01*
X116727Y16294D01*
X116856Y16268D01*
X117344D01*
X117381Y16276D01*
X117481Y16194D01*
Y15571D01*
X117410Y15500D01*
X116181Y15500D01*
X115881Y15800D01*
Y18029D01*
X116051Y18200D01*
X117481Y18200D01*
D02*
G37*
G36*
X119319Y17950D02*
X119319Y15721D01*
X119099Y15500D01*
X117731D01*
Y16215D01*
X117808Y16278D01*
X117850Y16270D01*
Y16875D01*
Y17480D01*
X117808Y17472D01*
X117731Y17535D01*
Y18200D01*
X119069D01*
X119319Y17950D01*
D02*
G37*
G36*
X124716Y13941D02*
X125909Y13941D01*
X126875Y12975D01*
X127355Y12496D01*
Y10375D01*
X126316Y10375D01*
X126392Y10433D01*
X126501Y10575D01*
X120499D01*
X120608Y10433D01*
X120683Y10375D01*
X119713Y10375D01*
Y15050D01*
X120194Y15531D01*
X120434D01*
X120422Y15514D01*
X120392Y15362D01*
Y15200D01*
X121200D01*
X122008D01*
Y15362D01*
X121978Y15514D01*
X121966Y15531D01*
X123125D01*
X124716Y13941D01*
D02*
G37*
G36*
X39878Y18797D02*
X39878Y15753D01*
X39200Y15075D01*
X37125D01*
Y15670D01*
X37325D01*
Y17225D01*
Y18780D01*
X37125D01*
Y19375D01*
X39300D01*
X39878Y18797D01*
D02*
G37*
G36*
X35276Y14894D02*
X35276Y14850D01*
Y13022D01*
X35001Y12747D01*
X33826D01*
Y13231D01*
X33896Y13288D01*
Y13900D01*
Y14512D01*
X33826Y14569D01*
Y15055D01*
X35116D01*
X35276Y14894D01*
D02*
G37*
G36*
X35276Y12305D02*
X35276Y12260D01*
Y10432D01*
X35001Y10158D01*
X33826D01*
Y10642D01*
X33896Y10699D01*
Y11311D01*
Y11922D01*
X33826Y11979D01*
Y12466D01*
X35116D01*
X35276Y12305D01*
D02*
G37*
G36*
X39700Y10675D02*
Y9400D01*
X39140D01*
X39076Y9477D01*
X39080Y9497D01*
X38475D01*
X37870D01*
X37874Y9477D01*
X37810Y9400D01*
X37300D01*
X37300Y10652D01*
X37599Y10951D01*
X39424Y10951D01*
X39700Y10675D01*
D02*
G37*
G36*
X42500Y10675D02*
Y9400D01*
X41940D01*
X41876Y9477D01*
X41880Y9497D01*
X41275D01*
X40670D01*
X40674Y9477D01*
X40610Y9400D01*
X40100D01*
X40100Y10652D01*
X40399Y10951D01*
X42224Y10951D01*
X42500Y10675D01*
D02*
G37*
G36*
X17317Y59775D02*
X18275D01*
Y59275D01*
X18775D01*
Y57517D01*
X18800D01*
X18804Y57517D01*
X18881Y57454D01*
Y57125D01*
X20119Y55887D01*
X20119Y53071D01*
X19137Y52088D01*
X19137Y46662D01*
X14750Y42275D01*
X14550Y42075D01*
X14550Y18475D01*
X14950Y18075D01*
X15650Y17375D01*
X18125D01*
X20075Y15425D01*
X21275D01*
X30600Y6100D01*
Y4900D01*
X30600Y3025D01*
X23625D01*
Y4112D01*
X23725Y4148D01*
X23827Y4024D01*
X24063Y3830D01*
X24332Y3686D01*
X24428Y3657D01*
Y5125D01*
Y6593D01*
X24332Y6564D01*
X24063Y6420D01*
X23827Y6226D01*
X23725Y6102D01*
X23625Y6138D01*
Y6925D01*
X16413Y14138D01*
X12387D01*
X11628Y14897D01*
Y20647D01*
X10875Y21400D01*
Y36875D01*
X11725Y37725D01*
X11725Y43900D01*
X15250Y47425D01*
Y52075D01*
X16250Y53075D01*
X16250Y53300D01*
X16250Y59875D01*
X17317D01*
Y59775D01*
D02*
G37*
G36*
X82895Y109593D02*
X85735Y109441D01*
X88569Y109187D01*
X91392Y108833D01*
X94200Y108378D01*
X96990Y107823D01*
X99759Y107168D01*
X102502Y106416D01*
X105217Y105566D01*
X107900Y104619D01*
X110548Y103578D01*
X113156Y102442D01*
X115722Y101214D01*
X118243Y99896D01*
X120715Y98488D01*
X123136Y96993D01*
X125501Y95412D01*
X127809Y93748D01*
X130056Y92003D01*
X132239Y90179D01*
X134355Y88278D01*
X136402Y86302D01*
X138378Y84255D01*
X140279Y82138D01*
X142103Y79955D01*
X143848Y77709D01*
X145512Y75401D01*
X147093Y73036D01*
X148588Y70615D01*
X149996Y68143D01*
X151314Y65622D01*
X152542Y63056D01*
X153678Y60447D01*
X154719Y57800D01*
X155666Y55117D01*
X156516Y52402D01*
X157269Y49659D01*
X157923Y46890D01*
X158478Y44100D01*
X158933Y41292D01*
X159287Y38469D01*
X159541Y35635D01*
X159693Y32794D01*
X159744Y29950D01*
X159685Y26887D01*
X159509Y23829D01*
X159215Y20780D01*
X158804Y17744D01*
X158277Y14727D01*
X157634Y11732D01*
X156876Y8764D01*
X156005Y5827D01*
X155022Y2926D01*
X154001Y256D01*
X149179D01*
X149060Y417D01*
X153340Y14365D01*
X154225Y19100D01*
X154550Y21650D01*
X154800Y24900D01*
X154931Y26599D01*
X154979Y27399D01*
X154979Y30025D01*
X154914Y32925D01*
X154700Y36525D01*
X154306Y39965D01*
X154140Y41405D01*
X153825Y43050D01*
X152825Y47825D01*
X152275Y49925D01*
X151538Y52412D01*
X150300Y56100D01*
X148917Y59441D01*
X147775Y61975D01*
X145776Y65950D01*
X143347Y70100D01*
X142124Y71961D01*
X140625Y74000D01*
X138218Y77275D01*
X134850Y81100D01*
X131317Y84633D01*
X127332Y88161D01*
X123975Y90650D01*
X119530Y93650D01*
X115663Y96063D01*
X110800Y98225D01*
X107546Y99672D01*
X101107Y101920D01*
X96944Y102935D01*
X93591Y103708D01*
X88770Y104403D01*
X82741Y104975D01*
X78425Y104875D01*
X75950Y104773D01*
X74568Y104675D01*
X72825Y104551D01*
X70875Y104350D01*
X68425Y104000D01*
X65269Y103461D01*
X59750Y102150D01*
X55750Y100875D01*
X51350Y99254D01*
X49125Y98225D01*
X45604Y96596D01*
X42284Y94713D01*
X37575Y91775D01*
X34425Y89426D01*
X30987Y86672D01*
X27216Y83115D01*
X22983Y78668D01*
X20499Y75500D01*
X17700Y71650D01*
X15325Y67750D01*
X14100Y65625D01*
X12975Y63500D01*
X10339Y57596D01*
X10059Y56822D01*
X9742Y55943D01*
X9004Y53900D01*
X8322Y51701D01*
X7964Y50546D01*
X7775Y49825D01*
X7493Y48857D01*
X7250Y47825D01*
X6750Y45700D01*
X5875Y41125D01*
X5600Y38800D01*
X5400Y36750D01*
X5250Y34775D01*
X5124Y32725D01*
X5110Y31978D01*
X5052Y28850D01*
X5166Y26051D01*
X5361Y23600D01*
X5532Y21451D01*
X5875Y19100D01*
X6255Y16495D01*
X6750Y14250D01*
X7125Y12550D01*
X11096Y418D01*
X10978Y256D01*
X6099D01*
X5078Y2926D01*
X4095Y5827D01*
X3224Y8764D01*
X2466Y11732D01*
X1823Y14727D01*
X1296Y17744D01*
X885Y20780D01*
X591Y23829D01*
X415Y26887D01*
X356Y29950D01*
X407Y32794D01*
X559Y35635D01*
X813Y38469D01*
X1167Y41292D01*
X1622Y44100D01*
X2177Y46890D01*
X2831Y49659D01*
X3584Y52402D01*
X4434Y55117D01*
X5381Y57800D01*
X6422Y60448D01*
X7558Y63056D01*
X8786Y65622D01*
X10104Y68143D01*
X11512Y70615D01*
X13007Y73036D01*
X14588Y75401D01*
X16252Y77709D01*
X17997Y79956D01*
X19821Y82138D01*
X21722Y84255D01*
X23698Y86302D01*
X25745Y88278D01*
X27861Y90179D01*
X30044Y92003D01*
X32291Y93748D01*
X34599Y95412D01*
X36964Y96993D01*
X39385Y98488D01*
X41857Y99896D01*
X44378Y101214D01*
X46944Y102442D01*
X49552Y103578D01*
X52200Y104619D01*
X54883Y105566D01*
X57598Y106416D01*
X60341Y107168D01*
X63110Y107823D01*
X65900Y108378D01*
X68708Y108833D01*
X71531Y109187D01*
X74365Y109441D01*
X77206Y109593D01*
X80050Y109644D01*
X82895Y109593D01*
D02*
G37*
%LPC*%
G36*
X71413Y87325D02*
X70913D01*
Y86825D01*
X71413D01*
Y87325D01*
D02*
G37*
G36*
X70413D02*
X69913D01*
Y86825D01*
X70413D01*
Y87325D01*
D02*
G37*
G36*
X69713Y87325D02*
X69213D01*
Y86825D01*
X69713D01*
Y87325D01*
D02*
G37*
G36*
X68713D02*
X68213D01*
Y86825D01*
X68713D01*
Y87325D01*
D02*
G37*
G36*
X37922Y88725D02*
X37263D01*
Y87525D01*
X37298Y87349D01*
X37397Y87201D01*
X37546Y87101D01*
X37722Y87066D01*
X37922D01*
Y88725D01*
D02*
G37*
G36*
X38925Y86068D02*
X38300D01*
X38150Y86048D01*
X38010Y85990D01*
X37890Y85898D01*
X37798Y85778D01*
X37740Y85638D01*
X37720Y85488D01*
Y84913D01*
X38925D01*
Y86068D01*
D02*
G37*
G36*
X36507Y84003D02*
X35307D01*
Y83344D01*
X36966D01*
Y83544D01*
X36931Y83720D01*
X36832Y83869D01*
X36683Y83968D01*
X36507Y84003D01*
D02*
G37*
G36*
X34507D02*
X33307D01*
X33132Y83968D01*
X32983Y83869D01*
X32883Y83720D01*
X32849Y83544D01*
Y83344D01*
X34507D01*
Y84003D01*
D02*
G37*
G36*
X32100Y83984D02*
X30900D01*
Y83325D01*
X32559D01*
Y83525D01*
X32524Y83701D01*
X32424Y83849D01*
X32276Y83949D01*
X32100Y83984D01*
D02*
G37*
G36*
X38925Y84113D02*
X37720D01*
Y83538D01*
X37740Y83388D01*
X37798Y83248D01*
X37890Y83128D01*
X38010Y83035D01*
X38150Y82978D01*
X38300Y82958D01*
X38925D01*
Y84113D01*
D02*
G37*
G36*
X81175Y91851D02*
X81033Y91742D01*
X80917Y91591D01*
X80844Y91414D01*
X80819Y91225D01*
Y89750D01*
X81175D01*
Y91851D01*
D02*
G37*
G36*
X79863Y89708D02*
X79700D01*
Y89150D01*
X80258D01*
Y89312D01*
X80228Y89464D01*
X80142Y89592D01*
X80014Y89678D01*
X79863Y89708D01*
D02*
G37*
G36*
X80258Y88650D02*
X79700D01*
Y88092D01*
X79863D01*
X80014Y88122D01*
X80142Y88208D01*
X80228Y88336D01*
X80258Y88488D01*
Y88650D01*
D02*
G37*
G36*
X81175Y87950D02*
X80819D01*
Y86475D01*
X80844Y86286D01*
X80917Y86109D01*
X81033Y85958D01*
X81175Y85849D01*
Y87950D01*
D02*
G37*
G36*
X43422Y91184D02*
X43072D01*
Y89375D01*
X43881D01*
Y90725D01*
X43846Y90901D01*
X43746Y91049D01*
X43597Y91149D01*
X43422Y91184D01*
D02*
G37*
G36*
X43881Y88875D02*
X43072D01*
Y87066D01*
X43422D01*
X43597Y87101D01*
X43746Y87201D01*
X43846Y87349D01*
X43881Y87525D01*
Y88875D01*
D02*
G37*
G36*
X46750Y86068D02*
X45975D01*
Y84763D01*
X47330D01*
Y85488D01*
X47310Y85638D01*
X47252Y85778D01*
X47160Y85898D01*
X47040Y85990D01*
X46900Y86048D01*
X46750Y86068D01*
D02*
G37*
G36*
X47330Y84263D02*
X45975D01*
Y82958D01*
X46750D01*
X46900Y82978D01*
X47040Y83035D01*
X47160Y83128D01*
X47252Y83248D01*
X47310Y83388D01*
X47330Y83538D01*
Y84263D01*
D02*
G37*
G36*
X46750Y81746D02*
Y77550D01*
X47759D01*
Y80650D01*
X47722Y80937D01*
X47611Y81205D01*
X47435Y81435D01*
X47205Y81611D01*
X46937Y81722D01*
X46750Y81746D01*
D02*
G37*
G36*
X47759Y75550D02*
X46750D01*
Y71354D01*
X46937Y71378D01*
X47205Y71489D01*
X47435Y71665D01*
X47611Y71895D01*
X47722Y72163D01*
X47759Y72450D01*
Y75550D01*
D02*
G37*
G36*
X39000Y81810D02*
X38450D01*
X38150Y81770D01*
X37870Y81655D01*
X37630Y81470D01*
X37445Y81230D01*
X37330Y80950D01*
X37290Y80650D01*
Y76900D01*
X39000D01*
Y81810D01*
D02*
G37*
G36*
Y76200D02*
X37290D01*
Y72450D01*
X37330Y72150D01*
X37445Y71870D01*
X37630Y71630D01*
X37870Y71445D01*
X38150Y71330D01*
X38450Y71290D01*
X39000D01*
Y76200D01*
D02*
G37*
G36*
X41175Y69605D02*
X40250D01*
Y68400D01*
X41755D01*
Y69025D01*
X41736Y69175D01*
X41678Y69315D01*
X41585Y69435D01*
X41465Y69527D01*
X41326Y69585D01*
X41175Y69605D01*
D02*
G37*
G36*
X39550D02*
X38625D01*
X38475Y69585D01*
X38335Y69527D01*
X38215Y69435D01*
X38123Y69315D01*
X38065Y69175D01*
X38045Y69025D01*
Y68400D01*
X39550D01*
Y69605D01*
D02*
G37*
G36*
X129775Y84098D02*
X129594Y84062D01*
X129441Y83960D01*
X129167Y83686D01*
X130164Y82689D01*
X130771Y83297D01*
X130108Y83960D01*
X129955Y84062D01*
X129775Y84098D01*
D02*
G37*
G36*
X131125Y82943D02*
X130517Y82336D01*
X131514Y81339D01*
X131788Y81613D01*
X131890Y81766D01*
X131926Y81947D01*
X131890Y82127D01*
X131788Y82280D01*
X131125Y82943D01*
D02*
G37*
G36*
X126693Y81211D02*
X126419Y80937D01*
X126316Y80784D01*
X126280Y80603D01*
X126316Y80423D01*
X126419Y80270D01*
X127081Y79607D01*
X127689Y80214D01*
X126693Y81211D01*
D02*
G37*
G36*
X128042Y79861D02*
X127435Y79253D01*
X128098Y78590D01*
X128251Y78488D01*
X128431Y78452D01*
X128612Y78488D01*
X128765Y78590D01*
X129039Y78864D01*
X128042Y79861D01*
D02*
G37*
G36*
X34507Y79452D02*
X33307D01*
X33151Y79421D01*
X33019Y79333D01*
X32931Y79200D01*
X32900Y79044D01*
Y78844D01*
X34507D01*
Y79452D01*
D02*
G37*
G36*
X32100Y79433D02*
X30900D01*
Y78825D01*
X32508D01*
Y79025D01*
X32477Y79181D01*
X32388Y79313D01*
X32256Y79402D01*
X32100Y79433D01*
D02*
G37*
G36*
X30100D02*
X28900D01*
X28744Y79402D01*
X28612Y79313D01*
X28523Y79181D01*
X28492Y79025D01*
Y78825D01*
X30100D01*
Y79433D01*
D02*
G37*
G36*
X34507Y78044D02*
X32900D01*
Y77844D01*
X32931Y77688D01*
X33019Y77556D01*
X33151Y77468D01*
X33307Y77437D01*
X34507D01*
Y78044D01*
D02*
G37*
G36*
X32508Y78025D02*
X30900D01*
Y77417D01*
X32100D01*
X32256Y77448D01*
X32388Y77537D01*
X32477Y77669D01*
X32508Y77825D01*
Y78025D01*
D02*
G37*
G36*
X30100D02*
X28492D01*
Y77825D01*
X28523Y77669D01*
X28612Y77537D01*
X28744Y77448D01*
X28900Y77417D01*
X30100D01*
Y78025D01*
D02*
G37*
G36*
X26406Y76057D02*
X26300D01*
Y75300D01*
X26782D01*
Y75681D01*
X26754Y75825D01*
X26672Y75947D01*
X26550Y76029D01*
X26406Y76057D01*
D02*
G37*
G36*
X25500D02*
X25394D01*
X25250Y76029D01*
X25128Y75947D01*
X25046Y75825D01*
X25018Y75681D01*
Y75300D01*
X25500D01*
Y76057D01*
D02*
G37*
G36*
X26782Y74500D02*
X26300D01*
Y73743D01*
X26406D01*
X26550Y73771D01*
X26672Y73853D01*
X26754Y73975D01*
X26782Y74119D01*
Y74500D01*
D02*
G37*
G36*
X25500D02*
X25018D01*
Y74119D01*
X25046Y73975D01*
X25128Y73853D01*
X25250Y73771D01*
X25394Y73743D01*
X25500D01*
Y74500D01*
D02*
G37*
G36*
X24831Y73632D02*
X24725D01*
Y72875D01*
X25207D01*
Y73256D01*
X25179Y73400D01*
X25097Y73522D01*
X24975Y73604D01*
X24831Y73632D01*
D02*
G37*
G36*
X25207Y72075D02*
X24725D01*
Y71318D01*
X24831D01*
X24975Y71346D01*
X25097Y71428D01*
X25179Y71550D01*
X25207Y71694D01*
Y72075D01*
D02*
G37*
G36*
X23925D02*
X23443D01*
Y71694D01*
X23471Y71550D01*
X23553Y71428D01*
X23675Y71346D01*
X23819Y71318D01*
X23925D01*
Y72075D01*
D02*
G37*
G36*
X23782Y69675D02*
X23300D01*
Y68918D01*
X23406D01*
X23550Y68946D01*
X23672Y69028D01*
X23754Y69150D01*
X23782Y69294D01*
Y69675D01*
D02*
G37*
G36*
X22500D02*
X22018D01*
Y69294D01*
X22046Y69150D01*
X22128Y69028D01*
X22250Y68946D01*
X22394Y68918D01*
X22500D01*
Y69675D01*
D02*
G37*
G36*
X28725Y68428D02*
X28525D01*
X28369Y68397D01*
X28237Y68309D01*
X28148Y68177D01*
X28117Y68021D01*
Y66821D01*
X28725D01*
Y68428D01*
D02*
G37*
G36*
X22457Y67250D02*
X21975D01*
Y66493D01*
X22081D01*
X22225Y66521D01*
X22347Y66603D01*
X22429Y66725D01*
X22457Y66869D01*
Y67250D01*
D02*
G37*
G36*
X21175D02*
X20693D01*
Y66869D01*
X20721Y66725D01*
X20803Y66603D01*
X20925Y66521D01*
X21069Y66493D01*
X21175D01*
Y67250D01*
D02*
G37*
G36*
X20600Y65882D02*
X20475D01*
Y64575D01*
X20982D01*
Y65500D01*
X20953Y65646D01*
X20870Y65770D01*
X20746Y65853D01*
X20600Y65882D01*
D02*
G37*
G36*
X28725Y66021D02*
X28117D01*
Y64821D01*
X28148Y64665D01*
X28237Y64532D01*
X28369Y64444D01*
X28525Y64413D01*
X28725D01*
Y66021D01*
D02*
G37*
G36*
X28750Y63778D02*
X28550D01*
X28394Y63747D01*
X28262Y63659D01*
X28173Y63527D01*
X28142Y63371D01*
Y62171D01*
X28750D01*
Y63778D01*
D02*
G37*
G36*
X31100Y63033D02*
X30900D01*
X30744Y63002D01*
X30612Y62913D01*
X30523Y62781D01*
X30492Y62625D01*
Y61425D01*
X31100D01*
Y63033D01*
D02*
G37*
G36*
X30158Y61371D02*
X29550D01*
Y59763D01*
X29750D01*
X29906Y59794D01*
X30038Y59882D01*
X30127Y60015D01*
X30158Y60171D01*
Y61371D01*
D02*
G37*
G36*
X28750D02*
X28142D01*
Y60171D01*
X28173Y60015D01*
X28262Y59882D01*
X28394Y59794D01*
X28550Y59763D01*
X28750D01*
Y61371D01*
D02*
G37*
G36*
X31100Y60625D02*
X30492D01*
Y59425D01*
X30523Y59269D01*
X30612Y59137D01*
X30744Y59048D01*
X30900Y59017D01*
X31100D01*
Y60625D01*
D02*
G37*
G36*
X31097Y58758D02*
X30897D01*
X30741Y58727D01*
X30609Y58638D01*
X30520Y58506D01*
X30489Y58350D01*
Y57150D01*
X31097D01*
Y58758D01*
D02*
G37*
G36*
Y56350D02*
X30489D01*
Y55150D01*
X30520Y54994D01*
X30609Y54862D01*
X30741Y54773D01*
X30897Y54742D01*
X31097D01*
Y56350D01*
D02*
G37*
G36*
X23206Y76108D02*
X23100D01*
Y75300D01*
X23633D01*
Y75681D01*
X23601Y75845D01*
X23508Y75983D01*
X23370Y76076D01*
X23206Y76108D01*
D02*
G37*
G36*
X22300D02*
X22194D01*
X22030Y76076D01*
X21892Y75983D01*
X21799Y75845D01*
X21767Y75681D01*
Y75300D01*
X22300D01*
Y76108D01*
D02*
G37*
G36*
X21631Y73683D02*
X21525D01*
Y72875D01*
X22058D01*
Y73256D01*
X22026Y73420D01*
X21933Y73558D01*
X21795Y73651D01*
X21631Y73683D01*
D02*
G37*
G36*
X20725D02*
X20619D01*
X20455Y73651D01*
X20317Y73558D01*
X20224Y73420D01*
X20192Y73256D01*
Y72875D01*
X20725D01*
Y73683D01*
D02*
G37*
G36*
X22058Y72075D02*
X21525D01*
Y71267D01*
X21631D01*
X21795Y71299D01*
X21933Y71392D01*
X22026Y71530D01*
X22058Y71694D01*
Y72075D01*
D02*
G37*
G36*
X20725D02*
X20192D01*
Y71694D01*
X20224Y71530D01*
X20317Y71392D01*
X20378Y71351D01*
X20339Y71257D01*
X20206Y71283D01*
X20100D01*
Y70475D01*
X20633D01*
Y70856D01*
X20601Y71020D01*
X20508Y71158D01*
X20447Y71199D01*
X20486Y71293D01*
X20619Y71267D01*
X20725D01*
Y72075D01*
D02*
G37*
G36*
X19300Y71283D02*
X19194D01*
X19030Y71251D01*
X18892Y71158D01*
X18799Y71020D01*
X18767Y70856D01*
Y70475D01*
X19300D01*
Y71283D01*
D02*
G37*
G36*
Y69675D02*
X18767D01*
Y69294D01*
X18799Y69130D01*
X18892Y68992D01*
X18964Y68944D01*
X18925Y68850D01*
X18881Y68858D01*
X18775D01*
Y68050D01*
X19308D01*
Y68431D01*
X19276Y68595D01*
X19183Y68733D01*
X19111Y68781D01*
X19150Y68875D01*
X19194Y68867D01*
X19300D01*
Y69675D01*
D02*
G37*
G36*
X17975Y68858D02*
X17869D01*
X17705Y68826D01*
X17567Y68733D01*
X17474Y68595D01*
X17442Y68431D01*
Y68050D01*
X17975D01*
Y68858D01*
D02*
G37*
G36*
X19308Y67250D02*
X18775D01*
Y66442D01*
X18881D01*
X19045Y66474D01*
X19183Y66567D01*
X19276Y66705D01*
X19308Y66869D01*
Y67250D01*
D02*
G37*
G36*
X17975D02*
X17442D01*
Y66869D01*
X17474Y66705D01*
X17567Y66567D01*
X17705Y66474D01*
X17869Y66442D01*
X17975D01*
Y67250D01*
D02*
G37*
G36*
X17875Y65933D02*
X17750D01*
X17584Y65900D01*
X17444Y65806D01*
X17350Y65666D01*
X17317Y65500D01*
Y64575D01*
X17875D01*
Y65933D01*
D02*
G37*
G36*
X69725Y70900D02*
X69602Y70876D01*
X69492Y70803D01*
X69419Y70693D01*
X69394Y70564D01*
Y70545D01*
X69725D01*
Y70900D01*
D02*
G37*
G36*
Y70045D02*
X69394D01*
Y70026D01*
X69419Y69897D01*
X69492Y69787D01*
X69602Y69714D01*
X69725Y69690D01*
Y70045D01*
D02*
G37*
G36*
X67863Y69058D02*
X67700D01*
Y68500D01*
X68258D01*
Y68662D01*
X68228Y68814D01*
X68142Y68942D01*
X68014Y69028D01*
X67863Y69058D01*
D02*
G37*
G36*
X69712Y69030D02*
X69287D01*
X69102Y68993D01*
X68944Y68888D01*
X68840Y68731D01*
X68803Y68545D01*
Y68020D01*
X69712D01*
Y69030D01*
D02*
G37*
G36*
X65610Y66500D02*
Y65650D01*
X65942D01*
Y66143D01*
X65914Y66282D01*
X65836Y66400D01*
X65718Y66479D01*
X65610Y66500D01*
D02*
G37*
G36*
X63260D02*
X63152Y66479D01*
X63034Y66400D01*
X62956Y66282D01*
X62928Y66143D01*
Y65650D01*
X63260D01*
Y66500D01*
D02*
G37*
G36*
X46619Y64100D02*
X46287D01*
Y63250D01*
X46395Y63271D01*
X46513Y63350D01*
X46591Y63468D01*
X46619Y63607D01*
Y64100D01*
D02*
G37*
G36*
X43937D02*
X43605D01*
Y63607D01*
X43633Y63468D01*
X43711Y63350D01*
X43829Y63271D01*
X43937Y63250D01*
Y64100D01*
D02*
G37*
G36*
X75717Y64830D02*
X75292D01*
Y63820D01*
X76201D01*
Y64345D01*
X76164Y64531D01*
X76059Y64688D01*
X75902Y64793D01*
X75717Y64830D01*
D02*
G37*
G36*
X74792D02*
X74367D01*
X74182Y64793D01*
X74024Y64688D01*
X73920Y64531D01*
X73883Y64345D01*
Y63820D01*
X74792D01*
Y64830D01*
D02*
G37*
G36*
X128558Y63425D02*
X128000D01*
Y62867D01*
X128163D01*
X128314Y62897D01*
X128442Y62983D01*
X128528Y63111D01*
X128558Y63263D01*
Y63425D01*
D02*
G37*
G36*
X128500Y62209D02*
X127975D01*
Y61300D01*
X128984D01*
Y61725D01*
X128947Y61910D01*
X128842Y62067D01*
X128685Y62172D01*
X128500Y62209D01*
D02*
G37*
G36*
X129819Y60629D02*
X129801D01*
Y60298D01*
X130156D01*
X130131Y60420D01*
X130058Y60530D01*
X129949Y60603D01*
X129819Y60629D01*
D02*
G37*
G36*
X133977Y63352D02*
X133743Y63118D01*
X133994Y62867D01*
X134064Y62971D01*
X134090Y63100D01*
X134064Y63229D01*
X133991Y63339D01*
X133977Y63352D01*
D02*
G37*
G36*
X135106Y63307D02*
X134926Y63271D01*
X134773Y63169D01*
X134499Y62895D01*
X135495Y61899D01*
X136103Y62506D01*
X135440Y63169D01*
X135287Y63271D01*
X135106Y63307D01*
D02*
G37*
G36*
X136456Y62153D02*
X135849Y61545D01*
X136845Y60549D01*
X137119Y60823D01*
X137222Y60976D01*
X137257Y61156D01*
X137222Y61337D01*
X137119Y61490D01*
X136456Y62153D01*
D02*
G37*
G36*
X24225Y66021D02*
X23566D01*
Y64821D01*
X23601Y64645D01*
X23701Y64496D01*
X23849Y64397D01*
X24025Y64362D01*
X24225D01*
Y66021D01*
D02*
G37*
G36*
X24250Y63829D02*
X24050D01*
X23874Y63794D01*
X23726Y63695D01*
X23626Y63546D01*
X23591Y63371D01*
Y62171D01*
X24250D01*
Y63829D01*
D02*
G37*
G36*
Y61371D02*
X23591D01*
Y60171D01*
X23626Y59995D01*
X23726Y59846D01*
X23874Y59747D01*
X24050Y59712D01*
X24250D01*
Y61371D01*
D02*
G37*
G36*
X20600Y61033D02*
X20575D01*
Y59775D01*
X21033D01*
Y60600D01*
X21000Y60766D01*
X20906Y60906D01*
X20766Y61000D01*
X20600Y61033D01*
D02*
G37*
G36*
X14406Y56029D02*
X13950D01*
Y55200D01*
X14929D01*
Y55506D01*
X14912Y55642D01*
X14859Y55768D01*
X14776Y55876D01*
X14668Y55959D01*
X14542Y56012D01*
X14406Y56029D01*
D02*
G37*
G36*
X12950D02*
X12494D01*
X12358Y56012D01*
X12232Y55959D01*
X12124Y55876D01*
X12041Y55768D01*
X11988Y55642D01*
X11971Y55506D01*
Y55200D01*
X12950D01*
Y56029D01*
D02*
G37*
G36*
X14929Y54200D02*
X13950D01*
Y53371D01*
X14406D01*
X14542Y53388D01*
X14668Y53441D01*
X14776Y53524D01*
X14859Y53632D01*
X14912Y53758D01*
X14929Y53894D01*
Y54200D01*
D02*
G37*
G36*
X12950D02*
X11971D01*
Y53894D01*
X11988Y53758D01*
X12041Y53632D01*
X12124Y53524D01*
X12232Y53441D01*
X12358Y53388D01*
X12494Y53371D01*
X12950D01*
Y54200D01*
D02*
G37*
G36*
X13356Y51404D02*
X12900D01*
Y50575D01*
X13879D01*
Y50881D01*
X13862Y51017D01*
X13809Y51143D01*
X13726Y51251D01*
X13618Y51334D01*
X13492Y51387D01*
X13356Y51404D01*
D02*
G37*
G36*
X11900D02*
X11444D01*
X11308Y51387D01*
X11182Y51334D01*
X11074Y51251D01*
X10991Y51143D01*
X10938Y51017D01*
X10921Y50881D01*
Y50575D01*
X11900D01*
Y51404D01*
D02*
G37*
G36*
X13879Y49575D02*
X12900D01*
Y48746D01*
X13356D01*
X13492Y48763D01*
X13618Y48816D01*
X13726Y48899D01*
X13809Y49007D01*
X13862Y49133D01*
X13879Y49269D01*
Y49575D01*
D02*
G37*
G36*
X11900D02*
X10921D01*
Y49269D01*
X10938Y49133D01*
X10991Y49007D01*
X11074Y48899D01*
X11182Y48816D01*
X11308Y48763D01*
X11444Y48746D01*
X11900D01*
Y49575D01*
D02*
G37*
G36*
X10050Y44293D02*
Y43700D01*
X10643D01*
X10553Y43870D01*
X10403Y44053D01*
X10220Y44203D01*
X10050Y44293D01*
D02*
G37*
G36*
X9050Y44293D02*
X8880Y44203D01*
X8697Y44053D01*
X8547Y43870D01*
X8457Y43700D01*
X9050D01*
Y44293D01*
D02*
G37*
G36*
Y42700D02*
X8457D01*
X8547Y42530D01*
X8697Y42347D01*
X8880Y42197D01*
X9050Y42107D01*
Y42700D01*
D02*
G37*
G36*
X10643D02*
X10050D01*
Y42107D01*
X10220Y42197D01*
X10403Y42347D01*
X10553Y42530D01*
X10643Y42700D01*
D02*
G37*
G36*
X9225Y35068D02*
Y34475D01*
X9818D01*
X9727Y34645D01*
X9577Y34828D01*
X9395Y34978D01*
X9225Y35068D01*
D02*
G37*
G36*
X8225Y35068D02*
X8055Y34978D01*
X7872Y34828D01*
X7722Y34645D01*
X7631Y34475D01*
X8225D01*
Y35068D01*
D02*
G37*
G36*
X9818Y33475D02*
X9225D01*
Y32882D01*
X9395Y32972D01*
X9577Y33122D01*
X9727Y33305D01*
X9818Y33475D01*
D02*
G37*
G36*
X8225D02*
X7631D01*
X7722Y33305D01*
X7872Y33122D01*
X8055Y32972D01*
X8225Y32882D01*
Y33475D01*
D02*
G37*
G36*
X9275Y25918D02*
Y25325D01*
X9868D01*
X9778Y25495D01*
X9628Y25678D01*
X9445Y25828D01*
X9275Y25918D01*
D02*
G37*
G36*
X8275Y25918D02*
X8105Y25828D01*
X7922Y25678D01*
X7772Y25495D01*
X7682Y25325D01*
X8275D01*
Y25918D01*
D02*
G37*
G36*
X9868Y24325D02*
X9275D01*
Y23732D01*
X9445Y23822D01*
X9628Y23972D01*
X9778Y24155D01*
X9868Y24325D01*
D02*
G37*
G36*
X8275D02*
X7682D01*
X7772Y24155D01*
X7922Y23972D01*
X8105Y23822D01*
X8275Y23732D01*
Y24325D01*
D02*
G37*
G36*
X10000Y16763D02*
Y16170D01*
X10593D01*
X10503Y16340D01*
X10353Y16523D01*
X10170Y16673D01*
X10000Y16763D01*
D02*
G37*
G36*
X9000Y16763D02*
X8830Y16673D01*
X8647Y16523D01*
X8497Y16340D01*
X8407Y16170D01*
X9000D01*
Y16763D01*
D02*
G37*
G36*
X10593Y15170D02*
X10000D01*
Y14577D01*
X10170Y14667D01*
X10353Y14817D01*
X10503Y15000D01*
X10593Y15170D01*
D02*
G37*
G36*
X9000D02*
X8407D01*
X8497Y15000D01*
X8647Y14817D01*
X8830Y14667D01*
X9000Y14577D01*
Y15170D01*
D02*
G37*
G36*
X18428Y6593D02*
Y5625D01*
X19396D01*
X19367Y5721D01*
X19223Y5990D01*
X19029Y6226D01*
X18793Y6420D01*
X18524Y6564D01*
X18428Y6593D01*
D02*
G37*
G36*
X20928Y6593D02*
X20832Y6564D01*
X20563Y6420D01*
X20327Y6226D01*
X20133Y5990D01*
X19989Y5721D01*
X19960Y5625D01*
X20928D01*
Y6593D01*
D02*
G37*
G36*
Y4625D02*
X19960D01*
X19989Y4529D01*
X20133Y4260D01*
X20327Y4024D01*
X20563Y3830D01*
X20832Y3686D01*
X20928Y3657D01*
Y4625D01*
D02*
G37*
G36*
X19396D02*
X18428D01*
Y3657D01*
X18524Y3686D01*
X18793Y3830D01*
X19029Y4024D01*
X19223Y4260D01*
X19367Y4529D01*
X19396Y4625D01*
D02*
G37*
G36*
X132024Y60420D02*
X131750Y60146D01*
X131648Y59993D01*
X131612Y59813D01*
X131648Y59632D01*
X131750Y59479D01*
X132413Y58817D01*
X133020Y59424D01*
X132024Y60420D01*
D02*
G37*
G36*
X133374Y59070D02*
X132767Y58463D01*
X133430Y57800D01*
X133583Y57698D01*
X133763Y57662D01*
X133943Y57698D01*
X134096Y57800D01*
X134370Y58074D01*
X133374Y59070D01*
D02*
G37*
G36*
X123275Y55720D02*
X122266D01*
Y55295D01*
X122303Y55110D01*
X122408Y54953D01*
X122565Y54848D01*
X122750Y54811D01*
X123275D01*
Y55720D01*
D02*
G37*
G36*
X36600Y63084D02*
X36400D01*
Y61425D01*
X37059D01*
Y62625D01*
X37024Y62801D01*
X36924Y62949D01*
X36776Y63049D01*
X36600Y63084D01*
D02*
G37*
G36*
X41755Y60650D02*
X40300D01*
Y59495D01*
X41175D01*
X41326Y59514D01*
X41465Y59572D01*
X41585Y59665D01*
X41678Y59785D01*
X41736Y59925D01*
X41755Y60075D01*
Y60650D01*
D02*
G37*
G36*
X39500D02*
X38045D01*
Y60075D01*
X38065Y59925D01*
X38123Y59785D01*
X38215Y59665D01*
X38335Y59572D01*
X38475Y59514D01*
X38625Y59495D01*
X39500D01*
Y60650D01*
D02*
G37*
G36*
X37059Y60625D02*
X36400D01*
Y58966D01*
X36600D01*
X36776Y59001D01*
X36924Y59101D01*
X37024Y59249D01*
X37059Y59425D01*
Y60625D01*
D02*
G37*
G36*
X36597Y58809D02*
X36397D01*
Y57150D01*
X37056D01*
Y58350D01*
X37021Y58526D01*
X36922Y58674D01*
X36773Y58774D01*
X36597Y58809D01*
D02*
G37*
G36*
X37056Y56350D02*
X36397D01*
Y54691D01*
X36597D01*
X36773Y54726D01*
X36922Y54826D01*
X37021Y54974D01*
X37056Y55150D01*
Y56350D01*
D02*
G37*
G36*
X65455Y55500D02*
Y54649D01*
X65787D01*
Y55143D01*
X65760Y55282D01*
X65681Y55400D01*
X65563Y55478D01*
X65455Y55500D01*
D02*
G37*
G36*
X63105D02*
X62997Y55478D01*
X62880Y55400D01*
X62801Y55282D01*
X62773Y55143D01*
Y54649D01*
X63105D01*
Y55500D01*
D02*
G37*
G36*
X43960Y53074D02*
X43628D01*
Y52580D01*
X43656Y52441D01*
X43734Y52323D01*
X43852Y52245D01*
X43960Y52223D01*
Y53074D01*
D02*
G37*
G36*
X46642D02*
X46310D01*
Y52223D01*
X46418Y52245D01*
X46535Y52323D01*
X46614Y52441D01*
X46642Y52580D01*
Y53074D01*
D02*
G37*
G36*
X31250Y52188D02*
X30525D01*
Y50583D01*
X31830D01*
Y51608D01*
X31810Y51758D01*
X31752Y51898D01*
X31660Y52018D01*
X31540Y52110D01*
X31400Y52168D01*
X31250Y52188D01*
D02*
G37*
G36*
X31830Y50083D02*
X30525D01*
Y48478D01*
X31250D01*
X31400Y48498D01*
X31540Y48556D01*
X31660Y48648D01*
X31752Y48768D01*
X31810Y48908D01*
X31830Y49058D01*
Y50083D01*
D02*
G37*
G36*
X30025D02*
X28720D01*
Y49058D01*
X28740Y48908D01*
X28798Y48768D01*
X28890Y48648D01*
X29010Y48556D01*
X29150Y48498D01*
X29300Y48478D01*
X30025D01*
Y50083D01*
D02*
G37*
G36*
X28788Y46806D02*
X26625D01*
Y45250D01*
X29431D01*
Y46162D01*
X29409Y46329D01*
X29344Y46484D01*
X29242Y46617D01*
X29109Y46719D01*
X28954Y46784D01*
X28788Y46806D01*
D02*
G37*
G36*
X26125D02*
X23962D01*
X23796Y46784D01*
X23641Y46719D01*
X23508Y46617D01*
X23406Y46484D01*
X23341Y46329D01*
X23319Y46162D01*
Y45250D01*
X26125D01*
Y46806D01*
D02*
G37*
G36*
X38250Y52188D02*
X37675D01*
Y50733D01*
X38830D01*
Y51608D01*
X38810Y51758D01*
X38752Y51898D01*
X38660Y52018D01*
X38540Y52110D01*
X38400Y52168D01*
X38250Y52188D01*
D02*
G37*
G36*
X38830Y49933D02*
X37675D01*
Y48478D01*
X38250D01*
X38400Y48498D01*
X38540Y48556D01*
X38660Y48648D01*
X38752Y48768D01*
X38810Y48908D01*
X38830Y49058D01*
Y49933D01*
D02*
G37*
G36*
X38072Y47256D02*
X37910D01*
Y45397D01*
X38519D01*
Y46810D01*
X38485Y46981D01*
X38388Y47125D01*
X38243Y47222D01*
X38072Y47256D01*
D02*
G37*
G36*
X37110D02*
X36947D01*
X36777Y47222D01*
X36632Y47125D01*
X36535Y46981D01*
X36501Y46810D01*
Y45397D01*
X37110D01*
Y47256D01*
D02*
G37*
G36*
X65469Y44485D02*
Y43634D01*
X65801D01*
Y44128D01*
X65773Y44267D01*
X65695Y44385D01*
X65577Y44464D01*
X65469Y44485D01*
D02*
G37*
G36*
X63119D02*
X63011Y44464D01*
X62893Y44385D01*
X62815Y44267D01*
X62787Y44128D01*
Y43634D01*
X63119D01*
Y44485D01*
D02*
G37*
G36*
X120389Y42706D02*
X120370D01*
Y42375D01*
X120725D01*
X120701Y42498D01*
X120628Y42608D01*
X120518Y42681D01*
X120389Y42706D01*
D02*
G37*
G36*
X119870D02*
X119851D01*
X119722Y42681D01*
X119612Y42608D01*
X119539Y42498D01*
X119515Y42375D01*
X119870D01*
Y42706D01*
D02*
G37*
G36*
X117425Y42859D02*
X116488D01*
X116307Y42823D01*
X116154Y42721D01*
X116052Y42568D01*
X116016Y42388D01*
Y42000D01*
X117425D01*
Y42859D01*
D02*
G37*
G36*
X46637Y42099D02*
X46305D01*
Y41248D01*
X46413Y41270D01*
X46531Y41348D01*
X46610Y41466D01*
X46637Y41605D01*
Y42099D01*
D02*
G37*
G36*
X43955D02*
X43623D01*
Y41605D01*
X43651Y41466D01*
X43730Y41348D01*
X43847Y41270D01*
X43955Y41248D01*
Y42099D01*
D02*
G37*
G36*
X119334Y38500D02*
X117925D01*
Y37641D01*
X118863D01*
X119043Y37677D01*
X119196Y37779D01*
X119298Y37932D01*
X119334Y38112D01*
Y38500D01*
D02*
G37*
G36*
X117425D02*
X116016D01*
Y38112D01*
X116052Y37932D01*
X116154Y37779D01*
X116307Y37677D01*
X116488Y37641D01*
X117425D01*
Y38500D01*
D02*
G37*
G36*
X19325Y40631D02*
X18125D01*
Y39972D01*
X19784D01*
Y40172D01*
X19749Y40348D01*
X19649Y40497D01*
X19501Y40596D01*
X19325Y40631D01*
D02*
G37*
G36*
X17325D02*
X16125D01*
X15949Y40596D01*
X15801Y40497D01*
X15701Y40348D01*
X15666Y40172D01*
Y39972D01*
X17325D01*
Y40631D01*
D02*
G37*
G36*
X38468Y37797D02*
X37910D01*
Y35990D01*
X38072D01*
X38224Y36020D01*
X38352Y36105D01*
X38438Y36234D01*
X38468Y36385D01*
Y37797D01*
D02*
G37*
G36*
X37110D02*
X36552D01*
Y36385D01*
X36582Y36234D01*
X36668Y36105D01*
X36796Y36020D01*
X36947Y35990D01*
X37110D01*
Y37797D01*
D02*
G37*
G36*
X34427Y35086D02*
X34221D01*
Y34553D01*
X34854D01*
Y34659D01*
X34822Y34823D01*
X34729Y34961D01*
X34591Y35054D01*
X34427Y35086D01*
D02*
G37*
G36*
X35825Y35083D02*
X35619D01*
X35455Y35051D01*
X35317Y34958D01*
X35224Y34820D01*
X35192Y34656D01*
Y34550D01*
X35825D01*
Y35083D01*
D02*
G37*
G36*
X65525Y33475D02*
Y32625D01*
X65857D01*
Y33118D01*
X65829Y33257D01*
X65751Y33375D01*
X65633Y33454D01*
X65525Y33475D01*
D02*
G37*
G36*
X63175D02*
X63067Y33454D01*
X62949Y33375D01*
X62871Y33257D01*
X62843Y33118D01*
Y32625D01*
X63175D01*
Y33475D01*
D02*
G37*
G36*
X19733Y34672D02*
X18125D01*
Y34065D01*
X19325D01*
X19481Y34096D01*
X19613Y34184D01*
X19702Y34316D01*
X19733Y34472D01*
Y34672D01*
D02*
G37*
G36*
X17325D02*
X15717D01*
Y34472D01*
X15748Y34316D01*
X15837Y34184D01*
X15969Y34096D01*
X16125Y34065D01*
X17325D01*
Y34672D01*
D02*
G37*
G36*
X29380Y34300D02*
X26775D01*
Y32945D01*
X28788D01*
X28941Y32965D01*
X29084Y33024D01*
X29207Y33118D01*
X29301Y33241D01*
X29360Y33384D01*
X29380Y33537D01*
Y34300D01*
D02*
G37*
G36*
X25975D02*
X23370D01*
Y33537D01*
X23390Y33384D01*
X23449Y33241D01*
X23543Y33118D01*
X23666Y33024D01*
X23809Y32965D01*
X23962Y32945D01*
X25975D01*
Y34300D01*
D02*
G37*
G36*
X34803Y31753D02*
X34221D01*
Y31271D01*
X34427D01*
X34571Y31299D01*
X34693Y31381D01*
X34775Y31503D01*
X34803Y31647D01*
Y31753D01*
D02*
G37*
G36*
X33421D02*
X32839D01*
Y31647D01*
X32867Y31503D01*
X32949Y31381D01*
X33071Y31299D01*
X33215Y31271D01*
X33421D01*
Y31753D01*
D02*
G37*
G36*
X37207Y31750D02*
X36625D01*
Y31268D01*
X36831D01*
X36975Y31296D01*
X37097Y31378D01*
X37179Y31500D01*
X37207Y31644D01*
Y31750D01*
D02*
G37*
G36*
X35825D02*
X35243D01*
Y31644D01*
X35271Y31500D01*
X35353Y31378D01*
X35475Y31296D01*
X35619Y31268D01*
X35825D01*
Y31750D01*
D02*
G37*
G36*
X36990Y29980D02*
X36867Y29956D01*
X36757Y29883D01*
X36684Y29773D01*
X36659Y29644D01*
Y29025D01*
X36990D01*
Y29980D01*
D02*
G37*
G36*
X33450Y29905D02*
X32425D01*
Y28600D01*
X34030D01*
Y29325D01*
X34010Y29475D01*
X33952Y29615D01*
X33860Y29735D01*
X33740Y29827D01*
X33600Y29885D01*
X33450Y29905D01*
D02*
G37*
G36*
X31925D02*
X30900D01*
X30750Y29885D01*
X30610Y29827D01*
X30490Y29735D01*
X30398Y29615D01*
X30340Y29475D01*
X30320Y29325D01*
Y28600D01*
X31925D01*
Y29905D01*
D02*
G37*
G36*
X25455Y30150D02*
X22650D01*
Y28594D01*
X24812D01*
X24979Y28616D01*
X25134Y28681D01*
X25267Y28783D01*
X25369Y28916D01*
X25434Y29071D01*
X25455Y29237D01*
Y30150D01*
D02*
G37*
G36*
X22150D02*
X19344D01*
Y29237D01*
X19366Y29071D01*
X19431Y28916D01*
X19533Y28783D01*
X19666Y28681D01*
X19821Y28616D01*
X19987Y28594D01*
X22150D01*
Y30150D01*
D02*
G37*
G36*
X46639Y31100D02*
X46307D01*
Y30249D01*
X46415Y30271D01*
X46533Y30349D01*
X46611Y30467D01*
X46639Y30606D01*
Y31100D01*
D02*
G37*
G36*
X43957D02*
X43625D01*
Y30606D01*
X43653Y30467D01*
X43731Y30349D01*
X43849Y30271D01*
X43957Y30249D01*
Y31100D01*
D02*
G37*
G36*
X34030Y20950D02*
X32575D01*
Y19795D01*
X33450D01*
X33600Y19815D01*
X33740Y19873D01*
X33860Y19965D01*
X33952Y20085D01*
X34010Y20225D01*
X34030Y20375D01*
Y20950D01*
D02*
G37*
G36*
X31775D02*
X30320D01*
Y20375D01*
X30340Y20225D01*
X30398Y20085D01*
X30490Y19965D01*
X30610Y19873D01*
X30750Y19815D01*
X30900Y19795D01*
X31775D01*
Y20950D01*
D02*
G37*
G36*
X65525Y22472D02*
Y21622D01*
X65857D01*
Y22115D01*
X65829Y22254D01*
X65751Y22372D01*
X65633Y22451D01*
X65525Y22472D01*
D02*
G37*
G36*
X63175D02*
X63067Y22451D01*
X62949Y22372D01*
X62871Y22254D01*
X62843Y22115D01*
Y21622D01*
X63175D01*
Y22472D01*
D02*
G37*
G36*
X25455Y19850D02*
X22650D01*
Y18295D01*
X24812D01*
X24979Y18316D01*
X25134Y18381D01*
X25267Y18483D01*
X25369Y18616D01*
X25434Y18771D01*
X25455Y18938D01*
Y19850D01*
D02*
G37*
G36*
X22150D02*
X19344D01*
Y18938D01*
X19366Y18771D01*
X19431Y18616D01*
X19533Y18483D01*
X19666Y18381D01*
X19821Y18316D01*
X19987Y18295D01*
X22150D01*
Y19850D01*
D02*
G37*
G36*
X32350Y18780D02*
X31575D01*
Y17475D01*
X32930D01*
Y18200D01*
X32910Y18350D01*
X32852Y18490D01*
X32760Y18610D01*
X32640Y18702D01*
X32500Y18760D01*
X32350Y18780D01*
D02*
G37*
G36*
X31075D02*
X30300D01*
X30150Y18760D01*
X30010Y18702D01*
X29890Y18610D01*
X29798Y18490D01*
X29740Y18350D01*
X29720Y18200D01*
Y17475D01*
X31075D01*
Y18780D01*
D02*
G37*
G36*
X28864Y17181D02*
X28845D01*
Y16850D01*
X29200D01*
X29176Y16973D01*
X29103Y17083D01*
X28993Y17156D01*
X28864Y17181D01*
D02*
G37*
G36*
X28345D02*
X28326D01*
X28197Y17156D01*
X28087Y17083D01*
X28014Y16973D01*
X27990Y16850D01*
X28345D01*
Y17181D01*
D02*
G37*
G36*
X32930Y16975D02*
X31575D01*
Y15670D01*
X32350D01*
X32500Y15690D01*
X32640Y15748D01*
X32760Y15840D01*
X32852Y15960D01*
X32910Y16100D01*
X32930Y16250D01*
Y16975D01*
D02*
G37*
G36*
X31075D02*
X29720D01*
Y16250D01*
X29740Y16100D01*
X29798Y15960D01*
X29890Y15840D01*
X30010Y15748D01*
X30150Y15690D01*
X30300Y15670D01*
X31075D01*
Y16975D01*
D02*
G37*
G36*
X32896Y14505D02*
X32773Y14481D01*
X32663Y14408D01*
X32590Y14298D01*
X32564Y14169D01*
Y14150D01*
X32896D01*
Y14505D01*
D02*
G37*
G36*
Y13650D02*
X32564D01*
Y13631D01*
X32590Y13502D01*
X32663Y13392D01*
X32773Y13319D01*
X32896Y13295D01*
Y13650D01*
D02*
G37*
G36*
X32896Y11916D02*
X32773Y11891D01*
X32663Y11818D01*
X32590Y11709D01*
X32564Y11579D01*
Y11561D01*
X32896D01*
Y11916D01*
D02*
G37*
G36*
Y11061D02*
X32564D01*
Y11042D01*
X32590Y10913D01*
X32663Y10803D01*
X32773Y10730D01*
X32896Y10705D01*
Y11061D01*
D02*
G37*
G36*
X70875Y20830D02*
Y20475D01*
X71206D01*
Y20494D01*
X71181Y20623D01*
X71108Y20733D01*
X70998Y20806D01*
X70875Y20830D01*
D02*
G37*
G36*
X71206Y19975D02*
X70875D01*
Y19620D01*
X70998Y19644D01*
X71108Y19717D01*
X71181Y19827D01*
X71206Y19956D01*
Y19975D01*
D02*
G37*
G36*
X46650Y20072D02*
X46318D01*
Y19221D01*
X46426Y19242D01*
X46544Y19321D01*
X46623Y19439D01*
X46650Y19578D01*
Y20072D01*
D02*
G37*
G36*
X43968D02*
X43636D01*
Y19578D01*
X43664Y19439D01*
X43743Y19321D01*
X43861Y19242D01*
X43968Y19221D01*
Y20072D01*
D02*
G37*
G36*
X118350Y17480D02*
Y17125D01*
X118681D01*
Y17144D01*
X118656Y17273D01*
X118583Y17383D01*
X118473Y17456D01*
X118350Y17480D01*
D02*
G37*
G36*
X118681Y16625D02*
X118350D01*
Y16270D01*
X118473Y16294D01*
X118583Y16367D01*
X118656Y16477D01*
X118681Y16606D01*
Y16625D01*
D02*
G37*
G36*
X122008Y14700D02*
X121450D01*
Y14142D01*
X121613D01*
X121764Y14172D01*
X121892Y14258D01*
X121978Y14386D01*
X122008Y14538D01*
Y14700D01*
D02*
G37*
G36*
X120950D02*
X120392D01*
Y14538D01*
X120422Y14386D01*
X120508Y14258D01*
X120636Y14172D01*
X120787Y14142D01*
X120950D01*
Y14700D01*
D02*
G37*
G36*
X125875Y12731D02*
X124400D01*
Y12375D01*
X126501D01*
X126392Y12517D01*
X126241Y12633D01*
X126064Y12706D01*
X125875Y12731D01*
D02*
G37*
G36*
X122600D02*
X121125D01*
X120936Y12706D01*
X120759Y12633D01*
X120608Y12517D01*
X120499Y12375D01*
X122600D01*
Y12731D01*
D02*
G37*
G36*
X38750Y18780D02*
X38125D01*
Y17625D01*
X39330D01*
Y18200D01*
X39310Y18350D01*
X39252Y18490D01*
X39160Y18610D01*
X39040Y18702D01*
X38900Y18760D01*
X38750Y18780D01*
D02*
G37*
G36*
X39330Y16825D02*
X38125D01*
Y15670D01*
X38750D01*
X38900Y15690D01*
X39040Y15748D01*
X39160Y15840D01*
X39252Y15960D01*
X39310Y16100D01*
X39330Y16250D01*
Y16825D01*
D02*
G37*
G36*
X34396Y14505D02*
Y14150D01*
X34727D01*
Y14169D01*
X34702Y14298D01*
X34628Y14408D01*
X34519Y14481D01*
X34396Y14505D01*
D02*
G37*
G36*
X34727Y13650D02*
X34396D01*
Y13295D01*
X34519Y13319D01*
X34628Y13392D01*
X34702Y13502D01*
X34727Y13631D01*
Y13650D01*
D02*
G37*
G36*
X34396Y11916D02*
Y11561D01*
X34727D01*
Y11579D01*
X34702Y11709D01*
X34628Y11818D01*
X34519Y11891D01*
X34396Y11916D01*
D02*
G37*
G36*
X34727Y11061D02*
X34396D01*
Y10705D01*
X34519Y10730D01*
X34628Y10803D01*
X34702Y10913D01*
X34727Y11042D01*
Y11061D01*
D02*
G37*
G36*
X38744Y10328D02*
X38725D01*
Y9997D01*
X39080D01*
X39056Y10120D01*
X38983Y10230D01*
X38873Y10303D01*
X38744Y10328D01*
D02*
G37*
G36*
X38225D02*
X38206D01*
X38077Y10303D01*
X37967Y10230D01*
X37894Y10120D01*
X37870Y9997D01*
X38225D01*
Y10328D01*
D02*
G37*
G36*
X41544Y10328D02*
X41525D01*
Y9997D01*
X41880D01*
X41856Y10120D01*
X41783Y10230D01*
X41673Y10303D01*
X41544Y10328D01*
D02*
G37*
G36*
X41025D02*
X41006D01*
X40877Y10303D01*
X40767Y10230D01*
X40694Y10120D01*
X40670Y9997D01*
X41025D01*
Y10328D01*
D02*
G37*
G36*
X17775Y58775D02*
X17317D01*
Y57950D01*
X17350Y57784D01*
X17444Y57644D01*
X17584Y57550D01*
X17750Y57517D01*
X17775D01*
Y58775D01*
D02*
G37*
G36*
X19006Y56029D02*
X18550D01*
Y55200D01*
X19529D01*
Y55506D01*
X19512Y55642D01*
X19459Y55768D01*
X19376Y55876D01*
X19268Y55959D01*
X19142Y56012D01*
X19006Y56029D01*
D02*
G37*
G36*
X17550D02*
X17094D01*
X16958Y56012D01*
X16832Y55959D01*
X16724Y55876D01*
X16641Y55768D01*
X16588Y55642D01*
X16571Y55506D01*
Y55200D01*
X17550D01*
Y56029D01*
D02*
G37*
G36*
X19529Y54200D02*
X18550D01*
Y53371D01*
X19006D01*
X19142Y53388D01*
X19268Y53441D01*
X19376Y53524D01*
X19459Y53632D01*
X19512Y53758D01*
X19529Y53894D01*
Y54200D01*
D02*
G37*
G36*
X17550D02*
X16571D01*
Y53894D01*
X16588Y53758D01*
X16641Y53632D01*
X16724Y53524D01*
X16832Y53441D01*
X16958Y53388D01*
X17094Y53371D01*
X17550D01*
Y54200D01*
D02*
G37*
G36*
X17956Y51404D02*
X17500D01*
Y50575D01*
X18479D01*
Y50881D01*
X18462Y51017D01*
X18409Y51143D01*
X18326Y51251D01*
X18218Y51334D01*
X18092Y51387D01*
X17956Y51404D01*
D02*
G37*
G36*
X16500D02*
X16044D01*
X15908Y51387D01*
X15782Y51334D01*
X15674Y51251D01*
X15591Y51143D01*
X15538Y51017D01*
X15521Y50881D01*
Y50575D01*
X16500D01*
Y51404D01*
D02*
G37*
G36*
X18479Y49575D02*
X17500D01*
Y48746D01*
X17956D01*
X18092Y48763D01*
X18218Y48816D01*
X18326Y48899D01*
X18409Y49007D01*
X18462Y49133D01*
X18479Y49269D01*
Y49575D01*
D02*
G37*
G36*
X16500D02*
X15521D01*
Y49269D01*
X15538Y49133D01*
X15591Y49007D01*
X15674Y48899D01*
X15782Y48816D01*
X15908Y48763D01*
X16044Y48746D01*
X16500D01*
Y49575D01*
D02*
G37*
G36*
X13550Y44293D02*
Y43700D01*
X14143D01*
X14053Y43870D01*
X13903Y44053D01*
X13720Y44203D01*
X13550Y44293D01*
D02*
G37*
G36*
X12550Y44293D02*
X12380Y44203D01*
X12197Y44053D01*
X12047Y43870D01*
X11957Y43700D01*
X12550D01*
Y44293D01*
D02*
G37*
G36*
Y42700D02*
X11957D01*
X12047Y42530D01*
X12197Y42347D01*
X12380Y42197D01*
X12550Y42107D01*
Y42700D01*
D02*
G37*
G36*
X14143D02*
X13550D01*
Y42107D01*
X13720Y42197D01*
X13903Y42347D01*
X14053Y42530D01*
X14143Y42700D01*
D02*
G37*
G36*
X12725Y35068D02*
Y34475D01*
X13318D01*
X13227Y34645D01*
X13077Y34828D01*
X12895Y34978D01*
X12725Y35068D01*
D02*
G37*
G36*
X11725Y35068D02*
X11555Y34978D01*
X11372Y34828D01*
X11222Y34645D01*
X11131Y34475D01*
X11725D01*
Y35068D01*
D02*
G37*
G36*
X13318Y33475D02*
X12725D01*
Y32882D01*
X12895Y32972D01*
X13077Y33122D01*
X13227Y33305D01*
X13318Y33475D01*
D02*
G37*
G36*
X11725D02*
X11131D01*
X11222Y33305D01*
X11372Y33122D01*
X11555Y32972D01*
X11725Y32882D01*
Y33475D01*
D02*
G37*
G36*
X12775Y25918D02*
Y25325D01*
X13368D01*
X13278Y25495D01*
X13128Y25678D01*
X12945Y25828D01*
X12775Y25918D01*
D02*
G37*
G36*
X11775Y25918D02*
X11605Y25828D01*
X11422Y25678D01*
X11272Y25495D01*
X11182Y25325D01*
X11775D01*
Y25918D01*
D02*
G37*
G36*
X13368Y24325D02*
X12775D01*
Y23732D01*
X12945Y23822D01*
X13128Y23972D01*
X13278Y24155D01*
X13368Y24325D01*
D02*
G37*
G36*
X11775D02*
X11182D01*
X11272Y24155D01*
X11422Y23972D01*
X11605Y23822D01*
X11775Y23732D01*
Y24325D01*
D02*
G37*
G36*
X13500Y16763D02*
Y16170D01*
X14093D01*
X14003Y16340D01*
X13853Y16523D01*
X13670Y16673D01*
X13500Y16763D01*
D02*
G37*
G36*
X12500Y16763D02*
X12330Y16673D01*
X12147Y16523D01*
X11997Y16340D01*
X11907Y16170D01*
X12500D01*
Y16763D01*
D02*
G37*
G36*
X14093Y15170D02*
X13500D01*
Y14577D01*
X13670Y14667D01*
X13853Y14817D01*
X14003Y15000D01*
X14093Y15170D01*
D02*
G37*
G36*
X12500D02*
X11907D01*
X11997Y15000D01*
X12147Y14817D01*
X12330Y14667D01*
X12500Y14577D01*
Y15170D01*
D02*
G37*
G36*
X28928Y6593D02*
Y5625D01*
X29896D01*
X29867Y5721D01*
X29723Y5990D01*
X29529Y6226D01*
X29293Y6420D01*
X29024Y6564D01*
X28928Y6593D01*
D02*
G37*
G36*
X25428Y6593D02*
Y5625D01*
X26396D01*
X26367Y5721D01*
X26223Y5990D01*
X26029Y6226D01*
X25793Y6420D01*
X25524Y6564D01*
X25428Y6593D01*
D02*
G37*
G36*
X27928Y6593D02*
X27832Y6564D01*
X27563Y6420D01*
X27327Y6226D01*
X27133Y5990D01*
X26989Y5721D01*
X26960Y5625D01*
X27928D01*
Y6593D01*
D02*
G37*
G36*
X29896Y4625D02*
X28928D01*
Y3657D01*
X29024Y3686D01*
X29293Y3830D01*
X29529Y4024D01*
X29723Y4260D01*
X29867Y4529D01*
X29896Y4625D01*
D02*
G37*
G36*
X27928D02*
X26960D01*
X26989Y4529D01*
X27133Y4260D01*
X27327Y4024D01*
X27563Y3830D01*
X27832Y3686D01*
X27928Y3657D01*
Y4625D01*
D02*
G37*
G36*
X26396D02*
X25428D01*
Y3657D01*
X25524Y3686D01*
X25793Y3830D01*
X26029Y4024D01*
X26223Y4260D01*
X26367Y4529D01*
X26396Y4625D01*
D02*
G37*
%LPD*%
D10*
X106999Y76470D02*
X115745Y85217D01*
X99660Y76470D02*
X106999D01*
X89250Y66061D02*
X99660Y76470D01*
X89250Y58234D02*
Y66061D01*
X87177Y56162D02*
X89250Y58234D01*
X84465Y56162D02*
X87177D01*
X84165Y55862D02*
X84465Y56162D01*
X115345Y85382D02*
Y91905D01*
X106833Y76870D02*
X115345Y85382D01*
X99494Y76870D02*
X106833D01*
X88850Y66226D02*
X99494Y76870D01*
X88850Y58400D02*
Y66226D01*
X87012Y56562D02*
X88850Y58400D01*
X84465Y56562D02*
X87012D01*
X84165Y56862D02*
X84465Y56562D01*
X100825Y95275D02*
X101125Y95575D01*
Y96016D01*
X101525Y95575D02*
X101825Y95275D01*
X101525Y95575D02*
Y95850D01*
X101125Y96016D02*
X101559Y96450D01*
X101525Y95850D02*
X101725Y96050D01*
X101559Y96450D02*
X111366D01*
X115745Y92070D01*
Y85217D02*
Y92070D01*
X101725Y96050D02*
X111200D01*
X115345Y91905D01*
X98650Y47725D02*
Y48625D01*
X98200Y48675D02*
X98250Y48625D01*
Y47559D02*
Y48625D01*
X86650Y48150D02*
X86950Y47850D01*
X114125Y65100D02*
X114600D01*
X113545Y65680D02*
X114125Y65100D01*
X113545Y65680D02*
Y66526D01*
X113775Y67625D02*
X114400D01*
X113025Y68375D02*
X113775Y67625D01*
X113025Y68375D02*
Y69950D01*
X122285Y47680D02*
X124086D01*
X124710Y48304D01*
Y50274D01*
X123400Y51584D02*
X124710Y50274D01*
X86200Y48675D02*
X86250Y48625D01*
Y48150D02*
Y48625D01*
X86200Y48675D02*
Y49725D01*
X85950Y47850D02*
X86250Y48150D01*
X86700Y48675D02*
Y49725D01*
X86650Y48625D02*
X86700Y48675D01*
X86650Y48150D02*
Y48625D01*
X94700Y47625D02*
X94700Y47625D01*
X94700Y47625D02*
Y49725D01*
X94700Y49725D01*
X111300Y41075D02*
Y41525D01*
X110875Y41950D02*
X111300Y41525D01*
Y39071D02*
Y41075D01*
X111310Y34643D02*
Y35943D01*
X110875Y38646D02*
X111300Y39071D01*
X110875Y36378D02*
Y38646D01*
Y36378D02*
X111310Y35943D01*
X98700Y48675D02*
Y49725D01*
X98650Y48625D02*
X98700Y48675D01*
X110050Y41525D02*
X110475Y41950D01*
X110050Y41075D02*
Y41525D01*
Y39082D02*
Y41075D01*
Y39082D02*
X110475Y38657D01*
Y36378D02*
Y38657D01*
X110040Y35943D02*
X110475Y36378D01*
X110040Y34643D02*
Y35943D01*
X98200Y48675D02*
Y49725D01*
X106865Y46975D02*
X110475Y43365D01*
X110875Y41950D02*
Y43530D01*
X107030Y47375D02*
X110875Y43530D01*
X110475Y41950D02*
Y43365D01*
X108014Y39487D02*
Y39937D01*
X107580Y40371D02*
X108014Y39937D01*
Y37489D02*
Y39487D01*
X107580Y36727D02*
Y37055D01*
X108014Y37489D01*
X107147Y36295D02*
X107500Y35943D01*
Y34643D02*
Y35943D01*
X107147Y36295D02*
X107580Y36727D01*
X107147Y36295D02*
X107147Y36295D01*
X107147D02*
X107147D01*
X97200Y48675D02*
Y49725D01*
X98350Y46375D02*
X104805D01*
X97150Y48625D02*
X97200Y48675D01*
X97150Y47575D02*
Y48625D01*
Y47575D02*
X98350Y46375D01*
X106746Y39937D02*
X107180Y40371D01*
X106746Y39487D02*
Y39937D01*
X107180Y36893D02*
Y37048D01*
X106230Y35943D02*
X107180Y36893D01*
X106746Y37481D02*
Y39487D01*
Y37481D02*
X107180Y37048D01*
X106230Y34643D02*
Y35943D01*
X96700Y48675D02*
X96750Y48625D01*
X98184Y45975D02*
X104639D01*
X96700Y48675D02*
Y49725D01*
X96750Y47409D02*
Y48625D01*
X104639Y45975D02*
X107180Y43434D01*
X96750Y47409D02*
X98184Y45975D01*
X107580Y40371D02*
Y43600D01*
X104805Y46375D02*
X107580Y43600D01*
X107180Y40371D02*
Y43434D01*
X104744Y41082D02*
Y41532D01*
Y39084D02*
Y41082D01*
X104319Y38659D02*
X104744Y39084D01*
X104319Y37784D02*
Y38659D01*
X104960Y34643D02*
Y35943D01*
X104525Y36378D02*
X104960Y35943D01*
X104319Y37784D02*
X104525Y37578D01*
Y36378D02*
Y37578D01*
X104319Y41957D02*
X104744Y41532D01*
X93150Y47775D02*
X94325Y46600D01*
X96541D01*
X93200Y48675D02*
Y49725D01*
X93150Y48625D02*
X93200Y48675D01*
X93150Y47775D02*
Y48625D01*
X96541Y46600D02*
X97766Y45375D01*
X103716D01*
X103494Y41532D02*
X103919Y41957D01*
X103494Y39083D02*
X103919Y38658D01*
X103494Y39083D02*
Y41082D01*
X104125Y36378D02*
Y37412D01*
X103919Y37618D02*
X104125Y37412D01*
X103690Y35943D02*
X104125Y36378D01*
X103919Y37618D02*
Y38658D01*
X103690Y34643D02*
Y35943D01*
X103494Y41082D02*
Y41532D01*
X103550Y44975D02*
X103919Y44606D01*
X92750Y47609D02*
X94159Y46200D01*
X96376D01*
X92700Y48675D02*
X92750Y48625D01*
X92700Y48675D02*
Y49725D01*
X92750Y47609D02*
Y48625D01*
X97601Y44975D02*
X103550D01*
X96376Y46200D02*
X97601Y44975D01*
X104319Y41957D02*
Y44772D01*
X103716Y45375D02*
X104319Y44772D01*
X103919Y41957D02*
Y44606D01*
X101488Y39558D02*
Y40008D01*
X101064Y40432D02*
X101488Y40008D01*
Y37544D02*
Y39558D01*
X101150Y34643D02*
Y35943D01*
X101064Y37120D02*
X101488Y37544D01*
X101064Y36561D02*
Y37120D01*
X100797Y36295D02*
X101064Y36561D01*
X100797Y36295D02*
X101150Y35943D01*
X91700Y48675D02*
Y49725D01*
X93850Y45500D02*
X96050D01*
X91650Y48625D02*
X91700Y48675D01*
X91650Y47700D02*
Y48625D01*
X97175Y44375D02*
X99991D01*
X91650Y47700D02*
X93850Y45500D01*
X96050D02*
X97175Y44375D01*
X100240Y40015D02*
X100664Y40439D01*
X100240Y39565D02*
Y40015D01*
X100664Y36727D02*
Y37096D01*
X100240Y37520D02*
X100664Y37096D01*
X99880Y35943D02*
X100664Y36727D01*
X100240Y37520D02*
Y39565D01*
X99880Y34643D02*
Y35943D01*
X91200Y48675D02*
X91250Y48625D01*
X93684Y45100D02*
X95884D01*
X91200Y48675D02*
Y49725D01*
X91250Y47534D02*
Y48625D01*
X99825Y43975D02*
X100664Y43136D01*
X97009Y43975D02*
X99825D01*
X91250Y47534D02*
X93684Y45100D01*
X95884D02*
X97009Y43975D01*
X101064Y40432D02*
Y43302D01*
X99991Y44375D02*
X101064Y43302D01*
X100664Y40439D02*
Y43136D01*
X95010Y39562D02*
Y40012D01*
X94585Y40437D02*
X95010Y40012D01*
Y37558D02*
Y39562D01*
X94575Y37123D02*
X95010Y37558D01*
X94365Y36378D02*
X94800Y35943D01*
X94575Y36706D02*
Y37123D01*
X94365Y36495D02*
X94575Y36706D01*
X94800Y34643D02*
Y35943D01*
X94365Y36378D02*
Y36495D01*
X78850Y54025D02*
X78900Y53975D01*
X79950D01*
X78300Y54025D02*
X78850D01*
X77375Y53100D02*
X78300Y54025D01*
X77375Y50225D02*
Y53100D01*
X92934Y43264D02*
X93716D01*
X81950Y45650D02*
X90547D01*
X77375Y50225D02*
X81950Y45650D01*
X90547D02*
X92934Y43264D01*
X93760Y40012D02*
X94185Y40437D01*
X93760Y39562D02*
Y40012D01*
Y37568D02*
Y39562D01*
X94175Y36871D02*
Y37154D01*
X93760Y37568D02*
X94175Y37154D01*
X93965Y36661D02*
X94175Y36871D01*
X93965Y36378D02*
Y36661D01*
X93530Y35943D02*
X93965Y36378D01*
X93530Y34643D02*
Y35943D01*
X93550Y42864D02*
X94185Y42229D01*
X78900Y54475D02*
X79950D01*
X78850Y54425D02*
X78900Y54475D01*
X78134Y54425D02*
X78850D01*
X76975Y53266D02*
X78134Y54425D01*
X76975Y50059D02*
Y53266D01*
X92768Y42864D02*
X93550D01*
X81784Y45250D02*
X90382D01*
X76975Y50059D02*
X81784Y45250D01*
X90382D02*
X92768Y42864D01*
X94585Y40437D02*
Y42395D01*
X93716Y43264D02*
X94585Y42395D01*
X94185Y40437D02*
Y42229D01*
X91377Y42061D02*
Y42864D01*
X78850Y56025D02*
X78900Y55975D01*
X79950D01*
X78475Y56025D02*
X78850D01*
X76375Y53925D02*
X78475Y56025D01*
X76375Y49625D02*
Y53925D01*
Y49625D02*
X81350Y44650D01*
X89591D01*
X91800Y41188D02*
Y41638D01*
Y39169D02*
Y41188D01*
X91380Y38749D02*
X91800Y39169D01*
X91380Y37599D02*
Y38749D01*
X92260Y34643D02*
Y35943D01*
X91825Y36378D02*
X92260Y35943D01*
X91380Y37599D02*
X91825Y37155D01*
Y36378D02*
Y37155D01*
X91377Y42061D02*
X91800Y41638D01*
X78900Y56475D02*
X79950D01*
X78850Y56425D02*
X78900Y56475D01*
X78309Y56425D02*
X78850D01*
X75975Y54091D02*
X78309Y56425D01*
X75975Y49459D02*
Y54091D01*
Y49459D02*
X81184Y44250D01*
X89425D01*
X90977Y42061D02*
Y42698D01*
X90554Y39183D02*
X90980Y38756D01*
Y37434D02*
Y38756D01*
X90554Y41638D02*
X90977Y42061D01*
X90554Y39183D02*
Y41188D01*
X91425Y36378D02*
Y36989D01*
X90980Y37434D02*
X91425Y36989D01*
X90990Y35943D02*
X91425Y36378D01*
X90990Y34643D02*
Y35943D01*
X90554Y41188D02*
Y41638D01*
X89591Y44650D02*
X91377Y42864D01*
X89425Y44250D02*
X90977Y42698D01*
X88150Y37221D02*
X88544Y37614D01*
X88150Y36696D02*
Y37221D01*
X87726Y40456D02*
Y42524D01*
X87308Y40038D02*
X87726Y40456D01*
X87308Y39588D02*
Y40038D01*
Y37600D02*
Y39588D01*
Y37600D02*
X87750Y37158D01*
X87000Y43250D02*
X87726Y42524D01*
X87180Y35943D02*
X87615Y36378D01*
X87180Y34643D02*
Y35943D01*
X88544Y39588D02*
Y40038D01*
X88126Y40456D02*
X88544Y40038D01*
Y37614D02*
Y39588D01*
X88126Y40456D02*
Y42690D01*
X87166Y43650D02*
X88126Y42690D01*
X88450Y34643D02*
Y35943D01*
X88015Y36378D02*
X88450Y35943D01*
X87750Y36862D02*
Y37158D01*
X87615Y36727D02*
X87750Y36862D01*
X87615Y36378D02*
Y36727D01*
X88015Y36561D02*
X88150Y36696D01*
X88015Y36378D02*
Y36561D01*
X97775Y36378D02*
Y37075D01*
X97340Y35943D02*
X97775Y36378D01*
X97340Y34643D02*
Y35943D01*
X97456Y42060D02*
Y42744D01*
X97034Y41638D02*
X97456Y42060D01*
X97034Y39205D02*
Y41188D01*
Y41638D01*
X97424Y38838D02*
X97456Y38807D01*
X97400Y38838D02*
X97424D01*
X97034Y39205D02*
X97400Y38838D01*
X98175Y36378D02*
X98610Y35943D01*
Y34643D02*
Y35943D01*
X98175Y36378D02*
Y37241D01*
X98278Y41188D02*
Y41638D01*
X97856Y42060D02*
X98278Y41638D01*
Y39219D02*
Y41188D01*
X97856Y42060D02*
Y42910D01*
X97897Y38838D02*
X98278Y39219D01*
X97887Y38838D02*
X97897D01*
X97856Y38807D02*
X97887Y38838D01*
X97456Y37394D02*
X97775Y37075D01*
X97456Y37394D02*
Y38807D01*
X97856Y37559D02*
X98175Y37241D01*
X97856Y37559D02*
Y38807D01*
X74975Y48849D02*
Y54791D01*
Y48849D02*
X80574Y43250D01*
X87000D01*
X75375Y49014D02*
Y54625D01*
Y49014D02*
X80739Y43650D01*
X87166D01*
X74975Y54791D02*
X78109Y57925D01*
X75375Y54625D02*
X78275Y57525D01*
X78109Y57925D02*
X78850D01*
X78900Y57975D01*
X79950D01*
X78275Y57525D02*
X78850D01*
X78900Y57475D01*
X79950D01*
X93234Y43975D02*
X95309D01*
X93400Y44375D02*
X95475D01*
X97225Y42975D02*
X97456Y42744D01*
X77975Y50674D02*
X82399Y46250D01*
X90959D01*
X96309Y42975D02*
X97225D01*
X90959Y46250D02*
X93234Y43975D01*
X95309D02*
X96309Y42975D01*
X78375Y50840D02*
X82565Y46650D01*
X91125D01*
X97391Y43375D02*
X97856Y42910D01*
X96475Y43375D02*
X97391D01*
X91125Y46650D02*
X93400Y44375D01*
X95475D02*
X96475Y43375D01*
X77975Y50674D02*
Y52616D01*
X78284Y52925D01*
X78375Y50840D02*
Y52450D01*
X78450Y52525D01*
X78284Y52925D02*
X78850D01*
X78900Y52975D01*
X79950D01*
X78450Y52525D02*
X78850D01*
X78900Y52475D01*
X79950D01*
X111096Y68975D02*
X113545Y66526D01*
X109950Y68975D02*
X111096D01*
X112000Y70975D02*
X113025Y69950D01*
X109950Y70975D02*
X112000D01*
X79950Y59975D02*
X80025D01*
X77925D02*
X79950D01*
Y59475D02*
X80025D01*
X78325D02*
X79950D01*
Y60475D02*
X80025D01*
X77975D02*
X79950D01*
Y60975D02*
X80025D01*
X79950Y69475D02*
X80025D01*
X75942D02*
X79950D01*
Y70475D02*
X80025D01*
X75917Y69500D02*
X75942Y69525D01*
X75917Y70500D02*
X75942Y70525D01*
X77125Y61700D02*
X77575D01*
X77750Y60700D02*
X77975Y60475D01*
X77125Y60700D02*
X77750D01*
X77650Y59700D02*
X77925Y59975D01*
X77125Y59700D02*
X77650D01*
X77550Y58700D02*
X78325Y59475D01*
X77125Y58700D02*
X77550D01*
X109950Y59475D02*
X111775D01*
X109950Y59975D02*
X112075D01*
X109950Y60475D02*
X112075D01*
X109950Y60975D02*
X111650D01*
X112425Y61750D02*
X112825D01*
X111650Y60975D02*
X112425Y61750D01*
X112350Y60750D02*
X112825D01*
X112075Y60475D02*
X112350Y60750D01*
X112275Y59775D02*
X112825D01*
X112075Y59975D02*
X112275Y59775D01*
X112475Y58775D02*
X112825D01*
X111775Y59475D02*
X112475Y58775D01*
X94800Y18678D02*
Y19978D01*
X97340Y18678D02*
Y19978D01*
X104960Y18678D02*
Y19978D01*
X99880Y18678D02*
Y19978D01*
X93530Y18678D02*
Y19978D01*
X98610Y18678D02*
Y19978D01*
X101150Y18678D02*
Y19978D01*
X103690Y18678D02*
Y19978D01*
X78950Y15750D02*
X96947D01*
X98175Y18243D02*
X98610Y18678D01*
X77850Y3284D02*
Y5642D01*
X74842Y11642D02*
X78950Y15750D01*
X74842Y8650D02*
X77850Y5642D01*
X74842Y8650D02*
Y11642D01*
X75745Y2550D02*
X77116D01*
X77850Y3284D01*
X74870Y1675D02*
X75745Y2550D01*
X97340Y18678D02*
X97775Y18243D01*
X77450Y3450D02*
Y5477D01*
X76950Y2950D02*
X77450Y3450D01*
X74442Y11808D02*
X78784Y16150D01*
X74442Y8484D02*
X77450Y5477D01*
X74442Y8484D02*
Y11808D01*
X76140Y3310D02*
X76500Y2950D01*
X76950D01*
X76140Y3310D02*
Y4215D01*
X98175Y16978D02*
Y18243D01*
X96947Y15750D02*
X98175Y16978D01*
X97775Y17143D02*
Y18243D01*
X96781Y16150D02*
X97775Y17143D01*
X78784Y16150D02*
X96781D01*
X95928Y13125D02*
X102263D01*
X104525Y18243D02*
X104960Y18678D01*
X97325Y3259D02*
Y6222D01*
X96591Y2525D02*
X97325Y3259D01*
X94438Y9109D02*
X97325Y6222D01*
X94438Y11634D02*
X95928Y13125D01*
X94438Y9109D02*
Y11634D01*
X94470Y1675D02*
X95320Y2525D01*
X96591D01*
X103690Y18678D02*
X104125Y18243D01*
X96925Y3425D02*
Y6056D01*
X96425Y2925D02*
X96925Y3425D01*
X96050Y2925D02*
X96425D01*
X94037Y8944D02*
X96925Y6056D01*
X94037Y11800D02*
X95762Y13525D01*
X94037Y8944D02*
Y11800D01*
X95739Y3236D02*
X96050Y2925D01*
X95739Y3236D02*
Y4215D01*
X104525Y15386D02*
Y18243D01*
X102263Y13125D02*
X104525Y15386D01*
X104125Y15552D02*
Y18243D01*
X102098Y13525D02*
X104125Y15552D01*
X95762Y13525D02*
X102098D01*
X94365Y18243D02*
X94800Y18678D01*
X78400Y16975D02*
X93637D01*
X73609Y12184D02*
X78400Y16975D01*
X73609Y7381D02*
X74775Y6216D01*
X73609Y7381D02*
Y12184D01*
X71022Y2907D02*
X74157D01*
X74775Y3525D01*
X69790Y1675D02*
X71022Y2907D01*
X93821Y18386D02*
X93965Y18243D01*
X93530Y18678D02*
X93821Y18386D01*
X73209Y12350D02*
X78234Y17375D01*
X73209Y7216D02*
X74375Y6050D01*
X73209Y7216D02*
Y12350D01*
X74375Y4990D02*
Y6050D01*
X73600Y4215D02*
X74375Y4990D01*
X94365Y17702D02*
Y18243D01*
X93637Y16975D02*
X94365Y17702D01*
X93965Y17868D02*
Y18243D01*
X93472Y17375D02*
X93965Y17868D01*
X78234Y17375D02*
X93472D01*
X100715Y17240D02*
Y18243D01*
X112405Y5659D02*
Y21689D01*
X114050Y5510D02*
Y22475D01*
X100315Y17405D02*
Y18243D01*
X113650Y5225D02*
Y22309D01*
X112805Y4215D02*
Y21855D01*
X144575Y23975D02*
X144675Y23875D01*
Y22450D02*
Y23875D01*
X142314Y21156D02*
X143381D01*
X144675Y22450D01*
X139006Y21156D02*
X142314D01*
X138669Y20819D02*
X139006Y21156D01*
X138156Y20819D02*
X138669D01*
X138138Y20837D02*
X138156Y20819D01*
X136050Y20837D02*
X138138D01*
X106230Y19978D02*
Y21278D01*
X106665Y21713D01*
X107500Y19978D02*
Y21278D01*
X107065Y21713D02*
X107500Y21278D01*
X107065Y21713D02*
Y22375D01*
X108065Y23375D01*
X112584D01*
X106665Y21713D02*
Y22541D01*
X107899Y23775D01*
X112750D01*
X112584Y23375D02*
X113650Y22309D01*
X112750Y23775D02*
X114050Y22475D01*
Y5510D02*
X115345Y4215D01*
X113650Y5225D02*
X114041Y4834D01*
X110040Y19978D02*
Y21278D01*
X110475Y21713D01*
X111310Y19978D02*
Y21278D01*
X110875Y21713D02*
X111310Y21278D01*
X110875Y21713D02*
Y21938D01*
X111137Y22200D01*
X110475Y21713D02*
Y22104D01*
X110971Y22600D01*
X111137Y22200D02*
X111894D01*
X112405Y21689D01*
X110971Y22600D02*
X112060D01*
X112805Y21855D01*
X111533Y4787D02*
X112405Y5659D01*
X111533Y3583D02*
Y4787D01*
X110675Y2725D02*
X111533Y3583D01*
X110045Y2725D02*
X110675D01*
X108995Y1675D02*
X110045Y2725D01*
X93175Y8525D02*
X94400Y7300D01*
Y3450D02*
Y7300D01*
X92775Y8359D02*
X94000Y7134D01*
Y5016D02*
Y7134D01*
X93175Y8525D02*
Y12325D01*
X95175Y14325D01*
X97800D01*
X100715Y17240D01*
Y18243D02*
X101150Y18678D01*
X92775Y8359D02*
Y12491D01*
X95009Y14725D01*
X97634D01*
X100315Y17405D01*
X99880Y18678D02*
X100315Y18243D01*
X93199Y4215D02*
X94000Y5016D01*
X93800Y2850D02*
X94400Y3450D01*
X89390Y1675D02*
X90565Y2850D01*
X93800D01*
X77789Y18200D02*
X83125D01*
X73380Y13791D02*
X77789Y18200D01*
X77624Y18600D02*
X82959D01*
X57150Y14191D02*
X73214D01*
X57316Y13791D02*
X73380D01*
X82959Y18600D02*
X86734Y22375D01*
X88450Y19978D02*
Y21278D01*
X87655Y22375D02*
X88015Y22016D01*
X86734Y22375D02*
X87655D01*
X88015Y21713D02*
X88450Y21278D01*
X88015Y21713D02*
Y22016D01*
X55202Y1709D02*
X55236Y1675D01*
X54811Y9138D02*
X55236Y8713D01*
X54811Y9138D02*
Y11852D01*
X83125Y18200D02*
X86900Y21975D01*
X87180Y19978D02*
Y21278D01*
X87490Y21975D02*
X87615Y21850D01*
X86900Y21975D02*
X87490D01*
X87180Y21278D02*
X87615Y21713D01*
Y21850D01*
X55636Y5085D02*
Y8879D01*
Y5085D02*
X56506Y4215D01*
X55211Y9304D02*
X55636Y8879D01*
X55211Y9304D02*
Y11686D01*
X54811Y11852D02*
X57150Y14191D01*
X55211Y11686D02*
X57316Y13791D01*
X72647Y14708D02*
X77364Y19425D01*
X72481Y15108D02*
X77199Y19825D01*
X56300Y15108D02*
X72481D01*
X56466Y14708D02*
X72647D01*
X82434Y19825D02*
X86184Y23575D01*
X90549D02*
X91825Y22300D01*
X86184Y23575D02*
X90549D01*
X92260Y19978D02*
Y21325D01*
X91825Y21760D02*
Y22300D01*
Y21760D02*
X92260Y21325D01*
X50156Y1675D02*
X51392Y2911D01*
X51966D01*
X52705Y5125D02*
Y11513D01*
Y5125D02*
X52705Y5125D01*
X82600Y19425D02*
X86350Y23175D01*
X90990Y19978D02*
Y21325D01*
X90384Y23175D02*
X91425Y22134D01*
X86350Y23175D02*
X90384D01*
X90990Y21325D02*
X91425Y21760D01*
Y22134D01*
X53273Y4215D02*
X53966D01*
X53105Y5100D02*
X53105Y5100D01*
Y11347D01*
X52705Y11513D02*
X56300Y15108D01*
X53105Y11347D02*
X56466Y14708D01*
X131335Y38765D02*
Y40630D01*
Y38765D02*
X131650Y38450D01*
X132375D01*
X133885Y47180D02*
X138530D01*
X141155Y49805D01*
X142855D01*
X142892Y46181D02*
Y48769D01*
X142855Y48805D02*
X142892Y48769D01*
X144162Y46181D02*
Y48799D01*
X144155Y48805D02*
X144162Y48799D01*
X145432Y46181D02*
Y48799D01*
X145425Y48805D02*
X145432Y48799D01*
X133885Y47680D02*
X138048D01*
X140918Y50550D01*
X143850D01*
X144155Y50245D01*
Y49805D02*
Y50245D01*
X133885Y42680D02*
X136281D01*
X142892Y39492D02*
Y42181D01*
X142875Y39475D02*
X142892Y39492D01*
X144162Y39489D02*
Y42181D01*
Y39489D02*
X144175Y39475D01*
X145432Y39482D02*
Y42181D01*
X145425Y39475D02*
X145432Y39482D01*
X136281Y42680D02*
X140486Y38475D01*
X142875D01*
X133885Y45680D02*
X135120D01*
X140950Y39850D01*
Y39275D02*
Y39850D01*
X144175Y37650D02*
Y38475D01*
X144175Y37650D02*
X144175Y37650D01*
X130835Y37980D02*
Y40630D01*
Y37980D02*
X131490Y37325D01*
X136049D01*
X137167Y38443D01*
X145425Y49805D02*
Y50400D01*
X137171Y48552D02*
X139719Y51100D01*
X144725D01*
X145425Y50400D01*
X127725Y55970D02*
X128765D01*
X129835Y54900D01*
Y52230D02*
Y54900D01*
X105200Y79725D02*
Y80859D01*
X104475Y86400D02*
Y87375D01*
X103450Y86475D02*
X104095Y85830D01*
X103450Y86475D02*
Y87375D01*
X104200Y79725D02*
Y80769D01*
X103400Y81569D02*
X104200Y80769D01*
X103400Y81569D02*
Y85315D01*
X102450Y86266D02*
X103400Y85315D01*
X102450Y86266D02*
Y87375D01*
X104095Y81390D02*
Y85830D01*
Y81390D02*
X104700Y80785D01*
Y79725D02*
Y80785D01*
X104725Y81334D02*
X105200Y80859D01*
X104725Y81334D02*
Y86150D01*
X104475Y86400D02*
X104725Y86150D01*
X103200Y79725D02*
Y81150D01*
X101914Y82436D02*
X103200Y81150D01*
X101914Y82436D02*
Y85821D01*
X101450Y86285D02*
X101914Y85821D01*
X101450Y86285D02*
Y87375D01*
X102700Y79725D02*
Y81000D01*
X101425Y82275D02*
X102700Y81000D01*
X101425Y82275D02*
Y85525D01*
X100450Y86500D02*
X101425Y85525D01*
X100450Y86500D02*
Y87375D01*
X102200Y79725D02*
Y80765D01*
X99450Y83515D02*
X102200Y80765D01*
X99450Y83515D02*
Y87375D01*
X98450Y83765D02*
Y87375D01*
X93200Y79725D02*
Y80853D01*
X93650Y81303D01*
Y82900D01*
X92450Y84100D02*
X93650Y82900D01*
X92450Y84100D02*
Y87375D01*
X96700Y79725D02*
Y83500D01*
X97450Y86850D02*
Y87375D01*
Y86850D02*
X97850Y86450D01*
Y84650D02*
Y86450D01*
X96700Y83500D02*
X97850Y84650D01*
X96200Y79725D02*
Y85250D01*
X96450Y85500D01*
Y87375D01*
X95450Y87075D02*
Y87375D01*
Y87075D02*
X95935Y86590D01*
Y85635D02*
Y86590D01*
X95200Y84900D02*
X95935Y85635D01*
X95200Y79725D02*
Y84900D01*
X94450Y86950D02*
Y87375D01*
Y86950D02*
X94700Y86700D01*
Y79725D02*
Y86700D01*
X94200Y79725D02*
Y86488D01*
X93450Y87238D02*
X94200Y86488D01*
X93450Y87238D02*
Y87375D01*
X91700Y79725D02*
Y80950D01*
X91075Y85531D02*
Y86648D01*
X91450Y87023D01*
Y87375D01*
X91290Y81360D02*
X91700Y80950D01*
X91290Y81360D02*
Y85316D01*
X91075Y85531D02*
X91290Y85316D01*
X91200Y79725D02*
Y80889D01*
X90450Y81639D02*
X91200Y80889D01*
X90450Y81639D02*
Y87375D01*
X90200Y79725D02*
Y81179D01*
X89450Y81928D02*
X90200Y81179D01*
X89450Y81928D02*
Y87375D01*
X89450Y89825D02*
X89450Y89825D01*
X90450Y89824D02*
X90450Y89824D01*
X91435Y89500D02*
X91450Y89485D01*
X92450Y89825D02*
X92450Y89825D01*
X94450Y89825D02*
X94450Y89825D01*
X95450Y89825D02*
X95450Y89825D01*
X98450Y89826D02*
X98450Y89826D01*
X96425Y89825D02*
X96450Y89800D01*
X120265Y52225D02*
X120265Y52225D01*
X122285Y50180D02*
X123280D01*
X123500Y50400D01*
Y50645D01*
X122400Y51745D02*
X123500Y50645D01*
X122400Y51745D02*
Y52225D01*
X120265Y52225D02*
X122400D01*
X122400Y52225D01*
X123400Y52420D02*
X123807Y52827D01*
X123400Y51584D02*
Y52420D01*
X120480Y48180D02*
X122285D01*
X120100Y47800D02*
X120480Y48180D01*
X117875Y47800D02*
X120100D01*
X116750Y48925D02*
X117875Y47800D01*
X116750Y48925D02*
Y54270D01*
X116255Y54765D02*
X116750Y54270D01*
X114805Y54765D02*
X116255D01*
X98250Y47559D02*
X98834Y46975D01*
X98650Y47725D02*
X99000Y47375D01*
X98834Y46975D02*
X106865D01*
X99000Y47375D02*
X107030D01*
X123807Y52827D02*
Y53667D01*
X123549Y53925D02*
X123807Y53667D01*
X120265Y53495D02*
X121420D01*
X121850Y53925D01*
X123549D01*
X98450Y83765D02*
X101200Y81015D01*
Y79725D02*
Y81015D01*
X75917Y70475D02*
X79950D01*
X53105Y4383D02*
X53273Y4215D01*
X53105Y4383D02*
Y5100D01*
X55236Y1675D02*
Y8713D01*
X51966Y2911D02*
X52705Y3651D01*
Y5125D01*
X74775Y3525D02*
Y6216D01*
X78300Y60975D02*
X79950D01*
X77575Y61700D02*
X78300Y60975D01*
X84700Y49725D02*
Y50775D01*
X84650Y50825D02*
Y52275D01*
Y50825D02*
X84700Y50775D01*
X84925Y52550D02*
X86241D01*
X84650Y52275D02*
X84925Y52550D01*
X86216Y51650D02*
X86516Y51950D01*
X86241Y52550D02*
X86516Y52275D01*
Y51950D02*
Y52275D01*
X84200Y49725D02*
Y50775D01*
X84250Y50825D01*
Y52441D01*
X84759Y52950D02*
X86406D01*
X84250Y52441D02*
X84759Y52950D01*
X86916Y51950D02*
X87216Y51650D01*
X86406Y52950D02*
X86916Y52441D01*
Y51950D02*
Y52441D01*
X114041Y1675D02*
Y4834D01*
X73214Y14191D02*
X77624Y18600D01*
X77364Y19425D02*
X82600D01*
X77199Y19825D02*
X82434D01*
X98450Y88375D02*
Y89826D01*
D11*
X111320Y91325D02*
Y92507D01*
X131159Y63753D02*
X132138Y62775D01*
X132283D01*
X132665Y62393D01*
X141622Y40450D02*
Y42181D01*
Y46181D02*
Y47900D01*
X125050Y63687D02*
X125062Y63675D01*
X126150D01*
X111300Y92487D02*
X111320Y92507D01*
X109299Y83101D02*
X109325Y83075D01*
X108275D02*
X108299Y83099D01*
X107300Y83125D02*
X107305Y83130D01*
X140157Y67500D02*
Y67540D01*
X140919Y68228D02*
X140925D01*
X128550Y77085D02*
X129723Y75912D01*
X129777D01*
X28595Y14787D02*
Y15575D01*
X41275Y8747D02*
X41275Y8747D01*
X38475Y8747D02*
X41275D01*
X36850D02*
X38475D01*
X40518Y21300D02*
X40528Y21290D01*
X37975Y21300D02*
X40518D01*
X40499Y20250D02*
X40511Y20238D01*
X39250Y6852D02*
X40025D01*
X32742Y7785D02*
X32754Y7797D01*
X34200D01*
X31900Y7785D02*
X32742D01*
X39528Y31297D02*
Y32100D01*
X118902Y56035D02*
X120265D01*
X80550Y81131D02*
X80551Y81133D01*
X80550Y80345D02*
Y81131D01*
X79525Y80345D02*
Y81125D01*
X115175Y48497D02*
X115197Y48475D01*
X125886Y77685D02*
X126425Y78225D01*
X67450Y90300D02*
X67475Y90275D01*
X108209Y91352D02*
X108250Y91312D01*
X109195Y91355D02*
X109225Y91325D01*
X109195Y91355D02*
Y92507D01*
X110260Y91346D02*
X110281Y91325D01*
X107220Y91610D02*
X107330Y91500D01*
X108299Y85375D02*
Y86525D01*
X109299Y86499D02*
X109375Y86575D01*
X106280Y86455D02*
X106300Y86475D01*
X107305Y86505D02*
X107325Y86525D01*
X111200Y86600D02*
X111299Y86501D01*
X99450Y91352D02*
X99450Y91352D01*
X89450Y91341D02*
X89455Y91346D01*
X137460Y23540D02*
X138718D01*
X139225Y69912D02*
X140339Y68799D01*
X60175Y86525D02*
X60175Y86525D01*
X60175Y86525D02*
Y87295D01*
X59150Y86525D02*
X59150Y86525D01*
X59150Y86525D02*
Y87295D01*
X50379Y88595D02*
X50400Y88574D01*
X49550Y88595D02*
X50379D01*
X115800Y67625D02*
X116750D01*
X116350Y66075D02*
X116350Y66075D01*
X115600Y66075D02*
X116350D01*
X115197Y75304D02*
Y76675D01*
X116467Y75304D02*
Y76675D01*
X117737Y75304D02*
Y76675D01*
X119007Y75304D02*
Y76675D01*
X113918Y69432D02*
X113925Y69425D01*
X113918Y69432D02*
Y70175D01*
Y73375D02*
Y74150D01*
X71000Y70295D02*
X71737D01*
X67425Y65675D02*
X67450Y65700D01*
Y66650D01*
X74167Y70500D02*
X74917D01*
X75375Y58700D02*
X76125D01*
X75375Y60700D02*
X76125D01*
X75375Y61700D02*
X76125D01*
X113825Y61750D02*
X114600D01*
X114600Y58775D02*
X114600Y58775D01*
X113825Y58775D02*
X114600D01*
X113825Y59775D02*
X114600D01*
X118902Y68114D02*
Y68725D01*
X119007Y68830D01*
Y69844D01*
X117877Y68114D02*
Y68701D01*
X117737Y68841D02*
X117877Y68701D01*
X117737Y68841D02*
Y69844D01*
X118902Y67350D02*
Y68114D01*
X117877Y67346D02*
Y68114D01*
X23047Y53068D02*
X23050Y53065D01*
X23047Y53068D02*
Y53842D01*
X34280Y67120D02*
X34300Y67100D01*
X33492Y67120D02*
X34280D01*
X33292Y65800D02*
X34300D01*
X34300Y64300D02*
X34300Y64300D01*
X33292Y64300D02*
X34300D01*
X29071Y71331D02*
Y72192D01*
X102420Y32905D02*
X102424Y32900D01*
X102420Y32905D02*
Y34643D01*
X108770Y32855D02*
X108775Y32850D01*
X108770Y32855D02*
Y34643D01*
X96070Y32886D02*
X96081Y32875D01*
X96070Y32886D02*
Y34643D01*
X89720Y32850D02*
Y34643D01*
X22018Y51350D02*
Y52073D01*
X22007Y52083D02*
X22018Y52073D01*
X23018Y51350D02*
Y52085D01*
X23022Y52090D01*
X22021Y47629D02*
Y48347D01*
X23018Y47629D02*
Y48350D01*
X26660Y49552D02*
X27420D01*
X27425Y49557D01*
X26660Y48552D02*
X27398D01*
X27408Y48562D01*
X26911Y50436D02*
Y51685D01*
X26660Y50185D02*
X26911Y50436D01*
X26660Y49552D02*
Y50185D01*
X28181Y51685D02*
X28460D01*
X29992Y50333D02*
X30275D01*
X49539Y86832D02*
X50350D01*
X77329Y77513D02*
X78128D01*
X78141Y77500D01*
X125042Y15757D02*
X126630D01*
X125028Y17027D02*
X126630D01*
X125011Y17044D02*
X125028Y17027D01*
X122486Y18297D02*
X123236D01*
X122486Y18297D02*
X122486Y18297D01*
X123511Y22190D02*
Y23244D01*
X123507Y22187D02*
X123511Y22190D01*
Y24844D02*
Y25869D01*
X124731Y24569D02*
X125236D01*
X125313Y24647D02*
X126630D01*
X125236Y24569D02*
X125313Y24647D01*
X123511Y23244D02*
X124036D01*
X124336Y23544D01*
X124731D01*
X125428Y23377D02*
X126630D01*
X125261Y23544D02*
X125428Y23377D01*
X124731Y23544D02*
X125261D01*
X125067Y28369D02*
X126626D01*
X125042Y28394D02*
X125067Y28369D01*
X125062Y27099D02*
X126626D01*
X125042Y27119D02*
X125062Y27099D01*
X122711Y29644D02*
X123528D01*
X123311Y33494D02*
Y34544D01*
Y36144D02*
X123881D01*
X124181Y35844D01*
X124656D01*
X123311Y34544D02*
X123886D01*
X124161Y34819D01*
X124656D01*
X125361Y34719D02*
X126626D01*
X125261Y34819D02*
X125361Y34719D01*
X124656Y34819D02*
X125261D01*
X125381Y35989D02*
X126626D01*
X125236Y35844D02*
X125381Y35989D01*
X124656Y35844D02*
X125236D01*
X138950Y31485D02*
X139964D01*
X136046Y35989D02*
X137333D01*
X137493Y36150D01*
X138061D01*
X138857Y36485D02*
X139401D01*
X138522Y36150D02*
X138857Y36485D01*
X138061Y36150D02*
X138522D01*
X138815Y34885D02*
X139401D01*
X138575Y35125D02*
X138815Y34885D01*
X138061Y35125D02*
X138575D01*
X138989Y20206D02*
X140114D01*
X136050Y23377D02*
X137297D01*
X137460Y23540D01*
X136050Y24647D02*
X137322D01*
X137425Y24544D01*
X138101D01*
X138919Y24894D02*
X139611D01*
X138569Y24544D02*
X138919Y24894D01*
X138101Y24544D02*
X138569D01*
X138963Y23294D02*
X139611D01*
X138718Y23540D02*
X138963Y23294D01*
X138156Y22570D02*
X138161Y22575D01*
X136050Y17027D02*
X137626D01*
X137643Y17044D01*
X136046Y28369D02*
X137625D01*
X137650Y28344D01*
X136046Y27099D02*
X137624D01*
X137643Y27119D01*
X139401Y36485D02*
X140440D01*
X140450Y36495D01*
X139401Y34885D02*
X140429D01*
X140439Y34875D01*
X139611Y23294D02*
X140669D01*
X140675Y23300D01*
X139611Y24894D02*
X140642D01*
X140661Y24875D01*
X123511Y25869D02*
X123511Y25869D01*
Y24844D02*
X123963D01*
X124238Y24569D01*
X124731D01*
X137445Y70040D02*
X138289Y69196D01*
X138501D01*
X138899Y68799D01*
X138343Y70938D02*
X139225Y70056D01*
Y69912D02*
Y70056D01*
X139242Y71836D02*
X140352Y70725D01*
X140375D01*
X139623Y68074D02*
X140157Y67540D01*
X138899Y68799D02*
X139623Y68074D01*
X140348Y68799D02*
X140919Y68228D01*
X140339Y68799D02*
X140348D01*
X137171Y64746D02*
Y64751D01*
Y64746D02*
X137716Y64200D01*
X132955Y65550D02*
X134050Y64455D01*
Y64425D02*
Y64455D01*
X132969Y63538D02*
X133389Y63118D01*
X132969Y63538D02*
Y63739D01*
X132057Y64651D02*
X132969Y63739D01*
X132146Y61874D02*
X132665Y62393D01*
X132125Y61874D02*
X132146D01*
X137931Y65443D02*
Y65494D01*
Y65443D02*
X138473Y64900D01*
X126847Y75250D02*
X127981Y74116D01*
X125846Y77685D02*
X125886D01*
X120050Y80076D02*
X120082D01*
X119275Y80851D02*
X120050Y80076D01*
X130694Y78587D02*
X131573Y77708D01*
X130268Y79226D02*
X130694Y78800D01*
Y78587D02*
Y78800D01*
X130993Y79951D02*
X131327Y79617D01*
X131460D01*
X132471Y78606D01*
X129425Y78800D02*
X129842D01*
X130268Y79226D01*
X130993Y79951D02*
X131500Y80458D01*
Y80825D01*
X133975Y38450D02*
X134981D01*
X123311Y36144D02*
Y37100D01*
X146702Y46181D02*
Y47777D01*
X147090Y48165D01*
X148660D01*
X149300Y47525D01*
Y45850D02*
Y47525D01*
Y41300D02*
Y42350D01*
X146702Y42181D02*
Y46181D01*
X146702Y46181D01*
X113825Y60750D02*
X114600D01*
X129551Y58270D02*
Y59022D01*
X129531Y58250D02*
X129551Y58270D01*
X106220Y93525D02*
Y94494D01*
X106114Y94600D02*
X106220Y94494D01*
X107220Y93525D02*
Y94506D01*
X107314Y94600D01*
X106220Y91581D02*
Y92500D01*
X106114Y91475D02*
X106220Y91581D01*
X107220Y91610D02*
Y92500D01*
X110260Y91346D02*
Y92507D01*
X108209Y91352D02*
Y92532D01*
Y93557D02*
Y94784D01*
X108225Y94800D01*
X109195Y93532D02*
Y94825D01*
X110260Y93532D02*
Y94735D01*
X110300Y94775D01*
X111320Y93532D02*
Y94775D01*
X111299Y83075D02*
Y84350D01*
X110295Y83105D02*
Y84375D01*
X109299Y83101D02*
Y84350D01*
X107305Y83130D02*
Y84363D01*
X106464Y81770D02*
Y82536D01*
X105425Y82625D02*
X105439Y82611D01*
Y81770D02*
Y82611D01*
X105950Y83255D02*
X106280Y83585D01*
Y84363D01*
Y85388D02*
Y86455D01*
X107305Y85388D02*
Y86505D01*
X109299Y85375D02*
Y86499D01*
X111299Y85375D02*
Y86501D01*
X108299Y83099D02*
Y84350D01*
X91902Y81947D02*
Y82700D01*
X91900Y81945D02*
X91902Y81947D01*
X92925Y81945D02*
Y82725D01*
X92925Y81945D02*
X92925Y81945D01*
X103450Y90625D02*
Y91355D01*
X102450Y90626D02*
Y91355D01*
X101450Y90626D02*
Y91355D01*
X100450Y90625D02*
Y91350D01*
X100445Y91355D02*
X100450Y91350D01*
X99450Y90625D02*
Y91352D01*
X98450Y90626D02*
Y91355D01*
X97450Y90625D02*
X97450Y90625D01*
Y91352D01*
X96425Y90625D02*
Y91352D01*
X95450Y90625D02*
Y91350D01*
X95445Y91355D02*
X95450Y91350D01*
X94450Y90625D02*
Y91346D01*
X94450Y91346D01*
X93450Y90625D02*
Y91355D01*
X93450Y91355D02*
X93450Y91355D01*
X92450Y90625D02*
Y91346D01*
X91450Y90626D02*
Y91335D01*
X91435Y91350D02*
X91450Y91335D01*
X90450Y90624D02*
Y91346D01*
X89450Y90625D02*
Y91341D01*
X104475Y88375D02*
Y89100D01*
X104450Y89125D02*
X104475Y89100D01*
X78141Y78525D02*
Y79266D01*
X78150Y79275D01*
X82925Y81539D02*
Y82300D01*
X82925Y82300D01*
X81900Y81539D02*
Y82325D01*
X112220Y74075D02*
X112962D01*
X112975Y74062D01*
X112220Y73050D02*
X112925D01*
X112975Y73000D01*
X116775Y44305D02*
Y45325D01*
X120120Y40355D02*
Y41100D01*
Y40355D02*
X120125Y40350D01*
X117675Y41750D02*
X119243D01*
X119618Y42125D01*
X120120D01*
X122400Y53225D02*
X123175D01*
X123175Y53225D01*
X118050Y48675D02*
X118800D01*
X118025Y48650D02*
X118050Y48675D01*
X115175Y48497D02*
Y49475D01*
X113575Y48495D02*
Y49475D01*
Y48495D02*
X113575Y48495D01*
X113575Y49475D02*
Y50125D01*
X113850Y50400D01*
Y50870D01*
X115175Y49475D02*
Y50100D01*
X114875Y50400D02*
X115175Y50100D01*
X114875Y50400D02*
Y50870D01*
X113605Y53495D02*
X114805D01*
X113100Y52990D02*
X113605Y53495D01*
X113255Y50870D02*
X113850D01*
X113100Y51025D02*
X113255Y50870D01*
X113125Y52225D02*
X114805D01*
X113100Y52250D02*
X113125Y52225D01*
X113100Y51025D02*
Y52250D01*
Y52990D01*
X118900Y54765D02*
X120265D01*
X118900Y54765D02*
X118900Y54765D01*
X76800Y88900D02*
X77850D01*
X71450Y90300D02*
X72200D01*
X72200Y90300D01*
X67475Y90275D02*
X68208D01*
X64420Y83206D02*
Y84347D01*
X64414Y83200D02*
X64420Y83206D01*
Y85372D02*
Y86355D01*
X64400Y86375D02*
X64420Y86355D01*
X58025Y73436D02*
Y74225D01*
X62700Y71300D02*
Y72069D01*
X62694Y72075D02*
X62700Y72069D01*
X78955Y100609D02*
X79475Y101128D01*
Y103075D01*
X81075Y101029D02*
X81495Y100609D01*
X81075Y101029D02*
Y103075D01*
X77225Y67215D02*
X77970D01*
X77200Y67190D02*
X77225Y67215D01*
X77200Y66190D02*
X77970D01*
X75375Y59700D02*
X76125D01*
X77200Y71331D02*
X77955D01*
X77200Y72356D02*
X77955D01*
X77200Y72356D02*
X77200Y72356D01*
X115600Y65100D02*
X116350D01*
X121200Y16550D02*
Y17525D01*
X31322Y19135D02*
X35810D01*
X31310Y19147D02*
X31322Y19135D01*
X31310Y17240D02*
Y19147D01*
Y17240D02*
X31325Y17225D01*
X36925Y20250D02*
X40499D01*
X35810Y19135D02*
X36925Y20250D01*
X37975Y21300D01*
X31320Y6847D02*
X34200D01*
X30975Y7192D02*
X31320Y6847D01*
X30975Y7192D02*
Y8497D01*
X32209Y9731D01*
X32694D01*
X125005Y15794D02*
X125042Y15757D01*
X136050D02*
X137667D01*
X74167Y69500D02*
X74917D01*
X110295Y85400D02*
Y86575D01*
Y83105D02*
X110325Y83075D01*
X124528Y29639D02*
X126626D01*
X28460Y51685D02*
X29050Y52275D01*
D14*
X41528Y21290D02*
Y21697D01*
X41050Y22175D02*
X41528Y21697D01*
X41050Y22175D02*
Y23175D01*
X41528Y20722D02*
Y21290D01*
Y20722D02*
X41600Y20650D01*
X41600Y20650D02*
X41600Y20650D01*
X41600Y20238D02*
Y20650D01*
X41600Y18225D02*
Y19238D01*
X40511Y18238D02*
X40511Y18238D01*
Y19238D01*
X38220Y6847D02*
X38225Y6852D01*
X36850Y6847D02*
X38220D01*
X37240Y27600D02*
Y28775D01*
X36058Y26418D02*
X37240Y27600D01*
X36058Y23577D02*
Y26418D01*
Y21817D02*
Y22552D01*
Y21817D02*
X36375Y21500D01*
X62475Y89957D02*
X62482Y89950D01*
X63250D01*
X121675Y73318D02*
Y73325D01*
X35403Y67825D02*
X37075D01*
X34169Y69059D02*
X35403Y67825D01*
X34169Y69059D02*
Y70117D01*
X33492Y67120D02*
Y68245D01*
Y68676D01*
X32899Y69268D02*
X33492Y68676D01*
X32899Y69268D02*
Y70117D01*
X22021Y47629D02*
X22025Y47625D01*
X23018Y47629D02*
X23022Y47625D01*
X136046Y34719D02*
X137238D01*
X137643Y35125D01*
X138061D01*
X123512Y71401D02*
X124389Y70524D01*
X123111Y71932D02*
X123512Y71531D01*
Y71401D02*
Y71531D01*
X123835Y72657D02*
X124131Y72361D01*
X124347D01*
X125287Y71422D01*
X122985Y73457D02*
X123035D01*
X123835Y72657D01*
X122261Y72732D02*
X122311D01*
X123111Y71932D01*
X121675Y73318D02*
X122261Y72732D01*
X122415Y74027D02*
X122985Y73457D01*
X36375Y21500D02*
X36960D01*
X37240Y21780D01*
Y23175D01*
D15*
X111275Y64975D02*
X111600Y65300D01*
X111488Y64475D02*
X111600Y64363D01*
X108200Y67150D02*
X108875Y66475D01*
Y66475D02*
Y66475D01*
Y66475D02*
X109950D01*
X132400Y48180D02*
X133885D01*
X67125Y36575D02*
Y37367D01*
X67186Y37428D01*
X66264Y38350D02*
X67186Y37428D01*
X65675Y38350D02*
X66264D01*
X127829Y53979D02*
X127835Y53972D01*
Y52230D02*
Y53972D01*
X80025Y51975D02*
X81650D01*
X81400Y54975D02*
X81650Y54725D01*
X80025Y53475D02*
X81650D01*
X81388Y55475D02*
X81650Y55737D01*
X80025Y55475D02*
X81388D01*
X127821Y49150D02*
Y50686D01*
X128335Y51199D01*
Y52230D01*
X127335Y49985D02*
Y52230D01*
X126400Y49050D02*
X127335Y49985D01*
X99444Y48140D02*
X99700Y48396D01*
X125650Y49800D02*
X126100D01*
X126835Y50535D01*
X125835Y53388D02*
X126097Y53650D01*
X125835Y52230D02*
Y53388D01*
X126097Y50825D02*
X126335Y51063D01*
Y52230D01*
X126835Y50535D02*
Y52230D01*
X120100Y45650D02*
X121130Y46680D01*
X122285D01*
X124116Y46180D02*
X124646Y45650D01*
X122285Y46180D02*
X124116D01*
X125925Y42525D02*
X126335Y42115D01*
Y40630D02*
Y42115D01*
X126835Y42010D02*
X127350Y42525D01*
X126835Y40630D02*
Y42010D01*
X74625Y88225D02*
X76300Y89900D01*
X74625Y82900D02*
Y88225D01*
X64760Y73035D02*
X74625Y82900D01*
X64760Y72225D02*
Y73035D01*
X81504Y72475D02*
X81504Y72475D01*
X62850Y82300D02*
Y85246D01*
X62488Y85608D02*
X62850Y85246D01*
X62488Y85608D02*
Y87969D01*
X52364Y94800D02*
Y95011D01*
X51725Y95650D02*
X52364Y95011D01*
X49956Y95650D02*
X51725D01*
X49225Y94919D02*
X49956Y95650D01*
X49225Y91300D02*
Y94919D01*
X50929Y90571D02*
Y94491D01*
X51214Y94775D01*
X49225Y91300D02*
X51421Y89104D01*
Y86129D02*
Y89104D01*
Y86129D02*
X52925Y84625D01*
Y82700D02*
Y84625D01*
Y82700D02*
X53575Y82050D01*
Y72600D02*
Y82050D01*
Y72600D02*
X54875Y71300D01*
X59450D01*
X53525Y83475D02*
Y85375D01*
X52100Y86800D02*
X53525Y85375D01*
X52100Y86800D02*
Y89400D01*
X53525Y83475D02*
X54350Y82650D01*
X54750Y73461D02*
Y75225D01*
X54350Y75625D02*
X54750Y75225D01*
X54350Y75625D02*
Y82650D01*
X58125Y84356D02*
X58325Y84556D01*
X54625Y84356D02*
X54650Y84381D01*
Y87500D01*
X123583Y48180D02*
X123900Y48497D01*
X122285Y48180D02*
X123583D01*
X122285Y47180D02*
X124705D01*
X116475Y47775D02*
X116925Y47325D01*
X113395Y46805D02*
X120528D01*
X120903Y47180D01*
X122285D01*
X116925Y47325D02*
X120339D01*
X120694Y47680D01*
X122285D01*
X109950Y61975D02*
X110025D01*
X108412D02*
X109950D01*
Y63475D02*
X110025D01*
X109950Y61475D02*
X110025D01*
X108915D02*
X109950D01*
X79950Y64975D02*
X80025D01*
X78680D02*
X79950D01*
Y64475D02*
X80025D01*
X78670D02*
X79950D01*
X79950Y62975D02*
X80025D01*
X79950Y62475D02*
X80025D01*
X78914D02*
X79950D01*
Y58975D02*
X80025D01*
X78685D02*
X79950D01*
X93475Y51300D02*
X93700Y51075D01*
Y49725D02*
Y51075D01*
X83455Y48255D02*
X83700Y48500D01*
X83200Y51020D02*
X83455Y51275D01*
X93955Y48250D02*
X94200Y48495D01*
X95200Y51055D02*
X95445Y51300D01*
X95200Y49725D02*
Y51055D01*
X79950Y67975D02*
X80025D01*
X75247D02*
X79950D01*
X75042Y67770D02*
X75247Y67975D01*
X78425Y65230D02*
X78680Y64975D01*
X78425Y64230D02*
X78670Y64475D01*
X81450Y63975D02*
X81650Y64175D01*
X80025Y63975D02*
X81450D01*
X81313Y63475D02*
X81638Y63150D01*
X80025Y63475D02*
X81313D01*
X80025Y61975D02*
X81638D01*
X81163Y61475D02*
X81638Y61000D01*
X80025Y61475D02*
X81163D01*
X81385Y58475D02*
X81650Y58740D01*
X80025Y58475D02*
X81385D01*
X78450Y58740D02*
X78685Y58975D01*
X80025Y56975D02*
X81650D01*
X80025Y54975D02*
X81400D01*
X111075Y62475D02*
X111575Y61975D01*
X110025Y62475D02*
X111075D01*
X110025Y62975D02*
X111575D01*
X108415Y60975D02*
X108915Y61475D01*
X108400Y51975D02*
X109950D01*
X108412Y58720D02*
X108657Y58475D01*
X109950D01*
X111320Y58975D02*
X111575Y58720D01*
X109950Y58975D02*
X111320D01*
X108400Y56975D02*
X109950D01*
X111320Y54975D02*
X111575Y54720D01*
X109950Y54975D02*
X111320D01*
X108400Y53475D02*
X109950D01*
X82200Y48505D02*
X82455Y48250D01*
X82200Y48505D02*
Y49725D01*
X83700Y48500D02*
Y49725D01*
X82455Y51275D02*
X82700Y51030D01*
Y49725D02*
Y51030D01*
X83200Y49725D02*
Y51020D01*
X90200Y48500D02*
X90450Y48250D01*
X90200Y48500D02*
Y49725D01*
X89455Y48250D02*
X89700Y48495D01*
Y49725D01*
X90450Y51290D02*
X90700Y51040D01*
Y49725D02*
Y51040D01*
X89200Y51015D02*
X89455Y51270D01*
X89200Y49725D02*
Y51015D01*
X92200Y51275D02*
X92200Y51275D01*
Y49725D02*
Y51275D01*
X95445Y48250D02*
X95700Y48505D01*
Y49725D01*
X96200Y51050D02*
X96450Y51300D01*
X96200Y49725D02*
Y51050D01*
X94200Y48495D02*
Y49725D01*
X97700D02*
Y51290D01*
X99700Y48396D02*
Y49725D01*
X100200Y48410D02*
X100445Y48165D01*
X100200Y48410D02*
Y49725D01*
X99200Y51046D02*
X99444Y51290D01*
X99200Y49725D02*
Y51046D01*
X100445Y51290D02*
X100700Y51035D01*
Y49725D02*
Y51035D01*
X107200Y51025D02*
X107450Y51275D01*
X107200Y49725D02*
Y51025D01*
X106450Y51275D02*
X106700Y51025D01*
Y49725D02*
Y51025D01*
X107700Y48250D02*
Y49725D01*
X106200Y48275D02*
X106200Y48275D01*
Y49725D01*
X151607Y23975D02*
X153600Y25968D01*
X151757Y25975D02*
X152975Y27193D01*
X145000Y25975D02*
X146200Y24775D01*
X144575Y25975D02*
X145000D01*
X142164Y32435D02*
X144010D01*
X145625Y34050D01*
X151300D01*
X153600Y31750D01*
Y25968D02*
Y31750D01*
X151450Y23975D02*
X151607D01*
X151450Y25975D02*
X151757D01*
X152975Y27193D02*
Y31394D01*
X150969Y33400D02*
X152975Y31394D01*
X145943Y33400D02*
X150969D01*
X143078Y30535D02*
X145943Y33400D01*
X142164Y30535D02*
X143078D01*
X146200Y22200D02*
Y24775D01*
X143256Y19256D02*
X146200Y22200D01*
X142314Y19256D02*
X143256D01*
X124986Y22107D02*
X126630D01*
X136046Y32179D02*
X138076D01*
X138086Y32169D01*
X136046Y30909D02*
X138046D01*
X138086Y30869D01*
Y32169D02*
X138644D01*
X138910Y32435D01*
X142164D01*
X138086Y30869D02*
X138681D01*
X139015Y30535D01*
X142164D01*
X138086Y33169D02*
Y33942D01*
X138078Y33950D02*
X138086Y33942D01*
X136050Y19567D02*
X138153D01*
X138156Y19569D01*
X138656D01*
X138969Y19256D01*
X142314D01*
X138086Y29132D02*
Y29869D01*
Y29132D02*
X138088Y29129D01*
X55177Y1734D02*
X55202Y1709D01*
X131835Y39540D02*
Y40630D01*
Y39540D02*
X131974Y39401D01*
X132718D01*
X133354Y40037D01*
Y40075D01*
X133885Y50180D02*
X135095D01*
X135325Y49950D01*
X132720Y49680D02*
X133885D01*
X132450Y49950D02*
X132720Y49680D01*
X131835Y52230D02*
Y53490D01*
X131575Y53750D02*
X131835Y53490D01*
X124876Y33449D02*
X126626D01*
X124850Y33475D02*
X124876Y33449D01*
X124528Y29644D02*
Y30447D01*
X124500Y30475D02*
X124528Y30447D01*
X124335Y39554D02*
Y40630D01*
X124835Y39159D02*
Y40630D01*
X124156Y39375D02*
X124335Y39554D01*
X123528Y39375D02*
X124156D01*
X123116Y39787D02*
X123528Y39375D01*
X123116Y39787D02*
Y39800D01*
X124551Y38875D02*
X124835Y39159D01*
X129835Y39075D02*
Y40630D01*
X130335Y38760D02*
Y40630D01*
X129110Y38350D02*
X129835Y39075D01*
X122425Y38875D02*
X124551D01*
X122250Y39050D02*
X122425Y38875D01*
X129425Y37850D02*
X130335Y38760D01*
X122705Y37850D02*
X129425D01*
X121925Y37070D02*
X122705Y37850D01*
X122489Y38350D02*
X129110D01*
X121425Y37286D02*
X122489Y38350D01*
X121425Y20475D02*
Y37286D01*
X121125Y20175D02*
X121425Y20475D01*
X121925Y20500D02*
Y37070D01*
Y20500D02*
X122250Y20175D01*
X124236Y18297D02*
Y19114D01*
X124246Y19125D01*
X108853Y63975D02*
X109950D01*
X108415Y64413D02*
X108853Y63975D01*
X109950Y64475D02*
X111488D01*
X108746Y63475D02*
X109950D01*
X108415Y63144D02*
X108746Y63475D01*
X145425Y37411D02*
Y38475D01*
X145039Y37025D02*
X145425Y37411D01*
X141068Y37025D02*
X145039D01*
X136219Y41875D02*
X141068Y37025D01*
X133972Y41875D02*
X136219D01*
X128835Y50812D02*
Y52230D01*
Y50812D02*
X128847Y50800D01*
X122285Y49680D02*
X123545D01*
X123800Y49425D01*
X121070Y49180D02*
X122285D01*
X120825Y49425D02*
X121070Y49180D01*
X106200Y79725D02*
Y80983D01*
X106464Y81247D01*
Y81770D01*
X105700Y79725D02*
Y80975D01*
X105439Y81236D02*
X105700Y80975D01*
X105439Y81236D02*
Y81770D01*
X92700Y79725D02*
Y81100D01*
X92925Y81325D01*
Y81945D01*
X92200Y79725D02*
Y81090D01*
X91900Y81390D02*
X92200Y81090D01*
X91900Y81390D02*
Y81945D01*
X91450Y88375D02*
Y89485D01*
X103450Y89825D02*
X103450Y89825D01*
X100450Y88375D02*
Y89625D01*
Y89825D01*
X93450Y88375D02*
Y89625D01*
Y89825D01*
X97450Y88375D02*
Y89625D01*
Y89825D01*
X101450Y88375D02*
Y89626D01*
Y89826D01*
X99450Y88375D02*
Y89625D01*
Y89825D01*
X102450Y88375D02*
Y89626D01*
Y89826D01*
X104475Y87375D02*
X105100D01*
X105325Y87600D01*
Y90925D01*
X78166Y77475D02*
X79950D01*
X78141Y77500D02*
X78166Y77475D01*
X82700Y79725D02*
Y80825D01*
X82925Y81050D01*
Y81539D01*
X82200Y79725D02*
Y80900D01*
X81900Y81200D02*
X82200Y80900D01*
X81900Y81200D02*
Y81539D01*
X83200Y78231D02*
Y79725D01*
X83194Y78225D02*
X83200Y78231D01*
X109950Y71975D02*
X112975D01*
X113375Y72375D01*
X113918D01*
X109950Y71475D02*
X113000D01*
X113300Y71175D01*
X113918D01*
X109950Y72475D02*
X111400D01*
X111975Y73050D01*
X112220D01*
X109950Y72975D02*
X111033D01*
X111475Y73417D01*
Y73700D01*
X111850Y74075D01*
X112220D01*
X121195Y43180D02*
X122285D01*
X120070Y44305D02*
X121195Y43180D01*
X118375Y44305D02*
X120070D01*
X121352Y42680D02*
X122285D01*
X120797Y42125D02*
X121352Y42680D01*
X120120Y42125D02*
X120797D01*
X109950Y55475D02*
X111330D01*
X111575Y55720D01*
X113360Y56035D02*
X114805D01*
X112925Y55600D02*
X113360Y56035D01*
X112925Y54450D02*
Y55600D01*
X111925Y53450D02*
X112925Y54450D01*
X111925Y48275D02*
Y53450D01*
Y48275D02*
X113395Y46805D01*
X69208Y90275D02*
Y91080D01*
X69214Y91085D01*
X70450Y90300D02*
Y91077D01*
X70427Y91100D02*
X70450Y91077D01*
X68963Y88975D02*
Y89513D01*
X69208Y89758D01*
Y90275D01*
X70663Y88975D02*
Y89562D01*
X70450Y89775D02*
X70663Y89562D01*
X70450Y89775D02*
Y90300D01*
X50929Y90571D02*
X52100Y89400D01*
X58325Y84556D02*
Y86964D01*
X57440Y87849D02*
X58325Y86964D01*
X56625Y87849D02*
X57440D01*
X55000Y87850D02*
X55001Y87849D01*
X55600D01*
Y88983D01*
X56625Y87849D02*
Y88975D01*
X62488Y87969D02*
Y88944D01*
X62475Y88957D02*
X62488Y88944D01*
X61463Y87969D02*
Y88957D01*
X61463Y88957D01*
X78639Y62975D02*
X79950D01*
X78414Y63200D02*
X78639Y62975D01*
X78701Y66975D02*
X79950D01*
X78461Y67215D02*
X78701Y66975D01*
X77970Y67215D02*
X78461D01*
X78755Y66475D02*
X79950D01*
X78470Y66190D02*
X78755Y66475D01*
X77970Y66190D02*
X78470D01*
X78786Y70975D02*
X79950D01*
X78430Y71331D02*
X78786Y70975D01*
X77955Y71331D02*
X78430D01*
X78750Y71975D02*
X79950D01*
X78369Y72356D02*
X78750Y71975D01*
X77955Y72356D02*
X78369D01*
X79950Y71475D02*
X81504D01*
X81505Y71476D01*
X79950Y72475D02*
X81504D01*
X79950Y73475D02*
X81475D01*
X81500Y73500D01*
X79950Y74475D02*
X81500D01*
X78509Y73975D02*
X79950D01*
X78309Y74175D02*
X78509Y73975D01*
X78625Y74975D02*
X79950D01*
X78325Y75275D02*
X78625Y74975D01*
X86200Y79725D02*
Y81193D01*
X86193Y81200D02*
X86200Y81193D01*
X107700Y79725D02*
Y80833D01*
X108000Y81133D01*
X107200Y78231D02*
Y79725D01*
X106700Y78600D02*
Y79725D01*
X54650Y87500D02*
X55000Y87850D01*
X97200Y78410D02*
Y79725D01*
Y78410D02*
X97435Y78175D01*
X97700Y79725D02*
Y80935D01*
X97435Y81200D02*
X97700Y80935D01*
X103731Y92519D02*
X105325Y90925D01*
X100406Y92519D02*
X103731D01*
X99375Y93550D02*
X100406Y92519D01*
X99375Y93550D02*
Y97850D01*
X99375Y97850D01*
X119800Y48675D02*
X119805Y48680D01*
X122285D01*
X119800Y48675D02*
Y49463D01*
X119800Y49463D01*
X78673Y72975D02*
X79950D01*
X78430Y73218D02*
X78673Y72975D01*
X109950Y64975D02*
X111275D01*
X106325Y78225D02*
X106700Y78600D01*
X78414Y61975D02*
X78914Y62475D01*
X103450Y88375D02*
Y89825D01*
X90450Y88375D02*
Y89824D01*
X92450Y88375D02*
Y89825D01*
X94450Y88375D02*
Y89825D01*
X95450Y88375D02*
Y89825D01*
X89450Y88375D02*
Y89825D01*
X96450Y88375D02*
Y89800D01*
D20*
X89554Y41188D02*
Y41951D01*
X47573Y46524D02*
X49807Y48758D01*
X46105Y46524D02*
X47573D01*
X47800Y24575D02*
X49750Y26525D01*
X46100Y24575D02*
X47800D01*
X48392Y36299D02*
X49850Y37757D01*
X47105Y36299D02*
X48392D01*
X51550Y57525D02*
X54750Y60725D01*
X46087Y57525D02*
X51550D01*
X54750Y60725D02*
Y70025D01*
X139370Y66942D02*
X139922Y66390D01*
X92800Y41188D02*
X92800Y41188D01*
Y41951D01*
X89554Y41188D02*
X89554Y41188D01*
X65605Y60374D02*
X67499D01*
X67186Y49466D02*
X67525Y49805D01*
X65605Y49466D02*
X67186D01*
X65675Y27458D02*
X67225D01*
X42950Y12700D02*
Y13475D01*
X53875Y70900D02*
X54750Y70025D01*
X58350Y97525D02*
X62150D01*
X54475Y93650D02*
X58350Y97525D01*
X54475Y90489D02*
Y93650D01*
X61463Y89957D02*
Y91088D01*
X62475Y89957D02*
Y90675D01*
X61463Y85652D02*
Y87969D01*
X59350Y83539D02*
X61463Y85652D01*
X59350Y82300D02*
Y83539D01*
X88675Y95925D02*
X90600Y97850D01*
X88675Y93625D02*
Y95925D01*
X88100Y93050D02*
X88675Y93625D01*
X88100Y85625D02*
Y93050D01*
X86750Y84275D02*
X88100Y85625D01*
X76775Y84275D02*
X86750D01*
X76375Y83875D02*
X76775Y84275D01*
X76375Y82700D02*
Y83875D01*
X75917Y82242D02*
X76375Y82700D01*
X75917Y70500D02*
Y82242D01*
X46105Y36299D02*
X46105Y36299D01*
Y37849D01*
X45205Y36299D02*
X46105D01*
X44805Y36699D02*
X45205Y36299D01*
X44805Y36699D02*
Y37849D01*
X125129Y78478D02*
X125675Y79025D01*
X86308Y38788D02*
Y39588D01*
X92800Y41951D02*
X92800Y41951D01*
X105744Y41082D02*
Y41907D01*
X114600Y66075D02*
Y66700D01*
X114400Y66900D02*
X114600Y66700D01*
X114400Y66900D02*
Y67625D01*
X113918Y72375D02*
X114925D01*
X116467Y70833D01*
Y69844D02*
Y70833D01*
X113918Y71175D02*
X114800D01*
X115197Y70778D01*
Y69844D02*
Y70778D01*
X89544Y38813D02*
X89544Y38813D01*
X89544Y38813D02*
Y39588D01*
X86308D02*
X86308Y39588D01*
X92760Y38812D02*
Y39562D01*
X96007Y38805D02*
X96010Y38809D01*
Y39562D01*
X109050Y41075D02*
Y41850D01*
X112300Y41856D02*
X112300Y41856D01*
X112300Y41075D02*
Y41856D01*
X109014Y39487D02*
X109014Y39487D01*
Y38718D02*
Y39487D01*
X105746Y38729D02*
X105746Y38729D01*
Y39487D01*
X102494Y41895D02*
X102494Y41895D01*
Y41082D02*
Y41895D01*
X99278Y41188D02*
Y41993D01*
X96034Y41963D02*
X96034Y41963D01*
Y41188D02*
Y41963D01*
X99278Y41993D02*
X99278Y41993D01*
X102488Y38737D02*
X102488Y38737D01*
X102488Y38737D02*
Y39558D01*
X99240Y38818D02*
X99247Y38812D01*
X99240Y38818D02*
Y39565D01*
X108750Y21725D02*
X108770Y21705D01*
Y19978D02*
Y21705D01*
X102420Y19978D02*
Y21775D01*
X96056Y21650D02*
X96070Y21637D01*
Y19978D02*
Y21637D01*
X89700Y21689D02*
X89720Y21669D01*
Y19978D02*
Y21669D01*
X30359Y68691D02*
Y70117D01*
Y68691D02*
X30625Y68425D01*
X28181Y56424D02*
X29470Y55135D01*
X28181Y56424D02*
Y57285D01*
Y52821D02*
X29470Y54110D01*
X28181Y51685D02*
Y52821D01*
X23047Y54842D02*
X24371Y56165D01*
Y57285D01*
X31975Y67120D02*
X32467D01*
X31920Y67175D02*
X31975Y67120D01*
X31492Y67175D02*
X31920D01*
X31492Y68175D02*
X31975D01*
X32045Y68245D01*
X32467D01*
X31492Y68175D02*
Y68799D01*
X31629Y68936D01*
Y70117D01*
X29071Y73192D02*
Y73491D01*
X30359Y74780D01*
Y75717D01*
X35300Y73475D02*
X35395D01*
X34169Y74606D02*
X35300Y73475D01*
X34169Y74606D02*
Y75717D01*
X35395Y72395D02*
Y72450D01*
X34169Y71169D02*
X35395Y72395D01*
X34169Y70117D02*
Y71169D01*
X24371Y50646D02*
Y51685D01*
X24075Y50350D02*
X24371Y50646D01*
X23018Y50350D02*
X24075D01*
X23018Y49350D02*
Y50350D01*
Y49350D02*
X23018Y49350D01*
X22018Y49368D02*
Y50350D01*
Y49368D02*
X22021Y49365D01*
X25641Y49558D02*
Y51685D01*
X25635Y49552D02*
X25641Y49558D01*
X24715Y49552D02*
X25635D01*
X24710Y49557D02*
X24715Y49552D01*
X24710Y48557D02*
X25630D01*
X25635Y48552D01*
X48539Y87614D02*
Y88574D01*
X48525Y87600D02*
X48539Y87614D01*
X48539Y86832D02*
Y87586D01*
X48525Y87600D02*
X48539Y87586D01*
X124236Y18297D02*
X126630D01*
X138156Y21819D02*
Y22570D01*
Y17800D02*
Y18569D01*
Y17800D02*
X138156Y17800D01*
X136547Y69142D02*
X137464Y68225D01*
X138088D01*
X138663Y67651D01*
X134751Y67346D02*
X135622Y66475D01*
X135649Y68244D02*
X136693Y67200D01*
X137679D01*
X137945Y66933D01*
X135622Y66475D02*
X135968D01*
X136693Y67200D01*
X137945Y66923D02*
Y66933D01*
X137223Y66201D02*
X137945Y66923D01*
X138652Y66201D02*
Y66226D01*
Y66201D02*
X139178Y65675D01*
X139370Y66942D02*
Y66944D01*
X133853Y66448D02*
X135610Y64691D01*
X135731D01*
X136464Y65423D01*
Y65458D01*
X136439Y63984D02*
X136466D01*
X137025Y63425D01*
X128879Y75014D02*
X129850Y74043D01*
Y73453D02*
Y74043D01*
X128572Y72175D02*
X129850Y73453D01*
X128126Y72175D02*
X128572D01*
X127083Y73218D02*
X128126Y72175D01*
X130675Y76810D02*
X131617Y75868D01*
Y74094D02*
Y75868D01*
X128773Y71250D02*
X131617Y74094D01*
X127255Y71250D02*
X128773D01*
X126185Y72320D02*
X127255Y71250D01*
X123100Y74978D02*
Y74995D01*
X123630Y75525D01*
X122300Y75754D02*
X122306D01*
X122846Y76294D01*
X125129Y78471D02*
Y78478D01*
X126125Y74176D02*
X127083Y73218D01*
X126125Y74176D02*
Y76280D01*
X125200Y73305D02*
X126185Y72320D01*
X124337Y76232D02*
X124392D01*
X123569Y77001D02*
X124337Y76232D01*
X123554Y77001D02*
X123569D01*
X124421Y77696D02*
X125139Y76978D01*
X125200Y73305D02*
Y75080D01*
X123155Y77399D02*
X123554Y77001D01*
X121415Y77399D02*
X123155D01*
X120966Y77849D02*
X121415Y77399D01*
X123702Y78450D02*
X124399Y77753D01*
X123051Y78450D02*
X123702D01*
X122309Y79192D02*
X123051Y78450D01*
X121656Y79846D02*
X122309Y79192D01*
X121656Y79846D02*
Y81133D01*
X124646Y84123D01*
X118475Y80339D02*
X120966Y77849D01*
X118475Y80339D02*
Y81175D01*
X122838Y85538D01*
X123232D01*
X31692Y65800D02*
X31692Y65800D01*
X31992Y64300D02*
Y65800D01*
Y64300D02*
X31992Y64300D01*
X30625Y66612D02*
Y68425D01*
Y66612D02*
X31437Y65800D01*
X31692D01*
X56985Y73476D02*
Y75475D01*
Y73476D02*
X57025Y73436D01*
X55715Y73496D02*
Y75475D01*
Y73496D02*
X55750Y73461D01*
X55715Y81825D02*
Y83960D01*
X55319Y84356D02*
X55715Y83960D01*
X54625Y84356D02*
X55319D01*
X56985Y81825D02*
Y83916D01*
X57425Y84356D01*
X58125D01*
X60450Y71300D02*
Y73349D01*
X60443Y73356D02*
X60450Y73349D01*
X61700Y71300D02*
Y73343D01*
X61713Y73356D01*
Y79706D02*
Y81938D01*
X62075Y82300D01*
X62850D01*
X60443Y79706D02*
Y81857D01*
X60000Y82300D02*
X60443Y81857D01*
X59350Y82300D02*
X60000D01*
X54980Y89983D02*
X55600D01*
X54475Y90489D02*
X54980Y89983D01*
X61463Y91088D02*
X67900Y97525D01*
X71122D01*
X62475Y90675D02*
X65425Y93625D01*
X77000D01*
X77892Y94517D01*
Y99545D01*
X78955Y100609D01*
X56625Y89975D02*
X57475D01*
X124762Y75518D02*
X125200Y75080D01*
X125830Y76575D02*
X126125Y76280D01*
X124392Y76232D02*
X124762Y75863D01*
Y75518D02*
Y75863D01*
X125139Y76978D02*
X125542Y76575D01*
X125830D01*
X124421Y77696D02*
Y77764D01*
D71*
X90600Y97850D02*
D03*
X123675Y66226D02*
D03*
X96835Y97850D02*
D03*
D74*
X73122Y97525D02*
D03*
X71122D02*
D03*
X62150Y97525D02*
D03*
X64150D02*
D03*
X46464Y88957D02*
D03*
D75*
X143300Y55040D02*
D03*
Y57040D02*
D03*
Y59040D02*
D03*
X144575Y29975D02*
D03*
Y23975D02*
D03*
Y25975D02*
D03*
Y27975D02*
D03*
X146101Y8883D02*
D03*
Y6883D02*
D03*
Y4883D02*
D03*
Y10883D02*
D03*
X138375Y10890D02*
D03*
Y4890D02*
D03*
Y6890D02*
D03*
Y8890D02*
D03*
X151350Y27975D02*
D03*
Y25975D02*
D03*
Y23975D02*
D03*
Y29975D02*
D03*
X50268Y22847D02*
D03*
X50268Y20847D02*
D03*
Y18847D02*
D03*
X59275D02*
D03*
Y20847D02*
D03*
Y22847D02*
D03*
X59275Y29850D02*
D03*
Y31850D02*
D03*
Y33850D02*
D03*
X59281Y44867D02*
D03*
Y42867D02*
D03*
Y40867D02*
D03*
X59280Y55874D02*
D03*
Y53874D02*
D03*
Y51874D02*
D03*
X120404Y88366D02*
D03*
X124646Y84123D02*
D03*
X123232Y85538D02*
D03*
X121818Y86952D02*
D03*
X59285Y66875D02*
D03*
Y64875D02*
D03*
Y62875D02*
D03*
X50262Y66875D02*
D03*
Y64875D02*
D03*
Y62875D02*
D03*
X50280Y40867D02*
D03*
Y42867D02*
D03*
Y44867D02*
D03*
X50275Y33875D02*
D03*
Y31875D02*
D03*
Y29875D02*
D03*
X50280Y51849D02*
D03*
Y53849D02*
D03*
Y55849D02*
D03*
D79*
X13000Y15670D02*
D03*
X9500D02*
D03*
X12275Y24825D02*
D03*
X8775D02*
D03*
X13050Y43200D02*
D03*
X9550D02*
D03*
X12225Y33975D02*
D03*
X8725D02*
D03*
D82*
X136050Y17027D02*
D03*
X136050Y24647D02*
D03*
X136050Y23377D02*
D03*
Y22107D02*
D03*
X136050Y20837D02*
D03*
Y19567D02*
D03*
X136050Y18297D02*
D03*
Y15757D02*
D03*
X126630D02*
D03*
X126630Y17027D02*
D03*
Y18297D02*
D03*
Y19567D02*
D03*
Y20837D02*
D03*
X126630Y22107D02*
D03*
Y23377D02*
D03*
X126630Y24647D02*
D03*
X126626Y35989D02*
D03*
Y34719D02*
D03*
Y33449D02*
D03*
Y32179D02*
D03*
Y30909D02*
D03*
Y29639D02*
D03*
Y28369D02*
D03*
Y27099D02*
D03*
X136046D02*
D03*
Y29639D02*
D03*
Y30909D02*
D03*
Y32179D02*
D03*
Y33449D02*
D03*
Y34719D02*
D03*
Y35989D02*
D03*
Y28369D02*
D03*
D83*
X55750Y73461D02*
D03*
X54750D02*
D03*
X118800Y48675D02*
D03*
X119800Y48675D02*
D03*
X103494Y41082D02*
D03*
X104744D02*
D03*
X106746Y39487D02*
D03*
X108014D02*
D03*
X110050Y41075D02*
D03*
X111300D02*
D03*
X90554Y41188D02*
D03*
X91800Y41188D02*
D03*
X100240Y39565D02*
D03*
X101488Y39558D02*
D03*
X59150Y87295D02*
D03*
X60175D02*
D03*
X48525Y88595D02*
D03*
X49550D02*
D03*
X81900Y81539D02*
D03*
X82925D02*
D03*
X69975Y70295D02*
D03*
X71000D02*
D03*
X60450Y71300D02*
D03*
X59450D02*
D03*
X61700D02*
D03*
X62700D02*
D03*
X57025Y73436D02*
D03*
X58025D02*
D03*
X48539Y86832D02*
D03*
X49539D02*
D03*
X62488Y87969D02*
D03*
X61463D02*
D03*
X55600Y87849D02*
D03*
X56625D02*
D03*
X26660Y49552D02*
D03*
X25635D02*
D03*
X25635Y48552D02*
D03*
X26660D02*
D03*
X38503Y31297D02*
D03*
X39528D02*
D03*
X33492Y68245D02*
D03*
X32467D02*
D03*
Y67120D02*
D03*
X33492D02*
D03*
X117877Y68114D02*
D03*
X118902D02*
D03*
X114600Y65100D02*
D03*
X115600D02*
D03*
X115600Y66075D02*
D03*
X114600D02*
D03*
X74917Y69500D02*
D03*
X75917D02*
D03*
X74917Y70500D02*
D03*
X75917D02*
D03*
X89554Y41188D02*
D03*
X92800D02*
D03*
X89544Y39588D02*
D03*
X88544D02*
D03*
X87308Y39588D02*
D03*
X86308D02*
D03*
X92760Y39562D02*
D03*
X93760D02*
D03*
X95010D02*
D03*
X96010D02*
D03*
X96034Y41188D02*
D03*
X97034D02*
D03*
X98278D02*
D03*
X99278D02*
D03*
X109050Y41075D02*
D03*
X112300D02*
D03*
X109014Y39487D02*
D03*
X105746D02*
D03*
X99240Y39565D02*
D03*
X102488Y39558D02*
D03*
X102494Y41082D02*
D03*
X105744D02*
D03*
X70450Y90300D02*
D03*
X71450Y90300D02*
D03*
X68208Y90275D02*
D03*
X69208D02*
D03*
X79525Y80345D02*
D03*
X80550D02*
D03*
X117100Y16875D02*
D03*
X118100D02*
D03*
X69625Y20225D02*
D03*
X70625D02*
D03*
X31992Y64300D02*
D03*
X32992D02*
D03*
X32992Y65800D02*
D03*
X31992D02*
D03*
X41528Y21290D02*
D03*
X40528D02*
D03*
X123236Y18297D02*
D03*
X124236D02*
D03*
X124528Y29644D02*
D03*
X123528D02*
D03*
X114875Y50870D02*
D03*
X113850D02*
D03*
X39250Y6852D02*
D03*
X38225D02*
D03*
X33146Y11311D02*
D03*
X34146D02*
D03*
X33146Y13900D02*
D03*
X34146D02*
D03*
X65675Y27458D02*
D03*
X64675D02*
D03*
X65675Y38350D02*
D03*
X64675D02*
D03*
X64605Y49466D02*
D03*
X65605D02*
D03*
X64605Y60374D02*
D03*
X65605D02*
D03*
X113825Y58775D02*
D03*
X112825D02*
D03*
X113825Y61750D02*
D03*
X112825D02*
D03*
X112825Y59775D02*
D03*
X113825D02*
D03*
X113825Y60750D02*
D03*
X112825D02*
D03*
X105439Y81770D02*
D03*
X106464D02*
D03*
X91900Y81945D02*
D03*
X92925D02*
D03*
X77125Y58700D02*
D03*
X76125D02*
D03*
Y59700D02*
D03*
X77125D02*
D03*
X77125Y60700D02*
D03*
X76125D02*
D03*
X76125Y61700D02*
D03*
X77125D02*
D03*
X49975Y80600D02*
D03*
X50975D02*
D03*
X49950Y72925D02*
D03*
X50950D02*
D03*
X46105Y36299D02*
D03*
X47105D02*
D03*
D84*
X120120Y41100D02*
D03*
Y42125D02*
D03*
X64420Y85372D02*
D03*
Y84347D02*
D03*
X77955Y72356D02*
D03*
Y71331D02*
D03*
X61463Y88957D02*
D03*
Y89957D02*
D03*
X62475D02*
D03*
Y88957D02*
D03*
X55600Y88983D02*
D03*
Y89983D02*
D03*
X56625Y89975D02*
D03*
Y88975D02*
D03*
X29470Y55135D02*
D03*
Y54110D02*
D03*
X23018Y48350D02*
D03*
Y49350D02*
D03*
X22018Y51350D02*
D03*
Y50350D02*
D03*
X23018Y51350D02*
D03*
Y50350D02*
D03*
X28595Y15575D02*
D03*
Y16600D02*
D03*
X41600Y17225D02*
D03*
Y18225D02*
D03*
X41600Y20238D02*
D03*
X41600Y19238D02*
D03*
X29071Y73192D02*
D03*
Y72192D02*
D03*
X31492Y67175D02*
D03*
Y68175D02*
D03*
X145425Y48805D02*
D03*
Y49805D02*
D03*
X145425Y38475D02*
D03*
X145425Y39475D02*
D03*
X144155Y48805D02*
D03*
Y49805D02*
D03*
X144175Y38475D02*
D03*
Y39475D02*
D03*
X142855Y48805D02*
D03*
Y49805D02*
D03*
X142875Y38475D02*
D03*
Y39475D02*
D03*
X129551Y60047D02*
D03*
Y59022D02*
D03*
X103450Y87375D02*
D03*
Y88375D02*
D03*
X97450Y88375D02*
D03*
Y87375D02*
D03*
X95450Y88375D02*
D03*
Y87375D02*
D03*
X99450Y88375D02*
D03*
Y87375D02*
D03*
X100450Y87375D02*
D03*
Y88375D02*
D03*
X94450Y88375D02*
D03*
Y87375D02*
D03*
X96450D02*
D03*
Y88375D02*
D03*
X91450Y87375D02*
D03*
Y88375D02*
D03*
X92450Y88375D02*
D03*
Y87375D02*
D03*
X101450Y87375D02*
D03*
Y88375D02*
D03*
X89450D02*
D03*
Y87375D02*
D03*
X93450D02*
D03*
Y88375D02*
D03*
X98450Y87375D02*
D03*
Y88375D02*
D03*
X102450Y88375D02*
D03*
Y87375D02*
D03*
X90450Y88375D02*
D03*
Y87375D02*
D03*
X113918Y71175D02*
D03*
Y70175D02*
D03*
Y73375D02*
D03*
Y72375D02*
D03*
X36058Y23577D02*
D03*
Y22552D02*
D03*
X32755Y8797D02*
D03*
Y7772D02*
D03*
X78141Y78525D02*
D03*
Y77500D02*
D03*
X138156Y18569D02*
D03*
Y19569D02*
D03*
X138101Y23519D02*
D03*
Y24544D02*
D03*
X138156Y21819D02*
D03*
Y20819D02*
D03*
X138086Y30869D02*
D03*
Y29869D02*
D03*
X138061Y36150D02*
D03*
Y35125D02*
D03*
X138086Y32169D02*
D03*
Y33169D02*
D03*
X124731Y24569D02*
D03*
Y23544D02*
D03*
X124656Y34819D02*
D03*
Y35844D02*
D03*
X122400Y53225D02*
D03*
X122400Y52225D02*
D03*
X38475Y8747D02*
D03*
Y9747D02*
D03*
X41275Y8747D02*
D03*
Y9747D02*
D03*
X42950Y13475D02*
D03*
Y14475D02*
D03*
X40511Y19238D02*
D03*
Y20238D02*
D03*
X46100Y24575D02*
D03*
Y25575D02*
D03*
X112220Y73050D02*
D03*
Y74075D02*
D03*
X111320Y93532D02*
D03*
Y92507D02*
D03*
X106220Y93525D02*
D03*
Y92500D02*
D03*
X107220Y93525D02*
D03*
Y92500D02*
D03*
X108209Y93557D02*
D03*
Y92532D02*
D03*
X110260Y93532D02*
D03*
Y92507D02*
D03*
X109195Y93532D02*
D03*
Y92507D02*
D03*
X110295Y85400D02*
D03*
Y84375D02*
D03*
X111299Y84350D02*
D03*
Y85375D02*
D03*
X109299Y84350D02*
D03*
Y85375D02*
D03*
X104475Y87375D02*
D03*
Y88375D02*
D03*
X108299Y84350D02*
D03*
Y85375D02*
D03*
X107305Y84363D02*
D03*
Y85388D02*
D03*
X106280Y84363D02*
D03*
Y85388D02*
D03*
X77970Y67215D02*
D03*
Y66190D02*
D03*
X64760Y72225D02*
D03*
Y71225D02*
D03*
X46105Y47524D02*
D03*
Y46524D02*
D03*
X46087Y57525D02*
D03*
Y58525D02*
D03*
X35395Y73475D02*
D03*
Y72450D02*
D03*
X23047Y54842D02*
D03*
X23047Y53842D02*
D03*
X24710Y49557D02*
D03*
Y48557D02*
D03*
D85*
X79950Y55975D02*
D03*
Y56475D02*
D03*
Y51975D02*
D03*
Y52475D02*
D03*
Y52975D02*
D03*
Y53475D02*
D03*
X79950Y53975D02*
D03*
Y54475D02*
D03*
Y54975D02*
D03*
X79950Y55475D02*
D03*
Y56975D02*
D03*
Y57475D02*
D03*
Y57975D02*
D03*
Y58475D02*
D03*
Y58975D02*
D03*
Y59475D02*
D03*
Y59975D02*
D03*
Y60475D02*
D03*
Y60975D02*
D03*
X79950Y61475D02*
D03*
X79950Y61975D02*
D03*
Y62475D02*
D03*
Y62975D02*
D03*
Y63475D02*
D03*
Y63975D02*
D03*
X79950Y64475D02*
D03*
Y64975D02*
D03*
X79950Y65475D02*
D03*
Y65975D02*
D03*
Y66475D02*
D03*
Y66975D02*
D03*
Y67475D02*
D03*
X79950Y67975D02*
D03*
X79950Y68475D02*
D03*
Y68975D02*
D03*
Y69475D02*
D03*
Y69975D02*
D03*
Y70475D02*
D03*
Y70975D02*
D03*
Y71475D02*
D03*
Y71975D02*
D03*
Y72475D02*
D03*
Y72975D02*
D03*
Y73475D02*
D03*
Y73975D02*
D03*
X79950Y74475D02*
D03*
Y74975D02*
D03*
Y75475D02*
D03*
X79950Y75975D02*
D03*
Y76475D02*
D03*
Y76975D02*
D03*
Y77475D02*
D03*
X109950D02*
D03*
Y76975D02*
D03*
Y76475D02*
D03*
Y75975D02*
D03*
X109950Y75475D02*
D03*
Y74975D02*
D03*
Y74475D02*
D03*
X109950Y73975D02*
D03*
Y73475D02*
D03*
Y72975D02*
D03*
Y72475D02*
D03*
Y71975D02*
D03*
Y71475D02*
D03*
Y70975D02*
D03*
Y70475D02*
D03*
Y69975D02*
D03*
Y69475D02*
D03*
Y68975D02*
D03*
Y68475D02*
D03*
X109950Y67975D02*
D03*
X109950Y67475D02*
D03*
Y66975D02*
D03*
Y66475D02*
D03*
Y65975D02*
D03*
Y65475D02*
D03*
X109950Y64975D02*
D03*
Y64475D02*
D03*
X109950Y63975D02*
D03*
Y63475D02*
D03*
Y62975D02*
D03*
Y62475D02*
D03*
Y61975D02*
D03*
X109950Y61475D02*
D03*
X109950Y60975D02*
D03*
Y60475D02*
D03*
Y59975D02*
D03*
Y59475D02*
D03*
Y58975D02*
D03*
Y58475D02*
D03*
Y57975D02*
D03*
Y57475D02*
D03*
Y56975D02*
D03*
Y56475D02*
D03*
Y55975D02*
D03*
Y55475D02*
D03*
X109950Y54975D02*
D03*
Y54475D02*
D03*
Y53975D02*
D03*
X109950Y53475D02*
D03*
Y52975D02*
D03*
Y52475D02*
D03*
Y51975D02*
D03*
D86*
X82200Y79725D02*
D03*
X82700D02*
D03*
X83200D02*
D03*
X83700D02*
D03*
X84200Y79725D02*
D03*
X84700D02*
D03*
X85200D02*
D03*
X85700Y79725D02*
D03*
X86200D02*
D03*
X86700D02*
D03*
X87200D02*
D03*
X87700D02*
D03*
X88200D02*
D03*
X88700D02*
D03*
X89200D02*
D03*
X89700D02*
D03*
X90200D02*
D03*
X90700D02*
D03*
X91200D02*
D03*
X91700Y79725D02*
D03*
X92200Y79725D02*
D03*
X92700D02*
D03*
X93200D02*
D03*
X93700D02*
D03*
X94200D02*
D03*
X94700Y79725D02*
D03*
X95200D02*
D03*
X95700Y79725D02*
D03*
X96200D02*
D03*
X96700D02*
D03*
X97200D02*
D03*
X97700D02*
D03*
X98200Y79725D02*
D03*
X98700Y79725D02*
D03*
X99200D02*
D03*
X99700D02*
D03*
X100200D02*
D03*
X100700D02*
D03*
X101200D02*
D03*
X101700D02*
D03*
X102200D02*
D03*
X102700D02*
D03*
X103200D02*
D03*
X103700D02*
D03*
X104200D02*
D03*
X104700Y79725D02*
D03*
X105200D02*
D03*
X105700D02*
D03*
X106200Y79725D02*
D03*
X106700D02*
D03*
X107200D02*
D03*
X107700D02*
D03*
Y49725D02*
D03*
X107200D02*
D03*
X106700D02*
D03*
X106200D02*
D03*
X105700Y49725D02*
D03*
X105200D02*
D03*
X104700D02*
D03*
X104200Y49725D02*
D03*
X103700D02*
D03*
X103200D02*
D03*
X102700D02*
D03*
X102200D02*
D03*
X101700D02*
D03*
X101200D02*
D03*
X100700D02*
D03*
X100200D02*
D03*
X99700D02*
D03*
X99200D02*
D03*
X98700D02*
D03*
X98200Y49725D02*
D03*
X97700Y49725D02*
D03*
X97200D02*
D03*
X96700D02*
D03*
X96200D02*
D03*
X95700D02*
D03*
X95200Y49725D02*
D03*
X94700D02*
D03*
X94200Y49725D02*
D03*
X93700D02*
D03*
X93200D02*
D03*
X92700D02*
D03*
X92200D02*
D03*
X91700Y49725D02*
D03*
X91200Y49725D02*
D03*
X90700D02*
D03*
X90200D02*
D03*
X89700D02*
D03*
X89200D02*
D03*
X88700D02*
D03*
X88200D02*
D03*
X87700D02*
D03*
X87200D02*
D03*
X86700D02*
D03*
X86200D02*
D03*
X85700D02*
D03*
X85200Y49725D02*
D03*
X84700D02*
D03*
X84200D02*
D03*
X83700Y49725D02*
D03*
X83200D02*
D03*
X82700D02*
D03*
X82200D02*
D03*
D87*
X87180Y34643D02*
D03*
X88450Y34643D02*
D03*
X98610Y34643D02*
D03*
X97340Y34643D02*
D03*
X96070Y34643D02*
D03*
X94800Y34643D02*
D03*
X93530D02*
D03*
X92260Y34643D02*
D03*
X90990Y34643D02*
D03*
X89720Y34643D02*
D03*
X111310Y34643D02*
D03*
X110040Y34643D02*
D03*
X108770Y34643D02*
D03*
X107500Y34643D02*
D03*
X106230Y34643D02*
D03*
X104960D02*
D03*
X103690Y34643D02*
D03*
X102420Y34643D02*
D03*
X101150D02*
D03*
X99880Y34643D02*
D03*
X98610Y19978D02*
D03*
X97340Y19978D02*
D03*
X96070Y19978D02*
D03*
X94800Y19978D02*
D03*
X93530Y19978D02*
D03*
X92260Y19978D02*
D03*
X90990Y19978D02*
D03*
X89720Y19978D02*
D03*
X88450Y19978D02*
D03*
X87180Y19978D02*
D03*
X108770Y19978D02*
D03*
X104960Y19978D02*
D03*
X103690Y19978D02*
D03*
X102420Y19978D02*
D03*
X101150Y19978D02*
D03*
X99880Y19978D02*
D03*
X107500Y19978D02*
D03*
X106230Y19978D02*
D03*
X111310Y19978D02*
D03*
X110040Y19978D02*
D03*
D88*
X67450Y68250D02*
D03*
X67450Y66650D02*
D03*
X121200Y14950D02*
D03*
Y16550D02*
D03*
X139611Y23294D02*
D03*
Y24894D02*
D03*
X139401Y34885D02*
D03*
Y36485D02*
D03*
X123511Y24844D02*
D03*
Y23244D02*
D03*
X123311Y36144D02*
D03*
Y34544D02*
D03*
D89*
X75042Y67770D02*
D03*
Y63570D02*
D03*
X69962D02*
D03*
Y67770D02*
D03*
D90*
X59350Y82300D02*
D03*
X62850D02*
D03*
X58125Y84356D02*
D03*
X54625D02*
D03*
D91*
X77850Y88900D02*
D03*
X79450D02*
D03*
X79475Y103075D02*
D03*
X81075D02*
D03*
X126150Y63675D02*
D03*
X127750Y63675D02*
D03*
X132375Y38450D02*
D03*
X133975D02*
D03*
X116775Y44305D02*
D03*
X118375D02*
D03*
X113575Y49475D02*
D03*
X115175D02*
D03*
D92*
X60443Y73356D02*
D03*
X61713D02*
D03*
X60443Y79706D02*
D03*
X61713D02*
D03*
X56985Y81825D02*
D03*
X55715D02*
D03*
X56985Y75475D02*
D03*
X55715D02*
D03*
D93*
X82075Y88850D02*
D03*
X85975D02*
D03*
D94*
X34200Y8747D02*
D03*
Y7797D02*
D03*
Y6847D02*
D03*
X36850D02*
D03*
Y8747D02*
D03*
D95*
X22021Y49347D02*
D03*
Y48347D02*
D03*
X103450Y89625D02*
D03*
Y90625D02*
D03*
X97450Y90625D02*
D03*
Y89625D02*
D03*
X95450Y90625D02*
D03*
Y89625D02*
D03*
X99450Y89625D02*
D03*
Y90625D02*
D03*
X100450Y89625D02*
D03*
Y90625D02*
D03*
X94450Y90625D02*
D03*
Y89625D02*
D03*
X101450Y89626D02*
D03*
Y90626D02*
D03*
X91450Y89626D02*
D03*
Y90626D02*
D03*
X89450Y89625D02*
D03*
Y90625D02*
D03*
X96425Y90625D02*
D03*
Y89625D02*
D03*
X92450Y90625D02*
D03*
Y89625D02*
D03*
X98450Y89626D02*
D03*
Y90626D02*
D03*
X93450Y90625D02*
D03*
Y89625D02*
D03*
X102450Y89626D02*
D03*
Y90626D02*
D03*
X90450Y89624D02*
D03*
Y90624D02*
D03*
X40511Y18238D02*
D03*
X40511Y17238D02*
D03*
D96*
X36225Y32150D02*
D03*
X36225Y34150D02*
D03*
X33821Y34153D02*
D03*
Y32153D02*
D03*
D97*
X34907Y82944D02*
D03*
Y78444D02*
D03*
X17725Y39572D02*
D03*
Y35072D02*
D03*
X30500Y82925D02*
D03*
X30500Y78425D02*
D03*
D98*
X39900Y61050D02*
D03*
X39900Y68050D02*
D03*
X32175Y28350D02*
D03*
Y21350D02*
D03*
D99*
X144162Y42181D02*
D03*
X142892D02*
D03*
X145432D02*
D03*
X146702D02*
D03*
X141622D02*
D03*
X146702Y46181D02*
D03*
X141622Y46181D02*
D03*
X142892Y46181D02*
D03*
X145432D02*
D03*
X144162Y46181D02*
D03*
D100*
X114805Y56035D02*
D03*
Y54765D02*
D03*
Y52225D02*
D03*
X120265Y56035D02*
D03*
Y54765D02*
D03*
Y53495D02*
D03*
Y52225D02*
D03*
X114805Y53495D02*
D03*
D101*
X131835Y52230D02*
D03*
X131335D02*
D03*
X130835D02*
D03*
X130335Y52230D02*
D03*
X129835D02*
D03*
X129335D02*
D03*
X128835D02*
D03*
X128335D02*
D03*
X127835Y52230D02*
D03*
X127335D02*
D03*
X126835D02*
D03*
X126335Y52230D02*
D03*
X125835D02*
D03*
X125335D02*
D03*
X124835D02*
D03*
X124335Y52230D02*
D03*
X124335Y40630D02*
D03*
X124835D02*
D03*
X125335D02*
D03*
X125835D02*
D03*
X126335Y40630D02*
D03*
X126835Y40630D02*
D03*
X127335D02*
D03*
X127835D02*
D03*
X128335Y40630D02*
D03*
X128835D02*
D03*
X129335D02*
D03*
X129835Y40630D02*
D03*
X130335D02*
D03*
X130835D02*
D03*
X131335D02*
D03*
X131835D02*
D03*
D102*
X122285Y50180D02*
D03*
Y49680D02*
D03*
Y49180D02*
D03*
Y48680D02*
D03*
Y48180D02*
D03*
X122285Y47680D02*
D03*
Y47180D02*
D03*
X122285Y46680D02*
D03*
X122285Y46180D02*
D03*
Y45680D02*
D03*
Y45180D02*
D03*
Y44680D02*
D03*
Y44180D02*
D03*
Y43680D02*
D03*
Y43180D02*
D03*
Y42680D02*
D03*
X133885D02*
D03*
Y43180D02*
D03*
Y43680D02*
D03*
Y44180D02*
D03*
Y44680D02*
D03*
Y45180D02*
D03*
Y45680D02*
D03*
Y46180D02*
D03*
X133885Y46680D02*
D03*
Y47180D02*
D03*
Y47680D02*
D03*
Y48180D02*
D03*
Y48680D02*
D03*
Y49180D02*
D03*
Y49680D02*
D03*
Y50180D02*
D03*
D103*
X117675Y41750D02*
D03*
Y38750D02*
D03*
D104*
X117737Y69844D02*
D03*
X119007Y75304D02*
D03*
X117737D02*
D03*
X116467D02*
D03*
X115197D02*
D03*
X119007Y69844D02*
D03*
X116467D02*
D03*
X115197D02*
D03*
D105*
X115800Y67625D02*
D03*
X114400D02*
D03*
D106*
X34169Y70117D02*
D03*
X32899Y70117D02*
D03*
X31629Y70117D02*
D03*
X30359D02*
D03*
Y75717D02*
D03*
X31629Y75717D02*
D03*
X32899Y75717D02*
D03*
X34169Y75717D02*
D03*
X28181Y57285D02*
D03*
X26911D02*
D03*
X25641Y57285D02*
D03*
X24371Y57285D02*
D03*
Y51685D02*
D03*
X25641Y51685D02*
D03*
X26911D02*
D03*
X28181Y51685D02*
D03*
X37240Y28775D02*
D03*
X38510Y28775D02*
D03*
X39780Y28775D02*
D03*
X41050Y28775D02*
D03*
Y23175D02*
D03*
X39780D02*
D03*
X38510Y23175D02*
D03*
X37240Y23175D02*
D03*
D107*
X32264Y72917D02*
D03*
X26276Y54485D02*
D03*
X39145Y25975D02*
D03*
D108*
X37725Y17225D02*
D03*
X31325D02*
D03*
X45725Y84513D02*
D03*
X39325Y84513D02*
D03*
D109*
X37275Y50333D02*
D03*
X30275D02*
D03*
D110*
X17000Y50075D02*
D03*
X12400D02*
D03*
X13450Y54700D02*
D03*
X18050Y54700D02*
D03*
D111*
X18275Y59275D02*
D03*
X20075D02*
D03*
Y64175D02*
D03*
X18275D02*
D03*
D112*
X37510Y38197D02*
D03*
Y44997D02*
D03*
D113*
X42822Y89125D02*
D03*
X38322Y89125D02*
D03*
X29125Y66421D02*
D03*
X24625D02*
D03*
X31500Y61025D02*
D03*
X36000D02*
D03*
X24650Y61771D02*
D03*
X29150D02*
D03*
X35997Y56750D02*
D03*
X31497Y56750D02*
D03*
D114*
X130164Y82336D02*
D03*
X128042Y80214D02*
D03*
X135495Y61545D02*
D03*
X133374Y59424D02*
D03*
D115*
X130993Y79951D02*
D03*
X130268Y79226D02*
D03*
X122846Y76294D02*
D03*
X123554Y77001D02*
D03*
X124399Y77753D02*
D03*
X125106Y78460D02*
D03*
X125139Y76978D02*
D03*
X125846Y77685D02*
D03*
X123630Y75525D02*
D03*
X124337Y76232D02*
D03*
X123111Y71932D02*
D03*
X123835Y72657D02*
D03*
X122985Y73457D02*
D03*
X122261Y72732D02*
D03*
X140348Y68799D02*
D03*
X139623Y68074D02*
D03*
X138899Y68799D02*
D03*
X139623Y69523D02*
D03*
X133389Y63118D02*
D03*
X132665Y62393D02*
D03*
D116*
X138663Y67651D02*
D03*
X139370Y66944D02*
D03*
X138652Y66226D02*
D03*
X137945Y66933D02*
D03*
X137223Y66201D02*
D03*
X137931Y65494D02*
D03*
X137171Y64751D02*
D03*
X136464Y65458D02*
D03*
X136439Y63984D02*
D03*
X135731Y64691D02*
D03*
D117*
X142164Y30535D02*
D03*
Y32435D02*
D03*
X139964Y31485D02*
D03*
X140114Y20206D02*
D03*
X142314Y21156D02*
D03*
Y19256D02*
D03*
D118*
X37850Y3175D02*
D03*
X148025Y17450D02*
D03*
X54300Y97975D02*
D03*
X110295Y49075D02*
D03*
X73750Y78225D02*
D03*
X155006Y20300D02*
D03*
X151697Y5900D02*
D03*
X154712Y4700D02*
D03*
X152407D02*
D03*
X151255D02*
D03*
X155155Y5900D02*
D03*
X154002D02*
D03*
X152850D02*
D03*
X153560Y4700D02*
D03*
X154094Y14300D02*
D03*
X154336Y15500D02*
D03*
X155246Y14300D02*
D03*
X156399D02*
D03*
X155731Y16700D02*
D03*
X155489Y15500D02*
D03*
X156641D02*
D03*
X157794D02*
D03*
X157026Y17900D02*
D03*
X156884Y16700D02*
D03*
X158036D02*
D03*
X158179Y17900D02*
D03*
X158464Y20300D02*
D03*
X158321Y19100D02*
D03*
X122539Y93844D02*
D03*
X120995Y93569D02*
D03*
X124525Y92484D02*
D03*
X122981Y92209D02*
D03*
X114673Y97219D02*
D03*
X113563Y97696D02*
D03*
X112502Y98259D02*
D03*
X112544Y100732D02*
D03*
X113078Y99257D02*
D03*
X111968Y99734D02*
D03*
X111434Y101208D02*
D03*
X109747Y100687D02*
D03*
X110858Y100210D02*
D03*
X108637Y101164D02*
D03*
X107526Y101640D02*
D03*
X106992Y103115D02*
D03*
X106416Y102117D02*
D03*
X104671Y103895D02*
D03*
X105832Y103505D02*
D03*
X105255Y102507D02*
D03*
X108679Y103636D02*
D03*
X109789Y103160D02*
D03*
X115249Y98217D02*
D03*
X114139Y98694D02*
D03*
X114715Y99692D02*
D03*
X115291Y100690D02*
D03*
X114231Y101253D02*
D03*
X111392Y98735D02*
D03*
X110281Y99212D02*
D03*
X109171Y99689D02*
D03*
X109213Y102162D02*
D03*
X108102Y102638D02*
D03*
X104087Y105283D02*
D03*
X105247Y104893D02*
D03*
X102877Y105587D02*
D03*
X101666Y105890D02*
D03*
X101724Y103591D02*
D03*
X102300Y104589D02*
D03*
X99879Y105196D02*
D03*
X101090Y104892D02*
D03*
X98669Y105499D02*
D03*
X97409Y105716D02*
D03*
X97516Y103503D02*
D03*
X98093Y104501D02*
D03*
X96832Y104718D02*
D03*
X96256Y103720D02*
D03*
X94361Y105238D02*
D03*
X95622Y105021D02*
D03*
X95046Y104023D02*
D03*
X106408Y104503D02*
D03*
X107568Y104113D02*
D03*
X153558Y1000D02*
D03*
X152405D02*
D03*
X153900Y2200D02*
D03*
X82409Y108737D02*
D03*
X117412Y99563D02*
D03*
X116402Y100213D02*
D03*
X115826Y99215D02*
D03*
X113655Y100255D02*
D03*
X113120Y101730D02*
D03*
X112010Y102206D02*
D03*
X110900Y102683D02*
D03*
X110323Y101685D02*
D03*
X105840Y101119D02*
D03*
X104095Y102897D02*
D03*
X103511Y104285D02*
D03*
X99937Y102896D02*
D03*
X100456Y106194D02*
D03*
X98727Y103199D02*
D03*
X99245Y106497D02*
D03*
X97985Y106714D02*
D03*
X96198Y106019D02*
D03*
X96774Y107018D02*
D03*
X93785Y104240D02*
D03*
X94938Y106236D02*
D03*
X95514Y107234D02*
D03*
X94304Y107538D02*
D03*
X93727Y106540D02*
D03*
X93151Y105542D02*
D03*
X92575Y104544D02*
D03*
X92943Y107781D02*
D03*
X92367Y106783D02*
D03*
X91790Y105785D02*
D03*
X91214Y104787D02*
D03*
X90004Y105090D02*
D03*
X90580Y106088D02*
D03*
X91156Y107086D02*
D03*
X91732Y108084D02*
D03*
X90422Y108215D02*
D03*
X89846Y107217D02*
D03*
X89269Y106218D02*
D03*
X88693Y105220D02*
D03*
X89111Y108345D02*
D03*
X88535Y107347D02*
D03*
X87959Y106349D02*
D03*
X87383Y105351D02*
D03*
X87801Y108475D02*
D03*
X87225Y107477D02*
D03*
X86649Y106479D02*
D03*
X86072Y105481D02*
D03*
X86491Y108606D02*
D03*
X85914Y107607D02*
D03*
X85338Y106609D02*
D03*
X84762Y105611D02*
D03*
X85130Y108649D02*
D03*
X84554Y107651D02*
D03*
X83978Y106653D02*
D03*
X83401Y105655D02*
D03*
X82041Y105699D02*
D03*
X82617Y106697D02*
D03*
X83194Y107695D02*
D03*
X83770Y108693D02*
D03*
X76330D02*
D03*
X76907Y107695D02*
D03*
X77483Y106697D02*
D03*
X78059Y105699D02*
D03*
X76699Y105655D02*
D03*
X76122Y106653D02*
D03*
X75338Y105611D02*
D03*
X74762Y106609D02*
D03*
X74186Y107607D02*
D03*
X74028Y105481D02*
D03*
X73452Y106479D02*
D03*
X72875Y107477D02*
D03*
X72717Y105351D02*
D03*
X72141Y106349D02*
D03*
X71565Y107347D02*
D03*
X71407Y105220D02*
D03*
X70831Y106218D02*
D03*
X70254Y107217D02*
D03*
X69520Y106088D02*
D03*
X70096Y105090D02*
D03*
X68886Y104787D02*
D03*
X68310Y105785D02*
D03*
X67525Y104544D02*
D03*
X66949Y105542D02*
D03*
X66315Y104240D02*
D03*
X63326Y107018D02*
D03*
X62115Y106714D02*
D03*
X62691Y105716D02*
D03*
X60855Y106497D02*
D03*
X61431Y105499D02*
D03*
X60797Y104198D02*
D03*
X60221Y105196D02*
D03*
X59644Y106194D02*
D03*
X60163Y102896D02*
D03*
X59586Y103894D02*
D03*
X59010Y104892D02*
D03*
X58434Y105890D02*
D03*
X58952Y102592D02*
D03*
X58376Y103591D02*
D03*
X57800Y104589D02*
D03*
X57223Y105587D02*
D03*
X56013Y105283D02*
D03*
X56589Y104285D02*
D03*
X54853Y104893D02*
D03*
X55429Y103895D02*
D03*
X53692Y104503D02*
D03*
X54268Y103505D02*
D03*
X52532Y104113D02*
D03*
X53108Y103115D02*
D03*
X54261Y101119D02*
D03*
X51421Y103636D02*
D03*
X51463Y101164D02*
D03*
X50887Y102162D02*
D03*
X50311Y103160D02*
D03*
X50929Y99689D02*
D03*
X50353Y100687D02*
D03*
X49777Y101685D02*
D03*
X49200Y102683D02*
D03*
X49819Y99212D02*
D03*
X49243Y100210D02*
D03*
X48666Y101208D02*
D03*
X48090Y102206D02*
D03*
X46980Y101730D02*
D03*
X47556Y100732D02*
D03*
X48132Y99734D02*
D03*
X48708Y98735D02*
D03*
X47598Y98259D02*
D03*
X47022Y99257D02*
D03*
X46445Y100255D02*
D03*
X45869Y101253D02*
D03*
X46537Y97696D02*
D03*
X45961Y98694D02*
D03*
X45385Y99692D02*
D03*
X44809Y100690D02*
D03*
X45427Y97219D02*
D03*
X44851Y98217D02*
D03*
X44275Y99215D02*
D03*
X43698Y100213D02*
D03*
X42688Y99563D02*
D03*
X44417Y96569D02*
D03*
X52040Y100165D02*
D03*
X77691Y108737D02*
D03*
X149461Y67300D02*
D03*
X146383Y72543D02*
D03*
X145807Y71545D02*
D03*
X145231Y70547D02*
D03*
X144655Y69548D02*
D03*
X143937Y70705D02*
D03*
X144513Y71703D02*
D03*
X145089Y72701D02*
D03*
X145665Y73699D02*
D03*
X143219Y71861D02*
D03*
X143795Y72859D02*
D03*
X144371Y73857D02*
D03*
X144947Y74855D02*
D03*
X142451Y72931D02*
D03*
X143027Y73929D02*
D03*
X143603Y74927D02*
D03*
X144179Y75925D02*
D03*
X141683Y74001D02*
D03*
X142259Y74999D02*
D03*
X142835Y75997D02*
D03*
X143411Y76995D02*
D03*
X140914Y75070D02*
D03*
X141491Y76068D02*
D03*
X142067Y77067D02*
D03*
X142643Y78065D02*
D03*
X141875Y79134D02*
D03*
X141299Y78136D02*
D03*
X140723Y77138D02*
D03*
X140146Y76140D02*
D03*
X139278Y77037D02*
D03*
X139855Y78035D02*
D03*
X140431Y79033D02*
D03*
X141007Y80031D02*
D03*
X138388Y78094D02*
D03*
X138964Y79092D02*
D03*
X139540Y80090D02*
D03*
X140116Y81088D02*
D03*
X139248Y81984D02*
D03*
X138672Y80986D02*
D03*
X138096Y79988D02*
D03*
X137520Y78990D02*
D03*
X138430Y82968D02*
D03*
X137854Y81969D02*
D03*
X137278Y80971D02*
D03*
X136701Y79973D02*
D03*
X137562Y83864D02*
D03*
X136986Y82866D02*
D03*
X136410Y81868D02*
D03*
X135833Y80870D02*
D03*
X136744Y84847D02*
D03*
X136168Y83849D02*
D03*
X135592Y82851D02*
D03*
X135015Y81853D02*
D03*
X134147Y82749D02*
D03*
X134724Y83748D02*
D03*
X135300Y84746D02*
D03*
X135876Y85744D02*
D03*
X133279Y83646D02*
D03*
X133856Y84644D02*
D03*
X134432Y85642D02*
D03*
X135008Y86640D02*
D03*
X132411Y84542D02*
D03*
X132988Y85541D02*
D03*
X133564Y86539D02*
D03*
X134140Y87537D02*
D03*
X133272Y88433D02*
D03*
X132696Y87435D02*
D03*
X132120Y86437D02*
D03*
X131543Y85439D02*
D03*
X132354Y89243D02*
D03*
X131778Y88245D02*
D03*
X131202Y87247D02*
D03*
X130625Y86249D02*
D03*
X131436Y90053D02*
D03*
X130860Y89055D02*
D03*
X130284Y88057D02*
D03*
X129707Y87059D02*
D03*
X130518Y90863D02*
D03*
X129942Y89865D02*
D03*
X129365Y88867D02*
D03*
X128789Y87869D02*
D03*
X127821Y88592D02*
D03*
X128397Y89590D02*
D03*
X128974Y90588D02*
D03*
X129550Y91586D02*
D03*
X127429Y90314D02*
D03*
X128006Y91312D02*
D03*
X128582Y92310D02*
D03*
X125885Y90039D02*
D03*
X126461Y91037D02*
D03*
X127038Y92035D02*
D03*
X127614Y93033D02*
D03*
X124917Y90762D02*
D03*
X125493Y91760D02*
D03*
X126070Y92758D02*
D03*
X126646Y93756D02*
D03*
X125678Y94480D02*
D03*
X125102Y93482D02*
D03*
X123949Y91485D02*
D03*
X123557Y93207D02*
D03*
X124134Y94205D02*
D03*
X124710Y95203D02*
D03*
X121963Y92845D02*
D03*
X123116Y94842D02*
D03*
X123692Y95840D02*
D03*
X121571Y94567D02*
D03*
X122148Y95565D02*
D03*
X122724Y96563D02*
D03*
X121656Y97113D02*
D03*
X119927Y94119D02*
D03*
X126853Y89315D02*
D03*
X147101Y71386D02*
D03*
X12999D02*
D03*
X10639Y67300D02*
D03*
X33247Y89315D02*
D03*
X40173Y94119D02*
D03*
X38444Y97113D02*
D03*
X37376Y96563D02*
D03*
X37952Y95565D02*
D03*
X38529Y94567D02*
D03*
X39105Y93569D02*
D03*
X36408Y95840D02*
D03*
X36984Y94842D02*
D03*
X37561Y93844D02*
D03*
X38137Y92845D02*
D03*
X35390Y95203D02*
D03*
X35966Y94205D02*
D03*
X36543Y93207D02*
D03*
X37119Y92209D02*
D03*
X36151Y91485D02*
D03*
X35575Y92484D02*
D03*
X34998Y93482D02*
D03*
X34422Y94480D02*
D03*
X33454Y93756D02*
D03*
X34030Y92758D02*
D03*
X34607Y91760D02*
D03*
X35183Y90762D02*
D03*
X32486Y93033D02*
D03*
X33062Y92035D02*
D03*
X33639Y91037D02*
D03*
X34215Y90039D02*
D03*
X31518Y92310D02*
D03*
X32094Y91312D02*
D03*
X32671Y90314D02*
D03*
X30550Y91586D02*
D03*
X31126Y90588D02*
D03*
X31703Y89590D02*
D03*
X32279Y88592D02*
D03*
X31311Y87869D02*
D03*
X30735Y88867D02*
D03*
X30158Y89865D02*
D03*
X29582Y90863D02*
D03*
X30393Y87059D02*
D03*
X29816Y88057D02*
D03*
X29240Y89055D02*
D03*
X28664Y90053D02*
D03*
X29475Y86249D02*
D03*
X28898Y87247D02*
D03*
X28322Y88245D02*
D03*
X27746Y89243D02*
D03*
X28557Y85439D02*
D03*
X27980Y86437D02*
D03*
X27404Y87435D02*
D03*
X26828Y88433D02*
D03*
X25960Y87537D02*
D03*
X26536Y86539D02*
D03*
X27112Y85541D02*
D03*
X27689Y84542D02*
D03*
X25092Y86640D02*
D03*
X25668Y85642D02*
D03*
X26244Y84644D02*
D03*
X26821Y83646D02*
D03*
X24224Y85744D02*
D03*
X24800Y84746D02*
D03*
X25376Y83748D02*
D03*
X25953Y82749D02*
D03*
X25085Y81853D02*
D03*
X24508Y82851D02*
D03*
X23932Y83849D02*
D03*
X23356Y84847D02*
D03*
X24267Y80870D02*
D03*
X23690Y81868D02*
D03*
X23114Y82866D02*
D03*
X22538Y83864D02*
D03*
X23399Y79973D02*
D03*
X22822Y80971D02*
D03*
X22246Y81969D02*
D03*
X21670Y82968D02*
D03*
X22580Y78990D02*
D03*
X22004Y79988D02*
D03*
X21428Y80986D02*
D03*
X20852Y81984D02*
D03*
X19984Y81088D02*
D03*
X20560Y80090D02*
D03*
X21136Y79092D02*
D03*
X21712Y78094D02*
D03*
X19093Y80031D02*
D03*
X19669Y79033D02*
D03*
X20245Y78035D02*
D03*
X20822Y77037D02*
D03*
X19954Y76140D02*
D03*
X19377Y77138D02*
D03*
X18801Y78136D02*
D03*
X18225Y79134D02*
D03*
X17457Y78065D02*
D03*
X18033Y77067D02*
D03*
X18609Y76068D02*
D03*
X19186Y75070D02*
D03*
X17265Y75997D02*
D03*
X17841Y74999D02*
D03*
X18417Y74001D02*
D03*
X16305Y72859D02*
D03*
X14435Y73699D02*
D03*
X15011Y72701D02*
D03*
X15587Y71703D02*
D03*
X16163Y70705D02*
D03*
X15445Y69548D02*
D03*
X14869Y70547D02*
D03*
X14293Y71545D02*
D03*
X13717Y72543D02*
D03*
X155560Y32400D02*
D03*
X159018Y32400D02*
D03*
X159076Y33600D02*
D03*
X157923Y33600D02*
D03*
X156771Y33600D02*
D03*
X158933Y34800D02*
D03*
X157781Y34800D02*
D03*
X156628D02*
D03*
X155476Y34800D02*
D03*
X158891Y36000D02*
D03*
X157738Y36000D02*
D03*
X156586Y36000D02*
D03*
X155433D02*
D03*
X155291Y37200D02*
D03*
X156443Y37200D02*
D03*
X157596Y37200D02*
D03*
X158748Y37200D02*
D03*
X158606Y38400D02*
D03*
X157453Y38400D02*
D03*
X156301Y38400D02*
D03*
X155148Y38400D02*
D03*
X158464Y39600D02*
D03*
X157311D02*
D03*
X156158D02*
D03*
X155006Y39600D02*
D03*
X158321Y40800D02*
D03*
X157169Y40800D02*
D03*
X156016Y40800D02*
D03*
X154864Y40800D02*
D03*
X158179Y42000D02*
D03*
X157026Y42000D02*
D03*
X155874D02*
D03*
X154721D02*
D03*
X154579Y43200D02*
D03*
X155731Y43200D02*
D03*
X156884Y43200D02*
D03*
X158036Y43200D02*
D03*
X154336Y44400D02*
D03*
X155489Y44400D02*
D03*
X156641Y44400D02*
D03*
X157794Y44400D02*
D03*
X154094Y45600D02*
D03*
X155246D02*
D03*
X156399Y45600D02*
D03*
X157552Y45600D02*
D03*
X153852Y46800D02*
D03*
X155004Y46800D02*
D03*
X156157Y46800D02*
D03*
X157309Y46800D02*
D03*
X156967Y48000D02*
D03*
X155814Y48000D02*
D03*
X154662D02*
D03*
X153509Y48000D02*
D03*
X156624Y49200D02*
D03*
X155472Y49200D02*
D03*
X154319Y49200D02*
D03*
X153167Y49200D02*
D03*
X156282Y50400D02*
D03*
X155129Y50400D02*
D03*
X153977Y50400D02*
D03*
X152824Y50400D02*
D03*
X152482Y51600D02*
D03*
X153634Y51600D02*
D03*
X154787Y51600D02*
D03*
X155940Y51600D02*
D03*
X152040Y52800D02*
D03*
X153192Y52800D02*
D03*
X154345Y52800D02*
D03*
X155497D02*
D03*
X151697Y54000D02*
D03*
X152850Y54000D02*
D03*
X154002Y54000D02*
D03*
X155155Y54000D02*
D03*
X151255Y55200D02*
D03*
X152407Y55200D02*
D03*
X153560Y55200D02*
D03*
X154712Y55200D02*
D03*
X154370Y56400D02*
D03*
X153217Y56400D02*
D03*
X152065Y56400D02*
D03*
X150912Y56400D02*
D03*
X153900Y57700D02*
D03*
X152747Y57700D02*
D03*
X151595Y57700D02*
D03*
X150442Y57700D02*
D03*
X150100Y58900D02*
D03*
X151253Y58900D02*
D03*
X152405Y58900D02*
D03*
X153558Y58900D02*
D03*
X153015Y60100D02*
D03*
X151863Y60100D02*
D03*
X150710Y60100D02*
D03*
X149558Y60100D02*
D03*
X152473Y61300D02*
D03*
X151320Y61300D02*
D03*
X150168Y61300D02*
D03*
X149015Y61300D02*
D03*
X151930Y62500D02*
D03*
X150778Y62500D02*
D03*
X149625Y62500D02*
D03*
X148473Y62500D02*
D03*
X151388Y63700D02*
D03*
X150235Y63700D02*
D03*
X149083Y63700D02*
D03*
X147930Y63700D02*
D03*
X150746Y64900D02*
D03*
X149593Y64900D02*
D03*
X148441Y64900D02*
D03*
X147288Y64900D02*
D03*
X146646Y66100D02*
D03*
X147798Y66100D02*
D03*
X148951Y66100D02*
D03*
X150103Y66100D02*
D03*
X9997D02*
D03*
X11149Y66100D02*
D03*
X12302Y66100D02*
D03*
X13454Y66100D02*
D03*
X12812Y64900D02*
D03*
X11659Y64900D02*
D03*
X10507Y64900D02*
D03*
X9354Y64900D02*
D03*
X12170Y63700D02*
D03*
X11017Y63700D02*
D03*
X9865Y63700D02*
D03*
X8712Y63700D02*
D03*
X11627Y62500D02*
D03*
X10475Y62500D02*
D03*
X9322Y62500D02*
D03*
X8170Y62500D02*
D03*
X11085Y61300D02*
D03*
X9932Y61300D02*
D03*
X8780Y61300D02*
D03*
X7627Y61300D02*
D03*
X10542Y60100D02*
D03*
X9390Y60100D02*
D03*
X8237Y60100D02*
D03*
X7085Y60100D02*
D03*
X6542Y58900D02*
D03*
X7695Y58900D02*
D03*
X8847Y58900D02*
D03*
X10000Y58900D02*
D03*
X9658Y57700D02*
D03*
X8505Y57700D02*
D03*
X7353Y57700D02*
D03*
X6200Y57700D02*
D03*
X9188Y56400D02*
D03*
X8035Y56400D02*
D03*
X6883Y56400D02*
D03*
X5730Y56400D02*
D03*
X5388Y55200D02*
D03*
X6540Y55200D02*
D03*
X7693Y55200D02*
D03*
X8845Y55200D02*
D03*
X4945Y54000D02*
D03*
X6098Y54000D02*
D03*
X7250Y54000D02*
D03*
X8403Y54000D02*
D03*
X4603Y52800D02*
D03*
X5755D02*
D03*
X6908Y52800D02*
D03*
X8060Y52800D02*
D03*
X4160Y51600D02*
D03*
X5313Y51600D02*
D03*
X6466Y51600D02*
D03*
X7618Y51600D02*
D03*
X7276Y50400D02*
D03*
X6123Y50400D02*
D03*
X4971Y50400D02*
D03*
X3818Y50400D02*
D03*
X6933Y49200D02*
D03*
X5781Y49200D02*
D03*
X4628Y49200D02*
D03*
X3476Y49200D02*
D03*
X6591Y48000D02*
D03*
X5438Y48000D02*
D03*
X4286D02*
D03*
X3133Y48000D02*
D03*
X2791Y46800D02*
D03*
X3943Y46800D02*
D03*
X5096Y46800D02*
D03*
X6248Y46800D02*
D03*
X2548Y45600D02*
D03*
X3701Y45600D02*
D03*
X4854Y45600D02*
D03*
X6006D02*
D03*
X2306Y44400D02*
D03*
X3459Y44400D02*
D03*
X4611Y44400D02*
D03*
X5764Y44400D02*
D03*
X2064Y43200D02*
D03*
X3216Y43200D02*
D03*
X4369Y43200D02*
D03*
X5521Y43200D02*
D03*
X5379Y42000D02*
D03*
X4226D02*
D03*
X3074D02*
D03*
X1921Y42000D02*
D03*
X5236Y40800D02*
D03*
X4084Y40800D02*
D03*
X2931Y40800D02*
D03*
X1779Y40800D02*
D03*
X5094Y39600D02*
D03*
X3941Y39600D02*
D03*
X2789D02*
D03*
X1636D02*
D03*
X4952Y38400D02*
D03*
X3799Y38400D02*
D03*
X2647Y38400D02*
D03*
X1494Y38400D02*
D03*
X1352Y37200D02*
D03*
X2504Y37200D02*
D03*
X3657Y37200D02*
D03*
X4809Y37200D02*
D03*
X4667Y36000D02*
D03*
X3514D02*
D03*
X2362Y36000D02*
D03*
X1209Y36000D02*
D03*
X4624Y34800D02*
D03*
X3472Y34800D02*
D03*
X2319D02*
D03*
X1167Y34800D02*
D03*
X4482Y33600D02*
D03*
X3329Y33600D02*
D03*
X2177Y33600D02*
D03*
X1024Y33600D02*
D03*
X1082Y32400D02*
D03*
X4540Y32400D02*
D03*
X152747Y2200D02*
D03*
X150912Y3500D02*
D03*
X152065D02*
D03*
X153217D02*
D03*
X154370D02*
D03*
X155497Y7100D02*
D03*
X154345D02*
D03*
X153192D02*
D03*
X152040D02*
D03*
X155940Y8300D02*
D03*
X154787D02*
D03*
X153634D02*
D03*
X152482D02*
D03*
X152824Y9500D02*
D03*
X153977D02*
D03*
X155129D02*
D03*
X156282D02*
D03*
X153167Y10700D02*
D03*
X154319D02*
D03*
X155472D02*
D03*
X156624D02*
D03*
X153509Y11900D02*
D03*
X154662D02*
D03*
X155814D02*
D03*
X156967D02*
D03*
X157309Y13100D02*
D03*
X156157D02*
D03*
X155004D02*
D03*
X153852D02*
D03*
X157552Y14300D02*
D03*
X154579Y16700D02*
D03*
X154721Y17900D02*
D03*
X155874D02*
D03*
X154864Y19100D02*
D03*
X156016D02*
D03*
X157169D02*
D03*
X156158Y20300D02*
D03*
X157311D02*
D03*
X155148Y21500D02*
D03*
X156301D02*
D03*
X157453D02*
D03*
X158606D02*
D03*
X158748Y22700D02*
D03*
X157596D02*
D03*
X156443D02*
D03*
X155291D02*
D03*
X155433Y23900D02*
D03*
X156586D02*
D03*
X157738D02*
D03*
X158891D02*
D03*
X155476Y25100D02*
D03*
X156628D02*
D03*
X157781D02*
D03*
X158933D02*
D03*
X155618Y26300D02*
D03*
X156771D02*
D03*
X157923D02*
D03*
X159076D02*
D03*
X159018Y27500D02*
D03*
X155560D02*
D03*
X4540D02*
D03*
X1082D02*
D03*
X1024Y26300D02*
D03*
X2177D02*
D03*
X3329D02*
D03*
X4482D02*
D03*
X1167Y25100D02*
D03*
X2319D02*
D03*
X3472D02*
D03*
X4624D02*
D03*
X1209Y23900D02*
D03*
X2362D02*
D03*
X3514D02*
D03*
X4667D02*
D03*
X4809Y22700D02*
D03*
X3657D02*
D03*
X2504D02*
D03*
X1352D02*
D03*
X1494Y21500D02*
D03*
X2647D02*
D03*
X3799D02*
D03*
X4952D02*
D03*
X1636Y20300D02*
D03*
X2789D02*
D03*
X3941D02*
D03*
X5094D02*
D03*
X1779Y19100D02*
D03*
X2931D02*
D03*
X4084D02*
D03*
X5236D02*
D03*
X1921Y17900D02*
D03*
X3074D02*
D03*
X4226D02*
D03*
X5379D02*
D03*
X5521Y16700D02*
D03*
X4369D02*
D03*
X3216D02*
D03*
X2064D02*
D03*
X5764Y15500D02*
D03*
X4611D02*
D03*
X3459D02*
D03*
X2306D02*
D03*
X6006Y14300D02*
D03*
X4854D02*
D03*
X3701D02*
D03*
X2548D02*
D03*
X6248Y13100D02*
D03*
X5096D02*
D03*
X3943D02*
D03*
X2791D02*
D03*
X3133Y11900D02*
D03*
X4286D02*
D03*
X5438D02*
D03*
X6591D02*
D03*
X3476Y10700D02*
D03*
X4628D02*
D03*
X5781D02*
D03*
X6933D02*
D03*
X3818Y9500D02*
D03*
X4971D02*
D03*
X6123D02*
D03*
X7276D02*
D03*
X7618Y8300D02*
D03*
X6466D02*
D03*
X5313D02*
D03*
X4160D02*
D03*
X8060Y7100D02*
D03*
X6908D02*
D03*
X5755D02*
D03*
X4603D02*
D03*
X8403Y5900D02*
D03*
X7250D02*
D03*
X6098D02*
D03*
X4945D02*
D03*
X8845Y4700D02*
D03*
X7693D02*
D03*
X6540D02*
D03*
X5388D02*
D03*
X5730Y3500D02*
D03*
X6883D02*
D03*
X8035D02*
D03*
X9188D02*
D03*
X6200Y2200D02*
D03*
X7353D02*
D03*
X8505D02*
D03*
X9658D02*
D03*
X10000Y1000D02*
D03*
X8847D02*
D03*
X7695D02*
D03*
X6542D02*
D03*
X155618Y33600D02*
D03*
X104679Y101509D02*
D03*
X100514Y103894D02*
D03*
X99303Y104198D02*
D03*
X101148Y102592D02*
D03*
X102358Y102289D02*
D03*
X103519Y101899D02*
D03*
X102934Y103287D02*
D03*
X108060Y100165D02*
D03*
X106950Y100642D02*
D03*
X55421Y101509D02*
D03*
X56005Y102897D02*
D03*
X54845Y102507D02*
D03*
X56581Y101899D02*
D03*
X57742Y102289D02*
D03*
X57166Y103287D02*
D03*
X65054Y104023D02*
D03*
X65739Y105238D02*
D03*
X74970Y108649D02*
D03*
X75546Y107651D02*
D03*
X73609Y108606D02*
D03*
X72299Y108475D02*
D03*
X69678Y108215D02*
D03*
X70989Y108345D02*
D03*
X68944Y107086D02*
D03*
X68368Y108084D02*
D03*
X67734Y106783D02*
D03*
X67157Y107781D02*
D03*
X66373Y106540D02*
D03*
X65796Y107538D02*
D03*
X65162Y106236D02*
D03*
X63902Y106019D02*
D03*
X64586Y107234D02*
D03*
X64478Y105021D02*
D03*
X63268Y104718D02*
D03*
X62584Y103503D02*
D03*
X63844Y103720D02*
D03*
X61373Y103199D02*
D03*
X62007Y104501D02*
D03*
X150442Y2200D02*
D03*
X151253Y1000D02*
D03*
X150100D02*
D03*
X151595Y2200D02*
D03*
X53684Y102117D02*
D03*
X51998Y102638D02*
D03*
X52574Y101640D02*
D03*
X53150Y100642D02*
D03*
X16689Y76995D02*
D03*
X15153Y74855D02*
D03*
X16497Y74927D02*
D03*
X15921Y75925D02*
D03*
X15729Y73857D02*
D03*
X17649Y72931D02*
D03*
X17073Y73929D02*
D03*
X16881Y71861D02*
D03*
X115683Y96569D02*
D03*
D119*
X123500Y7575D02*
D03*
Y11475D02*
D03*
D120*
X149300Y42350D02*
D03*
Y45850D02*
D03*
D121*
X22400Y30400D02*
D03*
Y20100D02*
D03*
X26375Y34700D02*
D03*
Y45000D02*
D03*
D122*
X46107Y31300D02*
D03*
X45457Y31300D02*
D03*
X44807D02*
D03*
X44157Y31300D02*
D03*
X46107Y26850D02*
D03*
X45457Y26850D02*
D03*
X44807Y26850D02*
D03*
X44157D02*
D03*
X46118Y20272D02*
D03*
X45468Y20272D02*
D03*
X44818Y20272D02*
D03*
X44168D02*
D03*
X46118Y15822D02*
D03*
X45468Y15822D02*
D03*
X44818Y15822D02*
D03*
X44168D02*
D03*
X63375Y21422D02*
D03*
X64025Y21422D02*
D03*
X64675D02*
D03*
X65325Y21422D02*
D03*
X63375Y25872D02*
D03*
X64025D02*
D03*
X64675D02*
D03*
X65325D02*
D03*
X63375Y32425D02*
D03*
X64025Y32425D02*
D03*
X64675D02*
D03*
X65325Y32425D02*
D03*
X63375Y36875D02*
D03*
X64025D02*
D03*
X64675Y36875D02*
D03*
X65325Y36875D02*
D03*
X63319Y43434D02*
D03*
X63969Y43434D02*
D03*
X64619D02*
D03*
X65269Y43434D02*
D03*
X63319Y47884D02*
D03*
X63969D02*
D03*
X64619D02*
D03*
X65269D02*
D03*
X63305Y54449D02*
D03*
X63955D02*
D03*
X64605Y54449D02*
D03*
X65255Y54449D02*
D03*
X63305Y58899D02*
D03*
X63955D02*
D03*
X64605Y58899D02*
D03*
X65255Y58899D02*
D03*
X63460Y65450D02*
D03*
X64110D02*
D03*
X64760Y65450D02*
D03*
X65410Y65450D02*
D03*
X63460Y69900D02*
D03*
X64110D02*
D03*
X64760D02*
D03*
X65410D02*
D03*
X46110Y53274D02*
D03*
X45460D02*
D03*
X44810Y53274D02*
D03*
X44160Y53274D02*
D03*
X46110Y48824D02*
D03*
X45460D02*
D03*
X44810D02*
D03*
X44160D02*
D03*
X46105Y42299D02*
D03*
X45455D02*
D03*
X44805D02*
D03*
X44155D02*
D03*
X46105Y37849D02*
D03*
X45455D02*
D03*
X44805Y37849D02*
D03*
X44155Y37849D02*
D03*
X46087Y64300D02*
D03*
X45437D02*
D03*
X44787Y64300D02*
D03*
X44137Y64300D02*
D03*
X46087Y59850D02*
D03*
X45437D02*
D03*
X44787Y59850D02*
D03*
X44137Y59850D02*
D03*
D123*
X127725Y55970D02*
D03*
X123525D02*
D03*
X123525Y61050D02*
D03*
X127725Y61050D02*
D03*
D124*
X120082Y80076D02*
D03*
X122309Y79192D02*
D03*
X120966Y77849D02*
D03*
D125*
X132471Y78606D02*
D03*
X131573Y77708D02*
D03*
X130675Y76810D02*
D03*
X129777Y75912D02*
D03*
X128879Y75014D02*
D03*
X127981Y74116D02*
D03*
X127083Y73218D02*
D03*
X126185Y72320D02*
D03*
X125287Y71422D02*
D03*
X124389Y70524D02*
D03*
X139242Y71836D02*
D03*
X138343Y70938D02*
D03*
X137445Y70040D02*
D03*
X136547Y69142D02*
D03*
X135649Y68244D02*
D03*
X134751Y67346D02*
D03*
X133853Y66448D02*
D03*
X132955Y65550D02*
D03*
X132057Y64651D02*
D03*
X131159Y63753D02*
D03*
D126*
X68963Y87575D02*
D03*
Y88975D02*
D03*
X70663D02*
D03*
Y87575D02*
D03*
D127*
X21575Y67650D02*
D03*
X18375D02*
D03*
X19700Y70075D02*
D03*
X22900D02*
D03*
X22700Y74900D02*
D03*
X25900D02*
D03*
X24325Y72475D02*
D03*
X21125D02*
D03*
D128*
X39350Y76550D02*
D03*
X45750Y76550D02*
D03*
D129*
X146094Y8890D02*
X146101Y8883D01*
X138375Y8890D02*
X146094D01*
Y10890D02*
X146101Y10883D01*
X138375Y10890D02*
X146094D01*
X123500Y7575D02*
X127410D01*
X129070Y9235D01*
X138375Y6890D02*
X146094D01*
X146101Y6883D01*
X138375Y4890D02*
X146094D01*
X146101Y4883D01*
X85975Y88850D02*
Y92446D01*
X85200Y93220D02*
X85975Y92446D01*
X84035Y100609D02*
X85200Y99444D01*
Y93220D02*
Y99444D01*
D130*
X41600Y16436D02*
Y17225D01*
X40500Y16425D02*
X40511Y16436D01*
Y17238D01*
X39780Y28775D02*
Y30225D01*
X38475Y32200D02*
X38503Y32172D01*
Y31297D02*
Y32172D01*
X36225Y32150D02*
X37550D01*
Y31411D02*
Y32150D01*
Y31411D02*
X37664Y31297D01*
X38503D01*
X38510Y31290D01*
Y28775D02*
Y31290D01*
D131*
X44472Y14475D02*
X45765D01*
X46118Y14828D01*
Y15822D01*
X42950Y14475D02*
X44472D01*
X44818Y14822D01*
X63750Y38350D02*
X64675D01*
X65410Y68525D02*
Y69900D01*
X64110Y68525D02*
X64114Y68520D01*
X64110Y68525D02*
Y69900D01*
X44125Y61062D02*
X44137Y61050D01*
Y59850D02*
Y61050D01*
X45432Y61050D02*
X45437Y61045D01*
Y59850D02*
Y61045D01*
X45125Y58525D02*
X46087D01*
X44787Y58863D02*
X45125Y58525D01*
X44787Y58863D02*
Y59850D01*
X46087Y58525D02*
X46087Y58525D01*
X46087Y58525D02*
Y59850D01*
X63860Y71225D02*
X64760D01*
X63460Y70825D02*
X63860Y71225D01*
X63460Y69900D02*
Y70825D01*
X64760Y69900D02*
Y71225D01*
X65325Y35600D02*
X65325Y35600D01*
Y36875D01*
X64025Y35575D02*
X64025Y35575D01*
Y36875D01*
X65269Y46649D02*
X65270Y46649D01*
X65269Y46649D02*
Y47884D01*
X63969Y46649D02*
Y47884D01*
X64605Y49466D02*
X64619Y49452D01*
Y47884D02*
Y49452D01*
X63776Y49466D02*
X64605D01*
X63319Y49009D02*
X63776Y49466D01*
X63319Y47884D02*
Y49009D01*
X64675Y27458D02*
X64675Y27458D01*
X63862Y27458D02*
X64675D01*
X65255Y57674D02*
X65255Y57674D01*
Y58899D01*
X63955Y57649D02*
X63955Y57649D01*
Y58899D01*
X64605Y58899D02*
Y60374D01*
X63655Y60374D02*
X64605D01*
X63305Y60024D02*
X63655Y60374D01*
X63305Y58899D02*
Y60024D01*
X64675Y36875D02*
Y38350D01*
X63375Y37975D02*
X63750Y38350D01*
X63375Y36875D02*
Y37975D01*
X64025Y24647D02*
X64025Y24647D01*
Y25872D01*
X65325Y24657D02*
X65335Y24647D01*
X65325Y24657D02*
Y25872D01*
X63375Y26972D02*
X63862Y27458D01*
X63375Y25872D02*
Y26972D01*
X64675Y25872D02*
Y27458D01*
X45450Y17022D02*
X45468Y17004D01*
Y15822D02*
Y17004D01*
X44150Y17038D02*
X44168Y17020D01*
Y15822D02*
Y17020D01*
X44818Y14822D02*
Y15822D01*
X44157Y26850D02*
Y28093D01*
X44150Y28100D02*
X44157Y28093D01*
X45449Y28075D02*
X45457Y28067D01*
Y26850D02*
Y28067D01*
X45201Y25575D02*
X46100D01*
X44807Y25969D02*
X45201Y25575D01*
X44807Y25969D02*
Y26850D01*
X46100Y25575D02*
X46107Y25582D01*
Y26850D01*
X45460Y53274D02*
X45462Y53272D01*
X44155Y53269D02*
X44160Y53274D01*
X44155Y50060D02*
X44160Y50055D01*
Y48824D02*
Y50055D01*
X45460Y48824D02*
Y50055D01*
X45238Y47524D02*
X46105D01*
X44810Y47952D02*
X45238Y47524D01*
X44810Y47952D02*
Y48824D01*
X46105Y47524D02*
X46110Y47529D01*
Y48824D01*
X44155Y39124D02*
X44155Y39124D01*
X44155Y37849D02*
Y39124D01*
X45455Y39074D02*
X45455Y39074D01*
X45455Y37849D02*
Y39074D01*
Y50060D02*
X45460Y50055D01*
D132*
X8650Y37575D02*
X9550Y38475D01*
X12400Y50075D02*
Y51900D01*
D133*
X55236Y1675D02*
D03*
X86850Y1675D02*
D03*
X94470D02*
D03*
X93199Y4215D02*
D03*
X90659Y4215D02*
D03*
X91930Y1675D02*
D03*
X89390D02*
D03*
X88119Y4215D02*
D03*
X107725D02*
D03*
X108995Y1675D02*
D03*
X111535D02*
D03*
X110265Y4215D02*
D03*
X112805Y4215D02*
D03*
X114075Y1675D02*
D03*
X106455D02*
D03*
X67250Y1675D02*
D03*
X74870D02*
D03*
X73600Y4215D02*
D03*
X71060Y4215D02*
D03*
X72330Y1675D02*
D03*
X69790D02*
D03*
X68520Y4215D02*
D03*
X48886Y4215D02*
D03*
X50156Y1675D02*
D03*
X52696D02*
D03*
X51426Y4215D02*
D03*
X53966Y4215D02*
D03*
X47616Y1675D02*
D03*
D134*
X56506Y4215D02*
D03*
X95739Y4215D02*
D03*
X115345D02*
D03*
X76140Y4215D02*
D03*
D135*
X2550Y29950D02*
D03*
X12933Y68700D02*
D03*
X41300Y97067D02*
D03*
X80050Y107450D02*
D03*
X118800Y97067D02*
D03*
X147167Y68700D02*
D03*
X157550Y29950D02*
D03*
D136*
X86575Y100609D02*
D03*
X84035D02*
D03*
X81495Y100609D02*
D03*
X78955Y100609D02*
D03*
X129070Y4155D02*
D03*
Y6695D02*
D03*
Y9235D02*
D03*
Y11775D02*
D03*
D137*
X93140Y97850D02*
D03*
X121135Y66226D02*
D03*
X99375Y97850D02*
D03*
D138*
X99170Y7625D02*
D03*
X83420D02*
D03*
X103025D02*
D03*
X118775D02*
D03*
X79570Y7625D02*
D03*
X63820D02*
D03*
X44186Y7625D02*
D03*
X59936D02*
D03*
D139*
X85570Y10575D02*
D03*
X97000Y10575D02*
D03*
X116605D02*
D03*
X105175Y10575D02*
D03*
X65970Y10575D02*
D03*
X77400Y10575D02*
D03*
X57766Y10575D02*
D03*
X46336Y10575D02*
D03*
D140*
X28428Y5125D02*
D03*
X14428D02*
D03*
X17928D02*
D03*
X21428D02*
D03*
X24928D02*
D03*
D141*
X113264Y88957D02*
D03*
D142*
X63375Y20075D02*
D03*
X111320Y91325D02*
D03*
X111600Y65300D02*
D03*
Y64363D02*
D03*
X134467Y63475D02*
D03*
X108200Y67150D02*
D03*
X141622Y40450D02*
D03*
Y47900D02*
D03*
X132400Y48180D02*
D03*
X90340Y64691D02*
D03*
X49807Y48758D02*
D03*
X49750Y26525D02*
D03*
X49850Y37757D02*
D03*
X63540Y95675D02*
D03*
X84165Y55862D02*
D03*
Y56862D02*
D03*
X100825Y95275D02*
D03*
X101825D02*
D03*
X109325Y83075D02*
D03*
X108275D02*
D03*
X107300Y83125D02*
D03*
X67125Y36575D02*
D03*
X100516Y28460D02*
D03*
X104275D02*
D03*
X102442Y27225D02*
D03*
X29825Y32850D02*
D03*
X23125Y32851D02*
D03*
X19155Y32900D02*
D03*
X29825Y34625D02*
D03*
X21300Y32883D02*
D03*
X22900Y34700D02*
D03*
X19925Y35035D02*
D03*
X17700Y33647D02*
D03*
X15825Y33024D02*
D03*
X38800Y38225D02*
D03*
X36250D02*
D03*
X37500Y35725D02*
D03*
X139922Y66390D02*
D03*
X140157Y67500D02*
D03*
X140925Y68228D02*
D03*
X128550Y77085D02*
D03*
X27661Y61750D02*
D03*
X27600Y59375D02*
D03*
X30125Y58425D02*
D03*
X29100Y59375D02*
D03*
X30500Y79650D02*
D03*
X32775Y77275D02*
D03*
X34907Y79675D02*
D03*
X32694Y79625D02*
D03*
X28181Y78425D02*
D03*
X28595Y14787D02*
D03*
X70623Y19342D02*
D03*
X71475Y20232D02*
D03*
X70625Y21117D02*
D03*
X69625D02*
D03*
X69610Y19392D02*
D03*
X68772Y20225D02*
D03*
X42150Y9716D02*
D03*
X41275Y10597D02*
D03*
X37650Y9747D02*
D03*
X34146Y13097D02*
D03*
X34921Y13900D02*
D03*
X34146Y14697D02*
D03*
X34146Y12108D02*
D03*
X34921Y11311D02*
D03*
X34146Y10507D02*
D03*
X118081Y15875D02*
D03*
X117100Y17825D02*
D03*
X116256Y16875D02*
D03*
X117100Y16000D02*
D03*
X41600Y16436D02*
D03*
X40500Y16425D02*
D03*
X39528Y17225D02*
D03*
X37725Y15450D02*
D03*
Y19047D02*
D03*
X34169Y21375D02*
D03*
X30000Y21325D02*
D03*
X118981Y16875D02*
D03*
X118081Y17850D02*
D03*
X40025Y6852D02*
D03*
X40450Y9749D02*
D03*
X38475Y10591D02*
D03*
X31900Y7785D02*
D03*
X39780Y30225D02*
D03*
X40300Y25194D02*
D03*
Y26783D02*
D03*
X38000Y25200D02*
D03*
Y26750D02*
D03*
X39145Y25975D02*
D03*
X39528Y32100D02*
D03*
X36175Y35250D02*
D03*
X33821D02*
D03*
X35025Y34153D02*
D03*
X65275Y44725D02*
D03*
X63975D02*
D03*
X65335Y33725D02*
D03*
X64025D02*
D03*
X127829Y53979D02*
D03*
X94043Y54557D02*
D03*
X93020Y53975D02*
D03*
X81650Y51975D02*
D03*
Y54725D02*
D03*
Y53475D02*
D03*
Y55737D02*
D03*
X67499Y60374D02*
D03*
X127821Y49150D02*
D03*
X118902Y56035D02*
D03*
X67525Y49805D02*
D03*
X126400Y49050D02*
D03*
X99444Y48140D02*
D03*
X125650Y49800D02*
D03*
X128835Y48280D02*
D03*
X130050Y48275D02*
D03*
X126097Y53650D02*
D03*
Y50825D02*
D03*
X131600Y50775D02*
D03*
X120100Y45650D02*
D03*
X124646D02*
D03*
X125925Y42525D02*
D03*
X67225Y27458D02*
D03*
X127350Y42525D02*
D03*
X42950Y12700D02*
D03*
X76300Y89900D02*
D03*
X53875Y70900D02*
D03*
X65335Y22725D02*
D03*
X64025D02*
D03*
X64760Y64107D02*
D03*
X63460Y64107D02*
D03*
X65410Y68525D02*
D03*
X64114Y68520D02*
D03*
X65410Y66750D02*
D03*
X64110D02*
D03*
X44125Y61062D02*
D03*
X45432Y61050D02*
D03*
X46075Y65700D02*
D03*
X44775Y65675D02*
D03*
X45450Y63006D02*
D03*
X44137D02*
D03*
X69272Y72297D02*
D03*
X77250Y29525D02*
D03*
X89554Y41951D02*
D03*
X81504Y72475D02*
D03*
X86675Y58190D02*
D03*
X86950Y47850D02*
D03*
X66850Y79500D02*
D03*
X63250Y89950D02*
D03*
X79525Y81125D02*
D03*
X80551Y81133D02*
D03*
X64025Y35575D02*
D03*
X65325D02*
D03*
X65255Y55749D02*
D03*
X63955D02*
D03*
X64596Y53149D02*
D03*
X63305D02*
D03*
X63319Y42075D02*
D03*
X64625Y42074D02*
D03*
X63969Y46649D02*
D03*
X65270D02*
D03*
X46125Y21600D02*
D03*
X44818D02*
D03*
X44168Y18979D02*
D03*
X45468D02*
D03*
X46107Y32650D02*
D03*
X44800D02*
D03*
X45457Y30000D02*
D03*
X44157D02*
D03*
X124705Y47180D02*
D03*
X123900Y48497D02*
D03*
X115197Y48475D02*
D03*
X116475Y47775D02*
D03*
X83432Y34850D02*
D03*
X82376D02*
D03*
X63375Y31125D02*
D03*
X64675Y31125D02*
D03*
X65255Y57674D02*
D03*
X63955Y57649D02*
D03*
X64675Y20075D02*
D03*
X64025Y24647D02*
D03*
X65335Y24647D02*
D03*
X44150Y17038D02*
D03*
X45450Y17022D02*
D03*
X44150Y28075D02*
D03*
X45449D02*
D03*
X44155Y51949D02*
D03*
Y50060D02*
D03*
X44162Y40999D02*
D03*
X46105Y43599D02*
D03*
X44805D02*
D03*
X44155Y39124D02*
D03*
X45455Y39074D02*
D03*
X85150Y30400D02*
D03*
X77175Y91113D02*
D03*
X116875Y90450D02*
D03*
X126425Y78225D02*
D03*
X125675Y79025D02*
D03*
X122415Y74050D02*
D03*
X121675Y73325D02*
D03*
X117338Y92188D02*
D03*
X65975Y88366D02*
D03*
X67450Y90300D02*
D03*
X67157Y88875D02*
D03*
X65650Y89483D02*
D03*
X118775Y91400D02*
D03*
X118177Y92775D02*
D03*
X108250Y91312D02*
D03*
X109225Y91325D02*
D03*
X110281D02*
D03*
X107330Y91500D02*
D03*
X108299Y86525D02*
D03*
X109375Y86575D02*
D03*
X106300Y86475D02*
D03*
X107325Y86525D02*
D03*
X111200Y86600D02*
D03*
X99450Y91352D02*
D03*
X89455Y91346D02*
D03*
X83280Y67600D02*
D03*
X83412Y57972D02*
D03*
X85955Y59000D02*
D03*
X87700Y58275D02*
D03*
X90815Y58254D02*
D03*
X92888Y61095D02*
D03*
X92565Y59052D02*
D03*
X85950Y47850D02*
D03*
X90975Y56490D02*
D03*
X94700Y47625D02*
D03*
X93475Y51300D02*
D03*
X120052Y61595D02*
D03*
Y62600D02*
D03*
Y63607D02*
D03*
X104850Y63837D02*
D03*
X104006Y66439D02*
D03*
X102168Y67250D02*
D03*
X100135Y67225D02*
D03*
X99237D02*
D03*
X98235Y67200D02*
D03*
X95390Y66446D02*
D03*
X90340Y65757D02*
D03*
X92915D02*
D03*
X90365Y63566D02*
D03*
X92940Y63569D02*
D03*
X101206Y53757D02*
D03*
X90402Y61095D02*
D03*
X90980Y53975D02*
D03*
X93815Y55750D02*
D03*
X92040Y53969D02*
D03*
X59825Y95675D02*
D03*
X57814Y94800D02*
D03*
X56825D02*
D03*
X55414Y91485D02*
D03*
X53614Y91500D02*
D03*
X58800Y95700D02*
D03*
X48214Y94550D02*
D03*
X51814Y91485D02*
D03*
X50000Y94575D02*
D03*
X51214Y94775D02*
D03*
X52364Y94800D02*
D03*
X60175Y86525D02*
D03*
X59150D02*
D03*
X52114Y83350D02*
D03*
X50311D02*
D03*
X50400Y88574D02*
D03*
X92800Y41951D02*
D03*
X83455Y48255D02*
D03*
Y51275D02*
D03*
X93955Y48250D02*
D03*
X95445Y51300D02*
D03*
X105744Y41907D02*
D03*
X116350Y66075D02*
D03*
X116750Y67625D02*
D03*
X119007Y76675D02*
D03*
X117737D02*
D03*
X116467D02*
D03*
X115197D02*
D03*
X113918Y74150D02*
D03*
X113925Y69425D02*
D03*
X75042Y65100D02*
D03*
X76550Y63600D02*
D03*
X73525Y63550D02*
D03*
X68500Y69325D02*
D03*
X71737Y70295D02*
D03*
X67425Y65675D02*
D03*
X68500Y67770D02*
D03*
X70000Y69350D02*
D03*
X74167Y70500D02*
D03*
X78425Y65230D02*
D03*
X81638D02*
D03*
X78425Y64230D02*
D03*
X81650Y64175D02*
D03*
X81638Y63150D02*
D03*
Y61975D02*
D03*
Y61000D02*
D03*
X75375Y61700D02*
D03*
Y60700D02*
D03*
Y58700D02*
D03*
X78450Y58740D02*
D03*
X81650D02*
D03*
Y56975D02*
D03*
X108415Y60975D02*
D03*
Y63144D02*
D03*
X111575Y62975D02*
D03*
Y61975D02*
D03*
X108412D02*
D03*
X114600Y61750D02*
D03*
X108400Y51975D02*
D03*
X108412Y58720D02*
D03*
X114600Y58775D02*
D03*
X111575Y58720D02*
D03*
X108400Y56975D02*
D03*
Y54732D02*
D03*
Y55735D02*
D03*
X111575Y54720D02*
D03*
X108400Y53475D02*
D03*
X82455Y48250D02*
D03*
Y51275D02*
D03*
X94470Y51475D02*
D03*
X89455Y51270D02*
D03*
X90450Y51290D02*
D03*
X89455Y48250D02*
D03*
X90450D02*
D03*
X92200Y51275D02*
D03*
X96450Y51300D02*
D03*
X95445Y48250D02*
D03*
X97700Y51290D02*
D03*
X106200Y48275D02*
D03*
X107700Y48250D02*
D03*
X107450Y51275D02*
D03*
X106450D02*
D03*
X117877Y67346D02*
D03*
X118902Y67350D02*
D03*
X89544Y38813D02*
D03*
X86308Y38788D02*
D03*
X87919Y37838D02*
D03*
X91184Y39401D02*
D03*
X94390Y37787D02*
D03*
X92760Y38812D02*
D03*
X96007Y38805D02*
D03*
X110680Y39300D02*
D03*
X112300Y41856D02*
D03*
X109050Y41850D02*
D03*
X109014Y38718D02*
D03*
X99247Y38812D02*
D03*
X105746Y38729D02*
D03*
X107376Y37700D02*
D03*
X104119Y39307D02*
D03*
X102494Y41895D02*
D03*
X96034Y41963D02*
D03*
X99278Y41993D02*
D03*
X102488Y38737D02*
D03*
X99043Y57337D02*
D03*
X95943Y60566D02*
D03*
X102254Y60532D02*
D03*
X99168Y63707D02*
D03*
X95993D02*
D03*
X95943Y57457D02*
D03*
X102193Y57432D02*
D03*
X102168Y63707D02*
D03*
X99085Y60587D02*
D03*
X96643Y53520D02*
D03*
X94040Y53532D02*
D03*
X96603Y54532D02*
D03*
X97343Y55147D02*
D03*
X98040Y53769D02*
D03*
X101206Y54782D02*
D03*
X103093Y54182D02*
D03*
X102068D02*
D03*
X108730Y26400D02*
D03*
X108750Y21725D02*
D03*
X102430Y26450D02*
D03*
X102420Y21775D02*
D03*
X96080Y26350D02*
D03*
X96056Y21650D02*
D03*
X89655Y26350D02*
D03*
X89700Y21689D02*
D03*
X39325Y86400D02*
D03*
Y82750D02*
D03*
X37750Y61025D02*
D03*
X39900Y59236D02*
D03*
X41975Y61075D02*
D03*
X23425Y66450D02*
D03*
X23050Y53065D02*
D03*
X34300Y67100D02*
D03*
Y65800D02*
D03*
Y64300D02*
D03*
X33425Y72075D02*
D03*
Y73700D02*
D03*
X31100Y72150D02*
D03*
Y73725D02*
D03*
X32264Y72917D02*
D03*
X29071Y71331D02*
D03*
X37376Y82984D02*
D03*
X35000Y84275D02*
D03*
X30500D02*
D03*
X32694Y82950D02*
D03*
X24650Y64075D02*
D03*
X23278Y61771D02*
D03*
X24625Y59450D02*
D03*
X27450Y53650D02*
D03*
X27465Y55300D02*
D03*
X25100Y53679D02*
D03*
Y55300D02*
D03*
X26276Y54485D02*
D03*
X15775Y64150D02*
D03*
X16958D02*
D03*
X81571Y22450D02*
D03*
X82601D02*
D03*
X104665Y57497D02*
D03*
X104676Y58491D02*
D03*
X100445Y48165D02*
D03*
Y51290D02*
D03*
X99444D02*
D03*
X104483Y31500D02*
D03*
X100450Y31510D02*
D03*
X89720Y32850D02*
D03*
X96081Y32875D02*
D03*
X102424Y32900D02*
D03*
X108775Y32850D02*
D03*
X106890Y56407D02*
D03*
X107265Y59497D02*
D03*
Y58509D02*
D03*
X107265Y57491D02*
D03*
X104701Y59510D02*
D03*
X37179Y52675D02*
D03*
X37300Y47925D02*
D03*
X39225Y50325D02*
D03*
X36100Y44997D02*
D03*
X38900Y45000D02*
D03*
X76467Y25150D02*
D03*
X78514Y25175D02*
D03*
X79544D02*
D03*
X80575D02*
D03*
X83625D02*
D03*
X82675Y30395D02*
D03*
X85130Y31450D02*
D03*
Y29375D02*
D03*
X77775Y28850D02*
D03*
X77250Y30375D02*
D03*
Y31225D02*
D03*
X78000Y32750D02*
D03*
X78369Y33525D02*
D03*
X83432Y32375D02*
D03*
X79270Y34850D02*
D03*
X21100Y74000D02*
D03*
X22650Y76450D02*
D03*
X17025Y67600D02*
D03*
X18375Y69125D02*
D03*
X15900Y65825D02*
D03*
X18462Y70050D02*
D03*
X19850Y72450D02*
D03*
X19688Y71561D02*
D03*
X21450Y74900D02*
D03*
X9275Y9321D02*
D03*
X10575Y10475D02*
D03*
X11725Y9375D02*
D03*
X12950Y10475D02*
D03*
X14275Y9339D02*
D03*
X97649Y39438D02*
D03*
X100852Y37757D02*
D03*
X18255Y66125D02*
D03*
X22007Y52083D02*
D03*
X23022Y52090D02*
D03*
X22025Y47625D02*
D03*
X23022D02*
D03*
X27408Y48562D02*
D03*
X27425Y49557D02*
D03*
X35997Y63315D02*
D03*
X37250Y58860D02*
D03*
X37300Y56817D02*
D03*
X35964Y54425D02*
D03*
X17725Y40950D02*
D03*
X19959Y39554D02*
D03*
X15475Y39570D02*
D03*
X36940Y89075D02*
D03*
X50350Y86832D02*
D03*
X48525Y87600D02*
D03*
X51262Y81775D02*
D03*
X52364Y80625D02*
D03*
X51268Y79423D02*
D03*
X51243Y71748D02*
D03*
X52339Y72950D02*
D03*
X51237Y74100D02*
D03*
X77329Y77513D02*
D03*
X126979Y11475D02*
D03*
X120075Y11425D02*
D03*
X131825Y11732D02*
D03*
X121200Y17525D02*
D03*
X125011Y17044D02*
D03*
X122486Y18297D02*
D03*
X124986Y22107D02*
D03*
X123507Y22187D02*
D03*
X125042Y27119D02*
D03*
Y28394D02*
D03*
X122711Y29644D02*
D03*
X123311Y37100D02*
D03*
Y33494D02*
D03*
X140661Y24875D02*
D03*
X138950Y31485D02*
D03*
X138078Y33950D02*
D03*
X138989Y20206D02*
D03*
X138156Y17800D02*
D03*
X138161Y22575D02*
D03*
X137643Y17044D02*
D03*
X137650Y28344D02*
D03*
X138088Y29129D02*
D03*
X137643Y27119D02*
D03*
X140450Y36495D02*
D03*
X140439Y34875D02*
D03*
X140675Y23300D02*
D03*
X123511Y25869D02*
D03*
X140375Y70725D02*
D03*
X137716Y64200D02*
D03*
X134050Y64425D02*
D03*
X136832Y60225D02*
D03*
X136432Y62475D02*
D03*
X132125Y61874D02*
D03*
X132025Y60768D02*
D03*
X132396Y58450D02*
D03*
X134721Y58075D02*
D03*
X139178Y65675D02*
D03*
X138473Y64900D02*
D03*
X137025Y63425D02*
D03*
X119275Y80851D02*
D03*
X123100Y74978D02*
D03*
X122300Y75754D02*
D03*
X127125Y79275D02*
D03*
X129425Y78800D02*
D03*
X126600Y81600D02*
D03*
X131500Y80825D02*
D03*
X131250Y83325D02*
D03*
X128773Y83742D02*
D03*
X133354Y40075D02*
D03*
X134981Y38450D02*
D03*
X135325Y49950D02*
D03*
X132450D02*
D03*
X140950Y39275D02*
D03*
X144175Y37650D02*
D03*
X131575Y53750D02*
D03*
X124850Y33475D02*
D03*
X124500Y30475D02*
D03*
X123116Y39800D02*
D03*
X122250Y39050D02*
D03*
X121125Y20175D02*
D03*
X122250D02*
D03*
X124246Y19125D02*
D03*
X45725Y71100D02*
D03*
X149300Y41300D02*
D03*
X137167Y38443D02*
D03*
X137171Y48552D02*
D03*
X108415Y64413D02*
D03*
X114600Y59775D02*
D03*
Y60750D02*
D03*
X132570Y41862D02*
D03*
X133972Y41875D02*
D03*
X128847Y50800D02*
D03*
X120825Y49425D02*
D03*
X123800D02*
D03*
X129531Y61050D02*
D03*
X127750Y62540D02*
D03*
X125050Y63687D02*
D03*
X129432Y62506D02*
D03*
X129531Y58250D02*
D03*
X105425Y82550D02*
D03*
X103475Y97800D02*
D03*
X104595Y97864D02*
D03*
X102514Y83300D02*
D03*
X100714Y83325D02*
D03*
X106114Y91475D02*
D03*
Y94600D02*
D03*
X107314D02*
D03*
X108225Y94800D02*
D03*
X109195Y94825D02*
D03*
X110300Y94775D02*
D03*
X111320D02*
D03*
X111299Y83075D02*
D03*
X105950Y83255D02*
D03*
X106464Y82536D02*
D03*
X91902Y82700D02*
D03*
X92925Y82725D02*
D03*
X97125Y86300D02*
D03*
X95335D02*
D03*
X93514Y86325D02*
D03*
X91714Y86289D02*
D03*
X90450Y91346D02*
D03*
X91435Y91350D02*
D03*
X92450Y91346D02*
D03*
X93450Y91355D02*
D03*
X94450Y91346D02*
D03*
X95445Y91355D02*
D03*
X96425Y91352D02*
D03*
X97450D02*
D03*
X98450Y91355D02*
D03*
X100445D02*
D03*
X101450D02*
D03*
X102450D02*
D03*
X103450D02*
D03*
X104450Y89125D02*
D03*
X100100Y94735D02*
D03*
X102550Y94725D02*
D03*
X98625Y94550D02*
D03*
X96835Y94567D02*
D03*
X95014Y94606D02*
D03*
X93200Y94567D02*
D03*
X78150Y79275D02*
D03*
X82925Y82300D02*
D03*
X81900Y82325D02*
D03*
X83194Y78225D02*
D03*
X112975Y74062D02*
D03*
Y73000D02*
D03*
X116775Y45325D02*
D03*
X117700Y43136D02*
D03*
X115725Y41775D02*
D03*
X120125Y42925D02*
D03*
X119575Y38760D02*
D03*
X117675Y37350D02*
D03*
X115750Y38775D02*
D03*
X120125Y40350D02*
D03*
X123175Y53225D02*
D03*
X118025Y48650D02*
D03*
X113575Y48495D02*
D03*
X123500Y54625D02*
D03*
X122000Y55969D02*
D03*
X118900Y54765D02*
D03*
X111575Y55720D02*
D03*
Y56720D02*
D03*
X91414Y94525D02*
D03*
X89614Y94506D02*
D03*
X87814Y94525D02*
D03*
X83925Y94800D02*
D03*
X82414Y94525D02*
D03*
X80625Y94480D02*
D03*
X79125Y94775D02*
D03*
X79570Y91125D02*
D03*
X79625Y86800D02*
D03*
X80525Y88900D02*
D03*
X76725Y94775D02*
D03*
X76800Y88900D02*
D03*
X86325Y94784D02*
D03*
X71900Y94735D02*
D03*
X73414Y94600D02*
D03*
X75214Y94561D02*
D03*
X70427Y91100D02*
D03*
X69214Y91085D02*
D03*
X69814Y94675D02*
D03*
X67714Y94700D02*
D03*
X72200Y90300D02*
D03*
X73575Y90863D02*
D03*
X71750Y87586D02*
D03*
X70663Y86500D02*
D03*
X68975D02*
D03*
X67863Y87575D02*
D03*
X66214Y94606D02*
D03*
X64565Y95675D02*
D03*
X88125Y83325D02*
D03*
X86314D02*
D03*
X84514D02*
D03*
X82714D02*
D03*
X64414Y83200D02*
D03*
X64400Y86375D02*
D03*
X66825Y83303D02*
D03*
X80925Y83325D02*
D03*
X79125D02*
D03*
X77329Y83336D02*
D03*
X75525Y83325D02*
D03*
X73725Y83336D02*
D03*
X72250Y83325D02*
D03*
X69825D02*
D03*
X68314Y83325D02*
D03*
X58025Y74225D02*
D03*
X62694Y72075D02*
D03*
X57475Y89975D02*
D03*
X78414Y63200D02*
D03*
X77200Y66190D02*
D03*
Y67190D02*
D03*
X75375Y59700D02*
D03*
X57214Y91500D02*
D03*
X59025Y91400D02*
D03*
X83350Y24175D02*
D03*
X80818Y24175D02*
D03*
X64275Y88300D02*
D03*
X64950Y87425D02*
D03*
X77200Y71331D02*
D03*
Y72356D02*
D03*
X81505Y71476D02*
D03*
X81500Y73500D02*
D03*
Y74475D02*
D03*
X78309Y74175D02*
D03*
X78325Y75275D02*
D03*
X86193Y81200D02*
D03*
X108000Y81133D02*
D03*
X107200Y78231D02*
D03*
X77625Y32000D02*
D03*
X77483Y25175D02*
D03*
X53900Y86350D02*
D03*
X55429Y86375D02*
D03*
X57514Y86400D02*
D03*
X80305Y35050D02*
D03*
X81320D02*
D03*
Y32606D02*
D03*
X66807Y81568D02*
D03*
X116350Y65100D02*
D03*
X97435Y81200D02*
D03*
Y78175D02*
D03*
X119800Y49463D02*
D03*
X109250Y97150D02*
D03*
X70714Y72657D02*
D03*
X78430Y73218D02*
D03*
X126845Y75250D02*
D03*
X125457Y75887D02*
D03*
X125005Y15794D02*
D03*
X123307Y13350D02*
D03*
X137667Y15757D02*
D03*
X45457Y40999D02*
D03*
X74167Y69500D02*
D03*
X97197Y67225D02*
D03*
X106325Y78225D02*
D03*
X39350Y9747D02*
D03*
X110295Y86575D02*
D03*
X110325Y83075D02*
D03*
X46110Y54649D02*
D03*
X44803Y54642D02*
D03*
X45462Y51945D02*
D03*
X45455Y50060D02*
D03*
X81775Y66175D02*
D03*
X78414Y61975D02*
D03*
X86216Y51650D02*
D03*
X87216D02*
D03*
X80300Y32600D02*
D03*
M02*
