G04*
G04 #@! TF.GenerationSoftware,Altium Limited,Altium Designer,22.7.1 (60)*
G04*
G04 Layer_Physical_Order=4*
G04 Layer_Color=16737945*
%FSLAX43Y43*%
%MOMM*%
G71*
G04*
G04 #@! TF.SameCoordinates,6218B3DD-F4BF-4AD2-B5C1-062D57A95E1A*
G04*
G04*
G04 #@! TF.FilePolarity,Positive*
G04*
G01*
G75*
%ADD85C,1.800*%
%ADD163C,0.700*%
G36*
X98444Y92403D02*
X98915Y92309D01*
X99374Y92170D01*
X99818Y91986D01*
X100241Y91760D01*
X100640Y91493D01*
X101011Y91189D01*
X101181Y91019D01*
X103369Y88830D01*
X103369Y88830D01*
X103369Y88830D01*
X103510Y88697D01*
X103809Y88451D01*
X104131Y88236D01*
X104472Y88054D01*
X104545Y88024D01*
X104556Y87997D01*
X104652Y87872D01*
X104777Y87776D01*
X104923Y87715D01*
X105080Y87695D01*
X105237Y87715D01*
X105352Y87763D01*
X105580Y87718D01*
X105965Y87680D01*
X106159Y87675D01*
X107748Y87675D01*
X107748Y87675D01*
X107748Y87675D01*
X107907Y87675D01*
X108225Y87644D01*
X108538Y87582D01*
X108843Y87489D01*
X109138Y87367D01*
X109419Y87217D01*
X109684Y87039D01*
X109931Y86837D01*
X110044Y86724D01*
X116100Y80668D01*
X121445Y75322D01*
X121445Y75322D01*
X121445Y75322D01*
X121692Y75076D01*
X122135Y74536D01*
X122522Y73956D01*
X122851Y73341D01*
X123118Y72697D01*
X123321Y72029D01*
X123457Y71345D01*
X123525Y70651D01*
X123525Y70302D01*
X123525Y61174D01*
X123497Y61153D01*
X123401Y61028D01*
X123340Y60882D01*
X123320Y60725D01*
X123340Y60568D01*
X123401Y60422D01*
X123497Y60297D01*
X123525Y60276D01*
X123525Y49585D01*
X123531Y49345D01*
X123578Y48867D01*
X123672Y48395D01*
X123811Y47935D01*
X123995Y47491D01*
X124222Y47067D01*
X124489Y46668D01*
X124794Y46296D01*
X124959Y46122D01*
X133924Y37158D01*
X133924Y37158D01*
X134060Y37021D01*
X134304Y36724D01*
X134518Y36404D01*
X134699Y36065D01*
X134847Y35709D01*
X134958Y35341D01*
X135034Y34963D01*
X135071Y34580D01*
X135071Y34388D01*
X135071Y28571D01*
X135071Y28571D01*
X135071Y28417D01*
X135011Y28113D01*
X134893Y27827D01*
X134721Y27570D01*
X134502Y27351D01*
X134244Y27179D01*
X133958Y27060D01*
X133655Y27000D01*
X133500Y27000D01*
X129998Y27000D01*
X129830Y27022D01*
X129662Y27000D01*
X127458Y27000D01*
X127290Y27022D01*
X127122Y27000D01*
X124918Y27000D01*
X124750Y27022D01*
X124582Y27000D01*
X122378Y27000D01*
X122210Y27022D01*
X122042Y27000D01*
X117375Y27000D01*
X117203Y27000D01*
X116865Y27067D01*
X116546Y27199D01*
X116259Y27391D01*
X116016Y27634D01*
X115824Y27921D01*
X115692Y28240D01*
X115625Y28578D01*
Y28750D01*
X115625Y45875D01*
X115625Y45875D01*
X115625Y45875D01*
X115620Y45978D01*
X115580Y46180D01*
X115501Y46370D01*
X115387Y46541D01*
X115241Y46687D01*
X115070Y46801D01*
X114880Y46880D01*
X114678Y46920D01*
X114575Y46925D01*
X109200D01*
X109200Y46925D01*
X109095Y46925D01*
X108889Y46966D01*
X108696Y47046D01*
X108521Y47163D01*
X108373Y47311D01*
X108257Y47485D01*
X108177Y47679D01*
X108136Y47884D01*
X108136Y47989D01*
X108136Y54711D01*
X108136D01*
X108136Y54711D01*
X108141Y54807D01*
X108163Y54919D01*
X108217Y55049D01*
X108295Y55166D01*
X108395Y55266D01*
X108512Y55344D01*
X108642Y55398D01*
X108780Y55425D01*
X108850Y55425D01*
X109935Y55425D01*
X110034Y55425D01*
X110034Y55425D01*
Y55425D01*
X110034Y55425D01*
X110098Y55428D01*
X110129Y55434D01*
X110223Y55453D01*
X110341Y55502D01*
X110446Y55572D01*
X110537Y55663D01*
X110607Y55769D01*
X110656Y55886D01*
X110681Y56011D01*
X110684Y56075D01*
X110684Y60241D01*
X110684Y60241D01*
X110684Y60241D01*
X110679Y60352D01*
X110641Y60539D01*
X110722Y60597D01*
X110728Y60599D01*
X110768Y60568D01*
X110914Y60508D01*
X111071Y60487D01*
X111228Y60508D01*
X111373Y60568D01*
X111499Y60664D01*
X111595Y60790D01*
X111655Y60935D01*
X111676Y61092D01*
X111655Y61249D01*
X111595Y61395D01*
X111499Y61520D01*
X111373Y61616D01*
X111228Y61677D01*
X111071Y61697D01*
X110914Y61677D01*
X110768Y61616D01*
X110643Y61520D01*
X110547Y61395D01*
X110486Y61249D01*
X110466Y61092D01*
X110470Y61058D01*
X110375Y61011D01*
X110269Y61118D01*
X110085Y61241D01*
X109879Y61326D01*
X109661Y61370D01*
X109550Y61375D01*
X108996Y61375D01*
X108974Y61428D01*
X108878Y61553D01*
X108753Y61649D01*
X108607Y61710D01*
X108450Y61730D01*
X108293Y61710D01*
X108147Y61649D01*
X108022Y61553D01*
X107926Y61428D01*
X107904Y61375D01*
X106037Y61375D01*
X105972Y61450D01*
X105978Y61500D01*
X105957Y61657D01*
X105897Y61803D01*
X105801Y61928D01*
X105675Y62024D01*
X105530Y62085D01*
X105373Y62105D01*
X105216Y62085D01*
X105070Y62024D01*
X104945Y61928D01*
X104849Y61803D01*
X104788Y61657D01*
X104768Y61500D01*
X104774Y61450D01*
X104708Y61375D01*
X102965Y61375D01*
X102759Y61375D01*
X102348Y61415D01*
X101943Y61496D01*
X101548Y61616D01*
X101167Y61774D01*
X100803Y61968D01*
X100460Y62198D01*
X100141Y62459D01*
X99995Y62605D01*
X97988Y64612D01*
Y64612D01*
X97988D01*
X97917Y64683D01*
X97857Y64743D01*
X97623Y65028D01*
X97419Y65334D01*
X97245Y65659D01*
X97104Y66000D01*
X96997Y66352D01*
X96925Y66714D01*
X96889Y67081D01*
X96889Y67265D01*
X96889Y69530D01*
X96989Y69584D01*
X97094Y69540D01*
X97251Y69520D01*
X97408Y69540D01*
X97553Y69601D01*
X97679Y69697D01*
X97772D01*
X97897Y69601D01*
X98043Y69540D01*
X98200Y69520D01*
X98357Y69540D01*
X98503Y69601D01*
X98628Y69697D01*
X98724Y69822D01*
X98785Y69968D01*
X98805Y70125D01*
X98785Y70282D01*
X98724Y70428D01*
X98628Y70553D01*
X98567Y70599D01*
Y70726D01*
X98628Y70772D01*
X98721D01*
X98847Y70676D01*
X98992Y70615D01*
X99149Y70595D01*
X99306Y70615D01*
X99452Y70676D01*
X99577Y70772D01*
X99673Y70897D01*
X99734Y71043D01*
X99754Y71200D01*
X99734Y71357D01*
X99673Y71503D01*
X99577Y71628D01*
X99452Y71724D01*
X99306Y71785D01*
X99149Y71805D01*
X98992Y71785D01*
X98847Y71724D01*
X98721Y71628D01*
X98628D01*
X98503Y71724D01*
X98357Y71785D01*
X98200Y71805D01*
X98043Y71785D01*
X97897Y71724D01*
X97772Y71628D01*
X97679D01*
X97553Y71724D01*
X97408Y71785D01*
X97251Y71805D01*
X97094Y71785D01*
X96989Y71741D01*
X96889Y71795D01*
X96889Y75786D01*
X96889Y75786D01*
X96889Y75786D01*
X96882Y75925D01*
X96828Y76196D01*
X96722Y76453D01*
X96568Y76683D01*
X96372Y76879D01*
X96142Y77033D01*
X95885Y77139D01*
X95614Y77193D01*
X95475Y77200D01*
X52905Y77200D01*
X52885Y77357D01*
X52824Y77503D01*
X52728Y77628D01*
X52603Y77724D01*
X52457Y77785D01*
X52300Y77805D01*
X52143Y77785D01*
X51997Y77724D01*
X51872Y77628D01*
X51776Y77503D01*
X51715Y77357D01*
X51695Y77200D01*
X50008Y77200D01*
X50008Y77200D01*
X49782Y77200D01*
X49331Y77244D01*
X48888Y77333D01*
X48455Y77464D01*
X48037Y77637D01*
X47638Y77850D01*
X47262Y78102D01*
X46913Y78388D01*
X46753Y78548D01*
X43507Y81794D01*
X43507Y81794D01*
X43507Y81794D01*
X43427Y81870D01*
X43257Y82009D01*
X43075Y82131D01*
X42881Y82235D01*
X42678Y82319D01*
X42467Y82383D01*
X42252Y82426D01*
X42033Y82447D01*
X41923Y82450D01*
X40494Y82450D01*
X40433Y82456D01*
X40371Y82450D01*
X39975Y82450D01*
X39975Y82450D01*
X39894Y82446D01*
X39735Y82414D01*
X39585Y82352D01*
X39450Y82262D01*
X39336Y82148D01*
X39246Y82013D01*
X39184Y81863D01*
X39152Y81704D01*
X39148Y81623D01*
X39148Y79998D01*
X39148Y79998D01*
X39148Y79914D01*
X39115Y79751D01*
X39051Y79596D01*
X38959Y79457D01*
X38841Y79339D01*
X38702Y79247D01*
X38547Y79183D01*
X38384Y79150D01*
X38300Y79150D01*
X37591Y79150D01*
X37545Y79169D01*
X37389Y79190D01*
X37232Y79169D01*
X37186Y79150D01*
X36549Y79150D01*
X36473Y79160D01*
X36398Y79150D01*
X32586Y79150D01*
X32412Y79185D01*
X32249Y79252D01*
X32101Y79351D01*
X31976Y79476D01*
X31877Y79624D01*
X31810Y79787D01*
X31775Y79961D01*
Y80050D01*
X31775Y83236D01*
X31775Y83336D01*
X31775Y83336D01*
X31775Y83336D01*
X31775Y83468D01*
X31801Y83731D01*
X31852Y83990D01*
X31929Y84243D01*
X32030Y84487D01*
X32155Y84720D01*
X32301Y84940D01*
X32469Y85144D01*
X32563Y85238D01*
X34801Y87476D01*
X34801Y87476D01*
X34801Y87476D01*
X34896Y87571D01*
X35105Y87743D01*
X35330Y87893D01*
X35569Y88021D01*
X35818Y88124D01*
X36077Y88203D01*
X36342Y88255D01*
X36611Y88282D01*
X36747Y88282D01*
X39303Y88282D01*
X39388Y88122D01*
X39544Y87932D01*
X39735Y87776D01*
X39952Y87660D01*
X40141Y87602D01*
Y87498D01*
X39952Y87440D01*
X39735Y87324D01*
X39544Y87168D01*
X39388Y86978D01*
X39272Y86761D01*
X39201Y86525D01*
X39177Y86280D01*
X39201Y86035D01*
X39272Y85799D01*
X39388Y85582D01*
X39544Y85392D01*
X39735Y85236D01*
X39952Y85120D01*
X40188Y85048D01*
X40433Y85024D01*
X40678Y85048D01*
X40913Y85120D01*
X41130Y85236D01*
X41321Y85392D01*
X41477Y85582D01*
X41593Y85799D01*
X41665Y86035D01*
X41689Y86280D01*
X41665Y86525D01*
X41593Y86761D01*
X41477Y86978D01*
X41321Y87168D01*
X41130Y87324D01*
X40913Y87440D01*
X40724Y87498D01*
Y87602D01*
X40913Y87660D01*
X41130Y87776D01*
X41321Y87932D01*
X41477Y88122D01*
X41562Y88282D01*
X81401Y88282D01*
X81618Y88287D01*
X82050Y88329D01*
X82475Y88414D01*
X82890Y88540D01*
X83291Y88706D01*
X83673Y88910D01*
X84034Y89151D01*
X84369Y89426D01*
X84526Y89576D01*
X85671Y90721D01*
X85671Y90721D01*
X85671Y90721D01*
X85876Y90926D01*
X86324Y91294D01*
X86807Y91616D01*
X87318Y91890D01*
X87854Y92112D01*
X88409Y92280D01*
X88978Y92393D01*
X89555Y92450D01*
X89845Y92450D01*
X97726Y92450D01*
X97726Y92450D01*
X97726Y92450D01*
X97966Y92450D01*
X98444Y92403D01*
D02*
G37*
%LPC*%
G36*
X94300Y91929D02*
X94000Y91889D01*
X93720Y91774D01*
X93480Y91589D01*
X93350Y91420D01*
X93250D01*
X93120Y91589D01*
X92880Y91774D01*
X92600Y91889D01*
X92300Y91929D01*
X92000Y91889D01*
X91720Y91774D01*
X91480Y91589D01*
X91350Y91420D01*
X91250D01*
X91120Y91589D01*
X90880Y91774D01*
X90600Y91889D01*
X90550Y91896D01*
Y90769D01*
Y89642D01*
X90600Y89649D01*
X90880Y89765D01*
X91120Y89949D01*
X91250Y90118D01*
X91350D01*
X91480Y89949D01*
X91720Y89765D01*
X92000Y89649D01*
X92300Y89609D01*
X92600Y89649D01*
X92880Y89765D01*
X93120Y89949D01*
X93250Y90118D01*
X93350D01*
X93480Y89949D01*
X93720Y89765D01*
X94000Y89649D01*
X94300Y89609D01*
X94600Y89649D01*
X94880Y89765D01*
X95120Y89949D01*
X95305Y90189D01*
X95420Y90469D01*
X95460Y90769D01*
X95420Y91069D01*
X95305Y91349D01*
X95120Y91589D01*
X94880Y91774D01*
X94600Y91889D01*
X94300Y91929D01*
D02*
G37*
G36*
X90050Y91896D02*
X90000Y91889D01*
X89720Y91774D01*
X89480Y91589D01*
X89295Y91349D01*
X89180Y91069D01*
X89173Y91019D01*
X90050D01*
Y91896D01*
D02*
G37*
G36*
Y90519D02*
X89173D01*
X89180Y90469D01*
X89295Y90189D01*
X89480Y89949D01*
X89720Y89765D01*
X90000Y89649D01*
X90050Y89642D01*
Y90519D01*
D02*
G37*
G36*
X88300Y89777D02*
X88065Y89746D01*
X87846Y89655D01*
X87658Y89511D01*
X87514Y89323D01*
X87423Y89104D01*
X87392Y88869D01*
X87423Y88634D01*
X87514Y88415D01*
X87658Y88227D01*
X87846Y88083D01*
X88065Y87992D01*
X88300Y87961D01*
X88535Y87992D01*
X88754Y88083D01*
X88942Y88227D01*
X89086Y88415D01*
X89177Y88634D01*
X89208Y88869D01*
X89177Y89104D01*
X89086Y89323D01*
X88942Y89511D01*
X88754Y89655D01*
X88535Y89746D01*
X88300Y89777D01*
D02*
G37*
G36*
X94225Y87386D02*
X94068Y87366D01*
X93922Y87305D01*
X93797Y87209D01*
X93701Y87084D01*
X93640Y86938D01*
X93620Y86781D01*
X93640Y86624D01*
X93701Y86478D01*
X93797Y86353D01*
X93922Y86257D01*
X94068Y86196D01*
X94225Y86176D01*
X94382Y86196D01*
X94528Y86257D01*
X94653Y86353D01*
X94749Y86478D01*
X94810Y86624D01*
X94830Y86781D01*
X94810Y86938D01*
X94749Y87084D01*
X94653Y87209D01*
X94528Y87305D01*
X94382Y87366D01*
X94225Y87386D01*
D02*
G37*
G36*
X59800Y87105D02*
X59643Y87085D01*
X59497Y87024D01*
X59372Y86928D01*
X59276Y86803D01*
X59215Y86657D01*
X59195Y86500D01*
X59215Y86343D01*
X59276Y86197D01*
X59372Y86072D01*
X59497Y85976D01*
X59643Y85915D01*
X59800Y85895D01*
X59957Y85915D01*
X60103Y85976D01*
X60228Y86072D01*
X60324Y86197D01*
X60385Y86343D01*
X60405Y86500D01*
X60385Y86657D01*
X60324Y86803D01*
X60228Y86928D01*
X60103Y87024D01*
X59957Y87085D01*
X59800Y87105D01*
D02*
G37*
G36*
X106293Y86878D02*
X106136Y86857D01*
X105990Y86797D01*
X105865Y86701D01*
X105769Y86575D01*
X105708Y86429D01*
X105688Y86273D01*
X105708Y86116D01*
X105769Y85970D01*
X105865Y85845D01*
X105990Y85749D01*
X106136Y85688D01*
X106293Y85668D01*
X106450Y85688D01*
X106595Y85749D01*
X106721Y85845D01*
X106817Y85970D01*
X106877Y86116D01*
X106898Y86273D01*
X106877Y86429D01*
X106817Y86575D01*
X106721Y86701D01*
X106595Y86797D01*
X106450Y86857D01*
X106293Y86878D01*
D02*
G37*
G36*
X57704Y86805D02*
X57547Y86785D01*
X57401Y86724D01*
X57276Y86628D01*
X57180Y86503D01*
X57119Y86357D01*
X57098Y86200D01*
X57119Y86043D01*
X57180Y85897D01*
X57276Y85772D01*
X57401Y85676D01*
X57547Y85615D01*
X57704Y85595D01*
X57860Y85615D01*
X58006Y85676D01*
X58132Y85772D01*
X58228Y85897D01*
X58288Y86043D01*
X58309Y86200D01*
X58288Y86357D01*
X58228Y86503D01*
X58132Y86628D01*
X58006Y86724D01*
X57860Y86785D01*
X57704Y86805D01*
D02*
G37*
G36*
X104092Y85905D02*
X103936Y85885D01*
X103790Y85824D01*
X103664Y85728D01*
X103568Y85603D01*
X103544Y85545D01*
X103430Y85530D01*
X103428Y85533D01*
X103303Y85629D01*
X103157Y85690D01*
X103000Y85710D01*
X102843Y85690D01*
X102697Y85629D01*
X102572Y85533D01*
X102476Y85408D01*
X102415Y85262D01*
X102395Y85105D01*
X102415Y84948D01*
X102476Y84802D01*
X102572Y84677D01*
X102697Y84581D01*
X102843Y84520D01*
X103000Y84500D01*
X103157Y84520D01*
X103303Y84581D01*
X103428Y84677D01*
X103524Y84802D01*
X103548Y84860D01*
X103662Y84875D01*
X103664Y84872D01*
X103765Y84795D01*
X103765Y84711D01*
X103754Y84682D01*
X103683Y84653D01*
X103558Y84557D01*
X103462Y84432D01*
X103401Y84286D01*
X103381Y84129D01*
X103401Y83972D01*
X103462Y83827D01*
X103558Y83701D01*
X103683Y83605D01*
X103829Y83545D01*
X103986Y83524D01*
X104142Y83545D01*
X104288Y83605D01*
X104344Y83647D01*
X104435Y83692D01*
X104561Y83596D01*
X104707Y83535D01*
X104863Y83515D01*
X105020Y83535D01*
X105166Y83596D01*
X105290Y83691D01*
X105314Y83707D01*
X105393D01*
X105416Y83691D01*
X105540Y83596D01*
X105686Y83535D01*
X105843Y83515D01*
X106000Y83535D01*
X106145Y83596D01*
X106271Y83692D01*
X106367Y83817D01*
X106427Y83963D01*
X106448Y84120D01*
X106427Y84276D01*
X106367Y84422D01*
X106271Y84548D01*
X106145Y84644D01*
X106000Y84704D01*
X105843Y84725D01*
X105686Y84704D01*
X105540Y84644D01*
X105416Y84549D01*
X105393Y84532D01*
X105314D01*
X105290Y84549D01*
X105166Y84644D01*
X105020Y84704D01*
X104863Y84725D01*
X104707Y84704D01*
X104561Y84644D01*
X104435Y84548D01*
X104353Y84604D01*
X104313Y84634D01*
X104313Y84719D01*
X104324Y84747D01*
X104395Y84776D01*
X104520Y84872D01*
X104616Y84997D01*
X104677Y85143D01*
X104697Y85300D01*
X104677Y85457D01*
X104616Y85603D01*
X104520Y85728D01*
X104395Y85824D01*
X104249Y85885D01*
X104092Y85905D01*
D02*
G37*
G36*
X108134Y86717D02*
X107978Y86697D01*
X107832Y86636D01*
X107707Y86540D01*
X107610Y86415D01*
X107550Y86269D01*
X107529Y86112D01*
X107550Y85955D01*
X107610Y85809D01*
X107707Y85684D01*
X107832Y85588D01*
X107978Y85528D01*
X108134Y85507D01*
X108291Y85528D01*
X108437Y85588D01*
X108562Y85684D01*
X108659Y85809D01*
X108719Y85955D01*
X108740Y86112D01*
X108719Y86269D01*
X108659Y86415D01*
X108562Y86540D01*
X108437Y86636D01*
X108291Y86697D01*
X108134Y86717D01*
D02*
G37*
G36*
X62600Y86305D02*
X62443Y86285D01*
X62297Y86224D01*
X62172Y86128D01*
X62076Y86003D01*
X62015Y85857D01*
X61995Y85700D01*
X62015Y85543D01*
X62076Y85397D01*
X62172Y85272D01*
X62297Y85176D01*
X62443Y85115D01*
X62600Y85095D01*
X62757Y85115D01*
X62903Y85176D01*
X63028Y85272D01*
X63124Y85397D01*
X63185Y85543D01*
X63205Y85700D01*
X63185Y85857D01*
X63124Y86003D01*
X63028Y86128D01*
X62903Y86224D01*
X62757Y86285D01*
X62600Y86305D01*
D02*
G37*
G36*
X37365Y85205D02*
X37208Y85185D01*
X37062Y85124D01*
X36979Y85060D01*
X36895Y85124D01*
X36749Y85185D01*
X36593Y85205D01*
X36436Y85185D01*
X36290Y85124D01*
X36177Y85037D01*
X36064Y85124D01*
X35918Y85185D01*
X35762Y85205D01*
X35605Y85185D01*
X35459Y85124D01*
X35334Y85028D01*
X35238Y84903D01*
X35177Y84757D01*
X35156Y84600D01*
X35177Y84443D01*
X35238Y84297D01*
X35312Y84200D01*
X35238Y84103D01*
X35177Y83957D01*
X35156Y83800D01*
X35177Y83643D01*
X35238Y83497D01*
X35312Y83400D01*
X35238Y83303D01*
X35177Y83157D01*
X35156Y83000D01*
X35177Y82843D01*
X35238Y82697D01*
X35334Y82572D01*
X35459Y82476D01*
X35605Y82415D01*
X35762Y82395D01*
X35918Y82415D01*
X36064Y82476D01*
X36190Y82572D01*
X36286Y82697D01*
X36346Y82843D01*
X36367Y83000D01*
X36346Y83157D01*
X36286Y83303D01*
X36211Y83400D01*
X36286Y83497D01*
X36346Y83643D01*
X36367Y83800D01*
X36348Y83944D01*
X36409Y84020D01*
X36414Y84025D01*
X36436Y84015D01*
X36593Y83995D01*
X36749Y84015D01*
X36895Y84076D01*
X36979Y84140D01*
X37062Y84076D01*
X37208Y84015D01*
X37365Y83995D01*
X37521Y84015D01*
X37667Y84076D01*
X37793Y84172D01*
X37889Y84297D01*
X37949Y84443D01*
X37970Y84600D01*
X37949Y84757D01*
X37889Y84903D01*
X37793Y85028D01*
X37667Y85124D01*
X37521Y85185D01*
X37365Y85205D01*
D02*
G37*
G36*
X77188Y85630D02*
X77031Y85610D01*
X76885Y85549D01*
X76760Y85453D01*
X76664Y85328D01*
X76603Y85182D01*
X76583Y85025D01*
X76603Y84868D01*
X76664Y84722D01*
X76760Y84597D01*
X76885Y84501D01*
X77031Y84440D01*
X77188Y84420D01*
X77345Y84440D01*
X77491Y84501D01*
X77616Y84597D01*
X77712Y84722D01*
X77773Y84868D01*
X77793Y85025D01*
X77773Y85182D01*
X77712Y85328D01*
X77616Y85453D01*
X77491Y85549D01*
X77345Y85610D01*
X77188Y85630D01*
D02*
G37*
G36*
X65800Y85605D02*
X65643Y85585D01*
X65497Y85524D01*
X65372Y85428D01*
X65276Y85303D01*
X65215Y85157D01*
X65195Y85000D01*
X65215Y84843D01*
X65276Y84697D01*
X65372Y84572D01*
X65497Y84476D01*
X65643Y84415D01*
X65800Y84395D01*
X65957Y84415D01*
X66103Y84476D01*
X66228Y84572D01*
X66324Y84697D01*
X66385Y84843D01*
X66405Y85000D01*
X66385Y85157D01*
X66324Y85303D01*
X66228Y85428D01*
X66103Y85524D01*
X65957Y85585D01*
X65800Y85605D01*
D02*
G37*
G36*
X83300Y84830D02*
X83143Y84810D01*
X82997Y84749D01*
X82872Y84653D01*
X82776Y84528D01*
X82715Y84382D01*
X82710Y84338D01*
X82610Y84333D01*
X82549Y84479D01*
X82453Y84605D01*
X82328Y84701D01*
X82182Y84761D01*
X82025Y84782D01*
X81868Y84761D01*
X81722Y84701D01*
X81597Y84605D01*
X81501Y84479D01*
X81440Y84333D01*
X81420Y84177D01*
X81440Y84020D01*
X81501Y83874D01*
X81597Y83749D01*
X81722Y83653D01*
X81868Y83592D01*
X82025Y83572D01*
X82182Y83592D01*
X82328Y83653D01*
X82453Y83749D01*
X82549Y83874D01*
X82610Y84020D01*
X82615Y84063D01*
X82715Y84068D01*
X82776Y83922D01*
X82872Y83797D01*
X82997Y83701D01*
X83143Y83640D01*
X83300Y83620D01*
X83457Y83640D01*
X83603Y83701D01*
X83728Y83797D01*
X83824Y83922D01*
X83885Y84068D01*
X83905Y84225D01*
X83885Y84382D01*
X83824Y84528D01*
X83728Y84653D01*
X83603Y84749D01*
X83457Y84810D01*
X83300Y84830D01*
D02*
G37*
G36*
X64060Y85455D02*
X63903Y85435D01*
X63757Y85374D01*
X63632Y85278D01*
X63536Y85153D01*
X63475Y85007D01*
X63455Y84850D01*
X63475Y84693D01*
X63536Y84547D01*
X63632Y84422D01*
X63757Y84326D01*
X63903Y84265D01*
X64060Y84245D01*
X64217Y84265D01*
X64363Y84326D01*
X64488Y84422D01*
X64584Y84547D01*
X64645Y84693D01*
X64665Y84850D01*
X64645Y85007D01*
X64584Y85153D01*
X64488Y85278D01*
X64363Y85374D01*
X64217Y85435D01*
X64060Y85455D01*
D02*
G37*
G36*
X68325Y85255D02*
X68168Y85235D01*
X68022Y85174D01*
X67897Y85078D01*
X67801Y84953D01*
X67740Y84807D01*
X67720Y84650D01*
X67740Y84493D01*
X67801Y84347D01*
X67897Y84222D01*
X68022Y84126D01*
X68168Y84065D01*
X68325Y84045D01*
X68482Y84065D01*
X68628Y84126D01*
X68753Y84222D01*
X68849Y84347D01*
X68910Y84493D01*
X68930Y84650D01*
X68910Y84807D01*
X68849Y84953D01*
X68753Y85078D01*
X68628Y85174D01*
X68482Y85235D01*
X68325Y85255D01*
D02*
G37*
G36*
X109895Y84900D02*
X109738Y84880D01*
X109592Y84819D01*
X109467Y84723D01*
X109371Y84598D01*
X109310Y84452D01*
X109290Y84295D01*
X109310Y84138D01*
X109371Y83992D01*
X109467Y83867D01*
X109592Y83771D01*
X109738Y83710D01*
X109895Y83690D01*
X110052Y83710D01*
X110198Y83771D01*
X110323Y83867D01*
X110419Y83992D01*
X110480Y84138D01*
X110500Y84295D01*
X110480Y84452D01*
X110419Y84598D01*
X110323Y84723D01*
X110198Y84819D01*
X110052Y84880D01*
X109895Y84900D01*
D02*
G37*
G36*
X78400Y84830D02*
X78243Y84810D01*
X78097Y84749D01*
X77972Y84653D01*
X77876Y84528D01*
X77815Y84382D01*
X77795Y84225D01*
X77815Y84068D01*
X77876Y83922D01*
X77972Y83797D01*
X78097Y83701D01*
X78243Y83640D01*
X78400Y83620D01*
X78557Y83640D01*
X78703Y83701D01*
X78828Y83797D01*
X78924Y83922D01*
X78985Y84068D01*
X79005Y84225D01*
X78985Y84382D01*
X78924Y84528D01*
X78828Y84653D01*
X78703Y84749D01*
X78557Y84810D01*
X78400Y84830D01*
D02*
G37*
G36*
X62600Y84805D02*
X62443Y84785D01*
X62297Y84724D01*
X62172Y84628D01*
X62076Y84503D01*
X62015Y84357D01*
X61995Y84200D01*
X62015Y84043D01*
X62076Y83897D01*
X62172Y83772D01*
X62297Y83676D01*
X62443Y83615D01*
X62600Y83595D01*
X62757Y83615D01*
X62903Y83676D01*
X63028Y83772D01*
X63124Y83897D01*
X63185Y84043D01*
X63205Y84200D01*
X63185Y84357D01*
X63124Y84503D01*
X63028Y84628D01*
X62903Y84724D01*
X62757Y84785D01*
X62600Y84805D01*
D02*
G37*
G36*
X80225Y84782D02*
X80068Y84761D01*
X79922Y84701D01*
X79797Y84605D01*
X79701Y84479D01*
X79640Y84333D01*
X79620Y84177D01*
X79640Y84020D01*
X79701Y83874D01*
X79797Y83749D01*
X79922Y83653D01*
X80068Y83592D01*
X80225Y83572D01*
X80382Y83592D01*
X80528Y83653D01*
X80653Y83749D01*
X80749Y83874D01*
X80810Y84020D01*
X80830Y84177D01*
X80810Y84333D01*
X80749Y84479D01*
X80653Y84605D01*
X80528Y84701D01*
X80382Y84761D01*
X80225Y84782D01*
D02*
G37*
G36*
X51425D02*
X51268Y84761D01*
X51122Y84701D01*
X50997Y84605D01*
X50901Y84479D01*
X50840Y84333D01*
X50820Y84177D01*
X50840Y84020D01*
X50901Y83874D01*
X50997Y83749D01*
X51122Y83653D01*
X51268Y83592D01*
X51425Y83572D01*
X51582Y83592D01*
X51728Y83653D01*
X51853Y83749D01*
X51949Y83874D01*
X52010Y84020D01*
X52030Y84177D01*
X52010Y84333D01*
X51949Y84479D01*
X51853Y84605D01*
X51728Y84701D01*
X51582Y84761D01*
X51425Y84782D01*
D02*
G37*
G36*
X100025Y84775D02*
X99868Y84754D01*
X99722Y84694D01*
X99597Y84598D01*
X99501Y84472D01*
X99440Y84326D01*
X99420Y84170D01*
X99440Y84013D01*
X99501Y83867D01*
X99597Y83742D01*
X99722Y83646D01*
X99868Y83585D01*
X100025Y83565D01*
X100182Y83585D01*
X100328Y83646D01*
X100453Y83742D01*
X100549Y83867D01*
X100610Y84013D01*
X100630Y84170D01*
X100610Y84326D01*
X100549Y84472D01*
X100453Y84598D01*
X100328Y84694D01*
X100182Y84754D01*
X100025Y84775D01*
D02*
G37*
G36*
X53234D02*
X53077Y84754D01*
X52931Y84694D01*
X52806Y84598D01*
X52710Y84472D01*
X52649Y84326D01*
X52629Y84170D01*
X52649Y84013D01*
X52710Y83867D01*
X52806Y83742D01*
X52931Y83646D01*
X53077Y83585D01*
X53234Y83565D01*
X53390Y83585D01*
X53536Y83646D01*
X53662Y83742D01*
X53758Y83867D01*
X53818Y84013D01*
X53839Y84170D01*
X53818Y84326D01*
X53758Y84472D01*
X53662Y84598D01*
X53536Y84694D01*
X53390Y84754D01*
X53234Y84775D01*
D02*
G37*
G36*
X55025Y84766D02*
X54868Y84746D01*
X54722Y84685D01*
X54597Y84589D01*
X54501Y84464D01*
X54440Y84318D01*
X54420Y84161D01*
X54440Y84004D01*
X54501Y83858D01*
X54597Y83733D01*
X54722Y83637D01*
X54868Y83576D01*
X55025Y83556D01*
X55182Y83576D01*
X55328Y83637D01*
X55453Y83733D01*
X55549Y83858D01*
X55610Y84004D01*
X55630Y84161D01*
X55610Y84318D01*
X55549Y84464D01*
X55453Y84589D01*
X55328Y84685D01*
X55182Y84746D01*
X55025Y84766D01*
D02*
G37*
G36*
X49625Y84755D02*
X49468Y84735D01*
X49322Y84674D01*
X49197Y84578D01*
X49101Y84453D01*
X49040Y84307D01*
X49020Y84150D01*
X49040Y83993D01*
X49101Y83847D01*
X49197Y83722D01*
X49322Y83626D01*
X49468Y83565D01*
X49625Y83545D01*
X49782Y83565D01*
X49928Y83626D01*
X50053Y83722D01*
X50149Y83847D01*
X50210Y83993D01*
X50230Y84150D01*
X50210Y84307D01*
X50149Y84453D01*
X50053Y84578D01*
X49928Y84674D01*
X49782Y84735D01*
X49625Y84755D01*
D02*
G37*
G36*
X47825Y84730D02*
X47668Y84710D01*
X47522Y84649D01*
X47397Y84553D01*
X47301Y84428D01*
X47240Y84282D01*
X47220Y84125D01*
X47240Y83968D01*
X47301Y83822D01*
X47397Y83697D01*
X47522Y83601D01*
X47668Y83540D01*
X47825Y83520D01*
X47982Y83540D01*
X48128Y83601D01*
X48253Y83697D01*
X48349Y83822D01*
X48410Y83968D01*
X48430Y84125D01*
X48410Y84282D01*
X48349Y84428D01*
X48253Y84553D01*
X48128Y84649D01*
X47982Y84710D01*
X47825Y84730D01*
D02*
G37*
G36*
X56500Y84725D02*
X56343Y84704D01*
X56197Y84644D01*
X56072Y84548D01*
X55976Y84422D01*
X55915Y84276D01*
X55895Y84120D01*
X55915Y83963D01*
X55976Y83817D01*
X56072Y83692D01*
X56197Y83596D01*
X56343Y83535D01*
X56500Y83515D01*
X56657Y83535D01*
X56803Y83596D01*
X56928Y83692D01*
X57024Y83817D01*
X57085Y83963D01*
X57105Y84120D01*
X57085Y84276D01*
X57024Y84422D01*
X56928Y84548D01*
X56803Y84644D01*
X56657Y84704D01*
X56500Y84725D01*
D02*
G37*
G36*
X59300Y84405D02*
X59143Y84385D01*
X58997Y84324D01*
X58872Y84228D01*
X58776Y84103D01*
X58715Y83957D01*
X58695Y83800D01*
X58715Y83643D01*
X58776Y83497D01*
X58872Y83372D01*
X58997Y83276D01*
X59143Y83215D01*
X59300Y83195D01*
X59457Y83215D01*
X59603Y83276D01*
X59728Y83372D01*
X59824Y83497D01*
X59885Y83643D01*
X59905Y83800D01*
X59885Y83957D01*
X59824Y84103D01*
X59728Y84228D01*
X59603Y84324D01*
X59457Y84385D01*
X59300Y84405D01*
D02*
G37*
G36*
X58350Y83480D02*
X58193Y83460D01*
X58047Y83399D01*
X57922Y83303D01*
X57826Y83178D01*
X57765Y83032D01*
X57745Y82875D01*
X57765Y82718D01*
X57826Y82572D01*
X57922Y82447D01*
X58047Y82351D01*
X58193Y82290D01*
X58350Y82270D01*
X58507Y82290D01*
X58653Y82351D01*
X58778Y82447D01*
X58874Y82572D01*
X58935Y82718D01*
X58955Y82875D01*
X58935Y83032D01*
X58874Y83178D01*
X58778Y83303D01*
X58653Y83399D01*
X58507Y83460D01*
X58350Y83480D01*
D02*
G37*
G36*
X109700Y83084D02*
X109543Y83064D01*
X109397Y83003D01*
X109272Y82907D01*
X109176Y82782D01*
X109115Y82636D01*
X109095Y82479D01*
X109115Y82323D01*
X109176Y82177D01*
X109272Y82051D01*
X109397Y81955D01*
X109543Y81895D01*
X109700Y81874D01*
X109857Y81895D01*
X110003Y81955D01*
X110128Y82051D01*
X110224Y82177D01*
X110285Y82323D01*
X110305Y82479D01*
X110285Y82636D01*
X110224Y82782D01*
X110128Y82907D01*
X110003Y83003D01*
X109857Y83064D01*
X109700Y83084D01*
D02*
G37*
G36*
X112500Y82579D02*
X112343Y82559D01*
X112197Y82498D01*
X112072Y82402D01*
X111976Y82277D01*
X111915Y82131D01*
X111895Y81974D01*
X111915Y81818D01*
X111976Y81672D01*
X112072Y81546D01*
X112197Y81450D01*
X112343Y81390D01*
X112500Y81369D01*
X112657Y81390D01*
X112803Y81450D01*
X112928Y81546D01*
X113024Y81672D01*
X113085Y81818D01*
X113105Y81974D01*
X113085Y82131D01*
X113024Y82277D01*
X112928Y82402D01*
X112803Y82498D01*
X112657Y82559D01*
X112500Y82579D01*
D02*
G37*
G36*
X85643Y81578D02*
X85486Y81558D01*
X85340Y81497D01*
X85215Y81401D01*
X85119Y81276D01*
X85107Y81248D01*
X85011Y81222D01*
X85003Y81229D01*
X84857Y81289D01*
X84700Y81310D01*
X84543Y81289D01*
X84397Y81229D01*
X84272Y81133D01*
X84176Y81007D01*
X84115Y80861D01*
X84095Y80705D01*
X84115Y80548D01*
X84176Y80402D01*
X84272Y80277D01*
X84397Y80181D01*
X84543Y80120D01*
X84700Y80099D01*
X84857Y80120D01*
X85003Y80181D01*
X85128Y80277D01*
X85224Y80402D01*
X85235Y80430D01*
X85332Y80455D01*
X85340Y80449D01*
X85486Y80389D01*
X85643Y80368D01*
X85800Y80389D01*
X85945Y80449D01*
X86071Y80545D01*
X86167Y80671D01*
X86227Y80817D01*
X86248Y80973D01*
X86227Y81130D01*
X86167Y81276D01*
X86071Y81401D01*
X85945Y81497D01*
X85800Y81558D01*
X85643Y81578D01*
D02*
G37*
G36*
X60800Y82330D02*
X60643Y82310D01*
X60497Y82249D01*
X60372Y82153D01*
X60276Y82028D01*
X60215Y81882D01*
X60195Y81725D01*
X60215Y81568D01*
X60276Y81422D01*
X60372Y81297D01*
X60497Y81201D01*
X60643Y81140D01*
X60800Y81120D01*
X60957Y81140D01*
X61103Y81201D01*
X61228Y81297D01*
X61324Y81422D01*
X61385Y81568D01*
X61405Y81725D01*
X61385Y81882D01*
X61324Y82028D01*
X61228Y82153D01*
X61103Y82249D01*
X60957Y82310D01*
X60800Y82330D01*
D02*
G37*
G36*
X69443Y81541D02*
X69286Y81521D01*
X69140Y81460D01*
X69015Y81364D01*
X68919Y81239D01*
X68858Y81093D01*
X68838Y80936D01*
X68856Y80795D01*
X68821Y80754D01*
X68774Y80721D01*
X68682Y80760D01*
X68525Y80780D01*
X68368Y80760D01*
X68222Y80699D01*
X68097Y80603D01*
X68001Y80478D01*
X67940Y80332D01*
X67920Y80175D01*
X67940Y80018D01*
X68001Y79872D01*
X68097Y79747D01*
X68222Y79651D01*
X68368Y79590D01*
X68525Y79570D01*
X68682Y79590D01*
X68828Y79651D01*
X68953Y79747D01*
X69049Y79872D01*
X69110Y80018D01*
X69130Y80175D01*
X69112Y80316D01*
X69147Y80357D01*
X69194Y80390D01*
X69286Y80351D01*
X69443Y80331D01*
X69600Y80351D01*
X69745Y80412D01*
X69871Y80508D01*
X69967Y80633D01*
X70027Y80779D01*
X70048Y80936D01*
X70027Y81093D01*
X69967Y81239D01*
X69871Y81364D01*
X69745Y81460D01*
X69600Y81521D01*
X69443Y81541D01*
D02*
G37*
G36*
X103643Y81585D02*
X103486Y81565D01*
X103340Y81504D01*
X103215Y81408D01*
X103119Y81283D01*
X103058Y81137D01*
X103038Y80980D01*
X103058Y80824D01*
X103119Y80678D01*
X103215Y80552D01*
X103340Y80456D01*
X103486Y80396D01*
X103643Y80375D01*
X103800Y80396D01*
X103945Y80456D01*
X104071Y80552D01*
X104167Y80678D01*
X104227Y80824D01*
X104248Y80980D01*
X104227Y81137D01*
X104167Y81283D01*
X104071Y81408D01*
X103945Y81504D01*
X103800Y81565D01*
X103643Y81585D01*
D02*
G37*
G36*
X96443Y81585D02*
X96286Y81565D01*
X96140Y81504D01*
X96015Y81408D01*
X95919Y81283D01*
X95858Y81137D01*
X95838Y80980D01*
X95858Y80824D01*
X95919Y80678D01*
X96015Y80552D01*
X96140Y80456D01*
X96286Y80396D01*
X96443Y80375D01*
X96600Y80396D01*
X96745Y80456D01*
X96871Y80552D01*
X96967Y80678D01*
X97027Y80824D01*
X97048Y80980D01*
X97027Y81137D01*
X96967Y81283D01*
X96871Y81408D01*
X96745Y81504D01*
X96600Y81565D01*
X96443Y81585D01*
D02*
G37*
G36*
X89238D02*
X89081Y81565D01*
X88935Y81504D01*
X88810Y81408D01*
X88714Y81283D01*
X88653Y81137D01*
X88633Y80980D01*
X88653Y80824D01*
X88714Y80678D01*
X88810Y80552D01*
X88935Y80456D01*
X89081Y80396D01*
X89238Y80375D01*
X89395Y80396D01*
X89540Y80456D01*
X89666Y80552D01*
X89762Y80678D01*
X89822Y80824D01*
X89843Y80980D01*
X89822Y81137D01*
X89762Y81283D01*
X89666Y81408D01*
X89540Y81504D01*
X89395Y81565D01*
X89238Y81585D01*
D02*
G37*
G36*
X98243Y81585D02*
X98086Y81565D01*
X97940Y81504D01*
X97815Y81408D01*
X97719Y81283D01*
X97658Y81137D01*
X97638Y80980D01*
X97658Y80824D01*
X97719Y80678D01*
X97815Y80552D01*
X97940Y80456D01*
X98086Y80396D01*
X98243Y80375D01*
X98400Y80396D01*
X98545Y80456D01*
X98671Y80552D01*
X98767Y80678D01*
X98827Y80824D01*
X98848Y80980D01*
X98827Y81137D01*
X98767Y81283D01*
X98671Y81408D01*
X98545Y81504D01*
X98400Y81565D01*
X98243Y81585D01*
D02*
G37*
G36*
X94643Y81578D02*
X94486Y81558D01*
X94340Y81497D01*
X94215Y81401D01*
X94119Y81276D01*
X94058Y81130D01*
X94038Y80973D01*
X94058Y80817D01*
X94119Y80671D01*
X94215Y80545D01*
X94340Y80449D01*
X94486Y80389D01*
X94643Y80368D01*
X94800Y80389D01*
X94945Y80449D01*
X95071Y80545D01*
X95167Y80671D01*
X95227Y80817D01*
X95248Y80973D01*
X95227Y81130D01*
X95167Y81276D01*
X95071Y81401D01*
X94945Y81497D01*
X94800Y81558D01*
X94643Y81578D01*
D02*
G37*
G36*
X91043Y81578D02*
X90886Y81558D01*
X90740Y81497D01*
X90615Y81401D01*
X90519Y81276D01*
X90458Y81130D01*
X90438Y80973D01*
X90458Y80817D01*
X90519Y80671D01*
X90615Y80545D01*
X90740Y80449D01*
X90886Y80389D01*
X91043Y80368D01*
X91200Y80389D01*
X91345Y80449D01*
X91471Y80545D01*
X91567Y80671D01*
X91627Y80817D01*
X91648Y80973D01*
X91627Y81130D01*
X91567Y81276D01*
X91471Y81401D01*
X91345Y81497D01*
X91200Y81558D01*
X91043Y81578D01*
D02*
G37*
G36*
X87443D02*
X87286Y81558D01*
X87140Y81497D01*
X87015Y81401D01*
X86919Y81276D01*
X86858Y81130D01*
X86838Y80973D01*
X86858Y80817D01*
X86919Y80671D01*
X87015Y80545D01*
X87140Y80449D01*
X87286Y80389D01*
X87443Y80368D01*
X87600Y80389D01*
X87745Y80449D01*
X87871Y80545D01*
X87967Y80671D01*
X88027Y80817D01*
X88048Y80973D01*
X88027Y81130D01*
X87967Y81276D01*
X87871Y81401D01*
X87745Y81497D01*
X87600Y81558D01*
X87443Y81578D01*
D02*
G37*
G36*
X92843Y81578D02*
X92686Y81558D01*
X92540Y81497D01*
X92415Y81401D01*
X92319Y81276D01*
X92258Y81130D01*
X92238Y80973D01*
X92258Y80817D01*
X92319Y80671D01*
X92415Y80545D01*
X92540Y80449D01*
X92686Y80389D01*
X92843Y80368D01*
X93000Y80389D01*
X93145Y80449D01*
X93271Y80545D01*
X93367Y80671D01*
X93427Y80817D01*
X93448Y80973D01*
X93427Y81130D01*
X93367Y81276D01*
X93271Y81401D01*
X93145Y81497D01*
X93000Y81558D01*
X92843Y81578D01*
D02*
G37*
G36*
X74843Y81555D02*
X74686Y81535D01*
X74540Y81474D01*
X74415Y81378D01*
X74319Y81253D01*
X74258Y81107D01*
X74238Y80950D01*
X74258Y80793D01*
X74319Y80647D01*
X74415Y80522D01*
X74540Y80426D01*
X74686Y80365D01*
X74843Y80345D01*
X75000Y80365D01*
X75145Y80426D01*
X75271Y80522D01*
X75367Y80647D01*
X75427Y80793D01*
X75448Y80950D01*
X75427Y81107D01*
X75367Y81253D01*
X75271Y81378D01*
X75145Y81474D01*
X75000Y81535D01*
X74843Y81555D01*
D02*
G37*
G36*
X71243Y81555D02*
X71086Y81535D01*
X70940Y81474D01*
X70815Y81378D01*
X70719Y81253D01*
X70658Y81107D01*
X70638Y80950D01*
X70658Y80793D01*
X70719Y80647D01*
X70815Y80522D01*
X70940Y80426D01*
X71086Y80365D01*
X71243Y80345D01*
X71400Y80365D01*
X71545Y80426D01*
X71671Y80522D01*
X71767Y80647D01*
X71827Y80793D01*
X71848Y80950D01*
X71827Y81107D01*
X71767Y81253D01*
X71671Y81378D01*
X71545Y81474D01*
X71400Y81535D01*
X71243Y81555D01*
D02*
G37*
G36*
X73343Y81462D02*
X73186Y81442D01*
X73040Y81381D01*
X72915Y81285D01*
X72819Y81160D01*
X72758Y81014D01*
X72738Y80857D01*
X72758Y80700D01*
X72819Y80555D01*
X72915Y80429D01*
X73040Y80333D01*
X73186Y80273D01*
X73343Y80252D01*
X73500Y80273D01*
X73645Y80333D01*
X73771Y80429D01*
X73867Y80555D01*
X73927Y80700D01*
X73948Y80857D01*
X73927Y81014D01*
X73867Y81160D01*
X73771Y81285D01*
X73645Y81381D01*
X73500Y81442D01*
X73343Y81462D01*
D02*
G37*
G36*
X108743Y81442D02*
X108586Y81422D01*
X108440Y81361D01*
X108315Y81265D01*
X108219Y81140D01*
X108158Y80994D01*
X108137Y80837D01*
X108158Y80680D01*
X108219Y80535D01*
X108315Y80409D01*
X108440Y80313D01*
X108586Y80253D01*
X108743Y80232D01*
X108899Y80253D01*
X109045Y80313D01*
X109171Y80409D01*
X109267Y80535D01*
X109327Y80680D01*
X109348Y80837D01*
X109327Y80994D01*
X109267Y81140D01*
X109171Y81265D01*
X109045Y81361D01*
X108899Y81422D01*
X108743Y81442D01*
D02*
G37*
G36*
X105943Y81442D02*
X105786Y81422D01*
X105640Y81361D01*
X105515Y81265D01*
X105419Y81140D01*
X105358Y80994D01*
X105338Y80837D01*
X105358Y80680D01*
X105419Y80535D01*
X105515Y80409D01*
X105640Y80313D01*
X105786Y80253D01*
X105943Y80232D01*
X106100Y80253D01*
X106245Y80313D01*
X106371Y80409D01*
X106467Y80535D01*
X106527Y80680D01*
X106548Y80837D01*
X106527Y80994D01*
X106467Y81140D01*
X106371Y81265D01*
X106245Y81361D01*
X106100Y81422D01*
X105943Y81442D01*
D02*
G37*
G36*
X62100Y81305D02*
X61943Y81285D01*
X61797Y81224D01*
X61672Y81128D01*
X61576Y81003D01*
X61515Y80857D01*
X61495Y80700D01*
X61515Y80543D01*
X61576Y80397D01*
X61672Y80272D01*
X61797Y80176D01*
X61943Y80115D01*
X62100Y80095D01*
X62257Y80115D01*
X62403Y80176D01*
X62528Y80272D01*
X62624Y80397D01*
X62685Y80543D01*
X62705Y80700D01*
X62685Y80857D01*
X62624Y81003D01*
X62528Y81128D01*
X62403Y81224D01*
X62257Y81285D01*
X62100Y81305D01*
D02*
G37*
G36*
X52195Y81280D02*
X52038Y81260D01*
X51892Y81199D01*
X51767Y81103D01*
X51671Y80978D01*
X51610Y80832D01*
X51590Y80675D01*
X51610Y80518D01*
X51671Y80372D01*
X51767Y80247D01*
X51892Y80151D01*
X52038Y80090D01*
X52195Y80070D01*
X52352Y80090D01*
X52498Y80151D01*
X52623Y80247D01*
X52719Y80372D01*
X52780Y80518D01*
X52800Y80675D01*
X52780Y80832D01*
X52719Y80978D01*
X52623Y81103D01*
X52498Y81199D01*
X52352Y81260D01*
X52195Y81280D01*
D02*
G37*
G36*
X77800Y81205D02*
X77643Y81185D01*
X77497Y81124D01*
X77372Y81028D01*
X77276Y80903D01*
X77215Y80757D01*
X77195Y80600D01*
X77215Y80443D01*
X77276Y80298D01*
X77372Y80172D01*
X77497Y80076D01*
X77643Y80016D01*
X77800Y79995D01*
X77957Y80016D01*
X78103Y80076D01*
X78228Y80172D01*
X78324Y80298D01*
X78385Y80443D01*
X78405Y80600D01*
X78385Y80757D01*
X78324Y80903D01*
X78228Y81028D01*
X78103Y81124D01*
X77957Y81185D01*
X77800Y81205D01*
D02*
G37*
G36*
X46024Y81530D02*
X45868Y81510D01*
X45722Y81449D01*
X45596Y81353D01*
X45500Y81228D01*
X45440Y81082D01*
X45419Y80925D01*
X45440Y80768D01*
X45500Y80622D01*
X45596Y80497D01*
X45722Y80401D01*
X45868Y80340D01*
X46024Y80320D01*
X46181Y80340D01*
X46298Y80389D01*
X46350Y80368D01*
X46373Y80353D01*
X46397Y80328D01*
X46414Y80193D01*
X46475Y80047D01*
X46571Y79922D01*
X46696Y79826D01*
X46842Y79765D01*
X46999Y79745D01*
X47155Y79765D01*
X47301Y79826D01*
X47427Y79922D01*
X47523Y80047D01*
X47583Y80193D01*
X47604Y80350D01*
X47583Y80507D01*
X47523Y80653D01*
X47427Y80778D01*
X47301Y80874D01*
X47155Y80935D01*
X46999Y80955D01*
X46842Y80935D01*
X46725Y80886D01*
X46673Y80907D01*
X46650Y80922D01*
X46627Y80947D01*
X46609Y81082D01*
X46549Y81228D01*
X46452Y81353D01*
X46327Y81449D01*
X46181Y81510D01*
X46024Y81530D01*
D02*
G37*
G36*
X111093Y79207D02*
X110884Y79179D01*
X110689Y79099D01*
X110522Y78971D01*
X110394Y78803D01*
X110313Y78609D01*
X110286Y78400D01*
X110313Y78191D01*
X110394Y77997D01*
X110522Y77829D01*
X110689Y77701D01*
X110884Y77621D01*
X111093Y77593D01*
X111302Y77621D01*
X111496Y77701D01*
X111663Y77829D01*
X111792Y77997D01*
X111872Y78191D01*
X111900Y78400D01*
X111872Y78609D01*
X111792Y78803D01*
X111663Y78971D01*
X111496Y79099D01*
X111302Y79179D01*
X111093Y79207D01*
D02*
G37*
G36*
X109748Y76548D02*
X109591Y76527D01*
X109445Y76467D01*
X109320Y76371D01*
X109287Y76329D01*
X109187D01*
X109171Y76350D01*
X109045Y76446D01*
X108900Y76507D01*
X108743Y76527D01*
X108586Y76507D01*
X108440Y76446D01*
X108315Y76350D01*
X108219Y76225D01*
X108158Y76079D01*
X108138Y75922D01*
X108158Y75765D01*
X108219Y75620D01*
X108315Y75494D01*
X108440Y75398D01*
X108586Y75338D01*
X108743Y75317D01*
X108900Y75338D01*
X109045Y75398D01*
X109171Y75494D01*
X109203Y75536D01*
X109303D01*
X109320Y75515D01*
X109445Y75419D01*
X109591Y75358D01*
X109748Y75338D01*
X109904Y75358D01*
X110050Y75419D01*
X110176Y75515D01*
X110272Y75640D01*
X110332Y75786D01*
X110353Y75943D01*
X110332Y76100D01*
X110272Y76245D01*
X110176Y76371D01*
X110050Y76467D01*
X109904Y76527D01*
X109748Y76548D01*
D02*
G37*
G36*
X105743Y76480D02*
X105586Y76460D01*
X105440Y76399D01*
X105315Y76303D01*
X105219Y76178D01*
X105158Y76032D01*
X105138Y75875D01*
X105158Y75718D01*
X105219Y75572D01*
X105315Y75447D01*
X105440Y75351D01*
X105586Y75290D01*
X105743Y75270D01*
X105900Y75290D01*
X106045Y75351D01*
X106171Y75447D01*
X106267Y75572D01*
X106327Y75718D01*
X106348Y75875D01*
X106327Y76032D01*
X106267Y76178D01*
X106171Y76303D01*
X106045Y76399D01*
X105900Y76460D01*
X105743Y76480D01*
D02*
G37*
G36*
X103943D02*
X103786Y76460D01*
X103640Y76399D01*
X103515Y76303D01*
X103419Y76178D01*
X103358Y76032D01*
X103338Y75875D01*
X103358Y75718D01*
X103419Y75572D01*
X103515Y75447D01*
X103640Y75351D01*
X103786Y75290D01*
X103943Y75270D01*
X104100Y75290D01*
X104245Y75351D01*
X104371Y75447D01*
X104467Y75572D01*
X104527Y75718D01*
X104548Y75875D01*
X104527Y76032D01*
X104467Y76178D01*
X104371Y76303D01*
X104245Y76399D01*
X104100Y76460D01*
X103943Y76480D01*
D02*
G37*
G36*
X110800Y74555D02*
X110643Y74535D01*
X110497Y74474D01*
X110372Y74378D01*
X110276Y74253D01*
X110215Y74107D01*
X110195Y73950D01*
X110215Y73793D01*
X110276Y73647D01*
X110372Y73522D01*
X110497Y73426D01*
X110643Y73365D01*
X110800Y73345D01*
X110957Y73365D01*
X111103Y73426D01*
X111228Y73522D01*
X111324Y73647D01*
X111385Y73793D01*
X111405Y73950D01*
X111385Y74107D01*
X111324Y74253D01*
X111228Y74378D01*
X111103Y74474D01*
X110957Y74535D01*
X110800Y74555D01*
D02*
G37*
G36*
X107043Y73276D02*
X106886Y73255D01*
X106740Y73195D01*
X106615Y73099D01*
X106578D01*
X106453Y73195D01*
X106307Y73255D01*
X106150Y73276D01*
X105993Y73255D01*
X105847Y73195D01*
X105722Y73099D01*
X105700Y73070D01*
X105600D01*
X105578Y73099D01*
X105453Y73195D01*
X105307Y73255D01*
X105150Y73276D01*
X104993Y73255D01*
X104847Y73195D01*
X104722Y73099D01*
X104626Y72974D01*
X104597Y72904D01*
X104489D01*
X104460Y72974D01*
X104364Y73099D01*
X104238Y73195D01*
X104092Y73255D01*
X103936Y73276D01*
X103779Y73255D01*
X103633Y73195D01*
X103508Y73099D01*
X103412Y72974D01*
X103351Y72828D01*
X103331Y72671D01*
X103351Y72514D01*
X103412Y72368D01*
X103508Y72243D01*
X103598Y72174D01*
X103610Y72057D01*
X103572Y72028D01*
X103476Y71903D01*
X103415Y71757D01*
X103395Y71600D01*
X103415Y71443D01*
X103476Y71297D01*
X103531Y71225D01*
X103476Y71153D01*
X103415Y71007D01*
X103395Y70850D01*
X103415Y70693D01*
X103476Y70547D01*
X103572Y70422D01*
X103697Y70326D01*
X103843Y70265D01*
X104000Y70245D01*
X104157Y70265D01*
X104303Y70326D01*
X104428Y70422D01*
X104524Y70547D01*
X104585Y70693D01*
X104605Y70850D01*
X104585Y71007D01*
X104524Y71153D01*
X104469Y71225D01*
X104524Y71297D01*
X104585Y71443D01*
X104605Y71600D01*
X104585Y71757D01*
X104524Y71903D01*
X104428Y72028D01*
X104338Y72097D01*
X104325Y72214D01*
X104364Y72243D01*
X104460Y72368D01*
X104489Y72438D01*
X104597D01*
X104626Y72368D01*
X104722Y72243D01*
X104847Y72147D01*
X104993Y72086D01*
X105150Y72066D01*
X105307Y72086D01*
X105453Y72147D01*
X105578Y72243D01*
X105600Y72272D01*
X105700D01*
X105722Y72243D01*
X105847Y72147D01*
X105993Y72086D01*
X106150Y72066D01*
X106307Y72086D01*
X106453Y72147D01*
X106578Y72243D01*
X106615D01*
X106740Y72147D01*
X106886Y72086D01*
X107043Y72066D01*
X107200Y72086D01*
X107345Y72147D01*
X107471Y72243D01*
X107567Y72368D01*
X107627Y72514D01*
X107648Y72671D01*
X107627Y72828D01*
X107567Y72974D01*
X107471Y73099D01*
X107345Y73195D01*
X107200Y73255D01*
X107043Y73276D01*
D02*
G37*
G36*
X100325Y73480D02*
X100168Y73460D01*
X100022Y73399D01*
X99897Y73303D01*
X99801Y73178D01*
X99740Y73032D01*
X99720Y72875D01*
X99740Y72718D01*
X99801Y72572D01*
X99897Y72447D01*
X100022Y72351D01*
X100168Y72290D01*
X100325Y72270D01*
X100482Y72290D01*
X100628Y72351D01*
X100753Y72447D01*
X100849Y72572D01*
X100910Y72718D01*
X100930Y72875D01*
X100910Y73032D01*
X100849Y73178D01*
X100753Y73303D01*
X100628Y73399D01*
X100482Y73460D01*
X100325Y73480D01*
D02*
G37*
G36*
X98525D02*
X98368Y73460D01*
X98222Y73399D01*
X98097Y73303D01*
X98001Y73178D01*
X97940Y73032D01*
X97920Y72875D01*
X97940Y72718D01*
X98001Y72572D01*
X98097Y72447D01*
X98222Y72351D01*
X98368Y72290D01*
X98525Y72270D01*
X98682Y72290D01*
X98828Y72351D01*
X98953Y72447D01*
X99049Y72572D01*
X99110Y72718D01*
X99130Y72875D01*
X99110Y73032D01*
X99049Y73178D01*
X98953Y73303D01*
X98828Y73399D01*
X98682Y73460D01*
X98525Y73480D01*
D02*
G37*
G36*
X108900Y73276D02*
X108743Y73255D01*
X108597Y73195D01*
X108472Y73099D01*
X108376Y72974D01*
X108315Y72828D01*
X108295Y72671D01*
X108315Y72514D01*
X108376Y72368D01*
X108472Y72243D01*
X108597Y72147D01*
X108743Y72086D01*
X108900Y72066D01*
X109057Y72086D01*
X109203Y72147D01*
X109328Y72243D01*
X109424Y72368D01*
X109485Y72514D01*
X109505Y72671D01*
X109485Y72828D01*
X109424Y72974D01*
X109328Y73099D01*
X109203Y73195D01*
X109057Y73255D01*
X108900Y73276D01*
D02*
G37*
G36*
X110800Y72330D02*
X110643Y72310D01*
X110497Y72249D01*
X110372Y72153D01*
X110276Y72028D01*
X110215Y71882D01*
X110195Y71725D01*
X110215Y71568D01*
X110276Y71422D01*
X110372Y71297D01*
X110497Y71201D01*
X110643Y71140D01*
X110800Y71120D01*
X110957Y71140D01*
X111103Y71201D01*
X111228Y71297D01*
X111324Y71422D01*
X111385Y71568D01*
X111405Y71725D01*
X111385Y71882D01*
X111324Y72028D01*
X111228Y72153D01*
X111103Y72249D01*
X110957Y72310D01*
X110800Y72330D01*
D02*
G37*
G36*
X100975Y72255D02*
X100818Y72235D01*
X100672Y72174D01*
X100547Y72078D01*
X100451Y71953D01*
X100390Y71807D01*
X100370Y71650D01*
X100390Y71493D01*
X100451Y71347D01*
X100547Y71222D01*
X100672Y71126D01*
X100818Y71065D01*
X100975Y71045D01*
X101132Y71065D01*
X101278Y71126D01*
X101403Y71222D01*
X101499Y71347D01*
X101560Y71493D01*
X101580Y71650D01*
X101560Y71807D01*
X101499Y71953D01*
X101403Y72078D01*
X101278Y72174D01*
X101132Y72235D01*
X100975Y72255D01*
D02*
G37*
G36*
X107600Y71905D02*
X107443Y71885D01*
X107297Y71824D01*
X107172Y71728D01*
X107076Y71603D01*
X107015Y71457D01*
X106995Y71300D01*
X107015Y71143D01*
X107076Y70997D01*
X107172Y70872D01*
X107297Y70776D01*
X107443Y70715D01*
X107600Y70695D01*
X107757Y70715D01*
X107903Y70776D01*
X108028Y70872D01*
X108124Y70997D01*
X108185Y71143D01*
X108205Y71300D01*
X108185Y71457D01*
X108124Y71603D01*
X108028Y71728D01*
X107903Y71824D01*
X107757Y71885D01*
X107600Y71905D01*
D02*
G37*
G36*
X109754Y70336D02*
X109598Y70316D01*
X109452Y70255D01*
X109326Y70159D01*
X109230Y70034D01*
X109186Y69927D01*
X109078D01*
X109044Y70009D01*
X108948Y70134D01*
X108823Y70230D01*
X108677Y70291D01*
X108520Y70311D01*
X108363Y70291D01*
X108217Y70230D01*
X108092Y70134D01*
X107996Y70009D01*
X107935Y69863D01*
X107915Y69706D01*
X107935Y69549D01*
X107996Y69404D01*
X108092Y69278D01*
X108217Y69182D01*
X108363Y69122D01*
X108520Y69101D01*
X108677Y69122D01*
X108823Y69182D01*
X108948Y69278D01*
X109044Y69404D01*
X109088Y69510D01*
X109196D01*
X109230Y69429D01*
X109326Y69303D01*
X109452Y69207D01*
X109598Y69147D01*
X109754Y69126D01*
X109911Y69147D01*
X110057Y69207D01*
X110182Y69303D01*
X110278Y69429D01*
X110339Y69575D01*
X110359Y69731D01*
X110339Y69888D01*
X110278Y70034D01*
X110182Y70159D01*
X110057Y70255D01*
X109911Y70316D01*
X109754Y70336D01*
D02*
G37*
G36*
X106620Y70311D02*
X106463Y70291D01*
X106317Y70230D01*
X106192Y70134D01*
X106096Y70009D01*
X106035Y69863D01*
X106015Y69706D01*
X106035Y69549D01*
X106096Y69404D01*
X106192Y69278D01*
X106317Y69182D01*
X106463Y69122D01*
X106620Y69101D01*
X106777Y69122D01*
X106923Y69182D01*
X107048Y69278D01*
X107144Y69404D01*
X107205Y69549D01*
X107225Y69706D01*
X107205Y69863D01*
X107144Y70009D01*
X107048Y70134D01*
X106923Y70230D01*
X106777Y70291D01*
X106620Y70311D01*
D02*
G37*
G36*
X105193Y70311D02*
X105036Y70291D01*
X104890Y70230D01*
X104765Y70134D01*
X104669Y70009D01*
X104608Y69863D01*
X104588Y69706D01*
X104608Y69549D01*
X104669Y69404D01*
X104765Y69278D01*
X104890Y69182D01*
X105036Y69122D01*
X105193Y69101D01*
X105350Y69122D01*
X105495Y69182D01*
X105621Y69278D01*
X105717Y69404D01*
X105777Y69549D01*
X105798Y69706D01*
X105777Y69863D01*
X105717Y70009D01*
X105621Y70134D01*
X105495Y70230D01*
X105350Y70291D01*
X105193Y70311D01*
D02*
G37*
G36*
X103826Y70030D02*
X103669Y70010D01*
X103523Y69949D01*
X103398Y69853D01*
X103302Y69728D01*
X103241Y69582D01*
X103221Y69425D01*
X103241Y69268D01*
X103302Y69122D01*
X103398Y68997D01*
X103523Y68901D01*
X103669Y68840D01*
X103826Y68820D01*
X103983Y68840D01*
X104129Y68901D01*
X104254Y68997D01*
X104350Y69122D01*
X104411Y69268D01*
X104431Y69425D01*
X104411Y69582D01*
X104350Y69728D01*
X104254Y69853D01*
X104129Y69949D01*
X103983Y70010D01*
X103826Y70030D01*
D02*
G37*
G36*
X99249Y68705D02*
X99092Y68685D01*
X98947Y68624D01*
X98821Y68528D01*
X98725Y68403D01*
X98665Y68257D01*
X98644Y68100D01*
X98665Y67943D01*
X98725Y67797D01*
X98821Y67672D01*
X98947Y67576D01*
X99092Y67515D01*
X99249Y67495D01*
X99406Y67515D01*
X99552Y67576D01*
X99677Y67672D01*
X99773Y67797D01*
X99834Y67943D01*
X99854Y68100D01*
X99834Y68257D01*
X99773Y68403D01*
X99677Y68528D01*
X99552Y68624D01*
X99406Y68685D01*
X99249Y68705D01*
D02*
G37*
G36*
X102392Y68030D02*
X102236Y68010D01*
X102090Y67949D01*
X101964Y67853D01*
X101868Y67728D01*
X101808Y67582D01*
X101787Y67425D01*
X101808Y67268D01*
X101868Y67122D01*
X101964Y66997D01*
X102090Y66901D01*
X102236Y66840D01*
X102392Y66820D01*
X102549Y66840D01*
X102695Y66901D01*
X102820Y66997D01*
X102916Y67122D01*
X102977Y67268D01*
X102998Y67425D01*
X102977Y67582D01*
X102916Y67728D01*
X102820Y67853D01*
X102695Y67949D01*
X102549Y68010D01*
X102392Y68030D01*
D02*
G37*
G36*
X105625Y67405D02*
X105468Y67385D01*
X105322Y67324D01*
X105197Y67228D01*
X105101Y67103D01*
X105040Y66957D01*
X105020Y66800D01*
X105040Y66643D01*
X105101Y66497D01*
X105197Y66372D01*
X105322Y66276D01*
X105468Y66215D01*
X105625Y66195D01*
X105782Y66215D01*
X105928Y66276D01*
X106053Y66372D01*
X106149Y66497D01*
X106210Y66643D01*
X106230Y66800D01*
X106210Y66957D01*
X106149Y67103D01*
X106053Y67228D01*
X105928Y67324D01*
X105782Y67385D01*
X105625Y67405D01*
D02*
G37*
G36*
X114575Y58280D02*
X114418Y58260D01*
X114272Y58199D01*
X114147Y58103D01*
X114051Y57978D01*
X113990Y57832D01*
X113970Y57675D01*
X113990Y57518D01*
X114051Y57372D01*
X114147Y57247D01*
X114272Y57151D01*
X114418Y57090D01*
X114575Y57070D01*
X114732Y57090D01*
X114878Y57151D01*
X115003Y57247D01*
X115099Y57372D01*
X115160Y57518D01*
X115180Y57675D01*
X115160Y57832D01*
X115099Y57978D01*
X115003Y58103D01*
X114878Y58199D01*
X114732Y58260D01*
X114575Y58280D01*
D02*
G37*
G36*
X122675Y57638D02*
X122518Y57618D01*
X122372Y57557D01*
X122247Y57461D01*
X122151Y57336D01*
X122090Y57190D01*
X122070Y57033D01*
X122090Y56877D01*
X122151Y56731D01*
X122247Y56605D01*
X122372Y56509D01*
X122518Y56449D01*
X122675Y56428D01*
X122832Y56449D01*
X122978Y56509D01*
X123103Y56605D01*
X123199Y56731D01*
X123260Y56877D01*
X123280Y57033D01*
X123260Y57190D01*
X123199Y57336D01*
X123103Y57461D01*
X122978Y57557D01*
X122832Y57618D01*
X122675Y57638D01*
D02*
G37*
G36*
X115675Y57330D02*
X115518Y57310D01*
X115372Y57249D01*
X115247Y57153D01*
X115151Y57028D01*
X115090Y56882D01*
X115070Y56725D01*
X115090Y56568D01*
X115151Y56422D01*
X115247Y56297D01*
X115372Y56201D01*
X115518Y56140D01*
X115675Y56120D01*
X115832Y56140D01*
X115978Y56201D01*
X116103Y56297D01*
X116199Y56422D01*
X116260Y56568D01*
X116280Y56725D01*
X116260Y56882D01*
X116199Y57028D01*
X116103Y57153D01*
X115978Y57249D01*
X115832Y57310D01*
X115675Y57330D01*
D02*
G37*
G36*
X112389Y57325D02*
X112232Y57304D01*
X112087Y57244D01*
X111961Y57147D01*
X111865Y57022D01*
X111805Y56876D01*
X111784Y56720D01*
X111805Y56563D01*
X111865Y56417D01*
X111961Y56292D01*
X112087Y56195D01*
X112232Y56135D01*
X112389Y56114D01*
X112546Y56135D01*
X112692Y56195D01*
X112817Y56292D01*
X112913Y56417D01*
X112974Y56563D01*
X112994Y56720D01*
X112974Y56876D01*
X112913Y57022D01*
X112817Y57147D01*
X112692Y57244D01*
X112546Y57304D01*
X112389Y57325D01*
D02*
G37*
G36*
X120875Y54155D02*
X120718Y54135D01*
X120572Y54074D01*
X120447Y53978D01*
X120351Y53853D01*
X120290Y53707D01*
X120270Y53550D01*
X120285Y53435D01*
X120222Y53356D01*
X120202Y53345D01*
X120125Y53355D01*
X119968Y53335D01*
X119822Y53274D01*
X119697Y53178D01*
X119601Y53053D01*
X119540Y52907D01*
X119520Y52750D01*
X119540Y52593D01*
X119601Y52447D01*
X119697Y52322D01*
X119822Y52226D01*
X119968Y52165D01*
X120125Y52145D01*
X120282Y52165D01*
X120428Y52226D01*
X120553Y52322D01*
X120649Y52447D01*
X120710Y52593D01*
X120730Y52750D01*
X120715Y52865D01*
X120778Y52944D01*
X120798Y52955D01*
X120875Y52945D01*
X121032Y52965D01*
X121178Y53026D01*
X121303Y53122D01*
X121399Y53247D01*
X121460Y53393D01*
X121480Y53550D01*
X121460Y53707D01*
X121399Y53853D01*
X121303Y53978D01*
X121178Y54074D01*
X121032Y54135D01*
X120875Y54155D01*
D02*
G37*
G36*
X117950Y52130D02*
X117793Y52110D01*
X117647Y52049D01*
X117522Y51953D01*
X117426Y51828D01*
X117365Y51682D01*
X117345Y51525D01*
X117365Y51368D01*
X117426Y51222D01*
X117522Y51097D01*
X117647Y51001D01*
X117793Y50940D01*
X117950Y50920D01*
X118107Y50940D01*
X118253Y51001D01*
X118378Y51097D01*
X118474Y51222D01*
X118535Y51368D01*
X118555Y51525D01*
X118535Y51682D01*
X118474Y51828D01*
X118378Y51953D01*
X118253Y52049D01*
X118107Y52110D01*
X117950Y52130D01*
D02*
G37*
G36*
X118497Y50277D02*
X118341Y50256D01*
X118195Y50196D01*
X118069Y50100D01*
X117973Y49974D01*
X117913Y49829D01*
X117892Y49672D01*
X117913Y49515D01*
X117973Y49369D01*
X118069Y49244D01*
X118195Y49148D01*
X118341Y49087D01*
X118497Y49067D01*
X118654Y49087D01*
X118800Y49148D01*
X118925Y49244D01*
X119022Y49369D01*
X119082Y49515D01*
X119103Y49672D01*
X119082Y49829D01*
X119022Y49974D01*
X118925Y50100D01*
X118800Y50196D01*
X118654Y50256D01*
X118497Y50277D01*
D02*
G37*
G36*
X120628Y47880D02*
X120472Y47860D01*
X120326Y47799D01*
X120200Y47703D01*
X120104Y47578D01*
X120044Y47432D01*
X120023Y47275D01*
X120044Y47118D01*
X120104Y46972D01*
X120200Y46847D01*
X120326Y46751D01*
X120472Y46690D01*
X120628Y46670D01*
X120785Y46690D01*
X120931Y46751D01*
X121056Y46847D01*
X121152Y46972D01*
X121213Y47118D01*
X121234Y47275D01*
X121213Y47432D01*
X121152Y47578D01*
X121056Y47703D01*
X120931Y47799D01*
X120785Y47860D01*
X120628Y47880D01*
D02*
G37*
G36*
X117129Y46830D02*
X116973Y46810D01*
X116827Y46749D01*
X116701Y46653D01*
X116605Y46528D01*
X116545Y46382D01*
X116524Y46225D01*
X116545Y46068D01*
X116605Y45922D01*
X116701Y45797D01*
X116827Y45701D01*
X116973Y45640D01*
X117129Y45620D01*
X117286Y45640D01*
X117432Y45701D01*
X117557Y45797D01*
X117653Y45922D01*
X117714Y46068D01*
X117735Y46225D01*
X117714Y46382D01*
X117653Y46528D01*
X117557Y46653D01*
X117432Y46749D01*
X117286Y46810D01*
X117129Y46830D01*
D02*
G37*
G36*
X117109Y45481D02*
X116953Y45460D01*
X116807Y45400D01*
X116681Y45304D01*
X116585Y45178D01*
X116525Y45032D01*
X116504Y44876D01*
X116525Y44719D01*
X116585Y44573D01*
X116681Y44448D01*
X116807Y44352D01*
X116953Y44291D01*
X117109Y44271D01*
X117266Y44291D01*
X117412Y44352D01*
X117537Y44448D01*
X117633Y44573D01*
X117694Y44719D01*
X117714Y44876D01*
X117694Y45032D01*
X117633Y45178D01*
X117537Y45304D01*
X117412Y45400D01*
X117266Y45460D01*
X117109Y45481D01*
D02*
G37*
G36*
X120120Y34855D02*
X119963Y34835D01*
X119817Y34774D01*
X119692Y34678D01*
X119596Y34553D01*
X119535Y34407D01*
X119515Y34250D01*
X119535Y34093D01*
X119596Y33947D01*
X119692Y33822D01*
X119817Y33726D01*
X119963Y33665D01*
X120120Y33645D01*
X120277Y33665D01*
X120423Y33726D01*
X120548Y33822D01*
X120644Y33947D01*
X120705Y34093D01*
X120725Y34250D01*
X120705Y34407D01*
X120644Y34553D01*
X120548Y34678D01*
X120423Y34774D01*
X120277Y34835D01*
X120120Y34855D01*
D02*
G37*
G36*
X128345Y34855D02*
X128188Y34835D01*
X128042Y34774D01*
X127917Y34678D01*
X127821Y34553D01*
X127760Y34407D01*
X127740Y34250D01*
X127760Y34093D01*
X127821Y33947D01*
X127917Y33822D01*
X128042Y33726D01*
X128188Y33665D01*
X128345Y33645D01*
X128502Y33665D01*
X128648Y33726D01*
X128773Y33822D01*
X128869Y33947D01*
X128930Y34093D01*
X128950Y34250D01*
X128930Y34407D01*
X128869Y34553D01*
X128773Y34678D01*
X128648Y34774D01*
X128502Y34835D01*
X128345Y34855D01*
D02*
G37*
G36*
X124925Y34855D02*
X124768Y34835D01*
X124622Y34774D01*
X124497Y34678D01*
X124401Y34553D01*
X124340Y34407D01*
X124320Y34250D01*
X124340Y34093D01*
X124401Y33947D01*
X124497Y33822D01*
X124622Y33726D01*
X124768Y33665D01*
X124925Y33645D01*
X125082Y33665D01*
X125228Y33726D01*
X125353Y33822D01*
X125449Y33947D01*
X125510Y34093D01*
X125530Y34250D01*
X125510Y34407D01*
X125449Y34553D01*
X125353Y34678D01*
X125228Y34774D01*
X125082Y34835D01*
X124925Y34855D01*
D02*
G37*
G36*
X123550D02*
X123393Y34835D01*
X123247Y34774D01*
X123122Y34678D01*
X123026Y34553D01*
X122965Y34407D01*
X122945Y34250D01*
X122965Y34093D01*
X123026Y33947D01*
X123122Y33822D01*
X123247Y33726D01*
X123393Y33665D01*
X123550Y33645D01*
X123707Y33665D01*
X123853Y33726D01*
X123978Y33822D01*
X124074Y33947D01*
X124135Y34093D01*
X124155Y34250D01*
X124135Y34407D01*
X124074Y34553D01*
X123978Y34678D01*
X123853Y34774D01*
X123707Y34835D01*
X123550Y34855D01*
D02*
G37*
G36*
X126300Y34505D02*
X126143Y34485D01*
X125997Y34424D01*
X125872Y34328D01*
X125776Y34203D01*
X125715Y34057D01*
X125695Y33900D01*
X125715Y33743D01*
X125776Y33597D01*
X125872Y33472D01*
X125997Y33376D01*
X126143Y33315D01*
X126300Y33295D01*
X126324Y33298D01*
X126395Y33227D01*
X126395Y33225D01*
X126415Y33068D01*
X126476Y32922D01*
X126572Y32797D01*
X126697Y32701D01*
X126843Y32640D01*
X127000Y32620D01*
X127157Y32640D01*
X127303Y32701D01*
X127428Y32797D01*
X127524Y32922D01*
X127585Y33068D01*
X127605Y33225D01*
X127585Y33382D01*
X127524Y33528D01*
X127428Y33653D01*
X127303Y33749D01*
X127157Y33810D01*
X127000Y33830D01*
X126976Y33827D01*
X126905Y33898D01*
X126905Y33900D01*
X126885Y34057D01*
X126824Y34203D01*
X126728Y34328D01*
X126603Y34424D01*
X126457Y34485D01*
X126300Y34505D01*
D02*
G37*
G36*
X123009Y29296D02*
X122853Y29275D01*
X122707Y29215D01*
X122581Y29119D01*
X122485Y28993D01*
X122425Y28847D01*
X122404Y28691D01*
X122425Y28534D01*
X122485Y28388D01*
X122581Y28263D01*
X122707Y28167D01*
X122853Y28106D01*
X123009Y28086D01*
X123166Y28106D01*
X123312Y28167D01*
X123437Y28263D01*
X123533Y28388D01*
X123594Y28534D01*
X123614Y28691D01*
X123594Y28847D01*
X123533Y28993D01*
X123437Y29119D01*
X123312Y29215D01*
X123166Y29275D01*
X123009Y29296D01*
D02*
G37*
%LPD*%
D85*
X90300Y90769D02*
D03*
D163*
X126500Y28717D02*
D03*
X128200Y37470D02*
D03*
X125075Y37470D02*
D03*
X123405Y37470D02*
D03*
X120265Y37470D02*
D03*
X133828Y31500D02*
D03*
X132700D02*
D03*
X131600D02*
D03*
X130500D02*
D03*
X129423D02*
D03*
X119350Y43925D02*
D03*
X120654Y44236D02*
D03*
X116279Y42975D02*
D03*
X119650Y58180D02*
D03*
X120825Y51525D02*
D03*
X118075Y59000D02*
D03*
X116755Y59775D02*
D03*
X113630Y59645D02*
D03*
X112389Y59634D02*
D03*
X35762Y80600D02*
D03*
X35762Y79800D02*
D03*
X36593Y79800D02*
D03*
X35762Y81400D02*
D03*
X34250Y80951D02*
D03*
X32620Y80251D02*
D03*
X112026Y47815D02*
D03*
X115126Y51044D02*
D03*
X108815Y51011D02*
D03*
X111901Y54186D02*
D03*
X115076D02*
D03*
X115126Y47936D02*
D03*
X108876Y47911D02*
D03*
X108901Y54186D02*
D03*
X111984Y51065D02*
D03*
X121209Y49515D02*
D03*
X34923Y81400D02*
D03*
X118100Y43927D02*
D03*
M02*
