G04*
G04 #@! TF.GenerationSoftware,Altium Limited,Altium Designer,22.7.1 (60)*
G04*
G04 Layer_Color=16711935*
%FSLAX43Y43*%
%MOMM*%
G71*
G04*
G04 #@! TF.SameCoordinates,BF121B45-6408-4E43-B4A1-C448907F0F72*
G04*
G04*
G04 #@! TF.FilePolarity,Negative*
G04*
G01*
G75*
G04:AMPARAMS|DCode=22|XSize=0.75mm|YSize=0.8mm|CornerRadius=0.131mm|HoleSize=0mm|Usage=FLASHONLY|Rotation=180.000|XOffset=0mm|YOffset=0mm|HoleType=Round|Shape=RoundedRectangle|*
%AMROUNDEDRECTD22*
21,1,0.750,0.538,0,0,180.0*
21,1,0.488,0.800,0,0,180.0*
1,1,0.263,-0.244,0.269*
1,1,0.263,0.244,0.269*
1,1,0.263,0.244,-0.269*
1,1,0.263,-0.244,-0.269*
%
%ADD22ROUNDEDRECTD22*%
G04:AMPARAMS|DCode=23|XSize=0.75mm|YSize=0.8mm|CornerRadius=0.131mm|HoleSize=0mm|Usage=FLASHONLY|Rotation=90.000|XOffset=0mm|YOffset=0mm|HoleType=Round|Shape=RoundedRectangle|*
%AMROUNDEDRECTD23*
21,1,0.750,0.538,0,0,90.0*
21,1,0.488,0.800,0,0,90.0*
1,1,0.263,0.269,0.244*
1,1,0.263,0.269,-0.244*
1,1,0.263,-0.269,-0.244*
1,1,0.263,-0.269,0.244*
%
%ADD23ROUNDEDRECTD23*%
G04:AMPARAMS|DCode=27|XSize=1.2mm|YSize=1.2mm|CornerRadius=0.188mm|HoleSize=0mm|Usage=FLASHONLY|Rotation=90.000|XOffset=0mm|YOffset=0mm|HoleType=Round|Shape=RoundedRectangle|*
%AMROUNDEDRECTD27*
21,1,1.200,0.825,0,0,90.0*
21,1,0.825,1.200,0,0,90.0*
1,1,0.375,0.413,0.413*
1,1,0.375,0.413,-0.413*
1,1,0.375,-0.413,-0.413*
1,1,0.375,-0.413,0.413*
%
%ADD27ROUNDEDRECTD27*%
G04:AMPARAMS|DCode=30|XSize=1.2mm|YSize=1.2mm|CornerRadius=0.188mm|HoleSize=0mm|Usage=FLASHONLY|Rotation=0.000|XOffset=0mm|YOffset=0mm|HoleType=Round|Shape=RoundedRectangle|*
%AMROUNDEDRECTD30*
21,1,1.200,0.825,0,0,0.0*
21,1,0.825,1.200,0,0,0.0*
1,1,0.375,0.413,-0.413*
1,1,0.375,-0.413,-0.413*
1,1,0.375,-0.413,0.413*
1,1,0.375,0.413,0.413*
%
%ADD30ROUNDEDRECTD30*%
G04:AMPARAMS|DCode=35|XSize=1.45mm|YSize=1.65mm|CornerRadius=0.219mm|HoleSize=0mm|Usage=FLASHONLY|Rotation=270.000|XOffset=0mm|YOffset=0mm|HoleType=Round|Shape=RoundedRectangle|*
%AMROUNDEDRECTD35*
21,1,1.450,1.212,0,0,270.0*
21,1,1.013,1.650,0,0,270.0*
1,1,0.438,-0.606,-0.506*
1,1,0.438,-0.606,0.506*
1,1,0.438,0.606,0.506*
1,1,0.438,0.606,-0.506*
%
%ADD35ROUNDEDRECTD35*%
G04:AMPARAMS|DCode=36|XSize=1.7mm|YSize=3.7mm|CornerRadius=0.25mm|HoleSize=0mm|Usage=FLASHONLY|Rotation=270.000|XOffset=0mm|YOffset=0mm|HoleType=Round|Shape=RoundedRectangle|*
%AMROUNDEDRECTD36*
21,1,1.700,3.200,0,0,270.0*
21,1,1.200,3.700,0,0,270.0*
1,1,0.500,-1.600,-0.600*
1,1,0.500,-1.600,0.600*
1,1,0.500,1.600,0.600*
1,1,0.500,1.600,-0.600*
%
%ADD36ROUNDEDRECTD36*%
G04:AMPARAMS|DCode=42|XSize=1.8mm|YSize=2.9mm|CornerRadius=0.263mm|HoleSize=0mm|Usage=FLASHONLY|Rotation=90.000|XOffset=0mm|YOffset=0mm|HoleType=Round|Shape=RoundedRectangle|*
%AMROUNDEDRECTD42*
21,1,1.800,2.375,0,0,90.0*
21,1,1.275,2.900,0,0,90.0*
1,1,0.525,1.188,0.638*
1,1,0.525,1.188,-0.638*
1,1,0.525,-1.188,-0.638*
1,1,0.525,-1.188,0.638*
%
%ADD42ROUNDEDRECTD42*%
G04:AMPARAMS|DCode=55|XSize=0.75mm|YSize=0.8mm|CornerRadius=0.131mm|HoleSize=0mm|Usage=FLASHONLY|Rotation=315.000|XOffset=0mm|YOffset=0mm|HoleType=Round|Shape=RoundedRectangle|*
%AMROUNDEDRECTD55*
21,1,0.750,0.538,0,0,315.0*
21,1,0.488,0.800,0,0,315.0*
1,1,0.263,-0.018,-0.362*
1,1,0.263,-0.362,-0.018*
1,1,0.263,0.018,0.362*
1,1,0.263,0.362,0.018*
%
%ADD55ROUNDEDRECTD55*%
%ADD57C,2.000*%
G04:AMPARAMS|DCode=61|XSize=0.55mm|YSize=1.6mm|CornerRadius=0.106mm|HoleSize=0mm|Usage=FLASHONLY|Rotation=180.000|XOffset=0mm|YOffset=0mm|HoleType=Round|Shape=RoundedRectangle|*
%AMROUNDEDRECTD61*
21,1,0.550,1.388,0,0,180.0*
21,1,0.338,1.600,0,0,180.0*
1,1,0.213,-0.169,0.694*
1,1,0.213,0.169,0.694*
1,1,0.213,0.169,-0.694*
1,1,0.213,-0.169,-0.694*
%
%ADD61ROUNDEDRECTD61*%
G04:AMPARAMS|DCode=62|XSize=1.9mm|YSize=2.1mm|CornerRadius=0.275mm|HoleSize=0mm|Usage=FLASHONLY|Rotation=90.000|XOffset=0mm|YOffset=0mm|HoleType=Round|Shape=RoundedRectangle|*
%AMROUNDEDRECTD62*
21,1,1.900,1.550,0,0,90.0*
21,1,1.350,2.100,0,0,90.0*
1,1,0.550,0.775,0.675*
1,1,0.550,0.775,-0.675*
1,1,0.550,-0.775,-0.675*
1,1,0.550,-0.775,0.675*
%
%ADD62ROUNDEDRECTD62*%
G04:AMPARAMS|DCode=66|XSize=1.45mm|YSize=2mm|CornerRadius=0.219mm|HoleSize=0mm|Usage=FLASHONLY|Rotation=0.000|XOffset=0mm|YOffset=0mm|HoleType=Round|Shape=RoundedRectangle|*
%AMROUNDEDRECTD66*
21,1,1.450,1.563,0,0,0.0*
21,1,1.013,2.000,0,0,0.0*
1,1,0.438,0.506,-0.781*
1,1,0.438,-0.506,-0.781*
1,1,0.438,-0.506,0.781*
1,1,0.438,0.506,0.781*
%
%ADD66ROUNDEDRECTD66*%
%ADD68C,1.508*%
%ADD69R,1.508X1.508*%
%ADD70C,0.100*%
%ADD71C,1.700*%
%ADD72C,2.103*%
%ADD73C,4.100*%
%ADD74C,1.600*%
%ADD75C,1.800*%
%ADD76R,1.800X1.800*%
%ADD77C,2.500*%
%ADD78C,3.350*%
%ADD79C,1.900*%
%ADD80C,2.700*%
%ADD81C,1.200*%
G04:AMPARAMS|DCode=160|XSize=1.05mm|YSize=0.4mm|CornerRadius=0.088mm|HoleSize=0mm|Usage=FLASHONLY|Rotation=0.000|XOffset=0mm|YOffset=0mm|HoleType=Round|Shape=RoundedRectangle|*
%AMROUNDEDRECTD160*
21,1,1.050,0.225,0,0,0.0*
21,1,0.875,0.400,0,0,0.0*
1,1,0.175,0.438,-0.113*
1,1,0.175,-0.438,-0.113*
1,1,0.175,-0.438,0.113*
1,1,0.175,0.438,0.113*
%
%ADD160ROUNDEDRECTD160*%
G04:AMPARAMS|DCode=161|XSize=0.63mm|YSize=0.38mm|CornerRadius=0.085mm|HoleSize=0mm|Usage=FLASHONLY|Rotation=90.000|XOffset=0mm|YOffset=0mm|HoleType=Round|Shape=RoundedRectangle|*
%AMROUNDEDRECTD161*
21,1,0.630,0.210,0,0,90.0*
21,1,0.460,0.380,0,0,90.0*
1,1,0.170,0.105,0.230*
1,1,0.170,0.105,-0.230*
1,1,0.170,-0.105,-0.230*
1,1,0.170,-0.105,0.230*
%
%ADD161ROUNDEDRECTD161*%
G04:AMPARAMS|DCode=162|XSize=0.63mm|YSize=0.38mm|CornerRadius=0.085mm|HoleSize=0mm|Usage=FLASHONLY|Rotation=0.000|XOffset=0mm|YOffset=0mm|HoleType=Round|Shape=RoundedRectangle|*
%AMROUNDEDRECTD162*
21,1,0.630,0.210,0,0,0.0*
21,1,0.460,0.380,0,0,0.0*
1,1,0.170,0.230,-0.105*
1,1,0.170,-0.230,-0.105*
1,1,0.170,-0.230,0.105*
1,1,0.170,0.230,0.105*
%
%ADD162ROUNDEDRECTD162*%
G04:AMPARAMS|DCode=163|XSize=1.6mm|YSize=1.35mm|CornerRadius=0.206mm|HoleSize=0mm|Usage=FLASHONLY|Rotation=180.000|XOffset=0mm|YOffset=0mm|HoleType=Round|Shape=RoundedRectangle|*
%AMROUNDEDRECTD163*
21,1,1.600,0.938,0,0,180.0*
21,1,1.188,1.350,0,0,180.0*
1,1,0.413,-0.594,0.469*
1,1,0.413,0.594,0.469*
1,1,0.413,0.594,-0.469*
1,1,0.413,-0.594,-0.469*
%
%ADD163ROUNDEDRECTD163*%
G04:AMPARAMS|DCode=164|XSize=1.45mm|YSize=2mm|CornerRadius=0.219mm|HoleSize=0mm|Usage=FLASHONLY|Rotation=270.000|XOffset=0mm|YOffset=0mm|HoleType=Round|Shape=RoundedRectangle|*
%AMROUNDEDRECTD164*
21,1,1.450,1.563,0,0,270.0*
21,1,1.013,2.000,0,0,270.0*
1,1,0.438,-0.781,-0.506*
1,1,0.438,-0.781,0.506*
1,1,0.438,0.781,0.506*
1,1,0.438,0.781,-0.506*
%
%ADD164ROUNDEDRECTD164*%
G04:AMPARAMS|DCode=165|XSize=7.4mm|YSize=7.4mm|CornerRadius=0.233mm|HoleSize=0mm|Usage=FLASHONLY|Rotation=270.000|XOffset=0mm|YOffset=0mm|HoleType=Round|Shape=RoundedRectangle|*
%AMROUNDEDRECTD165*
21,1,7.400,6.935,0,0,270.0*
21,1,6.935,7.400,0,0,270.0*
1,1,0.465,-3.468,-3.468*
1,1,0.465,-3.468,3.468*
1,1,0.465,3.468,3.468*
1,1,0.465,3.468,-3.468*
%
%ADD165ROUNDEDRECTD165*%
G04:AMPARAMS|DCode=166|XSize=1.05mm|YSize=0.4mm|CornerRadius=0.088mm|HoleSize=0mm|Usage=FLASHONLY|Rotation=90.000|XOffset=0mm|YOffset=0mm|HoleType=Round|Shape=RoundedRectangle|*
%AMROUNDEDRECTD166*
21,1,1.050,0.225,0,0,90.0*
21,1,0.875,0.400,0,0,90.0*
1,1,0.175,0.113,0.438*
1,1,0.175,0.113,-0.438*
1,1,0.175,-0.113,-0.438*
1,1,0.175,-0.113,0.438*
%
%ADD166ROUNDEDRECTD166*%
G04:AMPARAMS|DCode=167|XSize=0.71mm|YSize=0.7mm|CornerRadius=0.125mm|HoleSize=0mm|Usage=FLASHONLY|Rotation=270.000|XOffset=0mm|YOffset=0mm|HoleType=Round|Shape=RoundedRectangle|*
%AMROUNDEDRECTD167*
21,1,0.710,0.450,0,0,270.0*
21,1,0.460,0.700,0,0,270.0*
1,1,0.250,-0.225,-0.230*
1,1,0.250,-0.225,0.230*
1,1,0.250,0.225,0.230*
1,1,0.250,0.225,-0.230*
%
%ADD167ROUNDEDRECTD167*%
G04:AMPARAMS|DCode=168|XSize=2.1mm|YSize=0.45mm|CornerRadius=0.094mm|HoleSize=0mm|Usage=FLASHONLY|Rotation=270.000|XOffset=0mm|YOffset=0mm|HoleType=Round|Shape=RoundedRectangle|*
%AMROUNDEDRECTD168*
21,1,2.100,0.263,0,0,270.0*
21,1,1.913,0.450,0,0,270.0*
1,1,0.188,-0.131,-0.956*
1,1,0.188,-0.131,0.956*
1,1,0.188,0.131,0.956*
1,1,0.188,0.131,-0.956*
%
%ADD168ROUNDEDRECTD168*%
G04:AMPARAMS|DCode=169|XSize=4.7mm|YSize=4.6mm|CornerRadius=0.613mm|HoleSize=0mm|Usage=FLASHONLY|Rotation=270.000|XOffset=0mm|YOffset=0mm|HoleType=Round|Shape=RoundedRectangle|*
%AMROUNDEDRECTD169*
21,1,4.700,3.375,0,0,270.0*
21,1,3.475,4.600,0,0,270.0*
1,1,1.225,-1.688,-1.738*
1,1,1.225,-1.688,1.738*
1,1,1.225,1.688,1.738*
1,1,1.225,1.688,-1.738*
%
%ADD169ROUNDEDRECTD169*%
G04:AMPARAMS|DCode=170|XSize=0.75mm|YSize=0.75mm|CornerRadius=0.131mm|HoleSize=0mm|Usage=FLASHONLY|Rotation=0.000|XOffset=0mm|YOffset=0mm|HoleType=Round|Shape=RoundedRectangle|*
%AMROUNDEDRECTD170*
21,1,0.750,0.488,0,0,0.0*
21,1,0.488,0.750,0,0,0.0*
1,1,0.263,0.244,-0.244*
1,1,0.263,-0.244,-0.244*
1,1,0.263,-0.244,0.244*
1,1,0.263,0.244,0.244*
%
%ADD170ROUNDEDRECTD170*%
G04:AMPARAMS|DCode=171|XSize=0.9mm|YSize=0.7mm|CornerRadius=0.125mm|HoleSize=0mm|Usage=FLASHONLY|Rotation=270.000|XOffset=0mm|YOffset=0mm|HoleType=Round|Shape=RoundedRectangle|*
%AMROUNDEDRECTD171*
21,1,0.900,0.450,0,0,270.0*
21,1,0.650,0.700,0,0,270.0*
1,1,0.250,-0.225,-0.325*
1,1,0.250,-0.225,0.325*
1,1,0.250,0.225,0.325*
1,1,0.250,0.225,-0.325*
%
%ADD171ROUNDEDRECTD171*%
G36*
X80050Y109972D02*
X82250Y109933D01*
X83350Y109897D01*
X84450Y109838D01*
X85650Y109774D01*
X86550Y109697D01*
X88602Y109514D01*
X90850Y109231D01*
X91950Y109074D01*
X92935Y108915D01*
X94050Y108734D01*
X94942Y108564D01*
X97055Y108144D01*
X99950Y107455D01*
X102778Y106672D01*
X106043Y105650D01*
X107750Y105019D01*
X109336Y104405D01*
X111650Y103453D01*
X112986Y102872D01*
X114150Y102328D01*
X115350Y101754D01*
X116450Y101201D01*
X117750Y100521D01*
X118850Y99924D01*
X121035Y98672D01*
X123301Y97272D01*
X125450Y95836D01*
X127350Y94478D01*
X128850Y93349D01*
X130596Y91972D01*
X133950Y89075D01*
X136482Y86672D01*
X138973Y84072D01*
X140150Y82762D01*
X141250Y81475D01*
X143350Y78871D01*
X144350Y77558D01*
X145250Y76310D01*
X146182Y74972D01*
X147050Y73672D01*
X147629Y72772D01*
X148185Y71872D01*
X148750Y70957D01*
X149205Y70172D01*
X150450Y67957D01*
X151541Y65872D01*
X153444Y61772D01*
X154124Y60172D01*
X154714Y58672D01*
X155308Y57072D01*
X155802Y55672D01*
X156750Y52700D01*
X157565Y49756D01*
X158150Y47281D01*
X158642Y44864D01*
X159087Y42272D01*
X159414Y39940D01*
X159560Y38772D01*
X159668Y37672D01*
X159784Y36372D01*
X159868Y35272D01*
X159998Y32892D01*
X160034Y30872D01*
X160046Y29772D01*
X160030Y28872D01*
X160001Y27272D01*
X159927Y25773D01*
X159842Y24201D01*
X159712Y22763D01*
X159613Y21672D01*
X159498Y20672D01*
X159257Y18772D01*
X158957Y16872D01*
X158793Y15872D01*
X158642Y15072D01*
X158083Y12372D01*
X157308Y9217D01*
X156376Y6000D01*
X155455Y3250D01*
X154212Y-50D01*
X148906Y-50D01*
X149069Y469D01*
X150800Y6000D01*
X152950Y12572D01*
X153365Y14387D01*
X153750Y16272D01*
X153889Y17073D01*
X154078Y18167D01*
X154550Y21472D01*
X154945Y26372D01*
Y27672D01*
X155023Y28872D01*
X154945Y33072D01*
X154750Y36072D01*
X154550Y38172D01*
X154250Y40772D01*
X153960Y42472D01*
X153650Y44072D01*
X152950Y47372D01*
X152150Y50472D01*
X151150Y53672D01*
X150350Y55972D01*
X149050Y59272D01*
X147750Y62172D01*
X145764Y66072D01*
X143482Y69904D01*
X142149Y71983D01*
X140847Y73770D01*
X139541Y75563D01*
X138050Y77472D01*
X135450Y80472D01*
X132302Y83724D01*
X129050Y86672D01*
X126850Y88523D01*
X124450Y90372D01*
X121750Y92263D01*
X119250Y93872D01*
X114735Y96457D01*
X108950Y99172D01*
X103450Y101201D01*
X100550Y102072D01*
X98490Y102632D01*
X95250Y103372D01*
X92550Y103882D01*
X88950Y104405D01*
X87250Y104572D01*
X85950Y104672D01*
X84352Y104795D01*
X82550Y104872D01*
X80050Y104928D01*
Y104950D01*
X77550Y104894D01*
X75748Y104817D01*
X74150Y104694D01*
X72850Y104594D01*
X71150Y104427D01*
X67550Y103904D01*
X64850Y103394D01*
X61610Y102654D01*
X59550Y102094D01*
X56650Y101223D01*
X51150Y99194D01*
X45365Y96479D01*
X40850Y93894D01*
X38350Y92285D01*
X35650Y90394D01*
X33250Y88546D01*
X31050Y86694D01*
X27798Y83746D01*
X24650Y80494D01*
X22050Y77494D01*
X20559Y75585D01*
X19253Y73792D01*
X17952Y72005D01*
X16618Y69926D01*
X14336Y66094D01*
X12350Y62194D01*
X11050Y59294D01*
X9750Y55994D01*
X8950Y53694D01*
X7950Y50494D01*
X7150Y47394D01*
X6450Y44094D01*
X6140Y42494D01*
X5850Y40794D01*
X5550Y38194D01*
X5350Y36094D01*
X5155Y33094D01*
X5077Y28894D01*
X5155Y27694D01*
Y26394D01*
X5550Y21494D01*
X6022Y18189D01*
X6211Y17095D01*
X6350Y16294D01*
X6735Y14409D01*
X7150Y12594D01*
X11249Y-50D01*
X5888D01*
X4730Y3000D01*
X3724Y6000D01*
X2791Y9223D01*
X2017Y12394D01*
X1458Y15094D01*
X1307Y15894D01*
X1143Y16894D01*
X843Y18794D01*
X602Y20694D01*
X487Y21694D01*
X389Y22785D01*
X258Y24223D01*
X173Y25795D01*
X99Y27294D01*
X70Y28894D01*
X54Y29794D01*
X66Y30894D01*
X102Y32914D01*
X232Y35294D01*
X316Y36394D01*
X432Y37694D01*
X540Y38794D01*
X686Y39962D01*
X1013Y42294D01*
X1458Y44886D01*
X1950Y47303D01*
X2535Y49778D01*
X3350Y52722D01*
X4298Y55694D01*
X4792Y57094D01*
X5386Y58694D01*
X5977Y60194D01*
X6656Y61794D01*
X8559Y65894D01*
X9650Y67979D01*
X10895Y70194D01*
X11350Y70979D01*
X11915Y71894D01*
X12471Y72794D01*
X13050Y73694D01*
X13918Y74994D01*
X14850Y76332D01*
X15750Y77580D01*
X16750Y78893D01*
X18850Y81497D01*
X19950Y82784D01*
X21127Y84094D01*
X23618Y86694D01*
X26150Y89097D01*
X29504Y91994D01*
X31250Y93371D01*
X32750Y94500D01*
X34650Y95858D01*
X36799Y97294D01*
X39065Y98694D01*
X41250Y99946D01*
X42350Y100543D01*
X43650Y101223D01*
X44750Y101776D01*
X45950Y102350D01*
X47114Y102894D01*
X48450Y103475D01*
X50764Y104427D01*
X52350Y105041D01*
X54057Y105672D01*
X57322Y106694D01*
X60150Y107477D01*
X63045Y108166D01*
X65158Y108586D01*
X66050Y108756D01*
X67166Y108937D01*
X68150Y109096D01*
X69250Y109253D01*
X71498Y109536D01*
X73550Y109719D01*
X74450Y109796D01*
X75650Y109860D01*
X76750Y109919D01*
X77850Y109955D01*
X80050Y109994D01*
Y109972D01*
D02*
G37*
D22*
X58800Y94901D02*
D03*
X59825D02*
D03*
X63540Y94905D02*
D03*
X64565D02*
D03*
X116332Y61582D02*
D03*
X117332D02*
D03*
Y62582D02*
D03*
X116332D02*
D03*
Y63582D02*
D03*
X117332D02*
D03*
X138161Y20186D02*
D03*
X137136D02*
D03*
X137206Y31511D02*
D03*
X138231D02*
D03*
X84400Y31450D02*
D03*
X83400D02*
D03*
Y29350D02*
D03*
X84400D02*
D03*
X83400Y30395D02*
D03*
X84425D02*
D03*
X134392Y49970D02*
D03*
X133367D02*
D03*
X121750Y49420D02*
D03*
X122775D02*
D03*
X87700Y59032D02*
D03*
X86675D02*
D03*
X79539Y58740D02*
D03*
X80564D02*
D03*
X80575Y61780D02*
D03*
X79550D02*
D03*
Y62771D02*
D03*
X80575D02*
D03*
X79550Y64230D02*
D03*
X80575D02*
D03*
X79555Y65230D02*
D03*
X80580D02*
D03*
X106163Y56412D02*
D03*
X105163D02*
D03*
X103093Y54927D02*
D03*
X102068D02*
D03*
X106488Y57502D02*
D03*
X105463D02*
D03*
X106488Y59502D02*
D03*
X105463D02*
D03*
Y58502D02*
D03*
X106488D02*
D03*
X110450Y54720D02*
D03*
X109425D02*
D03*
Y55720D02*
D03*
X110450D02*
D03*
X109425Y56720D02*
D03*
X110450D02*
D03*
X110475Y58720D02*
D03*
X109450D02*
D03*
X110512Y62974D02*
D03*
X109487D02*
D03*
X109488Y61976D02*
D03*
X110513D02*
D03*
X109425Y64220D02*
D03*
X110450D02*
D03*
X99250Y66442D02*
D03*
X98225D02*
D03*
X101135Y66448D02*
D03*
X100135D02*
D03*
X103165Y66439D02*
D03*
X102140D02*
D03*
X96185Y66446D02*
D03*
X97210D02*
D03*
X90815Y59052D02*
D03*
X91840D02*
D03*
X91127Y61095D02*
D03*
X92152D02*
D03*
X91122Y64663D02*
D03*
X92122D02*
D03*
X92140Y63569D02*
D03*
X91115D02*
D03*
X92115Y65757D02*
D03*
X91090D02*
D03*
D23*
X94700Y49225D02*
D03*
Y50225D02*
D03*
X94390Y39562D02*
D03*
Y38537D02*
D03*
X100849Y38550D02*
D03*
Y39575D02*
D03*
X110680Y41075D02*
D03*
Y40050D02*
D03*
X107376Y39500D02*
D03*
Y38475D02*
D03*
X104124Y41088D02*
D03*
Y40063D02*
D03*
X97649Y40163D02*
D03*
Y41188D02*
D03*
X80568Y26900D02*
D03*
Y25900D02*
D03*
X79544Y25900D02*
D03*
Y26900D02*
D03*
X78524D02*
D03*
Y25900D02*
D03*
X77474Y26900D02*
D03*
Y25900D02*
D03*
X95645Y49210D02*
D03*
Y50235D02*
D03*
X76467Y25875D02*
D03*
Y26875D02*
D03*
X108750Y23550D02*
D03*
Y22550D02*
D03*
X108730Y24575D02*
D03*
Y25600D02*
D03*
X102424Y22550D02*
D03*
Y23550D02*
D03*
X102430Y24575D02*
D03*
Y25600D02*
D03*
X96070Y23475D02*
D03*
Y22475D02*
D03*
X96080Y25475D02*
D03*
Y24450D02*
D03*
X89675Y22500D02*
D03*
Y23500D02*
D03*
X89655Y24475D02*
D03*
Y25500D02*
D03*
X99444Y49190D02*
D03*
Y50215D02*
D03*
X100445Y50215D02*
D03*
Y49190D02*
D03*
X98835Y53782D02*
D03*
Y54782D02*
D03*
X132570Y41100D02*
D03*
Y40075D02*
D03*
X103475Y97050D02*
D03*
Y96050D02*
D03*
X104595Y96044D02*
D03*
Y97069D02*
D03*
X91184Y40176D02*
D03*
Y41201D02*
D03*
X87924Y38563D02*
D03*
Y39588D02*
D03*
X82601Y23175D02*
D03*
Y24175D02*
D03*
X81571D02*
D03*
Y23175D02*
D03*
X83629Y25900D02*
D03*
Y26900D02*
D03*
X82614D02*
D03*
Y25900D02*
D03*
X81595D02*
D03*
Y26900D02*
D03*
X80305Y34325D02*
D03*
Y33300D02*
D03*
X79270Y34125D02*
D03*
Y33100D02*
D03*
X81320Y33300D02*
D03*
Y34325D02*
D03*
X82370Y33100D02*
D03*
Y34125D02*
D03*
X83432D02*
D03*
Y33100D02*
D03*
X131580Y51725D02*
D03*
Y52750D02*
D03*
X128847Y50075D02*
D03*
Y49075D02*
D03*
X130045Y50082D02*
D03*
Y49057D02*
D03*
X126097Y52755D02*
D03*
Y51730D02*
D03*
X107445Y50275D02*
D03*
Y49250D02*
D03*
X106445D02*
D03*
Y50275D02*
D03*
X82455Y50250D02*
D03*
Y49225D02*
D03*
X83455D02*
D03*
Y50250D02*
D03*
X89455Y49200D02*
D03*
Y50225D02*
D03*
X90455D02*
D03*
Y49200D02*
D03*
X93755Y50240D02*
D03*
Y49215D02*
D03*
X80555Y53700D02*
D03*
Y54725D02*
D03*
Y56750D02*
D03*
Y55725D02*
D03*
X90980Y55750D02*
D03*
Y54725D02*
D03*
X92021Y54737D02*
D03*
Y55737D02*
D03*
X93020Y55750D02*
D03*
Y54725D02*
D03*
X94809Y53532D02*
D03*
Y54557D02*
D03*
X95830Y53508D02*
D03*
Y54533D02*
D03*
X100448Y54782D02*
D03*
Y53757D02*
D03*
D27*
X131875Y5500D02*
D03*
Y3900D02*
D03*
D30*
X83400Y58975D02*
D03*
X85000Y58975D02*
D03*
D35*
X12950Y9275D02*
D03*
Y7275D02*
D03*
D36*
X30500Y78425D02*
D03*
X30500Y82925D02*
D03*
X34907Y78442D02*
D03*
Y82942D02*
D03*
D42*
X102420Y28510D02*
D03*
Y31510D02*
D03*
D55*
X124734Y76649D02*
D03*
X124010Y77373D02*
D03*
D57*
X86175Y34525D02*
D03*
X74000Y26560D02*
D03*
X93900Y67975D02*
D03*
X105550Y53182D02*
D03*
X9500Y15670D02*
D03*
X8775Y24825D02*
D03*
X9550Y43200D02*
D03*
X8725Y33975D02*
D03*
D61*
X63375Y21422D02*
D03*
X64025Y21422D02*
D03*
X64675D02*
D03*
X65325Y21422D02*
D03*
X63375Y16972D02*
D03*
X64025Y16972D02*
D03*
X64675Y16972D02*
D03*
X65325D02*
D03*
X63375Y32425D02*
D03*
X64025Y32425D02*
D03*
X64675Y32425D02*
D03*
X65325D02*
D03*
X63375Y27975D02*
D03*
X64025Y27975D02*
D03*
X64675Y27975D02*
D03*
X65325Y27975D02*
D03*
X46118Y20272D02*
D03*
X45468D02*
D03*
X44818D02*
D03*
X44168D02*
D03*
X46118Y24722D02*
D03*
X45468Y24722D02*
D03*
X44818D02*
D03*
X44168Y24722D02*
D03*
X46107Y31300D02*
D03*
X45457Y31300D02*
D03*
X44807Y31300D02*
D03*
X44157D02*
D03*
X46107Y35750D02*
D03*
X45457Y35750D02*
D03*
X44807Y35750D02*
D03*
X44157D02*
D03*
X46105Y42299D02*
D03*
X45455D02*
D03*
X44805D02*
D03*
X44155D02*
D03*
X46105Y46749D02*
D03*
X45455Y46749D02*
D03*
X44805Y46749D02*
D03*
X44155Y46749D02*
D03*
X63320Y43442D02*
D03*
X63970D02*
D03*
X64619D02*
D03*
X65270D02*
D03*
X63320Y38992D02*
D03*
X63970D02*
D03*
X64619Y38992D02*
D03*
X65270Y38992D02*
D03*
X46105Y53274D02*
D03*
X45455D02*
D03*
X44805D02*
D03*
X44155D02*
D03*
X46105Y57724D02*
D03*
X45455Y57724D02*
D03*
X44805D02*
D03*
X44155Y57724D02*
D03*
X63305Y54449D02*
D03*
X63955D02*
D03*
X64605D02*
D03*
X65255D02*
D03*
X63305Y49999D02*
D03*
X63955D02*
D03*
X64605Y49999D02*
D03*
X65255Y49999D02*
D03*
X63460Y65450D02*
D03*
X64110D02*
D03*
X64760Y65450D02*
D03*
X65410Y65450D02*
D03*
X63460Y61000D02*
D03*
X64110Y61000D02*
D03*
X64760Y61000D02*
D03*
X65410D02*
D03*
X46087Y64300D02*
D03*
X45437D02*
D03*
X44787D02*
D03*
X44137D02*
D03*
X46087Y68750D02*
D03*
X45437Y68750D02*
D03*
X44787Y68750D02*
D03*
X44137D02*
D03*
D62*
X87480Y61085D02*
D03*
X83280D02*
D03*
Y66165D02*
D03*
X87480Y66165D02*
D03*
D66*
X82425Y97450D02*
D03*
X85625D02*
D03*
D68*
X55236Y1675D02*
D03*
X86850Y1675D02*
D03*
X94470D02*
D03*
X93199Y4215D02*
D03*
X90659Y4215D02*
D03*
X91930Y1675D02*
D03*
X89390D02*
D03*
X88119Y4215D02*
D03*
X107725D02*
D03*
X108995Y1675D02*
D03*
X111535D02*
D03*
X110265Y4215D02*
D03*
X112805Y4215D02*
D03*
X114075Y1675D02*
D03*
X106455D02*
D03*
X67250Y1675D02*
D03*
X74870D02*
D03*
X73600Y4215D02*
D03*
X71060Y4215D02*
D03*
X72330Y1675D02*
D03*
X69790D02*
D03*
X68520Y4215D02*
D03*
X48886Y4215D02*
D03*
X50156Y1675D02*
D03*
X52696D02*
D03*
X51426Y4215D02*
D03*
X53966Y4215D02*
D03*
X47616Y1675D02*
D03*
D69*
X56506Y4215D02*
D03*
X95739Y4215D02*
D03*
X115345D02*
D03*
X76140Y4215D02*
D03*
D70*
X75122Y99425D02*
D03*
X66150Y99425D02*
D03*
X141400Y61040D02*
D03*
X146475Y31975D02*
D03*
X144201Y12883D02*
D03*
X136475Y12890D02*
D03*
X149450Y31975D02*
D03*
X52168Y16847D02*
D03*
X57375Y24847D02*
D03*
X57375Y35850D02*
D03*
X57381Y46867D02*
D03*
X57380Y57874D02*
D03*
X117646Y88437D02*
D03*
X57385Y68875D02*
D03*
X52162Y60875D02*
D03*
X52180Y38867D02*
D03*
X52175Y27875D02*
D03*
X52180Y49849D02*
D03*
D71*
X73122Y97525D02*
D03*
X71122D02*
D03*
X62150Y97525D02*
D03*
X64150D02*
D03*
X46464Y88957D02*
D03*
D72*
X13000Y15670D02*
D03*
X12275Y24825D02*
D03*
X13050Y43200D02*
D03*
X12225Y33975D02*
D03*
D73*
X2550Y29950D02*
D03*
X12933Y68700D02*
D03*
X41300Y97067D02*
D03*
X80050Y107450D02*
D03*
X118800Y97067D02*
D03*
X147167Y68700D02*
D03*
X157550Y29950D02*
D03*
D74*
X86575Y100609D02*
D03*
X84035D02*
D03*
X81495Y100609D02*
D03*
X78955Y100609D02*
D03*
X129070Y4155D02*
D03*
Y6695D02*
D03*
Y9235D02*
D03*
Y11775D02*
D03*
D75*
X90600Y97850D02*
D03*
X123675Y66226D02*
D03*
X96835Y97850D02*
D03*
D76*
X93140D02*
D03*
X121135Y66226D02*
D03*
X99375Y97850D02*
D03*
D77*
X99170Y7625D02*
D03*
X83420D02*
D03*
X103025D02*
D03*
X118775D02*
D03*
X79570Y7625D02*
D03*
X63820D02*
D03*
X44186Y7625D02*
D03*
X59936D02*
D03*
D78*
X85570Y10575D02*
D03*
X97000Y10575D02*
D03*
X116605D02*
D03*
X105175Y10575D02*
D03*
X65970Y10575D02*
D03*
X77400Y10575D02*
D03*
X57766Y10575D02*
D03*
X46336Y10575D02*
D03*
D79*
X143300Y55040D02*
D03*
Y57040D02*
D03*
Y59040D02*
D03*
X144575Y29975D02*
D03*
Y23975D02*
D03*
Y25975D02*
D03*
Y27975D02*
D03*
X146101Y8883D02*
D03*
Y6883D02*
D03*
Y4883D02*
D03*
Y10883D02*
D03*
X138375Y10890D02*
D03*
Y4890D02*
D03*
Y6890D02*
D03*
Y8890D02*
D03*
X151350Y27975D02*
D03*
Y25975D02*
D03*
Y23975D02*
D03*
Y29975D02*
D03*
X50268Y22847D02*
D03*
X50268Y20847D02*
D03*
Y18847D02*
D03*
X59275D02*
D03*
Y20847D02*
D03*
Y22847D02*
D03*
X59275Y29850D02*
D03*
Y31850D02*
D03*
Y33850D02*
D03*
X59281Y44867D02*
D03*
Y42867D02*
D03*
Y40867D02*
D03*
X59280Y55874D02*
D03*
Y53874D02*
D03*
Y51874D02*
D03*
X120404Y88366D02*
D03*
X124646Y84123D02*
D03*
X123232Y85538D02*
D03*
X121818Y86952D02*
D03*
X59285Y66875D02*
D03*
Y64875D02*
D03*
Y62875D02*
D03*
X50262Y66875D02*
D03*
Y64875D02*
D03*
Y62875D02*
D03*
X50280Y40867D02*
D03*
Y42867D02*
D03*
Y44867D02*
D03*
X50275Y33875D02*
D03*
Y31875D02*
D03*
Y29875D02*
D03*
X50280Y51849D02*
D03*
Y53849D02*
D03*
Y55849D02*
D03*
D80*
X28428Y5125D02*
D03*
X14428D02*
D03*
X17928D02*
D03*
X21428D02*
D03*
X24928D02*
D03*
D81*
X113264Y88957D02*
D03*
D160*
X94585Y58337D02*
D03*
Y58837D02*
D03*
Y64337D02*
D03*
Y63837D02*
D03*
Y63337D02*
D03*
Y62837D02*
D03*
Y62337D02*
D03*
Y61837D02*
D03*
Y61337D02*
D03*
X94585Y60837D02*
D03*
Y60337D02*
D03*
X94585Y59837D02*
D03*
Y59337D02*
D03*
Y57837D02*
D03*
Y57337D02*
D03*
Y56837D02*
D03*
X103585D02*
D03*
Y57337D02*
D03*
Y57837D02*
D03*
Y58337D02*
D03*
Y58837D02*
D03*
Y59337D02*
D03*
Y59837D02*
D03*
X103585Y60337D02*
D03*
Y60837D02*
D03*
X103585Y61337D02*
D03*
Y61837D02*
D03*
Y62337D02*
D03*
Y62837D02*
D03*
Y63337D02*
D03*
Y63837D02*
D03*
Y64337D02*
D03*
D161*
X81540Y31215D02*
D03*
Y28775D02*
D03*
X81110D02*
D03*
X80680D02*
D03*
X80250D02*
D03*
X79820D02*
D03*
X79390D02*
D03*
X78960D02*
D03*
X78530D02*
D03*
Y31215D02*
D03*
X78960D02*
D03*
X79390D02*
D03*
X79820D02*
D03*
X80250D02*
D03*
X80680D02*
D03*
X81110D02*
D03*
D162*
X81505Y30640D02*
D03*
Y30210D02*
D03*
Y29780D02*
D03*
Y29350D02*
D03*
X78565D02*
D03*
Y29780D02*
D03*
Y30210D02*
D03*
Y30640D02*
D03*
D163*
X10553Y9333D02*
D03*
Y7318D02*
D03*
D164*
X131825Y10500D02*
D03*
Y7300D02*
D03*
D165*
X99085Y60587D02*
D03*
D166*
X95335Y56087D02*
D03*
X95835D02*
D03*
X96335D02*
D03*
X96835D02*
D03*
X97335D02*
D03*
X97835D02*
D03*
X98335D02*
D03*
X98835Y56087D02*
D03*
X99335D02*
D03*
X99835Y56087D02*
D03*
X100335D02*
D03*
X100835D02*
D03*
X101335D02*
D03*
X101835D02*
D03*
X102335D02*
D03*
X102835D02*
D03*
Y65087D02*
D03*
X102335D02*
D03*
X101835D02*
D03*
X101335D02*
D03*
X100835D02*
D03*
X100335D02*
D03*
X99835D02*
D03*
X99335Y65087D02*
D03*
X98835D02*
D03*
X98335Y65087D02*
D03*
X97835D02*
D03*
X97335D02*
D03*
X96835D02*
D03*
X96335D02*
D03*
X95835D02*
D03*
X95335D02*
D03*
D167*
X141299Y56525D02*
D03*
Y55525D02*
D03*
D168*
X48214Y93057D02*
D03*
X48514Y84857D02*
D03*
X48814Y93057D02*
D03*
X49114Y84857D02*
D03*
X49414Y93057D02*
D03*
X49714Y84857D02*
D03*
X50014Y93057D02*
D03*
X50314Y84857D02*
D03*
X50614Y93057D02*
D03*
X50914Y84857D02*
D03*
X51214Y93057D02*
D03*
X51514Y84857D02*
D03*
X51814Y93057D02*
D03*
X52114Y84857D02*
D03*
X52364Y93057D02*
D03*
X52714Y84857D02*
D03*
X53014Y93057D02*
D03*
X53314Y84857D02*
D03*
X53614Y93057D02*
D03*
X53914Y84857D02*
D03*
X54214Y93057D02*
D03*
X54514Y84857D02*
D03*
X54814Y93057D02*
D03*
X55114Y84857D02*
D03*
X55414Y93057D02*
D03*
X55714Y84857D02*
D03*
X56014Y93057D02*
D03*
X56314Y84857D02*
D03*
X56614Y93057D02*
D03*
X56914Y84857D02*
D03*
X57214Y93057D02*
D03*
X57514Y84857D02*
D03*
X57814Y93057D02*
D03*
X58114Y84857D02*
D03*
X58414Y93057D02*
D03*
X58714Y84857D02*
D03*
X59014Y93057D02*
D03*
X59314Y84857D02*
D03*
X59614Y93057D02*
D03*
X59914Y84857D02*
D03*
X63814Y93057D02*
D03*
X64114Y84857D02*
D03*
X64414Y93057D02*
D03*
X64714Y84857D02*
D03*
X65014Y93057D02*
D03*
X65314Y84857D02*
D03*
X65614Y93057D02*
D03*
X65914Y84857D02*
D03*
X66214Y93057D02*
D03*
X66514Y84857D02*
D03*
X66814Y93057D02*
D03*
X67114Y84857D02*
D03*
X67364Y93057D02*
D03*
X67714Y84857D02*
D03*
X68014Y93057D02*
D03*
X68314Y84857D02*
D03*
X68614Y93057D02*
D03*
X68914Y84857D02*
D03*
X69214Y93057D02*
D03*
X69514Y84857D02*
D03*
X69814Y93057D02*
D03*
X70114Y84857D02*
D03*
X70414Y93057D02*
D03*
X70714Y84857D02*
D03*
X71014Y93057D02*
D03*
X71314Y84857D02*
D03*
X71614Y93057D02*
D03*
X71914Y84857D02*
D03*
X72214Y93057D02*
D03*
X72514Y84857D02*
D03*
X72814Y93057D02*
D03*
X73114Y84857D02*
D03*
X73414Y93057D02*
D03*
X73714Y84857D02*
D03*
X74014Y93057D02*
D03*
X74314Y84857D02*
D03*
X74614Y93057D02*
D03*
X74914Y84857D02*
D03*
X75214Y93057D02*
D03*
X75514Y84857D02*
D03*
X75814Y93057D02*
D03*
X76114Y84857D02*
D03*
X76414Y93057D02*
D03*
X76714Y84857D02*
D03*
X77014Y93057D02*
D03*
X77314Y84857D02*
D03*
X77614Y93057D02*
D03*
X77914Y84857D02*
D03*
X78214Y93057D02*
D03*
X78514Y84857D02*
D03*
X78814Y93057D02*
D03*
X79114Y84857D02*
D03*
X79414Y93057D02*
D03*
X79714Y84857D02*
D03*
X80014Y93057D02*
D03*
X80314Y84857D02*
D03*
X80614Y93057D02*
D03*
X80914Y84857D02*
D03*
X81214Y93057D02*
D03*
X81514Y84857D02*
D03*
X81814Y93057D02*
D03*
X82114Y84857D02*
D03*
X82414Y93057D02*
D03*
X82714Y84857D02*
D03*
X83014Y93057D02*
D03*
X83314Y84857D02*
D03*
X83614Y93057D02*
D03*
X83914Y84857D02*
D03*
X84214Y93057D02*
D03*
X84514Y84857D02*
D03*
X84814Y93057D02*
D03*
X85114Y84857D02*
D03*
X85414Y93057D02*
D03*
X85714Y84857D02*
D03*
X86014Y93057D02*
D03*
X86314Y84857D02*
D03*
X86614Y93057D02*
D03*
X86914Y84857D02*
D03*
X87214Y93057D02*
D03*
X87514Y84857D02*
D03*
X87814Y93057D02*
D03*
X88114Y84857D02*
D03*
X88414Y93057D02*
D03*
X88714Y84857D02*
D03*
X89014Y93057D02*
D03*
X89314Y84857D02*
D03*
X89614Y93057D02*
D03*
X89914Y84857D02*
D03*
X90214Y93057D02*
D03*
X90514Y84857D02*
D03*
X90814Y93057D02*
D03*
X91114Y84857D02*
D03*
X91414Y93057D02*
D03*
X91714Y84857D02*
D03*
X92014Y93057D02*
D03*
X92314Y84857D02*
D03*
X92614Y93057D02*
D03*
X92914Y84857D02*
D03*
X93214Y93057D02*
D03*
X93514Y84857D02*
D03*
X93814Y93057D02*
D03*
X94114Y84857D02*
D03*
X94414Y93057D02*
D03*
X94714Y84857D02*
D03*
X95014Y93057D02*
D03*
X95314Y84857D02*
D03*
X95614Y93057D02*
D03*
X95914Y84857D02*
D03*
X96214Y93057D02*
D03*
X96514Y84857D02*
D03*
X96814Y93057D02*
D03*
X97114Y84857D02*
D03*
X97414Y93057D02*
D03*
X97714Y84857D02*
D03*
X98014Y93057D02*
D03*
X98314Y84857D02*
D03*
X98614Y93057D02*
D03*
X98914Y84857D02*
D03*
X99214Y93057D02*
D03*
X99514Y84857D02*
D03*
X99814Y93057D02*
D03*
X100114Y84857D02*
D03*
X100414Y93057D02*
D03*
X100714Y84857D02*
D03*
X101014Y93057D02*
D03*
X101314Y84857D02*
D03*
X101614Y93057D02*
D03*
X101914Y84857D02*
D03*
X102214Y93057D02*
D03*
X102514Y84857D02*
D03*
X102814Y93057D02*
D03*
X103114Y84857D02*
D03*
X103414Y93057D02*
D03*
X103714Y84857D02*
D03*
X104014Y93057D02*
D03*
X104314Y84857D02*
D03*
X104614Y93057D02*
D03*
X104914Y84857D02*
D03*
X105214Y93057D02*
D03*
X105514Y84857D02*
D03*
X105814Y93057D02*
D03*
X106114Y84857D02*
D03*
X106414Y93057D02*
D03*
X106714Y84857D02*
D03*
X107014Y93057D02*
D03*
X107314Y84857D02*
D03*
X107614Y93057D02*
D03*
X107914Y84857D02*
D03*
X108214Y93057D02*
D03*
X108514Y84857D02*
D03*
X108814Y93057D02*
D03*
X109114Y84857D02*
D03*
X109414Y93057D02*
D03*
X109714Y84857D02*
D03*
X110014Y93057D02*
D03*
X110314Y84857D02*
D03*
X110614Y93057D02*
D03*
X110914Y84857D02*
D03*
X111214Y93057D02*
D03*
X111514Y84857D02*
D03*
D169*
X47314Y76957D02*
D03*
X112414D02*
D03*
D170*
X119299Y61579D02*
D03*
X118299D02*
D03*
X119274Y62600D02*
D03*
X118274D02*
D03*
X119269Y63600D02*
D03*
X118269D02*
D03*
D171*
X84900Y57262D02*
D03*
Y55612D02*
D03*
X85810D02*
D03*
Y57262D02*
D03*
M02*
