G04*
G04 #@! TF.GenerationSoftware,Altium Limited,Altium Designer,22.7.1 (60)*
G04*
G04 Layer_Color=16711935*
%FSLAX43Y43*%
%MOMM*%
G71*
G04*
G04 #@! TF.SameCoordinates,6218B3DD-F4BF-4AD2-B5C1-062D57A95E1A*
G04*
G04*
G04 #@! TF.FilePolarity,Positive*
G04*
G01*
G75*
%ADD173C,0.010*%
D173*
X70004Y102383D02*
X72740Y102176D01*
X75466Y101865D01*
X78179Y101451D01*
X80874Y100935D01*
X83548Y100317D01*
X86196Y99598D01*
X88815Y98780D01*
X91401Y97863D01*
X93951Y96849D01*
X96461Y95740D01*
X98926Y94536D01*
X101345Y93239D01*
X103713Y91852D01*
X106026Y90377D01*
X108282Y88815D01*
X110477Y87168D01*
X112609Y85440D01*
X114673Y83633D01*
X116668Y81748D01*
X118590Y79789D01*
X120436Y77760D01*
X122204Y75661D01*
X123892Y73498D01*
X125496Y71272D01*
X127015Y68986D01*
X128447Y66645D01*
X129789Y64252D01*
X131039Y61809D01*
X132196Y59321D01*
X133258Y56791D01*
X134224Y54223D01*
X135091Y51619D01*
X135860Y48985D01*
X136528Y46324D01*
X137095Y43639D01*
X137561Y40935D01*
X137923Y38215D01*
X138182Y35483D01*
X138338Y32744D01*
X138390Y30000D01*
X138338Y27248D02*
X138390Y30000D01*
X138181Y24500D02*
X138338Y27248D01*
X137920Y21760D02*
X138181Y24500D01*
X137555Y19032D02*
X137920Y21760D01*
X137087Y16320D02*
X137555Y19032D01*
X136517Y13627D02*
X137087Y16320D01*
X135845Y10958D02*
X136517Y13627D01*
X135071Y8317D02*
X135845Y10958D01*
X134198Y5706D02*
X135071Y8317D01*
X133227Y3131D02*
X134198Y5706D01*
X132159Y594D02*
X133227Y3131D01*
X132042Y396D02*
X132159Y594D01*
X131883Y230D02*
X132042Y396D01*
X131690Y105D02*
X131883Y230D01*
X131473Y27D02*
X131690Y105D01*
X131245Y0D02*
X131473Y27D01*
X81890Y0D02*
X131245D01*
X81667Y25D02*
X81890Y0D01*
X81456Y99D02*
X81667Y25D01*
X81266Y218D02*
X81456Y99D01*
X81108Y377D02*
X81266Y218D01*
X80989Y566D02*
X81108Y377D01*
X80915Y777D02*
X80989Y566D01*
X80890Y1000D02*
X80915Y777D01*
X80890Y1000D02*
Y30000D01*
X80839Y31239D02*
X80890Y30000D01*
X80685Y32469D02*
X80839Y31239D01*
X80431Y33682D02*
X80685Y32469D01*
X80077Y34871D02*
X80431Y33682D01*
X79626Y36025D02*
X80077Y34871D01*
X79082Y37139D02*
X79626Y36025D01*
X78447Y38204D02*
X79082Y37139D01*
X77727Y39213D02*
X78447Y38204D01*
X76926Y40159D02*
X77727Y39213D01*
X76049Y41036D02*
X76926Y40159D01*
X75103Y41837D02*
X76049Y41036D01*
X74094Y42558D02*
X75103Y41837D01*
X73029Y43192D02*
X74094Y42558D01*
X71915Y43737D02*
X73029Y43192D01*
X70760Y44187D02*
X71915Y43737D01*
X69572Y44541D02*
X70760Y44187D01*
X68359Y44795D02*
X69572Y44541D01*
X67129Y44949D02*
X68359Y44795D01*
X65890Y45000D02*
X67129Y44949D01*
X64651D02*
X65890Y45000D01*
X63421Y44795D02*
X64651Y44949D01*
X62208Y44541D02*
X63421Y44795D01*
X61019Y44187D02*
X62208Y44541D01*
X59864Y43737D02*
X61019Y44187D01*
X58751Y43192D02*
X59864Y43737D01*
X57686Y42558D02*
X58751Y43192D01*
X56677Y41837D02*
X57686Y42558D01*
X55731Y41036D02*
X56677Y41837D01*
X54854Y40159D02*
X55731Y41036D01*
X54053Y39213D02*
X54854Y40159D01*
X53332Y38204D02*
X54053Y39213D01*
X52698Y37139D02*
X53332Y38204D01*
X52153Y36025D02*
X52698Y37139D01*
X51703Y34870D02*
X52153Y36025D01*
X51349Y33682D02*
X51703Y34870D01*
X51094Y32469D02*
X51349Y33682D01*
X50941Y31239D02*
X51094Y32469D01*
X50890Y30000D02*
X50941Y31239D01*
X50890Y13000D02*
Y30000D01*
X50865Y12777D02*
X50890Y13000D01*
X50791Y12566D02*
X50865Y12777D01*
X50672Y12377D02*
X50791Y12566D01*
X50513Y12218D02*
X50672Y12377D01*
X50324Y12099D02*
X50513Y12218D01*
X50112Y12025D02*
X50324Y12099D01*
X49890Y12000D02*
X50112Y12025D01*
X24888Y12000D02*
X49890D01*
X24665Y11975D02*
X24888Y12000D01*
X24454Y11901D02*
X24665Y11975D01*
X24264Y11782D02*
X24454Y11901D01*
X24106Y11623D02*
X24264Y11782D01*
X23987Y11434D02*
X24106Y11623D01*
X23913Y11223D02*
X23987Y11434D01*
X23888Y11000D02*
X23913Y11223D01*
X23888Y1000D02*
Y11000D01*
X23863Y777D02*
X23888Y1000D01*
X23789Y566D02*
X23863Y777D01*
X23670Y377D02*
X23789Y566D01*
X23511Y218D02*
X23670Y377D01*
X23322Y99D02*
X23511Y218D01*
X23110Y25D02*
X23322Y99D01*
X22888Y0D02*
X23110Y25D01*
X535Y0D02*
X22888D01*
X306Y26D02*
X535Y0D01*
X90Y105D02*
X306Y26D01*
X-103Y230D02*
X90Y105D01*
X-262Y396D02*
X-103Y230D01*
X-379Y594D02*
X-262Y396D01*
X-1447Y3131D02*
X-379Y594D01*
X-2419Y5706D02*
X-1447Y3131D01*
X-3292Y8317D02*
X-2419Y5706D01*
X-4065Y10958D02*
X-3292Y8317D01*
X-4737Y13627D02*
X-4065Y10958D01*
X-5308Y16320D02*
X-4737Y13627D01*
X-5776Y19032D02*
X-5308Y16320D01*
X-6140Y21760D02*
X-5776Y19032D01*
X-6401Y24500D02*
X-6140Y21760D01*
X-6558Y27248D02*
X-6401Y24500D01*
X-6610Y30000D02*
X-6558Y27248D01*
X-6610Y30000D02*
X-6558Y32744D01*
X-6402Y35483D01*
X-6143Y38215D01*
X-5781Y40935D01*
X-5316Y43639D01*
X-4749Y46324D01*
X-4080Y48985D01*
X-3312Y51619D01*
X-2444Y54223D01*
X-1478Y56791D01*
X-416Y59321D01*
X741Y61809D01*
X1991Y64252D01*
X3333Y66645D01*
X4764Y68986D01*
X6284Y71272D01*
X7888Y73498D01*
X9576Y75661D01*
X11344Y77760D01*
X13190Y79789D01*
X15112Y81748D01*
X17107Y83632D01*
X19171Y85440D01*
X21302Y87168D01*
X23498Y88815D01*
X25754Y90377D01*
X28067Y91852D01*
X30435Y93239D01*
X32853Y94536D01*
X35319Y95740D01*
X37829Y96849D01*
X40379Y97863D01*
X42965Y98780D01*
X45584Y99598D01*
X48232Y100317D01*
X50906Y100935D01*
X53601Y101451D01*
X56313Y101865D01*
X59040Y102176D01*
X61776Y102383D01*
X64518Y102487D01*
X67262D01*
X70004Y102383D01*
X95259Y31825D02*
X95332Y31825D01*
X93275Y31825D02*
X95259Y31825D01*
X93275Y31825D02*
X93275Y31825D01*
X93199Y31825D02*
X93275Y31825D01*
X93049Y31795D02*
X93199Y31825D01*
X92908Y31737D02*
X93049Y31795D01*
X92781Y31652D02*
X92908Y31737D01*
X92673Y31544D02*
X92781Y31652D01*
X92588Y31417D02*
X92673Y31544D01*
X92530Y31276D02*
X92588Y31417D01*
X92500Y31126D02*
X92530Y31276D01*
X92500Y31050D02*
X92500Y31126D01*
X92500Y31050D02*
X92500Y20992D01*
Y20992D02*
Y20992D01*
X92500Y20914D02*
X92500Y20992D01*
X92500Y20914D02*
X92530Y20761D01*
X92590Y20617D01*
X92677Y20487D01*
X92787Y20377D01*
X92917Y20290D01*
X93061Y20230D01*
X93214Y20200D01*
X93292Y20200D01*
X95175Y20200D01*
X95256Y20200D01*
X95416Y20232D01*
X95566Y20294D01*
X95701Y20384D01*
X95816Y20499D01*
X95906Y20634D01*
X95968Y20784D01*
X96000Y20944D01*
X96000Y21025D01*
X96000Y31084D01*
X96000Y31084D02*
X96000Y31084D01*
X96000Y31084D02*
Y31157D01*
X95972Y31300D02*
X96000Y31157D01*
X95916Y31435D02*
X95972Y31300D01*
X95835Y31556D02*
X95916Y31435D01*
X95731Y31660D02*
X95835Y31556D01*
X95610Y31741D02*
X95731Y31660D01*
X95475Y31796D02*
X95610Y31741D01*
X95332Y31825D02*
X95475Y31796D01*
X95175Y20200D02*
X95175D01*
X95175D02*
X95175D01*
X95175D02*
X95175D01*
X95475Y15625D02*
X95539Y15625D01*
X93258Y15625D02*
X95475Y15625D01*
X93258Y15625D02*
X93258Y15625D01*
X93132Y15625D02*
X93258Y15625D01*
X92900Y15528D02*
X93132Y15625D01*
X92721Y15350D02*
X92900Y15528D01*
X92625Y15118D02*
X92721Y15350D01*
X92625Y14992D02*
X92625Y15118D01*
X92625Y14992D02*
X92625Y4792D01*
Y4792D02*
Y4792D01*
X92625Y4714D02*
X92625Y4792D01*
X92625Y4714D02*
X92655Y4561D01*
X92715Y4417D01*
X92802Y4287D01*
X92912Y4177D01*
X93042Y4090D01*
X93186Y4030D01*
X93339Y4000D01*
X93417Y4000D01*
X95300Y4000D01*
X95381D01*
X95541Y4032D01*
X95691Y4094D01*
X95826Y4184D01*
X95941Y4299D01*
X96031Y4434D01*
X96093Y4584D01*
X96125Y4744D01*
X96125Y4825D01*
X96125Y14975D01*
X96125Y14975D02*
X96125Y14975D01*
X96125Y14975D02*
X96125Y15039D01*
X96100Y15165D02*
X96125Y15039D01*
X96051Y15283D02*
X96100Y15165D01*
X95980Y15389D02*
X96051Y15283D01*
X95889Y15480D02*
X95980Y15389D01*
X95783Y15551D02*
X95889Y15480D01*
X95665Y15600D02*
X95783Y15551D01*
X95539Y15625D02*
X95665Y15600D01*
M02*
