G04*
G04 #@! TF.GenerationSoftware,Altium Limited,Altium Designer,22.7.1 (60)*
G04*
G04 Layer_Color=16711935*
%FSLAX43Y43*%
%MOMM*%
G71*
G04*
G04 #@! TF.SameCoordinates,BF121B45-6408-4E43-B4A1-C448907F0F72*
G04*
G04*
G04 #@! TF.FilePolarity,Positive*
G04*
G01*
G75*
%ADD19C,0.100*%
D19*
X50Y29950D02*
X101Y32805D01*
X254Y35657D01*
X508Y38502D01*
X864Y41335D01*
X1321Y44154D01*
X1878Y46955D01*
X2535Y49734D01*
X3291Y52489D01*
X4144Y55214D01*
X5094Y57907D01*
X6140Y60565D01*
X7279Y63183D01*
X8512Y65759D01*
X9836Y68290D01*
X11249Y70771D01*
X12750Y73201D01*
X14336Y75576D01*
X16007Y77892D01*
X17759Y80147D01*
X19590Y82339D01*
X21498Y84463D01*
X23481Y86518D01*
X25537Y88502D01*
X27661Y90410D01*
X29853Y92241D01*
X32108Y93993D01*
X34424Y95664D01*
X36799Y97250D01*
X39228Y98751D01*
X41710Y100164D01*
X44241Y101488D01*
X46817Y102720D01*
X49435Y103860D01*
X52093Y104906D01*
X54786Y105856D01*
X57511Y106709D01*
X60265Y107465D01*
X63045Y108122D01*
X65846Y108679D01*
X68665Y109136D01*
X71498Y109492D01*
X74343Y109746D01*
X77195Y109899D01*
X80050Y109950D01*
X82905Y109899D01*
X85757Y109746D01*
X88602Y109492D01*
X91435Y109136D01*
X94254Y108679D01*
X97055Y108122D01*
X99835Y107465D01*
X102589Y106709D01*
X105314Y105856D01*
X108007Y104906D01*
X110665Y103860D01*
X113283Y102720D01*
X115859Y101488D01*
X118390Y100164D01*
X120872Y98751D01*
X123301Y97250D01*
X125676Y95664D01*
X127992Y93993D01*
X130248Y92241D01*
X132439Y90410D01*
X134563Y88502D01*
X136619Y86518D01*
X138602Y84463D01*
X140510Y82339D01*
X142341Y80147D01*
X144093Y77892D01*
X145764Y75576D01*
X147350Y73201D01*
X148851Y70771D01*
X150264Y68290D01*
X151588Y65759D01*
X152821Y63183D01*
X153960Y60565D01*
X155006Y57907D01*
X155956Y55214D01*
X156809Y52489D01*
X157565Y49734D01*
X158222Y46955D01*
X158779Y44154D01*
X159236Y41335D01*
X159592Y38502D01*
X159846Y35657D01*
X159999Y32805D01*
X160050Y29950D01*
X159991Y26876D02*
X160050Y29950D01*
X159814Y23806D02*
X159991Y26876D01*
X159519Y20745D02*
X159814Y23806D01*
X159106Y17698D02*
X159519Y20745D01*
X158577Y14669D02*
X159106Y17698D01*
X157932Y11662D02*
X158577Y14669D01*
X157171Y8683D02*
X157932Y11662D01*
X156297Y5734D02*
X157171Y8683D01*
X155310Y2822D02*
X156297Y5734D01*
X154212Y-50D02*
X155310Y2822D01*
X5888Y-50D02*
X154212D01*
X4790Y2822D02*
X5888Y-50D01*
X3803Y5734D02*
X4790Y2822D01*
X2929Y8683D02*
X3803Y5734D01*
X2168Y11662D02*
X2929Y8683D01*
X1523Y14669D02*
X2168Y11662D01*
X994Y17698D02*
X1523Y14669D01*
X581Y20745D02*
X994Y17698D01*
X286Y23806D02*
X581Y20745D01*
X109Y26876D02*
X286Y23806D01*
X50Y29950D02*
X109Y26876D01*
M02*
