G04*
G04 #@! TF.GenerationSoftware,Altium Limited,Altium Designer,22.7.1 (60)*
G04*
G04 Layer_Physical_Order=5*
G04 Layer_Color=1930808*
%FSLAX43Y43*%
%MOMM*%
G71*
G04*
G04 #@! TF.SameCoordinates,BF121B45-6408-4E43-B4A1-C448907F0F72*
G04*
G04*
G04 #@! TF.FilePolarity,Positive*
G04*
G01*
G75*
%ADD75C,1.800*%
%ADD118C,1.000*%
%ADD133C,1.408*%
%ADD135C,4.000*%
%ADD136C,1.500*%
%ADD142C,0.700*%
G36*
X102950Y95326D02*
X102950Y94511D01*
X102558Y94119D01*
X99750D01*
X99750Y95575D01*
X100426Y96251D01*
X102025D01*
X102950Y95326D01*
D02*
G37*
G36*
X48425Y90025D02*
X47584Y89184D01*
X47489Y89216D01*
X47487Y89231D01*
X47381Y89487D01*
X47213Y89706D01*
X46994Y89874D01*
X46738Y89980D01*
X46464Y90016D01*
X46190Y89980D01*
X45935Y89874D01*
X45715Y89706D01*
X45547Y89487D01*
X45441Y89231D01*
X45405Y88957D01*
X45441Y88683D01*
X45547Y88427D01*
X45715Y88208D01*
X45935Y88040D01*
X46190Y87934D01*
X46205Y87932D01*
X46237Y87837D01*
X45725Y87325D01*
Y76550D01*
X34325Y65150D01*
X33750D01*
X33375Y64775D01*
Y63850D01*
X33700Y63525D01*
X34375D01*
X34703Y63853D01*
X34728Y63872D01*
X34747Y63897D01*
X38725Y67875D01*
X41600D01*
X42350Y67125D01*
Y59575D01*
X40900Y58125D01*
Y40325D01*
X40150Y39575D01*
X31775D01*
X31000Y40350D01*
Y60900D01*
X29125Y62775D01*
X27500D01*
X26700Y61975D01*
Y57188D01*
X27750Y56138D01*
Y48075D01*
X27175Y47500D01*
X25075D01*
X23225Y49350D01*
X21825D01*
X21175Y48700D01*
Y47325D01*
X21925Y46575D01*
Y37250D01*
X21443Y36768D01*
X15093D01*
X14475Y36150D01*
Y32475D01*
X15675Y31275D01*
X30800D01*
X32000Y32475D01*
Y33800D01*
X33775Y35575D01*
X36150D01*
X36675Y35050D01*
X38925D01*
X41750Y32225D01*
Y19347D01*
X42150Y18947D01*
Y16150D01*
X40875Y14875D01*
X35250D01*
X34750Y15375D01*
X33545D01*
X33175Y15005D01*
Y8975D01*
X36138Y5912D01*
X124438Y5912D01*
X126400Y3950D01*
Y1600D01*
X125650Y850D01*
X114723D01*
X114691Y945D01*
X114756Y995D01*
X114909Y1194D01*
X115005Y1426D01*
X115038Y1675D01*
X115005Y1924D01*
X114909Y2156D01*
X114756Y2355D01*
X114556Y2508D01*
X114324Y2604D01*
X114075Y2637D01*
X113826Y2604D01*
X113594Y2508D01*
X113395Y2355D01*
X113242Y2156D01*
X113146Y1924D01*
X113113Y1675D01*
X113146Y1426D01*
X113242Y1194D01*
X113395Y995D01*
X113460Y945D01*
X113428Y850D01*
X112183D01*
X112151Y945D01*
X112216Y995D01*
X112369Y1194D01*
X112465Y1426D01*
X112498Y1675D01*
X112465Y1924D01*
X112369Y2156D01*
X112216Y2355D01*
X112016Y2508D01*
X111784Y2604D01*
X111535Y2637D01*
X111286Y2604D01*
X111054Y2508D01*
X110855Y2355D01*
X110702Y2156D01*
X110606Y1924D01*
X110573Y1675D01*
X110606Y1426D01*
X110702Y1194D01*
X110855Y995D01*
X110920Y945D01*
X110888Y850D01*
X109643D01*
X109611Y945D01*
X109676Y995D01*
X109829Y1194D01*
X109925Y1426D01*
X109958Y1675D01*
X109925Y1924D01*
X109829Y2156D01*
X109676Y2355D01*
X109476Y2508D01*
X109244Y2604D01*
X108995Y2637D01*
X108746Y2604D01*
X108514Y2508D01*
X108315Y2355D01*
X108162Y2156D01*
X108066Y1924D01*
X108033Y1675D01*
X108066Y1426D01*
X108162Y1194D01*
X108315Y995D01*
X108380Y945D01*
X108348Y850D01*
X107103D01*
X107071Y945D01*
X107136Y995D01*
X107289Y1194D01*
X107322Y1275D01*
X106455D01*
X105588D01*
X105622Y1194D01*
X105775Y995D01*
X105840Y945D01*
X105808Y850D01*
X95117D01*
X95085Y945D01*
X95150Y995D01*
X95303Y1194D01*
X95399Y1426D01*
X95432Y1675D01*
X95399Y1924D01*
X95303Y2156D01*
X95150Y2355D01*
X94951Y2508D01*
X94719Y2604D01*
X94470Y2637D01*
X94221Y2604D01*
X93988Y2508D01*
X93789Y2355D01*
X93636Y2156D01*
X93540Y1924D01*
X93507Y1675D01*
X93540Y1426D01*
X93636Y1194D01*
X93789Y995D01*
X93854Y945D01*
X93822Y850D01*
X92577D01*
X92545Y945D01*
X92610Y995D01*
X92763Y1194D01*
X92859Y1426D01*
X92892Y1675D01*
X92859Y1924D01*
X92763Y2156D01*
X92610Y2355D01*
X92411Y2508D01*
X92179Y2604D01*
X91930Y2637D01*
X91681Y2604D01*
X91448Y2508D01*
X91249Y2355D01*
X91096Y2156D01*
X91000Y1924D01*
X90967Y1675D01*
X91000Y1426D01*
X91096Y1194D01*
X91249Y995D01*
X91314Y945D01*
X91282Y850D01*
X90037D01*
X90005Y945D01*
X90070Y995D01*
X90223Y1194D01*
X90319Y1426D01*
X90352Y1675D01*
X90319Y1924D01*
X90223Y2156D01*
X90070Y2355D01*
X89871Y2508D01*
X89639Y2604D01*
X89390Y2637D01*
X89141Y2604D01*
X88908Y2508D01*
X88709Y2355D01*
X88556Y2156D01*
X88460Y1924D01*
X88427Y1675D01*
X88460Y1426D01*
X88556Y1194D01*
X88709Y995D01*
X88774Y945D01*
X88742Y850D01*
X87497D01*
X87465Y945D01*
X87530Y995D01*
X87683Y1194D01*
X87716Y1275D01*
X86850D01*
X85983D01*
X86016Y1194D01*
X86169Y995D01*
X86234Y945D01*
X86202Y850D01*
X75517D01*
X75485Y945D01*
X75550Y995D01*
X75703Y1194D01*
X75799Y1426D01*
X75832Y1675D01*
X75799Y1924D01*
X75703Y2156D01*
X75550Y2355D01*
X75351Y2508D01*
X75119Y2604D01*
X74870Y2637D01*
X74621Y2604D01*
X74388Y2508D01*
X74189Y2355D01*
X74036Y2156D01*
X73940Y1924D01*
X73907Y1675D01*
X73940Y1426D01*
X74036Y1194D01*
X74189Y995D01*
X74254Y945D01*
X74222Y850D01*
X72977D01*
X72945Y945D01*
X73010Y995D01*
X73163Y1194D01*
X73259Y1426D01*
X73292Y1675D01*
X73259Y1924D01*
X73163Y2156D01*
X73010Y2355D01*
X72811Y2508D01*
X72579Y2604D01*
X72330Y2637D01*
X72081Y2604D01*
X71848Y2508D01*
X71649Y2355D01*
X71496Y2156D01*
X71400Y1924D01*
X71367Y1675D01*
X71400Y1426D01*
X71496Y1194D01*
X71649Y995D01*
X71714Y945D01*
X71682Y850D01*
X70437D01*
X70405Y945D01*
X70470Y995D01*
X70623Y1194D01*
X70719Y1426D01*
X70752Y1675D01*
X70719Y1924D01*
X70623Y2156D01*
X70470Y2355D01*
X70271Y2508D01*
X70039Y2604D01*
X69790Y2637D01*
X69541Y2604D01*
X69308Y2508D01*
X69109Y2355D01*
X68956Y2156D01*
X68860Y1924D01*
X68827Y1675D01*
X68860Y1426D01*
X68956Y1194D01*
X69109Y995D01*
X69174Y945D01*
X69142Y850D01*
X67897D01*
X67865Y945D01*
X67930Y995D01*
X68083Y1194D01*
X68116Y1275D01*
X67250D01*
X66383D01*
X66416Y1194D01*
X66569Y995D01*
X66634Y945D01*
X66602Y850D01*
X55883D01*
X55851Y945D01*
X55916Y995D01*
X56069Y1194D01*
X56165Y1426D01*
X56198Y1675D01*
X56165Y1924D01*
X56069Y2156D01*
X55916Y2355D01*
X55717Y2508D01*
X55485Y2604D01*
X55236Y2637D01*
X54987Y2604D01*
X54755Y2508D01*
X54555Y2355D01*
X54402Y2156D01*
X54306Y1924D01*
X54273Y1675D01*
X54306Y1426D01*
X54402Y1194D01*
X54555Y995D01*
X54620Y945D01*
X54588Y850D01*
X53343D01*
X53311Y945D01*
X53376Y995D01*
X53529Y1194D01*
X53625Y1426D01*
X53658Y1675D01*
X53625Y1924D01*
X53529Y2156D01*
X53376Y2355D01*
X53177Y2508D01*
X52945Y2604D01*
X52696Y2637D01*
X52447Y2604D01*
X52215Y2508D01*
X52015Y2355D01*
X51862Y2156D01*
X51766Y1924D01*
X51733Y1675D01*
X51766Y1426D01*
X51862Y1194D01*
X52015Y995D01*
X52080Y945D01*
X52048Y850D01*
X50803D01*
X50771Y945D01*
X50836Y995D01*
X50989Y1194D01*
X51085Y1426D01*
X51118Y1675D01*
X51085Y1924D01*
X50989Y2156D01*
X50836Y2355D01*
X50637Y2508D01*
X50405Y2604D01*
X50156Y2637D01*
X49907Y2604D01*
X49675Y2508D01*
X49475Y2355D01*
X49322Y2156D01*
X49226Y1924D01*
X49193Y1675D01*
X49226Y1426D01*
X49322Y1194D01*
X49475Y995D01*
X49540Y945D01*
X49508Y850D01*
X48263D01*
X48231Y945D01*
X48296Y995D01*
X48449Y1194D01*
X48483Y1275D01*
X47616D01*
X46749D01*
X46782Y1194D01*
X46935Y995D01*
X47000Y945D01*
X46968Y850D01*
X13475D01*
X10425Y3900D01*
X10021Y6171D01*
X9425Y7550D01*
X8825Y9125D01*
X7786Y13540D01*
X6677Y19823D01*
Y32475D01*
X6677Y37502D01*
X8025Y44650D01*
X9118Y49093D01*
X10950Y54925D01*
X11900Y57375D01*
X12450Y59250D01*
X14175Y62775D01*
X15445Y66000D01*
X19590Y72800D01*
X22075Y76450D01*
X31350Y85725D01*
X36799Y89612D01*
X42125Y93000D01*
X48425D01*
Y90025D01*
D02*
G37*
G36*
X87450Y93850D02*
X105536D01*
Y92516D01*
X105858Y92195D01*
Y92018D01*
X105812Y91999D01*
X105686Y91903D01*
X105590Y91778D01*
X105530Y91632D01*
X105509Y91475D01*
X105530Y91318D01*
X105590Y91172D01*
X105686Y91047D01*
X105812Y90951D01*
X105858Y90932D01*
Y87675D01*
X104875Y86692D01*
Y82790D01*
X104840Y82707D01*
X104820Y82550D01*
X104840Y82393D01*
X104875Y82310D01*
Y82075D01*
X105125Y81825D01*
X105750D01*
X106100Y82175D01*
Y82669D01*
X106107Y82670D01*
X106253Y82731D01*
X106378Y82827D01*
X106434Y82900D01*
X106675D01*
X106853Y82722D01*
X106855Y82720D01*
Y81125D01*
X112507Y75473D01*
X112507Y74437D01*
X112451Y74365D01*
X112390Y74219D01*
X112370Y74062D01*
X112390Y73905D01*
X112451Y73759D01*
X112507Y73687D01*
Y73582D01*
X112725Y73363D01*
X113225D01*
X115525Y71063D01*
X115525Y65920D01*
X115671Y65776D01*
X115690Y65747D01*
X115891Y65546D01*
X115927Y65522D01*
X116000Y65450D01*
X116575D01*
X116776Y65249D01*
Y64875D01*
X116631Y64730D01*
X115944D01*
X114725Y65950D01*
X114725Y70054D01*
X113529Y71250D01*
X108007Y76847D01*
X108007Y78268D01*
X107669Y78606D01*
X107628Y78659D01*
X107575Y78700D01*
X107450Y78825D01*
X107289D01*
X107200Y78837D01*
X107111Y78825D01*
X106750D01*
X103703Y81872D01*
Y87268D01*
X104980Y88545D01*
X105035Y88627D01*
X105055Y88725D01*
Y89123D01*
X105055Y89125D01*
X105055Y89127D01*
X105055Y90600D01*
X105035Y90698D01*
X105025Y90713D01*
Y90775D01*
X103518Y92282D01*
X88382Y92282D01*
X87700Y91600D01*
Y86289D01*
X90236Y83753D01*
X93247D01*
X93775Y83225D01*
Y82530D01*
X93098Y81853D01*
X89961D01*
X89664Y82150D01*
X89582Y82205D01*
X89484Y82224D01*
X89384D01*
X88622Y82987D01*
X88649Y83022D01*
X88710Y83168D01*
X88730Y83325D01*
X88710Y83482D01*
X88649Y83628D01*
X88553Y83753D01*
X88428Y83849D01*
X88282Y83910D01*
X88125Y83930D01*
X87968Y83910D01*
X87822Y83849D01*
X87697Y83753D01*
X87625Y83658D01*
X86815D01*
X86742Y83753D01*
X86617Y83849D01*
X86471Y83910D01*
X86314Y83930D01*
X86158Y83910D01*
X86012Y83849D01*
X85886Y83753D01*
X85814Y83658D01*
X85156D01*
X85132Y83634D01*
X85015Y83658D01*
X84942Y83753D01*
X84817Y83849D01*
X84671Y83910D01*
X84514Y83930D01*
X84358Y83910D01*
X84212Y83849D01*
X84086Y83753D01*
X83990Y83628D01*
X83930Y83482D01*
X83909Y83325D01*
X83930Y83168D01*
X83990Y83022D01*
X84086Y82897D01*
X84181Y82825D01*
X84205Y82707D01*
X83601Y82104D01*
X83533Y82133D01*
X83511Y82155D01*
X83530Y82300D01*
X83510Y82457D01*
X83449Y82603D01*
X83353Y82728D01*
X83228Y82824D01*
X83212Y82831D01*
X83183Y82951D01*
X83238Y83022D01*
X83299Y83168D01*
X83319Y83325D01*
X83299Y83482D01*
X83238Y83628D01*
X83142Y83753D01*
X83017Y83849D01*
X82871Y83910D01*
X82714Y83930D01*
X82558Y83910D01*
X82412Y83849D01*
X82286Y83753D01*
X82190Y83628D01*
X82130Y83482D01*
X82109Y83325D01*
X82130Y83168D01*
X82190Y83022D01*
X82286Y82897D01*
X82412Y82801D01*
X82427Y82794D01*
X82456Y82674D01*
X82401Y82603D01*
X82340Y82457D01*
X82320Y82300D01*
X82340Y82143D01*
X82401Y81997D01*
X82497Y81872D01*
X82622Y81776D01*
X82768Y81715D01*
X82925Y81695D01*
X83070Y81714D01*
X83092Y81692D01*
X83121Y81624D01*
X78345Y76847D01*
X76175D01*
X74925Y75650D01*
Y73300D01*
X75382Y72843D01*
X76692D01*
X76741Y72743D01*
X76676Y72659D01*
X76615Y72513D01*
X76595Y72356D01*
X76615Y72199D01*
X76676Y72053D01*
X76772Y71928D01*
X76897Y71832D01*
X77043Y71771D01*
X77200Y71751D01*
X77357Y71771D01*
X77503Y71832D01*
X77628Y71928D01*
X77635Y71938D01*
X77735Y71904D01*
Y71213D01*
X77422Y70900D01*
X76000D01*
X74925Y72000D01*
X73562Y73363D01*
Y76938D01*
X71950Y78550D01*
X51250D01*
X50575Y79225D01*
Y82175D01*
X50675Y82275D01*
X79200Y82275D01*
X80223Y83298D01*
X80328Y83262D01*
X80340Y83168D01*
X80401Y83022D01*
X80497Y82897D01*
X80622Y82801D01*
X80768Y82740D01*
X80925Y82720D01*
X81082Y82740D01*
X81228Y82801D01*
X81353Y82897D01*
X81449Y83022D01*
X81510Y83168D01*
X81530Y83325D01*
X81510Y83482D01*
X81449Y83628D01*
X81353Y83753D01*
X81228Y83849D01*
X81082Y83910D01*
X80988Y83922D01*
X80952Y84027D01*
X84150Y87225D01*
Y90775D01*
X87250Y93850D01*
X87450Y93850D01*
D02*
G37*
G36*
X103749Y98174D02*
X103897Y98025D01*
Y97500D01*
X104722Y96675D01*
X108883Y96675D01*
X108947Y96626D01*
X109093Y96565D01*
X109250Y96545D01*
X109407Y96565D01*
X109553Y96626D01*
X109617Y96675D01*
X110375Y96675D01*
X115150Y91900D01*
X115150Y77971D01*
X114738Y77559D01*
Y77062D01*
X114673Y76978D01*
X114612Y76832D01*
X114592Y76675D01*
X114612Y76518D01*
X114673Y76372D01*
X114769Y76247D01*
X114894Y76151D01*
X115040Y76090D01*
X115178Y76072D01*
X120650Y70600D01*
X122675Y68575D01*
X131026D01*
Y68596D01*
X133055Y70600D01*
X139700D01*
X139832Y70468D01*
X139851Y70422D01*
X139947Y70297D01*
X140072Y70201D01*
X140118Y70182D01*
X144875Y65425D01*
X147825Y56900D01*
X150350Y47050D01*
Y41175D01*
X149300Y40125D01*
X142245D01*
X142178Y40225D01*
X142206Y40293D01*
X142227Y40450D01*
X142206Y40607D01*
X142146Y40753D01*
X142049Y40878D01*
X141924Y40974D01*
X141778Y41035D01*
X141622Y41055D01*
X141465Y41035D01*
X141319Y40974D01*
X141194Y40878D01*
X141097Y40753D01*
X141037Y40607D01*
X141016Y40450D01*
X141037Y40293D01*
X141065Y40225D01*
X140998Y40125D01*
X135325D01*
X132074Y36874D01*
X127450Y36875D01*
X126000Y35425D01*
X126000Y13600D01*
X126250Y13350D01*
X127475Y12125D01*
Y10175D01*
X126000Y8700D01*
X121452D01*
X117427Y12725D01*
X45385D01*
X43960Y11300D01*
X36025D01*
X34850Y10125D01*
X33825D01*
X33725Y10225D01*
Y12350D01*
X33850Y12475D01*
X34575D01*
X36569Y14469D01*
X42910Y14485D01*
X44900Y16475D01*
Y17325D01*
X45150Y17575D01*
X45750D01*
X46050Y17275D01*
Y16975D01*
X46225Y16800D01*
X46725D01*
X46900Y16975D01*
Y25825D01*
X45000Y27725D01*
Y28425D01*
X45175Y28600D01*
X46550D01*
X46750Y28800D01*
Y36999D01*
X45000Y38749D01*
Y39438D01*
X45162Y39600D01*
X45942D01*
X48975Y36567D01*
Y17069D01*
X50000Y16044D01*
X51755Y16044D01*
X51933Y15970D01*
X52168Y15939D01*
X52403Y15970D01*
X52582Y16044D01*
X60319Y16044D01*
X60700Y16425D01*
Y34550D01*
X62300Y36150D01*
X64175D01*
X64575Y35750D01*
Y35313D01*
X64212Y34950D01*
X63125D01*
X62725Y34550D01*
Y27302D01*
X64525Y25502D01*
Y24325D01*
X64375Y24175D01*
X62975D01*
X62625Y23825D01*
Y16275D01*
X62856Y16044D01*
X110050Y16044D01*
X118268Y24262D01*
Y37257D01*
X118280Y37350D01*
X118268Y37443D01*
Y38332D01*
X115375Y41225D01*
Y45953D01*
X113078Y48250D01*
Y65154D01*
X112967Y65232D01*
X112124Y66075D01*
X111125Y66075D01*
X109900Y64850D01*
Y52925D01*
X109350Y52375D01*
X108849D01*
X108828Y52403D01*
X108703Y52499D01*
X108557Y52560D01*
X108400Y52580D01*
X108243Y52560D01*
X108097Y52499D01*
X107972Y52403D01*
X107951Y52375D01*
X89100Y52375D01*
X87575Y50850D01*
X86213Y50850D01*
X85738Y50375D01*
Y48950D01*
X86173Y48515D01*
X86116Y48431D01*
X86107Y48435D01*
X85950Y48455D01*
X85793Y48435D01*
X85647Y48374D01*
X85522Y48278D01*
X85426Y48153D01*
X85365Y48007D01*
X85345Y47850D01*
X85365Y47693D01*
X85426Y47547D01*
X85522Y47422D01*
X85647Y47326D01*
X85793Y47265D01*
X85950Y47245D01*
X86107Y47265D01*
X86253Y47326D01*
X86378Y47422D01*
X86400Y47451D01*
X86500D01*
X86522Y47422D01*
X86647Y47326D01*
X86793Y47265D01*
X86950Y47245D01*
X87107Y47265D01*
X87253Y47326D01*
X87378Y47422D01*
X87400Y47451D01*
X87500Y47417D01*
Y47150D01*
X86725Y46375D01*
X85225D01*
X84606Y46994D01*
Y52569D01*
X83799Y53376D01*
Y55271D01*
X83899Y55323D01*
X84008Y55277D01*
X84165Y55257D01*
X84322Y55277D01*
X84468Y55338D01*
X84593Y55434D01*
X84689Y55559D01*
X84750Y55705D01*
X84770Y55862D01*
X84750Y56018D01*
X84689Y56164D01*
X84593Y56290D01*
X84564Y56312D01*
Y56412D01*
X84593Y56434D01*
X84689Y56559D01*
X84750Y56705D01*
X84770Y56862D01*
X84750Y57018D01*
X84689Y57164D01*
X84593Y57290D01*
X84468Y57386D01*
X84322Y57446D01*
X84165Y57467D01*
X84008Y57446D01*
X83937Y57417D01*
X83841Y57474D01*
X83837Y57542D01*
X83840Y57545D01*
X83936Y57670D01*
X83997Y57816D01*
X84017Y57972D01*
X83997Y58129D01*
X83936Y58275D01*
X83840Y58400D01*
X83715Y58497D01*
X83569Y58557D01*
X83412Y58578D01*
X83255Y58557D01*
X83109Y58497D01*
X83078Y58472D01*
X80700Y60850D01*
Y66521D01*
X79135Y68085D01*
X75975D01*
X75975Y66354D01*
X76454Y65875D01*
X77200Y65129D01*
Y63860D01*
X77100Y63840D01*
X77074Y63903D01*
X76978Y64028D01*
X76853Y64124D01*
X76707Y64185D01*
X76550Y64205D01*
X76393Y64185D01*
X76247Y64124D01*
X76122Y64028D01*
X76026Y63903D01*
X75965Y63757D01*
X75945Y63600D01*
X75965Y63443D01*
X76026Y63297D01*
X76122Y63172D01*
X76247Y63076D01*
X76393Y63015D01*
X76550Y62995D01*
X76707Y63015D01*
X76853Y63076D01*
X76978Y63172D01*
X77074Y63297D01*
X77086Y63327D01*
X77189Y63313D01*
X77196Y63245D01*
X76851Y62900D01*
X76658Y62707D01*
X75375Y62707D01*
X74843Y62175D01*
Y61982D01*
X74790Y61857D01*
X74770Y61700D01*
X74790Y61543D01*
X74843Y61418D01*
Y60982D01*
X74790Y60857D01*
X74770Y60700D01*
X74790Y60543D01*
X74843Y60418D01*
Y59982D01*
X74790Y59857D01*
X74770Y59700D01*
X74790Y59543D01*
X74843Y59418D01*
Y58982D01*
X74790Y58857D01*
X74770Y58700D01*
X74790Y58543D01*
X74843Y58418D01*
Y57939D01*
X75290Y57491D01*
X76201Y57491D01*
X78319Y55381D01*
X78319Y41769D01*
X84775Y35313D01*
X84775Y31934D01*
X84702Y31878D01*
X84606Y31753D01*
X84546Y31607D01*
X84525Y31450D01*
X84546Y31293D01*
X84606Y31147D01*
X84702Y31022D01*
X84775Y30966D01*
Y30869D01*
X84722Y30828D01*
X84626Y30703D01*
X84565Y30557D01*
X84545Y30400D01*
X84565Y30243D01*
X84626Y30097D01*
X84722Y29972D01*
X84753Y29948D01*
Y29842D01*
X84702Y29803D01*
X84606Y29678D01*
X84546Y29532D01*
X84525Y29375D01*
X84546Y29218D01*
X84606Y29072D01*
X84702Y28947D01*
X84775Y28891D01*
X84775Y23343D01*
X83350Y21918D01*
X80907D01*
X78327Y24498D01*
X78339Y24533D01*
X78379Y24588D01*
X78514Y24570D01*
X78671Y24590D01*
X78817Y24651D01*
X78942Y24747D01*
X78979Y24795D01*
X79079D01*
X79116Y24747D01*
X79241Y24651D01*
X79387Y24590D01*
X79544Y24570D01*
X79700Y24590D01*
X79846Y24651D01*
X79972Y24747D01*
X80009Y24796D01*
X80109D01*
X80147Y24747D01*
X80272Y24651D01*
X80313Y24634D01*
X80339Y24537D01*
X80294Y24478D01*
X80233Y24332D01*
X80212Y24175D01*
X80233Y24018D01*
X80294Y23872D01*
X80390Y23747D01*
X80515Y23651D01*
X80661Y23590D01*
X80818Y23570D01*
X80974Y23590D01*
X81120Y23651D01*
X81246Y23747D01*
X81342Y23872D01*
X81402Y24018D01*
X81423Y24175D01*
X81402Y24332D01*
X81342Y24478D01*
X81246Y24603D01*
X81120Y24699D01*
X81079Y24716D01*
X81053Y24813D01*
X81099Y24872D01*
X81160Y25018D01*
X81180Y25175D01*
X81160Y25332D01*
X81099Y25478D01*
X81003Y25603D01*
X80878Y25699D01*
X80732Y25760D01*
X80575Y25780D01*
X80418Y25760D01*
X80272Y25699D01*
X80147Y25603D01*
X80109Y25554D01*
X80009D01*
X79972Y25603D01*
X79846Y25699D01*
X79700Y25760D01*
X79544Y25780D01*
X79387Y25760D01*
X79241Y25699D01*
X79116Y25603D01*
X79079Y25555D01*
X78979D01*
X78942Y25603D01*
X78817Y25699D01*
X78671Y25760D01*
X78514Y25780D01*
X78358Y25760D01*
X78212Y25699D01*
X78086Y25603D01*
X78049Y25554D01*
X77949D01*
X77911Y25603D01*
X77785Y25699D01*
X77639Y25760D01*
X77483Y25780D01*
X77326Y25760D01*
X77180Y25699D01*
X77149Y25676D01*
X74575Y28250D01*
Y53450D01*
X72375Y55650D01*
Y62450D01*
X66850Y67975D01*
X65843D01*
X65809Y68075D01*
X65838Y68097D01*
X65934Y68222D01*
X65994Y68368D01*
X66015Y68525D01*
X65994Y68682D01*
X65934Y68828D01*
X65838Y68953D01*
X65713Y69049D01*
X65567Y69110D01*
X65410Y69130D01*
X65253Y69110D01*
X65107Y69049D01*
X64982Y68953D01*
X64886Y68828D01*
X64825Y68682D01*
X64805Y68525D01*
X64825Y68368D01*
X64886Y68222D01*
X64982Y68097D01*
X65011Y68075D01*
X64977Y67975D01*
X63920D01*
X63615Y68280D01*
X63615Y70434D01*
X60174Y73875D01*
X57850Y73875D01*
X56400Y75325D01*
X50450Y75325D01*
X49400Y74275D01*
Y71650D01*
X50616Y70434D01*
X53497D01*
X53572Y70376D01*
X53718Y70315D01*
X53875Y70295D01*
X54032Y70315D01*
X54178Y70376D01*
X54253Y70434D01*
X56213D01*
X56899Y69748D01*
X56882Y69623D01*
X56743Y69517D01*
X56599Y69329D01*
X56508Y69110D01*
X56477Y68875D01*
X56508Y68640D01*
X56599Y68421D01*
X56743Y68233D01*
X56931Y68089D01*
X57150Y67998D01*
X57385Y67967D01*
X57620Y67998D01*
X57839Y68089D01*
X58027Y68233D01*
X58075Y68296D01*
X58175Y68262D01*
Y67200D01*
X58165Y67175D01*
X58125Y66875D01*
X58165Y66574D01*
X58175Y66549D01*
Y65200D01*
X58165Y65175D01*
X58125Y64875D01*
X58165Y64574D01*
X58175Y64549D01*
Y63200D01*
X58165Y63175D01*
X58125Y62875D01*
X58165Y62574D01*
X58175Y62549D01*
Y62409D01*
X58274Y62310D01*
X58280Y62295D01*
X58465Y62055D01*
X58705Y61870D01*
X58720Y61864D01*
X62378Y58206D01*
X62975D01*
X63007Y58174D01*
X64125D01*
X64425Y57874D01*
Y57453D01*
X64104Y57132D01*
X62957D01*
X62725Y56900D01*
Y53316D01*
X62721Y53306D01*
X62700Y53149D01*
X62721Y52992D01*
X62725Y52982D01*
Y47604D01*
X63169Y47159D01*
X64166D01*
X64550Y46775D01*
Y46325D01*
X64350Y46125D01*
X62550D01*
X61300Y47375D01*
Y56000D01*
X56650Y60650D01*
Y67865D01*
X55600Y68915D01*
X49516D01*
X48675Y68075D01*
Y51350D01*
X46700Y49375D01*
X46526Y49549D01*
X45276D01*
X44950Y49875D01*
Y50350D01*
X45150Y50550D01*
X46575D01*
X46800Y50775D01*
Y59875D01*
X46350Y60325D01*
X45187D01*
X44937Y60575D01*
Y61262D01*
X45175Y61500D01*
X46500D01*
X46850Y61850D01*
Y84950D01*
X50014Y88114D01*
X50097Y88050D01*
X50243Y87989D01*
X50400Y87969D01*
X50557Y87989D01*
X50703Y88050D01*
X50828Y88146D01*
X50924Y88271D01*
X50985Y88417D01*
X51005Y88574D01*
X50985Y88730D01*
X50924Y88876D01*
X50860Y88960D01*
X53040Y91140D01*
X53139Y91133D01*
X53186Y91072D01*
X53312Y90976D01*
X53458Y90915D01*
X53614Y90895D01*
X53771Y90915D01*
X53917Y90976D01*
X54042Y91072D01*
X54138Y91197D01*
X54199Y91343D01*
X54219Y91500D01*
X54199Y91657D01*
X54138Y91803D01*
X54042Y91928D01*
X54036Y91933D01*
X54026Y92058D01*
X54065Y92100D01*
X55072D01*
X55096Y92044D01*
X55099Y92000D01*
X54986Y91913D01*
X54890Y91788D01*
X54830Y91642D01*
X54809Y91485D01*
X54830Y91329D01*
X54890Y91183D01*
X54986Y91057D01*
X55112Y90961D01*
X55258Y90901D01*
X55414Y90880D01*
X55571Y90901D01*
X55717Y90961D01*
X55842Y91057D01*
X55938Y91183D01*
X55999Y91329D01*
X56019Y91485D01*
X55999Y91642D01*
X55938Y91788D01*
X55842Y91913D01*
X55729Y92000D01*
X55732Y92044D01*
X55757Y92100D01*
X56846D01*
X56880Y92000D01*
X56786Y91928D01*
X56690Y91803D01*
X56630Y91657D01*
X56609Y91500D01*
X56630Y91343D01*
X56690Y91197D01*
X56786Y91072D01*
X56912Y90976D01*
X57058Y90915D01*
X57214Y90895D01*
X57371Y90915D01*
X57517Y90976D01*
X57642Y91072D01*
X57738Y91197D01*
X57799Y91343D01*
X57819Y91500D01*
X57799Y91657D01*
X57738Y91803D01*
X57642Y91928D01*
X57548Y92000D01*
X57582Y92100D01*
X58979D01*
X58986Y92000D01*
X58968Y91998D01*
X58868Y91985D01*
X58722Y91924D01*
X58597Y91828D01*
X58501Y91703D01*
X58440Y91557D01*
X58420Y91400D01*
X58440Y91243D01*
X58501Y91097D01*
X58597Y90972D01*
X58722Y90876D01*
X58868Y90815D01*
X59025Y90795D01*
X59182Y90815D01*
X59328Y90876D01*
X59453Y90972D01*
X59549Y91097D01*
X59610Y91243D01*
X59630Y91400D01*
X59610Y91557D01*
X59549Y91703D01*
X59453Y91828D01*
X59328Y91924D01*
X59182Y91985D01*
X59082Y91998D01*
X59064Y92000D01*
X59071Y92100D01*
X59182D01*
X59375Y92293D01*
Y95520D01*
X59385Y95543D01*
X59405Y95700D01*
X59385Y95857D01*
X59375Y95880D01*
Y96050D01*
X59575Y96250D01*
X63781D01*
X64046Y95984D01*
X64041Y95978D01*
X63981Y95832D01*
X63960Y95675D01*
X63981Y95518D01*
X64041Y95372D01*
X64065Y95342D01*
Y92405D01*
X64345Y92100D01*
X79725D01*
X81825Y90000D01*
Y87330D01*
X78945Y84450D01*
X66422D01*
X65987Y84015D01*
Y83525D01*
X65037Y82575D01*
X64114D01*
X63425Y83264D01*
Y83400D01*
X62575Y84250D01*
X50550D01*
X50247Y83947D01*
X50154Y83935D01*
X50008Y83874D01*
X49883Y83778D01*
X49787Y83653D01*
X49726Y83507D01*
X49706Y83350D01*
X49726Y83193D01*
X49787Y83047D01*
X49883Y82922D01*
X50000Y82832D01*
Y79203D01*
X50953Y78250D01*
X70375D01*
X72075Y76550D01*
X73200Y75425D01*
X73200Y73135D01*
X75575Y70760D01*
Y70547D01*
X77709D01*
X78213Y71050D01*
X78150Y71113D01*
Y72501D01*
X77453Y73197D01*
X75648D01*
X75325Y73521D01*
X75325Y75210D01*
X76665Y76550D01*
X78675Y76550D01*
X84094Y81969D01*
X89484D01*
X89879Y81575D01*
X93277D01*
X94119Y82418D01*
Y83475D01*
X93519Y84075D01*
X90697D01*
X90402Y84350D01*
Y88323D01*
X88925Y89800D01*
X88925Y91525D01*
X89250Y91849D01*
X103551D01*
X104800Y90600D01*
X104800Y88725D01*
X103350Y87275D01*
X103375Y81675D01*
X106148Y78902D01*
X106119Y78789D01*
X106022Y78749D01*
X105897Y78653D01*
X105801Y78528D01*
X105740Y78382D01*
X105720Y78225D01*
X105740Y78068D01*
X105801Y77922D01*
X105897Y77797D01*
X106022Y77701D01*
X106168Y77640D01*
X106325Y77620D01*
X106450Y77636D01*
X106550Y77590D01*
Y77590D01*
X106712D01*
X113703Y70600D01*
X114298Y70005D01*
X114298Y65978D01*
X115800Y64475D01*
X116825D01*
X117100Y64750D01*
X117114Y65438D01*
X116825Y65726D01*
X116071D01*
X115870Y65927D01*
X115870Y68975D01*
Y71280D01*
X113534Y73617D01*
Y73842D01*
X113560Y73905D01*
X113580Y74062D01*
X113560Y74219D01*
X113534Y74281D01*
X113534Y74936D01*
X107619Y80850D01*
Y82531D01*
X107925Y82837D01*
X107925Y83700D01*
X111275Y83700D01*
X111875Y84300D01*
X111875Y91097D01*
X111905Y91168D01*
X111925Y91325D01*
X111905Y91482D01*
X111875Y91553D01*
Y91675D01*
X110400Y93150D01*
X108750Y93150D01*
X107875Y94025D01*
X107875Y94386D01*
X107899Y94443D01*
X107919Y94600D01*
X107899Y94757D01*
X107875Y94814D01*
X107875Y95100D01*
X106800Y96175D01*
X104300D01*
X103097Y97378D01*
Y98025D01*
X103245Y98174D01*
X103749Y98174D01*
D02*
G37*
G36*
X45375Y65975D02*
Y65225D01*
X45176Y65025D01*
X43931D01*
X43500Y64595D01*
Y55305D01*
X43755Y55050D01*
X45205D01*
X45425Y54830D01*
Y54144D01*
X45050Y53769D01*
X43960D01*
X43491Y53300D01*
X43499Y46150D01*
X44125Y45537D01*
X47313D01*
X49062Y43787D01*
X49062Y40438D01*
X49775Y39725D01*
X50148Y39725D01*
X50280Y39707D01*
X50413Y39725D01*
X50678Y39725D01*
X50785Y39832D01*
X50860Y39863D01*
X51100Y40047D01*
X51285Y40287D01*
X51316Y40362D01*
X51528Y40575D01*
X57587Y40575D01*
X58714Y39447D01*
X60275Y39450D01*
X62399Y41574D01*
X62986D01*
X63016Y41551D01*
X63162Y41490D01*
X63319Y41470D01*
X63476Y41490D01*
X63622Y41551D01*
X63652Y41574D01*
X63824D01*
X64150Y41900D01*
Y42397D01*
X64470Y42717D01*
X65120D01*
X65200Y42636D01*
Y41744D01*
X65444Y41500D01*
X66090D01*
X66325Y41735D01*
Y52100D01*
X65875Y52550D01*
X64300D01*
X64075Y52775D01*
X64105Y52805D01*
Y53724D01*
X64331Y53950D01*
X65890D01*
X66400Y54460D01*
X66400Y62024D01*
X64800Y63624D01*
X64476D01*
X64275Y63825D01*
X64275Y64300D01*
X64500Y64525D01*
X65153D01*
X67459Y62219D01*
Y60974D01*
X67343Y60958D01*
X67197Y60898D01*
X67071Y60802D01*
X66975Y60676D01*
X66915Y60531D01*
X66894Y60374D01*
X66915Y60217D01*
X66975Y60071D01*
X67071Y59946D01*
X67197Y59850D01*
X67343Y59789D01*
X67459Y59774D01*
X67459Y50401D01*
X67369Y50390D01*
X67223Y50329D01*
X67097Y50233D01*
X67001Y50108D01*
X66941Y49962D01*
X66920Y49805D01*
X66941Y49648D01*
X67001Y49502D01*
X67097Y49377D01*
X67223Y49281D01*
X67369Y49220D01*
X67459Y49209D01*
X67459Y39653D01*
Y37194D01*
X67359Y37128D01*
X67282Y37160D01*
X67125Y37180D01*
X66968Y37160D01*
X66822Y37099D01*
X66697Y37003D01*
X66601Y36878D01*
X66540Y36732D01*
X66520Y36575D01*
X66540Y36418D01*
X66601Y36272D01*
X66697Y36147D01*
X66822Y36051D01*
X66968Y35990D01*
X67125Y35970D01*
X67282Y35990D01*
X67359Y36022D01*
X67459Y35956D01*
Y35013D01*
X67459Y28105D01*
X67359Y28046D01*
X67225Y28064D01*
X67068Y28043D01*
X66922Y27983D01*
X66797Y27886D01*
X66701Y27761D01*
X66640Y27615D01*
X66620Y27458D01*
X66640Y27302D01*
X66701Y27156D01*
X66797Y27031D01*
X66922Y26934D01*
X67068Y26874D01*
X67225Y26853D01*
X67359Y26871D01*
X67459Y26812D01*
X67459Y21297D01*
X65857Y19696D01*
X64560D01*
X64275Y19981D01*
X64275Y20275D01*
X64550Y20550D01*
X65020Y20550D01*
X65970Y21500D01*
X65975Y30275D01*
X65650Y30600D01*
X64479Y30600D01*
X64225Y30854D01*
Y31450D01*
X64475Y31700D01*
X65475D01*
X65857Y32082D01*
Y33419D01*
X65859Y33422D01*
X65920Y33568D01*
X65940Y33725D01*
X65920Y33882D01*
X65859Y34028D01*
X65857Y34031D01*
Y35291D01*
X65910Y35418D01*
X65930Y35575D01*
X65910Y35732D01*
X65857Y35859D01*
Y38004D01*
X65070Y38767D01*
X63705D01*
X62263Y37325D01*
X50401D01*
X50352Y37425D01*
X50374Y37454D01*
X50435Y37600D01*
X50455Y37757D01*
X50435Y37913D01*
X50374Y38059D01*
X50278Y38185D01*
X50153Y38281D01*
X50007Y38341D01*
X49850Y38362D01*
X49693Y38341D01*
X49547Y38281D01*
X49422Y38185D01*
X49404Y38161D01*
X49304Y38154D01*
X49283Y38175D01*
X48775D01*
X47362Y39588D01*
Y43282D01*
X46618Y44025D01*
X46535D01*
X46533Y44027D01*
X46408Y44123D01*
X46262Y44183D01*
X46105Y44204D01*
X45949Y44183D01*
X45803Y44123D01*
X45677Y44027D01*
X45581Y43902D01*
X45521Y43756D01*
X45516Y43723D01*
X45400Y43607D01*
Y43469D01*
X44955Y43024D01*
X44005D01*
X43606Y42625D01*
X43543D01*
Y33459D01*
X43978Y33024D01*
X45023D01*
X45307Y32740D01*
Y32025D01*
X45057Y31775D01*
X44162D01*
X43475Y31088D01*
Y22443D01*
X43918Y22000D01*
X45107D01*
X45318Y21789D01*
Y20997D01*
X45097Y20775D01*
X44018D01*
X43455Y20212D01*
Y19300D01*
X42438D01*
X42300Y19438D01*
Y32287D01*
X39212Y35375D01*
X37025D01*
X36500Y35900D01*
X33500D01*
X31483Y33883D01*
X31483Y33775D01*
X31483Y33232D01*
X30626Y32375D01*
X15908Y32375D01*
X15268Y33015D01*
Y35657D01*
X15686Y36075D01*
X30700Y36075D01*
X33600Y38975D01*
X40675Y38975D01*
X41536Y39836D01*
X41536Y58034D01*
X42700Y59198D01*
Y66050D01*
X42950Y66300D01*
X45050D01*
X45375Y65975D01*
D02*
G37*
G36*
X57469Y73620D02*
X63314Y67775D01*
Y66644D01*
X63771Y66188D01*
X63900D01*
X63953Y66165D01*
X64110Y66145D01*
X64267Y66165D01*
X64320Y66188D01*
X65200D01*
X65253Y66165D01*
X65410Y66145D01*
X65567Y66165D01*
X65620Y66188D01*
X66775D01*
Y65561D01*
X66856Y65480D01*
X66901Y65372D01*
X66997Y65247D01*
X67122Y65151D01*
X67230Y65106D01*
X67386Y64950D01*
X69001Y64926D01*
X71675Y62253D01*
Y54278D01*
X73062Y52890D01*
X73062Y26731D01*
X79143Y20650D01*
X85069Y20650D01*
X86369Y21950D01*
Y36369D01*
X79143Y43594D01*
X79143Y56275D01*
X77868Y57550D01*
X77202Y58216D01*
X75936D01*
X75836Y58315D01*
X75899Y58397D01*
X75960Y58543D01*
X75980Y58700D01*
X75960Y58857D01*
X75899Y59003D01*
X75803Y59128D01*
X75782Y59144D01*
Y59256D01*
X75803Y59272D01*
X75899Y59397D01*
X75960Y59543D01*
X75980Y59700D01*
X75960Y59857D01*
X75899Y60003D01*
X75803Y60128D01*
X75782Y60144D01*
Y60256D01*
X75803Y60272D01*
X75899Y60397D01*
X75960Y60543D01*
X75980Y60700D01*
X75960Y60857D01*
X75899Y61003D01*
X75803Y61128D01*
X75782Y61144D01*
Y61256D01*
X75803Y61272D01*
X75899Y61397D01*
X75960Y61543D01*
X75980Y61700D01*
X75960Y61857D01*
X75899Y62003D01*
X75835Y62085D01*
X75975Y62225D01*
X77357D01*
X77866Y62734D01*
X77868Y62956D01*
X77868Y65793D01*
X77868Y66400D01*
X77452Y66816D01*
X76975D01*
X76823Y66968D01*
Y67450D01*
X76975Y67602D01*
X77723Y67602D01*
X78800Y66520D01*
X79015Y66304D01*
X79015Y60285D01*
X81623Y57677D01*
X81587Y57572D01*
X81493Y57560D01*
X81347Y57499D01*
X81222Y57403D01*
X81126Y57278D01*
X81065Y57132D01*
X81045Y56975D01*
X81065Y56818D01*
X81126Y56672D01*
X81222Y56547D01*
X81347Y56451D01*
X81493Y56390D01*
X81650Y56370D01*
X81807Y56390D01*
X81953Y56451D01*
X82078Y56547D01*
X82174Y56672D01*
X82235Y56818D01*
X82250Y56935D01*
X82262Y56979D01*
X82349Y57025D01*
X82875D01*
X83455Y56445D01*
Y53245D01*
X83810Y52890D01*
X84200Y52500D01*
Y46833D01*
X84929Y46104D01*
X87354Y46104D01*
X87925Y46675D01*
X87925Y50467D01*
X88208Y50750D01*
X89147D01*
X89152Y50746D01*
X89298Y50685D01*
X89455Y50665D01*
X89612Y50685D01*
X89758Y50746D01*
X89763Y50750D01*
X90185D01*
X90293Y50705D01*
X90450Y50685D01*
X90607Y50705D01*
X90715Y50750D01*
X91900Y50750D01*
X92043Y50690D01*
X92200Y50670D01*
X92357Y50690D01*
X92500Y50750D01*
X93235D01*
X93318Y50715D01*
X93475Y50695D01*
X93632Y50715D01*
X93715Y50750D01*
X95205D01*
X95288Y50715D01*
X95445Y50695D01*
X95602Y50715D01*
X95685Y50750D01*
X96210D01*
X96293Y50715D01*
X96450Y50695D01*
X96607Y50715D01*
X96690Y50750D01*
X97435D01*
X97543Y50705D01*
X97700Y50685D01*
X97857Y50705D01*
X97965Y50750D01*
X99179D01*
X99287Y50705D01*
X99444Y50685D01*
X99601Y50705D01*
X99709Y50750D01*
X100180D01*
X100288Y50705D01*
X100445Y50685D01*
X100601Y50705D01*
X100710Y50750D01*
X106150D01*
X106293Y50690D01*
X106450Y50670D01*
X106607Y50690D01*
X106750Y50750D01*
X107150D01*
X107293Y50690D01*
X107450Y50670D01*
X107607Y50690D01*
X107750Y50750D01*
X109400D01*
X110625Y51975D01*
X110625Y65025D01*
X111250Y65650D01*
X111975D01*
X112675Y64950D01*
X112675Y50175D01*
X112675Y47976D01*
X114901Y45750D01*
Y23066D01*
X108435Y16600D01*
X87800D01*
X75600Y16600D01*
X72067Y20133D01*
X72080Y20232D01*
X72060Y20389D01*
X71999Y20534D01*
X71903Y20660D01*
X71778Y20756D01*
X71632Y20816D01*
X71475Y20837D01*
X71376Y20824D01*
X71213Y20987D01*
X71230Y21117D01*
X71210Y21274D01*
X71149Y21419D01*
X71053Y21545D01*
X70928Y21641D01*
X70782Y21701D01*
X70625Y21722D01*
X70495Y21705D01*
X68125Y24075D01*
X68125Y49764D01*
X68130Y49805D01*
X68125Y49847D01*
Y53230D01*
Y61938D01*
X65267Y64795D01*
X61780Y64795D01*
X60850Y65725D01*
X60850Y67264D01*
X56614Y71500D01*
X53914D01*
X53875Y71505D01*
X53836Y71500D01*
X53450D01*
X52950Y71000D01*
X50975D01*
X50600Y71375D01*
Y74600D01*
X50925Y74925D01*
X55800D01*
X56164Y74925D01*
X57469Y73620D01*
D02*
G37*
G36*
X153623Y32102D02*
X153623Y19623D01*
X147735Y13735D01*
X144496D01*
X144436Y13760D01*
X144201Y13791D01*
X143966Y13760D01*
X143905Y13735D01*
X139561D01*
X137225Y11399D01*
Y10965D01*
X137215Y10890D01*
X137225Y10815D01*
Y9175D01*
X130800Y2750D01*
X128300Y2750D01*
X127875Y3175D01*
X127875Y7450D01*
X128400Y7975D01*
X132164Y7975D01*
X134025Y9836D01*
X134025Y13050D01*
X136725Y15750D01*
Y36025D01*
X137185Y36485D01*
X138756D01*
X139148Y36877D01*
X148848Y36877D01*
X153623Y32102D01*
D02*
G37*
G36*
X82895Y109593D02*
X85735Y109441D01*
X88569Y109187D01*
X91392Y108833D01*
X94200Y108378D01*
X96990Y107823D01*
X99759Y107168D01*
X102502Y106416D01*
X105217Y105566D01*
X107900Y104619D01*
X110548Y103578D01*
X113156Y102442D01*
X115722Y101214D01*
X118243Y99896D01*
X120715Y98488D01*
X123136Y96993D01*
X125501Y95412D01*
X127809Y93748D01*
X130056Y92003D01*
X132239Y90179D01*
X134355Y88278D01*
X136402Y86302D01*
X138378Y84255D01*
X140279Y82138D01*
X142103Y79955D01*
X143848Y77709D01*
X145512Y75401D01*
X147093Y73036D01*
X148588Y70615D01*
X149996Y68143D01*
X151314Y65622D01*
X152542Y63056D01*
X153678Y60447D01*
X154719Y57800D01*
X155666Y55117D01*
X156516Y52402D01*
X157269Y49659D01*
X157923Y46890D01*
X158478Y44100D01*
X158933Y41292D01*
X159287Y38469D01*
X159541Y35635D01*
X159693Y32794D01*
X159744Y29950D01*
X159685Y26887D01*
X159509Y23829D01*
X159215Y20780D01*
X158804Y17744D01*
X158277Y14727D01*
X157634Y11732D01*
X156876Y8764D01*
X156005Y5827D01*
X155022Y2926D01*
X154001Y256D01*
X149179D01*
X149060Y417D01*
X153340Y14365D01*
X154225Y19100D01*
X154550Y21650D01*
X154800Y24900D01*
X154931Y26599D01*
X154979Y27399D01*
X154979Y30025D01*
X154914Y32925D01*
X154700Y36525D01*
X154306Y39965D01*
X154140Y41405D01*
X153825Y43050D01*
X152825Y47825D01*
X152275Y49925D01*
X151538Y52412D01*
X150300Y56100D01*
X148917Y59441D01*
X147775Y61975D01*
X145776Y65950D01*
X143347Y70100D01*
X142124Y71961D01*
X140625Y74000D01*
X138218Y77275D01*
X134850Y81100D01*
X131317Y84633D01*
X127332Y88161D01*
X123975Y90650D01*
X119530Y93650D01*
X115663Y96063D01*
X110800Y98225D01*
X107546Y99672D01*
X101107Y101920D01*
X96944Y102935D01*
X93591Y103708D01*
X88770Y104403D01*
X82741Y104975D01*
X78425Y104875D01*
X75950Y104773D01*
X74568Y104675D01*
X72825Y104551D01*
X70875Y104350D01*
X68425Y104000D01*
X65269Y103461D01*
X59750Y102150D01*
X55750Y100875D01*
X51350Y99254D01*
X49125Y98225D01*
X45604Y96596D01*
X42284Y94713D01*
X37575Y91775D01*
X34425Y89426D01*
X30987Y86672D01*
X27216Y83115D01*
X22983Y78668D01*
X20499Y75500D01*
X17700Y71650D01*
X15325Y67750D01*
X14100Y65625D01*
X12975Y63500D01*
X10339Y57596D01*
X10059Y56822D01*
X9742Y55943D01*
X9004Y53900D01*
X8322Y51701D01*
X7964Y50546D01*
X7775Y49825D01*
X7493Y48857D01*
X7250Y47825D01*
X6750Y45700D01*
X5875Y41125D01*
X5600Y38800D01*
X5400Y36750D01*
X5250Y34775D01*
X5124Y32725D01*
X5110Y31978D01*
X5052Y28850D01*
X5166Y26051D01*
X5361Y23600D01*
X5532Y21451D01*
X5875Y19100D01*
X6255Y16495D01*
X6750Y14250D01*
X7125Y12550D01*
X11096Y418D01*
X10978Y256D01*
X6099D01*
X5078Y2926D01*
X4095Y5827D01*
X3224Y8764D01*
X2466Y11732D01*
X1823Y14727D01*
X1296Y17744D01*
X885Y20780D01*
X591Y23829D01*
X415Y26887D01*
X356Y29950D01*
X407Y32794D01*
X559Y35635D01*
X813Y38469D01*
X1167Y41292D01*
X1622Y44100D01*
X2177Y46890D01*
X2831Y49659D01*
X3584Y52402D01*
X4434Y55117D01*
X5381Y57800D01*
X6422Y60448D01*
X7558Y63056D01*
X8786Y65622D01*
X10104Y68143D01*
X11512Y70615D01*
X13007Y73036D01*
X14588Y75401D01*
X16252Y77709D01*
X17997Y79956D01*
X19821Y82138D01*
X21722Y84255D01*
X23698Y86302D01*
X25745Y88278D01*
X27861Y90179D01*
X30044Y92003D01*
X32291Y93748D01*
X34599Y95412D01*
X36964Y96993D01*
X39385Y98488D01*
X41857Y99896D01*
X44378Y101214D01*
X46944Y102442D01*
X49552Y103578D01*
X52200Y104619D01*
X54883Y105566D01*
X57598Y106416D01*
X60341Y107168D01*
X63110Y107823D01*
X65900Y108378D01*
X68708Y108833D01*
X71531Y109187D01*
X74365Y109441D01*
X77206Y109593D01*
X80050Y109644D01*
X82895Y109593D01*
D02*
G37*
%LPC*%
G36*
X101825Y95880D02*
X101668Y95860D01*
X101522Y95799D01*
X101397Y95703D01*
X101375Y95674D01*
X101275D01*
X101253Y95703D01*
X101128Y95799D01*
X100982Y95860D01*
X100825Y95880D01*
X100668Y95860D01*
X100522Y95799D01*
X100397Y95703D01*
X100301Y95578D01*
X100240Y95432D01*
X100220Y95275D01*
X100240Y95118D01*
X100301Y94972D01*
X100397Y94847D01*
X100522Y94751D01*
X100668Y94690D01*
X100825Y94670D01*
X100982Y94690D01*
X101128Y94751D01*
X101253Y94847D01*
X101275Y94876D01*
X101375D01*
X101397Y94847D01*
X101522Y94751D01*
X101668Y94690D01*
X101825Y94670D01*
X101982Y94690D01*
X102128Y94751D01*
X102253Y94847D01*
X102349Y94972D01*
X102410Y95118D01*
X102430Y95275D01*
X102410Y95432D01*
X102349Y95578D01*
X102253Y95703D01*
X102128Y95799D01*
X101982Y95860D01*
X101825Y95880D01*
D02*
G37*
G36*
X34907Y80280D02*
X34751Y80260D01*
X34605Y80199D01*
X34479Y80103D01*
X34383Y79978D01*
X34323Y79832D01*
X34302Y79675D01*
X34323Y79518D01*
X34383Y79372D01*
X34479Y79247D01*
X34605Y79151D01*
X34751Y79090D01*
X34907Y79070D01*
X35064Y79090D01*
X35210Y79151D01*
X35335Y79247D01*
X35431Y79372D01*
X35492Y79518D01*
X35513Y79675D01*
X35492Y79832D01*
X35431Y79978D01*
X35335Y80103D01*
X35210Y80199D01*
X35064Y80260D01*
X34907Y80280D01*
D02*
G37*
G36*
X30500Y80255D02*
X30343Y80235D01*
X30197Y80174D01*
X30072Y80078D01*
X29976Y79953D01*
X29915Y79807D01*
X29895Y79650D01*
X29915Y79493D01*
X29976Y79347D01*
X30072Y79222D01*
X30197Y79126D01*
X30343Y79065D01*
X30500Y79045D01*
X30657Y79065D01*
X30803Y79126D01*
X30928Y79222D01*
X31024Y79347D01*
X31085Y79493D01*
X31105Y79650D01*
X31085Y79807D01*
X31024Y79953D01*
X30928Y80078D01*
X30803Y80174D01*
X30657Y80235D01*
X30500Y80255D01*
D02*
G37*
G36*
X32694Y80230D02*
X32538Y80210D01*
X32392Y80149D01*
X32266Y80053D01*
X32170Y79928D01*
X32110Y79782D01*
X32089Y79625D01*
X32110Y79468D01*
X32170Y79322D01*
X32266Y79197D01*
X32392Y79101D01*
X32538Y79040D01*
X32694Y79020D01*
X32851Y79040D01*
X32997Y79101D01*
X33122Y79197D01*
X33218Y79322D01*
X33279Y79468D01*
X33299Y79625D01*
X33279Y79782D01*
X33218Y79928D01*
X33122Y80053D01*
X32997Y80149D01*
X32851Y80210D01*
X32694Y80230D01*
D02*
G37*
G36*
X28181Y79030D02*
X28024Y79010D01*
X27878Y78949D01*
X27753Y78853D01*
X27657Y78728D01*
X27596Y78582D01*
X27575Y78425D01*
X27596Y78268D01*
X27657Y78122D01*
X27753Y77997D01*
X27878Y77901D01*
X28024Y77840D01*
X28181Y77820D01*
X28337Y77840D01*
X28483Y77901D01*
X28609Y77997D01*
X28705Y78122D01*
X28765Y78268D01*
X28786Y78425D01*
X28765Y78582D01*
X28705Y78728D01*
X28609Y78853D01*
X28483Y78949D01*
X28337Y79010D01*
X28181Y79030D01*
D02*
G37*
G36*
X32775Y77880D02*
X32618Y77860D01*
X32472Y77799D01*
X32347Y77703D01*
X32251Y77578D01*
X32190Y77432D01*
X32170Y77275D01*
X32190Y77118D01*
X32251Y76972D01*
X32347Y76847D01*
X32472Y76751D01*
X32618Y76690D01*
X32775Y76670D01*
X32932Y76690D01*
X33078Y76751D01*
X33203Y76847D01*
X33299Y76972D01*
X33360Y77118D01*
X33380Y77275D01*
X33360Y77432D01*
X33299Y77578D01*
X33203Y77703D01*
X33078Y77799D01*
X32932Y77860D01*
X32775Y77880D01*
D02*
G37*
G36*
X13050Y44406D02*
X12815Y44383D01*
X12589Y44314D01*
X12380Y44203D01*
X12197Y44053D01*
X12047Y43870D01*
X11936Y43661D01*
X11867Y43435D01*
X11844Y43200D01*
X11867Y42965D01*
X11936Y42739D01*
X12047Y42530D01*
X12197Y42347D01*
X12380Y42197D01*
X12589Y42086D01*
X12815Y42017D01*
X13050Y41994D01*
X13285Y42017D01*
X13511Y42086D01*
X13720Y42197D01*
X13903Y42347D01*
X14053Y42530D01*
X14164Y42739D01*
X14233Y42965D01*
X14256Y43200D01*
X14233Y43435D01*
X14164Y43661D01*
X14053Y43870D01*
X13903Y44053D01*
X13720Y44203D01*
X13511Y44314D01*
X13285Y44383D01*
X13050Y44406D01*
D02*
G37*
G36*
X9550D02*
X9315Y44383D01*
X9089Y44314D01*
X8880Y44203D01*
X8697Y44053D01*
X8547Y43870D01*
X8436Y43661D01*
X8367Y43435D01*
X8344Y43200D01*
X8367Y42965D01*
X8436Y42739D01*
X8547Y42530D01*
X8697Y42347D01*
X8880Y42197D01*
X9089Y42086D01*
X9315Y42017D01*
X9550Y41994D01*
X9785Y42017D01*
X10011Y42086D01*
X10220Y42197D01*
X10403Y42347D01*
X10553Y42530D01*
X10664Y42739D01*
X10733Y42965D01*
X10756Y43200D01*
X10733Y43435D01*
X10664Y43661D01*
X10553Y43870D01*
X10403Y44053D01*
X10220Y44203D01*
X10011Y44314D01*
X9785Y44383D01*
X9550Y44406D01*
D02*
G37*
G36*
X12225Y35181D02*
X11989Y35158D01*
X11763Y35089D01*
X11555Y34978D01*
X11372Y34828D01*
X11222Y34645D01*
X11111Y34436D01*
X11042Y34210D01*
X11019Y33975D01*
X11042Y33740D01*
X11111Y33514D01*
X11222Y33305D01*
X11372Y33122D01*
X11555Y32972D01*
X11763Y32861D01*
X11989Y32792D01*
X12225Y32769D01*
X12460Y32792D01*
X12686Y32861D01*
X12895Y32972D01*
X13077Y33122D01*
X13227Y33305D01*
X13339Y33514D01*
X13407Y33740D01*
X13430Y33975D01*
X13407Y34210D01*
X13339Y34436D01*
X13227Y34645D01*
X13077Y34828D01*
X12895Y34978D01*
X12686Y35089D01*
X12460Y35158D01*
X12225Y35181D01*
D02*
G37*
G36*
X8725D02*
X8489Y35158D01*
X8263Y35089D01*
X8055Y34978D01*
X7872Y34828D01*
X7722Y34645D01*
X7611Y34436D01*
X7542Y34210D01*
X7519Y33975D01*
X7542Y33740D01*
X7611Y33514D01*
X7722Y33305D01*
X7872Y33122D01*
X8055Y32972D01*
X8263Y32861D01*
X8489Y32792D01*
X8725Y32769D01*
X8960Y32792D01*
X9186Y32861D01*
X9395Y32972D01*
X9577Y33122D01*
X9727Y33305D01*
X9839Y33514D01*
X9907Y33740D01*
X9930Y33975D01*
X9907Y34210D01*
X9839Y34436D01*
X9727Y34645D01*
X9577Y34828D01*
X9395Y34978D01*
X9186Y35089D01*
X8960Y35158D01*
X8725Y35181D01*
D02*
G37*
G36*
X12275Y26031D02*
X12040Y26008D01*
X11814Y25939D01*
X11605Y25828D01*
X11422Y25678D01*
X11272Y25495D01*
X11161Y25286D01*
X11092Y25060D01*
X11069Y24825D01*
X11092Y24590D01*
X11161Y24364D01*
X11272Y24155D01*
X11422Y23972D01*
X11605Y23822D01*
X11814Y23711D01*
X12040Y23642D01*
X12275Y23619D01*
X12510Y23642D01*
X12736Y23711D01*
X12945Y23822D01*
X13128Y23972D01*
X13278Y24155D01*
X13389Y24364D01*
X13458Y24590D01*
X13481Y24825D01*
X13458Y25060D01*
X13389Y25286D01*
X13278Y25495D01*
X13128Y25678D01*
X12945Y25828D01*
X12736Y25939D01*
X12510Y26008D01*
X12275Y26031D01*
D02*
G37*
G36*
X8775D02*
X8540Y26008D01*
X8314Y25939D01*
X8105Y25828D01*
X7922Y25678D01*
X7772Y25495D01*
X7661Y25286D01*
X7592Y25060D01*
X7569Y24825D01*
X7592Y24590D01*
X7661Y24364D01*
X7772Y24155D01*
X7922Y23972D01*
X8105Y23822D01*
X8314Y23711D01*
X8540Y23642D01*
X8775Y23619D01*
X9010Y23642D01*
X9236Y23711D01*
X9445Y23822D01*
X9628Y23972D01*
X9778Y24155D01*
X9889Y24364D01*
X9958Y24590D01*
X9981Y24825D01*
X9958Y25060D01*
X9889Y25286D01*
X9778Y25495D01*
X9628Y25678D01*
X9445Y25828D01*
X9236Y25939D01*
X9010Y26008D01*
X8775Y26031D01*
D02*
G37*
G36*
X13000Y16876D02*
X12765Y16853D01*
X12539Y16784D01*
X12330Y16673D01*
X12147Y16523D01*
X11997Y16340D01*
X11886Y16131D01*
X11817Y15905D01*
X11794Y15670D01*
X11817Y15435D01*
X11886Y15209D01*
X11997Y15000D01*
X12147Y14817D01*
X12330Y14667D01*
X12539Y14556D01*
X12765Y14487D01*
X13000Y14464D01*
X13235Y14487D01*
X13461Y14556D01*
X13670Y14667D01*
X13853Y14817D01*
X14003Y15000D01*
X14114Y15209D01*
X14183Y15435D01*
X14206Y15670D01*
X14183Y15905D01*
X14114Y16131D01*
X14003Y16340D01*
X13853Y16523D01*
X13670Y16673D01*
X13461Y16784D01*
X13235Y16853D01*
X13000Y16876D01*
D02*
G37*
G36*
X9500D02*
X9265Y16853D01*
X9039Y16784D01*
X8830Y16673D01*
X8647Y16523D01*
X8497Y16340D01*
X8386Y16131D01*
X8317Y15905D01*
X8294Y15670D01*
X8317Y15435D01*
X8386Y15209D01*
X8497Y15000D01*
X8647Y14817D01*
X8830Y14667D01*
X9039Y14556D01*
X9265Y14487D01*
X9500Y14464D01*
X9735Y14487D01*
X9961Y14556D01*
X10170Y14667D01*
X10353Y14817D01*
X10503Y15000D01*
X10614Y15209D01*
X10683Y15435D01*
X10706Y15670D01*
X10683Y15905D01*
X10614Y16131D01*
X10503Y16340D01*
X10353Y16523D01*
X10170Y16673D01*
X9961Y16784D01*
X9735Y16853D01*
X9500Y16876D01*
D02*
G37*
G36*
X31900Y8390D02*
X31743Y8370D01*
X31597Y8309D01*
X31472Y8213D01*
X31376Y8088D01*
X31315Y7942D01*
X31295Y7785D01*
X31315Y7628D01*
X31376Y7482D01*
X31472Y7357D01*
X31597Y7261D01*
X31743Y7200D01*
X31900Y7180D01*
X32057Y7200D01*
X32203Y7261D01*
X32328Y7357D01*
X32424Y7482D01*
X32485Y7628D01*
X32505Y7785D01*
X32485Y7942D01*
X32424Y8088D01*
X32328Y8213D01*
X32203Y8309D01*
X32057Y8370D01*
X31900Y8390D01*
D02*
G37*
G36*
X108125Y5082D02*
Y4615D01*
X108592D01*
X108559Y4696D01*
X108406Y4895D01*
X108206Y5048D01*
X108125Y5082D01*
D02*
G37*
G36*
X107325Y5082D02*
X107244Y5048D01*
X107045Y4895D01*
X106892Y4696D01*
X106858Y4615D01*
X107325D01*
Y5082D01*
D02*
G37*
G36*
X49286Y5082D02*
Y4615D01*
X49752D01*
X49719Y4696D01*
X49566Y4895D01*
X49367Y5048D01*
X49286Y5082D01*
D02*
G37*
G36*
X48486Y5082D02*
X48404Y5048D01*
X48205Y4895D01*
X48052Y4696D01*
X48019Y4615D01*
X48486D01*
Y5082D01*
D02*
G37*
G36*
X68920Y5082D02*
Y4615D01*
X69386D01*
X69353Y4696D01*
X69200Y4895D01*
X69001Y5048D01*
X68920Y5082D01*
D02*
G37*
G36*
X68119Y5082D02*
X68038Y5048D01*
X67839Y4895D01*
X67686Y4696D01*
X67653Y4615D01*
X68119D01*
Y5082D01*
D02*
G37*
G36*
X88519Y5082D02*
Y4615D01*
X88986D01*
X88953Y4696D01*
X88800Y4895D01*
X88601Y5048D01*
X88519Y5082D01*
D02*
G37*
G36*
X87719Y5082D02*
X87638Y5048D01*
X87439Y4895D01*
X87286Y4696D01*
X87253Y4615D01*
X87719D01*
Y5082D01*
D02*
G37*
G36*
X28428Y6682D02*
X28124Y6653D01*
X27832Y6564D01*
X27563Y6420D01*
X27327Y6226D01*
X27133Y5990D01*
X26989Y5721D01*
X26900Y5429D01*
X26870Y5125D01*
X26900Y4821D01*
X26989Y4529D01*
X27133Y4260D01*
X27327Y4024D01*
X27563Y3830D01*
X27832Y3686D01*
X28124Y3597D01*
X28428Y3568D01*
X28732Y3597D01*
X29024Y3686D01*
X29293Y3830D01*
X29529Y4024D01*
X29723Y4260D01*
X29867Y4529D01*
X29956Y4821D01*
X29985Y5125D01*
X29956Y5429D01*
X29867Y5721D01*
X29723Y5990D01*
X29529Y6226D01*
X29293Y6420D01*
X29024Y6564D01*
X28732Y6653D01*
X28428Y6682D01*
D02*
G37*
G36*
X24928D02*
X24624Y6653D01*
X24332Y6564D01*
X24063Y6420D01*
X23827Y6226D01*
X23633Y5990D01*
X23489Y5721D01*
X23400Y5429D01*
X23370Y5125D01*
X23400Y4821D01*
X23489Y4529D01*
X23633Y4260D01*
X23827Y4024D01*
X24063Y3830D01*
X24332Y3686D01*
X24624Y3597D01*
X24928Y3568D01*
X25232Y3597D01*
X25524Y3686D01*
X25793Y3830D01*
X26029Y4024D01*
X26223Y4260D01*
X26367Y4529D01*
X26456Y4821D01*
X26485Y5125D01*
X26456Y5429D01*
X26367Y5721D01*
X26223Y5990D01*
X26029Y6226D01*
X25793Y6420D01*
X25524Y6564D01*
X25232Y6653D01*
X24928Y6682D01*
D02*
G37*
G36*
X21428D02*
X21124Y6653D01*
X20832Y6564D01*
X20563Y6420D01*
X20327Y6226D01*
X20133Y5990D01*
X19989Y5721D01*
X19900Y5429D01*
X19870Y5125D01*
X19900Y4821D01*
X19989Y4529D01*
X20133Y4260D01*
X20327Y4024D01*
X20563Y3830D01*
X20832Y3686D01*
X21124Y3597D01*
X21428Y3568D01*
X21732Y3597D01*
X22024Y3686D01*
X22293Y3830D01*
X22529Y4024D01*
X22723Y4260D01*
X22867Y4529D01*
X22956Y4821D01*
X22985Y5125D01*
X22956Y5429D01*
X22867Y5721D01*
X22723Y5990D01*
X22529Y6226D01*
X22293Y6420D01*
X22024Y6564D01*
X21732Y6653D01*
X21428Y6682D01*
D02*
G37*
G36*
X17928D02*
X17624Y6653D01*
X17332Y6564D01*
X17063Y6420D01*
X16827Y6226D01*
X16633Y5990D01*
X16489Y5721D01*
X16400Y5429D01*
X16370Y5125D01*
X16400Y4821D01*
X16489Y4529D01*
X16633Y4260D01*
X16827Y4024D01*
X17063Y3830D01*
X17332Y3686D01*
X17624Y3597D01*
X17928Y3568D01*
X18232Y3597D01*
X18524Y3686D01*
X18793Y3830D01*
X19029Y4024D01*
X19223Y4260D01*
X19367Y4529D01*
X19456Y4821D01*
X19485Y5125D01*
X19456Y5429D01*
X19367Y5721D01*
X19223Y5990D01*
X19029Y6226D01*
X18793Y6420D01*
X18524Y6564D01*
X18232Y6653D01*
X17928Y6682D01*
D02*
G37*
G36*
X14428D02*
X14124Y6653D01*
X13832Y6564D01*
X13563Y6420D01*
X13327Y6226D01*
X13133Y5990D01*
X12989Y5721D01*
X12900Y5429D01*
X12870Y5125D01*
X12900Y4821D01*
X12989Y4529D01*
X13133Y4260D01*
X13327Y4024D01*
X13563Y3830D01*
X13832Y3686D01*
X14124Y3597D01*
X14428Y3568D01*
X14732Y3597D01*
X15024Y3686D01*
X15293Y3830D01*
X15529Y4024D01*
X15723Y4260D01*
X15867Y4529D01*
X15956Y4821D01*
X15985Y5125D01*
X15956Y5429D01*
X15867Y5721D01*
X15723Y5990D01*
X15529Y6226D01*
X15293Y6420D01*
X15024Y6564D01*
X14732Y6653D01*
X14428Y6682D01*
D02*
G37*
G36*
X107325Y3815D02*
X106858D01*
X106892Y3734D01*
X107045Y3535D01*
X107244Y3382D01*
X107325Y3348D01*
Y3815D01*
D02*
G37*
G36*
X87719Y3815D02*
X87253D01*
X87286Y3734D01*
X87439Y3535D01*
X87638Y3382D01*
X87719Y3348D01*
Y3815D01*
D02*
G37*
G36*
X48486Y3815D02*
X48019D01*
X48052Y3734D01*
X48205Y3535D01*
X48404Y3382D01*
X48486Y3348D01*
Y3815D01*
D02*
G37*
G36*
X68119Y3815D02*
X67653D01*
X67686Y3734D01*
X67839Y3535D01*
X68038Y3382D01*
X68119Y3348D01*
Y3815D01*
D02*
G37*
G36*
X88986Y3815D02*
X88519D01*
Y3348D01*
X88601Y3382D01*
X88800Y3535D01*
X88953Y3734D01*
X88986Y3815D01*
D02*
G37*
G36*
X108592Y3815D02*
X108125D01*
Y3348D01*
X108206Y3382D01*
X108406Y3535D01*
X108559Y3734D01*
X108592Y3815D01*
D02*
G37*
G36*
X69386Y3815D02*
X68920D01*
Y3348D01*
X69001Y3382D01*
X69200Y3535D01*
X69353Y3734D01*
X69386Y3815D01*
D02*
G37*
G36*
X49752Y3815D02*
X49286D01*
Y3348D01*
X49367Y3382D01*
X49566Y3535D01*
X49719Y3734D01*
X49752Y3815D01*
D02*
G37*
G36*
X116299Y5169D02*
X114391D01*
Y3261D01*
X116299D01*
Y5169D01*
D02*
G37*
G36*
X96693D02*
X94785D01*
Y3261D01*
X96693D01*
Y5169D01*
D02*
G37*
G36*
X57460Y5169D02*
X55552D01*
Y3261D01*
X57460D01*
Y5169D01*
D02*
G37*
G36*
X77094Y5169D02*
X75186D01*
Y3261D01*
X77094D01*
Y5169D01*
D02*
G37*
G36*
X112805Y5177D02*
X112556Y5144D01*
X112324Y5048D01*
X112125Y4895D01*
X111972Y4696D01*
X111876Y4464D01*
X111843Y4215D01*
X111876Y3966D01*
X111972Y3734D01*
X112125Y3535D01*
X112324Y3382D01*
X112556Y3286D01*
X112805Y3253D01*
X113054Y3286D01*
X113286Y3382D01*
X113486Y3535D01*
X113639Y3734D01*
X113735Y3966D01*
X113767Y4215D01*
X113735Y4464D01*
X113639Y4696D01*
X113486Y4895D01*
X113286Y5048D01*
X113054Y5144D01*
X112805Y5177D01*
D02*
G37*
G36*
X93199D02*
X92950Y5144D01*
X92718Y5048D01*
X92519Y4895D01*
X92366Y4696D01*
X92270Y4464D01*
X92237Y4215D01*
X92270Y3966D01*
X92366Y3734D01*
X92519Y3535D01*
X92718Y3382D01*
X92950Y3286D01*
X93199Y3253D01*
X93449Y3286D01*
X93681Y3382D01*
X93880Y3535D01*
X94033Y3734D01*
X94129Y3966D01*
X94162Y4215D01*
X94129Y4464D01*
X94033Y4696D01*
X93880Y4895D01*
X93681Y5048D01*
X93449Y5144D01*
X93199Y5177D01*
D02*
G37*
G36*
X110265Y5177D02*
X110016Y5144D01*
X109784Y5048D01*
X109585Y4895D01*
X109432Y4696D01*
X109336Y4464D01*
X109303Y4215D01*
X109336Y3966D01*
X109432Y3734D01*
X109585Y3535D01*
X109784Y3382D01*
X110016Y3286D01*
X110265Y3253D01*
X110514Y3286D01*
X110746Y3382D01*
X110946Y3535D01*
X111099Y3734D01*
X111195Y3966D01*
X111227Y4215D01*
X111195Y4464D01*
X111099Y4696D01*
X110946Y4895D01*
X110746Y5048D01*
X110514Y5144D01*
X110265Y5177D01*
D02*
G37*
G36*
X90659D02*
X90410Y5144D01*
X90178Y5048D01*
X89979Y4895D01*
X89826Y4696D01*
X89730Y4464D01*
X89697Y4215D01*
X89730Y3966D01*
X89826Y3734D01*
X89979Y3535D01*
X90178Y3382D01*
X90410Y3286D01*
X90659Y3253D01*
X90909Y3286D01*
X91141Y3382D01*
X91340Y3535D01*
X91493Y3734D01*
X91589Y3966D01*
X91622Y4215D01*
X91589Y4464D01*
X91493Y4696D01*
X91340Y4895D01*
X91141Y5048D01*
X90909Y5144D01*
X90659Y5177D01*
D02*
G37*
G36*
X53966Y5177D02*
X53717Y5144D01*
X53484Y5048D01*
X53285Y4895D01*
X53132Y4696D01*
X53036Y4464D01*
X53003Y4215D01*
X53036Y3966D01*
X53132Y3734D01*
X53285Y3535D01*
X53484Y3382D01*
X53717Y3286D01*
X53966Y3253D01*
X54215Y3286D01*
X54447Y3382D01*
X54646Y3535D01*
X54799Y3734D01*
X54895Y3966D01*
X54928Y4215D01*
X54895Y4464D01*
X54799Y4696D01*
X54646Y4895D01*
X54447Y5048D01*
X54215Y5144D01*
X53966Y5177D01*
D02*
G37*
G36*
X73600Y5177D02*
X73350Y5144D01*
X73118Y5048D01*
X72919Y4895D01*
X72766Y4696D01*
X72670Y4464D01*
X72637Y4215D01*
X72670Y3966D01*
X72766Y3734D01*
X72919Y3535D01*
X73118Y3382D01*
X73350Y3286D01*
X73600Y3253D01*
X73849Y3286D01*
X74081Y3382D01*
X74280Y3535D01*
X74433Y3734D01*
X74529Y3966D01*
X74562Y4215D01*
X74529Y4464D01*
X74433Y4696D01*
X74280Y4895D01*
X74081Y5048D01*
X73849Y5144D01*
X73600Y5177D01*
D02*
G37*
G36*
X51426D02*
X51177Y5144D01*
X50944Y5048D01*
X50745Y4895D01*
X50592Y4696D01*
X50496Y4464D01*
X50463Y4215D01*
X50496Y3966D01*
X50592Y3734D01*
X50745Y3535D01*
X50944Y3382D01*
X51177Y3286D01*
X51426Y3253D01*
X51675Y3286D01*
X51907Y3382D01*
X52106Y3535D01*
X52259Y3734D01*
X52355Y3966D01*
X52388Y4215D01*
X52355Y4464D01*
X52259Y4696D01*
X52106Y4895D01*
X51907Y5048D01*
X51675Y5144D01*
X51426Y5177D01*
D02*
G37*
G36*
X71060Y5177D02*
X70810Y5144D01*
X70578Y5048D01*
X70379Y4895D01*
X70226Y4696D01*
X70130Y4464D01*
X70097Y4215D01*
X70130Y3966D01*
X70226Y3734D01*
X70379Y3535D01*
X70578Y3382D01*
X70810Y3286D01*
X71060Y3253D01*
X71309Y3286D01*
X71541Y3382D01*
X71740Y3535D01*
X71893Y3734D01*
X71989Y3966D01*
X72022Y4215D01*
X71989Y4464D01*
X71893Y4696D01*
X71740Y4895D01*
X71541Y5048D01*
X71309Y5144D01*
X71060Y5177D01*
D02*
G37*
G36*
X106855Y2542D02*
Y2075D01*
X107322D01*
X107289Y2156D01*
X107136Y2355D01*
X106936Y2508D01*
X106855Y2542D01*
D02*
G37*
G36*
X106055Y2542D02*
X105974Y2508D01*
X105775Y2355D01*
X105622Y2156D01*
X105588Y2075D01*
X106055D01*
Y2542D01*
D02*
G37*
G36*
X48016Y2542D02*
Y2075D01*
X48483D01*
X48449Y2156D01*
X48296Y2355D01*
X48097Y2508D01*
X48016Y2542D01*
D02*
G37*
G36*
X47216Y2542D02*
X47135Y2508D01*
X46935Y2355D01*
X46782Y2156D01*
X46749Y2075D01*
X47216D01*
Y2542D01*
D02*
G37*
G36*
X67650Y2542D02*
Y2075D01*
X68117D01*
X68083Y2156D01*
X67930Y2355D01*
X67731Y2508D01*
X67650Y2542D01*
D02*
G37*
G36*
X66850Y2542D02*
X66768Y2508D01*
X66569Y2355D01*
X66416Y2156D01*
X66383Y2075D01*
X66850D01*
Y2542D01*
D02*
G37*
G36*
X87250Y2542D02*
Y2075D01*
X87716D01*
X87683Y2156D01*
X87530Y2355D01*
X87331Y2508D01*
X87250Y2542D01*
D02*
G37*
G36*
X86450Y2542D02*
X86368Y2508D01*
X86169Y2355D01*
X86016Y2156D01*
X85983Y2075D01*
X86450D01*
Y2542D01*
D02*
G37*
G36*
X91902Y83305D02*
X91746Y83285D01*
X91600Y83224D01*
X91475Y83128D01*
X91378Y83003D01*
X91318Y82857D01*
X91297Y82700D01*
X91318Y82543D01*
X91378Y82397D01*
X91475Y82272D01*
X91600Y82176D01*
X91746Y82115D01*
X91902Y82095D01*
X92059Y82115D01*
X92205Y82176D01*
X92330Y82272D01*
X92427Y82397D01*
X92487Y82543D01*
X92508Y82700D01*
X92487Y82857D01*
X92427Y83003D01*
X92330Y83128D01*
X92205Y83224D01*
X92059Y83285D01*
X91902Y83305D01*
D02*
G37*
G36*
X66807Y82173D02*
X66650Y82152D01*
X66504Y82092D01*
X66379Y81996D01*
X66283Y81871D01*
X66223Y81725D01*
X66202Y81568D01*
X66223Y81411D01*
X66283Y81265D01*
X66379Y81140D01*
X66504Y81044D01*
X66650Y80983D01*
X66807Y80963D01*
X66964Y80983D01*
X67110Y81044D01*
X67235Y81140D01*
X67331Y81265D01*
X67392Y81411D01*
X67412Y81568D01*
X67392Y81725D01*
X67331Y81871D01*
X67235Y81996D01*
X67110Y82092D01*
X66964Y82152D01*
X66807Y82173D01*
D02*
G37*
G36*
X80551Y81738D02*
X80395Y81717D01*
X80249Y81657D01*
X80123Y81561D01*
X80027Y81435D01*
X79967Y81289D01*
X79946Y81133D01*
X79967Y80976D01*
X80027Y80830D01*
X80123Y80705D01*
X80249Y80609D01*
X80395Y80548D01*
X80551Y80528D01*
X80708Y80548D01*
X80854Y80609D01*
X80979Y80705D01*
X81076Y80830D01*
X81136Y80976D01*
X81157Y81133D01*
X81136Y81289D01*
X81076Y81435D01*
X80979Y81561D01*
X80854Y81657D01*
X80708Y81717D01*
X80551Y81738D01*
D02*
G37*
G36*
X66850Y80105D02*
X66693Y80085D01*
X66547Y80024D01*
X66422Y79928D01*
X66326Y79803D01*
X66265Y79657D01*
X66245Y79500D01*
X66265Y79343D01*
X66326Y79197D01*
X66422Y79072D01*
X66547Y78976D01*
X66693Y78915D01*
X66850Y78895D01*
X67007Y78915D01*
X67153Y78976D01*
X67278Y79072D01*
X67374Y79197D01*
X67435Y79343D01*
X67455Y79500D01*
X67435Y79657D01*
X67374Y79803D01*
X67278Y79928D01*
X67153Y80024D01*
X67007Y80085D01*
X66850Y80105D01*
D02*
G37*
G36*
X78150Y79880D02*
X77993Y79860D01*
X77847Y79799D01*
X77722Y79703D01*
X77626Y79578D01*
X77565Y79432D01*
X77545Y79275D01*
X77565Y79118D01*
X77626Y78972D01*
X77722Y78847D01*
X77847Y78751D01*
X77993Y78690D01*
X78150Y78670D01*
X78307Y78690D01*
X78453Y78751D01*
X78578Y78847D01*
X78674Y78972D01*
X78735Y79118D01*
X78755Y79275D01*
X78735Y79432D01*
X78674Y79578D01*
X78578Y79703D01*
X78453Y79799D01*
X78307Y79860D01*
X78150Y79880D01*
D02*
G37*
G36*
X70427Y91705D02*
X70270Y91685D01*
X70124Y91624D01*
X69999Y91528D01*
X69903Y91403D01*
X69872Y91327D01*
X69764D01*
X69738Y91388D01*
X69642Y91513D01*
X69517Y91610D01*
X69371Y91670D01*
X69214Y91691D01*
X69058Y91670D01*
X68912Y91610D01*
X68786Y91513D01*
X68690Y91388D01*
X68630Y91242D01*
X68609Y91085D01*
X68630Y90929D01*
X68690Y90783D01*
X68786Y90658D01*
X68912Y90561D01*
X69058Y90501D01*
X69214Y90480D01*
X69371Y90501D01*
X69517Y90561D01*
X69642Y90658D01*
X69738Y90783D01*
X69770Y90858D01*
X69878D01*
X69903Y90797D01*
X69999Y90672D01*
X70124Y90576D01*
X70270Y90515D01*
X70427Y90495D01*
X70584Y90515D01*
X70730Y90576D01*
X70855Y90672D01*
X70951Y90797D01*
X71012Y90943D01*
X71032Y91100D01*
X71012Y91257D01*
X70951Y91403D01*
X70855Y91528D01*
X70730Y91624D01*
X70584Y91685D01*
X70427Y91705D01*
D02*
G37*
G36*
X77175Y91718D02*
X77018Y91697D01*
X76872Y91637D01*
X76747Y91541D01*
X76651Y91415D01*
X76590Y91269D01*
X76570Y91113D01*
X76590Y90956D01*
X76651Y90810D01*
X76747Y90685D01*
X76872Y90589D01*
X77018Y90528D01*
X77175Y90508D01*
X77332Y90528D01*
X77478Y90589D01*
X77603Y90685D01*
X77699Y90810D01*
X77760Y90956D01*
X77780Y91113D01*
X77760Y91269D01*
X77699Y91415D01*
X77603Y91541D01*
X77478Y91637D01*
X77332Y91697D01*
X77175Y91718D01*
D02*
G37*
G36*
X73575Y91468D02*
X73418Y91448D01*
X73272Y91387D01*
X73147Y91291D01*
X73051Y91166D01*
X72990Y91020D01*
X72970Y90863D01*
X72990Y90706D01*
X73051Y90561D01*
X73147Y90435D01*
X73272Y90339D01*
X73418Y90279D01*
X73575Y90258D01*
X73732Y90279D01*
X73878Y90339D01*
X74003Y90435D01*
X74099Y90561D01*
X74160Y90706D01*
X74180Y90863D01*
X74160Y91020D01*
X74099Y91166D01*
X74003Y91291D01*
X73878Y91387D01*
X73732Y91448D01*
X73575Y91468D01*
D02*
G37*
G36*
X72200Y90905D02*
X72043Y90885D01*
X71897Y90824D01*
X71772Y90728D01*
X71676Y90603D01*
X71615Y90457D01*
X71595Y90300D01*
X71615Y90143D01*
X71676Y89997D01*
X71772Y89872D01*
X71897Y89776D01*
X72043Y89715D01*
X72200Y89695D01*
X72357Y89715D01*
X72503Y89776D01*
X72628Y89872D01*
X72724Y89997D01*
X72785Y90143D01*
X72805Y90300D01*
X72785Y90457D01*
X72724Y90603D01*
X72628Y90728D01*
X72503Y90824D01*
X72357Y90885D01*
X72200Y90905D01*
D02*
G37*
G36*
X67450D02*
X67293Y90885D01*
X67147Y90824D01*
X67022Y90728D01*
X66926Y90603D01*
X66865Y90457D01*
X66845Y90300D01*
X66865Y90143D01*
X66926Y89997D01*
X67022Y89872D01*
X67147Y89776D01*
X67293Y89715D01*
X67450Y89695D01*
X67607Y89715D01*
X67753Y89776D01*
X67878Y89872D01*
X67974Y89997D01*
X68035Y90143D01*
X68055Y90300D01*
X68035Y90457D01*
X67974Y90603D01*
X67878Y90728D01*
X67753Y90824D01*
X67607Y90885D01*
X67450Y90905D01*
D02*
G37*
G36*
X57475Y90580D02*
X57318Y90560D01*
X57172Y90499D01*
X57047Y90403D01*
X56951Y90278D01*
X56890Y90132D01*
X56870Y89975D01*
X56890Y89818D01*
X56951Y89672D01*
X57047Y89547D01*
X57172Y89451D01*
X57318Y89390D01*
X57475Y89370D01*
X57632Y89390D01*
X57778Y89451D01*
X57903Y89547D01*
X57999Y89672D01*
X58060Y89818D01*
X58080Y89975D01*
X58060Y90132D01*
X57999Y90278D01*
X57903Y90403D01*
X57778Y90499D01*
X57632Y90560D01*
X57475Y90580D01*
D02*
G37*
G36*
X63250Y90555D02*
X63093Y90535D01*
X62947Y90474D01*
X62822Y90378D01*
X62726Y90253D01*
X62665Y90107D01*
X62645Y89950D01*
X62665Y89793D01*
X62726Y89647D01*
X62822Y89522D01*
X62947Y89426D01*
X63093Y89365D01*
X63250Y89345D01*
X63407Y89365D01*
X63553Y89426D01*
X63678Y89522D01*
X63774Y89647D01*
X63835Y89793D01*
X63855Y89950D01*
X63835Y90107D01*
X63774Y90253D01*
X63678Y90378D01*
X63553Y90474D01*
X63407Y90535D01*
X63250Y90555D01*
D02*
G37*
G36*
X76300Y90505D02*
X76143Y90485D01*
X75997Y90424D01*
X75872Y90328D01*
X75776Y90203D01*
X75715Y90057D01*
X75695Y89900D01*
X75715Y89743D01*
X75776Y89597D01*
X75872Y89472D01*
X75997Y89376D01*
X76143Y89315D01*
X76228Y89304D01*
X76275Y89204D01*
X76274Y89197D01*
X76215Y89057D01*
X76195Y88900D01*
X76215Y88743D01*
X76276Y88597D01*
X76372Y88472D01*
X76497Y88376D01*
X76643Y88315D01*
X76800Y88295D01*
X76957Y88315D01*
X77103Y88376D01*
X77228Y88472D01*
X77324Y88597D01*
X77385Y88743D01*
X77405Y88900D01*
X77385Y89057D01*
X77324Y89203D01*
X77228Y89328D01*
X77103Y89424D01*
X76957Y89485D01*
X76872Y89496D01*
X76825Y89596D01*
X76826Y89603D01*
X76885Y89743D01*
X76905Y89900D01*
X76885Y90057D01*
X76824Y90203D01*
X76728Y90328D01*
X76603Y90424D01*
X76457Y90485D01*
X76300Y90505D01*
D02*
G37*
G36*
X65650Y90088D02*
X65493Y90068D01*
X65347Y90007D01*
X65222Y89911D01*
X65126Y89786D01*
X65065Y89640D01*
X65045Y89483D01*
X65065Y89327D01*
X65126Y89181D01*
X65222Y89055D01*
X65347Y88959D01*
X65493Y88899D01*
X65515Y88896D01*
X65547Y88794D01*
X65451Y88669D01*
X65390Y88523D01*
X65370Y88366D01*
X65390Y88209D01*
X65451Y88063D01*
X65547Y87938D01*
X65672Y87842D01*
X65818Y87781D01*
X65975Y87761D01*
X66132Y87781D01*
X66278Y87842D01*
X66403Y87938D01*
X66499Y88063D01*
X66560Y88209D01*
X66580Y88366D01*
X66562Y88500D01*
X66643Y88546D01*
X66652Y88548D01*
X66729Y88447D01*
X66855Y88351D01*
X67001Y88290D01*
X67157Y88270D01*
X67314Y88290D01*
X67460Y88351D01*
X67585Y88447D01*
X67681Y88572D01*
X67742Y88718D01*
X67762Y88875D01*
X67742Y89032D01*
X67681Y89178D01*
X67585Y89303D01*
X67460Y89399D01*
X67314Y89460D01*
X67157Y89480D01*
X67001Y89460D01*
X66855Y89399D01*
X66729Y89303D01*
X66633Y89178D01*
X66573Y89032D01*
X66552Y88875D01*
X66570Y88741D01*
X66489Y88695D01*
X66480Y88693D01*
X66403Y88794D01*
X66278Y88890D01*
X66132Y88951D01*
X66110Y88953D01*
X66078Y89055D01*
X66174Y89181D01*
X66235Y89327D01*
X66255Y89483D01*
X66235Y89640D01*
X66174Y89786D01*
X66078Y89911D01*
X65953Y90007D01*
X65807Y90068D01*
X65650Y90088D01*
D02*
G37*
G36*
X113264Y89764D02*
X113055Y89736D01*
X112861Y89656D01*
X112694Y89528D01*
X112565Y89360D01*
X112485Y89166D01*
X112457Y88957D01*
X112485Y88748D01*
X112565Y88554D01*
X112694Y88386D01*
X112861Y88258D01*
X113055Y88178D01*
X113264Y88150D01*
X113473Y88178D01*
X113668Y88258D01*
X113835Y88386D01*
X113963Y88554D01*
X114044Y88748D01*
X114071Y88957D01*
X114044Y89166D01*
X113963Y89360D01*
X113835Y89528D01*
X113668Y89656D01*
X113473Y89736D01*
X113264Y89764D01*
D02*
G37*
G36*
X64275Y88905D02*
X64118Y88885D01*
X63972Y88824D01*
X63847Y88728D01*
X63751Y88603D01*
X63690Y88457D01*
X63670Y88300D01*
X63690Y88143D01*
X63751Y87997D01*
X63847Y87872D01*
X63972Y87776D01*
X64118Y87715D01*
X64275Y87695D01*
X64321Y87701D01*
X64382Y87622D01*
X64365Y87582D01*
X64345Y87425D01*
X64365Y87268D01*
X64426Y87122D01*
X64464Y87073D01*
X64410Y86979D01*
X64400Y86980D01*
X64243Y86960D01*
X64097Y86899D01*
X63972Y86803D01*
X63876Y86678D01*
X63815Y86532D01*
X63795Y86375D01*
X63815Y86218D01*
X63876Y86072D01*
X63972Y85947D01*
X64097Y85851D01*
X64243Y85790D01*
X64400Y85770D01*
X64557Y85790D01*
X64703Y85851D01*
X64828Y85947D01*
X64924Y86072D01*
X64985Y86218D01*
X65005Y86375D01*
X64985Y86532D01*
X64924Y86678D01*
X64886Y86727D01*
X64940Y86821D01*
X64950Y86820D01*
X65107Y86840D01*
X65253Y86901D01*
X65378Y86997D01*
X65474Y87122D01*
X65535Y87268D01*
X65555Y87425D01*
X65535Y87582D01*
X65474Y87728D01*
X65378Y87853D01*
X65253Y87949D01*
X65107Y88010D01*
X64950Y88030D01*
X64904Y88024D01*
X64843Y88103D01*
X64860Y88143D01*
X64880Y88300D01*
X64860Y88457D01*
X64799Y88603D01*
X64703Y88728D01*
X64578Y88824D01*
X64432Y88885D01*
X64275Y88905D01*
D02*
G37*
G36*
X59150Y87130D02*
X58993Y87110D01*
X58847Y87049D01*
X58722Y86953D01*
X58626Y86828D01*
X58565Y86682D01*
X58545Y86525D01*
X58565Y86368D01*
X58626Y86222D01*
X58722Y86097D01*
X58847Y86001D01*
X58993Y85940D01*
X59150Y85920D01*
X59307Y85940D01*
X59453Y86001D01*
X59578Y86097D01*
X59674Y86222D01*
X59735Y86368D01*
X59755Y86525D01*
X59735Y86682D01*
X59674Y86828D01*
X59578Y86953D01*
X59453Y87049D01*
X59307Y87110D01*
X59150Y87130D01*
D02*
G37*
G36*
X57514Y87005D02*
X57358Y86985D01*
X57212Y86924D01*
X57086Y86828D01*
X56990Y86703D01*
X56930Y86557D01*
X56909Y86400D01*
X56930Y86243D01*
X56990Y86097D01*
X57086Y85972D01*
X57212Y85876D01*
X57358Y85815D01*
X57514Y85795D01*
X57671Y85815D01*
X57817Y85876D01*
X57942Y85972D01*
X58038Y86097D01*
X58099Y86243D01*
X58119Y86400D01*
X58099Y86557D01*
X58038Y86703D01*
X57942Y86828D01*
X57817Y86924D01*
X57671Y86985D01*
X57514Y87005D01*
D02*
G37*
G36*
X55429Y86980D02*
X55272Y86960D01*
X55126Y86899D01*
X55001Y86803D01*
X54905Y86678D01*
X54844Y86532D01*
X54824Y86375D01*
X54844Y86218D01*
X54905Y86072D01*
X55001Y85947D01*
X55126Y85851D01*
X55272Y85790D01*
X55429Y85770D01*
X55585Y85790D01*
X55731Y85851D01*
X55857Y85947D01*
X55953Y86072D01*
X56013Y86218D01*
X56034Y86375D01*
X56013Y86532D01*
X55953Y86678D01*
X55857Y86803D01*
X55731Y86899D01*
X55585Y86960D01*
X55429Y86980D01*
D02*
G37*
G36*
X53900Y86955D02*
X53743Y86935D01*
X53597Y86874D01*
X53472Y86778D01*
X53376Y86653D01*
X53315Y86507D01*
X53295Y86350D01*
X53315Y86193D01*
X53376Y86047D01*
X53472Y85922D01*
X53597Y85826D01*
X53743Y85765D01*
X53900Y85745D01*
X54057Y85765D01*
X54203Y85826D01*
X54328Y85922D01*
X54424Y86047D01*
X54485Y86193D01*
X54505Y86350D01*
X54485Y86507D01*
X54424Y86653D01*
X54328Y86778D01*
X54203Y86874D01*
X54057Y86935D01*
X53900Y86955D01*
D02*
G37*
G36*
X93514Y86930D02*
X93358Y86910D01*
X93212Y86849D01*
X93086Y86753D01*
X92990Y86628D01*
X92930Y86482D01*
X92909Y86325D01*
X92930Y86168D01*
X92990Y86022D01*
X93086Y85897D01*
X93212Y85801D01*
X93358Y85740D01*
X93514Y85720D01*
X93671Y85740D01*
X93817Y85801D01*
X93942Y85897D01*
X94038Y86022D01*
X94099Y86168D01*
X94119Y86325D01*
X94099Y86482D01*
X94038Y86628D01*
X93942Y86753D01*
X93817Y86849D01*
X93671Y86910D01*
X93514Y86930D01*
D02*
G37*
G36*
X97125Y86905D02*
X96968Y86885D01*
X96822Y86824D01*
X96697Y86728D01*
X96601Y86603D01*
X96540Y86457D01*
X96520Y86300D01*
X96540Y86143D01*
X96601Y85997D01*
X96697Y85872D01*
X96822Y85776D01*
X96968Y85715D01*
X97125Y85695D01*
X97282Y85715D01*
X97428Y85776D01*
X97553Y85872D01*
X97649Y85997D01*
X97710Y86143D01*
X97730Y86300D01*
X97710Y86457D01*
X97649Y86603D01*
X97553Y86728D01*
X97428Y86824D01*
X97282Y86885D01*
X97125Y86905D01*
D02*
G37*
G36*
X95335D02*
X95179Y86885D01*
X95033Y86824D01*
X94907Y86728D01*
X94811Y86603D01*
X94751Y86457D01*
X94730Y86300D01*
X94751Y86143D01*
X94811Y85997D01*
X94907Y85872D01*
X95033Y85776D01*
X95179Y85715D01*
X95335Y85695D01*
X95492Y85715D01*
X95638Y85776D01*
X95763Y85872D01*
X95859Y85997D01*
X95920Y86143D01*
X95940Y86300D01*
X95920Y86457D01*
X95859Y86603D01*
X95763Y86728D01*
X95638Y86824D01*
X95492Y86885D01*
X95335Y86905D01*
D02*
G37*
G36*
X91714Y86894D02*
X91558Y86874D01*
X91412Y86813D01*
X91286Y86717D01*
X91190Y86592D01*
X91130Y86446D01*
X91109Y86289D01*
X91130Y86133D01*
X91190Y85987D01*
X91286Y85861D01*
X91412Y85765D01*
X91558Y85705D01*
X91714Y85684D01*
X91871Y85705D01*
X92017Y85765D01*
X92142Y85861D01*
X92238Y85987D01*
X92299Y86133D01*
X92319Y86289D01*
X92299Y86446D01*
X92238Y86592D01*
X92142Y86717D01*
X92017Y86813D01*
X91871Y86874D01*
X91714Y86894D01*
D02*
G37*
G36*
X100714Y83930D02*
X100558Y83910D01*
X100412Y83849D01*
X100286Y83753D01*
X100190Y83628D01*
X100130Y83482D01*
X100109Y83325D01*
X100130Y83168D01*
X100190Y83022D01*
X100286Y82897D01*
X100412Y82801D01*
X100558Y82740D01*
X100714Y82720D01*
X100871Y82740D01*
X101017Y82801D01*
X101142Y82897D01*
X101238Y83022D01*
X101299Y83168D01*
X101319Y83325D01*
X101299Y83482D01*
X101238Y83628D01*
X101142Y83753D01*
X101017Y83849D01*
X100871Y83910D01*
X100714Y83930D01*
D02*
G37*
G36*
X102514Y83905D02*
X102358Y83885D01*
X102212Y83824D01*
X102086Y83728D01*
X101990Y83603D01*
X101930Y83457D01*
X101909Y83300D01*
X101930Y83143D01*
X101990Y82997D01*
X102086Y82872D01*
X102212Y82776D01*
X102358Y82715D01*
X102514Y82695D01*
X102671Y82715D01*
X102817Y82776D01*
X102942Y82872D01*
X103038Y82997D01*
X103099Y83143D01*
X103119Y83300D01*
X103099Y83457D01*
X103038Y83603D01*
X102942Y83728D01*
X102817Y83824D01*
X102671Y83885D01*
X102514Y83905D01*
D02*
G37*
G36*
X83194Y78830D02*
X83037Y78810D01*
X82891Y78749D01*
X82766Y78653D01*
X82669Y78528D01*
X82609Y78382D01*
X82588Y78225D01*
X82609Y78068D01*
X82669Y77922D01*
X82766Y77797D01*
X82891Y77701D01*
X83037Y77640D01*
X83194Y77620D01*
X83350Y77640D01*
X83496Y77701D01*
X83621Y77797D01*
X83718Y77922D01*
X83778Y78068D01*
X83799Y78225D01*
X83778Y78382D01*
X83718Y78528D01*
X83621Y78653D01*
X83496Y78749D01*
X83350Y78810D01*
X83194Y78830D01*
D02*
G37*
G36*
X97435Y78780D02*
X97279Y78760D01*
X97133Y78699D01*
X97007Y78603D01*
X96911Y78478D01*
X96851Y78332D01*
X96830Y78175D01*
X96851Y78018D01*
X96911Y77872D01*
X97007Y77747D01*
X97133Y77651D01*
X97279Y77590D01*
X97435Y77570D01*
X97592Y77590D01*
X97738Y77651D01*
X97863Y77747D01*
X97959Y77872D01*
X98020Y78018D01*
X98040Y78175D01*
X98020Y78332D01*
X97959Y78478D01*
X97863Y78603D01*
X97738Y78699D01*
X97592Y78760D01*
X97435Y78780D01*
D02*
G37*
G36*
X78325Y75880D02*
X78168Y75860D01*
X78022Y75799D01*
X77897Y75703D01*
X77801Y75578D01*
X77740Y75432D01*
X77720Y75275D01*
X77740Y75118D01*
X77801Y74972D01*
X77897Y74847D01*
X77969Y74792D01*
X77975Y74776D01*
X77968Y74670D01*
X77881Y74603D01*
X77785Y74478D01*
X77725Y74332D01*
X77704Y74175D01*
X77725Y74018D01*
X77785Y73872D01*
X77881Y73747D01*
X77931Y73709D01*
X78002Y73646D01*
X77906Y73521D01*
X77845Y73375D01*
X77825Y73218D01*
X77845Y73062D01*
X77906Y72916D01*
X78002Y72790D01*
X78127Y72694D01*
X78273Y72634D01*
X78430Y72613D01*
X78586Y72634D01*
X78732Y72694D01*
X78858Y72790D01*
X78954Y72916D01*
X79014Y73062D01*
X79035Y73218D01*
X79014Y73375D01*
X78954Y73521D01*
X78858Y73646D01*
X78808Y73684D01*
X78737Y73747D01*
X78833Y73872D01*
X78894Y74018D01*
X78914Y74175D01*
X78894Y74332D01*
X78833Y74478D01*
X78737Y74603D01*
X78665Y74658D01*
X78659Y74674D01*
X78666Y74780D01*
X78753Y74847D01*
X78849Y74972D01*
X78910Y75118D01*
X78930Y75275D01*
X78910Y75432D01*
X78849Y75578D01*
X78753Y75703D01*
X78628Y75799D01*
X78482Y75860D01*
X78325Y75880D01*
D02*
G37*
G36*
X70714Y73262D02*
X70557Y73242D01*
X70411Y73181D01*
X70286Y73085D01*
X70190Y72960D01*
X70129Y72814D01*
X70109Y72657D01*
X70129Y72500D01*
X70190Y72354D01*
X70286Y72229D01*
X70411Y72133D01*
X70557Y72073D01*
X70714Y72052D01*
X70871Y72073D01*
X71017Y72133D01*
X71142Y72229D01*
X71238Y72354D01*
X71299Y72500D01*
X71319Y72657D01*
X71299Y72814D01*
X71238Y72960D01*
X71142Y73085D01*
X71017Y73181D01*
X70871Y73242D01*
X70714Y73262D01*
D02*
G37*
G36*
X69272Y72902D02*
X69115Y72882D01*
X68969Y72821D01*
X68844Y72725D01*
X68748Y72600D01*
X68687Y72454D01*
X68667Y72297D01*
X68687Y72140D01*
X68748Y71995D01*
X68844Y71869D01*
X68969Y71773D01*
X69115Y71713D01*
X69272Y71692D01*
X69429Y71713D01*
X69575Y71773D01*
X69700Y71869D01*
X69796Y71995D01*
X69856Y72140D01*
X69877Y72297D01*
X69856Y72454D01*
X69796Y72600D01*
X69700Y72725D01*
X69575Y72821D01*
X69429Y72882D01*
X69272Y72902D01*
D02*
G37*
G36*
X81500Y75080D02*
X81343Y75060D01*
X81197Y74999D01*
X81072Y74903D01*
X80976Y74778D01*
X80915Y74632D01*
X80895Y74475D01*
X80915Y74318D01*
X80976Y74172D01*
X81069Y74051D01*
X81085Y74024D01*
Y73951D01*
X81069Y73924D01*
X80976Y73803D01*
X80915Y73657D01*
X80895Y73500D01*
X80915Y73343D01*
X80976Y73197D01*
X81072Y73072D01*
X81119Y73036D01*
Y72936D01*
X81076Y72903D01*
X80980Y72778D01*
X80920Y72632D01*
X80899Y72475D01*
X80920Y72318D01*
X80980Y72172D01*
X81076Y72047D01*
X81105Y72025D01*
Y71925D01*
X81077Y71904D01*
X80981Y71778D01*
X80920Y71632D01*
X80900Y71476D01*
X80920Y71319D01*
X80981Y71173D01*
X81077Y71048D01*
X81202Y70952D01*
X81348Y70891D01*
X81505Y70871D01*
X81662Y70891D01*
X81808Y70952D01*
X81933Y71048D01*
X82029Y71173D01*
X82090Y71319D01*
X82110Y71476D01*
X82090Y71632D01*
X82029Y71778D01*
X81933Y71904D01*
X81904Y71926D01*
Y72026D01*
X81932Y72047D01*
X82028Y72172D01*
X82089Y72318D01*
X82109Y72475D01*
X82089Y72632D01*
X82028Y72778D01*
X81932Y72903D01*
X81885Y72939D01*
Y73039D01*
X81928Y73072D01*
X82024Y73197D01*
X82085Y73343D01*
X82105Y73500D01*
X82085Y73657D01*
X82024Y73803D01*
X81931Y73924D01*
X81915Y73951D01*
Y74024D01*
X81931Y74051D01*
X82024Y74172D01*
X82085Y74318D01*
X82105Y74475D01*
X82085Y74632D01*
X82024Y74778D01*
X81928Y74903D01*
X81803Y74999D01*
X81657Y75060D01*
X81500Y75080D01*
D02*
G37*
G36*
X71737Y70900D02*
X71580Y70880D01*
X71434Y70819D01*
X71309Y70723D01*
X71213Y70598D01*
X71152Y70452D01*
X71132Y70295D01*
X71152Y70138D01*
X71213Y69992D01*
X71309Y69867D01*
X71434Y69771D01*
X71580Y69710D01*
X71737Y69690D01*
X71894Y69710D01*
X72040Y69771D01*
X72165Y69867D01*
X72261Y69992D01*
X72322Y70138D01*
X72342Y70295D01*
X72322Y70452D01*
X72261Y70598D01*
X72165Y70723D01*
X72040Y70819D01*
X71894Y70880D01*
X71737Y70900D01*
D02*
G37*
G36*
X74167Y70105D02*
X74010Y70085D01*
X73864Y70024D01*
X73739Y69928D01*
X73643Y69803D01*
X73582Y69657D01*
X73562Y69500D01*
X73582Y69343D01*
X73643Y69197D01*
X73739Y69072D01*
X73864Y68976D01*
X74010Y68915D01*
X74167Y68895D01*
X74324Y68915D01*
X74470Y68976D01*
X74595Y69072D01*
X74691Y69197D01*
X74752Y69343D01*
X74772Y69500D01*
X74752Y69657D01*
X74691Y69803D01*
X74595Y69928D01*
X74470Y70024D01*
X74324Y70085D01*
X74167Y70105D01*
D02*
G37*
G36*
X140925Y68833D02*
X140768Y68812D01*
X140622Y68752D01*
X140497Y68656D01*
X140401Y68530D01*
X140340Y68384D01*
X140320Y68228D01*
X140340Y68071D01*
X140401Y67925D01*
X140497Y67800D01*
X140622Y67704D01*
X140768Y67643D01*
X140925Y67623D01*
X141082Y67643D01*
X141228Y67704D01*
X141353Y67800D01*
X141449Y67925D01*
X141510Y68071D01*
X141530Y68228D01*
X141510Y68384D01*
X141449Y68530D01*
X141353Y68656D01*
X141228Y68752D01*
X141082Y68812D01*
X140925Y68833D01*
D02*
G37*
G36*
X99237Y67830D02*
X99081Y67810D01*
X98935Y67749D01*
X98809Y67653D01*
X98777Y67610D01*
X98677D01*
X98663Y67628D01*
X98538Y67724D01*
X98392Y67785D01*
X98235Y67805D01*
X98079Y67785D01*
X97933Y67724D01*
X97807Y67628D01*
X97789Y67604D01*
X97663D01*
X97625Y67653D01*
X97500Y67749D01*
X97354Y67810D01*
X97197Y67830D01*
X97041Y67810D01*
X96895Y67749D01*
X96769Y67653D01*
X96673Y67528D01*
X96613Y67382D01*
X96592Y67225D01*
X96613Y67068D01*
X96673Y66922D01*
X96769Y66797D01*
X96895Y66701D01*
X97041Y66640D01*
X97197Y66620D01*
X97354Y66640D01*
X97500Y66701D01*
X97625Y66797D01*
X97644Y66821D01*
X97770D01*
X97807Y66772D01*
X97933Y66676D01*
X98079Y66615D01*
X98235Y66595D01*
X98392Y66615D01*
X98538Y66676D01*
X98663Y66772D01*
X98696Y66815D01*
X98796D01*
X98809Y66797D01*
X98935Y66701D01*
X99081Y66640D01*
X99237Y66620D01*
X99394Y66640D01*
X99540Y66701D01*
X99665Y66797D01*
X99761Y66922D01*
X99822Y67068D01*
X99842Y67225D01*
X99822Y67382D01*
X99761Y67528D01*
X99665Y67653D01*
X99540Y67749D01*
X99394Y67810D01*
X99237Y67830D01*
D02*
G37*
G36*
X83280Y68205D02*
X83123Y68185D01*
X82977Y68124D01*
X82852Y68028D01*
X82756Y67903D01*
X82695Y67757D01*
X82675Y67600D01*
X82695Y67443D01*
X82756Y67297D01*
X82852Y67172D01*
X82977Y67076D01*
X83123Y67015D01*
X83280Y66995D01*
X83436Y67015D01*
X83582Y67076D01*
X83708Y67172D01*
X83804Y67297D01*
X83864Y67443D01*
X83885Y67600D01*
X83864Y67757D01*
X83804Y67903D01*
X83708Y68028D01*
X83582Y68124D01*
X83436Y68185D01*
X83280Y68205D01*
D02*
G37*
G36*
X116750Y68230D02*
X116593Y68210D01*
X116447Y68149D01*
X116322Y68053D01*
X116226Y67928D01*
X116165Y67782D01*
X116145Y67625D01*
X116165Y67468D01*
X116226Y67322D01*
X116322Y67197D01*
X116447Y67101D01*
X116593Y67040D01*
X116750Y67020D01*
X116907Y67040D01*
X117053Y67101D01*
X117178Y67197D01*
X117189Y67211D01*
X117275Y67193D01*
X117294Y67184D01*
X117353Y67043D01*
X117449Y66918D01*
X117574Y66822D01*
X117720Y66761D01*
X117877Y66741D01*
X118034Y66761D01*
X118179Y66822D01*
X118305Y66918D01*
X118401Y67043D01*
X118461Y67189D01*
X118482Y67346D01*
X118461Y67503D01*
X118401Y67649D01*
X118305Y67774D01*
X118179Y67870D01*
X118034Y67930D01*
X117877Y67951D01*
X117720Y67930D01*
X117574Y67870D01*
X117449Y67774D01*
X117438Y67760D01*
X117352Y67778D01*
X117333Y67786D01*
X117274Y67928D01*
X117178Y68053D01*
X117053Y68149D01*
X116907Y68210D01*
X116750Y68230D01*
D02*
G37*
G36*
X102168Y67855D02*
X102012Y67835D01*
X101866Y67774D01*
X101740Y67678D01*
X101644Y67553D01*
X101584Y67407D01*
X101563Y67250D01*
X101584Y67093D01*
X101644Y66947D01*
X101740Y66822D01*
X101866Y66726D01*
X102012Y66665D01*
X102168Y66645D01*
X102325Y66665D01*
X102471Y66726D01*
X102596Y66822D01*
X102692Y66947D01*
X102753Y67093D01*
X102773Y67250D01*
X102753Y67407D01*
X102692Y67553D01*
X102596Y67678D01*
X102471Y67774D01*
X102325Y67835D01*
X102168Y67855D01*
D02*
G37*
G36*
X108200Y67755D02*
X108043Y67735D01*
X107897Y67674D01*
X107772Y67578D01*
X107676Y67453D01*
X107615Y67307D01*
X107595Y67150D01*
X107615Y66993D01*
X107676Y66847D01*
X107772Y66722D01*
X107897Y66626D01*
X108043Y66565D01*
X108200Y66545D01*
X108357Y66565D01*
X108503Y66626D01*
X108628Y66722D01*
X108724Y66847D01*
X108785Y66993D01*
X108805Y67150D01*
X108785Y67307D01*
X108724Y67453D01*
X108628Y67578D01*
X108503Y67674D01*
X108357Y67735D01*
X108200Y67755D01*
D02*
G37*
G36*
X139922Y66995D02*
X139766Y66974D01*
X139620Y66914D01*
X139494Y66818D01*
X139398Y66692D01*
X139338Y66546D01*
X139317Y66390D01*
X139323Y66341D01*
X139253Y66270D01*
X139178Y66280D01*
X139022Y66260D01*
X138876Y66199D01*
X138750Y66103D01*
X138654Y65978D01*
X138594Y65832D01*
X138573Y65675D01*
X138584Y65591D01*
X138497Y65502D01*
X138473Y65505D01*
X138317Y65485D01*
X138171Y65424D01*
X138045Y65328D01*
X137949Y65203D01*
X137889Y65057D01*
X137868Y64900D01*
X137889Y64743D01*
X137949Y64597D01*
X138045Y64472D01*
X138171Y64376D01*
X138317Y64315D01*
X138473Y64295D01*
X138630Y64315D01*
X138776Y64376D01*
X138901Y64472D01*
X138997Y64597D01*
X139058Y64743D01*
X139078Y64900D01*
X139067Y64984D01*
X139155Y65073D01*
X139178Y65070D01*
X139335Y65090D01*
X139481Y65151D01*
X139606Y65247D01*
X139703Y65372D01*
X139763Y65518D01*
X139784Y65675D01*
X139777Y65724D01*
X139848Y65794D01*
X139922Y65784D01*
X140079Y65805D01*
X140225Y65866D01*
X140350Y65962D01*
X140446Y66087D01*
X140507Y66233D01*
X140527Y66390D01*
X140507Y66546D01*
X140446Y66692D01*
X140350Y66818D01*
X140225Y66914D01*
X140079Y66974D01*
X139922Y66995D01*
D02*
G37*
G36*
X95390Y67051D02*
X95234Y67031D01*
X95088Y66970D01*
X94963Y66874D01*
X94866Y66749D01*
X94806Y66603D01*
X94785Y66446D01*
X94806Y66290D01*
X94866Y66144D01*
X94963Y66018D01*
X95088Y65922D01*
X95234Y65862D01*
X95390Y65841D01*
X95547Y65862D01*
X95693Y65922D01*
X95818Y66018D01*
X95915Y66144D01*
X95975Y66290D01*
X95996Y66446D01*
X95975Y66603D01*
X95915Y66749D01*
X95818Y66874D01*
X95693Y66970D01*
X95547Y67031D01*
X95390Y67051D01*
D02*
G37*
G36*
X104006Y67044D02*
X103849Y67024D01*
X103703Y66963D01*
X103578Y66867D01*
X103482Y66742D01*
X103421Y66596D01*
X103401Y66439D01*
X103421Y66283D01*
X103482Y66137D01*
X103578Y66011D01*
X103703Y65915D01*
X103849Y65855D01*
X104006Y65834D01*
X104162Y65855D01*
X104308Y65915D01*
X104434Y66011D01*
X104530Y66137D01*
X104590Y66283D01*
X104611Y66439D01*
X104590Y66596D01*
X104530Y66742D01*
X104434Y66867D01*
X104308Y66963D01*
X104162Y67024D01*
X104006Y67044D01*
D02*
G37*
G36*
X92915Y66362D02*
X92759Y66341D01*
X92613Y66281D01*
X92488Y66185D01*
X92391Y66059D01*
X92331Y65913D01*
X92310Y65757D01*
X92331Y65600D01*
X92391Y65454D01*
X92488Y65329D01*
X92613Y65233D01*
X92759Y65172D01*
X92915Y65152D01*
X93072Y65172D01*
X93218Y65233D01*
X93343Y65329D01*
X93440Y65454D01*
X93500Y65600D01*
X93521Y65757D01*
X93500Y65913D01*
X93440Y66059D01*
X93343Y66185D01*
X93218Y66281D01*
X93072Y66341D01*
X92915Y66362D01*
D02*
G37*
G36*
X122235Y67326D02*
X120035D01*
Y65126D01*
X122235D01*
Y67326D01*
D02*
G37*
G36*
X123675Y67336D02*
X123388Y67298D01*
X123120Y67187D01*
X122890Y67011D01*
X122714Y66781D01*
X122603Y66513D01*
X122566Y66226D01*
X122603Y65939D01*
X122714Y65671D01*
X122890Y65442D01*
X123120Y65265D01*
X123388Y65154D01*
X123675Y65117D01*
X123962Y65154D01*
X124230Y65265D01*
X124460Y65442D01*
X124636Y65671D01*
X124747Y65939D01*
X124784Y66226D01*
X124747Y66513D01*
X124636Y66781D01*
X124460Y67011D01*
X124230Y67187D01*
X123962Y67298D01*
X123675Y67336D01*
D02*
G37*
G36*
X75042Y65705D02*
X74885Y65685D01*
X74739Y65624D01*
X74614Y65528D01*
X74518Y65403D01*
X74457Y65257D01*
X74437Y65100D01*
X74457Y64943D01*
X74518Y64797D01*
X74614Y64672D01*
X74739Y64576D01*
X74885Y64515D01*
X75042Y64495D01*
X75199Y64515D01*
X75345Y64576D01*
X75470Y64672D01*
X75566Y64797D01*
X75627Y64943D01*
X75647Y65100D01*
X75627Y65257D01*
X75566Y65403D01*
X75470Y65528D01*
X75345Y65624D01*
X75199Y65685D01*
X75042Y65705D01*
D02*
G37*
G36*
X134050Y65030D02*
X133893Y65010D01*
X133747Y64949D01*
X133622Y64853D01*
X133526Y64728D01*
X133465Y64582D01*
X133445Y64425D01*
X133465Y64268D01*
X133526Y64122D01*
X133622Y63997D01*
X133747Y63901D01*
X133893Y63840D01*
X134050Y63820D01*
X134207Y63840D01*
X134353Y63901D01*
X134478Y63997D01*
X134574Y64122D01*
X134635Y64268D01*
X134655Y64425D01*
X134635Y64582D01*
X134574Y64728D01*
X134478Y64853D01*
X134353Y64949D01*
X134207Y65010D01*
X134050Y65030D01*
D02*
G37*
G36*
X102168Y64313D02*
X102012Y64292D01*
X101866Y64231D01*
X101740Y64135D01*
X101644Y64010D01*
X101584Y63864D01*
X101563Y63707D01*
X101584Y63551D01*
X101644Y63405D01*
X101740Y63279D01*
X101866Y63183D01*
X102012Y63123D01*
X102168Y63102D01*
X102325Y63123D01*
X102471Y63183D01*
X102596Y63279D01*
X102692Y63405D01*
X102753Y63551D01*
X102773Y63707D01*
X102753Y63864D01*
X102692Y64010D01*
X102596Y64135D01*
X102471Y64231D01*
X102325Y64292D01*
X102168Y64313D01*
D02*
G37*
G36*
X99168D02*
X99012Y64292D01*
X98866Y64231D01*
X98740Y64135D01*
X98644Y64010D01*
X98584Y63864D01*
X98563Y63707D01*
X98584Y63551D01*
X98644Y63405D01*
X98740Y63279D01*
X98866Y63183D01*
X99012Y63123D01*
X99168Y63102D01*
X99325Y63123D01*
X99471Y63183D01*
X99596Y63279D01*
X99692Y63405D01*
X99753Y63551D01*
X99773Y63707D01*
X99753Y63864D01*
X99692Y64010D01*
X99596Y64135D01*
X99471Y64231D01*
X99325Y64292D01*
X99168Y64313D01*
D02*
G37*
G36*
X95993D02*
X95837Y64292D01*
X95691Y64231D01*
X95565Y64135D01*
X95469Y64010D01*
X95409Y63864D01*
X95388Y63707D01*
X95409Y63551D01*
X95469Y63405D01*
X95565Y63279D01*
X95691Y63183D01*
X95837Y63123D01*
X95993Y63102D01*
X96150Y63123D01*
X96296Y63183D01*
X96421Y63279D01*
X96517Y63405D01*
X96578Y63551D01*
X96598Y63707D01*
X96578Y63864D01*
X96517Y64010D01*
X96421Y64135D01*
X96296Y64231D01*
X96150Y64292D01*
X95993Y64313D01*
D02*
G37*
G36*
X125050Y64292D02*
X124893Y64271D01*
X124747Y64211D01*
X124622Y64115D01*
X124526Y63989D01*
X124465Y63843D01*
X124445Y63687D01*
X124465Y63530D01*
X124526Y63384D01*
X124622Y63259D01*
X124747Y63163D01*
X124893Y63102D01*
X125050Y63082D01*
X125207Y63102D01*
X125353Y63163D01*
X125478Y63259D01*
X125574Y63384D01*
X125635Y63530D01*
X125655Y63687D01*
X125635Y63843D01*
X125574Y63989D01*
X125478Y64115D01*
X125353Y64211D01*
X125207Y64271D01*
X125050Y64292D01*
D02*
G37*
G36*
X92940Y64174D02*
X92784Y64154D01*
X92638Y64093D01*
X92513Y63997D01*
X92416Y63872D01*
X92356Y63726D01*
X92335Y63569D01*
X92356Y63413D01*
X92416Y63267D01*
X92513Y63141D01*
X92638Y63045D01*
X92784Y62985D01*
X92940Y62964D01*
X93097Y62985D01*
X93243Y63045D01*
X93368Y63141D01*
X93465Y63267D01*
X93525Y63413D01*
X93546Y63569D01*
X93525Y63726D01*
X93465Y63872D01*
X93368Y63997D01*
X93243Y64093D01*
X93097Y64154D01*
X92940Y64174D01*
D02*
G37*
G36*
X90340Y66362D02*
X90184Y66341D01*
X90038Y66281D01*
X89913Y66185D01*
X89816Y66059D01*
X89756Y65913D01*
X89735Y65757D01*
X89756Y65600D01*
X89816Y65454D01*
X89913Y65329D01*
X89967Y65287D01*
Y65161D01*
X89913Y65119D01*
X89816Y64994D01*
X89756Y64848D01*
X89735Y64691D01*
X89756Y64534D01*
X89816Y64388D01*
X89913Y64263D01*
X90021Y64180D01*
X90027Y64168D01*
X90033Y64116D01*
X90027Y64063D01*
X89938Y63994D01*
X89841Y63869D01*
X89781Y63723D01*
X89760Y63566D01*
X89781Y63410D01*
X89841Y63264D01*
X89938Y63138D01*
X90063Y63042D01*
X90209Y62982D01*
X90365Y62961D01*
X90522Y62982D01*
X90668Y63042D01*
X90793Y63138D01*
X90890Y63264D01*
X90950Y63410D01*
X90971Y63566D01*
X90950Y63723D01*
X90890Y63869D01*
X90793Y63994D01*
X90685Y64078D01*
X90679Y64089D01*
X90673Y64141D01*
X90679Y64194D01*
X90768Y64263D01*
X90865Y64388D01*
X90925Y64534D01*
X90946Y64691D01*
X90925Y64848D01*
X90865Y64994D01*
X90768Y65119D01*
X90714Y65161D01*
Y65287D01*
X90768Y65329D01*
X90865Y65454D01*
X90925Y65600D01*
X90946Y65757D01*
X90925Y65913D01*
X90865Y66059D01*
X90768Y66185D01*
X90643Y66281D01*
X90497Y66341D01*
X90340Y66362D01*
D02*
G37*
G36*
X73525Y64155D02*
X73368Y64135D01*
X73222Y64074D01*
X73097Y63978D01*
X73001Y63853D01*
X72940Y63707D01*
X72920Y63550D01*
X72940Y63393D01*
X73001Y63247D01*
X73097Y63122D01*
X73222Y63026D01*
X73368Y62965D01*
X73525Y62945D01*
X73682Y62965D01*
X73828Y63026D01*
X73953Y63122D01*
X74049Y63247D01*
X74110Y63393D01*
X74130Y63550D01*
X74110Y63707D01*
X74049Y63853D01*
X73953Y63978D01*
X73828Y64074D01*
X73682Y64135D01*
X73525Y64155D01*
D02*
G37*
G36*
X137025Y64030D02*
X136868Y64010D01*
X136722Y63949D01*
X136597Y63853D01*
X136501Y63728D01*
X136440Y63582D01*
X136420Y63425D01*
X136440Y63268D01*
X136501Y63122D01*
X136597Y62997D01*
X136722Y62901D01*
X136868Y62840D01*
X137025Y62820D01*
X137182Y62840D01*
X137328Y62901D01*
X137453Y62997D01*
X137549Y63122D01*
X137610Y63268D01*
X137630Y63425D01*
X137610Y63582D01*
X137549Y63728D01*
X137453Y63853D01*
X137328Y63949D01*
X137182Y64010D01*
X137025Y64030D01*
D02*
G37*
G36*
X92888Y61700D02*
X92731Y61680D01*
X92585Y61619D01*
X92460Y61523D01*
X92363Y61398D01*
X92303Y61252D01*
X92282Y61095D01*
X92303Y60938D01*
X92363Y60792D01*
X92460Y60667D01*
X92585Y60571D01*
X92731Y60510D01*
X92888Y60490D01*
X93044Y60510D01*
X93190Y60571D01*
X93315Y60667D01*
X93412Y60792D01*
X93472Y60938D01*
X93493Y61095D01*
X93472Y61252D01*
X93412Y61398D01*
X93315Y61523D01*
X93190Y61619D01*
X93044Y61680D01*
X92888Y61700D01*
D02*
G37*
G36*
X90402D02*
X90246Y61680D01*
X90100Y61619D01*
X89975Y61523D01*
X89878Y61398D01*
X89818Y61252D01*
X89797Y61095D01*
X89818Y60938D01*
X89878Y60792D01*
X89975Y60667D01*
X90100Y60571D01*
X90246Y60510D01*
X90402Y60490D01*
X90559Y60510D01*
X90705Y60571D01*
X90830Y60667D01*
X90927Y60792D01*
X90987Y60938D01*
X91008Y61095D01*
X90987Y61252D01*
X90927Y61398D01*
X90830Y61523D01*
X90705Y61619D01*
X90559Y61680D01*
X90402Y61700D01*
D02*
G37*
G36*
X81775Y66780D02*
X81618Y66760D01*
X81472Y66699D01*
X81347Y66603D01*
X81251Y66478D01*
X81190Y66332D01*
X81170Y66175D01*
X81190Y66018D01*
X81251Y65872D01*
X81337Y65760D01*
X81335Y65754D01*
X81210Y65658D01*
X81114Y65533D01*
X81053Y65387D01*
X81033Y65230D01*
X81053Y65073D01*
X81114Y64927D01*
X81210Y64802D01*
X81264Y64761D01*
Y64635D01*
X81222Y64603D01*
X81126Y64478D01*
X81065Y64332D01*
X81045Y64175D01*
X81065Y64018D01*
X81126Y63872D01*
X81222Y63747D01*
X81261Y63717D01*
Y63617D01*
X81210Y63578D01*
X81114Y63453D01*
X81053Y63307D01*
X81033Y63150D01*
X81053Y62993D01*
X81114Y62847D01*
X81210Y62722D01*
X81335Y62626D01*
X81358Y62617D01*
Y62508D01*
X81335Y62499D01*
X81210Y62403D01*
X81114Y62278D01*
X81053Y62132D01*
X81033Y61975D01*
X81053Y61818D01*
X81114Y61672D01*
X81207Y61551D01*
X81223Y61524D01*
Y61451D01*
X81207Y61424D01*
X81114Y61303D01*
X81053Y61157D01*
X81033Y61000D01*
X81053Y60843D01*
X81114Y60697D01*
X81210Y60572D01*
X81335Y60476D01*
X81481Y60415D01*
X81638Y60395D01*
X81795Y60415D01*
X81941Y60476D01*
X82066Y60572D01*
X82162Y60697D01*
X82223Y60843D01*
X82243Y61000D01*
X82223Y61157D01*
X82162Y61303D01*
X82069Y61424D01*
X82053Y61451D01*
Y61524D01*
X82069Y61551D01*
X82162Y61672D01*
X82223Y61818D01*
X82243Y61975D01*
X82223Y62132D01*
X82162Y62278D01*
X82066Y62403D01*
X81941Y62499D01*
X81918Y62508D01*
Y62617D01*
X81941Y62626D01*
X82066Y62722D01*
X82162Y62847D01*
X82223Y62993D01*
X82243Y63150D01*
X82223Y63307D01*
X82162Y63453D01*
X82066Y63578D01*
X82027Y63608D01*
Y63708D01*
X82078Y63747D01*
X82174Y63872D01*
X82235Y64018D01*
X82255Y64175D01*
X82235Y64332D01*
X82174Y64478D01*
X82078Y64603D01*
X82024Y64644D01*
Y64770D01*
X82066Y64802D01*
X82162Y64927D01*
X82223Y65073D01*
X82243Y65230D01*
X82223Y65387D01*
X82162Y65533D01*
X82076Y65645D01*
X82078Y65651D01*
X82203Y65747D01*
X82299Y65872D01*
X82360Y66018D01*
X82380Y66175D01*
X82360Y66332D01*
X82299Y66478D01*
X82203Y66603D01*
X82078Y66699D01*
X81932Y66760D01*
X81775Y66780D01*
D02*
G37*
G36*
X108415Y65018D02*
X108258Y64998D01*
X108112Y64937D01*
X107987Y64841D01*
X107891Y64716D01*
X107830Y64570D01*
X107810Y64413D01*
X107830Y64257D01*
X107891Y64111D01*
X107987Y63985D01*
X108112Y63889D01*
X108258Y63829D01*
Y63728D01*
X108112Y63668D01*
X107987Y63572D01*
X107891Y63446D01*
X107830Y63300D01*
X107810Y63144D01*
X107830Y62987D01*
X107891Y62841D01*
X107987Y62716D01*
X108112Y62620D01*
X108126Y62614D01*
Y62506D01*
X108109Y62499D01*
X107984Y62403D01*
X107888Y62278D01*
X107827Y62132D01*
X107807Y61975D01*
X107827Y61818D01*
X107888Y61672D01*
X107984Y61547D01*
X108014Y61524D01*
Y61424D01*
X107987Y61403D01*
X107891Y61278D01*
X107830Y61132D01*
X107810Y60975D01*
X107830Y60818D01*
X107891Y60672D01*
X107987Y60547D01*
X108112Y60451D01*
X108258Y60390D01*
X108415Y60370D01*
X108571Y60390D01*
X108717Y60451D01*
X108843Y60547D01*
X108939Y60672D01*
X108999Y60818D01*
X109020Y60975D01*
X108999Y61132D01*
X108939Y61278D01*
X108843Y61403D01*
X108812Y61426D01*
Y61526D01*
X108840Y61547D01*
X108936Y61672D01*
X108996Y61818D01*
X109017Y61975D01*
X108996Y62132D01*
X108936Y62278D01*
X108840Y62403D01*
X108714Y62499D01*
X108701Y62505D01*
Y62613D01*
X108717Y62620D01*
X108843Y62716D01*
X108939Y62841D01*
X108999Y62987D01*
X109020Y63144D01*
X108999Y63300D01*
X108939Y63446D01*
X108843Y63572D01*
X108717Y63668D01*
X108571Y63728D01*
Y63829D01*
X108717Y63889D01*
X108843Y63985D01*
X108939Y64111D01*
X108999Y64257D01*
X109020Y64413D01*
X108999Y64570D01*
X108939Y64716D01*
X108843Y64841D01*
X108717Y64937D01*
X108571Y64998D01*
X108415Y65018D01*
D02*
G37*
G36*
X132125Y62479D02*
X131969Y62458D01*
X131823Y62398D01*
X131697Y62302D01*
X131601Y62176D01*
X131541Y62031D01*
X131520Y61874D01*
X131541Y61717D01*
X131601Y61571D01*
X131697Y61446D01*
X131745Y61409D01*
X131730Y61295D01*
X131722Y61292D01*
X131597Y61195D01*
X131501Y61070D01*
X131440Y60924D01*
X131420Y60768D01*
X131440Y60611D01*
X131501Y60465D01*
X131597Y60340D01*
X131722Y60243D01*
X131868Y60183D01*
X132025Y60162D01*
X132182Y60183D01*
X132328Y60243D01*
X132453Y60340D01*
X132549Y60465D01*
X132610Y60611D01*
X132630Y60768D01*
X132610Y60924D01*
X132549Y61070D01*
X132453Y61195D01*
X132405Y61232D01*
X132420Y61347D01*
X132428Y61350D01*
X132553Y61446D01*
X132649Y61571D01*
X132710Y61717D01*
X132730Y61874D01*
X132710Y62031D01*
X132649Y62176D01*
X132553Y62302D01*
X132428Y62398D01*
X132282Y62458D01*
X132125Y62479D01*
D02*
G37*
G36*
X141400Y61948D02*
X141165Y61917D01*
X140946Y61827D01*
X140758Y61682D01*
X140614Y61494D01*
X140523Y61275D01*
X140492Y61040D01*
X140523Y60806D01*
X140614Y60587D01*
X140758Y60399D01*
X140946Y60254D01*
X141165Y60164D01*
X141400Y60133D01*
X141635Y60164D01*
X141854Y60254D01*
X142042Y60399D01*
X142186Y60587D01*
X142277Y60806D01*
X142308Y61040D01*
X142277Y61275D01*
X142186Y61494D01*
X142042Y61682D01*
X141854Y61827D01*
X141635Y61917D01*
X141400Y61948D01*
D02*
G37*
G36*
X99085Y61192D02*
X98929Y61171D01*
X98783Y61111D01*
X98657Y61015D01*
X98561Y60889D01*
X98501Y60743D01*
X98480Y60587D01*
X98501Y60430D01*
X98561Y60284D01*
X98657Y60159D01*
X98783Y60063D01*
X98929Y60002D01*
X99085Y59982D01*
X99242Y60002D01*
X99388Y60063D01*
X99513Y60159D01*
X99609Y60284D01*
X99670Y60430D01*
X99690Y60587D01*
X99670Y60743D01*
X99609Y60889D01*
X99513Y61015D01*
X99388Y61111D01*
X99242Y61171D01*
X99085Y61192D01*
D02*
G37*
G36*
X95943Y61171D02*
X95787Y61150D01*
X95641Y61090D01*
X95515Y60994D01*
X95419Y60868D01*
X95359Y60723D01*
X95338Y60566D01*
X95359Y60409D01*
X95419Y60263D01*
X95515Y60138D01*
X95641Y60042D01*
X95787Y59981D01*
X95943Y59961D01*
X96100Y59981D01*
X96246Y60042D01*
X96371Y60138D01*
X96467Y60263D01*
X96528Y60409D01*
X96548Y60566D01*
X96528Y60723D01*
X96467Y60868D01*
X96371Y60994D01*
X96246Y61090D01*
X96100Y61150D01*
X95943Y61171D01*
D02*
G37*
G36*
X102254Y61138D02*
X102097Y61117D01*
X101951Y61056D01*
X101826Y60960D01*
X101730Y60835D01*
X101669Y60689D01*
X101649Y60532D01*
X101669Y60376D01*
X101730Y60230D01*
X101826Y60104D01*
X101951Y60008D01*
X102097Y59948D01*
X102254Y59927D01*
X102411Y59948D01*
X102557Y60008D01*
X102682Y60104D01*
X102778Y60230D01*
X102838Y60376D01*
X102859Y60532D01*
X102838Y60689D01*
X102778Y60835D01*
X102682Y60960D01*
X102557Y61056D01*
X102411Y61117D01*
X102254Y61138D01*
D02*
G37*
G36*
X92565Y59658D02*
X92409Y59637D01*
X92263Y59577D01*
X92138Y59480D01*
X92041Y59355D01*
X91981Y59209D01*
X91960Y59052D01*
X91981Y58896D01*
X92041Y58750D01*
X92138Y58625D01*
X92263Y58528D01*
X92409Y58468D01*
X92565Y58447D01*
X92722Y58468D01*
X92868Y58528D01*
X92993Y58625D01*
X93090Y58750D01*
X93150Y58896D01*
X93171Y59052D01*
X93150Y59209D01*
X93090Y59355D01*
X92993Y59480D01*
X92868Y59577D01*
X92722Y59637D01*
X92565Y59658D01*
D02*
G37*
G36*
X114600Y62355D02*
X114443Y62335D01*
X114297Y62274D01*
X114172Y62178D01*
X114076Y62053D01*
X114015Y61907D01*
X113995Y61750D01*
X114015Y61593D01*
X114076Y61447D01*
X114172Y61322D01*
X114201Y61300D01*
Y61200D01*
X114172Y61178D01*
X114076Y61053D01*
X114015Y60907D01*
X113995Y60750D01*
X114015Y60593D01*
X114076Y60447D01*
X114172Y60322D01*
X114185Y60312D01*
Y60213D01*
X114172Y60203D01*
X114076Y60078D01*
X114015Y59932D01*
X113995Y59775D01*
X114015Y59618D01*
X114076Y59472D01*
X114172Y59347D01*
X114201Y59325D01*
Y59225D01*
X114172Y59203D01*
X114076Y59078D01*
X114015Y58932D01*
X113995Y58775D01*
X114015Y58618D01*
X114076Y58472D01*
X114172Y58347D01*
X114297Y58251D01*
X114443Y58190D01*
X114600Y58170D01*
X114757Y58190D01*
X114903Y58251D01*
X115028Y58347D01*
X115124Y58472D01*
X115185Y58618D01*
X115205Y58775D01*
X115185Y58932D01*
X115124Y59078D01*
X115028Y59203D01*
X114999Y59225D01*
Y59325D01*
X115028Y59347D01*
X115124Y59472D01*
X115185Y59618D01*
X115205Y59775D01*
X115185Y59932D01*
X115124Y60078D01*
X115028Y60203D01*
X115015Y60213D01*
Y60312D01*
X115028Y60322D01*
X115124Y60447D01*
X115185Y60593D01*
X115205Y60750D01*
X115185Y60907D01*
X115124Y61053D01*
X115028Y61178D01*
X114999Y61200D01*
Y61300D01*
X115028Y61322D01*
X115124Y61447D01*
X115185Y61593D01*
X115205Y61750D01*
X115185Y61907D01*
X115124Y62053D01*
X115028Y62178D01*
X114903Y62274D01*
X114757Y62335D01*
X114600Y62355D01*
D02*
G37*
G36*
X107265Y60103D02*
X107109Y60082D01*
X106963Y60022D01*
X106837Y59925D01*
X106741Y59800D01*
X106681Y59654D01*
X106660Y59497D01*
X106681Y59341D01*
X106741Y59195D01*
X106837Y59070D01*
X106859Y59053D01*
Y58953D01*
X106837Y58937D01*
X106741Y58811D01*
X106681Y58665D01*
X106660Y58509D01*
X106681Y58352D01*
X106741Y58206D01*
X106837Y58081D01*
X106878Y58050D01*
Y57950D01*
X106837Y57918D01*
X106741Y57793D01*
X106681Y57647D01*
X106660Y57491D01*
X106681Y57334D01*
X106741Y57188D01*
X106837Y57063D01*
X106963Y56966D01*
X107109Y56906D01*
X107265Y56885D01*
X107422Y56906D01*
X107568Y56966D01*
X107693Y57063D01*
X107708Y57082D01*
X107804Y57042D01*
X107795Y56975D01*
X107815Y56818D01*
X107876Y56672D01*
X107972Y56547D01*
X108097Y56451D01*
X108199Y56409D01*
Y56301D01*
X108097Y56259D01*
X107972Y56163D01*
X107876Y56037D01*
X107815Y55891D01*
X107795Y55735D01*
X107815Y55578D01*
X107876Y55432D01*
X107972Y55307D01*
X108003Y55283D01*
Y55183D01*
X107972Y55160D01*
X107876Y55034D01*
X107815Y54888D01*
X107795Y54732D01*
X107815Y54575D01*
X107876Y54429D01*
X107972Y54304D01*
X108097Y54208D01*
X108224Y54155D01*
X108232Y54117D01*
Y54090D01*
X108224Y54052D01*
X108097Y53999D01*
X107972Y53903D01*
X107876Y53778D01*
X107815Y53632D01*
X107795Y53475D01*
X107815Y53318D01*
X107876Y53172D01*
X107972Y53047D01*
X108097Y52951D01*
X108243Y52890D01*
X108400Y52870D01*
X108557Y52890D01*
X108703Y52951D01*
X108828Y53047D01*
X108924Y53172D01*
X108985Y53318D01*
X109005Y53475D01*
X108985Y53632D01*
X108924Y53778D01*
X108828Y53903D01*
X108703Y53999D01*
X108576Y54052D01*
X108568Y54090D01*
Y54117D01*
X108576Y54155D01*
X108703Y54208D01*
X108828Y54304D01*
X108924Y54429D01*
X108985Y54575D01*
X109005Y54732D01*
X108985Y54888D01*
X108924Y55034D01*
X108828Y55160D01*
X108797Y55183D01*
Y55283D01*
X108828Y55307D01*
X108924Y55432D01*
X108985Y55578D01*
X109005Y55735D01*
X108985Y55891D01*
X108924Y56037D01*
X108828Y56163D01*
X108703Y56259D01*
X108601Y56301D01*
Y56409D01*
X108703Y56451D01*
X108828Y56547D01*
X108924Y56672D01*
X108985Y56818D01*
X109005Y56975D01*
X108985Y57132D01*
X108924Y57278D01*
X108828Y57403D01*
X108703Y57499D01*
X108557Y57560D01*
X108400Y57580D01*
X108243Y57560D01*
X108097Y57499D01*
X107972Y57403D01*
X107957Y57384D01*
X107862Y57423D01*
X107871Y57491D01*
X107850Y57647D01*
X107789Y57793D01*
X107693Y57918D01*
X107653Y57950D01*
Y58050D01*
X107693Y58081D01*
X107789Y58206D01*
X107837Y58320D01*
X107924Y58342D01*
X107949Y58338D01*
X107984Y58292D01*
X108109Y58196D01*
X108255Y58135D01*
X108412Y58115D01*
X108568Y58135D01*
X108714Y58196D01*
X108840Y58292D01*
X108936Y58417D01*
X108996Y58563D01*
X109017Y58720D01*
X108996Y58877D01*
X108936Y59023D01*
X108840Y59148D01*
X108714Y59244D01*
X108568Y59305D01*
X108412Y59325D01*
X108255Y59305D01*
X108109Y59244D01*
X107984Y59148D01*
X107888Y59023D01*
X107841Y58909D01*
X107753Y58887D01*
X107729Y58891D01*
X107693Y58937D01*
X107672Y58953D01*
Y59053D01*
X107693Y59070D01*
X107789Y59195D01*
X107850Y59341D01*
X107870Y59497D01*
X107850Y59654D01*
X107789Y59800D01*
X107693Y59925D01*
X107568Y60022D01*
X107422Y60082D01*
X107265Y60103D01*
D02*
G37*
G36*
X132396Y59055D02*
X132240Y59035D01*
X132094Y58974D01*
X131968Y58878D01*
X131872Y58753D01*
X131812Y58607D01*
X131791Y58450D01*
X131812Y58293D01*
X131872Y58147D01*
X131968Y58022D01*
X132094Y57926D01*
X132240Y57865D01*
X132396Y57845D01*
X132553Y57865D01*
X132699Y57926D01*
X132824Y58022D01*
X132920Y58147D01*
X132981Y58293D01*
X133001Y58450D01*
X132981Y58607D01*
X132920Y58753D01*
X132824Y58878D01*
X132699Y58974D01*
X132553Y59035D01*
X132396Y59055D01*
D02*
G37*
G36*
X87700Y58880D02*
X87543Y58860D01*
X87397Y58799D01*
X87272Y58703D01*
X87176Y58578D01*
X87115Y58432D01*
X87095Y58275D01*
X87115Y58118D01*
X87176Y57972D01*
X87272Y57847D01*
X87397Y57751D01*
X87543Y57690D01*
X87700Y57670D01*
X87857Y57690D01*
X88003Y57751D01*
X88128Y57847D01*
X88224Y57972D01*
X88285Y58118D01*
X88305Y58275D01*
X88285Y58432D01*
X88224Y58578D01*
X88128Y58703D01*
X88003Y58799D01*
X87857Y58860D01*
X87700Y58880D01*
D02*
G37*
G36*
X90815Y58859D02*
X90659Y58838D01*
X90513Y58778D01*
X90388Y58681D01*
X90291Y58556D01*
X90231Y58410D01*
X90210Y58254D01*
X90231Y58097D01*
X90291Y57951D01*
X90388Y57826D01*
X90513Y57729D01*
X90659Y57669D01*
X90815Y57648D01*
X90972Y57669D01*
X91118Y57729D01*
X91243Y57826D01*
X91340Y57951D01*
X91400Y58097D01*
X91421Y58254D01*
X91400Y58410D01*
X91340Y58556D01*
X91243Y58681D01*
X91118Y58778D01*
X90972Y58838D01*
X90815Y58859D01*
D02*
G37*
G36*
X129531Y58855D02*
X129374Y58835D01*
X129228Y58774D01*
X129103Y58678D01*
X129007Y58553D01*
X128946Y58407D01*
X128925Y58250D01*
X128946Y58093D01*
X129007Y57947D01*
X129103Y57822D01*
X129228Y57726D01*
X129374Y57665D01*
X129531Y57645D01*
X129687Y57665D01*
X129833Y57726D01*
X129959Y57822D01*
X130055Y57947D01*
X130115Y58093D01*
X130136Y58250D01*
X130115Y58407D01*
X130055Y58553D01*
X129959Y58678D01*
X129833Y58774D01*
X129687Y58835D01*
X129531Y58855D01*
D02*
G37*
G36*
X134721Y58680D02*
X134564Y58660D01*
X134418Y58599D01*
X134293Y58503D01*
X134196Y58378D01*
X134136Y58232D01*
X134115Y58075D01*
X134136Y57918D01*
X134196Y57772D01*
X134293Y57647D01*
X134418Y57551D01*
X134564Y57490D01*
X134721Y57470D01*
X134877Y57490D01*
X135023Y57551D01*
X135148Y57647D01*
X135245Y57772D01*
X135305Y57918D01*
X135326Y58075D01*
X135305Y58232D01*
X135245Y58378D01*
X135148Y58503D01*
X135023Y58599D01*
X134877Y58660D01*
X134721Y58680D01*
D02*
G37*
G36*
X95943Y58063D02*
X95787Y58042D01*
X95641Y57981D01*
X95515Y57885D01*
X95419Y57760D01*
X95359Y57614D01*
X95338Y57457D01*
X95359Y57301D01*
X95419Y57155D01*
X95515Y57029D01*
X95641Y56933D01*
X95787Y56873D01*
X95943Y56852D01*
X96100Y56873D01*
X96246Y56933D01*
X96371Y57029D01*
X96467Y57155D01*
X96528Y57301D01*
X96548Y57457D01*
X96528Y57614D01*
X96467Y57760D01*
X96371Y57885D01*
X96246Y57981D01*
X96100Y58042D01*
X95943Y58063D01*
D02*
G37*
G36*
X102193Y58038D02*
X102037Y58017D01*
X101891Y57957D01*
X101765Y57860D01*
X101669Y57735D01*
X101609Y57589D01*
X101588Y57432D01*
X101609Y57276D01*
X101669Y57130D01*
X101765Y57004D01*
X101891Y56908D01*
X102037Y56848D01*
X102193Y56827D01*
X102350Y56848D01*
X102496Y56908D01*
X102621Y57004D01*
X102717Y57130D01*
X102778Y57276D01*
X102798Y57432D01*
X102778Y57589D01*
X102717Y57735D01*
X102621Y57860D01*
X102496Y57957D01*
X102350Y58017D01*
X102193Y58038D01*
D02*
G37*
G36*
X99043Y57942D02*
X98887Y57921D01*
X98741Y57861D01*
X98615Y57765D01*
X98519Y57639D01*
X98459Y57493D01*
X98438Y57337D01*
X98459Y57180D01*
X98519Y57034D01*
X98615Y56909D01*
X98741Y56813D01*
X98887Y56752D01*
X99043Y56732D01*
X99200Y56752D01*
X99346Y56813D01*
X99471Y56909D01*
X99567Y57034D01*
X99628Y57180D01*
X99648Y57337D01*
X99628Y57493D01*
X99567Y57639D01*
X99471Y57765D01*
X99346Y57861D01*
X99200Y57921D01*
X99043Y57942D01*
D02*
G37*
G36*
X90975Y57095D02*
X90818Y57075D01*
X90672Y57014D01*
X90547Y56918D01*
X90451Y56793D01*
X90390Y56647D01*
X90370Y56490D01*
X90390Y56333D01*
X90451Y56187D01*
X90547Y56062D01*
X90672Y55966D01*
X90818Y55906D01*
X90975Y55885D01*
X91132Y55906D01*
X91278Y55966D01*
X91403Y56062D01*
X91499Y56187D01*
X91560Y56333D01*
X91580Y56490D01*
X91560Y56647D01*
X91499Y56793D01*
X91403Y56918D01*
X91278Y57014D01*
X91132Y57075D01*
X90975Y57095D01*
D02*
G37*
G36*
X118902Y56640D02*
X118745Y56620D01*
X118599Y56559D01*
X118474Y56463D01*
X118378Y56338D01*
X118317Y56192D01*
X118297Y56035D01*
X118317Y55878D01*
X118378Y55732D01*
X118474Y55607D01*
X118599Y55511D01*
X118745Y55450D01*
X118902Y55430D01*
X119058Y55450D01*
X119204Y55511D01*
X119330Y55607D01*
X119426Y55732D01*
X119486Y55878D01*
X119507Y56035D01*
X119486Y56192D01*
X119426Y56338D01*
X119330Y56463D01*
X119204Y56559D01*
X119058Y56620D01*
X118902Y56640D01*
D02*
G37*
G36*
X122000Y56574D02*
X121843Y56554D01*
X121697Y56493D01*
X121572Y56397D01*
X121476Y56272D01*
X121415Y56126D01*
X121395Y55969D01*
X121415Y55812D01*
X121476Y55666D01*
X121572Y55541D01*
X121697Y55445D01*
X121843Y55384D01*
X122000Y55364D01*
X122157Y55384D01*
X122303Y55445D01*
X122428Y55541D01*
X122524Y55666D01*
X122585Y55812D01*
X122605Y55969D01*
X122585Y56126D01*
X122524Y56272D01*
X122428Y56397D01*
X122303Y56493D01*
X122157Y56554D01*
X122000Y56574D01*
D02*
G37*
G36*
X143300Y60200D02*
X143000Y60161D01*
X142720Y60045D01*
X142480Y59861D01*
X142295Y59620D01*
X142180Y59341D01*
X142140Y59040D01*
X142180Y58740D01*
X142295Y58461D01*
X142480Y58220D01*
X142649Y58090D01*
Y57990D01*
X142480Y57861D01*
X142295Y57620D01*
X142180Y57341D01*
X142140Y57040D01*
X142180Y56740D01*
X142295Y56461D01*
X142480Y56220D01*
X142649Y56090D01*
Y55990D01*
X142480Y55861D01*
X142295Y55620D01*
X142180Y55341D01*
X142173Y55290D01*
X143300D01*
X144427D01*
X144420Y55341D01*
X144305Y55620D01*
X144120Y55861D01*
X143951Y55990D01*
Y56090D01*
X144120Y56220D01*
X144305Y56461D01*
X144420Y56740D01*
X144460Y57040D01*
X144420Y57341D01*
X144305Y57620D01*
X144120Y57861D01*
X143951Y57990D01*
Y58090D01*
X144120Y58220D01*
X144305Y58461D01*
X144420Y58740D01*
X144460Y59040D01*
X144420Y59341D01*
X144305Y59620D01*
X144120Y59861D01*
X143880Y60045D01*
X143600Y60161D01*
X143300Y60200D01*
D02*
G37*
G36*
X97343Y55752D02*
X97187Y55732D01*
X97041Y55671D01*
X96915Y55575D01*
X96819Y55450D01*
X96759Y55304D01*
X96738Y55147D01*
X96759Y54990D01*
X96819Y54845D01*
X96915Y54719D01*
X97041Y54623D01*
X97187Y54563D01*
X97343Y54542D01*
X97500Y54563D01*
X97646Y54623D01*
X97771Y54719D01*
X97867Y54845D01*
X97928Y54990D01*
X97948Y55147D01*
X97928Y55304D01*
X97867Y55450D01*
X97771Y55575D01*
X97646Y55671D01*
X97500Y55732D01*
X97343Y55752D01*
D02*
G37*
G36*
X93815Y56355D02*
X93659Y56335D01*
X93513Y56274D01*
X93388Y56178D01*
X93291Y56053D01*
X93231Y55907D01*
X93210Y55750D01*
X93231Y55593D01*
X93291Y55447D01*
X93388Y55322D01*
X93513Y55226D01*
X93659Y55165D01*
X93684Y55162D01*
X93710Y55058D01*
X93615Y54985D01*
X93519Y54860D01*
X93459Y54714D01*
X93438Y54557D01*
X93441Y54535D01*
X93347Y54480D01*
X93323Y54499D01*
X93177Y54560D01*
X93020Y54580D01*
X92864Y54560D01*
X92718Y54499D01*
X92593Y54403D01*
X92578Y54384D01*
X92491D01*
X92465Y54400D01*
X92343Y54493D01*
X92197Y54554D01*
X92040Y54575D01*
X91884Y54554D01*
X91738Y54493D01*
X91613Y54397D01*
X91575Y54349D01*
X91449D01*
X91408Y54403D01*
X91283Y54499D01*
X91137Y54560D01*
X90980Y54580D01*
X90823Y54560D01*
X90677Y54499D01*
X90552Y54403D01*
X90456Y54278D01*
X90395Y54132D01*
X90375Y53975D01*
X90395Y53818D01*
X90456Y53672D01*
X90552Y53547D01*
X90677Y53451D01*
X90823Y53390D01*
X90980Y53370D01*
X91137Y53390D01*
X91283Y53451D01*
X91408Y53547D01*
X91445Y53595D01*
X91571D01*
X91613Y53541D01*
X91738Y53445D01*
X91884Y53385D01*
X92040Y53364D01*
X92197Y53385D01*
X92343Y53445D01*
X92468Y53541D01*
X92483Y53560D01*
X92570D01*
X92596Y53544D01*
X92718Y53451D01*
X92864Y53390D01*
X93020Y53370D01*
X93177Y53390D01*
X93323Y53451D01*
X93343Y53466D01*
X93450Y53422D01*
X93456Y53376D01*
X93516Y53230D01*
X93613Y53104D01*
X93738Y53008D01*
X93884Y52948D01*
X94040Y52927D01*
X94197Y52948D01*
X94343Y53008D01*
X94468Y53104D01*
X94565Y53230D01*
X94625Y53376D01*
X94646Y53532D01*
X94625Y53689D01*
X94565Y53835D01*
X94468Y53960D01*
X94425Y53994D01*
Y54094D01*
X94471Y54129D01*
X94567Y54255D01*
X94628Y54401D01*
X94648Y54557D01*
X94628Y54714D01*
X94567Y54860D01*
X94471Y54985D01*
X94346Y55082D01*
X94200Y55142D01*
X94174Y55145D01*
X94149Y55250D01*
X94243Y55322D01*
X94340Y55447D01*
X94400Y55593D01*
X94421Y55750D01*
X94400Y55907D01*
X94340Y56053D01*
X94243Y56178D01*
X94118Y56274D01*
X93972Y56335D01*
X93815Y56355D01*
D02*
G37*
G36*
X123500Y55230D02*
X123343Y55210D01*
X123197Y55149D01*
X123072Y55053D01*
X122976Y54928D01*
X122915Y54782D01*
X122895Y54625D01*
X122915Y54468D01*
X122976Y54322D01*
X123072Y54197D01*
X123197Y54101D01*
X123343Y54040D01*
X123500Y54020D01*
X123657Y54040D01*
X123803Y54101D01*
X123928Y54197D01*
X124024Y54322D01*
X124085Y54468D01*
X124105Y54625D01*
X124085Y54782D01*
X124024Y54928D01*
X123928Y55053D01*
X123803Y55149D01*
X123657Y55210D01*
X123500Y55230D01*
D02*
G37*
G36*
X144427Y54790D02*
X143550D01*
Y53913D01*
X143600Y53920D01*
X143880Y54036D01*
X144120Y54220D01*
X144305Y54461D01*
X144420Y54740D01*
X144427Y54790D01*
D02*
G37*
G36*
X143050D02*
X142173D01*
X142180Y54740D01*
X142295Y54461D01*
X142480Y54220D01*
X142720Y54036D01*
X143000Y53920D01*
X143050Y53913D01*
Y54790D01*
D02*
G37*
G36*
X101206Y55388D02*
X101049Y55367D01*
X100904Y55306D01*
X100778Y55210D01*
X100682Y55085D01*
X100622Y54939D01*
X100601Y54782D01*
X100622Y54626D01*
X100682Y54480D01*
X100778Y54354D01*
X100823Y54320D01*
Y54220D01*
X100778Y54185D01*
X100682Y54060D01*
X100622Y53914D01*
X100601Y53757D01*
X100622Y53601D01*
X100682Y53455D01*
X100778Y53329D01*
X100904Y53233D01*
X101049Y53173D01*
X101206Y53152D01*
X101363Y53173D01*
X101509Y53233D01*
X101634Y53329D01*
X101730Y53455D01*
X101791Y53601D01*
X101838Y53628D01*
X101912Y53598D01*
X102068Y53577D01*
X102225Y53598D01*
X102371Y53658D01*
X102496Y53754D01*
X102592Y53880D01*
X102653Y54026D01*
X102673Y54182D01*
X102653Y54339D01*
X102592Y54485D01*
X102496Y54610D01*
X102371Y54707D01*
X102225Y54767D01*
X102068Y54788D01*
X101912Y54767D01*
X101902Y54763D01*
X101805Y54831D01*
X101791Y54939D01*
X101730Y55085D01*
X101634Y55210D01*
X101509Y55306D01*
X101363Y55367D01*
X101206Y55388D01*
D02*
G37*
G36*
X127829Y54584D02*
X127672Y54563D01*
X127526Y54503D01*
X127401Y54407D01*
X127305Y54281D01*
X127244Y54135D01*
X127224Y53979D01*
X127244Y53822D01*
X127305Y53676D01*
X127401Y53551D01*
X127526Y53455D01*
X127672Y53394D01*
X127829Y53374D01*
X127985Y53394D01*
X128131Y53455D01*
X128257Y53551D01*
X128353Y53676D01*
X128413Y53822D01*
X128434Y53979D01*
X128413Y54135D01*
X128353Y54281D01*
X128257Y54407D01*
X128131Y54503D01*
X127985Y54563D01*
X127829Y54584D01*
D02*
G37*
G36*
X96643Y54125D02*
X96487Y54104D01*
X96341Y54044D01*
X96215Y53947D01*
X96119Y53822D01*
X96059Y53676D01*
X96038Y53520D01*
X96059Y53363D01*
X96119Y53217D01*
X96215Y53092D01*
X96341Y52995D01*
X96487Y52935D01*
X96643Y52914D01*
X96800Y52935D01*
X96946Y52995D01*
X97071Y53092D01*
X97167Y53217D01*
X97228Y53363D01*
X97248Y53520D01*
X97228Y53676D01*
X97167Y53822D01*
X97071Y53947D01*
X96946Y54044D01*
X96800Y54104D01*
X96643Y54125D01*
D02*
G37*
G36*
X87216Y52255D02*
X87059Y52235D01*
X86913Y52174D01*
X86788Y52078D01*
X86766Y52049D01*
X86666D01*
X86644Y52078D01*
X86518Y52174D01*
X86372Y52235D01*
X86216Y52255D01*
X86059Y52235D01*
X85913Y52174D01*
X85788Y52078D01*
X85692Y51953D01*
X85631Y51807D01*
X85611Y51650D01*
X85631Y51493D01*
X85692Y51347D01*
X85788Y51222D01*
X85913Y51126D01*
X86059Y51065D01*
X86216Y51045D01*
X86372Y51065D01*
X86518Y51126D01*
X86644Y51222D01*
X86666Y51251D01*
X86766D01*
X86788Y51222D01*
X86913Y51126D01*
X87059Y51065D01*
X87216Y51045D01*
X87372Y51065D01*
X87518Y51126D01*
X87644Y51222D01*
X87740Y51347D01*
X87800Y51493D01*
X87821Y51650D01*
X87800Y51807D01*
X87740Y51953D01*
X87644Y52078D01*
X87518Y52174D01*
X87372Y52235D01*
X87216Y52255D01*
D02*
G37*
G36*
X128847Y51405D02*
X128690Y51385D01*
X128544Y51324D01*
X128419Y51228D01*
X128323Y51103D01*
X128262Y50957D01*
X128242Y50800D01*
X128262Y50643D01*
X128323Y50497D01*
X128419Y50372D01*
X128544Y50276D01*
X128690Y50215D01*
X128847Y50195D01*
X129004Y50215D01*
X129150Y50276D01*
X129275Y50372D01*
X129371Y50497D01*
X129432Y50643D01*
X129452Y50800D01*
X129432Y50957D01*
X129371Y51103D01*
X129275Y51228D01*
X129150Y51324D01*
X129004Y51385D01*
X128847Y51405D01*
D02*
G37*
G36*
X131600Y51380D02*
X131443Y51360D01*
X131297Y51299D01*
X131172Y51203D01*
X131076Y51078D01*
X131015Y50932D01*
X130995Y50775D01*
X131015Y50618D01*
X131076Y50472D01*
X131172Y50347D01*
X131297Y50251D01*
X131443Y50190D01*
X131600Y50170D01*
X131757Y50190D01*
X131799Y50208D01*
X131876Y50132D01*
X131865Y50107D01*
X131845Y49950D01*
X131865Y49793D01*
X131926Y49647D01*
X132022Y49522D01*
X132147Y49426D01*
X132293Y49365D01*
X132450Y49345D01*
X132607Y49365D01*
X132753Y49426D01*
X132878Y49522D01*
X132974Y49647D01*
X133035Y49793D01*
X133055Y49950D01*
X133035Y50107D01*
X132974Y50253D01*
X132878Y50378D01*
X132753Y50474D01*
X132607Y50535D01*
X132450Y50555D01*
X132293Y50535D01*
X132251Y50517D01*
X132174Y50593D01*
X132185Y50618D01*
X132205Y50775D01*
X132185Y50932D01*
X132124Y51078D01*
X132028Y51203D01*
X131903Y51299D01*
X131757Y51360D01*
X131600Y51380D01*
D02*
G37*
G36*
X119800Y50068D02*
X119643Y50048D01*
X119497Y49987D01*
X119372Y49891D01*
X119276Y49766D01*
X119215Y49620D01*
X119195Y49463D01*
X119215Y49306D01*
X119276Y49160D01*
X119372Y49035D01*
X119497Y48939D01*
X119643Y48878D01*
X119800Y48858D01*
X119957Y48878D01*
X120103Y48939D01*
X120228Y49035D01*
X120324Y49160D01*
X120385Y49306D01*
X120405Y49463D01*
X120385Y49620D01*
X120324Y49766D01*
X120228Y49891D01*
X120103Y49987D01*
X119957Y50048D01*
X119800Y50068D01*
D02*
G37*
G36*
X127821Y49755D02*
X127665Y49735D01*
X127519Y49674D01*
X127393Y49578D01*
X127297Y49453D01*
X127237Y49307D01*
X127216Y49150D01*
X127237Y48993D01*
X127297Y48847D01*
X127393Y48722D01*
X127519Y48626D01*
X127665Y48565D01*
X127821Y48545D01*
X127978Y48565D01*
X128124Y48626D01*
X128249Y48722D01*
X128345Y48847D01*
X128406Y48993D01*
X128426Y49150D01*
X128406Y49307D01*
X128345Y49453D01*
X128249Y49578D01*
X128124Y49674D01*
X127978Y49735D01*
X127821Y49755D01*
D02*
G37*
G36*
X126097Y51430D02*
X125940Y51410D01*
X125794Y51349D01*
X125669Y51253D01*
X125573Y51128D01*
X125512Y50982D01*
X125492Y50825D01*
X125512Y50668D01*
X125573Y50522D01*
X125591Y50498D01*
X125547Y50392D01*
X125493Y50385D01*
X125347Y50324D01*
X125222Y50228D01*
X125126Y50103D01*
X125065Y49957D01*
X125045Y49800D01*
X125065Y49643D01*
X125126Y49497D01*
X125222Y49372D01*
X125347Y49276D01*
X125493Y49215D01*
X125650Y49195D01*
X125714Y49203D01*
X125803Y49114D01*
X125795Y49050D01*
X125815Y48893D01*
X125876Y48747D01*
X125972Y48622D01*
X126097Y48526D01*
X126243Y48465D01*
X126400Y48445D01*
X126557Y48465D01*
X126703Y48526D01*
X126828Y48622D01*
X126924Y48747D01*
X126985Y48893D01*
X127005Y49050D01*
X126985Y49207D01*
X126924Y49353D01*
X126828Y49478D01*
X126703Y49574D01*
X126557Y49635D01*
X126400Y49655D01*
X126336Y49647D01*
X126247Y49736D01*
X126255Y49800D01*
X126235Y49957D01*
X126174Y50103D01*
X126156Y50127D01*
X126200Y50233D01*
X126254Y50240D01*
X126400Y50301D01*
X126525Y50397D01*
X126621Y50522D01*
X126682Y50668D01*
X126702Y50825D01*
X126682Y50982D01*
X126621Y51128D01*
X126525Y51253D01*
X126400Y51349D01*
X126254Y51410D01*
X126097Y51430D01*
D02*
G37*
G36*
X137171Y49157D02*
X137014Y49137D01*
X136868Y49076D01*
X136743Y48980D01*
X136647Y48855D01*
X136586Y48709D01*
X136565Y48552D01*
X136586Y48396D01*
X136647Y48250D01*
X136743Y48124D01*
X136868Y48028D01*
X137014Y47968D01*
X137171Y47947D01*
X137327Y47968D01*
X137473Y48028D01*
X137599Y48124D01*
X137695Y48250D01*
X137755Y48396D01*
X137776Y48552D01*
X137755Y48709D01*
X137695Y48855D01*
X137599Y48980D01*
X137473Y49076D01*
X137327Y49137D01*
X137171Y49157D01*
D02*
G37*
G36*
X123800Y50030D02*
X123643Y50010D01*
X123497Y49949D01*
X123372Y49853D01*
X123276Y49728D01*
X123215Y49582D01*
X123195Y49425D01*
X123215Y49268D01*
X123276Y49122D01*
X123372Y48997D01*
X123470Y48922D01*
X123376Y48799D01*
X123315Y48653D01*
X123295Y48497D01*
X123315Y48340D01*
X123376Y48194D01*
X123472Y48069D01*
X123597Y47973D01*
X123743Y47912D01*
X123900Y47892D01*
X124057Y47912D01*
X124203Y47973D01*
X124328Y48069D01*
X124424Y48194D01*
X124485Y48340D01*
X124505Y48497D01*
X124485Y48653D01*
X124424Y48799D01*
X124328Y48925D01*
X124230Y49000D01*
X124324Y49122D01*
X124385Y49268D01*
X124405Y49425D01*
X124385Y49582D01*
X124324Y49728D01*
X124228Y49853D01*
X124103Y49949D01*
X123957Y50010D01*
X123800Y50030D01*
D02*
G37*
G36*
X115197Y49080D02*
X115040Y49060D01*
X114894Y48999D01*
X114769Y48903D01*
X114673Y48778D01*
X114612Y48632D01*
X114592Y48475D01*
X114612Y48318D01*
X114673Y48172D01*
X114769Y48047D01*
X114894Y47951D01*
X115040Y47890D01*
X115197Y47870D01*
X115353Y47890D01*
X115499Y47951D01*
X115625Y48047D01*
X115721Y48172D01*
X115781Y48318D01*
X115802Y48475D01*
X115781Y48632D01*
X115721Y48778D01*
X115625Y48903D01*
X115499Y48999D01*
X115353Y49060D01*
X115197Y49080D01*
D02*
G37*
G36*
X130050Y48880D02*
X129893Y48860D01*
X129747Y48799D01*
X129622Y48703D01*
X129526Y48578D01*
X129465Y48432D01*
X129445Y48275D01*
X129465Y48118D01*
X129526Y47972D01*
X129622Y47847D01*
X129747Y47751D01*
X129893Y47690D01*
X130050Y47670D01*
X130207Y47690D01*
X130353Y47751D01*
X130478Y47847D01*
X130574Y47972D01*
X130635Y48118D01*
X130655Y48275D01*
X130635Y48432D01*
X130574Y48578D01*
X130478Y48703D01*
X130353Y48799D01*
X130207Y48860D01*
X130050Y48880D01*
D02*
G37*
G36*
X132400Y48785D02*
X132243Y48765D01*
X132097Y48704D01*
X131972Y48608D01*
X131876Y48483D01*
X131815Y48337D01*
X131795Y48180D01*
X131815Y48023D01*
X131876Y47877D01*
X131972Y47752D01*
X132097Y47656D01*
X132243Y47595D01*
X132400Y47575D01*
X132557Y47595D01*
X132703Y47656D01*
X132828Y47752D01*
X132924Y47877D01*
X132985Y48023D01*
X133005Y48180D01*
X132985Y48337D01*
X132924Y48483D01*
X132828Y48608D01*
X132703Y48704D01*
X132557Y48765D01*
X132400Y48785D01*
D02*
G37*
G36*
X141622Y48505D02*
X141465Y48485D01*
X141319Y48424D01*
X141194Y48328D01*
X141097Y48203D01*
X141037Y48057D01*
X141016Y47900D01*
X141037Y47743D01*
X141097Y47597D01*
X141194Y47472D01*
X141319Y47376D01*
X141465Y47315D01*
X141622Y47295D01*
X141778Y47315D01*
X141924Y47376D01*
X142049Y47472D01*
X142146Y47597D01*
X142206Y47743D01*
X142227Y47900D01*
X142206Y48057D01*
X142146Y48203D01*
X142049Y48328D01*
X141924Y48424D01*
X141778Y48485D01*
X141622Y48505D01*
D02*
G37*
G36*
X116475Y48380D02*
X116318Y48360D01*
X116172Y48299D01*
X116047Y48203D01*
X115951Y48078D01*
X115890Y47932D01*
X115870Y47775D01*
X115890Y47618D01*
X115951Y47472D01*
X116047Y47347D01*
X116172Y47251D01*
X116318Y47190D01*
X116475Y47170D01*
X116632Y47190D01*
X116778Y47251D01*
X116903Y47347D01*
X116999Y47472D01*
X117060Y47618D01*
X117080Y47775D01*
X117060Y47932D01*
X116999Y48078D01*
X116903Y48203D01*
X116778Y48299D01*
X116632Y48360D01*
X116475Y48380D01*
D02*
G37*
G36*
X124705Y47785D02*
X124548Y47765D01*
X124402Y47704D01*
X124277Y47608D01*
X124181Y47483D01*
X124120Y47337D01*
X124100Y47180D01*
X124120Y47023D01*
X124181Y46877D01*
X124277Y46752D01*
X124402Y46656D01*
X124548Y46595D01*
X124705Y46575D01*
X124862Y46595D01*
X125008Y46656D01*
X125133Y46752D01*
X125229Y46877D01*
X125290Y47023D01*
X125310Y47180D01*
X125290Y47337D01*
X125229Y47483D01*
X125133Y47608D01*
X125008Y47704D01*
X124862Y47765D01*
X124705Y47785D01*
D02*
G37*
G36*
X124646Y46255D02*
X124490Y46235D01*
X124344Y46174D01*
X124218Y46078D01*
X124122Y45953D01*
X124062Y45807D01*
X124041Y45650D01*
X124062Y45493D01*
X124122Y45347D01*
X124218Y45222D01*
X124344Y45126D01*
X124490Y45065D01*
X124646Y45045D01*
X124803Y45065D01*
X124949Y45126D01*
X125074Y45222D01*
X125170Y45347D01*
X125231Y45493D01*
X125251Y45650D01*
X125231Y45807D01*
X125170Y45953D01*
X125074Y46078D01*
X124949Y46174D01*
X124803Y46235D01*
X124646Y46255D01*
D02*
G37*
G36*
X120100D02*
X119943Y46235D01*
X119797Y46174D01*
X119672Y46078D01*
X119576Y45953D01*
X119515Y45807D01*
X119495Y45650D01*
X119515Y45493D01*
X119576Y45347D01*
X119672Y45222D01*
X119797Y45126D01*
X119943Y45065D01*
X120100Y45045D01*
X120257Y45065D01*
X120403Y45126D01*
X120528Y45222D01*
X120624Y45347D01*
X120685Y45493D01*
X120705Y45650D01*
X120685Y45807D01*
X120624Y45953D01*
X120528Y46078D01*
X120403Y46174D01*
X120257Y46235D01*
X120100Y46255D01*
D02*
G37*
G36*
X116775Y45930D02*
X116618Y45910D01*
X116472Y45849D01*
X116347Y45753D01*
X116251Y45628D01*
X116190Y45482D01*
X116170Y45325D01*
X116190Y45168D01*
X116251Y45022D01*
X116347Y44897D01*
X116472Y44801D01*
X116618Y44740D01*
X116775Y44720D01*
X116932Y44740D01*
X117078Y44801D01*
X117203Y44897D01*
X117299Y45022D01*
X117360Y45168D01*
X117380Y45325D01*
X117360Y45482D01*
X117299Y45628D01*
X117203Y45753D01*
X117078Y45849D01*
X116932Y45910D01*
X116775Y45930D01*
D02*
G37*
G36*
X127350Y43130D02*
X127193Y43110D01*
X127047Y43049D01*
X126922Y42953D01*
X126826Y42828D01*
X126765Y42682D01*
X126745Y42525D01*
X126765Y42368D01*
X126826Y42222D01*
X126922Y42097D01*
X127047Y42001D01*
X127193Y41940D01*
X127350Y41920D01*
X127507Y41940D01*
X127653Y42001D01*
X127778Y42097D01*
X127874Y42222D01*
X127935Y42368D01*
X127955Y42525D01*
X127935Y42682D01*
X127874Y42828D01*
X127778Y42953D01*
X127653Y43049D01*
X127507Y43110D01*
X127350Y43130D01*
D02*
G37*
G36*
X125925D02*
X125768Y43110D01*
X125622Y43049D01*
X125497Y42953D01*
X125401Y42828D01*
X125340Y42682D01*
X125320Y42525D01*
X125340Y42368D01*
X125401Y42222D01*
X125497Y42097D01*
X125622Y42001D01*
X125768Y41940D01*
X125925Y41920D01*
X126082Y41940D01*
X126228Y42001D01*
X126353Y42097D01*
X126449Y42222D01*
X126510Y42368D01*
X126530Y42525D01*
X126510Y42682D01*
X126449Y42828D01*
X126353Y42953D01*
X126228Y43049D01*
X126082Y43110D01*
X125925Y43130D01*
D02*
G37*
G36*
X133972Y42480D02*
X133815Y42460D01*
X133669Y42399D01*
X133544Y42303D01*
X133448Y42178D01*
X133387Y42032D01*
X133367Y41875D01*
X133387Y41718D01*
X133448Y41572D01*
X133544Y41447D01*
X133669Y41351D01*
X133815Y41290D01*
X133972Y41270D01*
X134128Y41290D01*
X134274Y41351D01*
X134400Y41447D01*
X134496Y41572D01*
X134556Y41718D01*
X134577Y41875D01*
X134556Y42032D01*
X134496Y42178D01*
X134400Y42303D01*
X134274Y42399D01*
X134128Y42460D01*
X133972Y42480D01*
D02*
G37*
G36*
X132570Y42467D02*
X132413Y42447D01*
X132267Y42386D01*
X132142Y42290D01*
X132046Y42165D01*
X131985Y42019D01*
X131965Y41862D01*
X131985Y41705D01*
X132046Y41559D01*
X132142Y41434D01*
X132267Y41338D01*
X132413Y41277D01*
X132570Y41257D01*
X132727Y41277D01*
X132873Y41338D01*
X132998Y41434D01*
X133094Y41559D01*
X133155Y41705D01*
X133175Y41862D01*
X133155Y42019D01*
X133094Y42165D01*
X132998Y42290D01*
X132873Y42386D01*
X132727Y42447D01*
X132570Y42467D01*
D02*
G37*
G36*
X120125Y40955D02*
X119968Y40935D01*
X119822Y40874D01*
X119697Y40778D01*
X119601Y40653D01*
X119540Y40507D01*
X119520Y40350D01*
X119540Y40193D01*
X119601Y40047D01*
X119697Y39922D01*
X119822Y39826D01*
X119968Y39765D01*
X120125Y39745D01*
X120282Y39765D01*
X120428Y39826D01*
X120553Y39922D01*
X120649Y40047D01*
X120710Y40193D01*
X120730Y40350D01*
X120710Y40507D01*
X120649Y40653D01*
X120553Y40778D01*
X120428Y40874D01*
X120282Y40935D01*
X120125Y40955D01*
D02*
G37*
G36*
X123116Y40405D02*
X122959Y40385D01*
X122813Y40324D01*
X122688Y40228D01*
X122591Y40103D01*
X122531Y39957D01*
X122510Y39800D01*
X122524Y39694D01*
X122437Y39622D01*
X122407Y39635D01*
X122250Y39655D01*
X122093Y39635D01*
X121947Y39574D01*
X121822Y39478D01*
X121726Y39353D01*
X121665Y39207D01*
X121645Y39050D01*
X121665Y38893D01*
X121726Y38747D01*
X121822Y38622D01*
X121947Y38526D01*
X122093Y38465D01*
X122250Y38445D01*
X122407Y38465D01*
X122553Y38526D01*
X122678Y38622D01*
X122774Y38747D01*
X122835Y38893D01*
X122855Y39050D01*
X122841Y39156D01*
X122929Y39228D01*
X122959Y39215D01*
X123116Y39195D01*
X123272Y39215D01*
X123418Y39276D01*
X123543Y39372D01*
X123640Y39497D01*
X123700Y39643D01*
X123721Y39800D01*
X123700Y39957D01*
X123640Y40103D01*
X123543Y40228D01*
X123418Y40324D01*
X123272Y40385D01*
X123116Y40405D01*
D02*
G37*
G36*
X119575Y39365D02*
X119418Y39345D01*
X119272Y39284D01*
X119147Y39188D01*
X119051Y39063D01*
X118990Y38917D01*
X118970Y38760D01*
X118990Y38603D01*
X119051Y38457D01*
X119147Y38332D01*
X119272Y38236D01*
X119418Y38175D01*
X119575Y38155D01*
X119732Y38175D01*
X119878Y38236D01*
X120003Y38332D01*
X120099Y38457D01*
X120160Y38603D01*
X120180Y38760D01*
X120160Y38917D01*
X120099Y39063D01*
X120003Y39188D01*
X119878Y39284D01*
X119732Y39345D01*
X119575Y39365D01*
D02*
G37*
G36*
X81320Y35655D02*
X81163Y35635D01*
X81017Y35574D01*
X80892Y35478D01*
X80863Y35439D01*
X80762D01*
X80733Y35478D01*
X80608Y35574D01*
X80462Y35635D01*
X80305Y35655D01*
X80148Y35635D01*
X80002Y35574D01*
X79877Y35478D01*
X79781Y35353D01*
X79773Y35333D01*
X79655Y35311D01*
X79573Y35374D01*
X79427Y35435D01*
X79270Y35455D01*
X79113Y35435D01*
X78967Y35374D01*
X78842Y35278D01*
X78746Y35153D01*
X78685Y35007D01*
X78665Y34850D01*
X78685Y34693D01*
X78746Y34547D01*
X78842Y34422D01*
X78967Y34326D01*
X79113Y34265D01*
X79270Y34245D01*
X79427Y34265D01*
X79573Y34326D01*
X79698Y34422D01*
X79794Y34547D01*
X79802Y34567D01*
X79920Y34589D01*
X80002Y34526D01*
X80148Y34465D01*
X80305Y34445D01*
X80462Y34465D01*
X80608Y34526D01*
X80733Y34622D01*
X80762Y34661D01*
X80863D01*
X80892Y34622D01*
X81017Y34526D01*
X81163Y34465D01*
X81320Y34445D01*
X81477Y34465D01*
X81623Y34526D01*
X81721Y34601D01*
X81835Y34588D01*
X81852Y34547D01*
X81948Y34422D01*
X82073Y34326D01*
X82219Y34265D01*
X82376Y34245D01*
X82532Y34265D01*
X82678Y34326D01*
X82804Y34422D01*
X82841Y34471D01*
X82967D01*
X83004Y34422D01*
X83129Y34326D01*
X83275Y34265D01*
X83432Y34245D01*
X83589Y34265D01*
X83735Y34326D01*
X83860Y34422D01*
X83956Y34547D01*
X84017Y34693D01*
X84037Y34850D01*
X84017Y35007D01*
X83956Y35153D01*
X83860Y35278D01*
X83735Y35374D01*
X83589Y35435D01*
X83432Y35455D01*
X83275Y35435D01*
X83129Y35374D01*
X83004Y35278D01*
X82967Y35229D01*
X82841D01*
X82804Y35278D01*
X82678Y35374D01*
X82532Y35435D01*
X82376Y35455D01*
X82219Y35435D01*
X82073Y35374D01*
X81975Y35299D01*
X81861Y35312D01*
X81844Y35353D01*
X81748Y35478D01*
X81623Y35574D01*
X81477Y35635D01*
X81320Y35655D01*
D02*
G37*
G36*
X123311Y34099D02*
X123154Y34079D01*
X123008Y34018D01*
X122883Y33922D01*
X122786Y33797D01*
X122726Y33651D01*
X122705Y33494D01*
X122726Y33337D01*
X122786Y33191D01*
X122883Y33066D01*
X123008Y32970D01*
X123154Y32909D01*
X123311Y32889D01*
X123467Y32909D01*
X123613Y32970D01*
X123738Y33066D01*
X123835Y33191D01*
X123895Y33337D01*
X123916Y33494D01*
X123895Y33651D01*
X123835Y33797D01*
X123738Y33922D01*
X123613Y34018D01*
X123467Y34079D01*
X123311Y34099D01*
D02*
G37*
G36*
X124850Y34080D02*
X124693Y34060D01*
X124547Y33999D01*
X124422Y33903D01*
X124326Y33778D01*
X124265Y33632D01*
X124245Y33475D01*
X124265Y33318D01*
X124326Y33172D01*
X124422Y33047D01*
X124547Y32951D01*
X124693Y32890D01*
X124850Y32870D01*
X125007Y32890D01*
X125153Y32951D01*
X125278Y33047D01*
X125374Y33172D01*
X125435Y33318D01*
X125455Y33475D01*
X125435Y33632D01*
X125374Y33778D01*
X125278Y33903D01*
X125153Y33999D01*
X125007Y34060D01*
X124850Y34080D01*
D02*
G37*
G36*
X124500Y31080D02*
X124343Y31060D01*
X124197Y30999D01*
X124072Y30903D01*
X123976Y30778D01*
X123915Y30632D01*
X123895Y30475D01*
X123915Y30318D01*
X123976Y30172D01*
X124072Y30047D01*
X124197Y29951D01*
X124343Y29890D01*
X124500Y29870D01*
X124657Y29890D01*
X124803Y29951D01*
X124928Y30047D01*
X125024Y30172D01*
X125085Y30318D01*
X125105Y30475D01*
X125085Y30632D01*
X125024Y30778D01*
X124928Y30903D01*
X124803Y30999D01*
X124657Y31060D01*
X124500Y31080D01*
D02*
G37*
G36*
X78369Y34130D02*
X78213Y34110D01*
X78067Y34049D01*
X77941Y33953D01*
X77845Y33828D01*
X77785Y33682D01*
X77764Y33525D01*
X77785Y33368D01*
X77805Y33319D01*
X77697Y33274D01*
X77572Y33178D01*
X77476Y33053D01*
X77415Y32907D01*
X77395Y32750D01*
X77415Y32593D01*
X77426Y32567D01*
X77322Y32524D01*
X77197Y32428D01*
X77101Y32303D01*
X77040Y32157D01*
X77020Y32000D01*
X77040Y31843D01*
X77060Y31796D01*
X76947Y31749D01*
X76822Y31653D01*
X76726Y31528D01*
X76665Y31382D01*
X76645Y31225D01*
X76665Y31068D01*
X76726Y30922D01*
X76820Y30800D01*
X76726Y30678D01*
X76665Y30532D01*
X76645Y30375D01*
X76665Y30218D01*
X76726Y30072D01*
X76820Y29950D01*
X76726Y29828D01*
X76665Y29682D01*
X76645Y29525D01*
X76665Y29368D01*
X76726Y29222D01*
X76822Y29097D01*
X76947Y29001D01*
X77093Y28940D01*
X77180Y28929D01*
X77170Y28850D01*
X77190Y28693D01*
X77251Y28547D01*
X77347Y28422D01*
X77472Y28326D01*
X77618Y28265D01*
X77775Y28245D01*
X77932Y28265D01*
X78078Y28326D01*
X78203Y28422D01*
X78244Y28476D01*
X81813D01*
Y31565D01*
X78237D01*
X78233Y29381D01*
X78133Y29332D01*
X78078Y29374D01*
X77932Y29435D01*
X77845Y29446D01*
X77855Y29525D01*
X77835Y29682D01*
X77774Y29828D01*
X77680Y29950D01*
X77774Y30072D01*
X77835Y30218D01*
X77855Y30375D01*
X77835Y30532D01*
X77774Y30678D01*
X77680Y30800D01*
X77774Y30922D01*
X77835Y31068D01*
X77855Y31225D01*
X77835Y31382D01*
X77815Y31429D01*
X77928Y31476D01*
X78053Y31572D01*
X78149Y31697D01*
X78210Y31843D01*
X78230Y32000D01*
X78210Y32157D01*
X78199Y32183D01*
X78303Y32226D01*
X78428Y32322D01*
X78524Y32447D01*
X78585Y32593D01*
X78605Y32750D01*
X78585Y32907D01*
X78564Y32956D01*
X78672Y33001D01*
X78797Y33097D01*
X78893Y33222D01*
X78954Y33368D01*
X78974Y33525D01*
X78954Y33682D01*
X78893Y33828D01*
X78797Y33953D01*
X78672Y34049D01*
X78526Y34110D01*
X78369Y34130D01*
D02*
G37*
G36*
X125042Y28999D02*
X124885Y28979D01*
X124739Y28918D01*
X124614Y28822D01*
X124518Y28697D01*
X124457Y28551D01*
X124437Y28394D01*
X124457Y28237D01*
X124518Y28091D01*
X124614Y27966D01*
X124739Y27870D01*
X124885Y27809D01*
X124904Y27807D01*
Y27706D01*
X124885Y27704D01*
X124739Y27643D01*
X124614Y27547D01*
X124518Y27422D01*
X124457Y27276D01*
X124437Y27119D01*
X124457Y26962D01*
X124518Y26816D01*
X124614Y26691D01*
X124739Y26595D01*
X124885Y26534D01*
X125042Y26514D01*
X125198Y26534D01*
X125344Y26595D01*
X125470Y26691D01*
X125566Y26816D01*
X125626Y26962D01*
X125647Y27119D01*
X125626Y27276D01*
X125566Y27422D01*
X125470Y27547D01*
X125344Y27643D01*
X125198Y27704D01*
X125179Y27706D01*
Y27807D01*
X125198Y27809D01*
X125344Y27870D01*
X125470Y27966D01*
X125566Y28091D01*
X125626Y28237D01*
X125647Y28394D01*
X125626Y28551D01*
X125566Y28697D01*
X125470Y28822D01*
X125344Y28918D01*
X125198Y28979D01*
X125042Y28999D01*
D02*
G37*
G36*
X83625Y25780D02*
X83468Y25760D01*
X83322Y25699D01*
X83197Y25603D01*
X83101Y25478D01*
X83040Y25332D01*
X83020Y25175D01*
X83040Y25018D01*
X83101Y24872D01*
X83139Y24823D01*
X83113Y24726D01*
X83047Y24699D01*
X82922Y24603D01*
X82826Y24478D01*
X82765Y24332D01*
X82745Y24175D01*
X82765Y24018D01*
X82826Y23872D01*
X82922Y23747D01*
X83047Y23651D01*
X83193Y23590D01*
X83350Y23570D01*
X83507Y23590D01*
X83653Y23651D01*
X83778Y23747D01*
X83874Y23872D01*
X83935Y24018D01*
X83955Y24175D01*
X83935Y24332D01*
X83874Y24478D01*
X83836Y24527D01*
X83862Y24624D01*
X83928Y24651D01*
X84053Y24747D01*
X84149Y24872D01*
X84210Y25018D01*
X84230Y25175D01*
X84210Y25332D01*
X84149Y25478D01*
X84053Y25603D01*
X83928Y25699D01*
X83782Y25760D01*
X83625Y25780D01*
D02*
G37*
G36*
X123507Y22792D02*
X123350Y22771D01*
X123204Y22711D01*
X123079Y22615D01*
X122983Y22489D01*
X122922Y22343D01*
X122902Y22187D01*
X122922Y22030D01*
X122983Y21884D01*
X123079Y21759D01*
X123204Y21662D01*
X123350Y21602D01*
X123507Y21581D01*
X123663Y21602D01*
X123809Y21662D01*
X123935Y21759D01*
X124031Y21884D01*
X124091Y22030D01*
X124112Y22187D01*
X124091Y22343D01*
X124031Y22489D01*
X123935Y22615D01*
X123809Y22711D01*
X123663Y22771D01*
X123507Y22792D01*
D02*
G37*
G36*
X124986Y22712D02*
X124829Y22691D01*
X124683Y22631D01*
X124558Y22535D01*
X124461Y22409D01*
X124401Y22263D01*
X124380Y22107D01*
X124401Y21950D01*
X124461Y21804D01*
X124558Y21679D01*
X124683Y21583D01*
X124829Y21522D01*
X124986Y21502D01*
X125142Y21522D01*
X125288Y21583D01*
X125413Y21679D01*
X125510Y21804D01*
X125570Y21950D01*
X125591Y22107D01*
X125570Y22263D01*
X125510Y22409D01*
X125413Y22535D01*
X125288Y22631D01*
X125142Y22691D01*
X124986Y22712D01*
D02*
G37*
G36*
X122250Y20780D02*
X122093Y20760D01*
X121947Y20699D01*
X121822Y20603D01*
X121746Y20504D01*
X121716Y20496D01*
X121659D01*
X121629Y20504D01*
X121553Y20603D01*
X121428Y20699D01*
X121282Y20760D01*
X121125Y20780D01*
X120968Y20760D01*
X120822Y20699D01*
X120697Y20603D01*
X120601Y20478D01*
X120540Y20332D01*
X120520Y20175D01*
X120540Y20018D01*
X120601Y19872D01*
X120697Y19747D01*
X120822Y19651D01*
X120968Y19590D01*
X121125Y19570D01*
X121282Y19590D01*
X121428Y19651D01*
X121553Y19747D01*
X121629Y19846D01*
X121659Y19854D01*
X121716D01*
X121746Y19846D01*
X121822Y19747D01*
X121947Y19651D01*
X122093Y19590D01*
X122250Y19570D01*
X122407Y19590D01*
X122553Y19651D01*
X122678Y19747D01*
X122774Y19872D01*
X122835Y20018D01*
X122855Y20175D01*
X122835Y20332D01*
X122774Y20478D01*
X122678Y20603D01*
X122553Y20699D01*
X122407Y20760D01*
X122250Y20780D01*
D02*
G37*
G36*
X124246Y19730D02*
X124090Y19710D01*
X123944Y19649D01*
X123818Y19553D01*
X123722Y19428D01*
X123662Y19282D01*
X123641Y19125D01*
X123662Y18968D01*
X123722Y18822D01*
X123818Y18697D01*
X123944Y18601D01*
X124090Y18540D01*
X124246Y18520D01*
X124403Y18540D01*
X124549Y18601D01*
X124674Y18697D01*
X124770Y18822D01*
X124831Y18968D01*
X124852Y19125D01*
X124831Y19282D01*
X124770Y19428D01*
X124674Y19553D01*
X124549Y19649D01*
X124403Y19710D01*
X124246Y19730D01*
D02*
G37*
G36*
X118081Y18455D02*
X117924Y18435D01*
X117778Y18374D01*
X117653Y18278D01*
X117631Y18249D01*
X117562D01*
X117515Y18263D01*
X117403Y18349D01*
X117257Y18410D01*
X117100Y18430D01*
X116943Y18410D01*
X116797Y18349D01*
X116672Y18253D01*
X116576Y18128D01*
X116515Y17982D01*
X116495Y17825D01*
X116515Y17668D01*
X116576Y17522D01*
X116607Y17482D01*
X116597Y17465D01*
X116538Y17407D01*
X116412Y17460D01*
X116256Y17480D01*
X116099Y17460D01*
X115953Y17399D01*
X115828Y17303D01*
X115731Y17178D01*
X115671Y17032D01*
X115650Y16875D01*
X115671Y16718D01*
X115731Y16572D01*
X115828Y16447D01*
X115953Y16351D01*
X116099Y16290D01*
X116256Y16270D01*
X116412Y16290D01*
X116473Y16316D01*
X116550Y16239D01*
X116515Y16157D01*
X116495Y16000D01*
X116515Y15843D01*
X116576Y15697D01*
X116672Y15572D01*
X116797Y15476D01*
X116943Y15415D01*
X117100Y15395D01*
X117257Y15415D01*
X117403Y15476D01*
X117470Y15528D01*
X117539Y15563D01*
X117605Y15510D01*
X117653Y15447D01*
X117778Y15351D01*
X117924Y15290D01*
X118081Y15270D01*
X118237Y15290D01*
X118383Y15351D01*
X118508Y15447D01*
X118605Y15572D01*
X118665Y15718D01*
X118686Y15875D01*
X118665Y16032D01*
X118605Y16178D01*
X118508Y16303D01*
X118383Y16399D01*
X118237Y16460D01*
X118081Y16480D01*
X117924Y16460D01*
X117778Y16399D01*
X117710Y16347D01*
X117642Y16312D01*
X117576Y16365D01*
X117528Y16428D01*
X117403Y16524D01*
X117257Y16585D01*
X117100Y16605D01*
X116943Y16585D01*
X116882Y16559D01*
X116806Y16636D01*
X116840Y16718D01*
X116861Y16875D01*
X116840Y17032D01*
X116780Y17178D01*
X116748Y17218D01*
X116758Y17235D01*
X116817Y17293D01*
X116943Y17240D01*
X117100Y17220D01*
X117257Y17240D01*
X117403Y17301D01*
X117528Y17397D01*
X117550Y17426D01*
X117650D01*
X117653Y17422D01*
X117778Y17326D01*
X117924Y17265D01*
X118081Y17245D01*
X118237Y17265D01*
X118383Y17326D01*
X118508Y17422D01*
X118605Y17547D01*
X118665Y17693D01*
X118686Y17850D01*
X118665Y18007D01*
X118605Y18153D01*
X118508Y18278D01*
X118383Y18374D01*
X118237Y18435D01*
X118081Y18455D01*
D02*
G37*
G36*
X121200Y18130D02*
X121043Y18110D01*
X120897Y18049D01*
X120772Y17953D01*
X120676Y17828D01*
X120615Y17682D01*
X120595Y17525D01*
X120615Y17368D01*
X120676Y17222D01*
X120772Y17097D01*
X120897Y17001D01*
X121043Y16940D01*
X121200Y16920D01*
X121357Y16940D01*
X121503Y17001D01*
X121628Y17097D01*
X121724Y17222D01*
X121785Y17368D01*
X121805Y17525D01*
X121785Y17682D01*
X121724Y17828D01*
X121628Y17953D01*
X121503Y18049D01*
X121357Y18110D01*
X121200Y18130D01*
D02*
G37*
G36*
X118981Y17480D02*
X118824Y17460D01*
X118678Y17399D01*
X118553Y17303D01*
X118456Y17178D01*
X118396Y17032D01*
X118375Y16875D01*
X118396Y16718D01*
X118456Y16572D01*
X118553Y16447D01*
X118678Y16351D01*
X118824Y16290D01*
X118981Y16270D01*
X119137Y16290D01*
X119283Y16351D01*
X119408Y16447D01*
X119505Y16572D01*
X119565Y16718D01*
X119586Y16875D01*
X119565Y17032D01*
X119505Y17178D01*
X119408Y17303D01*
X119283Y17399D01*
X119137Y17460D01*
X118981Y17480D01*
D02*
G37*
G36*
X125011Y17649D02*
X124854Y17629D01*
X124708Y17568D01*
X124583Y17472D01*
X124486Y17347D01*
X124426Y17201D01*
X124405Y17044D01*
X124426Y16887D01*
X124486Y16741D01*
X124583Y16616D01*
X124708Y16520D01*
X124824Y16472D01*
X124826Y16466D01*
X124820Y16367D01*
X124702Y16318D01*
X124577Y16222D01*
X124480Y16097D01*
X124420Y15951D01*
X124399Y15794D01*
X124420Y15637D01*
X124480Y15491D01*
X124577Y15366D01*
X124702Y15270D01*
X124848Y15209D01*
X125005Y15189D01*
X125161Y15209D01*
X125307Y15270D01*
X125432Y15366D01*
X125529Y15491D01*
X125589Y15637D01*
X125610Y15794D01*
X125589Y15951D01*
X125529Y16097D01*
X125432Y16222D01*
X125307Y16318D01*
X125191Y16366D01*
X125189Y16372D01*
X125195Y16471D01*
X125313Y16520D01*
X125438Y16616D01*
X125535Y16741D01*
X125595Y16887D01*
X125616Y17044D01*
X125595Y17201D01*
X125535Y17347D01*
X125438Y17472D01*
X125313Y17568D01*
X125167Y17629D01*
X125011Y17649D01*
D02*
G37*
G36*
X42950Y13305D02*
X42793Y13285D01*
X42647Y13224D01*
X42522Y13128D01*
X42426Y13003D01*
X42365Y12857D01*
X42345Y12700D01*
X42365Y12543D01*
X42426Y12397D01*
X42522Y12272D01*
X42647Y12176D01*
X42793Y12115D01*
X42950Y12095D01*
X43107Y12115D01*
X43253Y12176D01*
X43378Y12272D01*
X43474Y12397D01*
X43535Y12543D01*
X43555Y12700D01*
X43535Y12857D01*
X43474Y13003D01*
X43378Y13128D01*
X43253Y13224D01*
X43107Y13285D01*
X42950Y13305D01*
D02*
G37*
G36*
X52180Y39775D02*
X51945Y39744D01*
X51726Y39654D01*
X51538Y39509D01*
X51394Y39321D01*
X51303Y39102D01*
X51272Y38867D01*
X51303Y38632D01*
X51394Y38414D01*
X51538Y38226D01*
X51726Y38081D01*
X51945Y37991D01*
X52180Y37960D01*
X52415Y37991D01*
X52634Y38081D01*
X52822Y38226D01*
X52966Y38414D01*
X53057Y38632D01*
X53088Y38867D01*
X53057Y39102D01*
X52966Y39321D01*
X52822Y39509D01*
X52634Y39654D01*
X52415Y39744D01*
X52180Y39775D01*
D02*
G37*
G36*
X81650Y54080D02*
X81493Y54060D01*
X81347Y53999D01*
X81222Y53903D01*
X81126Y53778D01*
X81065Y53632D01*
X81045Y53475D01*
X81065Y53318D01*
X81126Y53172D01*
X81222Y53047D01*
X81347Y52951D01*
X81493Y52890D01*
X81650Y52870D01*
X81807Y52890D01*
X81953Y52951D01*
X82078Y53047D01*
X82174Y53172D01*
X82235Y53318D01*
X82255Y53475D01*
X82235Y53632D01*
X82174Y53778D01*
X82078Y53903D01*
X81953Y53999D01*
X81807Y54060D01*
X81650Y54080D01*
D02*
G37*
G36*
Y52580D02*
X81493Y52560D01*
X81347Y52499D01*
X81222Y52403D01*
X81126Y52278D01*
X81065Y52132D01*
X81045Y51975D01*
X81065Y51818D01*
X81126Y51672D01*
X81222Y51547D01*
X81347Y51451D01*
X81493Y51390D01*
X81650Y51370D01*
X81763Y51385D01*
X81855Y51311D01*
X81850Y51275D01*
X81870Y51118D01*
X81931Y50972D01*
X82027Y50847D01*
X82152Y50751D01*
X82298Y50690D01*
X82455Y50670D01*
X82612Y50690D01*
X82758Y50751D01*
X82883Y50847D01*
X82905Y50876D01*
X83005D01*
X83027Y50847D01*
X83152Y50751D01*
X83298Y50690D01*
X83455Y50670D01*
X83612Y50690D01*
X83758Y50751D01*
X83883Y50847D01*
X83979Y50972D01*
X84040Y51118D01*
X84060Y51275D01*
X84040Y51432D01*
X83979Y51578D01*
X83883Y51703D01*
X83758Y51799D01*
X83612Y51860D01*
X83455Y51880D01*
X83298Y51860D01*
X83152Y51799D01*
X83027Y51703D01*
X83005Y51674D01*
X82905D01*
X82883Y51703D01*
X82758Y51799D01*
X82612Y51860D01*
X82455Y51880D01*
X82342Y51865D01*
X82250Y51939D01*
X82255Y51975D01*
X82235Y52132D01*
X82174Y52278D01*
X82078Y52403D01*
X81953Y52499D01*
X81807Y52560D01*
X81650Y52580D01*
D02*
G37*
G36*
X94700Y48230D02*
X94543Y48210D01*
X94397Y48149D01*
X94272Y48053D01*
X94176Y47928D01*
X94115Y47782D01*
X94095Y47625D01*
X94115Y47468D01*
X94176Y47322D01*
X94272Y47197D01*
X94397Y47101D01*
X94543Y47040D01*
X94700Y47020D01*
X94857Y47040D01*
X95003Y47101D01*
X95128Y47197D01*
X95224Y47322D01*
X95285Y47468D01*
X95305Y47625D01*
X95285Y47782D01*
X95224Y47928D01*
X95128Y48053D01*
X95003Y48149D01*
X94857Y48210D01*
X94700Y48230D01*
D02*
G37*
G36*
X99278Y42598D02*
X99122Y42578D01*
X98976Y42517D01*
X98850Y42421D01*
X98754Y42296D01*
X98694Y42150D01*
X98673Y41993D01*
X98694Y41836D01*
X98754Y41690D01*
X98850Y41565D01*
X98976Y41469D01*
X99122Y41408D01*
X99278Y41388D01*
X99435Y41408D01*
X99581Y41469D01*
X99706Y41565D01*
X99802Y41690D01*
X99863Y41836D01*
X99883Y41993D01*
X99863Y42150D01*
X99802Y42296D01*
X99706Y42421D01*
X99581Y42517D01*
X99435Y42578D01*
X99278Y42598D01*
D02*
G37*
G36*
X96034Y42568D02*
X95877Y42548D01*
X95731Y42487D01*
X95606Y42391D01*
X95510Y42266D01*
X95449Y42120D01*
X95428Y41963D01*
X95449Y41806D01*
X95510Y41660D01*
X95606Y41535D01*
X95731Y41439D01*
X95877Y41378D01*
X96034Y41358D01*
X96190Y41378D01*
X96336Y41439D01*
X96462Y41535D01*
X96558Y41660D01*
X96618Y41806D01*
X96639Y41963D01*
X96618Y42120D01*
X96558Y42266D01*
X96462Y42391D01*
X96336Y42487D01*
X96190Y42548D01*
X96034Y42568D01*
D02*
G37*
G36*
X89554Y42556D02*
X89397Y42536D01*
X89251Y42475D01*
X89126Y42379D01*
X89030Y42254D01*
X88969Y42108D01*
X88949Y41951D01*
X88969Y41794D01*
X89030Y41648D01*
X89126Y41523D01*
X89251Y41427D01*
X89397Y41367D01*
X89554Y41346D01*
X89710Y41367D01*
X89856Y41427D01*
X89982Y41523D01*
X90078Y41648D01*
X90138Y41794D01*
X90159Y41951D01*
X90138Y42108D01*
X90078Y42254D01*
X89982Y42379D01*
X89856Y42475D01*
X89710Y42536D01*
X89554Y42556D01*
D02*
G37*
G36*
X92800Y42556D02*
X92643Y42536D01*
X92497Y42475D01*
X92372Y42379D01*
X92276Y42254D01*
X92215Y42108D01*
X92195Y41951D01*
X92215Y41794D01*
X92276Y41648D01*
X92372Y41523D01*
X92497Y41427D01*
X92643Y41367D01*
X92800Y41346D01*
X92957Y41367D01*
X93103Y41427D01*
X93228Y41523D01*
X93324Y41648D01*
X93385Y41794D01*
X93405Y41951D01*
X93385Y42108D01*
X93324Y42254D01*
X93228Y42379D01*
X93103Y42475D01*
X92957Y42536D01*
X92800Y42556D01*
D02*
G37*
G36*
X105744Y42512D02*
X105587Y42491D01*
X105441Y42431D01*
X105316Y42335D01*
X105220Y42209D01*
X105159Y42064D01*
X105139Y41907D01*
X105159Y41750D01*
X105220Y41604D01*
X105316Y41479D01*
X105441Y41383D01*
X105587Y41322D01*
X105744Y41302D01*
X105901Y41322D01*
X106047Y41383D01*
X106172Y41479D01*
X106268Y41604D01*
X106329Y41750D01*
X106349Y41907D01*
X106329Y42064D01*
X106268Y42209D01*
X106172Y42335D01*
X106047Y42431D01*
X105901Y42491D01*
X105744Y42512D01*
D02*
G37*
G36*
X102494Y42500D02*
X102337Y42479D01*
X102191Y42419D01*
X102066Y42323D01*
X101970Y42198D01*
X101909Y42052D01*
X101889Y41895D01*
X101909Y41738D01*
X101970Y41592D01*
X102066Y41467D01*
X102191Y41371D01*
X102337Y41310D01*
X102494Y41290D01*
X102651Y41310D01*
X102797Y41371D01*
X102922Y41467D01*
X103018Y41592D01*
X103079Y41738D01*
X103099Y41895D01*
X103079Y42052D01*
X103018Y42198D01*
X102922Y42323D01*
X102797Y42419D01*
X102651Y42479D01*
X102494Y42500D01*
D02*
G37*
G36*
X112300Y42461D02*
X112143Y42441D01*
X111997Y42380D01*
X111872Y42284D01*
X111776Y42159D01*
X111715Y42013D01*
X111695Y41856D01*
X111715Y41699D01*
X111776Y41554D01*
X111872Y41428D01*
X111997Y41332D01*
X112143Y41272D01*
X112300Y41251D01*
X112457Y41272D01*
X112603Y41332D01*
X112728Y41428D01*
X112824Y41554D01*
X112885Y41699D01*
X112905Y41856D01*
X112885Y42013D01*
X112824Y42159D01*
X112728Y42284D01*
X112603Y42380D01*
X112457Y42441D01*
X112300Y42461D01*
D02*
G37*
G36*
X109050Y42455D02*
X108893Y42435D01*
X108747Y42374D01*
X108622Y42278D01*
X108526Y42153D01*
X108465Y42007D01*
X108445Y41850D01*
X108465Y41693D01*
X108526Y41547D01*
X108622Y41422D01*
X108747Y41326D01*
X108893Y41265D01*
X109050Y41245D01*
X109207Y41265D01*
X109353Y41326D01*
X109478Y41422D01*
X109574Y41547D01*
X109635Y41693D01*
X109655Y41850D01*
X109635Y42007D01*
X109574Y42153D01*
X109478Y42278D01*
X109353Y42374D01*
X109207Y42435D01*
X109050Y42455D01*
D02*
G37*
G36*
X97649Y40043D02*
X97492Y40023D01*
X97346Y39962D01*
X97221Y39866D01*
X97125Y39741D01*
X97064Y39595D01*
X97044Y39438D01*
X97064Y39281D01*
X97125Y39135D01*
X97221Y39010D01*
X97346Y38914D01*
X97492Y38853D01*
X97649Y38833D01*
X97806Y38853D01*
X97952Y38914D01*
X98077Y39010D01*
X98173Y39135D01*
X98234Y39281D01*
X98254Y39438D01*
X98234Y39595D01*
X98173Y39741D01*
X98077Y39866D01*
X97952Y39962D01*
X97806Y40023D01*
X97649Y40043D01*
D02*
G37*
G36*
X91184Y40006D02*
X91027Y39986D01*
X90881Y39925D01*
X90756Y39829D01*
X90660Y39704D01*
X90599Y39558D01*
X90579Y39401D01*
X90599Y39244D01*
X90660Y39098D01*
X90756Y38973D01*
X90881Y38877D01*
X91027Y38817D01*
X91184Y38796D01*
X91340Y38817D01*
X91486Y38877D01*
X91612Y38973D01*
X91708Y39098D01*
X91768Y39244D01*
X91789Y39401D01*
X91768Y39558D01*
X91708Y39704D01*
X91612Y39829D01*
X91486Y39925D01*
X91340Y39986D01*
X91184Y40006D01*
D02*
G37*
G36*
X104119Y39912D02*
X103962Y39891D01*
X103816Y39831D01*
X103691Y39735D01*
X103595Y39610D01*
X103534Y39464D01*
X103513Y39307D01*
X103534Y39150D01*
X103595Y39004D01*
X103691Y38879D01*
X103816Y38783D01*
X103962Y38722D01*
X104119Y38702D01*
X104275Y38722D01*
X104421Y38783D01*
X104547Y38879D01*
X104643Y39004D01*
X104703Y39150D01*
X104724Y39307D01*
X104703Y39464D01*
X104643Y39610D01*
X104547Y39735D01*
X104421Y39831D01*
X104275Y39891D01*
X104119Y39912D01*
D02*
G37*
G36*
X110680Y39905D02*
X110524Y39885D01*
X110378Y39824D01*
X110252Y39728D01*
X110156Y39603D01*
X110096Y39457D01*
X110075Y39300D01*
X110096Y39143D01*
X110156Y38997D01*
X110252Y38872D01*
X110378Y38776D01*
X110524Y38715D01*
X110680Y38695D01*
X110837Y38715D01*
X110983Y38776D01*
X111108Y38872D01*
X111204Y38997D01*
X111265Y39143D01*
X111286Y39300D01*
X111265Y39457D01*
X111204Y39603D01*
X111108Y39728D01*
X110983Y39824D01*
X110837Y39885D01*
X110680Y39905D01*
D02*
G37*
G36*
X89544Y39418D02*
X89387Y39398D01*
X89241Y39337D01*
X89116Y39241D01*
X89020Y39116D01*
X88959Y38970D01*
X88939Y38813D01*
X88959Y38656D01*
X89020Y38510D01*
X89116Y38385D01*
X89241Y38289D01*
X89387Y38228D01*
X89544Y38208D01*
X89701Y38228D01*
X89847Y38289D01*
X89972Y38385D01*
X90068Y38510D01*
X90129Y38656D01*
X90149Y38813D01*
X90129Y38970D01*
X90068Y39116D01*
X89972Y39241D01*
X89847Y39337D01*
X89701Y39398D01*
X89544Y39418D01*
D02*
G37*
G36*
X99247Y39417D02*
X99090Y39397D01*
X98944Y39336D01*
X98819Y39240D01*
X98723Y39115D01*
X98662Y38969D01*
X98642Y38812D01*
X98662Y38655D01*
X98723Y38509D01*
X98819Y38384D01*
X98944Y38288D01*
X99090Y38227D01*
X99247Y38207D01*
X99403Y38227D01*
X99549Y38288D01*
X99675Y38384D01*
X99771Y38509D01*
X99831Y38655D01*
X99852Y38812D01*
X99831Y38969D01*
X99771Y39115D01*
X99675Y39240D01*
X99549Y39336D01*
X99403Y39397D01*
X99247Y39417D01*
D02*
G37*
G36*
X92760D02*
X92604Y39397D01*
X92458Y39336D01*
X92332Y39240D01*
X92236Y39115D01*
X92176Y38969D01*
X92155Y38812D01*
X92176Y38655D01*
X92236Y38509D01*
X92332Y38384D01*
X92458Y38288D01*
X92604Y38227D01*
X92760Y38207D01*
X92917Y38227D01*
X93063Y38288D01*
X93188Y38384D01*
X93284Y38509D01*
X93345Y38655D01*
X93365Y38812D01*
X93345Y38969D01*
X93284Y39115D01*
X93188Y39240D01*
X93063Y39336D01*
X92917Y39397D01*
X92760Y39417D01*
D02*
G37*
G36*
X96007Y39411D02*
X95850Y39390D01*
X95704Y39330D01*
X95579Y39233D01*
X95482Y39108D01*
X95422Y38962D01*
X95401Y38805D01*
X95422Y38649D01*
X95482Y38503D01*
X95579Y38378D01*
X95704Y38281D01*
X95850Y38221D01*
X96007Y38200D01*
X96163Y38221D01*
X96309Y38281D01*
X96434Y38378D01*
X96531Y38503D01*
X96591Y38649D01*
X96612Y38805D01*
X96591Y38962D01*
X96531Y39108D01*
X96434Y39233D01*
X96309Y39330D01*
X96163Y39390D01*
X96007Y39411D01*
D02*
G37*
G36*
X86308Y39393D02*
X86152Y39373D01*
X86006Y39312D01*
X85880Y39216D01*
X85784Y39091D01*
X85724Y38945D01*
X85703Y38788D01*
X85724Y38631D01*
X85784Y38485D01*
X85880Y38360D01*
X86006Y38264D01*
X86152Y38203D01*
X86308Y38183D01*
X86465Y38203D01*
X86611Y38264D01*
X86736Y38360D01*
X86832Y38485D01*
X86893Y38631D01*
X86913Y38788D01*
X86893Y38945D01*
X86832Y39091D01*
X86736Y39216D01*
X86611Y39312D01*
X86465Y39373D01*
X86308Y39393D01*
D02*
G37*
G36*
X102488Y39342D02*
X102331Y39322D01*
X102185Y39261D01*
X102060Y39165D01*
X101964Y39040D01*
X101903Y38894D01*
X101883Y38737D01*
X101903Y38580D01*
X101964Y38434D01*
X102060Y38309D01*
X102185Y38213D01*
X102331Y38152D01*
X102488Y38132D01*
X102645Y38152D01*
X102791Y38213D01*
X102916Y38309D01*
X103012Y38434D01*
X103073Y38580D01*
X103093Y38737D01*
X103073Y38894D01*
X103012Y39040D01*
X102916Y39165D01*
X102791Y39261D01*
X102645Y39322D01*
X102488Y39342D01*
D02*
G37*
G36*
X105746Y39334D02*
X105590Y39313D01*
X105444Y39253D01*
X105318Y39157D01*
X105222Y39032D01*
X105162Y38886D01*
X105141Y38729D01*
X105162Y38572D01*
X105222Y38426D01*
X105318Y38301D01*
X105444Y38205D01*
X105590Y38144D01*
X105746Y38124D01*
X105903Y38144D01*
X106049Y38205D01*
X106174Y38301D01*
X106270Y38426D01*
X106331Y38572D01*
X106351Y38729D01*
X106331Y38886D01*
X106270Y39032D01*
X106174Y39157D01*
X106049Y39253D01*
X105903Y39313D01*
X105746Y39334D01*
D02*
G37*
G36*
X109014Y39324D02*
X108857Y39303D01*
X108711Y39243D01*
X108586Y39146D01*
X108490Y39021D01*
X108429Y38875D01*
X108409Y38718D01*
X108429Y38562D01*
X108490Y38416D01*
X108586Y38291D01*
X108711Y38194D01*
X108857Y38134D01*
X109014Y38113D01*
X109171Y38134D01*
X109317Y38194D01*
X109442Y38291D01*
X109538Y38416D01*
X109599Y38562D01*
X109619Y38718D01*
X109599Y38875D01*
X109538Y39021D01*
X109442Y39146D01*
X109317Y39243D01*
X109171Y39303D01*
X109014Y39324D01*
D02*
G37*
G36*
X87919Y38443D02*
X87762Y38423D01*
X87616Y38362D01*
X87491Y38266D01*
X87395Y38141D01*
X87334Y37995D01*
X87314Y37838D01*
X87334Y37681D01*
X87395Y37535D01*
X87491Y37410D01*
X87616Y37314D01*
X87762Y37253D01*
X87919Y37233D01*
X88076Y37253D01*
X88222Y37314D01*
X88347Y37410D01*
X88443Y37535D01*
X88504Y37681D01*
X88524Y37838D01*
X88504Y37995D01*
X88443Y38141D01*
X88347Y38266D01*
X88222Y38362D01*
X88076Y38423D01*
X87919Y38443D01*
D02*
G37*
G36*
X94390Y38392D02*
X94234Y38372D01*
X94088Y38311D01*
X93962Y38215D01*
X93866Y38090D01*
X93806Y37944D01*
X93785Y37787D01*
X93806Y37630D01*
X93866Y37484D01*
X93962Y37359D01*
X94088Y37263D01*
X94234Y37202D01*
X94390Y37182D01*
X94547Y37202D01*
X94693Y37263D01*
X94818Y37359D01*
X94914Y37484D01*
X94975Y37630D01*
X94995Y37787D01*
X94975Y37944D01*
X94914Y38090D01*
X94818Y38215D01*
X94693Y38311D01*
X94547Y38372D01*
X94390Y38392D01*
D02*
G37*
G36*
X100852Y38362D02*
X100695Y38341D01*
X100549Y38281D01*
X100424Y38184D01*
X100328Y38059D01*
X100267Y37913D01*
X100247Y37757D01*
X100267Y37600D01*
X100328Y37454D01*
X100424Y37329D01*
X100549Y37232D01*
X100695Y37172D01*
X100852Y37151D01*
X101009Y37172D01*
X101154Y37232D01*
X101280Y37329D01*
X101376Y37454D01*
X101436Y37600D01*
X101457Y37757D01*
X101436Y37913D01*
X101376Y38059D01*
X101280Y38184D01*
X101154Y38281D01*
X101009Y38341D01*
X100852Y38362D01*
D02*
G37*
G36*
X107376Y38305D02*
X107220Y38285D01*
X107074Y38224D01*
X106948Y38128D01*
X106852Y38003D01*
X106792Y37857D01*
X106771Y37700D01*
X106792Y37543D01*
X106852Y37397D01*
X106948Y37272D01*
X107074Y37176D01*
X107220Y37115D01*
X107376Y37095D01*
X107533Y37115D01*
X107679Y37176D01*
X107804Y37272D01*
X107900Y37397D01*
X107961Y37543D01*
X107981Y37700D01*
X107961Y37857D01*
X107900Y38003D01*
X107804Y38128D01*
X107679Y38224D01*
X107533Y38285D01*
X107376Y38305D01*
D02*
G37*
G36*
X104275Y29065D02*
X104118Y29045D01*
X103972Y28984D01*
X103847Y28888D01*
X103751Y28763D01*
X103690Y28617D01*
X103670Y28460D01*
X103690Y28303D01*
X103751Y28158D01*
X103847Y28032D01*
X103972Y27936D01*
X104118Y27876D01*
X104275Y27855D01*
X104432Y27876D01*
X104578Y27936D01*
X104703Y28032D01*
X104799Y28158D01*
X104860Y28303D01*
X104880Y28460D01*
X104860Y28617D01*
X104799Y28763D01*
X104703Y28888D01*
X104578Y28984D01*
X104432Y29045D01*
X104275Y29065D01*
D02*
G37*
G36*
X100516D02*
X100359Y29045D01*
X100213Y28984D01*
X100088Y28888D01*
X99992Y28763D01*
X99931Y28617D01*
X99911Y28460D01*
X99931Y28303D01*
X99992Y28158D01*
X100088Y28032D01*
X100213Y27936D01*
X100359Y27876D01*
X100516Y27855D01*
X100672Y27876D01*
X100818Y27936D01*
X100944Y28032D01*
X101040Y28158D01*
X101100Y28303D01*
X101121Y28460D01*
X101100Y28617D01*
X101040Y28763D01*
X100944Y28888D01*
X100818Y28984D01*
X100672Y29045D01*
X100516Y29065D01*
D02*
G37*
G36*
X102442Y27830D02*
X102285Y27810D01*
X102139Y27749D01*
X102014Y27653D01*
X101918Y27528D01*
X101857Y27382D01*
X101837Y27225D01*
X101857Y27068D01*
X101918Y26922D01*
X101977Y26845D01*
X101906Y26753D01*
X101845Y26607D01*
X101825Y26450D01*
X101845Y26293D01*
X101906Y26147D01*
X102002Y26022D01*
X102127Y25926D01*
X102273Y25865D01*
X102430Y25845D01*
X102587Y25865D01*
X102733Y25926D01*
X102858Y26022D01*
X102954Y26147D01*
X103015Y26293D01*
X103035Y26450D01*
X103015Y26607D01*
X102954Y26753D01*
X102895Y26830D01*
X102966Y26922D01*
X103026Y27068D01*
X103047Y27225D01*
X103026Y27382D01*
X102966Y27528D01*
X102870Y27653D01*
X102744Y27749D01*
X102598Y27810D01*
X102442Y27830D01*
D02*
G37*
G36*
X108730Y27005D02*
X108573Y26985D01*
X108427Y26924D01*
X108302Y26828D01*
X108206Y26703D01*
X108145Y26557D01*
X108125Y26400D01*
X108145Y26243D01*
X108206Y26097D01*
X108302Y25972D01*
X108427Y25876D01*
X108573Y25815D01*
X108730Y25795D01*
X108887Y25815D01*
X109033Y25876D01*
X109158Y25972D01*
X109254Y26097D01*
X109315Y26243D01*
X109335Y26400D01*
X109315Y26557D01*
X109254Y26703D01*
X109158Y26828D01*
X109033Y26924D01*
X108887Y26985D01*
X108730Y27005D01*
D02*
G37*
G36*
X96080Y26955D02*
X95923Y26935D01*
X95777Y26874D01*
X95652Y26778D01*
X95556Y26653D01*
X95495Y26507D01*
X95475Y26350D01*
X95495Y26193D01*
X95556Y26047D01*
X95652Y25922D01*
X95777Y25826D01*
X95923Y25765D01*
X96080Y25745D01*
X96237Y25765D01*
X96383Y25826D01*
X96508Y25922D01*
X96604Y26047D01*
X96665Y26193D01*
X96685Y26350D01*
X96665Y26507D01*
X96604Y26653D01*
X96508Y26778D01*
X96383Y26874D01*
X96237Y26935D01*
X96080Y26955D01*
D02*
G37*
G36*
X89655D02*
X89498Y26935D01*
X89352Y26874D01*
X89227Y26778D01*
X89131Y26653D01*
X89070Y26507D01*
X89050Y26350D01*
X89070Y26193D01*
X89131Y26047D01*
X89227Y25922D01*
X89352Y25826D01*
X89498Y25765D01*
X89655Y25745D01*
X89812Y25765D01*
X89958Y25826D01*
X90083Y25922D01*
X90179Y26047D01*
X90240Y26193D01*
X90260Y26350D01*
X90240Y26507D01*
X90179Y26653D01*
X90083Y26778D01*
X89958Y26874D01*
X89812Y26935D01*
X89655Y26955D01*
D02*
G37*
G36*
X102420Y22380D02*
X102263Y22360D01*
X102117Y22299D01*
X101992Y22203D01*
X101896Y22078D01*
X101835Y21932D01*
X101814Y21775D01*
X101835Y21618D01*
X101896Y21472D01*
X101992Y21347D01*
X102117Y21251D01*
X102263Y21190D01*
X102420Y21170D01*
X102576Y21190D01*
X102722Y21251D01*
X102848Y21347D01*
X102944Y21472D01*
X103004Y21618D01*
X103025Y21775D01*
X103004Y21932D01*
X102944Y22078D01*
X102848Y22203D01*
X102722Y22299D01*
X102576Y22360D01*
X102420Y22380D01*
D02*
G37*
G36*
X108750Y22330D02*
X108593Y22310D01*
X108447Y22249D01*
X108322Y22153D01*
X108226Y22028D01*
X108165Y21882D01*
X108145Y21725D01*
X108165Y21568D01*
X108226Y21422D01*
X108322Y21297D01*
X108447Y21201D01*
X108593Y21140D01*
X108750Y21120D01*
X108907Y21140D01*
X109053Y21201D01*
X109178Y21297D01*
X109274Y21422D01*
X109335Y21568D01*
X109355Y21725D01*
X109335Y21882D01*
X109274Y22028D01*
X109178Y22153D01*
X109053Y22249D01*
X108907Y22310D01*
X108750Y22330D01*
D02*
G37*
G36*
X89700Y22294D02*
X89543Y22274D01*
X89397Y22213D01*
X89272Y22117D01*
X89176Y21992D01*
X89115Y21846D01*
X89094Y21689D01*
X89115Y21532D01*
X89176Y21386D01*
X89272Y21261D01*
X89397Y21165D01*
X89543Y21104D01*
X89700Y21084D01*
X89856Y21104D01*
X90002Y21165D01*
X90128Y21261D01*
X90224Y21386D01*
X90284Y21532D01*
X90305Y21689D01*
X90284Y21846D01*
X90224Y21992D01*
X90128Y22117D01*
X90002Y22213D01*
X89856Y22274D01*
X89700Y22294D01*
D02*
G37*
G36*
X96056Y22255D02*
X95900Y22235D01*
X95754Y22174D01*
X95628Y22078D01*
X95532Y21953D01*
X95472Y21807D01*
X95451Y21650D01*
X95472Y21493D01*
X95532Y21347D01*
X95628Y21222D01*
X95754Y21126D01*
X95900Y21065D01*
X96056Y21045D01*
X96213Y21065D01*
X96359Y21126D01*
X96484Y21222D01*
X96580Y21347D01*
X96641Y21493D01*
X96661Y21650D01*
X96641Y21807D01*
X96580Y21953D01*
X96484Y22078D01*
X96359Y22174D01*
X96213Y22235D01*
X96056Y22255D01*
D02*
G37*
G36*
X140439Y35480D02*
X140283Y35460D01*
X140137Y35399D01*
X140012Y35303D01*
X139915Y35178D01*
X139855Y35032D01*
X139834Y34875D01*
X139855Y34718D01*
X139915Y34572D01*
X140012Y34447D01*
X140137Y34351D01*
X140283Y34290D01*
X140439Y34270D01*
X140596Y34290D01*
X140742Y34351D01*
X140867Y34447D01*
X140964Y34572D01*
X141024Y34718D01*
X141045Y34875D01*
X141024Y35032D01*
X140964Y35178D01*
X140867Y35303D01*
X140742Y35399D01*
X140596Y35460D01*
X140439Y35480D01*
D02*
G37*
G36*
X138078Y34555D02*
X137921Y34535D01*
X137775Y34474D01*
X137650Y34378D01*
X137554Y34253D01*
X137493Y34107D01*
X137472Y33950D01*
X137493Y33793D01*
X137554Y33647D01*
X137650Y33522D01*
X137775Y33426D01*
X137921Y33365D01*
X138078Y33345D01*
X138234Y33365D01*
X138380Y33426D01*
X138506Y33522D01*
X138602Y33647D01*
X138662Y33793D01*
X138683Y33950D01*
X138662Y34107D01*
X138602Y34253D01*
X138506Y34378D01*
X138380Y34474D01*
X138234Y34535D01*
X138078Y34555D01*
D02*
G37*
G36*
X149450Y32883D02*
X149215Y32852D01*
X148996Y32761D01*
X148808Y32617D01*
X148664Y32429D01*
X148573Y32210D01*
X148542Y31975D01*
X148573Y31740D01*
X148664Y31521D01*
X148808Y31333D01*
X148996Y31189D01*
X149215Y31098D01*
X149450Y31067D01*
X149685Y31098D01*
X149904Y31189D01*
X150092Y31333D01*
X150236Y31521D01*
X150327Y31740D01*
X150358Y31975D01*
X150327Y32210D01*
X150236Y32429D01*
X150092Y32617D01*
X149904Y32761D01*
X149685Y32852D01*
X149450Y32883D01*
D02*
G37*
G36*
X146475D02*
X146240Y32852D01*
X146021Y32761D01*
X145833Y32617D01*
X145689Y32429D01*
X145598Y32210D01*
X145567Y31975D01*
X145598Y31740D01*
X145689Y31521D01*
X145833Y31333D01*
X146021Y31189D01*
X146240Y31098D01*
X146475Y31067D01*
X146710Y31098D01*
X146929Y31189D01*
X147117Y31333D01*
X147261Y31521D01*
X147352Y31740D01*
X147383Y31975D01*
X147352Y32210D01*
X147261Y32429D01*
X147117Y32617D01*
X146929Y32761D01*
X146710Y32852D01*
X146475Y32883D01*
D02*
G37*
G36*
X138950Y32090D02*
X138793Y32069D01*
X138647Y32009D01*
X138522Y31912D01*
X138426Y31787D01*
X138365Y31641D01*
X138345Y31485D01*
X138365Y31328D01*
X138426Y31182D01*
X138522Y31057D01*
X138647Y30960D01*
X138793Y30900D01*
X138950Y30879D01*
X139107Y30900D01*
X139253Y30960D01*
X139378Y31057D01*
X139474Y31182D01*
X139535Y31328D01*
X139555Y31485D01*
X139535Y31641D01*
X139474Y31787D01*
X139378Y31912D01*
X139253Y32009D01*
X139107Y32069D01*
X138950Y32090D01*
D02*
G37*
G36*
X138088Y29734D02*
X137932Y29714D01*
X137786Y29653D01*
X137660Y29557D01*
X137564Y29432D01*
X137504Y29286D01*
X137483Y29129D01*
X137496Y29030D01*
X137493Y28929D01*
X137347Y28868D01*
X137222Y28772D01*
X137126Y28647D01*
X137065Y28501D01*
X137045Y28344D01*
X137065Y28187D01*
X137126Y28041D01*
X137222Y27916D01*
X137347Y27820D01*
X137427Y27787D01*
Y27679D01*
X137341Y27643D01*
X137216Y27547D01*
X137119Y27422D01*
X137059Y27276D01*
X137038Y27119D01*
X137059Y26962D01*
X137119Y26816D01*
X137216Y26691D01*
X137341Y26595D01*
X137487Y26534D01*
X137643Y26514D01*
X137800Y26534D01*
X137946Y26595D01*
X138071Y26691D01*
X138168Y26816D01*
X138228Y26962D01*
X138249Y27119D01*
X138228Y27276D01*
X138168Y27422D01*
X138071Y27547D01*
X137946Y27643D01*
X137867Y27676D01*
Y27784D01*
X137953Y27820D01*
X138078Y27916D01*
X138174Y28041D01*
X138235Y28187D01*
X138255Y28344D01*
X138242Y28443D01*
X138245Y28545D01*
X138391Y28605D01*
X138516Y28701D01*
X138612Y28827D01*
X138673Y28973D01*
X138693Y29129D01*
X138673Y29286D01*
X138612Y29432D01*
X138516Y29557D01*
X138391Y29653D01*
X138245Y29714D01*
X138088Y29734D01*
D02*
G37*
G36*
X151350Y31135D02*
X151050Y31095D01*
X150770Y30980D01*
X150530Y30795D01*
X150345Y30555D01*
X150230Y30275D01*
X150190Y29975D01*
X150230Y29675D01*
X150345Y29395D01*
X150530Y29155D01*
X150699Y29025D01*
Y28925D01*
X150530Y28795D01*
X150345Y28555D01*
X150230Y28275D01*
X150190Y27975D01*
X150230Y27675D01*
X150345Y27395D01*
X150530Y27155D01*
X150699Y27025D01*
Y26925D01*
X150530Y26795D01*
X150345Y26555D01*
X150230Y26275D01*
X150190Y25975D01*
X150230Y25675D01*
X150345Y25395D01*
X150530Y25155D01*
X150699Y25025D01*
Y24925D01*
X150530Y24795D01*
X150345Y24555D01*
X150230Y24275D01*
X150190Y23975D01*
X150230Y23675D01*
X150345Y23395D01*
X150530Y23155D01*
X150770Y22970D01*
X151050Y22855D01*
X151350Y22815D01*
X151650Y22855D01*
X151930Y22970D01*
X152170Y23155D01*
X152355Y23395D01*
X152470Y23675D01*
X152510Y23975D01*
X152470Y24275D01*
X152355Y24555D01*
X152170Y24795D01*
X152001Y24925D01*
Y25025D01*
X152170Y25155D01*
X152355Y25395D01*
X152470Y25675D01*
X152510Y25975D01*
X152470Y26275D01*
X152355Y26555D01*
X152170Y26795D01*
X152001Y26925D01*
Y27025D01*
X152170Y27155D01*
X152355Y27395D01*
X152470Y27675D01*
X152510Y27975D01*
X152470Y28275D01*
X152355Y28555D01*
X152170Y28795D01*
X152001Y28925D01*
Y29025D01*
X152170Y29155D01*
X152355Y29395D01*
X152470Y29675D01*
X152510Y29975D01*
X152470Y30275D01*
X152355Y30555D01*
X152170Y30795D01*
X151930Y30980D01*
X151650Y31095D01*
X151350Y31135D01*
D02*
G37*
G36*
X144575D02*
X144275Y31095D01*
X143995Y30980D01*
X143755Y30795D01*
X143570Y30555D01*
X143455Y30275D01*
X143415Y29975D01*
X143455Y29675D01*
X143570Y29395D01*
X143755Y29155D01*
X143924Y29025D01*
Y28925D01*
X143755Y28795D01*
X143570Y28555D01*
X143455Y28275D01*
X143415Y27975D01*
X143455Y27675D01*
X143570Y27395D01*
X143755Y27155D01*
X143924Y27025D01*
Y26925D01*
X143755Y26795D01*
X143570Y26555D01*
X143455Y26275D01*
X143415Y25975D01*
X143455Y25675D01*
X143570Y25395D01*
X143755Y25155D01*
X143924Y25025D01*
Y24925D01*
X143755Y24795D01*
X143570Y24555D01*
X143455Y24275D01*
X143415Y23975D01*
X143455Y23675D01*
X143570Y23395D01*
X143755Y23155D01*
X143995Y22970D01*
X144275Y22855D01*
X144575Y22815D01*
X144875Y22855D01*
X145155Y22970D01*
X145395Y23155D01*
X145580Y23395D01*
X145695Y23675D01*
X145735Y23975D01*
X145695Y24275D01*
X145580Y24555D01*
X145395Y24795D01*
X145226Y24925D01*
Y25025D01*
X145395Y25155D01*
X145580Y25395D01*
X145695Y25675D01*
X145735Y25975D01*
X145695Y26275D01*
X145580Y26555D01*
X145395Y26795D01*
X145226Y26925D01*
Y27025D01*
X145395Y27155D01*
X145580Y27395D01*
X145695Y27675D01*
X145735Y27975D01*
X145695Y28275D01*
X145580Y28555D01*
X145395Y28795D01*
X145226Y28925D01*
Y29025D01*
X145395Y29155D01*
X145580Y29395D01*
X145695Y29675D01*
X145735Y29975D01*
X145695Y30275D01*
X145580Y30555D01*
X145395Y30795D01*
X145155Y30980D01*
X144875Y31095D01*
X144575Y31135D01*
D02*
G37*
G36*
X140675Y23905D02*
X140518Y23885D01*
X140372Y23824D01*
X140247Y23728D01*
X140151Y23603D01*
X140090Y23457D01*
X140070Y23300D01*
X140090Y23143D01*
X140151Y22997D01*
X140247Y22872D01*
X140372Y22776D01*
X140518Y22715D01*
X140675Y22695D01*
X140832Y22715D01*
X140978Y22776D01*
X141103Y22872D01*
X141199Y22997D01*
X141260Y23143D01*
X141280Y23300D01*
X141260Y23457D01*
X141199Y23603D01*
X141103Y23728D01*
X140978Y23824D01*
X140832Y23885D01*
X140675Y23905D01*
D02*
G37*
G36*
X138161Y23180D02*
X138004Y23160D01*
X137858Y23099D01*
X137733Y23003D01*
X137636Y22878D01*
X137576Y22732D01*
X137555Y22575D01*
X137576Y22418D01*
X137636Y22272D01*
X137733Y22147D01*
X137858Y22051D01*
X138004Y21990D01*
X138161Y21970D01*
X138317Y21990D01*
X138463Y22051D01*
X138588Y22147D01*
X138685Y22272D01*
X138745Y22418D01*
X138766Y22575D01*
X138745Y22732D01*
X138685Y22878D01*
X138588Y23003D01*
X138463Y23099D01*
X138317Y23160D01*
X138161Y23180D01*
D02*
G37*
G36*
X138989Y20811D02*
X138832Y20791D01*
X138686Y20730D01*
X138561Y20634D01*
X138465Y20509D01*
X138404Y20363D01*
X138384Y20206D01*
X138404Y20049D01*
X138465Y19903D01*
X138561Y19778D01*
X138686Y19682D01*
X138832Y19621D01*
X138989Y19601D01*
X139146Y19621D01*
X139292Y19682D01*
X139417Y19778D01*
X139513Y19903D01*
X139574Y20049D01*
X139594Y20206D01*
X139574Y20363D01*
X139513Y20509D01*
X139417Y20634D01*
X139292Y20730D01*
X139146Y20791D01*
X138989Y20811D01*
D02*
G37*
G36*
X138156Y18405D02*
X137999Y18385D01*
X137853Y18324D01*
X137728Y18228D01*
X137631Y18103D01*
X137571Y17957D01*
X137550Y17800D01*
X137571Y17643D01*
X137514Y17632D01*
X137487Y17629D01*
X137341Y17568D01*
X137216Y17472D01*
X137119Y17347D01*
X137059Y17201D01*
X137038Y17044D01*
X137059Y16887D01*
X137119Y16741D01*
X137216Y16616D01*
X137341Y16520D01*
X137487Y16459D01*
X137564Y16449D01*
Y16348D01*
X137510Y16341D01*
X137364Y16281D01*
X137239Y16185D01*
X137142Y16059D01*
X137082Y15913D01*
X137061Y15757D01*
X137082Y15600D01*
X137142Y15454D01*
X137239Y15329D01*
X137364Y15233D01*
X137510Y15172D01*
X137667Y15152D01*
X137823Y15172D01*
X137969Y15233D01*
X138094Y15329D01*
X138191Y15454D01*
X138251Y15600D01*
X138272Y15757D01*
X138251Y15913D01*
X138191Y16059D01*
X138094Y16185D01*
X137969Y16281D01*
X137823Y16341D01*
X137746Y16351D01*
Y16452D01*
X137800Y16459D01*
X137946Y16520D01*
X138071Y16616D01*
X138168Y16741D01*
X138228Y16887D01*
X138249Y17044D01*
X138237Y17129D01*
X138312Y17215D01*
X138458Y17276D01*
X138583Y17372D01*
X138680Y17497D01*
X138740Y17643D01*
X138761Y17800D01*
X138740Y17957D01*
X138680Y18103D01*
X138583Y18228D01*
X138458Y18324D01*
X138312Y18385D01*
X138156Y18405D01*
D02*
G37*
G36*
X136475Y13798D02*
X136240Y13767D01*
X136021Y13676D01*
X135833Y13532D01*
X135689Y13344D01*
X135598Y13125D01*
X135567Y12890D01*
X135598Y12655D01*
X135689Y12436D01*
X135833Y12248D01*
X136021Y12104D01*
X136240Y12013D01*
X136475Y11982D01*
X136710Y12013D01*
X136929Y12104D01*
X137117Y12248D01*
X137261Y12436D01*
X137352Y12655D01*
X137383Y12890D01*
X137352Y13125D01*
X137261Y13344D01*
X137117Y13532D01*
X136929Y13676D01*
X136710Y13767D01*
X136475Y13798D01*
D02*
G37*
G36*
X129070Y7704D02*
X128809Y7669D01*
X128566Y7569D01*
X128357Y7408D01*
X128196Y7199D01*
X128096Y6956D01*
X128061Y6695D01*
X128096Y6434D01*
X128196Y6191D01*
X128357Y5982D01*
X128566Y5821D01*
X128809Y5721D01*
X129070Y5686D01*
X129331Y5721D01*
X129574Y5821D01*
X129783Y5982D01*
X129943Y6191D01*
X130044Y6434D01*
X130078Y6695D01*
X130044Y6956D01*
X129943Y7199D01*
X129783Y7408D01*
X129574Y7569D01*
X129331Y7669D01*
X129070Y7704D01*
D02*
G37*
G36*
X129320Y5131D02*
Y4405D01*
X130046D01*
X130044Y4416D01*
X129943Y4659D01*
X129783Y4868D01*
X129574Y5029D01*
X129331Y5129D01*
X129320Y5131D01*
D02*
G37*
G36*
X128820Y5131D02*
X128809Y5129D01*
X128566Y5029D01*
X128357Y4868D01*
X128196Y4659D01*
X128096Y4416D01*
X128094Y4405D01*
X128820D01*
Y5131D01*
D02*
G37*
G36*
X130046Y3905D02*
X129320D01*
Y3179D01*
X129331Y3181D01*
X129574Y3282D01*
X129783Y3442D01*
X129943Y3651D01*
X130044Y3894D01*
X130046Y3905D01*
D02*
G37*
G36*
X128820D02*
X128094D01*
X128096Y3894D01*
X128196Y3651D01*
X128357Y3442D01*
X128566Y3282D01*
X128809Y3181D01*
X128820Y3179D01*
Y3905D01*
D02*
G37*
%LPD*%
D75*
X143300Y55040D02*
D03*
D118*
X155006Y20300D02*
D03*
X151697Y5900D02*
D03*
X154712Y4700D02*
D03*
X152407D02*
D03*
X151255D02*
D03*
X155155Y5900D02*
D03*
X154002D02*
D03*
X152850D02*
D03*
X153560Y4700D02*
D03*
X154094Y14300D02*
D03*
X154336Y15500D02*
D03*
X155246Y14300D02*
D03*
X156399D02*
D03*
X155731Y16700D02*
D03*
X155489Y15500D02*
D03*
X156641D02*
D03*
X157794D02*
D03*
X157026Y17900D02*
D03*
X156884Y16700D02*
D03*
X158036D02*
D03*
X158179Y17900D02*
D03*
X158464Y20300D02*
D03*
X158321Y19100D02*
D03*
X122539Y93844D02*
D03*
X120995Y93569D02*
D03*
X124525Y92484D02*
D03*
X122981Y92209D02*
D03*
X114673Y97219D02*
D03*
X113563Y97696D02*
D03*
X112502Y98259D02*
D03*
X112544Y100732D02*
D03*
X113078Y99257D02*
D03*
X111968Y99734D02*
D03*
X111434Y101208D02*
D03*
X109747Y100687D02*
D03*
X110858Y100210D02*
D03*
X108637Y101164D02*
D03*
X107526Y101640D02*
D03*
X106992Y103115D02*
D03*
X106416Y102117D02*
D03*
X104671Y103895D02*
D03*
X105832Y103505D02*
D03*
X105255Y102507D02*
D03*
X108679Y103636D02*
D03*
X109789Y103160D02*
D03*
X115249Y98217D02*
D03*
X114139Y98694D02*
D03*
X114715Y99692D02*
D03*
X115291Y100690D02*
D03*
X114231Y101253D02*
D03*
X111392Y98735D02*
D03*
X110281Y99212D02*
D03*
X109171Y99689D02*
D03*
X109213Y102162D02*
D03*
X108102Y102638D02*
D03*
X104087Y105283D02*
D03*
X105247Y104893D02*
D03*
X102877Y105587D02*
D03*
X101666Y105890D02*
D03*
X101724Y103591D02*
D03*
X102300Y104589D02*
D03*
X99879Y105196D02*
D03*
X101090Y104892D02*
D03*
X98669Y105499D02*
D03*
X97409Y105716D02*
D03*
X97516Y103503D02*
D03*
X98093Y104501D02*
D03*
X96832Y104718D02*
D03*
X96256Y103720D02*
D03*
X94361Y105238D02*
D03*
X95622Y105021D02*
D03*
X95046Y104023D02*
D03*
X106408Y104503D02*
D03*
X107568Y104113D02*
D03*
X153558Y1000D02*
D03*
X152405D02*
D03*
X153900Y2200D02*
D03*
X82409Y108737D02*
D03*
X117412Y99563D02*
D03*
X116402Y100213D02*
D03*
X115826Y99215D02*
D03*
X113655Y100255D02*
D03*
X113120Y101730D02*
D03*
X112010Y102206D02*
D03*
X110900Y102683D02*
D03*
X110323Y101685D02*
D03*
X105840Y101119D02*
D03*
X104095Y102897D02*
D03*
X103511Y104285D02*
D03*
X99937Y102896D02*
D03*
X100456Y106194D02*
D03*
X98727Y103199D02*
D03*
X99245Y106497D02*
D03*
X97985Y106714D02*
D03*
X96198Y106019D02*
D03*
X96774Y107018D02*
D03*
X93785Y104240D02*
D03*
X94938Y106236D02*
D03*
X95514Y107234D02*
D03*
X94304Y107538D02*
D03*
X93727Y106540D02*
D03*
X93151Y105542D02*
D03*
X92575Y104544D02*
D03*
X92943Y107781D02*
D03*
X92367Y106783D02*
D03*
X91790Y105785D02*
D03*
X91214Y104787D02*
D03*
X90004Y105090D02*
D03*
X90580Y106088D02*
D03*
X91156Y107086D02*
D03*
X91732Y108084D02*
D03*
X90422Y108215D02*
D03*
X89846Y107217D02*
D03*
X89269Y106218D02*
D03*
X88693Y105220D02*
D03*
X89111Y108345D02*
D03*
X88535Y107347D02*
D03*
X87959Y106349D02*
D03*
X87383Y105351D02*
D03*
X87801Y108475D02*
D03*
X87225Y107477D02*
D03*
X86649Y106479D02*
D03*
X86072Y105481D02*
D03*
X86491Y108606D02*
D03*
X85914Y107607D02*
D03*
X85338Y106609D02*
D03*
X84762Y105611D02*
D03*
X85130Y108649D02*
D03*
X84554Y107651D02*
D03*
X83978Y106653D02*
D03*
X83401Y105655D02*
D03*
X82041Y105699D02*
D03*
X82617Y106697D02*
D03*
X83194Y107695D02*
D03*
X83770Y108693D02*
D03*
X76330D02*
D03*
X76907Y107695D02*
D03*
X77483Y106697D02*
D03*
X78059Y105699D02*
D03*
X76699Y105655D02*
D03*
X76122Y106653D02*
D03*
X75338Y105611D02*
D03*
X74762Y106609D02*
D03*
X74186Y107607D02*
D03*
X74028Y105481D02*
D03*
X73452Y106479D02*
D03*
X72875Y107477D02*
D03*
X72717Y105351D02*
D03*
X72141Y106349D02*
D03*
X71565Y107347D02*
D03*
X71407Y105220D02*
D03*
X70831Y106218D02*
D03*
X70254Y107217D02*
D03*
X69520Y106088D02*
D03*
X70096Y105090D02*
D03*
X68886Y104787D02*
D03*
X68310Y105785D02*
D03*
X67525Y104544D02*
D03*
X66949Y105542D02*
D03*
X66315Y104240D02*
D03*
X63326Y107018D02*
D03*
X62115Y106714D02*
D03*
X62691Y105716D02*
D03*
X60855Y106497D02*
D03*
X61431Y105499D02*
D03*
X60797Y104198D02*
D03*
X60221Y105196D02*
D03*
X59644Y106194D02*
D03*
X60163Y102896D02*
D03*
X59586Y103894D02*
D03*
X59010Y104892D02*
D03*
X58434Y105890D02*
D03*
X58952Y102592D02*
D03*
X58376Y103591D02*
D03*
X57800Y104589D02*
D03*
X57223Y105587D02*
D03*
X56013Y105283D02*
D03*
X56589Y104285D02*
D03*
X54853Y104893D02*
D03*
X55429Y103895D02*
D03*
X53692Y104503D02*
D03*
X54268Y103505D02*
D03*
X52532Y104113D02*
D03*
X53108Y103115D02*
D03*
X54261Y101119D02*
D03*
X51421Y103636D02*
D03*
X51463Y101164D02*
D03*
X50887Y102162D02*
D03*
X50311Y103160D02*
D03*
X50929Y99689D02*
D03*
X50353Y100687D02*
D03*
X49777Y101685D02*
D03*
X49200Y102683D02*
D03*
X49819Y99212D02*
D03*
X49243Y100210D02*
D03*
X48666Y101208D02*
D03*
X48090Y102206D02*
D03*
X46980Y101730D02*
D03*
X47556Y100732D02*
D03*
X48132Y99734D02*
D03*
X48708Y98735D02*
D03*
X47598Y98259D02*
D03*
X47022Y99257D02*
D03*
X46445Y100255D02*
D03*
X45869Y101253D02*
D03*
X46537Y97696D02*
D03*
X45961Y98694D02*
D03*
X45385Y99692D02*
D03*
X44809Y100690D02*
D03*
X45427Y97219D02*
D03*
X44851Y98217D02*
D03*
X44275Y99215D02*
D03*
X43698Y100213D02*
D03*
X42688Y99563D02*
D03*
X44417Y96569D02*
D03*
X52040Y100165D02*
D03*
X77691Y108737D02*
D03*
X149461Y67300D02*
D03*
X146383Y72543D02*
D03*
X145807Y71545D02*
D03*
X145231Y70547D02*
D03*
X144655Y69548D02*
D03*
X143937Y70705D02*
D03*
X144513Y71703D02*
D03*
X145089Y72701D02*
D03*
X145665Y73699D02*
D03*
X143219Y71861D02*
D03*
X143795Y72859D02*
D03*
X144371Y73857D02*
D03*
X144947Y74855D02*
D03*
X142451Y72931D02*
D03*
X143027Y73929D02*
D03*
X143603Y74927D02*
D03*
X144179Y75925D02*
D03*
X141683Y74001D02*
D03*
X142259Y74999D02*
D03*
X142835Y75997D02*
D03*
X143411Y76995D02*
D03*
X140914Y75070D02*
D03*
X141491Y76068D02*
D03*
X142067Y77067D02*
D03*
X142643Y78065D02*
D03*
X141875Y79134D02*
D03*
X141299Y78136D02*
D03*
X140723Y77138D02*
D03*
X140146Y76140D02*
D03*
X139278Y77037D02*
D03*
X139855Y78035D02*
D03*
X140431Y79033D02*
D03*
X141007Y80031D02*
D03*
X138388Y78094D02*
D03*
X138964Y79092D02*
D03*
X139540Y80090D02*
D03*
X140116Y81088D02*
D03*
X139248Y81984D02*
D03*
X138672Y80986D02*
D03*
X138096Y79988D02*
D03*
X137520Y78990D02*
D03*
X138430Y82968D02*
D03*
X137854Y81969D02*
D03*
X137278Y80971D02*
D03*
X136701Y79973D02*
D03*
X137562Y83864D02*
D03*
X136986Y82866D02*
D03*
X136410Y81868D02*
D03*
X135833Y80870D02*
D03*
X136744Y84847D02*
D03*
X136168Y83849D02*
D03*
X135592Y82851D02*
D03*
X135015Y81853D02*
D03*
X134147Y82749D02*
D03*
X134724Y83748D02*
D03*
X135300Y84746D02*
D03*
X135876Y85744D02*
D03*
X133279Y83646D02*
D03*
X133856Y84644D02*
D03*
X134432Y85642D02*
D03*
X135008Y86640D02*
D03*
X132411Y84542D02*
D03*
X132988Y85541D02*
D03*
X133564Y86539D02*
D03*
X134140Y87537D02*
D03*
X133272Y88433D02*
D03*
X132696Y87435D02*
D03*
X132120Y86437D02*
D03*
X131543Y85439D02*
D03*
X132354Y89243D02*
D03*
X131778Y88245D02*
D03*
X131202Y87247D02*
D03*
X130625Y86249D02*
D03*
X131436Y90053D02*
D03*
X130860Y89055D02*
D03*
X130284Y88057D02*
D03*
X129707Y87059D02*
D03*
X130518Y90863D02*
D03*
X129942Y89865D02*
D03*
X129365Y88867D02*
D03*
X128789Y87869D02*
D03*
X127821Y88592D02*
D03*
X128397Y89590D02*
D03*
X128974Y90588D02*
D03*
X129550Y91586D02*
D03*
X127429Y90314D02*
D03*
X128006Y91312D02*
D03*
X128582Y92310D02*
D03*
X125885Y90039D02*
D03*
X126461Y91037D02*
D03*
X127038Y92035D02*
D03*
X127614Y93033D02*
D03*
X124917Y90762D02*
D03*
X125493Y91760D02*
D03*
X126070Y92758D02*
D03*
X126646Y93756D02*
D03*
X125678Y94480D02*
D03*
X125102Y93482D02*
D03*
X123949Y91485D02*
D03*
X123557Y93207D02*
D03*
X124134Y94205D02*
D03*
X124710Y95203D02*
D03*
X121963Y92845D02*
D03*
X123116Y94842D02*
D03*
X123692Y95840D02*
D03*
X121571Y94567D02*
D03*
X122148Y95565D02*
D03*
X122724Y96563D02*
D03*
X121656Y97113D02*
D03*
X119927Y94119D02*
D03*
X126853Y89315D02*
D03*
X147101Y71386D02*
D03*
X12999D02*
D03*
X10639Y67300D02*
D03*
X33247Y89315D02*
D03*
X40173Y94119D02*
D03*
X38444Y97113D02*
D03*
X37376Y96563D02*
D03*
X37952Y95565D02*
D03*
X38529Y94567D02*
D03*
X39105Y93569D02*
D03*
X36408Y95840D02*
D03*
X36984Y94842D02*
D03*
X37561Y93844D02*
D03*
X38137Y92845D02*
D03*
X35390Y95203D02*
D03*
X35966Y94205D02*
D03*
X36543Y93207D02*
D03*
X37119Y92209D02*
D03*
X36151Y91485D02*
D03*
X35575Y92484D02*
D03*
X34998Y93482D02*
D03*
X34422Y94480D02*
D03*
X33454Y93756D02*
D03*
X34030Y92758D02*
D03*
X34607Y91760D02*
D03*
X35183Y90762D02*
D03*
X32486Y93033D02*
D03*
X33062Y92035D02*
D03*
X33639Y91037D02*
D03*
X34215Y90039D02*
D03*
X31518Y92310D02*
D03*
X32094Y91312D02*
D03*
X32671Y90314D02*
D03*
X30550Y91586D02*
D03*
X31126Y90588D02*
D03*
X31703Y89590D02*
D03*
X32279Y88592D02*
D03*
X31311Y87869D02*
D03*
X30735Y88867D02*
D03*
X30158Y89865D02*
D03*
X29582Y90863D02*
D03*
X30393Y87059D02*
D03*
X29816Y88057D02*
D03*
X29240Y89055D02*
D03*
X28664Y90053D02*
D03*
X29475Y86249D02*
D03*
X28898Y87247D02*
D03*
X28322Y88245D02*
D03*
X27746Y89243D02*
D03*
X28557Y85439D02*
D03*
X27980Y86437D02*
D03*
X27404Y87435D02*
D03*
X26828Y88433D02*
D03*
X25960Y87537D02*
D03*
X26536Y86539D02*
D03*
X27112Y85541D02*
D03*
X27689Y84542D02*
D03*
X25092Y86640D02*
D03*
X25668Y85642D02*
D03*
X26244Y84644D02*
D03*
X26821Y83646D02*
D03*
X24224Y85744D02*
D03*
X24800Y84746D02*
D03*
X25376Y83748D02*
D03*
X25953Y82749D02*
D03*
X25085Y81853D02*
D03*
X24508Y82851D02*
D03*
X23932Y83849D02*
D03*
X23356Y84847D02*
D03*
X24267Y80870D02*
D03*
X23690Y81868D02*
D03*
X23114Y82866D02*
D03*
X22538Y83864D02*
D03*
X23399Y79973D02*
D03*
X22822Y80971D02*
D03*
X22246Y81969D02*
D03*
X21670Y82968D02*
D03*
X22580Y78990D02*
D03*
X22004Y79988D02*
D03*
X21428Y80986D02*
D03*
X20852Y81984D02*
D03*
X19984Y81088D02*
D03*
X20560Y80090D02*
D03*
X21136Y79092D02*
D03*
X21712Y78094D02*
D03*
X19093Y80031D02*
D03*
X19669Y79033D02*
D03*
X20245Y78035D02*
D03*
X20822Y77037D02*
D03*
X19954Y76140D02*
D03*
X19377Y77138D02*
D03*
X18801Y78136D02*
D03*
X18225Y79134D02*
D03*
X17457Y78065D02*
D03*
X18033Y77067D02*
D03*
X18609Y76068D02*
D03*
X19186Y75070D02*
D03*
X17265Y75997D02*
D03*
X17841Y74999D02*
D03*
X18417Y74001D02*
D03*
X16305Y72859D02*
D03*
X14435Y73699D02*
D03*
X15011Y72701D02*
D03*
X15587Y71703D02*
D03*
X16163Y70705D02*
D03*
X15445Y69548D02*
D03*
X14869Y70547D02*
D03*
X14293Y71545D02*
D03*
X13717Y72543D02*
D03*
X155560Y32400D02*
D03*
X159018Y32400D02*
D03*
X159076Y33600D02*
D03*
X157923Y33600D02*
D03*
X156771Y33600D02*
D03*
X158933Y34800D02*
D03*
X157781Y34800D02*
D03*
X156628D02*
D03*
X155476Y34800D02*
D03*
X158891Y36000D02*
D03*
X157738Y36000D02*
D03*
X156586Y36000D02*
D03*
X155433D02*
D03*
X155291Y37200D02*
D03*
X156443Y37200D02*
D03*
X157596Y37200D02*
D03*
X158748Y37200D02*
D03*
X158606Y38400D02*
D03*
X157453Y38400D02*
D03*
X156301Y38400D02*
D03*
X155148Y38400D02*
D03*
X158464Y39600D02*
D03*
X157311D02*
D03*
X156158D02*
D03*
X155006Y39600D02*
D03*
X158321Y40800D02*
D03*
X157169Y40800D02*
D03*
X156016Y40800D02*
D03*
X154864Y40800D02*
D03*
X158179Y42000D02*
D03*
X157026Y42000D02*
D03*
X155874D02*
D03*
X154721D02*
D03*
X154579Y43200D02*
D03*
X155731Y43200D02*
D03*
X156884Y43200D02*
D03*
X158036Y43200D02*
D03*
X154336Y44400D02*
D03*
X155489Y44400D02*
D03*
X156641Y44400D02*
D03*
X157794Y44400D02*
D03*
X154094Y45600D02*
D03*
X155246D02*
D03*
X156399Y45600D02*
D03*
X157552Y45600D02*
D03*
X153852Y46800D02*
D03*
X155004Y46800D02*
D03*
X156157Y46800D02*
D03*
X157309Y46800D02*
D03*
X156967Y48000D02*
D03*
X155814Y48000D02*
D03*
X154662D02*
D03*
X153509Y48000D02*
D03*
X156624Y49200D02*
D03*
X155472Y49200D02*
D03*
X154319Y49200D02*
D03*
X153167Y49200D02*
D03*
X156282Y50400D02*
D03*
X155129Y50400D02*
D03*
X153977Y50400D02*
D03*
X152824Y50400D02*
D03*
X152482Y51600D02*
D03*
X153634Y51600D02*
D03*
X154787Y51600D02*
D03*
X155940Y51600D02*
D03*
X152040Y52800D02*
D03*
X153192Y52800D02*
D03*
X154345Y52800D02*
D03*
X155497D02*
D03*
X151697Y54000D02*
D03*
X152850Y54000D02*
D03*
X154002Y54000D02*
D03*
X155155Y54000D02*
D03*
X151255Y55200D02*
D03*
X152407Y55200D02*
D03*
X153560Y55200D02*
D03*
X154712Y55200D02*
D03*
X154370Y56400D02*
D03*
X153217Y56400D02*
D03*
X152065Y56400D02*
D03*
X150912Y56400D02*
D03*
X153900Y57700D02*
D03*
X152747Y57700D02*
D03*
X151595Y57700D02*
D03*
X150442Y57700D02*
D03*
X150100Y58900D02*
D03*
X151253Y58900D02*
D03*
X152405Y58900D02*
D03*
X153558Y58900D02*
D03*
X153015Y60100D02*
D03*
X151863Y60100D02*
D03*
X150710Y60100D02*
D03*
X149558Y60100D02*
D03*
X152473Y61300D02*
D03*
X151320Y61300D02*
D03*
X150168Y61300D02*
D03*
X149015Y61300D02*
D03*
X151930Y62500D02*
D03*
X150778Y62500D02*
D03*
X149625Y62500D02*
D03*
X148473Y62500D02*
D03*
X151388Y63700D02*
D03*
X150235Y63700D02*
D03*
X149083Y63700D02*
D03*
X147930Y63700D02*
D03*
X150746Y64900D02*
D03*
X149593Y64900D02*
D03*
X148441Y64900D02*
D03*
X147288Y64900D02*
D03*
X146646Y66100D02*
D03*
X147798Y66100D02*
D03*
X148951Y66100D02*
D03*
X150103Y66100D02*
D03*
X9997D02*
D03*
X11149Y66100D02*
D03*
X12302Y66100D02*
D03*
X13454Y66100D02*
D03*
X12812Y64900D02*
D03*
X11659Y64900D02*
D03*
X10507Y64900D02*
D03*
X9354Y64900D02*
D03*
X12170Y63700D02*
D03*
X11017Y63700D02*
D03*
X9865Y63700D02*
D03*
X8712Y63700D02*
D03*
X11627Y62500D02*
D03*
X10475Y62500D02*
D03*
X9322Y62500D02*
D03*
X8170Y62500D02*
D03*
X11085Y61300D02*
D03*
X9932Y61300D02*
D03*
X8780Y61300D02*
D03*
X7627Y61300D02*
D03*
X10542Y60100D02*
D03*
X9390Y60100D02*
D03*
X8237Y60100D02*
D03*
X7085Y60100D02*
D03*
X6542Y58900D02*
D03*
X7695Y58900D02*
D03*
X8847Y58900D02*
D03*
X10000Y58900D02*
D03*
X9658Y57700D02*
D03*
X8505Y57700D02*
D03*
X7353Y57700D02*
D03*
X6200Y57700D02*
D03*
X9188Y56400D02*
D03*
X8035Y56400D02*
D03*
X6883Y56400D02*
D03*
X5730Y56400D02*
D03*
X5388Y55200D02*
D03*
X6540Y55200D02*
D03*
X7693Y55200D02*
D03*
X8845Y55200D02*
D03*
X4945Y54000D02*
D03*
X6098Y54000D02*
D03*
X7250Y54000D02*
D03*
X8403Y54000D02*
D03*
X4603Y52800D02*
D03*
X5755D02*
D03*
X6908Y52800D02*
D03*
X8060Y52800D02*
D03*
X4160Y51600D02*
D03*
X5313Y51600D02*
D03*
X6466Y51600D02*
D03*
X7618Y51600D02*
D03*
X7276Y50400D02*
D03*
X6123Y50400D02*
D03*
X4971Y50400D02*
D03*
X3818Y50400D02*
D03*
X6933Y49200D02*
D03*
X5781Y49200D02*
D03*
X4628Y49200D02*
D03*
X3476Y49200D02*
D03*
X6591Y48000D02*
D03*
X5438Y48000D02*
D03*
X4286D02*
D03*
X3133Y48000D02*
D03*
X2791Y46800D02*
D03*
X3943Y46800D02*
D03*
X5096Y46800D02*
D03*
X6248Y46800D02*
D03*
X2548Y45600D02*
D03*
X3701Y45600D02*
D03*
X4854Y45600D02*
D03*
X6006D02*
D03*
X2306Y44400D02*
D03*
X3459Y44400D02*
D03*
X4611Y44400D02*
D03*
X5764Y44400D02*
D03*
X2064Y43200D02*
D03*
X3216Y43200D02*
D03*
X4369Y43200D02*
D03*
X5521Y43200D02*
D03*
X5379Y42000D02*
D03*
X4226D02*
D03*
X3074D02*
D03*
X1921Y42000D02*
D03*
X5236Y40800D02*
D03*
X4084Y40800D02*
D03*
X2931Y40800D02*
D03*
X1779Y40800D02*
D03*
X5094Y39600D02*
D03*
X3941Y39600D02*
D03*
X2789D02*
D03*
X1636D02*
D03*
X4952Y38400D02*
D03*
X3799Y38400D02*
D03*
X2647Y38400D02*
D03*
X1494Y38400D02*
D03*
X1352Y37200D02*
D03*
X2504Y37200D02*
D03*
X3657Y37200D02*
D03*
X4809Y37200D02*
D03*
X4667Y36000D02*
D03*
X3514D02*
D03*
X2362Y36000D02*
D03*
X1209Y36000D02*
D03*
X4624Y34800D02*
D03*
X3472Y34800D02*
D03*
X2319D02*
D03*
X1167Y34800D02*
D03*
X4482Y33600D02*
D03*
X3329Y33600D02*
D03*
X2177Y33600D02*
D03*
X1024Y33600D02*
D03*
X1082Y32400D02*
D03*
X4540Y32400D02*
D03*
X152747Y2200D02*
D03*
X150912Y3500D02*
D03*
X152065D02*
D03*
X153217D02*
D03*
X154370D02*
D03*
X155497Y7100D02*
D03*
X154345D02*
D03*
X153192D02*
D03*
X152040D02*
D03*
X155940Y8300D02*
D03*
X154787D02*
D03*
X153634D02*
D03*
X152482D02*
D03*
X152824Y9500D02*
D03*
X153977D02*
D03*
X155129D02*
D03*
X156282D02*
D03*
X153167Y10700D02*
D03*
X154319D02*
D03*
X155472D02*
D03*
X156624D02*
D03*
X153509Y11900D02*
D03*
X154662D02*
D03*
X155814D02*
D03*
X156967D02*
D03*
X157309Y13100D02*
D03*
X156157D02*
D03*
X155004D02*
D03*
X153852D02*
D03*
X157552Y14300D02*
D03*
X154579Y16700D02*
D03*
X154721Y17900D02*
D03*
X155874D02*
D03*
X154864Y19100D02*
D03*
X156016D02*
D03*
X157169D02*
D03*
X156158Y20300D02*
D03*
X157311D02*
D03*
X155148Y21500D02*
D03*
X156301D02*
D03*
X157453D02*
D03*
X158606D02*
D03*
X158748Y22700D02*
D03*
X157596D02*
D03*
X156443D02*
D03*
X155291D02*
D03*
X155433Y23900D02*
D03*
X156586D02*
D03*
X157738D02*
D03*
X158891D02*
D03*
X155476Y25100D02*
D03*
X156628D02*
D03*
X157781D02*
D03*
X158933D02*
D03*
X155618Y26300D02*
D03*
X156771D02*
D03*
X157923D02*
D03*
X159076D02*
D03*
X159018Y27500D02*
D03*
X155560D02*
D03*
X4540D02*
D03*
X1082D02*
D03*
X1024Y26300D02*
D03*
X2177D02*
D03*
X3329D02*
D03*
X4482D02*
D03*
X1167Y25100D02*
D03*
X2319D02*
D03*
X3472D02*
D03*
X4624D02*
D03*
X1209Y23900D02*
D03*
X2362D02*
D03*
X3514D02*
D03*
X4667D02*
D03*
X4809Y22700D02*
D03*
X3657D02*
D03*
X2504D02*
D03*
X1352D02*
D03*
X1494Y21500D02*
D03*
X2647D02*
D03*
X3799D02*
D03*
X4952D02*
D03*
X1636Y20300D02*
D03*
X2789D02*
D03*
X3941D02*
D03*
X5094D02*
D03*
X1779Y19100D02*
D03*
X2931D02*
D03*
X4084D02*
D03*
X5236D02*
D03*
X1921Y17900D02*
D03*
X3074D02*
D03*
X4226D02*
D03*
X5379D02*
D03*
X5521Y16700D02*
D03*
X4369D02*
D03*
X3216D02*
D03*
X2064D02*
D03*
X5764Y15500D02*
D03*
X4611D02*
D03*
X3459D02*
D03*
X2306D02*
D03*
X6006Y14300D02*
D03*
X4854D02*
D03*
X3701D02*
D03*
X2548D02*
D03*
X6248Y13100D02*
D03*
X5096D02*
D03*
X3943D02*
D03*
X2791D02*
D03*
X3133Y11900D02*
D03*
X4286D02*
D03*
X5438D02*
D03*
X6591D02*
D03*
X3476Y10700D02*
D03*
X4628D02*
D03*
X5781D02*
D03*
X6933D02*
D03*
X3818Y9500D02*
D03*
X4971D02*
D03*
X6123D02*
D03*
X7276D02*
D03*
X7618Y8300D02*
D03*
X6466D02*
D03*
X5313D02*
D03*
X4160D02*
D03*
X8060Y7100D02*
D03*
X6908D02*
D03*
X5755D02*
D03*
X4603D02*
D03*
X8403Y5900D02*
D03*
X7250D02*
D03*
X6098D02*
D03*
X4945D02*
D03*
X8845Y4700D02*
D03*
X7693D02*
D03*
X6540D02*
D03*
X5388D02*
D03*
X5730Y3500D02*
D03*
X6883D02*
D03*
X8035D02*
D03*
X9188D02*
D03*
X6200Y2200D02*
D03*
X7353D02*
D03*
X8505D02*
D03*
X9658D02*
D03*
X10000Y1000D02*
D03*
X8847D02*
D03*
X7695D02*
D03*
X6542D02*
D03*
X155618Y33600D02*
D03*
X104679Y101509D02*
D03*
X100514Y103894D02*
D03*
X99303Y104198D02*
D03*
X101148Y102592D02*
D03*
X102358Y102289D02*
D03*
X103519Y101899D02*
D03*
X102934Y103287D02*
D03*
X108060Y100165D02*
D03*
X106950Y100642D02*
D03*
X55421Y101509D02*
D03*
X56005Y102897D02*
D03*
X54845Y102507D02*
D03*
X56581Y101899D02*
D03*
X57742Y102289D02*
D03*
X57166Y103287D02*
D03*
X65054Y104023D02*
D03*
X65739Y105238D02*
D03*
X74970Y108649D02*
D03*
X75546Y107651D02*
D03*
X73609Y108606D02*
D03*
X72299Y108475D02*
D03*
X69678Y108215D02*
D03*
X70989Y108345D02*
D03*
X68944Y107086D02*
D03*
X68368Y108084D02*
D03*
X67734Y106783D02*
D03*
X67157Y107781D02*
D03*
X66373Y106540D02*
D03*
X65796Y107538D02*
D03*
X65162Y106236D02*
D03*
X63902Y106019D02*
D03*
X64586Y107234D02*
D03*
X64478Y105021D02*
D03*
X63268Y104718D02*
D03*
X62584Y103503D02*
D03*
X63844Y103720D02*
D03*
X61373Y103199D02*
D03*
X62007Y104501D02*
D03*
X150442Y2200D02*
D03*
X151253Y1000D02*
D03*
X150100D02*
D03*
X151595Y2200D02*
D03*
X53684Y102117D02*
D03*
X51998Y102638D02*
D03*
X52574Y101640D02*
D03*
X53150Y100642D02*
D03*
X16689Y76995D02*
D03*
X15153Y74855D02*
D03*
X16497Y74927D02*
D03*
X15921Y75925D02*
D03*
X15729Y73857D02*
D03*
X17649Y72931D02*
D03*
X17073Y73929D02*
D03*
X16881Y71861D02*
D03*
X115683Y96569D02*
D03*
D133*
X86850Y1675D02*
D03*
X88119Y4215D02*
D03*
X107725D02*
D03*
X106455Y1675D02*
D03*
X67250Y1675D02*
D03*
X68520Y4215D02*
D03*
X48886Y4215D02*
D03*
X47616Y1675D02*
D03*
D135*
X2550Y29950D02*
D03*
X12933Y68700D02*
D03*
X41300Y97067D02*
D03*
X80050Y107450D02*
D03*
X118800Y97067D02*
D03*
X147167Y68700D02*
D03*
X157550Y29950D02*
D03*
D136*
X129070Y4155D02*
D03*
D142*
X111600Y65300D02*
D03*
Y64363D02*
D03*
X134467Y63475D02*
D03*
X63540Y95675D02*
D03*
X109325Y83075D02*
D03*
X108275D02*
D03*
X29825Y32850D02*
D03*
X23125Y32851D02*
D03*
X19155Y32900D02*
D03*
X29825Y34625D02*
D03*
X21300Y32883D02*
D03*
X22900Y34700D02*
D03*
X19925Y35035D02*
D03*
X17700Y33647D02*
D03*
X15825Y33024D02*
D03*
X38800Y38225D02*
D03*
X36250D02*
D03*
X37500Y35725D02*
D03*
X140157Y67500D02*
D03*
X28595Y14787D02*
D03*
X34146Y12108D02*
D03*
X34921Y11311D02*
D03*
X34146Y10507D02*
D03*
X41600Y16436D02*
D03*
X40500Y16425D02*
D03*
X39528Y17225D02*
D03*
X37725Y15450D02*
D03*
Y19047D02*
D03*
X34169Y21375D02*
D03*
X30000Y21325D02*
D03*
X39780Y30225D02*
D03*
X40300Y25194D02*
D03*
Y26783D02*
D03*
X38000Y25200D02*
D03*
Y26750D02*
D03*
X39145Y25975D02*
D03*
X39528Y32100D02*
D03*
X36175Y35250D02*
D03*
X33821D02*
D03*
X35025Y34153D02*
D03*
X81650Y54725D02*
D03*
Y55737D02*
D03*
X99444Y48140D02*
D03*
X128835Y48280D02*
D03*
X126097Y53650D02*
D03*
X64760Y64107D02*
D03*
X64114Y68520D02*
D03*
X45432Y61050D02*
D03*
X44775Y65675D02*
D03*
X86675Y58190D02*
D03*
X79525Y81125D02*
D03*
X64025Y35575D02*
D03*
X64596Y53149D02*
D03*
X64625Y42074D02*
D03*
X63969Y46649D02*
D03*
X44818Y21600D02*
D03*
X44800Y32650D02*
D03*
X64675Y31125D02*
D03*
X63955Y57649D02*
D03*
X64675Y20075D02*
D03*
X64025Y24647D02*
D03*
X45450Y17022D02*
D03*
X45449Y28075D02*
D03*
X44805Y43599D02*
D03*
X45455Y39074D02*
D03*
X99450Y91352D02*
D03*
X89455Y91346D02*
D03*
X85955Y59000D02*
D03*
X120052Y61595D02*
D03*
Y62600D02*
D03*
Y63607D02*
D03*
X104850Y63837D02*
D03*
X100135Y67225D02*
D03*
X59825Y95675D02*
D03*
X60175Y86525D02*
D03*
X83455Y48255D02*
D03*
X93955Y48250D02*
D03*
X116350Y66075D02*
D03*
X113918Y74150D02*
D03*
X113925Y69425D02*
D03*
X68500Y69325D02*
D03*
X68500Y67770D02*
D03*
X70000Y69350D02*
D03*
X74167Y70500D02*
D03*
X78425Y65230D02*
D03*
Y64230D02*
D03*
X78450Y58740D02*
D03*
X111575Y62975D02*
D03*
Y61975D02*
D03*
Y58720D02*
D03*
Y54720D02*
D03*
X82455Y48250D02*
D03*
X89455D02*
D03*
X90450D02*
D03*
X95445D02*
D03*
X106200Y48275D02*
D03*
X107700Y48250D02*
D03*
X118902Y67350D02*
D03*
X96603Y54532D02*
D03*
X98040Y53769D02*
D03*
X103093Y54182D02*
D03*
X39325Y86400D02*
D03*
Y82750D02*
D03*
X37750Y61025D02*
D03*
X39900Y59236D02*
D03*
X41975Y61075D02*
D03*
X23425Y66450D02*
D03*
X23050Y53065D02*
D03*
X34300Y67100D02*
D03*
Y65800D02*
D03*
X33425Y72075D02*
D03*
Y73700D02*
D03*
X31100Y72150D02*
D03*
Y73725D02*
D03*
X32264Y72917D02*
D03*
X29071Y71331D02*
D03*
X37376Y82984D02*
D03*
X35000Y84275D02*
D03*
X30500D02*
D03*
X32694Y82950D02*
D03*
X24650Y64075D02*
D03*
X23278Y61771D02*
D03*
X24625Y59450D02*
D03*
X27450Y53650D02*
D03*
X27465Y55300D02*
D03*
X25100Y53679D02*
D03*
Y55300D02*
D03*
X26276Y54485D02*
D03*
X15775Y64150D02*
D03*
X16958D02*
D03*
X81571Y22450D02*
D03*
X82601D02*
D03*
X104665Y57497D02*
D03*
X104676Y58491D02*
D03*
X100445Y48165D02*
D03*
X104483Y31500D02*
D03*
X100450Y31510D02*
D03*
X89720Y32850D02*
D03*
X96081Y32875D02*
D03*
X102424Y32900D02*
D03*
X108775Y32850D02*
D03*
X106890Y56407D02*
D03*
X104701Y59510D02*
D03*
X37179Y52675D02*
D03*
X37300Y47925D02*
D03*
X39225Y50325D02*
D03*
X36100Y44997D02*
D03*
X38900Y45000D02*
D03*
X82675Y30395D02*
D03*
X83432Y32375D02*
D03*
X21100Y74000D02*
D03*
X22650Y76450D02*
D03*
X17025Y67600D02*
D03*
X18375Y69125D02*
D03*
X15900Y65825D02*
D03*
X18462Y70050D02*
D03*
X19850Y72450D02*
D03*
X19688Y71561D02*
D03*
X21450Y74900D02*
D03*
X9275Y9321D02*
D03*
X10575Y10475D02*
D03*
X11725Y9375D02*
D03*
X12950Y10475D02*
D03*
X14275Y9339D02*
D03*
X18255Y66125D02*
D03*
X22007Y52083D02*
D03*
X23022Y52090D02*
D03*
X27408Y48562D02*
D03*
X27425Y49557D02*
D03*
X35997Y63315D02*
D03*
X37250Y58860D02*
D03*
X37300Y56817D02*
D03*
X35964Y54425D02*
D03*
X17725Y40950D02*
D03*
X19959Y39554D02*
D03*
X15475Y39570D02*
D03*
X36940Y89075D02*
D03*
X50350Y86832D02*
D03*
X51262Y81775D02*
D03*
X52364Y80625D02*
D03*
X51268Y79423D02*
D03*
X51243Y71748D02*
D03*
X52339Y72950D02*
D03*
X51237Y74100D02*
D03*
X77329Y77513D02*
D03*
X126979Y11475D02*
D03*
X120075Y11425D02*
D03*
X122486Y18297D02*
D03*
X122711Y29644D02*
D03*
X123311Y37100D02*
D03*
X140661Y24875D02*
D03*
X140450Y36495D02*
D03*
X123511Y25869D02*
D03*
X137716Y64200D02*
D03*
X136832Y60225D02*
D03*
X136432Y62475D02*
D03*
X133354Y40075D02*
D03*
X135325Y49950D02*
D03*
X131575Y53750D02*
D03*
X149300Y41300D02*
D03*
X120825Y49425D02*
D03*
X129531Y61050D02*
D03*
X127750Y62540D02*
D03*
X129432Y62506D02*
D03*
X103475Y97800D02*
D03*
X108225Y94800D02*
D03*
X109195Y94825D02*
D03*
X110300Y94775D02*
D03*
X111320D02*
D03*
X111299Y83075D02*
D03*
X106464Y82536D02*
D03*
X92925Y82725D02*
D03*
X90450Y91346D02*
D03*
X91435Y91350D02*
D03*
X92450Y91346D02*
D03*
X93450Y91355D02*
D03*
X94450Y91346D02*
D03*
X95445Y91355D02*
D03*
X96425Y91352D02*
D03*
X97450D02*
D03*
X98450Y91355D02*
D03*
X100445D02*
D03*
X101450D02*
D03*
X102450D02*
D03*
X103450D02*
D03*
X104450Y89125D02*
D03*
X100100Y94735D02*
D03*
X102550Y94725D02*
D03*
X81900Y82325D02*
D03*
X112975Y73000D02*
D03*
X117700Y43136D02*
D03*
X115725Y41775D02*
D03*
X120125Y42925D02*
D03*
X123175Y53225D02*
D03*
X118025Y48650D02*
D03*
X113575Y48495D02*
D03*
X118900Y54765D02*
D03*
X111575Y55720D02*
D03*
Y56720D02*
D03*
X79570Y91125D02*
D03*
X79625Y86800D02*
D03*
X80525Y88900D02*
D03*
X71750Y87586D02*
D03*
X70663Y86500D02*
D03*
X68975D02*
D03*
X67863Y87575D02*
D03*
X64414Y83200D02*
D03*
X58025Y74225D02*
D03*
X62694Y72075D02*
D03*
X78414Y63200D02*
D03*
X77200Y67190D02*
D03*
Y71331D02*
D03*
X86193Y81200D02*
D03*
X108000Y81133D02*
D03*
X81320Y32606D02*
D03*
X116350Y65100D02*
D03*
X97435Y81200D02*
D03*
X123307Y13350D02*
D03*
X110325Y83075D02*
D03*
X44803Y54642D02*
D03*
X45455Y50060D02*
D03*
X78414Y61975D02*
D03*
X80300Y32600D02*
D03*
M02*
