G04*
G04 #@! TF.GenerationSoftware,Altium Limited,Altium Designer,22.7.1 (60)*
G04*
G04 Layer_Color=16711935*
%FSLAX43Y43*%
%MOMM*%
G71*
G04*
G04 #@! TF.SameCoordinates,6218B3DD-F4BF-4AD2-B5C1-062D57A95E1A*
G04*
G04*
G04 #@! TF.FilePolarity,Negative*
G04*
G01*
G75*
G04:AMPARAMS|DCode=24|XSize=0.69mm|YSize=0.7mm|CornerRadius=0.124mm|HoleSize=0mm|Usage=FLASHONLY|Rotation=180.000|XOffset=0mm|YOffset=0mm|HoleType=Round|Shape=RoundedRectangle|*
%AMROUNDEDRECTD24*
21,1,0.690,0.453,0,0,180.0*
21,1,0.443,0.700,0,0,180.0*
1,1,0.248,-0.221,0.226*
1,1,0.248,0.221,0.226*
1,1,0.248,0.221,-0.226*
1,1,0.248,-0.221,-0.226*
%
%ADD24ROUNDEDRECTD24*%
G04:AMPARAMS|DCode=25|XSize=0.75mm|YSize=0.8mm|CornerRadius=0.131mm|HoleSize=0mm|Usage=FLASHONLY|Rotation=90.000|XOffset=0mm|YOffset=0mm|HoleType=Round|Shape=RoundedRectangle|*
%AMROUNDEDRECTD25*
21,1,0.750,0.538,0,0,90.0*
21,1,0.488,0.800,0,0,90.0*
1,1,0.263,0.269,0.244*
1,1,0.263,0.269,-0.244*
1,1,0.263,-0.269,-0.244*
1,1,0.263,-0.269,0.244*
%
%ADD25ROUNDEDRECTD25*%
G04:AMPARAMS|DCode=27|XSize=0.71mm|YSize=0.7mm|CornerRadius=0.125mm|HoleSize=0mm|Usage=FLASHONLY|Rotation=270.000|XOffset=0mm|YOffset=0mm|HoleType=Round|Shape=RoundedRectangle|*
%AMROUNDEDRECTD27*
21,1,0.710,0.450,0,0,270.0*
21,1,0.460,0.700,0,0,270.0*
1,1,0.250,-0.225,-0.230*
1,1,0.250,-0.225,0.230*
1,1,0.250,0.225,0.230*
1,1,0.250,0.225,-0.230*
%
%ADD27ROUNDEDRECTD27*%
G04:AMPARAMS|DCode=28|XSize=1.31mm|YSize=1.56mm|CornerRadius=0.201mm|HoleSize=0mm|Usage=FLASHONLY|Rotation=270.000|XOffset=0mm|YOffset=0mm|HoleType=Round|Shape=RoundedRectangle|*
%AMROUNDEDRECTD28*
21,1,1.310,1.158,0,0,270.0*
21,1,0.907,1.560,0,0,270.0*
1,1,0.403,-0.579,-0.454*
1,1,0.403,-0.579,0.454*
1,1,0.403,0.579,0.454*
1,1,0.403,0.579,-0.454*
%
%ADD28ROUNDEDRECTD28*%
G04:AMPARAMS|DCode=29|XSize=1.04mm|YSize=1.13mm|CornerRadius=0.168mm|HoleSize=0mm|Usage=FLASHONLY|Rotation=0.000|XOffset=0mm|YOffset=0mm|HoleType=Round|Shape=RoundedRectangle|*
%AMROUNDEDRECTD29*
21,1,1.040,0.795,0,0,0.0*
21,1,0.705,1.130,0,0,0.0*
1,1,0.335,0.353,-0.398*
1,1,0.335,-0.353,-0.398*
1,1,0.335,-0.353,0.398*
1,1,0.335,0.353,0.398*
%
%ADD29ROUNDEDRECTD29*%
G04:AMPARAMS|DCode=31|XSize=1.02mm|YSize=1.18mm|CornerRadius=0.165mm|HoleSize=0mm|Usage=FLASHONLY|Rotation=0.000|XOffset=0mm|YOffset=0mm|HoleType=Round|Shape=RoundedRectangle|*
%AMROUNDEDRECTD31*
21,1,1.020,0.850,0,0,0.0*
21,1,0.690,1.180,0,0,0.0*
1,1,0.330,0.345,-0.425*
1,1,0.330,-0.345,-0.425*
1,1,0.330,-0.345,0.425*
1,1,0.330,0.345,0.425*
%
%ADD31ROUNDEDRECTD31*%
G04:AMPARAMS|DCode=32|XSize=0.69mm|YSize=0.7mm|CornerRadius=0.124mm|HoleSize=0mm|Usage=FLASHONLY|Rotation=270.000|XOffset=0mm|YOffset=0mm|HoleType=Round|Shape=RoundedRectangle|*
%AMROUNDEDRECTD32*
21,1,0.690,0.453,0,0,270.0*
21,1,0.443,0.700,0,0,270.0*
1,1,0.248,-0.226,-0.221*
1,1,0.248,-0.226,0.221*
1,1,0.248,0.226,0.221*
1,1,0.248,0.226,-0.221*
%
%ADD32ROUNDEDRECTD32*%
G04:AMPARAMS|DCode=38|XSize=0.75mm|YSize=0.8mm|CornerRadius=0.131mm|HoleSize=0mm|Usage=FLASHONLY|Rotation=0.000|XOffset=0mm|YOffset=0mm|HoleType=Round|Shape=RoundedRectangle|*
%AMROUNDEDRECTD38*
21,1,0.750,0.538,0,0,0.0*
21,1,0.488,0.800,0,0,0.0*
1,1,0.263,0.244,-0.269*
1,1,0.263,-0.244,-0.269*
1,1,0.263,-0.244,0.269*
1,1,0.263,0.244,0.269*
%
%ADD38ROUNDEDRECTD38*%
G04:AMPARAMS|DCode=43|XSize=0.71mm|YSize=0.7mm|CornerRadius=0.125mm|HoleSize=0mm|Usage=FLASHONLY|Rotation=0.000|XOffset=0mm|YOffset=0mm|HoleType=Round|Shape=RoundedRectangle|*
%AMROUNDEDRECTD43*
21,1,0.710,0.450,0,0,0.0*
21,1,0.460,0.700,0,0,0.0*
1,1,0.250,0.230,-0.225*
1,1,0.250,-0.230,-0.225*
1,1,0.250,-0.230,0.225*
1,1,0.250,0.230,0.225*
%
%ADD43ROUNDEDRECTD43*%
G04:AMPARAMS|DCode=44|XSize=1.31mm|YSize=1.56mm|CornerRadius=0.201mm|HoleSize=0mm|Usage=FLASHONLY|Rotation=180.000|XOffset=0mm|YOffset=0mm|HoleType=Round|Shape=RoundedRectangle|*
%AMROUNDEDRECTD44*
21,1,1.310,1.158,0,0,180.0*
21,1,0.907,1.560,0,0,180.0*
1,1,0.403,-0.454,0.579*
1,1,0.403,0.454,0.579*
1,1,0.403,0.454,-0.579*
1,1,0.403,-0.454,-0.579*
%
%ADD44ROUNDEDRECTD44*%
G04:AMPARAMS|DCode=69|XSize=1.04mm|YSize=1.13mm|CornerRadius=0.168mm|HoleSize=0mm|Usage=FLASHONLY|Rotation=270.000|XOffset=0mm|YOffset=0mm|HoleType=Round|Shape=RoundedRectangle|*
%AMROUNDEDRECTD69*
21,1,1.040,0.795,0,0,270.0*
21,1,0.705,1.130,0,0,270.0*
1,1,0.335,-0.398,-0.353*
1,1,0.335,-0.398,0.353*
1,1,0.335,0.398,0.353*
1,1,0.335,0.398,-0.353*
%
%ADD69ROUNDEDRECTD69*%
%ADD79C,1.700*%
%ADD80C,1.200*%
%ADD81C,2.100*%
%ADD82C,2.700*%
%ADD83C,0.100*%
%ADD84C,3.600*%
%ADD85C,1.800*%
%ADD86C,1.900*%
%ADD87C,2.000*%
%ADD88C,2.103*%
%ADD89C,3.350*%
%ADD90R,1.498X1.498*%
%ADD91C,2.500*%
%ADD92C,1.498*%
%ADD93C,1.630*%
G04:AMPARAMS|DCode=169|XSize=1.63mm|YSize=1.12mm|CornerRadius=0.178mm|HoleSize=0mm|Usage=FLASHONLY|Rotation=0.000|XOffset=0mm|YOffset=0mm|HoleType=Round|Shape=RoundedRectangle|*
%AMROUNDEDRECTD169*
21,1,1.630,0.765,0,0,0.0*
21,1,1.275,1.120,0,0,0.0*
1,1,0.355,0.638,-0.383*
1,1,0.355,-0.638,-0.383*
1,1,0.355,-0.638,0.383*
1,1,0.355,0.638,0.383*
%
%ADD169ROUNDEDRECTD169*%
G04:AMPARAMS|DCode=170|XSize=2.1mm|YSize=0.45mm|CornerRadius=0.094mm|HoleSize=0mm|Usage=FLASHONLY|Rotation=270.000|XOffset=0mm|YOffset=0mm|HoleType=Round|Shape=RoundedRectangle|*
%AMROUNDEDRECTD170*
21,1,2.100,0.263,0,0,270.0*
21,1,1.913,0.450,0,0,270.0*
1,1,0.188,-0.131,-0.956*
1,1,0.188,-0.131,0.956*
1,1,0.188,0.131,0.956*
1,1,0.188,0.131,-0.956*
%
%ADD170ROUNDEDRECTD170*%
G04:AMPARAMS|DCode=171|XSize=4.7mm|YSize=4.6mm|CornerRadius=0.613mm|HoleSize=0mm|Usage=FLASHONLY|Rotation=270.000|XOffset=0mm|YOffset=0mm|HoleType=Round|Shape=RoundedRectangle|*
%AMROUNDEDRECTD171*
21,1,4.700,3.375,0,0,270.0*
21,1,3.475,4.600,0,0,270.0*
1,1,1.225,-1.688,-1.738*
1,1,1.225,-1.688,1.738*
1,1,1.225,1.688,1.738*
1,1,1.225,1.688,-1.738*
%
%ADD171ROUNDEDRECTD171*%
G04:AMPARAMS|DCode=172|XSize=2.843mm|YSize=2.259mm|CornerRadius=0.32mm|HoleSize=0mm|Usage=FLASHONLY|Rotation=270.000|XOffset=0mm|YOffset=0mm|HoleType=Round|Shape=RoundedRectangle|*
%AMROUNDEDRECTD172*
21,1,2.843,1.619,0,0,270.0*
21,1,2.203,2.259,0,0,270.0*
1,1,0.640,-0.810,-1.102*
1,1,0.640,-0.810,1.102*
1,1,0.640,0.810,1.102*
1,1,0.640,0.810,-1.102*
%
%ADD172ROUNDEDRECTD172*%
D24*
X102688Y10800D02*
D03*
X103713D02*
D03*
D25*
X34966Y31125D02*
D03*
Y32125D02*
D03*
X37013Y32100D02*
D03*
Y31100D02*
D03*
X37013Y33550D02*
D03*
Y34550D02*
D03*
X39135Y32125D02*
D03*
X39135Y31125D02*
D03*
X45040Y31200D02*
D03*
Y32200D02*
D03*
X46624Y32199D02*
D03*
Y31199D02*
D03*
X48213Y32225D02*
D03*
Y31225D02*
D03*
D27*
X124068Y27691D02*
D03*
X124068Y28691D02*
D03*
X34965Y34600D02*
D03*
Y33600D02*
D03*
X39140Y34525D02*
D03*
X39140Y33525D02*
D03*
X45040Y34625D02*
D03*
Y33625D02*
D03*
X46599Y34599D02*
D03*
Y33599D02*
D03*
X48200Y34625D02*
D03*
Y33625D02*
D03*
D28*
X130545Y29905D02*
D03*
Y28215D02*
D03*
D29*
X59300Y84950D02*
D03*
X57700Y84950D02*
D03*
D31*
X114600Y17900D02*
D03*
X116200Y17900D02*
D03*
D32*
X125388Y28715D02*
D03*
Y27690D02*
D03*
X108896Y85320D02*
D03*
X108896Y84295D02*
D03*
D38*
X103700Y26930D02*
D03*
X102675D02*
D03*
X42613Y33626D02*
D03*
X41588D02*
D03*
X106675Y85280D02*
D03*
X107700D02*
D03*
D43*
X92300Y86781D02*
D03*
X93300D02*
D03*
D44*
X42934Y31606D02*
D03*
X41244Y31606D02*
D03*
D69*
X61100Y84900D02*
D03*
X61100Y86500D02*
D03*
D79*
X44293Y78400D02*
D03*
X82100Y94750D02*
D03*
X80100D02*
D03*
X54699Y95975D02*
D03*
X56699D02*
D03*
D80*
X111093Y78400D02*
D03*
D81*
X40433Y86280D02*
D03*
X40433Y88820D02*
D03*
X40433Y78660D02*
D03*
X40433Y81200D02*
D03*
X40433Y91360D02*
D03*
D82*
X15075Y22675D02*
D03*
X11575D02*
D03*
D83*
X13325Y14765D02*
D03*
X68060Y97875D02*
D03*
X112834Y27475D02*
D03*
X84100Y96650D02*
D03*
X58699Y97875D02*
D03*
X112934Y14525D02*
D03*
X88300Y88869D02*
D03*
X30850Y18225D02*
D03*
D84*
X111063Y10086D02*
D03*
X21563D02*
D03*
X-1751Y13526D02*
D03*
X8017Y68926D02*
D03*
X73239Y99793D02*
D03*
X24463Y58448D02*
D03*
D85*
X64060Y95975D02*
D03*
X66060D02*
D03*
X26850Y16325D02*
D03*
X28850D02*
D03*
D86*
X110934Y29475D02*
D03*
Y35475D02*
D03*
Y33475D02*
D03*
Y31475D02*
D03*
X111034Y18525D02*
D03*
Y20525D02*
D03*
Y22525D02*
D03*
Y16525D02*
D03*
X94300Y90769D02*
D03*
X92300D02*
D03*
X90300Y90769D02*
D03*
D87*
X-3200Y32300D02*
D03*
X5700Y8400D02*
D03*
D88*
X300Y32300D02*
D03*
X2200Y8400D02*
D03*
D89*
X119670Y17175D02*
D03*
X131100D02*
D03*
D90*
X120940Y23525D02*
D03*
D91*
X117640Y20225D02*
D03*
X133130D02*
D03*
D92*
X122210Y26065D02*
D03*
X123480Y23525D02*
D03*
X124750Y26065D02*
D03*
X126020Y23525D02*
D03*
X127290Y26065D02*
D03*
X128560Y23525D02*
D03*
X129830Y26065D02*
D03*
D93*
X118655Y12605D02*
D03*
X121195D02*
D03*
X129575D02*
D03*
X132115D02*
D03*
D169*
X132918Y28052D02*
D03*
Y30067D02*
D03*
D170*
X46043Y82500D02*
D03*
X46343Y74300D02*
D03*
X46643Y82500D02*
D03*
X46943Y74300D02*
D03*
X47243Y82500D02*
D03*
X47543Y74300D02*
D03*
X47843Y82500D02*
D03*
X48143Y74300D02*
D03*
X48443Y82500D02*
D03*
X48743Y74300D02*
D03*
X49043Y82500D02*
D03*
X49343Y74300D02*
D03*
X49643Y82500D02*
D03*
X49943Y74300D02*
D03*
X50193Y82500D02*
D03*
X50543Y74300D02*
D03*
X50843Y82500D02*
D03*
X51143Y74300D02*
D03*
X51443Y82500D02*
D03*
X51743Y74300D02*
D03*
X52043Y82500D02*
D03*
X52343Y74300D02*
D03*
X52643Y82500D02*
D03*
X52943Y74300D02*
D03*
X53243Y82500D02*
D03*
X53543Y74300D02*
D03*
X53843Y82500D02*
D03*
X54143Y74300D02*
D03*
X54443Y82500D02*
D03*
X54743Y74300D02*
D03*
X55043Y82500D02*
D03*
X55343Y74300D02*
D03*
X55643Y82500D02*
D03*
X55943Y74300D02*
D03*
X56243Y82500D02*
D03*
X56543Y74300D02*
D03*
X56843Y82500D02*
D03*
X57143Y74300D02*
D03*
X57443Y82500D02*
D03*
X57743Y74300D02*
D03*
X61643Y82500D02*
D03*
X61943Y74300D02*
D03*
X62243Y82500D02*
D03*
X62543Y74300D02*
D03*
X62843Y82500D02*
D03*
X63143Y74300D02*
D03*
X63443Y82500D02*
D03*
X63743Y74300D02*
D03*
X64043Y82500D02*
D03*
X64343Y74300D02*
D03*
X64643Y82500D02*
D03*
X64943Y74300D02*
D03*
X65193Y82500D02*
D03*
X65543Y74300D02*
D03*
X65843Y82500D02*
D03*
X66143Y74300D02*
D03*
X66443Y82500D02*
D03*
X66743Y74300D02*
D03*
X67043Y82500D02*
D03*
X67343Y74300D02*
D03*
X67643Y82500D02*
D03*
X67943Y74300D02*
D03*
X68243Y82500D02*
D03*
X68543Y74300D02*
D03*
X68843Y82500D02*
D03*
X69143Y74300D02*
D03*
X69443Y82500D02*
D03*
X69743Y74300D02*
D03*
X70043Y82500D02*
D03*
X70343Y74300D02*
D03*
X70643Y82500D02*
D03*
X70943Y74300D02*
D03*
X71243Y82500D02*
D03*
X71543Y74300D02*
D03*
X71843Y82500D02*
D03*
X72143Y74300D02*
D03*
X72443Y82500D02*
D03*
X72743Y74300D02*
D03*
X73043Y82500D02*
D03*
X73343Y74300D02*
D03*
X73643Y82500D02*
D03*
X73943Y74300D02*
D03*
X74243Y82500D02*
D03*
X74543Y74300D02*
D03*
X74843Y82500D02*
D03*
X75143Y74300D02*
D03*
X75443Y82500D02*
D03*
X75743Y74300D02*
D03*
X76043Y82500D02*
D03*
X76343Y74300D02*
D03*
X76643Y82500D02*
D03*
X76943Y74300D02*
D03*
X77243Y82500D02*
D03*
X77543Y74300D02*
D03*
X77843Y82500D02*
D03*
X78143Y74300D02*
D03*
X78443Y82500D02*
D03*
X78743Y74300D02*
D03*
X79043Y82500D02*
D03*
X79343Y74300D02*
D03*
X79643Y82500D02*
D03*
X79943Y74300D02*
D03*
X80243Y82500D02*
D03*
X80543Y74300D02*
D03*
X80843Y82500D02*
D03*
X81143Y74300D02*
D03*
X81443Y82500D02*
D03*
X81743Y74300D02*
D03*
X82043Y82500D02*
D03*
X82343Y74300D02*
D03*
X82643Y82500D02*
D03*
X82943Y74300D02*
D03*
X83243Y82500D02*
D03*
X83543Y74300D02*
D03*
X83843Y82500D02*
D03*
X84143Y74300D02*
D03*
X84443Y82500D02*
D03*
X84743Y74300D02*
D03*
X85043Y82500D02*
D03*
X85343Y74300D02*
D03*
X85643Y82500D02*
D03*
X85943Y74300D02*
D03*
X86243Y82500D02*
D03*
X86543Y74300D02*
D03*
X86843Y82500D02*
D03*
X87143Y74300D02*
D03*
X87443Y82500D02*
D03*
X87743Y74300D02*
D03*
X88043Y82500D02*
D03*
X88343Y74300D02*
D03*
X88643Y82500D02*
D03*
X88943Y74300D02*
D03*
X89243Y82500D02*
D03*
X89543Y74300D02*
D03*
X89843Y82500D02*
D03*
X90143Y74300D02*
D03*
X90443Y82500D02*
D03*
X90743Y74300D02*
D03*
X91043Y82500D02*
D03*
X91343Y74300D02*
D03*
X91643Y82500D02*
D03*
X91943Y74300D02*
D03*
X92243Y82500D02*
D03*
X92543Y74300D02*
D03*
X92843Y82500D02*
D03*
X93143Y74300D02*
D03*
X93443Y82500D02*
D03*
X93743Y74300D02*
D03*
X94043Y82500D02*
D03*
X94343Y74300D02*
D03*
X94643Y82500D02*
D03*
X94943Y74300D02*
D03*
X95243Y82500D02*
D03*
X95543Y74300D02*
D03*
X95843Y82500D02*
D03*
X96143Y74300D02*
D03*
X96443Y82500D02*
D03*
X96743Y74300D02*
D03*
X97043Y82500D02*
D03*
X97343Y74300D02*
D03*
X97643Y82500D02*
D03*
X97943Y74300D02*
D03*
X98243Y82500D02*
D03*
X98543Y74300D02*
D03*
X98843Y82500D02*
D03*
X99143Y74300D02*
D03*
X99443Y82500D02*
D03*
X99743Y74300D02*
D03*
X100043Y82500D02*
D03*
X100343Y74300D02*
D03*
X100643Y82500D02*
D03*
X100943Y74300D02*
D03*
X101243Y82500D02*
D03*
X101543Y74300D02*
D03*
X101843Y82500D02*
D03*
X102143Y74300D02*
D03*
X102443Y82500D02*
D03*
X102743Y74300D02*
D03*
X103043Y82500D02*
D03*
X103343Y74300D02*
D03*
X103643Y82500D02*
D03*
X103943Y74300D02*
D03*
X104243Y82500D02*
D03*
X104543Y74300D02*
D03*
X104843Y82500D02*
D03*
X105143Y74300D02*
D03*
X105443Y82500D02*
D03*
X105743Y74300D02*
D03*
X106043Y82500D02*
D03*
X106343Y74300D02*
D03*
X106643Y82500D02*
D03*
X106943Y74300D02*
D03*
X107243Y82500D02*
D03*
X107543Y74300D02*
D03*
X107843Y82500D02*
D03*
X108143Y74300D02*
D03*
X108443Y82500D02*
D03*
X108743Y74300D02*
D03*
X109043Y82500D02*
D03*
X109343Y74300D02*
D03*
D171*
X45143Y66400D02*
D03*
X110243D02*
D03*
D172*
X11445Y27017D02*
D03*
X15205Y27017D02*
D03*
M02*
