G04*
G04 #@! TF.GenerationSoftware,Altium Limited,Altium Designer,22.7.1 (60)*
G04*
G04 Layer_Color=8388736*
%FSLAX43Y43*%
%MOMM*%
G71*
G04*
G04 #@! TF.SameCoordinates,6218B3DD-F4BF-4AD2-B5C1-062D57A95E1A*
G04*
G04*
G04 #@! TF.FilePolarity,Negative*
G04*
G01*
G75*
G04:AMPARAMS|DCode=24|XSize=0.69mm|YSize=0.7mm|CornerRadius=0.124mm|HoleSize=0mm|Usage=FLASHONLY|Rotation=180.000|XOffset=0mm|YOffset=0mm|HoleType=Round|Shape=RoundedRectangle|*
%AMROUNDEDRECTD24*
21,1,0.690,0.453,0,0,180.0*
21,1,0.443,0.700,0,0,180.0*
1,1,0.248,-0.221,0.226*
1,1,0.248,0.221,0.226*
1,1,0.248,0.221,-0.226*
1,1,0.248,-0.221,-0.226*
%
%ADD24ROUNDEDRECTD24*%
G04:AMPARAMS|DCode=25|XSize=0.75mm|YSize=0.8mm|CornerRadius=0.131mm|HoleSize=0mm|Usage=FLASHONLY|Rotation=90.000|XOffset=0mm|YOffset=0mm|HoleType=Round|Shape=RoundedRectangle|*
%AMROUNDEDRECTD25*
21,1,0.750,0.538,0,0,90.0*
21,1,0.488,0.800,0,0,90.0*
1,1,0.263,0.269,0.244*
1,1,0.263,0.269,-0.244*
1,1,0.263,-0.269,-0.244*
1,1,0.263,-0.269,0.244*
%
%ADD25ROUNDEDRECTD25*%
G04:AMPARAMS|DCode=26|XSize=1.9mm|YSize=2.1mm|CornerRadius=0.275mm|HoleSize=0mm|Usage=FLASHONLY|Rotation=180.000|XOffset=0mm|YOffset=0mm|HoleType=Round|Shape=RoundedRectangle|*
%AMROUNDEDRECTD26*
21,1,1.900,1.550,0,0,180.0*
21,1,1.350,2.100,0,0,180.0*
1,1,0.550,-0.675,0.775*
1,1,0.550,0.675,0.775*
1,1,0.550,0.675,-0.775*
1,1,0.550,-0.675,-0.775*
%
%ADD26ROUNDEDRECTD26*%
G04:AMPARAMS|DCode=27|XSize=0.71mm|YSize=0.7mm|CornerRadius=0.125mm|HoleSize=0mm|Usage=FLASHONLY|Rotation=270.000|XOffset=0mm|YOffset=0mm|HoleType=Round|Shape=RoundedRectangle|*
%AMROUNDEDRECTD27*
21,1,0.710,0.450,0,0,270.0*
21,1,0.460,0.700,0,0,270.0*
1,1,0.250,-0.225,-0.230*
1,1,0.250,-0.225,0.230*
1,1,0.250,0.225,0.230*
1,1,0.250,0.225,-0.230*
%
%ADD27ROUNDEDRECTD27*%
G04:AMPARAMS|DCode=28|XSize=1.31mm|YSize=1.56mm|CornerRadius=0.201mm|HoleSize=0mm|Usage=FLASHONLY|Rotation=270.000|XOffset=0mm|YOffset=0mm|HoleType=Round|Shape=RoundedRectangle|*
%AMROUNDEDRECTD28*
21,1,1.310,1.158,0,0,270.0*
21,1,0.907,1.560,0,0,270.0*
1,1,0.403,-0.579,-0.454*
1,1,0.403,-0.579,0.454*
1,1,0.403,0.579,0.454*
1,1,0.403,0.579,-0.454*
%
%ADD28ROUNDEDRECTD28*%
G04:AMPARAMS|DCode=29|XSize=1.04mm|YSize=1.13mm|CornerRadius=0.168mm|HoleSize=0mm|Usage=FLASHONLY|Rotation=0.000|XOffset=0mm|YOffset=0mm|HoleType=Round|Shape=RoundedRectangle|*
%AMROUNDEDRECTD29*
21,1,1.040,0.795,0,0,0.0*
21,1,0.705,1.130,0,0,0.0*
1,1,0.335,0.353,-0.398*
1,1,0.335,-0.353,-0.398*
1,1,0.335,-0.353,0.398*
1,1,0.335,0.353,0.398*
%
%ADD29ROUNDEDRECTD29*%
G04:AMPARAMS|DCode=30|XSize=1.1mm|YSize=1.2mm|CornerRadius=0.175mm|HoleSize=0mm|Usage=FLASHONLY|Rotation=180.000|XOffset=0mm|YOffset=0mm|HoleType=Round|Shape=RoundedRectangle|*
%AMROUNDEDRECTD30*
21,1,1.100,0.850,0,0,180.0*
21,1,0.750,1.200,0,0,180.0*
1,1,0.350,-0.375,0.425*
1,1,0.350,0.375,0.425*
1,1,0.350,0.375,-0.425*
1,1,0.350,-0.375,-0.425*
%
%ADD30ROUNDEDRECTD30*%
G04:AMPARAMS|DCode=31|XSize=1.02mm|YSize=1.18mm|CornerRadius=0.165mm|HoleSize=0mm|Usage=FLASHONLY|Rotation=0.000|XOffset=0mm|YOffset=0mm|HoleType=Round|Shape=RoundedRectangle|*
%AMROUNDEDRECTD31*
21,1,1.020,0.850,0,0,0.0*
21,1,0.690,1.180,0,0,0.0*
1,1,0.330,0.345,-0.425*
1,1,0.330,-0.345,-0.425*
1,1,0.330,-0.345,0.425*
1,1,0.330,0.345,0.425*
%
%ADD31ROUNDEDRECTD31*%
G04:AMPARAMS|DCode=32|XSize=0.69mm|YSize=0.7mm|CornerRadius=0.124mm|HoleSize=0mm|Usage=FLASHONLY|Rotation=270.000|XOffset=0mm|YOffset=0mm|HoleType=Round|Shape=RoundedRectangle|*
%AMROUNDEDRECTD32*
21,1,0.690,0.453,0,0,270.0*
21,1,0.443,0.700,0,0,270.0*
1,1,0.248,-0.226,-0.221*
1,1,0.248,-0.226,0.221*
1,1,0.248,0.226,0.221*
1,1,0.248,0.226,-0.221*
%
%ADD32ROUNDEDRECTD32*%
G04:AMPARAMS|DCode=33|XSize=2.15mm|YSize=0.69mm|CornerRadius=0.124mm|HoleSize=0mm|Usage=FLASHONLY|Rotation=0.000|XOffset=0mm|YOffset=0mm|HoleType=Round|Shape=RoundedRectangle|*
%AMROUNDEDRECTD33*
21,1,2.150,0.443,0,0,0.0*
21,1,1.903,0.690,0,0,0.0*
1,1,0.248,0.951,-0.221*
1,1,0.248,-0.951,-0.221*
1,1,0.248,-0.951,0.221*
1,1,0.248,0.951,0.221*
%
%ADD33ROUNDEDRECTD33*%
G04:AMPARAMS|DCode=34|XSize=1.4mm|YSize=3.57mm|CornerRadius=0.213mm|HoleSize=0mm|Usage=FLASHONLY|Rotation=90.000|XOffset=0mm|YOffset=0mm|HoleType=Round|Shape=RoundedRectangle|*
%AMROUNDEDRECTD34*
21,1,1.400,3.145,0,0,90.0*
21,1,0.975,3.570,0,0,90.0*
1,1,0.425,1.573,0.488*
1,1,0.425,1.573,-0.488*
1,1,0.425,-1.573,-0.488*
1,1,0.425,-1.573,0.488*
%
%ADD34ROUNDEDRECTD34*%
G04:AMPARAMS|DCode=35|XSize=2.25mm|YSize=4.63mm|CornerRadius=0.319mm|HoleSize=0mm|Usage=FLASHONLY|Rotation=90.000|XOffset=0mm|YOffset=0mm|HoleType=Round|Shape=RoundedRectangle|*
%AMROUNDEDRECTD35*
21,1,2.250,3.993,0,0,90.0*
21,1,1.613,4.630,0,0,90.0*
1,1,0.638,1.996,0.806*
1,1,0.638,1.996,-0.806*
1,1,0.638,-1.996,-0.806*
1,1,0.638,-1.996,0.806*
%
%ADD35ROUNDEDRECTD35*%
G04:AMPARAMS|DCode=36|XSize=10.1mm|YSize=3.7mm|CornerRadius=0.95mm|HoleSize=0mm|Usage=FLASHONLY|Rotation=90.000|XOffset=0mm|YOffset=0mm|HoleType=Round|Shape=RoundedRectangle|*
%AMROUNDEDRECTD36*
21,1,10.100,1.800,0,0,90.0*
21,1,8.200,3.700,0,0,90.0*
1,1,1.900,0.900,4.100*
1,1,1.900,0.900,-4.100*
1,1,1.900,-0.900,-4.100*
1,1,1.900,-0.900,4.100*
%
%ADD36ROUNDEDRECTD36*%
G04:AMPARAMS|DCode=37|XSize=0.78mm|YSize=2.27mm|CornerRadius=0.135mm|HoleSize=0mm|Usage=FLASHONLY|Rotation=0.000|XOffset=0mm|YOffset=0mm|HoleType=Round|Shape=RoundedRectangle|*
%AMROUNDEDRECTD37*
21,1,0.780,2.000,0,0,0.0*
21,1,0.510,2.270,0,0,0.0*
1,1,0.270,0.255,-1.000*
1,1,0.270,-0.255,-1.000*
1,1,0.270,-0.255,1.000*
1,1,0.270,0.255,1.000*
%
%ADD37ROUNDEDRECTD37*%
G04:AMPARAMS|DCode=38|XSize=0.75mm|YSize=0.8mm|CornerRadius=0.131mm|HoleSize=0mm|Usage=FLASHONLY|Rotation=0.000|XOffset=0mm|YOffset=0mm|HoleType=Round|Shape=RoundedRectangle|*
%AMROUNDEDRECTD38*
21,1,0.750,0.538,0,0,0.0*
21,1,0.488,0.800,0,0,0.0*
1,1,0.263,0.244,-0.269*
1,1,0.263,-0.244,-0.269*
1,1,0.263,-0.244,0.269*
1,1,0.263,0.244,0.269*
%
%ADD38ROUNDEDRECTD38*%
G04:AMPARAMS|DCode=39|XSize=1.2mm|YSize=1.2mm|CornerRadius=0.188mm|HoleSize=0mm|Usage=FLASHONLY|Rotation=0.000|XOffset=0mm|YOffset=0mm|HoleType=Round|Shape=RoundedRectangle|*
%AMROUNDEDRECTD39*
21,1,1.200,0.825,0,0,0.0*
21,1,0.825,1.200,0,0,0.0*
1,1,0.375,0.413,-0.413*
1,1,0.375,-0.413,-0.413*
1,1,0.375,-0.413,0.413*
1,1,0.375,0.413,0.413*
%
%ADD39ROUNDEDRECTD39*%
G04:AMPARAMS|DCode=40|XSize=1.05mm|YSize=0.4mm|CornerRadius=0.088mm|HoleSize=0mm|Usage=FLASHONLY|Rotation=180.000|XOffset=0mm|YOffset=0mm|HoleType=Round|Shape=RoundedRectangle|*
%AMROUNDEDRECTD40*
21,1,1.050,0.225,0,0,180.0*
21,1,0.875,0.400,0,0,180.0*
1,1,0.175,-0.438,0.113*
1,1,0.175,0.438,0.113*
1,1,0.175,0.438,-0.113*
1,1,0.175,-0.438,-0.113*
%
%ADD40ROUNDEDRECTD40*%
G04:AMPARAMS|DCode=41|XSize=7.4mm|YSize=7.4mm|CornerRadius=0.233mm|HoleSize=0mm|Usage=FLASHONLY|Rotation=270.000|XOffset=0mm|YOffset=0mm|HoleType=Round|Shape=RoundedRectangle|*
%AMROUNDEDRECTD41*
21,1,7.400,6.935,0,0,270.0*
21,1,6.935,7.400,0,0,270.0*
1,1,0.465,-3.468,-3.468*
1,1,0.465,-3.468,3.468*
1,1,0.465,3.468,3.468*
1,1,0.465,3.468,-3.468*
%
%ADD41ROUNDEDRECTD41*%
G04:AMPARAMS|DCode=42|XSize=1.05mm|YSize=0.4mm|CornerRadius=0.088mm|HoleSize=0mm|Usage=FLASHONLY|Rotation=90.000|XOffset=0mm|YOffset=0mm|HoleType=Round|Shape=RoundedRectangle|*
%AMROUNDEDRECTD42*
21,1,1.050,0.225,0,0,90.0*
21,1,0.875,0.400,0,0,90.0*
1,1,0.175,0.113,0.438*
1,1,0.175,0.113,-0.438*
1,1,0.175,-0.113,-0.438*
1,1,0.175,-0.113,0.438*
%
%ADD42ROUNDEDRECTD42*%
G04:AMPARAMS|DCode=43|XSize=0.71mm|YSize=0.7mm|CornerRadius=0.125mm|HoleSize=0mm|Usage=FLASHONLY|Rotation=0.000|XOffset=0mm|YOffset=0mm|HoleType=Round|Shape=RoundedRectangle|*
%AMROUNDEDRECTD43*
21,1,0.710,0.450,0,0,0.0*
21,1,0.460,0.700,0,0,0.0*
1,1,0.250,0.230,-0.225*
1,1,0.250,-0.230,-0.225*
1,1,0.250,-0.230,0.225*
1,1,0.250,0.230,0.225*
%
%ADD43ROUNDEDRECTD43*%
G04:AMPARAMS|DCode=44|XSize=1.31mm|YSize=1.56mm|CornerRadius=0.201mm|HoleSize=0mm|Usage=FLASHONLY|Rotation=180.000|XOffset=0mm|YOffset=0mm|HoleType=Round|Shape=RoundedRectangle|*
%AMROUNDEDRECTD44*
21,1,1.310,1.158,0,0,180.0*
21,1,0.907,1.560,0,0,180.0*
1,1,0.403,-0.454,0.579*
1,1,0.403,0.454,0.579*
1,1,0.403,0.454,-0.579*
1,1,0.403,-0.454,-0.579*
%
%ADD44ROUNDEDRECTD44*%
G04:AMPARAMS|DCode=45|XSize=0.71mm|YSize=2.01mm|CornerRadius=0.126mm|HoleSize=0mm|Usage=FLASHONLY|Rotation=270.000|XOffset=0mm|YOffset=0mm|HoleType=Round|Shape=RoundedRectangle|*
%AMROUNDEDRECTD45*
21,1,0.710,1.758,0,0,270.0*
21,1,0.458,2.010,0,0,270.0*
1,1,0.253,-0.879,-0.229*
1,1,0.253,-0.879,0.229*
1,1,0.253,0.879,0.229*
1,1,0.253,0.879,-0.229*
%
%ADD45ROUNDEDRECTD45*%
G04:AMPARAMS|DCode=46|XSize=3.2mm|YSize=2.51mm|CornerRadius=0.351mm|HoleSize=0mm|Usage=FLASHONLY|Rotation=270.000|XOffset=0mm|YOffset=0mm|HoleType=Round|Shape=RoundedRectangle|*
%AMROUNDEDRECTD46*
21,1,3.200,1.808,0,0,270.0*
21,1,2.498,2.510,0,0,270.0*
1,1,0.703,-0.904,-1.249*
1,1,0.703,-0.904,1.249*
1,1,0.703,0.904,1.249*
1,1,0.703,0.904,-1.249*
%
%ADD46ROUNDEDRECTD46*%
G04:AMPARAMS|DCode=47|XSize=1.86mm|YSize=2.92mm|CornerRadius=0.27mm|HoleSize=0mm|Usage=FLASHONLY|Rotation=90.000|XOffset=0mm|YOffset=0mm|HoleType=Round|Shape=RoundedRectangle|*
%AMROUNDEDRECTD47*
21,1,1.860,2.380,0,0,90.0*
21,1,1.320,2.920,0,0,90.0*
1,1,0.540,1.190,0.660*
1,1,0.540,1.190,-0.660*
1,1,0.540,-1.190,-0.660*
1,1,0.540,-1.190,0.660*
%
%ADD47ROUNDEDRECTD47*%
G04:AMPARAMS|DCode=48|XSize=0.75mm|YSize=1.9mm|CornerRadius=0.131mm|HoleSize=0mm|Usage=FLASHONLY|Rotation=0.000|XOffset=0mm|YOffset=0mm|HoleType=Round|Shape=RoundedRectangle|*
%AMROUNDEDRECTD48*
21,1,0.750,1.638,0,0,0.0*
21,1,0.488,1.900,0,0,0.0*
1,1,0.263,0.244,-0.819*
1,1,0.263,-0.244,-0.819*
1,1,0.263,-0.244,0.819*
1,1,0.263,0.244,0.819*
%
%ADD48ROUNDEDRECTD48*%
G04:AMPARAMS|DCode=49|XSize=0.8mm|YSize=2.6mm|CornerRadius=0.225mm|HoleSize=0mm|Usage=FLASHONLY|Rotation=180.000|XOffset=0mm|YOffset=0mm|HoleType=Round|Shape=RoundedRectangle|*
%AMROUNDEDRECTD49*
21,1,0.800,2.150,0,0,180.0*
21,1,0.350,2.600,0,0,180.0*
1,1,0.450,-0.175,1.075*
1,1,0.450,0.175,1.075*
1,1,0.450,0.175,-1.075*
1,1,0.450,-0.175,-1.075*
%
%ADD49ROUNDEDRECTD49*%
G04:AMPARAMS|DCode=50|XSize=1.2mm|YSize=1.2mm|CornerRadius=0.188mm|HoleSize=0mm|Usage=FLASHONLY|Rotation=270.000|XOffset=0mm|YOffset=0mm|HoleType=Round|Shape=RoundedRectangle|*
%AMROUNDEDRECTD50*
21,1,1.200,0.825,0,0,270.0*
21,1,0.825,1.200,0,0,270.0*
1,1,0.375,-0.413,-0.413*
1,1,0.375,-0.413,0.413*
1,1,0.375,0.413,0.413*
1,1,0.375,0.413,-0.413*
%
%ADD50ROUNDEDRECTD50*%
G04:AMPARAMS|DCode=51|XSize=1.8mm|YSize=2.9mm|CornerRadius=0.263mm|HoleSize=0mm|Usage=FLASHONLY|Rotation=270.000|XOffset=0mm|YOffset=0mm|HoleType=Round|Shape=RoundedRectangle|*
%AMROUNDEDRECTD51*
21,1,1.800,2.375,0,0,270.0*
21,1,1.275,2.900,0,0,270.0*
1,1,0.525,-1.188,-0.638*
1,1,0.525,-1.188,0.638*
1,1,0.525,1.188,0.638*
1,1,0.525,1.188,-0.638*
%
%ADD51ROUNDEDRECTD51*%
G04:AMPARAMS|DCode=52|XSize=0.75mm|YSize=1.45mm|CornerRadius=0.131mm|HoleSize=0mm|Usage=FLASHONLY|Rotation=90.000|XOffset=0mm|YOffset=0mm|HoleType=Round|Shape=RoundedRectangle|*
%AMROUNDEDRECTD52*
21,1,0.750,1.188,0,0,90.0*
21,1,0.488,1.450,0,0,90.0*
1,1,0.263,0.594,0.244*
1,1,0.263,0.594,-0.244*
1,1,0.263,-0.594,-0.244*
1,1,0.263,-0.594,0.244*
%
%ADD52ROUNDEDRECTD52*%
G04:AMPARAMS|DCode=53|XSize=1mm|YSize=1.4mm|CornerRadius=0.275mm|HoleSize=0mm|Usage=FLASHONLY|Rotation=180.000|XOffset=0mm|YOffset=0mm|HoleType=Round|Shape=RoundedRectangle|*
%AMROUNDEDRECTD53*
21,1,1.000,0.850,0,0,180.0*
21,1,0.450,1.400,0,0,180.0*
1,1,0.550,-0.225,0.425*
1,1,0.550,0.225,0.425*
1,1,0.550,0.225,-0.425*
1,1,0.550,-0.225,-0.425*
%
%ADD53ROUNDEDRECTD53*%
G04:AMPARAMS|DCode=54|XSize=10.1mm|YSize=3.7mm|CornerRadius=0.95mm|HoleSize=0mm|Usage=FLASHONLY|Rotation=180.000|XOffset=0mm|YOffset=0mm|HoleType=Round|Shape=RoundedRectangle|*
%AMROUNDEDRECTD54*
21,1,10.100,1.800,0,0,180.0*
21,1,8.200,3.700,0,0,180.0*
1,1,1.900,-4.100,0.900*
1,1,1.900,4.100,0.900*
1,1,1.900,4.100,-0.900*
1,1,1.900,-4.100,-0.900*
%
%ADD54ROUNDEDRECTD54*%
G04:AMPARAMS|DCode=55|XSize=1.5mm|YSize=3.1mm|CornerRadius=0.225mm|HoleSize=0mm|Usage=FLASHONLY|Rotation=180.000|XOffset=0mm|YOffset=0mm|HoleType=Round|Shape=RoundedRectangle|*
%AMROUNDEDRECTD55*
21,1,1.500,2.650,0,0,180.0*
21,1,1.050,3.100,0,0,180.0*
1,1,0.450,-0.525,1.325*
1,1,0.450,0.525,1.325*
1,1,0.450,0.525,-1.325*
1,1,0.450,-0.525,-1.325*
%
%ADD55ROUNDEDRECTD55*%
G04:AMPARAMS|DCode=56|XSize=3.24mm|YSize=1.64mm|CornerRadius=0.242mm|HoleSize=0mm|Usage=FLASHONLY|Rotation=90.000|XOffset=0mm|YOffset=0mm|HoleType=Round|Shape=RoundedRectangle|*
%AMROUNDEDRECTD56*
21,1,3.240,1.155,0,0,90.0*
21,1,2.755,1.640,0,0,90.0*
1,1,0.485,0.578,1.378*
1,1,0.485,0.578,-1.378*
1,1,0.485,-0.578,-1.378*
1,1,0.485,-0.578,1.378*
%
%ADD56ROUNDEDRECTD56*%
G04:AMPARAMS|DCode=57|XSize=1.02mm|YSize=1.18mm|CornerRadius=0.165mm|HoleSize=0mm|Usage=FLASHONLY|Rotation=90.000|XOffset=0mm|YOffset=0mm|HoleType=Round|Shape=RoundedRectangle|*
%AMROUNDEDRECTD57*
21,1,1.020,0.850,0,0,90.0*
21,1,0.690,1.180,0,0,90.0*
1,1,0.330,0.425,0.345*
1,1,0.330,0.425,-0.345*
1,1,0.330,-0.425,-0.345*
1,1,0.330,-0.425,0.345*
%
%ADD57ROUNDEDRECTD57*%
G04:AMPARAMS|DCode=58|XSize=1.15mm|YSize=1.17mm|CornerRadius=0.181mm|HoleSize=0mm|Usage=FLASHONLY|Rotation=0.000|XOffset=0mm|YOffset=0mm|HoleType=Round|Shape=RoundedRectangle|*
%AMROUNDEDRECTD58*
21,1,1.150,0.807,0,0,0.0*
21,1,0.788,1.170,0,0,0.0*
1,1,0.363,0.394,-0.404*
1,1,0.363,-0.394,-0.404*
1,1,0.363,-0.394,0.404*
1,1,0.363,0.394,0.404*
%
%ADD58ROUNDEDRECTD58*%
G04:AMPARAMS|DCode=59|XSize=0.4mm|YSize=1.9mm|CornerRadius=0.088mm|HoleSize=0mm|Usage=FLASHONLY|Rotation=0.000|XOffset=0mm|YOffset=0mm|HoleType=Round|Shape=RoundedRectangle|*
%AMROUNDEDRECTD59*
21,1,0.400,1.725,0,0,0.0*
21,1,0.225,1.900,0,0,0.0*
1,1,0.175,0.113,-0.863*
1,1,0.175,-0.113,-0.863*
1,1,0.175,-0.113,0.863*
1,1,0.175,0.113,0.863*
%
%ADD59ROUNDEDRECTD59*%
G04:AMPARAMS|DCode=60|XSize=0.4mm|YSize=1.9mm|CornerRadius=0.088mm|HoleSize=0mm|Usage=FLASHONLY|Rotation=270.000|XOffset=0mm|YOffset=0mm|HoleType=Round|Shape=RoundedRectangle|*
%AMROUNDEDRECTD60*
21,1,0.400,1.725,0,0,270.0*
21,1,0.225,1.900,0,0,270.0*
1,1,0.175,-0.863,-0.113*
1,1,0.175,-0.863,0.113*
1,1,0.175,0.863,0.113*
1,1,0.175,0.863,-0.113*
%
%ADD60ROUNDEDRECTD60*%
G04:AMPARAMS|DCode=61|XSize=3.1mm|YSize=1.5mm|CornerRadius=0.4mm|HoleSize=0mm|Usage=FLASHONLY|Rotation=0.000|XOffset=0mm|YOffset=0mm|HoleType=Round|Shape=RoundedRectangle|*
%AMROUNDEDRECTD61*
21,1,3.100,0.700,0,0,0.0*
21,1,2.300,1.500,0,0,0.0*
1,1,0.800,1.150,-0.350*
1,1,0.800,-1.150,-0.350*
1,1,0.800,-1.150,0.350*
1,1,0.800,1.150,0.350*
%
%ADD61ROUNDEDRECTD61*%
G04:AMPARAMS|DCode=62|XSize=0.63mm|YSize=0.38mm|CornerRadius=0.085mm|HoleSize=0mm|Usage=FLASHONLY|Rotation=270.000|XOffset=0mm|YOffset=0mm|HoleType=Round|Shape=RoundedRectangle|*
%AMROUNDEDRECTD62*
21,1,0.630,0.210,0,0,270.0*
21,1,0.460,0.380,0,0,270.0*
1,1,0.170,-0.105,-0.230*
1,1,0.170,-0.105,0.230*
1,1,0.170,0.105,0.230*
1,1,0.170,0.105,-0.230*
%
%ADD62ROUNDEDRECTD62*%
G04:AMPARAMS|DCode=63|XSize=0.63mm|YSize=0.38mm|CornerRadius=0.085mm|HoleSize=0mm|Usage=FLASHONLY|Rotation=0.000|XOffset=0mm|YOffset=0mm|HoleType=Round|Shape=RoundedRectangle|*
%AMROUNDEDRECTD63*
21,1,0.630,0.210,0,0,0.0*
21,1,0.460,0.380,0,0,0.0*
1,1,0.170,0.230,-0.105*
1,1,0.170,-0.230,-0.105*
1,1,0.170,-0.230,0.105*
1,1,0.170,0.230,0.105*
%
%ADD63ROUNDEDRECTD63*%
G04:AMPARAMS|DCode=64|XSize=1.38mm|YSize=1.97mm|CornerRadius=0.21mm|HoleSize=0mm|Usage=FLASHONLY|Rotation=0.000|XOffset=0mm|YOffset=0mm|HoleType=Round|Shape=RoundedRectangle|*
%AMROUNDEDRECTD64*
21,1,1.380,1.550,0,0,0.0*
21,1,0.960,1.970,0,0,0.0*
1,1,0.420,0.480,-0.775*
1,1,0.420,-0.480,-0.775*
1,1,0.420,-0.480,0.775*
1,1,0.420,0.480,0.775*
%
%ADD64ROUNDEDRECTD64*%
G04:AMPARAMS|DCode=65|XSize=1.1mm|YSize=1.2mm|CornerRadius=0.175mm|HoleSize=0mm|Usage=FLASHONLY|Rotation=90.000|XOffset=0mm|YOffset=0mm|HoleType=Round|Shape=RoundedRectangle|*
%AMROUNDEDRECTD65*
21,1,1.100,0.850,0,0,90.0*
21,1,0.750,1.200,0,0,90.0*
1,1,0.350,0.425,0.375*
1,1,0.350,0.425,-0.375*
1,1,0.350,-0.425,-0.375*
1,1,0.350,-0.425,0.375*
%
%ADD65ROUNDEDRECTD65*%
G04:AMPARAMS|DCode=66|XSize=1.4mm|YSize=3.57mm|CornerRadius=0.213mm|HoleSize=0mm|Usage=FLASHONLY|Rotation=0.000|XOffset=0mm|YOffset=0mm|HoleType=Round|Shape=RoundedRectangle|*
%AMROUNDEDRECTD66*
21,1,1.400,3.145,0,0,0.0*
21,1,0.975,3.570,0,0,0.0*
1,1,0.425,0.488,-1.573*
1,1,0.425,-0.488,-1.573*
1,1,0.425,-0.488,1.573*
1,1,0.425,0.488,1.573*
%
%ADD66ROUNDEDRECTD66*%
G04:AMPARAMS|DCode=67|XSize=0.71mm|YSize=2.01mm|CornerRadius=0.126mm|HoleSize=0mm|Usage=FLASHONLY|Rotation=0.000|XOffset=0mm|YOffset=0mm|HoleType=Round|Shape=RoundedRectangle|*
%AMROUNDEDRECTD67*
21,1,0.710,1.758,0,0,0.0*
21,1,0.458,2.010,0,0,0.0*
1,1,0.253,0.229,-0.879*
1,1,0.253,-0.229,-0.879*
1,1,0.253,-0.229,0.879*
1,1,0.253,0.229,0.879*
%
%ADD67ROUNDEDRECTD67*%
G04:AMPARAMS|DCode=68|XSize=3.2mm|YSize=2.51mm|CornerRadius=0.351mm|HoleSize=0mm|Usage=FLASHONLY|Rotation=0.000|XOffset=0mm|YOffset=0mm|HoleType=Round|Shape=RoundedRectangle|*
%AMROUNDEDRECTD68*
21,1,3.200,1.808,0,0,0.0*
21,1,2.498,2.510,0,0,0.0*
1,1,0.703,1.249,-0.904*
1,1,0.703,-1.249,-0.904*
1,1,0.703,-1.249,0.904*
1,1,0.703,1.249,0.904*
%
%ADD68ROUNDEDRECTD68*%
G04:AMPARAMS|DCode=69|XSize=1.04mm|YSize=1.13mm|CornerRadius=0.168mm|HoleSize=0mm|Usage=FLASHONLY|Rotation=270.000|XOffset=0mm|YOffset=0mm|HoleType=Round|Shape=RoundedRectangle|*
%AMROUNDEDRECTD69*
21,1,1.040,0.795,0,0,270.0*
21,1,0.705,1.130,0,0,270.0*
1,1,0.335,-0.398,-0.353*
1,1,0.335,-0.398,0.353*
1,1,0.335,0.398,0.353*
1,1,0.335,0.398,-0.353*
%
%ADD69ROUNDEDRECTD69*%
G04:AMPARAMS|DCode=70|XSize=0.71mm|YSize=1.62mm|CornerRadius=0.126mm|HoleSize=0mm|Usage=FLASHONLY|Rotation=0.000|XOffset=0mm|YOffset=0mm|HoleType=Round|Shape=RoundedRectangle|*
%AMROUNDEDRECTD70*
21,1,0.710,1.368,0,0,0.0*
21,1,0.458,1.620,0,0,0.0*
1,1,0.253,0.229,-0.684*
1,1,0.253,-0.229,-0.684*
1,1,0.253,-0.229,0.684*
1,1,0.253,0.229,0.684*
%
%ADD70ROUNDEDRECTD70*%
G04:AMPARAMS|DCode=71|XSize=0.71mm|YSize=1.36mm|CornerRadius=0.126mm|HoleSize=0mm|Usage=FLASHONLY|Rotation=90.000|XOffset=0mm|YOffset=0mm|HoleType=Round|Shape=RoundedRectangle|*
%AMROUNDEDRECTD71*
21,1,0.710,1.108,0,0,90.0*
21,1,0.458,1.360,0,0,90.0*
1,1,0.253,0.554,0.229*
1,1,0.253,0.554,-0.229*
1,1,0.253,-0.554,-0.229*
1,1,0.253,-0.554,0.229*
%
%ADD71ROUNDEDRECTD71*%
G04:AMPARAMS|DCode=72|XSize=1.15mm|YSize=1.17mm|CornerRadius=0.181mm|HoleSize=0mm|Usage=FLASHONLY|Rotation=90.000|XOffset=0mm|YOffset=0mm|HoleType=Round|Shape=RoundedRectangle|*
%AMROUNDEDRECTD72*
21,1,1.150,0.807,0,0,90.0*
21,1,0.788,1.170,0,0,90.0*
1,1,0.363,0.404,0.394*
1,1,0.363,0.404,-0.394*
1,1,0.363,-0.404,-0.394*
1,1,0.363,-0.404,0.394*
%
%ADD72ROUNDEDRECTD72*%
G04:AMPARAMS|DCode=73|XSize=0.9mm|YSize=1.34mm|CornerRadius=0.15mm|HoleSize=0mm|Usage=FLASHONLY|Rotation=0.000|XOffset=0mm|YOffset=0mm|HoleType=Round|Shape=RoundedRectangle|*
%AMROUNDEDRECTD73*
21,1,0.900,1.040,0,0,0.0*
21,1,0.600,1.340,0,0,0.0*
1,1,0.300,0.300,-0.520*
1,1,0.300,-0.300,-0.520*
1,1,0.300,-0.300,0.520*
1,1,0.300,0.300,0.520*
%
%ADD73ROUNDEDRECTD73*%
G04:AMPARAMS|DCode=74|XSize=1.05mm|YSize=2.6mm|CornerRadius=0.169mm|HoleSize=0mm|Usage=FLASHONLY|Rotation=0.000|XOffset=0mm|YOffset=0mm|HoleType=Round|Shape=RoundedRectangle|*
%AMROUNDEDRECTD74*
21,1,1.050,2.263,0,0,0.0*
21,1,0.713,2.600,0,0,0.0*
1,1,0.338,0.356,-1.131*
1,1,0.338,-0.356,-1.131*
1,1,0.338,-0.356,1.131*
1,1,0.338,0.356,1.131*
%
%ADD74ROUNDEDRECTD74*%
G04:AMPARAMS|DCode=75|XSize=1.25mm|YSize=2.3mm|CornerRadius=0.194mm|HoleSize=0mm|Usage=FLASHONLY|Rotation=0.000|XOffset=0mm|YOffset=0mm|HoleType=Round|Shape=RoundedRectangle|*
%AMROUNDEDRECTD75*
21,1,1.250,1.913,0,0,0.0*
21,1,0.863,2.300,0,0,0.0*
1,1,0.388,0.431,-0.956*
1,1,0.388,-0.431,-0.956*
1,1,0.388,-0.431,0.956*
1,1,0.388,0.431,0.956*
%
%ADD75ROUNDEDRECTD75*%
G04:AMPARAMS|DCode=76|XSize=1.26mm|YSize=1.35mm|CornerRadius=0.195mm|HoleSize=0mm|Usage=FLASHONLY|Rotation=0.000|XOffset=0mm|YOffset=0mm|HoleType=Round|Shape=RoundedRectangle|*
%AMROUNDEDRECTD76*
21,1,1.260,0.960,0,0,0.0*
21,1,0.870,1.350,0,0,0.0*
1,1,0.390,0.435,-0.480*
1,1,0.390,-0.435,-0.480*
1,1,0.390,-0.435,0.480*
1,1,0.390,0.435,0.480*
%
%ADD76ROUNDEDRECTD76*%
G04:AMPARAMS|DCode=77|XSize=1.26mm|YSize=1.3mm|CornerRadius=0.195mm|HoleSize=0mm|Usage=FLASHONLY|Rotation=0.000|XOffset=0mm|YOffset=0mm|HoleType=Round|Shape=RoundedRectangle|*
%AMROUNDEDRECTD77*
21,1,1.260,0.910,0,0,0.0*
21,1,0.870,1.300,0,0,0.0*
1,1,0.390,0.435,-0.455*
1,1,0.390,-0.435,-0.455*
1,1,0.390,-0.435,0.455*
1,1,0.390,0.435,0.455*
%
%ADD77ROUNDEDRECTD77*%
G04:AMPARAMS|DCode=78|XSize=1.6mm|YSize=1.25mm|CornerRadius=0.194mm|HoleSize=0mm|Usage=FLASHONLY|Rotation=0.000|XOffset=0mm|YOffset=0mm|HoleType=Round|Shape=RoundedRectangle|*
%AMROUNDEDRECTD78*
21,1,1.600,0.863,0,0,0.0*
21,1,1.212,1.250,0,0,0.0*
1,1,0.388,0.606,-0.431*
1,1,0.388,-0.606,-0.431*
1,1,0.388,-0.606,0.431*
1,1,0.388,0.606,0.431*
%
%ADD78ROUNDEDRECTD78*%
%ADD79C,1.700*%
%ADD80C,1.200*%
%ADD81C,2.100*%
%ADD82C,2.700*%
%ADD83C,0.100*%
%ADD84C,3.600*%
%ADD85C,1.800*%
%ADD86C,1.900*%
%ADD87C,2.000*%
%ADD88C,2.103*%
%ADD89C,3.350*%
%ADD90R,1.498X1.498*%
%ADD91C,2.500*%
%ADD92C,1.498*%
%ADD93C,1.630*%
D24*
X127175Y36520D02*
D03*
X128200D02*
D03*
X126100Y36520D02*
D03*
X125075D02*
D03*
X121290D02*
D03*
X120265D02*
D03*
X122380Y36520D02*
D03*
X123405D02*
D03*
X98895Y44149D02*
D03*
X97870D02*
D03*
X28918Y53030D02*
D03*
X27893D02*
D03*
X25793Y53029D02*
D03*
X26818D02*
D03*
X20650Y55920D02*
D03*
X19625D02*
D03*
X22113Y35258D02*
D03*
X23138D02*
D03*
X22113Y36558D02*
D03*
X23138D02*
D03*
X64600Y90555D02*
D03*
X65625D02*
D03*
X106818Y75943D02*
D03*
X107843D02*
D03*
X106834Y80837D02*
D03*
X107859Y80837D02*
D03*
X103617Y66800D02*
D03*
X104642D02*
D03*
X111593Y81974D02*
D03*
X110568D02*
D03*
D25*
X118074Y46203D02*
D03*
Y45178D02*
D03*
X119363Y45051D02*
D03*
Y46051D02*
D03*
X115060Y43828D02*
D03*
Y44853D02*
D03*
X112389Y58690D02*
D03*
Y57665D02*
D03*
X108438Y57822D02*
D03*
X108438Y58822D02*
D03*
X113630Y57675D02*
D03*
Y58700D02*
D03*
X105905Y55075D02*
D03*
Y54050D02*
D03*
X118075Y57875D02*
D03*
Y56875D02*
D03*
X120654Y46211D02*
D03*
Y45186D02*
D03*
X112234Y44061D02*
D03*
Y45061D02*
D03*
X110621Y45211D02*
D03*
Y44186D02*
D03*
X112260Y42740D02*
D03*
Y41715D02*
D03*
X107105Y58700D02*
D03*
Y57675D02*
D03*
X12525Y74575D02*
D03*
Y75575D02*
D03*
X16588Y57413D02*
D03*
X88541Y58088D02*
D03*
Y59088D02*
D03*
X88541Y47533D02*
D03*
X88541Y48533D02*
D03*
X87271Y58088D02*
D03*
Y59088D02*
D03*
X87291Y47533D02*
D03*
Y48533D02*
D03*
X85971Y58088D02*
D03*
Y59088D02*
D03*
X85991Y47533D02*
D03*
Y48533D02*
D03*
X82626Y64559D02*
D03*
Y65584D02*
D03*
X73325Y73950D02*
D03*
X73325Y74950D02*
D03*
X75125Y74950D02*
D03*
Y73950D02*
D03*
X16588Y56413D02*
D03*
X67300Y80750D02*
D03*
Y81750D02*
D03*
X57815D02*
D03*
Y80750D02*
D03*
X57640Y90650D02*
D03*
Y91650D02*
D03*
X53640Y90650D02*
D03*
Y91650D02*
D03*
X102025Y24872D02*
D03*
Y25872D02*
D03*
X87697Y24833D02*
D03*
Y25858D02*
D03*
X101991Y29035D02*
D03*
Y28035D02*
D03*
X87886Y23120D02*
D03*
Y22095D02*
D03*
X15113Y57413D02*
D03*
Y56413D02*
D03*
X103000Y84100D02*
D03*
Y83075D02*
D03*
X105080Y85275D02*
D03*
Y86300D02*
D03*
X53570Y80700D02*
D03*
Y81725D02*
D03*
X56730Y54049D02*
D03*
X56730Y55049D02*
D03*
X79155Y80600D02*
D03*
Y81625D02*
D03*
X54740Y46599D02*
D03*
Y45574D02*
D03*
X56665Y45549D02*
D03*
Y46574D02*
D03*
X57850Y46574D02*
D03*
Y45549D02*
D03*
X54795Y54049D02*
D03*
X54795Y55049D02*
D03*
X67025Y90650D02*
D03*
X67025Y91650D02*
D03*
X64655Y59525D02*
D03*
Y60550D02*
D03*
X64995Y49925D02*
D03*
Y50950D02*
D03*
X77836Y49171D02*
D03*
Y50196D02*
D03*
X80120Y60000D02*
D03*
Y58975D02*
D03*
X77216Y61663D02*
D03*
Y62688D02*
D03*
X73505Y63875D02*
D03*
Y64900D02*
D03*
X72101Y63871D02*
D03*
Y64871D02*
D03*
X116755Y56725D02*
D03*
Y57750D02*
D03*
X106620Y70675D02*
D03*
Y71700D02*
D03*
X108520Y70675D02*
D03*
Y71700D02*
D03*
X105193Y71700D02*
D03*
Y70675D02*
D03*
D26*
X129005Y54500D02*
D03*
Y58700D02*
D03*
X123925Y58700D02*
D03*
X123925Y54500D02*
D03*
X75516Y64725D02*
D03*
Y68925D02*
D03*
X80596Y68925D02*
D03*
X80596Y64725D02*
D03*
D27*
X111059Y58790D02*
D03*
Y57790D02*
D03*
X100800Y50618D02*
D03*
Y51618D02*
D03*
X53220Y54924D02*
D03*
X53220Y55924D02*
D03*
X51770Y54924D02*
D03*
X51770Y55924D02*
D03*
X54783Y57399D02*
D03*
Y56399D02*
D03*
X56730Y57399D02*
D03*
Y56399D02*
D03*
X83300Y80750D02*
D03*
Y81750D02*
D03*
X26318Y49000D02*
D03*
Y50000D02*
D03*
X27818Y50050D02*
D03*
Y49050D02*
D03*
X13925Y74575D02*
D03*
Y75575D02*
D03*
X27362Y29650D02*
D03*
Y28650D02*
D03*
X24456Y36403D02*
D03*
Y35403D02*
D03*
X30805Y48925D02*
D03*
Y49925D02*
D03*
X32351Y48950D02*
D03*
X32351Y49950D02*
D03*
X63225Y91625D02*
D03*
Y90625D02*
D03*
X101988Y8845D02*
D03*
Y9845D02*
D03*
X102013Y11745D02*
D03*
Y12745D02*
D03*
D28*
X105373Y58100D02*
D03*
Y59790D02*
D03*
X35605Y72838D02*
D03*
Y74528D02*
D03*
X47144Y90370D02*
D03*
Y88680D02*
D03*
X46999Y78990D02*
D03*
Y77300D02*
D03*
D29*
X98600Y42615D02*
D03*
X97000Y42615D02*
D03*
X56143Y74100D02*
D03*
X57743Y74100D02*
D03*
X63850Y70921D02*
D03*
X65450Y70921D02*
D03*
D30*
X99780Y55700D02*
D03*
X98180Y55700D02*
D03*
D31*
X45584Y69730D02*
D03*
X43984Y69730D02*
D03*
X31150Y74046D02*
D03*
X29550D02*
D03*
D32*
X102364Y30802D02*
D03*
Y31827D02*
D03*
X101125Y5737D02*
D03*
Y4712D02*
D03*
X102364Y14602D02*
D03*
Y15627D02*
D03*
X101125Y15652D02*
D03*
Y14627D02*
D03*
X109743Y58672D02*
D03*
Y57647D02*
D03*
X101125Y31852D02*
D03*
Y30827D02*
D03*
X86332Y24808D02*
D03*
Y25833D02*
D03*
X87945Y6895D02*
D03*
Y5870D02*
D03*
X101125Y21957D02*
D03*
Y20932D02*
D03*
X15455Y61185D02*
D03*
Y60160D02*
D03*
X16680Y61185D02*
D03*
Y60160D02*
D03*
X20293Y30128D02*
D03*
Y29103D02*
D03*
X32620Y78376D02*
D03*
Y79401D02*
D03*
X99249Y70125D02*
D03*
Y69100D02*
D03*
X63013Y81725D02*
D03*
Y80700D02*
D03*
X110800Y74897D02*
D03*
Y75922D02*
D03*
X86305Y8620D02*
D03*
Y9645D02*
D03*
X87795Y9670D02*
D03*
Y8645D02*
D03*
X116279Y43849D02*
D03*
Y44874D02*
D03*
X109754Y70700D02*
D03*
Y71725D02*
D03*
D33*
X98980Y15897D02*
D03*
Y14627D02*
D03*
Y13357D02*
D03*
Y12087D02*
D03*
Y10817D02*
D03*
Y9547D02*
D03*
Y8277D02*
D03*
Y7007D02*
D03*
Y5737D02*
D03*
Y4467D02*
D03*
X89670D02*
D03*
Y5737D02*
D03*
Y7007D02*
D03*
Y8277D02*
D03*
Y9547D02*
D03*
Y10817D02*
D03*
Y12087D02*
D03*
Y13357D02*
D03*
Y14627D02*
D03*
Y15897D02*
D03*
X98980Y32097D02*
D03*
Y30827D02*
D03*
Y29557D02*
D03*
Y28287D02*
D03*
Y27017D02*
D03*
Y25747D02*
D03*
Y24477D02*
D03*
Y23207D02*
D03*
Y21937D02*
D03*
Y20667D02*
D03*
X89670D02*
D03*
Y21937D02*
D03*
Y23207D02*
D03*
Y24477D02*
D03*
Y25747D02*
D03*
Y27017D02*
D03*
Y28287D02*
D03*
Y29557D02*
D03*
Y30827D02*
D03*
Y32097D02*
D03*
D34*
X27669Y87525D02*
D03*
Y83225D02*
D03*
X5150Y31125D02*
D03*
X5150Y35425D02*
D03*
X9425Y30325D02*
D03*
Y34625D02*
D03*
X17825Y30326D02*
D03*
Y34626D02*
D03*
X13600Y30326D02*
D03*
Y34626D02*
D03*
X42900Y67100D02*
D03*
X42900Y62800D02*
D03*
D35*
X36625Y49850D02*
D03*
Y43350D02*
D03*
X32650Y89843D02*
D03*
Y83343D02*
D03*
X43500Y53836D02*
D03*
Y60336D02*
D03*
D36*
X32173Y64247D02*
D03*
X38573Y64247D02*
D03*
X29300Y42750D02*
D03*
X22900D02*
D03*
D37*
X94995Y46215D02*
D03*
X96265Y46215D02*
D03*
X98805Y46215D02*
D03*
X94995Y51075D02*
D03*
X96265Y51075D02*
D03*
X97535Y51075D02*
D03*
X98805Y51075D02*
D03*
X97535Y46215D02*
D03*
D38*
X101600Y43550D02*
D03*
X102600Y43550D02*
D03*
X106675Y45180D02*
D03*
X107700D02*
D03*
X101600Y46359D02*
D03*
X102600D02*
D03*
X101600Y44950D02*
D03*
X102600D02*
D03*
X128775Y52443D02*
D03*
X129800D02*
D03*
X120354Y49531D02*
D03*
X119329D02*
D03*
X119942Y51573D02*
D03*
X118917D02*
D03*
X104931Y49522D02*
D03*
X103906D02*
D03*
X101600Y47750D02*
D03*
X102600D02*
D03*
X102600Y55715D02*
D03*
X101600Y55715D02*
D03*
X54400Y77200D02*
D03*
X53400Y77200D02*
D03*
X62308Y57958D02*
D03*
X63308Y57958D02*
D03*
X54450Y71444D02*
D03*
X9425Y63295D02*
D03*
X10450D02*
D03*
X59295Y51149D02*
D03*
X58295D02*
D03*
X59297Y52474D02*
D03*
X58297D02*
D03*
X55450Y71444D02*
D03*
X56240Y80725D02*
D03*
X55240Y80725D02*
D03*
X82950Y90575D02*
D03*
X83950Y90575D02*
D03*
X81675Y80725D02*
D03*
X80675D02*
D03*
X78125Y90575D02*
D03*
X79125Y90575D02*
D03*
X57395Y49544D02*
D03*
X58420D02*
D03*
X15675Y58925D02*
D03*
X16675D02*
D03*
X9050Y56282D02*
D03*
X10050D02*
D03*
X81550Y90555D02*
D03*
X80525D02*
D03*
X56165Y90555D02*
D03*
X55140D02*
D03*
X52195Y45394D02*
D03*
X53220D02*
D03*
X53225Y46579D02*
D03*
X52200D02*
D03*
X65650Y80725D02*
D03*
X64650D02*
D03*
X70825Y63295D02*
D03*
X69800D02*
D03*
X102936Y71650D02*
D03*
X101911Y71650D02*
D03*
X106293Y85295D02*
D03*
X107318D02*
D03*
D39*
X127875Y50886D02*
D03*
X129475Y50886D02*
D03*
X77631Y47650D02*
D03*
X79231D02*
D03*
D40*
X116484Y48815D02*
D03*
Y49315D02*
D03*
Y54815D02*
D03*
Y54315D02*
D03*
Y53815D02*
D03*
Y53315D02*
D03*
Y52815D02*
D03*
Y52315D02*
D03*
Y51815D02*
D03*
X116484Y51315D02*
D03*
Y50815D02*
D03*
X116484Y50315D02*
D03*
Y49815D02*
D03*
Y48315D02*
D03*
Y47815D02*
D03*
Y47315D02*
D03*
X107484D02*
D03*
Y47815D02*
D03*
Y48315D02*
D03*
Y48815D02*
D03*
Y49315D02*
D03*
Y49815D02*
D03*
Y50315D02*
D03*
X107484Y50815D02*
D03*
Y51315D02*
D03*
X107484Y51815D02*
D03*
Y52315D02*
D03*
Y52815D02*
D03*
Y53315D02*
D03*
Y53815D02*
D03*
Y54315D02*
D03*
Y54815D02*
D03*
D41*
X111984Y51065D02*
D03*
D42*
X115734Y46565D02*
D03*
X115234D02*
D03*
X114734D02*
D03*
X114234D02*
D03*
X113734D02*
D03*
X113234D02*
D03*
X112734D02*
D03*
X112234Y46565D02*
D03*
X111734D02*
D03*
X111234Y46565D02*
D03*
X110734D02*
D03*
X110234D02*
D03*
X109734D02*
D03*
X109234D02*
D03*
X108734D02*
D03*
X108234D02*
D03*
Y55565D02*
D03*
X108734D02*
D03*
X109234D02*
D03*
X109734D02*
D03*
X110234D02*
D03*
X110734D02*
D03*
X111234D02*
D03*
X111734Y55565D02*
D03*
X112234D02*
D03*
X112734Y55565D02*
D03*
X113234D02*
D03*
X113734D02*
D03*
X114234D02*
D03*
X114734D02*
D03*
X115234D02*
D03*
X115734D02*
D03*
D43*
X57520Y48224D02*
D03*
X58520D02*
D03*
X50081Y55324D02*
D03*
X49081Y55324D02*
D03*
X50081Y53924D02*
D03*
X49081D02*
D03*
X50095Y52549D02*
D03*
X49095D02*
D03*
X26875Y51625D02*
D03*
X27875D02*
D03*
X23793Y48975D02*
D03*
X24793D02*
D03*
X35416Y70400D02*
D03*
X36416D02*
D03*
X13655Y56450D02*
D03*
X12655D02*
D03*
X17729Y48925D02*
D03*
X18729D02*
D03*
X33866Y70425D02*
D03*
X32866D02*
D03*
X28300Y33350D02*
D03*
X29300D02*
D03*
X26138Y35008D02*
D03*
X27138D02*
D03*
X27163Y36558D02*
D03*
X26163D02*
D03*
X122550Y35200D02*
D03*
X123550Y35200D02*
D03*
X127345Y35200D02*
D03*
X128345D02*
D03*
X125925Y35200D02*
D03*
X124925D02*
D03*
X121120Y35200D02*
D03*
X120120Y35200D02*
D03*
X121225Y8645D02*
D03*
X120225Y8645D02*
D03*
X132125Y8700D02*
D03*
X131125Y8700D02*
D03*
X86650Y71516D02*
D03*
X87650Y71516D02*
D03*
X45632Y73191D02*
D03*
X44632Y73191D02*
D03*
D44*
X47450Y74300D02*
D03*
X49140Y74300D02*
D03*
D45*
X12830Y61755D02*
D03*
Y60485D02*
D03*
Y59215D02*
D03*
Y57945D02*
D03*
X7270D02*
D03*
Y59215D02*
D03*
Y60485D02*
D03*
Y61755D02*
D03*
X18095Y54280D02*
D03*
Y53010D02*
D03*
Y51740D02*
D03*
Y50470D02*
D03*
X23655D02*
D03*
Y51740D02*
D03*
Y53010D02*
D03*
Y54280D02*
D03*
D46*
X10050Y59850D02*
D03*
X20875Y52375D02*
D03*
D47*
X85000Y3575D02*
D03*
Y6165D02*
D03*
X103600Y18587D02*
D03*
X103600Y21177D02*
D03*
X85050Y19700D02*
D03*
Y22290D02*
D03*
X103600Y2367D02*
D03*
Y4957D02*
D03*
D48*
X80403Y82430D02*
D03*
X81673D02*
D03*
X80403Y88780D02*
D03*
X81673D02*
D03*
X56234D02*
D03*
X54964Y88780D02*
D03*
X56234Y82430D02*
D03*
X54964Y82430D02*
D03*
D49*
X87267Y51463D02*
D03*
X85997D02*
D03*
X88537D02*
D03*
X89807D02*
D03*
X84727D02*
D03*
X89807Y55463D02*
D03*
X84727Y55463D02*
D03*
X85997Y55463D02*
D03*
X88537D02*
D03*
X87267Y55463D02*
D03*
D50*
X84146Y66500D02*
D03*
X84146Y64900D02*
D03*
X63250Y50275D02*
D03*
Y51875D02*
D03*
D51*
X62277Y60150D02*
D03*
Y63150D02*
D03*
D52*
X103588Y11745D02*
D03*
Y9845D02*
D03*
X105788Y10795D02*
D03*
X106150Y26942D02*
D03*
X103950Y25992D02*
D03*
Y27892D02*
D03*
D53*
X90600Y61750D02*
D03*
Y58250D02*
D03*
D54*
X20400Y70700D02*
D03*
X20400Y77100D02*
D03*
D55*
X-1617Y21250D02*
D03*
X183D02*
D03*
X183Y26150D02*
D03*
X-1617D02*
D03*
D56*
X30192Y55773D02*
D03*
X36842Y55773D02*
D03*
X15200Y65100D02*
D03*
X21850D02*
D03*
X13000Y39575D02*
D03*
X19650Y39575D02*
D03*
D57*
X4750Y24600D02*
D03*
Y23000D02*
D03*
X36925Y81400D02*
D03*
Y83000D02*
D03*
D58*
X29365Y78326D02*
D03*
X30885D02*
D03*
D59*
X76076Y61513D02*
D03*
X75576D02*
D03*
X75076D02*
D03*
X74576Y61513D02*
D03*
X74076D02*
D03*
X73576D02*
D03*
X73076D02*
D03*
X72576D02*
D03*
X72076Y61513D02*
D03*
X71576D02*
D03*
X71076D02*
D03*
X70576Y61513D02*
D03*
X70076D02*
D03*
X69576D02*
D03*
X69076D02*
D03*
X68576Y61513D02*
D03*
X68576Y49913D02*
D03*
X69076D02*
D03*
X69576D02*
D03*
X70076D02*
D03*
X70576Y49913D02*
D03*
X71076Y49913D02*
D03*
X71576D02*
D03*
X72076D02*
D03*
X72576Y49913D02*
D03*
X73076D02*
D03*
X73576D02*
D03*
X74076Y49913D02*
D03*
X74576D02*
D03*
X75076D02*
D03*
X75576D02*
D03*
X76076D02*
D03*
D60*
X66526Y59463D02*
D03*
Y58963D02*
D03*
Y58463D02*
D03*
Y57963D02*
D03*
Y57463D02*
D03*
X66526Y56963D02*
D03*
Y56463D02*
D03*
X66526Y55963D02*
D03*
X66526Y55463D02*
D03*
Y54963D02*
D03*
Y54463D02*
D03*
Y53963D02*
D03*
Y53463D02*
D03*
Y52963D02*
D03*
Y52463D02*
D03*
Y51963D02*
D03*
X78126D02*
D03*
Y52463D02*
D03*
Y52963D02*
D03*
Y53463D02*
D03*
Y53963D02*
D03*
Y54463D02*
D03*
Y54963D02*
D03*
Y55463D02*
D03*
X78126Y55963D02*
D03*
Y56463D02*
D03*
Y56963D02*
D03*
Y57463D02*
D03*
Y57963D02*
D03*
Y58463D02*
D03*
Y58963D02*
D03*
Y59463D02*
D03*
D61*
X39200Y72825D02*
D03*
Y75025D02*
D03*
D62*
X55575Y49104D02*
D03*
Y51544D02*
D03*
X55145D02*
D03*
X54715D02*
D03*
X54285D02*
D03*
X53855D02*
D03*
X53425D02*
D03*
X52995D02*
D03*
X52565Y51544D02*
D03*
X52565Y49104D02*
D03*
X52995D02*
D03*
X53425D02*
D03*
X53855D02*
D03*
X54285D02*
D03*
X54715D02*
D03*
X55145D02*
D03*
D63*
X55540Y49679D02*
D03*
Y50109D02*
D03*
Y50539D02*
D03*
Y50969D02*
D03*
X52600D02*
D03*
Y50539D02*
D03*
Y50109D02*
D03*
Y49679D02*
D03*
D64*
X22Y37551D02*
D03*
X-2978D02*
D03*
X-3Y40501D02*
D03*
X-3003D02*
D03*
D65*
X4750Y28425D02*
D03*
Y26825D02*
D03*
D66*
X4975Y56690D02*
D03*
X675Y56690D02*
D03*
X3800Y52549D02*
D03*
X-500Y52549D02*
D03*
X2950Y48426D02*
D03*
X-1350D02*
D03*
X2042Y44116D02*
D03*
X-2258Y44116D02*
D03*
X7355Y46575D02*
D03*
X11655D02*
D03*
X8280Y50757D02*
D03*
X12580D02*
D03*
X6500Y42550D02*
D03*
X10800D02*
D03*
X5750Y38400D02*
D03*
X10050D02*
D03*
X31275Y22963D02*
D03*
X26975D02*
D03*
D67*
X21833Y32608D02*
D03*
X23103Y32608D02*
D03*
X24373Y32608D02*
D03*
X25643D02*
D03*
Y27048D02*
D03*
X24373Y27048D02*
D03*
X23103D02*
D03*
X21833Y27048D02*
D03*
D68*
X23738Y29828D02*
D03*
D69*
X34250Y79900D02*
D03*
Y78300D02*
D03*
X119650Y57055D02*
D03*
Y55455D02*
D03*
D70*
X64465Y82430D02*
D03*
X65735Y82430D02*
D03*
X64465Y88780D02*
D03*
X65735Y88780D02*
D03*
D71*
X103617Y70125D02*
D03*
Y68225D02*
D03*
X101167D02*
D03*
Y69175D02*
D03*
Y70125D02*
D03*
D72*
X121550Y55513D02*
D03*
Y57033D02*
D03*
D73*
X39000Y26430D02*
D03*
X40100D02*
D03*
X41200D02*
D03*
X42300D02*
D03*
X43400D02*
D03*
X44500D02*
D03*
X45600D02*
D03*
X46700D02*
D03*
D74*
X34655Y25800D02*
D03*
D75*
X49045Y25950D02*
D03*
X34755Y14470D02*
D03*
D76*
X48640Y23800D02*
D03*
D77*
Y14800D02*
D03*
D78*
X39060Y13675D02*
D03*
X46840D02*
D03*
D79*
X44293Y78400D02*
D03*
X82100Y94750D02*
D03*
X80100D02*
D03*
X54699Y95975D02*
D03*
X56699D02*
D03*
D80*
X111093Y78400D02*
D03*
D81*
X40433Y86280D02*
D03*
X40433Y88820D02*
D03*
X40433Y78660D02*
D03*
X40433Y81200D02*
D03*
X40433Y91360D02*
D03*
D82*
X15075Y22675D02*
D03*
X11575D02*
D03*
D83*
X13325Y14765D02*
D03*
X68060Y97875D02*
D03*
X112834Y27475D02*
D03*
X84100Y96650D02*
D03*
X58699Y97875D02*
D03*
X112934Y14525D02*
D03*
X88300Y88869D02*
D03*
X30850Y18225D02*
D03*
D84*
X111063Y10086D02*
D03*
X21563D02*
D03*
X-1751Y13526D02*
D03*
X8017Y68926D02*
D03*
X73239Y99793D02*
D03*
X24463Y58448D02*
D03*
D85*
X64060Y95975D02*
D03*
X66060D02*
D03*
X26850Y16325D02*
D03*
X28850D02*
D03*
D86*
X110934Y29475D02*
D03*
Y35475D02*
D03*
Y33475D02*
D03*
Y31475D02*
D03*
X111034Y18525D02*
D03*
Y20525D02*
D03*
Y22525D02*
D03*
Y16525D02*
D03*
X94300Y90769D02*
D03*
X92300D02*
D03*
X90300Y90769D02*
D03*
D87*
X-3200Y32300D02*
D03*
X5700Y8400D02*
D03*
D88*
X300Y32300D02*
D03*
X2200Y8400D02*
D03*
D89*
X119670Y17175D02*
D03*
X131100D02*
D03*
D90*
X120940Y23525D02*
D03*
D91*
X117640Y20225D02*
D03*
X133130D02*
D03*
D92*
X122210Y26065D02*
D03*
X123480Y23525D02*
D03*
X124750Y26065D02*
D03*
X126020Y23525D02*
D03*
X127290Y26065D02*
D03*
X128560Y23525D02*
D03*
X129830Y26065D02*
D03*
D93*
X118655Y12605D02*
D03*
X121195D02*
D03*
X129575D02*
D03*
X132115D02*
D03*
M02*
