G04*
G04 #@! TF.GenerationSoftware,Altium Limited,Altium Designer,22.7.1 (60)*
G04*
G04 Layer_Physical_Order=5*
G04 Layer_Color=1930808*
%FSLAX43Y43*%
%MOMM*%
G71*
G04*
G04 #@! TF.SameCoordinates,6218B3DD-F4BF-4AD2-B5C1-062D57A95E1A*
G04*
G04*
G04 #@! TF.FilePolarity,Positive*
G04*
G01*
G75*
%ADD12C,0.500*%
%ADD85C,1.800*%
%ADD162C,1.530*%
%ADD163C,0.700*%
%ADD164C,1.000*%
G36*
X90357Y92450D02*
X97726D01*
X97726Y92450D01*
X97726Y92450D01*
X97966Y92450D01*
X98444Y92403D01*
X98915Y92309D01*
X99374Y92170D01*
X99818Y91986D01*
X100241Y91760D01*
X100640Y91493D01*
X101011Y91189D01*
X101181Y91019D01*
X103827Y88373D01*
X103827Y88373D01*
X103909Y88295D01*
X104083Y88152D01*
X104271Y88027D01*
X104469Y87921D01*
X104678Y87834D01*
X104717Y87822D01*
X104777Y87776D01*
X104923Y87715D01*
X105080Y87695D01*
X105225Y87714D01*
X105339Y87703D01*
X105452Y87700D01*
X107687Y87700D01*
X107687Y87700D01*
X107687Y87700D01*
X107896Y87700D01*
X108313Y87659D01*
X108723Y87577D01*
X109123Y87456D01*
X109509Y87296D01*
X109878Y87099D01*
X110225Y86867D01*
X110548Y86602D01*
X110696Y86454D01*
X121576Y75574D01*
X121576Y75574D01*
X121576Y75574D01*
X121807Y75343D01*
X122238Y74851D01*
X122636Y74333D01*
X122999Y73789D01*
X123326Y73223D01*
X123615Y72637D01*
X123865Y72033D01*
X124075Y71414D01*
X124244Y70783D01*
X124372Y70142D01*
X124457Y69494D01*
X124500Y68842D01*
X124500Y68515D01*
X124500Y61126D01*
X124400Y61092D01*
X124353Y61153D01*
X124228Y61249D01*
X124082Y61310D01*
X123925Y61330D01*
X123768Y61310D01*
X123622Y61249D01*
X123497Y61153D01*
X123401Y61028D01*
X123340Y60882D01*
X123320Y60725D01*
X123340Y60568D01*
X123401Y60422D01*
X123497Y60297D01*
X123622Y60201D01*
X123768Y60140D01*
X123925Y60120D01*
X124082Y60140D01*
X124228Y60201D01*
X124353Y60297D01*
X124400Y60358D01*
X124500Y60324D01*
X124500Y49661D01*
X124509Y49279D01*
X124584Y48517D01*
X124734Y47767D01*
X124956Y47035D01*
X125248Y46328D01*
X125609Y45654D01*
X126034Y45018D01*
X126519Y44427D01*
X126783Y44150D01*
X128375Y42558D01*
X134970Y35963D01*
X134970Y35962D01*
Y35962D01*
X135142Y35790D01*
X135452Y35413D01*
X135723Y35007D01*
X135953Y34576D01*
X136140Y34125D01*
X136282Y33658D01*
X136377Y33180D01*
X136425Y32694D01*
X136425Y32450D01*
X136425Y15809D01*
X136425Y15809D01*
X136425Y15633D01*
X136390Y15282D01*
X136322Y14937D01*
X136220Y14600D01*
X136085Y14275D01*
X135919Y13965D01*
X135723Y13672D01*
X135500Y13400D01*
X135376Y13276D01*
X133766Y11666D01*
X133766Y11666D01*
X133627Y11527D01*
X133325Y11279D01*
X133000Y11062D01*
X132655Y10878D01*
X132294Y10728D01*
X131920Y10615D01*
X131536Y10538D01*
X131147Y10500D01*
X130951D01*
X118400Y10500D01*
X118400Y10500D01*
X118291Y10500D01*
X118079Y10542D01*
X117879Y10625D01*
X117699Y10746D01*
X117545Y10899D01*
X117425Y11079D01*
X117342Y11279D01*
X117300Y11492D01*
X117300Y11600D01*
X117300Y13806D01*
X117300Y13900D01*
X117300Y13900D01*
X117300Y13900D01*
X117300Y13900D01*
X117300Y14002D01*
X117340Y14201D01*
X117418Y14390D01*
X117531Y14559D01*
X117675Y14703D01*
X117844Y14816D01*
X118032Y14894D01*
X118232Y14934D01*
X118334Y14934D01*
X130718Y14934D01*
X130816Y14934D01*
X130816Y14934D01*
X130952Y14937D01*
X131221Y14964D01*
X131486Y15017D01*
X131745Y15095D01*
X131995Y15199D01*
X132234Y15326D01*
X132459Y15477D01*
X132668Y15648D01*
X132766Y15742D01*
X133729Y16704D01*
X133729Y16704D01*
X133729Y16704D01*
X133835Y16816D01*
X134031Y17054D01*
X134203Y17311D01*
X134348Y17583D01*
X134466Y17868D01*
X134556Y18164D01*
X134616Y18466D01*
X134646Y18774D01*
X134650Y18928D01*
X134650Y22204D01*
X134650Y22204D01*
X134650Y22204D01*
X134646Y22361D01*
X134615Y22673D01*
X134554Y22981D01*
X134463Y23281D01*
X134343Y23571D01*
X134195Y23848D01*
X134021Y24109D01*
X133822Y24351D01*
X133714Y24465D01*
X132100Y26079D01*
X132100Y26079D01*
X131958Y26214D01*
X131655Y26463D01*
X131329Y26680D01*
X130984Y26865D01*
X130622Y27015D01*
X130247Y27129D01*
X129863Y27205D01*
X129473Y27243D01*
X129277Y27248D01*
X117652Y27248D01*
X117467Y27248D01*
X117104Y27320D01*
X116763Y27462D01*
X116455Y27667D01*
X116194Y27928D01*
X115989Y28236D01*
X115847Y28577D01*
X115775Y28940D01*
X115775Y29125D01*
X115775Y42494D01*
X115875Y42529D01*
X115977Y42451D01*
X116122Y42390D01*
X116279Y42370D01*
X116436Y42390D01*
X116582Y42451D01*
X116707Y42547D01*
X116803Y42672D01*
X116864Y42818D01*
X116884Y42975D01*
X116864Y43132D01*
X116803Y43278D01*
X116707Y43403D01*
X116582Y43499D01*
X116436Y43560D01*
X116279Y43580D01*
X116122Y43560D01*
X115977Y43499D01*
X115875Y43421D01*
X115775Y43456D01*
X115775Y45777D01*
X115775Y47139D01*
X115775Y47139D01*
X115775Y47139D01*
X115771Y47286D01*
X115743Y47580D01*
X115705Y47766D01*
X115711Y47779D01*
X115731Y47936D01*
X115711Y48092D01*
X115650Y48238D01*
X115554Y48364D01*
X115492Y48412D01*
X115487Y48423D01*
X115348Y48683D01*
X115184Y48928D01*
X114997Y49156D01*
X114895Y49263D01*
X111000Y53158D01*
X102759Y61400D01*
X99242Y64917D01*
X91774Y72385D01*
X91778Y72447D01*
X91874Y72572D01*
X91935Y72718D01*
X91955Y72875D01*
X91935Y73032D01*
X91874Y73178D01*
X91778Y73303D01*
X91653Y73399D01*
X91507Y73460D01*
X91350Y73480D01*
X91193Y73460D01*
X91047Y73399D01*
X90922Y73303D01*
X90860Y73299D01*
X89061Y75097D01*
X89061Y75097D01*
X88848Y75304D01*
X88400Y75696D01*
X87928Y76058D01*
X87434Y76389D01*
X86919Y76686D01*
X86385Y76949D01*
X85835Y77177D01*
X85272Y77368D01*
X84697Y77522D01*
X84114Y77638D01*
X83524Y77716D01*
X82930Y77755D01*
X82633Y77760D01*
X52517Y77760D01*
X52457Y77785D01*
X52300Y77805D01*
X52143Y77785D01*
X52112Y77772D01*
X51940Y77788D01*
X51652Y77846D01*
X51370Y77931D01*
X51098Y78044D01*
X50839Y78183D01*
X50594Y78346D01*
X50367Y78533D01*
X50263Y78637D01*
X47235Y81664D01*
X47235Y81664D01*
X47235Y81664D01*
X47121Y81773D01*
X46879Y81971D01*
X46618Y82146D01*
X46342Y82293D01*
X46052Y82413D01*
X45752Y82504D01*
X45445Y82565D01*
X45133Y82596D01*
X44976Y82600D01*
X40300Y82600D01*
X40300Y82600D01*
X40187Y82594D01*
X39966Y82550D01*
X39757Y82464D01*
X39569Y82339D01*
X39410Y82179D01*
X39284Y81991D01*
X39198Y81783D01*
X39154Y81561D01*
X39148Y81448D01*
X39148Y76948D01*
X39148Y76948D01*
Y76884D01*
X39123Y76759D01*
X39074Y76641D01*
X39003Y76535D01*
X38913Y76445D01*
X38807Y76374D01*
X38689Y76325D01*
X38564Y76300D01*
X36964Y76300D01*
X36925Y76305D01*
X36886Y76300D01*
X36097Y76300D01*
X35976Y76350D01*
X35819Y76371D01*
X35663Y76350D01*
X35542Y76300D01*
X34000Y76300D01*
X33926Y76300D01*
X33781Y76329D01*
X33645Y76385D01*
X33522Y76467D01*
X33417Y76572D01*
X33335Y76695D01*
X33279Y76831D01*
X33250Y76976D01*
X33250Y77050D01*
X33250Y85240D01*
X33250Y85335D01*
X33250Y85335D01*
X33250Y85335D01*
X33250Y85528D01*
X33300Y85911D01*
X33400Y86284D01*
X33548Y86641D01*
X33741Y86975D01*
X33892Y87171D01*
X33903Y87176D01*
X34028Y87272D01*
X34124Y87397D01*
X34147Y87452D01*
X34250Y87555D01*
X34556Y87790D01*
X34891Y87984D01*
X35248Y88131D01*
X35621Y88231D01*
X36004Y88282D01*
X36197Y88282D01*
X39303Y88282D01*
X39388Y88122D01*
X39544Y87932D01*
X39735Y87776D01*
X39952Y87660D01*
X40141Y87602D01*
Y87498D01*
X39952Y87440D01*
X39735Y87324D01*
X39544Y87168D01*
X39388Y86978D01*
X39272Y86761D01*
X39201Y86525D01*
X39177Y86280D01*
X39201Y86035D01*
X39272Y85799D01*
X39388Y85582D01*
X39544Y85392D01*
X39735Y85236D01*
X39952Y85120D01*
X40188Y85048D01*
X40433Y85024D01*
X40678Y85048D01*
X40913Y85120D01*
X41130Y85236D01*
X41321Y85392D01*
X41477Y85582D01*
X41593Y85799D01*
X41665Y86035D01*
X41689Y86280D01*
X41665Y86525D01*
X41593Y86761D01*
X41477Y86978D01*
X41321Y87168D01*
X41130Y87324D01*
X40913Y87440D01*
X40724Y87498D01*
Y87602D01*
X40913Y87660D01*
X41130Y87776D01*
X41321Y87932D01*
X41477Y88122D01*
X41562Y88282D01*
X82953Y88282D01*
X83049Y88282D01*
X83049Y88282D01*
X83258Y88287D01*
X83674Y88328D01*
X84084Y88409D01*
X84484Y88531D01*
X84870Y88691D01*
X85239Y88888D01*
X85587Y89120D01*
X85910Y89385D01*
X86061Y89529D01*
X88009Y91478D01*
X88009Y91478D01*
X88009Y91478D01*
X88125Y91593D01*
X88377Y91800D01*
X88648Y91981D01*
X88936Y92135D01*
X89237Y92260D01*
X89549Y92354D01*
X89869Y92418D01*
X90194Y92450D01*
X90357Y92450D01*
D02*
G37*
G36*
X79077Y94476D02*
X79183Y94220D01*
X79351Y94001D01*
X79570Y93833D01*
X79826Y93727D01*
X80100Y93691D01*
X80374Y93727D01*
X80630Y93833D01*
X80849Y94001D01*
X81017Y94220D01*
X81050Y94300D01*
X81150D01*
X81183Y94220D01*
X81351Y94001D01*
X81570Y93833D01*
X81826Y93727D01*
X82100Y93691D01*
X82374Y93727D01*
X82630Y93833D01*
X82849Y94001D01*
X83017Y94220D01*
X83123Y94476D01*
X83147Y94656D01*
X83159Y94747D01*
X83255Y94749D01*
X83434Y94714D01*
X83605Y94643D01*
X83759Y94540D01*
X83890Y94409D01*
X83993Y94255D01*
X84064Y94084D01*
X84100Y93902D01*
X84100Y90562D01*
X84100Y90562D01*
X84100Y90475D01*
X84066Y90303D01*
X83999Y90142D01*
X83902Y89997D01*
X83778Y89873D01*
X83633Y89776D01*
X83472Y89709D01*
X83300Y89675D01*
X83213Y89675D01*
X47489Y89675D01*
X47410Y89675D01*
X47254Y89706D01*
X47108Y89767D01*
X46976Y89855D01*
X46864Y89967D01*
X46776Y90099D01*
X46715Y90245D01*
X46684Y90401D01*
X46684Y93789D01*
X46684Y93789D01*
X46684Y93789D01*
X46684Y93883D01*
X46721Y94069D01*
X46793Y94244D01*
X46899Y94401D01*
X47033Y94535D01*
X47190Y94641D01*
X47365Y94713D01*
X47551Y94750D01*
X47645Y94750D01*
X79041Y94750D01*
X79077Y94476D01*
D02*
G37*
G36*
X54928Y65269D02*
X55242Y65206D01*
X55549Y65113D01*
X55845Y64990D01*
X56128Y64839D01*
X56395Y64661D01*
X56642Y64458D01*
X56756Y64344D01*
X56756Y64344D01*
X62396Y58704D01*
X62597Y58509D01*
X63018Y58140D01*
X63462Y57800D01*
X63540Y57748D01*
X63576Y57661D01*
X63672Y57536D01*
X63797Y57439D01*
X63943Y57379D01*
X64100Y57358D01*
X64144Y57364D01*
X64411Y57209D01*
X64913Y56962D01*
X65430Y56748D01*
X65960Y56568D01*
X66500Y56423D01*
X67049Y56314D01*
X67603Y56241D01*
X68162Y56205D01*
X68441Y56200D01*
X71696Y56200D01*
X72029Y56200D01*
X72694Y56156D01*
X73355Y56069D01*
X74009Y55939D01*
X74653Y55767D01*
X75284Y55553D01*
X75900Y55298D01*
X76497Y55003D01*
X77075Y54669D01*
X77629Y54299D01*
X78158Y53893D01*
X78659Y53454D01*
X78895Y53218D01*
X78895Y53218D01*
X86549Y45564D01*
X86790Y45323D01*
X87240Y44810D01*
X87655Y44269D01*
X88034Y43702D01*
X88375Y43111D01*
X88677Y42499D01*
X88938Y41869D01*
X89157Y41223D01*
X89333Y40564D01*
X89466Y39896D01*
X89555Y39219D01*
X89600Y38539D01*
X89600Y38198D01*
X89600D01*
X89600Y38198D01*
X89600Y6470D01*
X89600Y6275D01*
X89524Y5892D01*
X89375Y5531D01*
X89158Y5207D01*
X88882Y4931D01*
X88557Y4714D01*
X88516Y4697D01*
X88439Y4774D01*
X88470Y4848D01*
X88491Y5005D01*
X88470Y5162D01*
X88410Y5308D01*
X88314Y5433D01*
X88188Y5529D01*
X88042Y5590D01*
X87886Y5610D01*
X87729Y5590D01*
X87583Y5529D01*
X87458Y5433D01*
X87362Y5308D01*
X87301Y5162D01*
X87281Y5005D01*
X87301Y4848D01*
X87362Y4703D01*
X87449Y4589D01*
X87426Y4489D01*
X83690Y4489D01*
X83544Y4489D01*
X83253Y4527D01*
X82970Y4603D01*
X82700Y4715D01*
X82446Y4861D01*
X82214Y5040D01*
X82007Y5247D01*
X81828Y5479D01*
X81682Y5733D01*
X81570Y6003D01*
X81494Y6286D01*
X81456Y6577D01*
X81456Y6723D01*
X81456Y29748D01*
X81447Y30269D01*
X81379Y31309D01*
X81243Y32342D01*
X81040Y33364D01*
X80770Y34371D01*
X80435Y35357D01*
X80037Y36320D01*
X79576Y37255D01*
X79055Y38157D01*
X78476Y39023D01*
X77842Y39850D01*
X77155Y40633D01*
X76792Y41008D01*
X76432Y41357D01*
X75677Y42019D01*
X74881Y42630D01*
X74046Y43187D01*
X73177Y43689D01*
X72277Y44133D01*
X71350Y44517D01*
X70399Y44840D01*
X69430Y45099D01*
X68446Y45295D01*
X67450Y45426D01*
X66449Y45492D01*
X65947Y45500D01*
X65947Y45500D01*
X65947Y45500D01*
X64683Y45500D01*
X64375Y45500D01*
X63762Y45540D01*
X63153Y45620D01*
X62550Y45740D01*
X61957Y45899D01*
X61375Y46097D01*
X60807Y46332D01*
X60256Y46604D01*
X59723Y46911D01*
X59212Y47253D01*
X58725Y47627D01*
X58263Y48032D01*
X58046Y48249D01*
Y48249D01*
X46386Y59908D01*
X46247Y60048D01*
X46028Y60376D01*
X45877Y60740D01*
X45800Y61127D01*
X45800Y61324D01*
X45800Y64166D01*
X45800Y64277D01*
X45844Y64496D01*
X45929Y64703D01*
X46053Y64889D01*
X46211Y65047D01*
X46397Y65171D01*
X46603Y65256D01*
X46822Y65300D01*
X46934Y65300D01*
X46934Y65300D01*
X54448Y65300D01*
X54609D01*
X54928Y65269D01*
D02*
G37*
%LPC*%
G36*
X92300Y91929D02*
X92000Y91889D01*
X91720Y91774D01*
X91480Y91589D01*
X91350Y91420D01*
X91250D01*
X91120Y91589D01*
X90880Y91774D01*
X90600Y91889D01*
X90300Y91929D01*
X90000Y91889D01*
X89720Y91774D01*
X89480Y91589D01*
X89295Y91349D01*
X89180Y91069D01*
X89140Y90769D01*
X89180Y90469D01*
X89295Y90189D01*
X89480Y89949D01*
X89720Y89765D01*
X90000Y89649D01*
X90300Y89609D01*
X90600Y89649D01*
X90880Y89765D01*
X91120Y89949D01*
X91250Y90118D01*
X91350D01*
X91480Y89949D01*
X91720Y89765D01*
X92000Y89649D01*
X92300Y89609D01*
X92600Y89649D01*
X92880Y89765D01*
X93120Y89949D01*
X93250Y90118D01*
X93350D01*
X93480Y89949D01*
X93720Y89765D01*
X94000Y89649D01*
X94050Y89642D01*
Y90769D01*
Y91896D01*
X94000Y91889D01*
X93720Y91774D01*
X93480Y91589D01*
X93350Y91420D01*
X93250D01*
X93120Y91589D01*
X92880Y91774D01*
X92600Y91889D01*
X92300Y91929D01*
D02*
G37*
G36*
X94550Y91896D02*
Y91019D01*
X95427D01*
X95420Y91069D01*
X95305Y91349D01*
X95120Y91589D01*
X94880Y91774D01*
X94600Y91889D01*
X94550Y91896D01*
D02*
G37*
G36*
X95427Y90519D02*
X94550D01*
Y89642D01*
X94600Y89649D01*
X94880Y89765D01*
X95120Y89949D01*
X95305Y90189D01*
X95420Y90469D01*
X95427Y90519D01*
D02*
G37*
G36*
X88300Y89777D02*
X88065Y89746D01*
X87846Y89655D01*
X87658Y89511D01*
X87514Y89323D01*
X87423Y89104D01*
X87392Y88869D01*
X87423Y88634D01*
X87514Y88415D01*
X87658Y88227D01*
X87846Y88083D01*
X88065Y87992D01*
X88300Y87961D01*
X88535Y87992D01*
X88754Y88083D01*
X88942Y88227D01*
X89086Y88415D01*
X89177Y88634D01*
X89208Y88869D01*
X89177Y89104D01*
X89086Y89323D01*
X88942Y89511D01*
X88754Y89655D01*
X88535Y89746D01*
X88300Y89777D01*
D02*
G37*
G36*
X59800Y87105D02*
X59643Y87085D01*
X59497Y87024D01*
X59372Y86928D01*
X59276Y86803D01*
X59215Y86657D01*
X59195Y86500D01*
X59215Y86343D01*
X59276Y86197D01*
X59372Y86072D01*
X59497Y85976D01*
X59643Y85915D01*
X59800Y85895D01*
X59957Y85915D01*
X60103Y85976D01*
X60228Y86072D01*
X60324Y86197D01*
X60385Y86343D01*
X60405Y86500D01*
X60385Y86657D01*
X60324Y86803D01*
X60228Y86928D01*
X60103Y87024D01*
X59957Y87085D01*
X59800Y87105D01*
D02*
G37*
G36*
X106293Y86878D02*
X106136Y86857D01*
X105990Y86797D01*
X105865Y86701D01*
X105769Y86575D01*
X105708Y86429D01*
X105688Y86273D01*
X105708Y86116D01*
X105769Y85970D01*
X105865Y85845D01*
X105990Y85749D01*
X106136Y85688D01*
X106293Y85668D01*
X106450Y85688D01*
X106595Y85749D01*
X106721Y85845D01*
X106817Y85970D01*
X106877Y86116D01*
X106898Y86273D01*
X106877Y86429D01*
X106817Y86575D01*
X106721Y86701D01*
X106595Y86797D01*
X106450Y86857D01*
X106293Y86878D01*
D02*
G37*
G36*
X57704Y86805D02*
X57547Y86785D01*
X57401Y86724D01*
X57276Y86628D01*
X57180Y86503D01*
X57119Y86357D01*
X57098Y86200D01*
X57119Y86043D01*
X57180Y85897D01*
X57276Y85772D01*
X57401Y85676D01*
X57547Y85615D01*
X57704Y85595D01*
X57860Y85615D01*
X58006Y85676D01*
X58132Y85772D01*
X58228Y85897D01*
X58288Y86043D01*
X58309Y86200D01*
X58288Y86357D01*
X58228Y86503D01*
X58132Y86628D01*
X58006Y86724D01*
X57860Y86785D01*
X57704Y86805D01*
D02*
G37*
G36*
X104092Y85905D02*
X103936Y85885D01*
X103790Y85824D01*
X103664Y85728D01*
X103568Y85603D01*
X103544Y85545D01*
X103430Y85530D01*
X103428Y85533D01*
X103303Y85629D01*
X103157Y85690D01*
X103000Y85710D01*
X102843Y85690D01*
X102697Y85629D01*
X102572Y85533D01*
X102476Y85408D01*
X102415Y85262D01*
X102395Y85105D01*
X102415Y84948D01*
X102476Y84802D01*
X102572Y84677D01*
X102697Y84581D01*
X102843Y84520D01*
X103000Y84500D01*
X103157Y84520D01*
X103303Y84581D01*
X103428Y84677D01*
X103524Y84802D01*
X103548Y84860D01*
X103662Y84875D01*
X103664Y84872D01*
X103765Y84795D01*
X103765Y84711D01*
X103754Y84682D01*
X103683Y84653D01*
X103558Y84557D01*
X103462Y84432D01*
X103401Y84286D01*
X103381Y84129D01*
X103401Y83972D01*
X103462Y83827D01*
X103558Y83701D01*
X103683Y83605D01*
X103829Y83545D01*
X103986Y83524D01*
X104142Y83545D01*
X104288Y83605D01*
X104344Y83647D01*
X104435Y83692D01*
X104561Y83596D01*
X104707Y83535D01*
X104863Y83515D01*
X105020Y83535D01*
X105166Y83596D01*
X105290Y83691D01*
X105314Y83707D01*
X105393D01*
X105416Y83691D01*
X105540Y83596D01*
X105686Y83535D01*
X105843Y83515D01*
X106000Y83535D01*
X106145Y83596D01*
X106271Y83692D01*
X106367Y83817D01*
X106427Y83963D01*
X106448Y84120D01*
X106427Y84276D01*
X106367Y84422D01*
X106271Y84548D01*
X106145Y84644D01*
X106000Y84704D01*
X105843Y84725D01*
X105686Y84704D01*
X105540Y84644D01*
X105416Y84549D01*
X105393Y84532D01*
X105314D01*
X105290Y84549D01*
X105166Y84644D01*
X105020Y84704D01*
X104863Y84725D01*
X104707Y84704D01*
X104561Y84644D01*
X104435Y84548D01*
X104353Y84604D01*
X104313Y84634D01*
X104313Y84719D01*
X104324Y84747D01*
X104395Y84776D01*
X104520Y84872D01*
X104616Y84997D01*
X104677Y85143D01*
X104697Y85300D01*
X104677Y85457D01*
X104616Y85603D01*
X104520Y85728D01*
X104395Y85824D01*
X104249Y85885D01*
X104092Y85905D01*
D02*
G37*
G36*
X108134Y86717D02*
X107978Y86697D01*
X107832Y86636D01*
X107707Y86540D01*
X107610Y86415D01*
X107550Y86269D01*
X107529Y86112D01*
X107550Y85955D01*
X107610Y85809D01*
X107707Y85684D01*
X107832Y85588D01*
X107978Y85528D01*
X108134Y85507D01*
X108291Y85528D01*
X108437Y85588D01*
X108562Y85684D01*
X108659Y85809D01*
X108719Y85955D01*
X108740Y86112D01*
X108719Y86269D01*
X108659Y86415D01*
X108562Y86540D01*
X108437Y86636D01*
X108291Y86697D01*
X108134Y86717D01*
D02*
G37*
G36*
X62600Y86305D02*
X62443Y86285D01*
X62297Y86224D01*
X62172Y86128D01*
X62076Y86003D01*
X62015Y85857D01*
X61995Y85700D01*
X62015Y85543D01*
X62076Y85397D01*
X62172Y85272D01*
X62297Y85176D01*
X62443Y85115D01*
X62600Y85095D01*
X62757Y85115D01*
X62903Y85176D01*
X63028Y85272D01*
X63124Y85397D01*
X63185Y85543D01*
X63205Y85700D01*
X63185Y85857D01*
X63124Y86003D01*
X63028Y86128D01*
X62903Y86224D01*
X62757Y86285D01*
X62600Y86305D01*
D02*
G37*
G36*
X37365Y85205D02*
X37208Y85185D01*
X37062Y85124D01*
X36979Y85060D01*
X36895Y85124D01*
X36749Y85185D01*
X36593Y85205D01*
X36436Y85185D01*
X36290Y85124D01*
X36177Y85037D01*
X36064Y85124D01*
X35918Y85185D01*
X35762Y85205D01*
X35605Y85185D01*
X35459Y85124D01*
X35334Y85028D01*
X35238Y84903D01*
X35177Y84757D01*
X35156Y84600D01*
X35177Y84443D01*
X35238Y84297D01*
X35312Y84200D01*
X35238Y84103D01*
X35177Y83957D01*
X35156Y83800D01*
X35177Y83643D01*
X35238Y83497D01*
X35312Y83400D01*
X35238Y83303D01*
X35177Y83157D01*
X35156Y83000D01*
X35177Y82843D01*
X35238Y82697D01*
X35334Y82572D01*
X35459Y82476D01*
X35605Y82415D01*
X35762Y82395D01*
X35918Y82415D01*
X36064Y82476D01*
X36190Y82572D01*
X36286Y82697D01*
X36346Y82843D01*
X36367Y83000D01*
X36346Y83157D01*
X36286Y83303D01*
X36211Y83400D01*
X36286Y83497D01*
X36346Y83643D01*
X36367Y83800D01*
X36348Y83944D01*
X36409Y84020D01*
X36414Y84025D01*
X36436Y84015D01*
X36593Y83995D01*
X36749Y84015D01*
X36895Y84076D01*
X36979Y84140D01*
X37062Y84076D01*
X37208Y84015D01*
X37365Y83995D01*
X37521Y84015D01*
X37667Y84076D01*
X37793Y84172D01*
X37889Y84297D01*
X37949Y84443D01*
X37970Y84600D01*
X37949Y84757D01*
X37889Y84903D01*
X37793Y85028D01*
X37667Y85124D01*
X37521Y85185D01*
X37365Y85205D01*
D02*
G37*
G36*
X77188Y85630D02*
X77031Y85610D01*
X76885Y85549D01*
X76760Y85453D01*
X76664Y85328D01*
X76603Y85182D01*
X76583Y85025D01*
X76603Y84868D01*
X76664Y84722D01*
X76760Y84597D01*
X76885Y84501D01*
X77031Y84440D01*
X77188Y84420D01*
X77345Y84440D01*
X77491Y84501D01*
X77616Y84597D01*
X77712Y84722D01*
X77773Y84868D01*
X77793Y85025D01*
X77773Y85182D01*
X77712Y85328D01*
X77616Y85453D01*
X77491Y85549D01*
X77345Y85610D01*
X77188Y85630D01*
D02*
G37*
G36*
X65800Y85605D02*
X65643Y85585D01*
X65497Y85524D01*
X65372Y85428D01*
X65276Y85303D01*
X65215Y85157D01*
X65195Y85000D01*
X65215Y84843D01*
X65276Y84697D01*
X65372Y84572D01*
X65497Y84476D01*
X65643Y84415D01*
X65800Y84395D01*
X65957Y84415D01*
X66103Y84476D01*
X66228Y84572D01*
X66324Y84697D01*
X66385Y84843D01*
X66405Y85000D01*
X66385Y85157D01*
X66324Y85303D01*
X66228Y85428D01*
X66103Y85524D01*
X65957Y85585D01*
X65800Y85605D01*
D02*
G37*
G36*
X83300Y84830D02*
X83143Y84810D01*
X82997Y84749D01*
X82872Y84653D01*
X82776Y84528D01*
X82715Y84382D01*
X82710Y84338D01*
X82610Y84333D01*
X82549Y84479D01*
X82453Y84605D01*
X82328Y84701D01*
X82182Y84761D01*
X82025Y84782D01*
X81868Y84761D01*
X81722Y84701D01*
X81597Y84605D01*
X81501Y84479D01*
X81440Y84333D01*
X81420Y84177D01*
X81440Y84020D01*
X81501Y83874D01*
X81597Y83749D01*
X81722Y83653D01*
X81868Y83592D01*
X82025Y83572D01*
X82182Y83592D01*
X82328Y83653D01*
X82453Y83749D01*
X82549Y83874D01*
X82610Y84020D01*
X82615Y84063D01*
X82715Y84068D01*
X82776Y83922D01*
X82872Y83797D01*
X82997Y83701D01*
X83143Y83640D01*
X83300Y83620D01*
X83457Y83640D01*
X83603Y83701D01*
X83728Y83797D01*
X83824Y83922D01*
X83885Y84068D01*
X83905Y84225D01*
X83885Y84382D01*
X83824Y84528D01*
X83728Y84653D01*
X83603Y84749D01*
X83457Y84810D01*
X83300Y84830D01*
D02*
G37*
G36*
X64060Y85455D02*
X63903Y85435D01*
X63757Y85374D01*
X63632Y85278D01*
X63536Y85153D01*
X63475Y85007D01*
X63455Y84850D01*
X63475Y84693D01*
X63536Y84547D01*
X63632Y84422D01*
X63757Y84326D01*
X63903Y84265D01*
X64060Y84245D01*
X64217Y84265D01*
X64363Y84326D01*
X64488Y84422D01*
X64584Y84547D01*
X64645Y84693D01*
X64665Y84850D01*
X64645Y85007D01*
X64584Y85153D01*
X64488Y85278D01*
X64363Y85374D01*
X64217Y85435D01*
X64060Y85455D01*
D02*
G37*
G36*
X68325Y85255D02*
X68168Y85235D01*
X68022Y85174D01*
X67897Y85078D01*
X67801Y84953D01*
X67740Y84807D01*
X67720Y84650D01*
X67740Y84493D01*
X67801Y84347D01*
X67897Y84222D01*
X68022Y84126D01*
X68168Y84065D01*
X68325Y84045D01*
X68482Y84065D01*
X68628Y84126D01*
X68753Y84222D01*
X68849Y84347D01*
X68910Y84493D01*
X68930Y84650D01*
X68910Y84807D01*
X68849Y84953D01*
X68753Y85078D01*
X68628Y85174D01*
X68482Y85235D01*
X68325Y85255D01*
D02*
G37*
G36*
X109895Y84900D02*
X109738Y84880D01*
X109592Y84819D01*
X109467Y84723D01*
X109371Y84598D01*
X109310Y84452D01*
X109290Y84295D01*
X109310Y84138D01*
X109371Y83992D01*
X109467Y83867D01*
X109592Y83771D01*
X109738Y83710D01*
X109895Y83690D01*
X110052Y83710D01*
X110198Y83771D01*
X110323Y83867D01*
X110419Y83992D01*
X110480Y84138D01*
X110500Y84295D01*
X110480Y84452D01*
X110419Y84598D01*
X110323Y84723D01*
X110198Y84819D01*
X110052Y84880D01*
X109895Y84900D01*
D02*
G37*
G36*
X78400Y84830D02*
X78243Y84810D01*
X78097Y84749D01*
X77972Y84653D01*
X77876Y84528D01*
X77815Y84382D01*
X77795Y84225D01*
X77815Y84068D01*
X77876Y83922D01*
X77972Y83797D01*
X78097Y83701D01*
X78243Y83640D01*
X78400Y83620D01*
X78557Y83640D01*
X78703Y83701D01*
X78828Y83797D01*
X78924Y83922D01*
X78985Y84068D01*
X79005Y84225D01*
X78985Y84382D01*
X78924Y84528D01*
X78828Y84653D01*
X78703Y84749D01*
X78557Y84810D01*
X78400Y84830D01*
D02*
G37*
G36*
X62600Y84805D02*
X62443Y84785D01*
X62297Y84724D01*
X62172Y84628D01*
X62076Y84503D01*
X62015Y84357D01*
X61995Y84200D01*
X62015Y84043D01*
X62076Y83897D01*
X62172Y83772D01*
X62297Y83676D01*
X62443Y83615D01*
X62600Y83595D01*
X62757Y83615D01*
X62903Y83676D01*
X63028Y83772D01*
X63124Y83897D01*
X63185Y84043D01*
X63205Y84200D01*
X63185Y84357D01*
X63124Y84503D01*
X63028Y84628D01*
X62903Y84724D01*
X62757Y84785D01*
X62600Y84805D01*
D02*
G37*
G36*
X80225Y84782D02*
X80068Y84761D01*
X79922Y84701D01*
X79797Y84605D01*
X79701Y84479D01*
X79640Y84333D01*
X79620Y84177D01*
X79640Y84020D01*
X79701Y83874D01*
X79797Y83749D01*
X79922Y83653D01*
X80068Y83592D01*
X80225Y83572D01*
X80382Y83592D01*
X80528Y83653D01*
X80653Y83749D01*
X80749Y83874D01*
X80810Y84020D01*
X80830Y84177D01*
X80810Y84333D01*
X80749Y84479D01*
X80653Y84605D01*
X80528Y84701D01*
X80382Y84761D01*
X80225Y84782D01*
D02*
G37*
G36*
X51425D02*
X51268Y84761D01*
X51122Y84701D01*
X50997Y84605D01*
X50901Y84479D01*
X50840Y84333D01*
X50820Y84177D01*
X50840Y84020D01*
X50901Y83874D01*
X50997Y83749D01*
X51122Y83653D01*
X51268Y83592D01*
X51425Y83572D01*
X51582Y83592D01*
X51728Y83653D01*
X51853Y83749D01*
X51949Y83874D01*
X52010Y84020D01*
X52030Y84177D01*
X52010Y84333D01*
X51949Y84479D01*
X51853Y84605D01*
X51728Y84701D01*
X51582Y84761D01*
X51425Y84782D01*
D02*
G37*
G36*
X100025Y84775D02*
X99868Y84754D01*
X99722Y84694D01*
X99597Y84598D01*
X99501Y84472D01*
X99440Y84326D01*
X99420Y84170D01*
X99440Y84013D01*
X99501Y83867D01*
X99597Y83742D01*
X99722Y83646D01*
X99868Y83585D01*
X100025Y83565D01*
X100182Y83585D01*
X100328Y83646D01*
X100453Y83742D01*
X100549Y83867D01*
X100610Y84013D01*
X100630Y84170D01*
X100610Y84326D01*
X100549Y84472D01*
X100453Y84598D01*
X100328Y84694D01*
X100182Y84754D01*
X100025Y84775D01*
D02*
G37*
G36*
X53234D02*
X53077Y84754D01*
X52931Y84694D01*
X52806Y84598D01*
X52710Y84472D01*
X52649Y84326D01*
X52629Y84170D01*
X52649Y84013D01*
X52710Y83867D01*
X52806Y83742D01*
X52931Y83646D01*
X53077Y83585D01*
X53234Y83565D01*
X53390Y83585D01*
X53536Y83646D01*
X53662Y83742D01*
X53758Y83867D01*
X53818Y84013D01*
X53839Y84170D01*
X53818Y84326D01*
X53758Y84472D01*
X53662Y84598D01*
X53536Y84694D01*
X53390Y84754D01*
X53234Y84775D01*
D02*
G37*
G36*
X55025Y84766D02*
X54868Y84746D01*
X54722Y84685D01*
X54597Y84589D01*
X54501Y84464D01*
X54440Y84318D01*
X54420Y84161D01*
X54440Y84004D01*
X54501Y83858D01*
X54597Y83733D01*
X54722Y83637D01*
X54868Y83576D01*
X55025Y83556D01*
X55182Y83576D01*
X55328Y83637D01*
X55453Y83733D01*
X55549Y83858D01*
X55610Y84004D01*
X55630Y84161D01*
X55610Y84318D01*
X55549Y84464D01*
X55453Y84589D01*
X55328Y84685D01*
X55182Y84746D01*
X55025Y84766D01*
D02*
G37*
G36*
X49625Y84755D02*
X49468Y84735D01*
X49322Y84674D01*
X49197Y84578D01*
X49101Y84453D01*
X49040Y84307D01*
X49020Y84150D01*
X49040Y83993D01*
X49101Y83847D01*
X49197Y83722D01*
X49322Y83626D01*
X49468Y83565D01*
X49625Y83545D01*
X49782Y83565D01*
X49928Y83626D01*
X50053Y83722D01*
X50149Y83847D01*
X50210Y83993D01*
X50230Y84150D01*
X50210Y84307D01*
X50149Y84453D01*
X50053Y84578D01*
X49928Y84674D01*
X49782Y84735D01*
X49625Y84755D01*
D02*
G37*
G36*
X47825Y84730D02*
X47668Y84710D01*
X47522Y84649D01*
X47397Y84553D01*
X47301Y84428D01*
X47240Y84282D01*
X47220Y84125D01*
X47240Y83968D01*
X47301Y83822D01*
X47397Y83697D01*
X47522Y83601D01*
X47668Y83540D01*
X47825Y83520D01*
X47982Y83540D01*
X48128Y83601D01*
X48253Y83697D01*
X48349Y83822D01*
X48410Y83968D01*
X48430Y84125D01*
X48410Y84282D01*
X48349Y84428D01*
X48253Y84553D01*
X48128Y84649D01*
X47982Y84710D01*
X47825Y84730D01*
D02*
G37*
G36*
X56500Y84725D02*
X56343Y84704D01*
X56197Y84644D01*
X56072Y84548D01*
X55976Y84422D01*
X55915Y84276D01*
X55895Y84120D01*
X55915Y83963D01*
X55976Y83817D01*
X56072Y83692D01*
X56197Y83596D01*
X56343Y83535D01*
X56500Y83515D01*
X56657Y83535D01*
X56803Y83596D01*
X56928Y83692D01*
X57024Y83817D01*
X57085Y83963D01*
X57105Y84120D01*
X57085Y84276D01*
X57024Y84422D01*
X56928Y84548D01*
X56803Y84644D01*
X56657Y84704D01*
X56500Y84725D01*
D02*
G37*
G36*
X59300Y84405D02*
X59143Y84385D01*
X58997Y84324D01*
X58872Y84228D01*
X58776Y84103D01*
X58715Y83957D01*
X58695Y83800D01*
X58715Y83643D01*
X58776Y83497D01*
X58872Y83372D01*
X58997Y83276D01*
X59143Y83215D01*
X59300Y83195D01*
X59457Y83215D01*
X59603Y83276D01*
X59728Y83372D01*
X59824Y83497D01*
X59885Y83643D01*
X59905Y83800D01*
X59885Y83957D01*
X59824Y84103D01*
X59728Y84228D01*
X59603Y84324D01*
X59457Y84385D01*
X59300Y84405D01*
D02*
G37*
G36*
X58350Y83480D02*
X58193Y83460D01*
X58047Y83399D01*
X57922Y83303D01*
X57826Y83178D01*
X57765Y83032D01*
X57745Y82875D01*
X57765Y82718D01*
X57826Y82572D01*
X57922Y82447D01*
X58047Y82351D01*
X58193Y82290D01*
X58350Y82270D01*
X58507Y82290D01*
X58653Y82351D01*
X58778Y82447D01*
X58874Y82572D01*
X58935Y82718D01*
X58955Y82875D01*
X58935Y83032D01*
X58874Y83178D01*
X58778Y83303D01*
X58653Y83399D01*
X58507Y83460D01*
X58350Y83480D01*
D02*
G37*
G36*
X109700Y83084D02*
X109543Y83064D01*
X109397Y83003D01*
X109272Y82907D01*
X109176Y82782D01*
X109115Y82636D01*
X109095Y82479D01*
X109115Y82323D01*
X109176Y82177D01*
X109272Y82051D01*
X109397Y81955D01*
X109543Y81895D01*
X109700Y81874D01*
X109857Y81895D01*
X110003Y81955D01*
X110128Y82051D01*
X110224Y82177D01*
X110285Y82323D01*
X110305Y82479D01*
X110285Y82636D01*
X110224Y82782D01*
X110128Y82907D01*
X110003Y83003D01*
X109857Y83064D01*
X109700Y83084D01*
D02*
G37*
G36*
X35762Y82005D02*
X35605Y81985D01*
X35459Y81924D01*
X35343Y81835D01*
X35226Y81924D01*
X35080Y81985D01*
X34923Y82005D01*
X34767Y81985D01*
X34621Y81924D01*
X34496Y81828D01*
X34399Y81703D01*
X34339Y81557D01*
X34337Y81545D01*
X34250Y81556D01*
X34093Y81535D01*
X33947Y81475D01*
X33822Y81379D01*
X33726Y81253D01*
X33665Y81108D01*
X33645Y80951D01*
X33665Y80794D01*
X33726Y80648D01*
X33822Y80523D01*
X33947Y80427D01*
X34093Y80366D01*
X34250Y80346D01*
X34407Y80366D01*
X34553Y80427D01*
X34678Y80523D01*
X34774Y80648D01*
X34835Y80794D01*
X34836Y80806D01*
X34923Y80795D01*
X35080Y80815D01*
X35096Y80822D01*
X35153Y80776D01*
X35176Y80747D01*
X35156Y80600D01*
X35177Y80443D01*
X35238Y80297D01*
X35312Y80200D01*
X35238Y80103D01*
X35177Y79957D01*
X35156Y79800D01*
X35177Y79643D01*
X35238Y79497D01*
X35334Y79372D01*
X35459Y79276D01*
X35605Y79215D01*
X35762Y79195D01*
X35918Y79215D01*
X36064Y79276D01*
X36177Y79363D01*
X36290Y79276D01*
X36436Y79215D01*
X36593Y79195D01*
X36749Y79215D01*
X36895Y79276D01*
X37021Y79372D01*
X37117Y79497D01*
X37177Y79643D01*
X37198Y79800D01*
X37177Y79957D01*
X37117Y80103D01*
X37021Y80228D01*
X36895Y80324D01*
X36749Y80384D01*
X36593Y80405D01*
X36436Y80384D01*
X36414Y80375D01*
X36409Y80380D01*
X36348Y80456D01*
X36367Y80600D01*
X36346Y80757D01*
X36286Y80903D01*
X36211Y81000D01*
X36286Y81097D01*
X36346Y81243D01*
X36367Y81400D01*
X36346Y81557D01*
X36286Y81703D01*
X36190Y81828D01*
X36064Y81924D01*
X35918Y81985D01*
X35762Y82005D01*
D02*
G37*
G36*
X112500Y82579D02*
X112343Y82559D01*
X112197Y82498D01*
X112072Y82402D01*
X111976Y82277D01*
X111915Y82131D01*
X111895Y81974D01*
X111915Y81818D01*
X111976Y81672D01*
X112072Y81546D01*
X112197Y81450D01*
X112343Y81390D01*
X112500Y81369D01*
X112657Y81390D01*
X112803Y81450D01*
X112928Y81546D01*
X113024Y81672D01*
X113085Y81818D01*
X113105Y81974D01*
X113085Y82131D01*
X113024Y82277D01*
X112928Y82402D01*
X112803Y82498D01*
X112657Y82559D01*
X112500Y82579D01*
D02*
G37*
G36*
X85643Y81578D02*
X85486Y81558D01*
X85340Y81497D01*
X85215Y81401D01*
X85119Y81276D01*
X85107Y81248D01*
X85030Y81228D01*
X84993Y81233D01*
X84857Y81289D01*
X84700Y81310D01*
X84543Y81289D01*
X84397Y81229D01*
X84272Y81133D01*
X84176Y81007D01*
X84115Y80861D01*
X84095Y80705D01*
X84115Y80548D01*
X84176Y80402D01*
X84272Y80277D01*
X84397Y80181D01*
X84543Y80120D01*
X84700Y80099D01*
X84857Y80120D01*
X85003Y80181D01*
X85128Y80277D01*
X85224Y80402D01*
X85235Y80430D01*
X85313Y80450D01*
X85350Y80445D01*
X85486Y80389D01*
X85643Y80368D01*
X85800Y80389D01*
X85945Y80449D01*
X86071Y80545D01*
X86167Y80671D01*
X86227Y80817D01*
X86248Y80973D01*
X86227Y81130D01*
X86167Y81276D01*
X86071Y81401D01*
X85945Y81497D01*
X85800Y81558D01*
X85643Y81578D01*
D02*
G37*
G36*
X60800Y82330D02*
X60643Y82310D01*
X60497Y82249D01*
X60372Y82153D01*
X60276Y82028D01*
X60215Y81882D01*
X60195Y81725D01*
X60215Y81568D01*
X60276Y81422D01*
X60372Y81297D01*
X60497Y81201D01*
X60643Y81140D01*
X60800Y81120D01*
X60957Y81140D01*
X61103Y81201D01*
X61228Y81297D01*
X61324Y81422D01*
X61385Y81568D01*
X61405Y81725D01*
X61385Y81882D01*
X61324Y82028D01*
X61228Y82153D01*
X61103Y82249D01*
X60957Y82310D01*
X60800Y82330D01*
D02*
G37*
G36*
X69443Y81541D02*
X69286Y81521D01*
X69140Y81460D01*
X69015Y81364D01*
X68919Y81239D01*
X68858Y81093D01*
X68838Y80936D01*
X68856Y80795D01*
X68821Y80754D01*
X68774Y80721D01*
X68682Y80760D01*
X68525Y80780D01*
X68368Y80760D01*
X68222Y80699D01*
X68097Y80603D01*
X68001Y80478D01*
X67940Y80332D01*
X67920Y80175D01*
X67940Y80018D01*
X68001Y79872D01*
X68097Y79747D01*
X68222Y79651D01*
X68368Y79590D01*
X68525Y79570D01*
X68682Y79590D01*
X68828Y79651D01*
X68953Y79747D01*
X69049Y79872D01*
X69110Y80018D01*
X69130Y80175D01*
X69112Y80316D01*
X69147Y80357D01*
X69194Y80390D01*
X69286Y80351D01*
X69443Y80331D01*
X69600Y80351D01*
X69745Y80412D01*
X69871Y80508D01*
X69967Y80633D01*
X70027Y80779D01*
X70048Y80936D01*
X70027Y81093D01*
X69967Y81239D01*
X69871Y81364D01*
X69745Y81460D01*
X69600Y81521D01*
X69443Y81541D01*
D02*
G37*
G36*
X103643Y81585D02*
X103486Y81565D01*
X103340Y81504D01*
X103215Y81408D01*
X103119Y81283D01*
X103058Y81137D01*
X103038Y80980D01*
X103058Y80824D01*
X103119Y80678D01*
X103215Y80552D01*
X103340Y80456D01*
X103486Y80396D01*
X103643Y80375D01*
X103800Y80396D01*
X103945Y80456D01*
X104071Y80552D01*
X104167Y80678D01*
X104227Y80824D01*
X104248Y80980D01*
X104227Y81137D01*
X104167Y81283D01*
X104071Y81408D01*
X103945Y81504D01*
X103800Y81565D01*
X103643Y81585D01*
D02*
G37*
G36*
X96443Y81585D02*
X96286Y81565D01*
X96140Y81504D01*
X96015Y81408D01*
X95919Y81283D01*
X95858Y81137D01*
X95838Y80980D01*
X95858Y80824D01*
X95919Y80678D01*
X96015Y80552D01*
X96140Y80456D01*
X96286Y80396D01*
X96443Y80375D01*
X96600Y80396D01*
X96745Y80456D01*
X96871Y80552D01*
X96967Y80678D01*
X97027Y80824D01*
X97048Y80980D01*
X97027Y81137D01*
X96967Y81283D01*
X96871Y81408D01*
X96745Y81504D01*
X96600Y81565D01*
X96443Y81585D01*
D02*
G37*
G36*
X89238D02*
X89081Y81565D01*
X88935Y81504D01*
X88810Y81408D01*
X88714Y81283D01*
X88653Y81137D01*
X88633Y80980D01*
X88653Y80824D01*
X88714Y80678D01*
X88810Y80552D01*
X88935Y80456D01*
X89081Y80396D01*
X89238Y80375D01*
X89395Y80396D01*
X89540Y80456D01*
X89666Y80552D01*
X89762Y80678D01*
X89822Y80824D01*
X89843Y80980D01*
X89822Y81137D01*
X89762Y81283D01*
X89666Y81408D01*
X89540Y81504D01*
X89395Y81565D01*
X89238Y81585D01*
D02*
G37*
G36*
X98243Y81585D02*
X98086Y81565D01*
X97940Y81504D01*
X97815Y81408D01*
X97719Y81283D01*
X97658Y81137D01*
X97638Y80980D01*
X97658Y80824D01*
X97719Y80678D01*
X97815Y80552D01*
X97940Y80456D01*
X98086Y80396D01*
X98243Y80375D01*
X98400Y80396D01*
X98545Y80456D01*
X98671Y80552D01*
X98767Y80678D01*
X98827Y80824D01*
X98848Y80980D01*
X98827Y81137D01*
X98767Y81283D01*
X98671Y81408D01*
X98545Y81504D01*
X98400Y81565D01*
X98243Y81585D01*
D02*
G37*
G36*
X94643Y81578D02*
X94486Y81558D01*
X94340Y81497D01*
X94215Y81401D01*
X94119Y81276D01*
X94058Y81130D01*
X94038Y80973D01*
X94058Y80817D01*
X94119Y80671D01*
X94215Y80545D01*
X94340Y80449D01*
X94486Y80389D01*
X94643Y80368D01*
X94800Y80389D01*
X94945Y80449D01*
X95071Y80545D01*
X95167Y80671D01*
X95227Y80817D01*
X95248Y80973D01*
X95227Y81130D01*
X95167Y81276D01*
X95071Y81401D01*
X94945Y81497D01*
X94800Y81558D01*
X94643Y81578D01*
D02*
G37*
G36*
X91043Y81578D02*
X90886Y81558D01*
X90740Y81497D01*
X90615Y81401D01*
X90519Y81276D01*
X90458Y81130D01*
X90438Y80973D01*
X90458Y80817D01*
X90519Y80671D01*
X90615Y80545D01*
X90740Y80449D01*
X90886Y80389D01*
X91043Y80368D01*
X91200Y80389D01*
X91345Y80449D01*
X91471Y80545D01*
X91567Y80671D01*
X91627Y80817D01*
X91648Y80973D01*
X91627Y81130D01*
X91567Y81276D01*
X91471Y81401D01*
X91345Y81497D01*
X91200Y81558D01*
X91043Y81578D01*
D02*
G37*
G36*
X87443D02*
X87286Y81558D01*
X87140Y81497D01*
X87015Y81401D01*
X86919Y81276D01*
X86858Y81130D01*
X86838Y80973D01*
X86858Y80817D01*
X86919Y80671D01*
X87015Y80545D01*
X87140Y80449D01*
X87286Y80389D01*
X87443Y80368D01*
X87600Y80389D01*
X87745Y80449D01*
X87871Y80545D01*
X87967Y80671D01*
X88027Y80817D01*
X88048Y80973D01*
X88027Y81130D01*
X87967Y81276D01*
X87871Y81401D01*
X87745Y81497D01*
X87600Y81558D01*
X87443Y81578D01*
D02*
G37*
G36*
X92843Y81578D02*
X92686Y81558D01*
X92540Y81497D01*
X92415Y81401D01*
X92319Y81276D01*
X92258Y81130D01*
X92238Y80973D01*
X92258Y80817D01*
X92319Y80671D01*
X92415Y80545D01*
X92540Y80449D01*
X92686Y80389D01*
X92843Y80368D01*
X93000Y80389D01*
X93145Y80449D01*
X93271Y80545D01*
X93367Y80671D01*
X93427Y80817D01*
X93448Y80973D01*
X93427Y81130D01*
X93367Y81276D01*
X93271Y81401D01*
X93145Y81497D01*
X93000Y81558D01*
X92843Y81578D01*
D02*
G37*
G36*
X74843Y81555D02*
X74686Y81535D01*
X74540Y81474D01*
X74415Y81378D01*
X74319Y81253D01*
X74258Y81107D01*
X74238Y80950D01*
X74258Y80793D01*
X74319Y80647D01*
X74415Y80522D01*
X74540Y80426D01*
X74686Y80365D01*
X74843Y80345D01*
X75000Y80365D01*
X75145Y80426D01*
X75271Y80522D01*
X75367Y80647D01*
X75427Y80793D01*
X75448Y80950D01*
X75427Y81107D01*
X75367Y81253D01*
X75271Y81378D01*
X75145Y81474D01*
X75000Y81535D01*
X74843Y81555D01*
D02*
G37*
G36*
X71243Y81555D02*
X71086Y81535D01*
X70940Y81474D01*
X70815Y81378D01*
X70719Y81253D01*
X70658Y81107D01*
X70638Y80950D01*
X70658Y80793D01*
X70719Y80647D01*
X70815Y80522D01*
X70940Y80426D01*
X71086Y80365D01*
X71243Y80345D01*
X71400Y80365D01*
X71545Y80426D01*
X71671Y80522D01*
X71767Y80647D01*
X71827Y80793D01*
X71848Y80950D01*
X71827Y81107D01*
X71767Y81253D01*
X71671Y81378D01*
X71545Y81474D01*
X71400Y81535D01*
X71243Y81555D01*
D02*
G37*
G36*
X73343Y81462D02*
X73186Y81442D01*
X73040Y81381D01*
X72915Y81285D01*
X72819Y81160D01*
X72758Y81014D01*
X72738Y80857D01*
X72758Y80700D01*
X72819Y80555D01*
X72915Y80429D01*
X73040Y80333D01*
X73186Y80273D01*
X73343Y80252D01*
X73500Y80273D01*
X73645Y80333D01*
X73771Y80429D01*
X73867Y80555D01*
X73927Y80700D01*
X73948Y80857D01*
X73927Y81014D01*
X73867Y81160D01*
X73771Y81285D01*
X73645Y81381D01*
X73500Y81442D01*
X73343Y81462D01*
D02*
G37*
G36*
X108743Y81442D02*
X108586Y81422D01*
X108440Y81361D01*
X108315Y81265D01*
X108219Y81140D01*
X108158Y80994D01*
X108137Y80837D01*
X108158Y80680D01*
X108219Y80535D01*
X108315Y80409D01*
X108440Y80313D01*
X108586Y80253D01*
X108743Y80232D01*
X108899Y80253D01*
X109045Y80313D01*
X109171Y80409D01*
X109267Y80535D01*
X109327Y80680D01*
X109348Y80837D01*
X109327Y80994D01*
X109267Y81140D01*
X109171Y81265D01*
X109045Y81361D01*
X108899Y81422D01*
X108743Y81442D01*
D02*
G37*
G36*
X105943Y81442D02*
X105786Y81422D01*
X105640Y81361D01*
X105515Y81265D01*
X105419Y81140D01*
X105358Y80994D01*
X105338Y80837D01*
X105358Y80680D01*
X105419Y80535D01*
X105515Y80409D01*
X105640Y80313D01*
X105786Y80253D01*
X105943Y80232D01*
X106100Y80253D01*
X106245Y80313D01*
X106371Y80409D01*
X106467Y80535D01*
X106527Y80680D01*
X106548Y80837D01*
X106527Y80994D01*
X106467Y81140D01*
X106371Y81265D01*
X106245Y81361D01*
X106100Y81422D01*
X105943Y81442D01*
D02*
G37*
G36*
X62100Y81305D02*
X61943Y81285D01*
X61797Y81224D01*
X61672Y81128D01*
X61576Y81003D01*
X61515Y80857D01*
X61495Y80700D01*
X61515Y80543D01*
X61576Y80397D01*
X61672Y80272D01*
X61797Y80176D01*
X61943Y80115D01*
X62100Y80095D01*
X62257Y80115D01*
X62403Y80176D01*
X62528Y80272D01*
X62624Y80397D01*
X62685Y80543D01*
X62705Y80700D01*
X62685Y80857D01*
X62624Y81003D01*
X62528Y81128D01*
X62403Y81224D01*
X62257Y81285D01*
X62100Y81305D01*
D02*
G37*
G36*
X52195Y81280D02*
X52038Y81260D01*
X51892Y81199D01*
X51767Y81103D01*
X51671Y80978D01*
X51610Y80832D01*
X51590Y80675D01*
X51610Y80518D01*
X51671Y80372D01*
X51767Y80247D01*
X51892Y80151D01*
X52038Y80090D01*
X52195Y80070D01*
X52352Y80090D01*
X52498Y80151D01*
X52623Y80247D01*
X52719Y80372D01*
X52780Y80518D01*
X52800Y80675D01*
X52780Y80832D01*
X52719Y80978D01*
X52623Y81103D01*
X52498Y81199D01*
X52352Y81260D01*
X52195Y81280D01*
D02*
G37*
G36*
X77800Y81205D02*
X77643Y81185D01*
X77497Y81124D01*
X77372Y81028D01*
X77276Y80903D01*
X77215Y80757D01*
X77195Y80600D01*
X77215Y80443D01*
X77276Y80298D01*
X77372Y80172D01*
X77497Y80076D01*
X77643Y80016D01*
X77800Y79995D01*
X77957Y80016D01*
X78103Y80076D01*
X78228Y80172D01*
X78324Y80298D01*
X78385Y80443D01*
X78405Y80600D01*
X78385Y80757D01*
X78324Y80903D01*
X78228Y81028D01*
X78103Y81124D01*
X77957Y81185D01*
X77800Y81205D01*
D02*
G37*
G36*
X111093Y79207D02*
X110884Y79179D01*
X110689Y79099D01*
X110522Y78971D01*
X110394Y78803D01*
X110313Y78609D01*
X110286Y78400D01*
X110313Y78191D01*
X110394Y77997D01*
X110522Y77829D01*
X110689Y77701D01*
X110884Y77621D01*
X111093Y77593D01*
X111302Y77621D01*
X111496Y77701D01*
X111663Y77829D01*
X111792Y77997D01*
X111872Y78191D01*
X111900Y78400D01*
X111872Y78609D01*
X111792Y78803D01*
X111663Y78971D01*
X111496Y79099D01*
X111302Y79179D01*
X111093Y79207D01*
D02*
G37*
G36*
X109748Y76548D02*
X109591Y76527D01*
X109445Y76467D01*
X109320Y76371D01*
X109287Y76329D01*
X109187D01*
X109171Y76350D01*
X109045Y76446D01*
X108900Y76507D01*
X108743Y76527D01*
X108586Y76507D01*
X108440Y76446D01*
X108315Y76350D01*
X108219Y76225D01*
X108158Y76079D01*
X108138Y75922D01*
X108158Y75765D01*
X108219Y75620D01*
X108315Y75494D01*
X108440Y75398D01*
X108586Y75338D01*
X108743Y75317D01*
X108900Y75338D01*
X109045Y75398D01*
X109171Y75494D01*
X109203Y75536D01*
X109303D01*
X109320Y75515D01*
X109445Y75419D01*
X109591Y75358D01*
X109748Y75338D01*
X109904Y75358D01*
X110050Y75419D01*
X110176Y75515D01*
X110272Y75640D01*
X110332Y75786D01*
X110353Y75943D01*
X110332Y76100D01*
X110272Y76245D01*
X110176Y76371D01*
X110050Y76467D01*
X109904Y76527D01*
X109748Y76548D01*
D02*
G37*
G36*
X105743Y76480D02*
X105586Y76460D01*
X105440Y76399D01*
X105315Y76303D01*
X105219Y76178D01*
X105158Y76032D01*
X105138Y75875D01*
X105158Y75718D01*
X105219Y75572D01*
X105315Y75447D01*
X105440Y75351D01*
X105586Y75290D01*
X105743Y75270D01*
X105900Y75290D01*
X106045Y75351D01*
X106171Y75447D01*
X106267Y75572D01*
X106327Y75718D01*
X106348Y75875D01*
X106327Y76032D01*
X106267Y76178D01*
X106171Y76303D01*
X106045Y76399D01*
X105900Y76460D01*
X105743Y76480D01*
D02*
G37*
G36*
X103943D02*
X103786Y76460D01*
X103640Y76399D01*
X103515Y76303D01*
X103419Y76178D01*
X103358Y76032D01*
X103338Y75875D01*
X103358Y75718D01*
X103419Y75572D01*
X103515Y75447D01*
X103640Y75351D01*
X103786Y75290D01*
X103943Y75270D01*
X104100Y75290D01*
X104245Y75351D01*
X104371Y75447D01*
X104467Y75572D01*
X104527Y75718D01*
X104548Y75875D01*
X104527Y76032D01*
X104467Y76178D01*
X104371Y76303D01*
X104245Y76399D01*
X104100Y76460D01*
X103943Y76480D01*
D02*
G37*
G36*
X110800Y74555D02*
X110643Y74535D01*
X110497Y74474D01*
X110372Y74378D01*
X110276Y74253D01*
X110215Y74107D01*
X110195Y73950D01*
X110215Y73793D01*
X110276Y73647D01*
X110372Y73522D01*
X110497Y73426D01*
X110643Y73365D01*
X110800Y73345D01*
X110957Y73365D01*
X111103Y73426D01*
X111228Y73522D01*
X111324Y73647D01*
X111385Y73793D01*
X111405Y73950D01*
X111385Y74107D01*
X111324Y74253D01*
X111228Y74378D01*
X111103Y74474D01*
X110957Y74535D01*
X110800Y74555D01*
D02*
G37*
G36*
X107043Y73276D02*
X106886Y73255D01*
X106740Y73195D01*
X106615Y73099D01*
X106578D01*
X106453Y73195D01*
X106307Y73255D01*
X106150Y73276D01*
X105993Y73255D01*
X105847Y73195D01*
X105722Y73099D01*
X105700Y73070D01*
X105600D01*
X105578Y73099D01*
X105453Y73195D01*
X105307Y73255D01*
X105150Y73276D01*
X104993Y73255D01*
X104847Y73195D01*
X104722Y73099D01*
X104626Y72974D01*
X104597Y72904D01*
X104489D01*
X104460Y72974D01*
X104364Y73099D01*
X104238Y73195D01*
X104092Y73255D01*
X103936Y73276D01*
X103779Y73255D01*
X103633Y73195D01*
X103508Y73099D01*
X103412Y72974D01*
X103351Y72828D01*
X103331Y72671D01*
X103351Y72514D01*
X103412Y72368D01*
X103508Y72243D01*
X103598Y72174D01*
X103610Y72057D01*
X103572Y72028D01*
X103476Y71903D01*
X103415Y71757D01*
X103395Y71600D01*
X103415Y71443D01*
X103476Y71297D01*
X103531Y71225D01*
X103476Y71153D01*
X103415Y71007D01*
X103395Y70850D01*
X103415Y70693D01*
X103476Y70547D01*
X103572Y70422D01*
X103697Y70326D01*
X103843Y70265D01*
X104000Y70245D01*
X104157Y70265D01*
X104303Y70326D01*
X104428Y70422D01*
X104524Y70547D01*
X104585Y70693D01*
X104605Y70850D01*
X104585Y71007D01*
X104524Y71153D01*
X104469Y71225D01*
X104524Y71297D01*
X104585Y71443D01*
X104605Y71600D01*
X104585Y71757D01*
X104524Y71903D01*
X104428Y72028D01*
X104338Y72097D01*
X104325Y72214D01*
X104364Y72243D01*
X104460Y72368D01*
X104489Y72438D01*
X104597D01*
X104626Y72368D01*
X104722Y72243D01*
X104847Y72147D01*
X104993Y72086D01*
X105150Y72066D01*
X105307Y72086D01*
X105453Y72147D01*
X105578Y72243D01*
X105600Y72272D01*
X105700D01*
X105722Y72243D01*
X105847Y72147D01*
X105993Y72086D01*
X106150Y72066D01*
X106307Y72086D01*
X106453Y72147D01*
X106578Y72243D01*
X106615D01*
X106740Y72147D01*
X106886Y72086D01*
X107043Y72066D01*
X107200Y72086D01*
X107345Y72147D01*
X107471Y72243D01*
X107567Y72368D01*
X107627Y72514D01*
X107648Y72671D01*
X107627Y72828D01*
X107567Y72974D01*
X107471Y73099D01*
X107345Y73195D01*
X107200Y73255D01*
X107043Y73276D01*
D02*
G37*
G36*
X94925Y73480D02*
X94768Y73460D01*
X94622Y73399D01*
X94497Y73303D01*
X94401Y73178D01*
X94340Y73032D01*
X94320Y72875D01*
X94340Y72718D01*
X94401Y72572D01*
X94497Y72447D01*
X94622Y72351D01*
X94768Y72290D01*
X94925Y72270D01*
X95082Y72290D01*
X95228Y72351D01*
X95353Y72447D01*
X95449Y72572D01*
X95510Y72718D01*
X95530Y72875D01*
X95510Y73032D01*
X95449Y73178D01*
X95353Y73303D01*
X95228Y73399D01*
X95082Y73460D01*
X94925Y73480D01*
D02*
G37*
G36*
X100325Y73480D02*
X100168Y73460D01*
X100022Y73399D01*
X99897Y73303D01*
X99801Y73178D01*
X99740Y73032D01*
X99720Y72875D01*
X99740Y72718D01*
X99801Y72572D01*
X99897Y72447D01*
X100022Y72351D01*
X100168Y72290D01*
X100325Y72270D01*
X100482Y72290D01*
X100628Y72351D01*
X100753Y72447D01*
X100849Y72572D01*
X100910Y72718D01*
X100930Y72875D01*
X100910Y73032D01*
X100849Y73178D01*
X100753Y73303D01*
X100628Y73399D01*
X100482Y73460D01*
X100325Y73480D01*
D02*
G37*
G36*
X98525D02*
X98368Y73460D01*
X98222Y73399D01*
X98097Y73303D01*
X98001Y73178D01*
X97940Y73032D01*
X97920Y72875D01*
X97940Y72718D01*
X98001Y72572D01*
X98097Y72447D01*
X98222Y72351D01*
X98368Y72290D01*
X98525Y72270D01*
X98682Y72290D01*
X98828Y72351D01*
X98953Y72447D01*
X99049Y72572D01*
X99110Y72718D01*
X99130Y72875D01*
X99110Y73032D01*
X99049Y73178D01*
X98953Y73303D01*
X98828Y73399D01*
X98682Y73460D01*
X98525Y73480D01*
D02*
G37*
G36*
X93150D02*
X92993Y73460D01*
X92847Y73399D01*
X92722Y73303D01*
X92626Y73178D01*
X92565Y73032D01*
X92545Y72875D01*
X92565Y72718D01*
X92626Y72572D01*
X92722Y72447D01*
X92847Y72351D01*
X92993Y72290D01*
X93150Y72270D01*
X93307Y72290D01*
X93453Y72351D01*
X93578Y72447D01*
X93674Y72572D01*
X93735Y72718D01*
X93755Y72875D01*
X93735Y73032D01*
X93674Y73178D01*
X93578Y73303D01*
X93453Y73399D01*
X93307Y73460D01*
X93150Y73480D01*
D02*
G37*
G36*
X108900Y73276D02*
X108743Y73255D01*
X108597Y73195D01*
X108472Y73099D01*
X108376Y72974D01*
X108315Y72828D01*
X108295Y72671D01*
X108315Y72514D01*
X108376Y72368D01*
X108472Y72243D01*
X108597Y72147D01*
X108743Y72086D01*
X108900Y72066D01*
X109057Y72086D01*
X109203Y72147D01*
X109328Y72243D01*
X109424Y72368D01*
X109485Y72514D01*
X109505Y72671D01*
X109485Y72828D01*
X109424Y72974D01*
X109328Y73099D01*
X109203Y73195D01*
X109057Y73255D01*
X108900Y73276D01*
D02*
G37*
G36*
X99149Y71805D02*
X98992Y71785D01*
X98847Y71724D01*
X98721Y71628D01*
X98628D01*
X98503Y71724D01*
X98357Y71785D01*
X98200Y71805D01*
X98043Y71785D01*
X97897Y71724D01*
X97772Y71628D01*
X97679D01*
X97553Y71724D01*
X97408Y71785D01*
X97251Y71805D01*
X97094Y71785D01*
X96948Y71724D01*
X96823Y71628D01*
X96727Y71503D01*
X96666Y71357D01*
X96646Y71200D01*
X96666Y71043D01*
X96727Y70897D01*
X96823Y70772D01*
X96884Y70726D01*
Y70599D01*
X96823Y70553D01*
X96727Y70428D01*
X96666Y70282D01*
X96646Y70125D01*
X96666Y69968D01*
X96727Y69822D01*
X96823Y69697D01*
X96948Y69601D01*
X97094Y69540D01*
X97251Y69520D01*
X97408Y69540D01*
X97553Y69601D01*
X97679Y69697D01*
X97772D01*
X97897Y69601D01*
X98043Y69540D01*
X98200Y69520D01*
X98357Y69540D01*
X98503Y69601D01*
X98628Y69697D01*
X98724Y69822D01*
X98785Y69968D01*
X98805Y70125D01*
X98785Y70282D01*
X98724Y70428D01*
X98628Y70553D01*
X98567Y70599D01*
Y70726D01*
X98628Y70772D01*
X98721D01*
X98847Y70676D01*
X98992Y70615D01*
X99149Y70595D01*
X99306Y70615D01*
X99452Y70676D01*
X99577Y70772D01*
X99673Y70897D01*
X99734Y71043D01*
X99754Y71200D01*
X99734Y71357D01*
X99673Y71503D01*
X99577Y71628D01*
X99452Y71724D01*
X99306Y71785D01*
X99149Y71805D01*
D02*
G37*
G36*
X110800Y72330D02*
X110643Y72310D01*
X110497Y72249D01*
X110372Y72153D01*
X110276Y72028D01*
X110215Y71882D01*
X110195Y71725D01*
X110215Y71568D01*
X110276Y71422D01*
X110372Y71297D01*
X110497Y71201D01*
X110643Y71140D01*
X110800Y71120D01*
X110957Y71140D01*
X111103Y71201D01*
X111228Y71297D01*
X111324Y71422D01*
X111385Y71568D01*
X111405Y71725D01*
X111385Y71882D01*
X111324Y72028D01*
X111228Y72153D01*
X111103Y72249D01*
X110957Y72310D01*
X110800Y72330D01*
D02*
G37*
G36*
X100975Y72255D02*
X100818Y72235D01*
X100672Y72174D01*
X100547Y72078D01*
X100451Y71953D01*
X100390Y71807D01*
X100370Y71650D01*
X100390Y71493D01*
X100451Y71347D01*
X100547Y71222D01*
X100672Y71126D01*
X100818Y71065D01*
X100975Y71045D01*
X101132Y71065D01*
X101278Y71126D01*
X101403Y71222D01*
X101499Y71347D01*
X101560Y71493D01*
X101580Y71650D01*
X101560Y71807D01*
X101499Y71953D01*
X101403Y72078D01*
X101278Y72174D01*
X101132Y72235D01*
X100975Y72255D01*
D02*
G37*
G36*
X107600Y71905D02*
X107443Y71885D01*
X107297Y71824D01*
X107172Y71728D01*
X107076Y71603D01*
X107015Y71457D01*
X106995Y71300D01*
X107015Y71143D01*
X107076Y70997D01*
X107172Y70872D01*
X107297Y70776D01*
X107443Y70715D01*
X107600Y70695D01*
X107757Y70715D01*
X107903Y70776D01*
X108028Y70872D01*
X108124Y70997D01*
X108185Y71143D01*
X108205Y71300D01*
X108185Y71457D01*
X108124Y71603D01*
X108028Y71728D01*
X107903Y71824D01*
X107757Y71885D01*
X107600Y71905D01*
D02*
G37*
G36*
X109754Y70336D02*
X109598Y70316D01*
X109452Y70255D01*
X109326Y70159D01*
X109230Y70034D01*
X109186Y69927D01*
X109078D01*
X109044Y70009D01*
X108948Y70134D01*
X108823Y70230D01*
X108677Y70291D01*
X108520Y70311D01*
X108363Y70291D01*
X108217Y70230D01*
X108092Y70134D01*
X107996Y70009D01*
X107935Y69863D01*
X107915Y69706D01*
X107935Y69549D01*
X107996Y69404D01*
X108092Y69278D01*
X108217Y69182D01*
X108363Y69122D01*
X108520Y69101D01*
X108677Y69122D01*
X108823Y69182D01*
X108948Y69278D01*
X109044Y69404D01*
X109088Y69510D01*
X109196D01*
X109230Y69429D01*
X109326Y69303D01*
X109452Y69207D01*
X109598Y69147D01*
X109754Y69126D01*
X109911Y69147D01*
X110057Y69207D01*
X110182Y69303D01*
X110278Y69429D01*
X110339Y69575D01*
X110359Y69731D01*
X110339Y69888D01*
X110278Y70034D01*
X110182Y70159D01*
X110057Y70255D01*
X109911Y70316D01*
X109754Y70336D01*
D02*
G37*
G36*
X106620Y70311D02*
X106463Y70291D01*
X106317Y70230D01*
X106192Y70134D01*
X106096Y70009D01*
X106035Y69863D01*
X106015Y69706D01*
X106035Y69549D01*
X106096Y69404D01*
X106192Y69278D01*
X106317Y69182D01*
X106463Y69122D01*
X106620Y69101D01*
X106777Y69122D01*
X106923Y69182D01*
X107048Y69278D01*
X107144Y69404D01*
X107205Y69549D01*
X107225Y69706D01*
X107205Y69863D01*
X107144Y70009D01*
X107048Y70134D01*
X106923Y70230D01*
X106777Y70291D01*
X106620Y70311D01*
D02*
G37*
G36*
X105193Y70311D02*
X105036Y70291D01*
X104890Y70230D01*
X104765Y70134D01*
X104669Y70009D01*
X104608Y69863D01*
X104588Y69706D01*
X104608Y69549D01*
X104669Y69404D01*
X104765Y69278D01*
X104890Y69182D01*
X105036Y69122D01*
X105193Y69101D01*
X105350Y69122D01*
X105495Y69182D01*
X105621Y69278D01*
X105717Y69404D01*
X105777Y69549D01*
X105798Y69706D01*
X105777Y69863D01*
X105717Y70009D01*
X105621Y70134D01*
X105495Y70230D01*
X105350Y70291D01*
X105193Y70311D01*
D02*
G37*
G36*
X103826Y70030D02*
X103669Y70010D01*
X103523Y69949D01*
X103398Y69853D01*
X103302Y69728D01*
X103241Y69582D01*
X103221Y69425D01*
X103241Y69268D01*
X103302Y69122D01*
X103398Y68997D01*
X103523Y68901D01*
X103669Y68840D01*
X103826Y68820D01*
X103983Y68840D01*
X104129Y68901D01*
X104254Y68997D01*
X104350Y69122D01*
X104411Y69268D01*
X104431Y69425D01*
X104411Y69582D01*
X104350Y69728D01*
X104254Y69853D01*
X104129Y69949D01*
X103983Y70010D01*
X103826Y70030D01*
D02*
G37*
G36*
X99249Y68705D02*
X99092Y68685D01*
X98947Y68624D01*
X98821Y68528D01*
X98725Y68403D01*
X98665Y68257D01*
X98644Y68100D01*
X98665Y67943D01*
X98725Y67797D01*
X98821Y67672D01*
X98947Y67576D01*
X99092Y67515D01*
X99249Y67495D01*
X99406Y67515D01*
X99552Y67576D01*
X99677Y67672D01*
X99773Y67797D01*
X99834Y67943D01*
X99854Y68100D01*
X99834Y68257D01*
X99773Y68403D01*
X99677Y68528D01*
X99552Y68624D01*
X99406Y68685D01*
X99249Y68705D01*
D02*
G37*
G36*
X102392Y68030D02*
X102236Y68010D01*
X102090Y67949D01*
X101964Y67853D01*
X101868Y67728D01*
X101808Y67582D01*
X101787Y67425D01*
X101808Y67268D01*
X101868Y67122D01*
X101964Y66997D01*
X102090Y66901D01*
X102236Y66840D01*
X102392Y66820D01*
X102549Y66840D01*
X102695Y66901D01*
X102820Y66997D01*
X102916Y67122D01*
X102977Y67268D01*
X102998Y67425D01*
X102977Y67582D01*
X102916Y67728D01*
X102820Y67853D01*
X102695Y67949D01*
X102549Y68010D01*
X102392Y68030D01*
D02*
G37*
G36*
X105625Y67405D02*
X105468Y67385D01*
X105322Y67324D01*
X105197Y67228D01*
X105101Y67103D01*
X105040Y66957D01*
X105020Y66800D01*
X105040Y66643D01*
X105101Y66497D01*
X105197Y66372D01*
X105322Y66276D01*
X105468Y66215D01*
X105625Y66195D01*
X105782Y66215D01*
X105928Y66276D01*
X106053Y66372D01*
X106149Y66497D01*
X106210Y66643D01*
X106230Y66800D01*
X106210Y66957D01*
X106149Y67103D01*
X106053Y67228D01*
X105928Y67324D01*
X105782Y67385D01*
X105625Y67405D01*
D02*
G37*
G36*
X105373Y62105D02*
X105216Y62085D01*
X105070Y62024D01*
X104945Y61928D01*
X104849Y61803D01*
X104788Y61657D01*
X104768Y61500D01*
X104788Y61343D01*
X104849Y61197D01*
X104945Y61072D01*
X105070Y60976D01*
X105216Y60915D01*
X105373Y60895D01*
X105530Y60915D01*
X105675Y60976D01*
X105801Y61072D01*
X105897Y61197D01*
X105957Y61343D01*
X105978Y61500D01*
X105957Y61657D01*
X105897Y61803D01*
X105801Y61928D01*
X105675Y62024D01*
X105530Y62085D01*
X105373Y62105D01*
D02*
G37*
G36*
X108450Y61730D02*
X108293Y61710D01*
X108147Y61649D01*
X108022Y61553D01*
X107926Y61428D01*
X107865Y61282D01*
X107845Y61125D01*
X107865Y60968D01*
X107926Y60822D01*
X108022Y60697D01*
X108147Y60601D01*
X108293Y60540D01*
X108450Y60520D01*
X108607Y60540D01*
X108753Y60601D01*
X108878Y60697D01*
X108974Y60822D01*
X109035Y60968D01*
X109055Y61125D01*
X109035Y61282D01*
X108974Y61428D01*
X108878Y61553D01*
X108753Y61649D01*
X108607Y61710D01*
X108450Y61730D01*
D02*
G37*
G36*
X111071Y61697D02*
X110914Y61677D01*
X110768Y61616D01*
X110643Y61520D01*
X110547Y61395D01*
X110486Y61249D01*
X110466Y61092D01*
X110486Y60935D01*
X110547Y60790D01*
X110643Y60664D01*
X110768Y60568D01*
X110914Y60508D01*
X111071Y60487D01*
X111228Y60508D01*
X111373Y60568D01*
X111499Y60664D01*
X111595Y60790D01*
X111655Y60935D01*
X111676Y61092D01*
X111655Y61249D01*
X111595Y61395D01*
X111499Y61520D01*
X111373Y61616D01*
X111228Y61677D01*
X111071Y61697D01*
D02*
G37*
G36*
X113630Y60250D02*
X113473Y60230D01*
X113327Y60169D01*
X113202Y60073D01*
X113106Y59948D01*
X113062Y59840D01*
X112953D01*
X112913Y59937D01*
X112817Y60062D01*
X112692Y60159D01*
X112546Y60219D01*
X112389Y60240D01*
X112232Y60219D01*
X112087Y60159D01*
X111961Y60062D01*
X111865Y59937D01*
X111805Y59791D01*
X111784Y59634D01*
X111805Y59478D01*
X111865Y59332D01*
X111961Y59207D01*
X112087Y59110D01*
X112232Y59050D01*
X112389Y59029D01*
X112546Y59050D01*
X112692Y59110D01*
X112817Y59207D01*
X112913Y59332D01*
X112958Y59439D01*
X113066D01*
X113106Y59342D01*
X113202Y59217D01*
X113327Y59121D01*
X113473Y59060D01*
X113630Y59040D01*
X113787Y59060D01*
X113933Y59121D01*
X114058Y59217D01*
X114154Y59342D01*
X114215Y59488D01*
X114235Y59645D01*
X114215Y59802D01*
X114154Y59948D01*
X114058Y60073D01*
X113933Y60169D01*
X113787Y60230D01*
X113630Y60250D01*
D02*
G37*
G36*
X116755Y60380D02*
X116598Y60360D01*
X116452Y60299D01*
X116327Y60203D01*
X116231Y60078D01*
X116170Y59932D01*
X116150Y59775D01*
X116170Y59618D01*
X116231Y59472D01*
X116327Y59347D01*
X116452Y59251D01*
X116598Y59190D01*
X116755Y59170D01*
X116912Y59190D01*
X117058Y59251D01*
X117183Y59347D01*
X117279Y59472D01*
X117340Y59618D01*
X117360Y59775D01*
X117340Y59932D01*
X117279Y60078D01*
X117183Y60203D01*
X117058Y60299D01*
X116912Y60360D01*
X116755Y60380D01*
D02*
G37*
G36*
X107105Y60250D02*
X106948Y60230D01*
X106802Y60169D01*
X106677Y60073D01*
X106581Y59948D01*
X106520Y59802D01*
X106500Y59645D01*
X106520Y59488D01*
X106581Y59342D01*
X106677Y59217D01*
X106802Y59121D01*
X106948Y59060D01*
X107105Y59040D01*
X107262Y59060D01*
X107408Y59121D01*
X107533Y59217D01*
X107629Y59342D01*
X107690Y59488D01*
X107710Y59645D01*
X107690Y59802D01*
X107629Y59948D01*
X107533Y60073D01*
X107408Y60169D01*
X107262Y60230D01*
X107105Y60250D01*
D02*
G37*
G36*
X109743Y60223D02*
X109587Y60202D01*
X109441Y60142D01*
X109315Y60045D01*
X109219Y59920D01*
X109159Y59774D01*
X109138Y59617D01*
X109159Y59461D01*
X109219Y59315D01*
X109315Y59189D01*
X109441Y59093D01*
X109587Y59033D01*
X109743Y59012D01*
X109900Y59033D01*
X110046Y59093D01*
X110171Y59189D01*
X110267Y59315D01*
X110328Y59461D01*
X110348Y59617D01*
X110328Y59774D01*
X110267Y59920D01*
X110171Y60045D01*
X110046Y60142D01*
X109900Y60202D01*
X109743Y60223D01*
D02*
G37*
G36*
X118075Y59605D02*
X117918Y59585D01*
X117772Y59524D01*
X117647Y59428D01*
X117551Y59303D01*
X117490Y59157D01*
X117470Y59000D01*
X117490Y58843D01*
X117551Y58697D01*
X117647Y58572D01*
X117772Y58476D01*
X117918Y58415D01*
X118075Y58395D01*
X118232Y58415D01*
X118378Y58476D01*
X118503Y58572D01*
X118599Y58697D01*
X118660Y58843D01*
X118680Y59000D01*
X118660Y59157D01*
X118599Y59303D01*
X118503Y59428D01*
X118378Y59524D01*
X118232Y59585D01*
X118075Y59605D01*
D02*
G37*
G36*
X119650Y58785D02*
X119493Y58764D01*
X119347Y58704D01*
X119222Y58608D01*
X119126Y58482D01*
X119065Y58336D01*
X119045Y58180D01*
X119065Y58023D01*
X119126Y57877D01*
X119222Y57752D01*
X119347Y57656D01*
X119493Y57595D01*
X119650Y57575D01*
X119807Y57595D01*
X119953Y57656D01*
X120078Y57752D01*
X120174Y57877D01*
X120235Y58023D01*
X120255Y58180D01*
X120235Y58336D01*
X120174Y58482D01*
X120078Y58608D01*
X119953Y58704D01*
X119807Y58764D01*
X119650Y58785D01*
D02*
G37*
G36*
X122675Y57638D02*
X122518Y57618D01*
X122372Y57557D01*
X122247Y57461D01*
X122151Y57336D01*
X122090Y57190D01*
X122070Y57033D01*
X122090Y56877D01*
X122151Y56731D01*
X122247Y56605D01*
X122372Y56509D01*
X122518Y56449D01*
X122675Y56428D01*
X122832Y56449D01*
X122978Y56509D01*
X123103Y56605D01*
X123199Y56731D01*
X123260Y56877D01*
X123280Y57033D01*
X123260Y57190D01*
X123199Y57336D01*
X123103Y57461D01*
X122978Y57557D01*
X122832Y57618D01*
X122675Y57638D01*
D02*
G37*
G36*
X109756Y57338D02*
X109599Y57317D01*
X109453Y57257D01*
X109328Y57160D01*
X109232Y57035D01*
X109171Y56889D01*
X109151Y56733D01*
X109171Y56576D01*
X109232Y56430D01*
X109328Y56305D01*
X109453Y56208D01*
X109599Y56148D01*
X109756Y56127D01*
X109913Y56148D01*
X110058Y56208D01*
X110184Y56305D01*
X110280Y56430D01*
X110340Y56576D01*
X110361Y56733D01*
X110340Y56889D01*
X110280Y57035D01*
X110184Y57160D01*
X110058Y57257D01*
X109913Y57317D01*
X109756Y57338D01*
D02*
G37*
G36*
X115076Y54791D02*
X114920Y54770D01*
X114774Y54710D01*
X114648Y54614D01*
X114552Y54488D01*
X114492Y54342D01*
X114471Y54186D01*
X114492Y54029D01*
X114552Y53883D01*
X114648Y53758D01*
X114774Y53662D01*
X114920Y53601D01*
X115076Y53581D01*
X115233Y53601D01*
X115379Y53662D01*
X115504Y53758D01*
X115600Y53883D01*
X115661Y54029D01*
X115681Y54186D01*
X115661Y54342D01*
X115600Y54488D01*
X115504Y54614D01*
X115379Y54710D01*
X115233Y54770D01*
X115076Y54791D01*
D02*
G37*
G36*
X111901D02*
X111744Y54770D01*
X111599Y54710D01*
X111473Y54614D01*
X111377Y54488D01*
X111317Y54342D01*
X111296Y54186D01*
X111317Y54029D01*
X111377Y53883D01*
X111473Y53758D01*
X111599Y53662D01*
X111744Y53601D01*
X111901Y53581D01*
X112058Y53601D01*
X112204Y53662D01*
X112329Y53758D01*
X112425Y53883D01*
X112486Y54029D01*
X112506Y54186D01*
X112486Y54342D01*
X112425Y54488D01*
X112329Y54614D01*
X112204Y54710D01*
X112058Y54770D01*
X111901Y54791D01*
D02*
G37*
G36*
X120875Y54155D02*
X120718Y54135D01*
X120572Y54074D01*
X120447Y53978D01*
X120351Y53853D01*
X120290Y53707D01*
X120270Y53550D01*
X120285Y53435D01*
X120222Y53356D01*
X120202Y53345D01*
X120125Y53355D01*
X119968Y53335D01*
X119822Y53274D01*
X119697Y53178D01*
X119601Y53053D01*
X119540Y52907D01*
X119520Y52750D01*
X119540Y52593D01*
X119601Y52447D01*
X119697Y52322D01*
X119822Y52226D01*
X119968Y52165D01*
X120125Y52145D01*
X120282Y52165D01*
X120428Y52226D01*
X120553Y52322D01*
X120649Y52447D01*
X120710Y52593D01*
X120730Y52750D01*
X120715Y52865D01*
X120778Y52944D01*
X120798Y52955D01*
X120875Y52945D01*
X121032Y52965D01*
X121178Y53026D01*
X121303Y53122D01*
X121399Y53247D01*
X121460Y53393D01*
X121480Y53550D01*
X121460Y53707D01*
X121399Y53853D01*
X121303Y53978D01*
X121178Y54074D01*
X121032Y54135D01*
X120875Y54155D01*
D02*
G37*
G36*
X120825Y52130D02*
X120668Y52110D01*
X120522Y52049D01*
X120397Y51953D01*
X120301Y51828D01*
X120240Y51682D01*
X120220Y51525D01*
X120240Y51368D01*
X120301Y51222D01*
X120397Y51097D01*
X120522Y51001D01*
X120668Y50940D01*
X120825Y50920D01*
X120982Y50940D01*
X121128Y51001D01*
X121253Y51097D01*
X121349Y51222D01*
X121410Y51368D01*
X121430Y51525D01*
X121410Y51682D01*
X121349Y51828D01*
X121253Y51953D01*
X121128Y52049D01*
X120982Y52110D01*
X120825Y52130D01*
D02*
G37*
G36*
X115126Y51649D02*
X114969Y51629D01*
X114824Y51568D01*
X114698Y51472D01*
X114602Y51347D01*
X114542Y51201D01*
X114521Y51044D01*
X114542Y50888D01*
X114602Y50742D01*
X114698Y50616D01*
X114824Y50520D01*
X114969Y50460D01*
X115126Y50439D01*
X115283Y50460D01*
X115429Y50520D01*
X115554Y50616D01*
X115650Y50742D01*
X115711Y50888D01*
X115731Y51044D01*
X115711Y51201D01*
X115650Y51347D01*
X115554Y51472D01*
X115429Y51568D01*
X115283Y51629D01*
X115126Y51649D01*
D02*
G37*
G36*
X121209Y50120D02*
X121052Y50099D01*
X120907Y50039D01*
X120781Y49942D01*
X120685Y49817D01*
X120625Y49671D01*
X120604Y49515D01*
X120625Y49358D01*
X120685Y49212D01*
X120781Y49087D01*
X120907Y48990D01*
X121052Y48930D01*
X121209Y48909D01*
X121366Y48930D01*
X121512Y48990D01*
X121637Y49087D01*
X121733Y49212D01*
X121794Y49358D01*
X121814Y49515D01*
X121794Y49671D01*
X121733Y49817D01*
X121637Y49942D01*
X121512Y50039D01*
X121366Y50099D01*
X121209Y50120D01*
D02*
G37*
G36*
X117109Y45481D02*
X116953Y45460D01*
X116807Y45400D01*
X116681Y45304D01*
X116585Y45178D01*
X116525Y45032D01*
X116504Y44876D01*
X116525Y44719D01*
X116585Y44573D01*
X116681Y44448D01*
X116807Y44352D01*
X116953Y44291D01*
X117109Y44271D01*
X117266Y44291D01*
X117412Y44352D01*
X117537Y44448D01*
X117633Y44573D01*
X117694Y44719D01*
X117714Y44876D01*
X117694Y45032D01*
X117633Y45178D01*
X117537Y45304D01*
X117412Y45400D01*
X117266Y45460D01*
X117109Y45481D01*
D02*
G37*
G36*
X120654Y44841D02*
X120497Y44820D01*
X120352Y44760D01*
X120226Y44664D01*
X120130Y44538D01*
X120070Y44392D01*
X120049Y44236D01*
X120070Y44079D01*
X120130Y43933D01*
X120226Y43808D01*
X120352Y43712D01*
X120497Y43651D01*
X120654Y43631D01*
X120811Y43651D01*
X120957Y43712D01*
X121082Y43808D01*
X121178Y43933D01*
X121239Y44079D01*
X121259Y44236D01*
X121239Y44392D01*
X121178Y44538D01*
X121082Y44664D01*
X120957Y44760D01*
X120811Y44820D01*
X120654Y44841D01*
D02*
G37*
G36*
X118100Y44532D02*
X117943Y44511D01*
X117797Y44451D01*
X117672Y44354D01*
X117576Y44229D01*
X117515Y44083D01*
X117495Y43927D01*
X117515Y43770D01*
X117576Y43624D01*
X117672Y43499D01*
X117797Y43402D01*
X117943Y43342D01*
X118100Y43321D01*
X118257Y43342D01*
X118403Y43402D01*
X118528Y43499D01*
X118624Y43624D01*
X118673Y43742D01*
X118777Y43741D01*
X118826Y43622D01*
X118922Y43497D01*
X119047Y43401D01*
X119193Y43340D01*
X119350Y43320D01*
X119507Y43340D01*
X119653Y43401D01*
X119778Y43497D01*
X119874Y43622D01*
X119935Y43768D01*
X119955Y43925D01*
X119935Y44082D01*
X119874Y44228D01*
X119778Y44353D01*
X119653Y44449D01*
X119507Y44510D01*
X119350Y44530D01*
X119193Y44510D01*
X119047Y44449D01*
X118922Y44353D01*
X118826Y44228D01*
X118777Y44109D01*
X118673Y44111D01*
X118624Y44229D01*
X118528Y44354D01*
X118403Y44451D01*
X118257Y44511D01*
X118100Y44532D01*
D02*
G37*
G36*
X128200Y38075D02*
X128043Y38055D01*
X127897Y37994D01*
X127772Y37898D01*
X127676Y37773D01*
X127615Y37627D01*
X127595Y37470D01*
X127615Y37313D01*
X127676Y37167D01*
X127772Y37042D01*
X127897Y36946D01*
X128043Y36885D01*
X128200Y36865D01*
X128357Y36885D01*
X128503Y36946D01*
X128628Y37042D01*
X128724Y37167D01*
X128785Y37313D01*
X128805Y37470D01*
X128785Y37627D01*
X128724Y37773D01*
X128628Y37898D01*
X128503Y37994D01*
X128357Y38055D01*
X128200Y38075D01*
D02*
G37*
G36*
X123405D02*
X123248Y38055D01*
X123102Y37994D01*
X122977Y37898D01*
X122881Y37773D01*
X122820Y37627D01*
X122800Y37470D01*
X122820Y37313D01*
X122881Y37167D01*
X122977Y37042D01*
X123102Y36946D01*
X123248Y36885D01*
X123405Y36865D01*
X123562Y36885D01*
X123708Y36946D01*
X123833Y37042D01*
X123929Y37167D01*
X123990Y37313D01*
X124010Y37470D01*
X123990Y37627D01*
X123929Y37773D01*
X123833Y37898D01*
X123708Y37994D01*
X123562Y38055D01*
X123405Y38075D01*
D02*
G37*
G36*
X125075Y38075D02*
X124918Y38055D01*
X124772Y37994D01*
X124647Y37898D01*
X124551Y37773D01*
X124490Y37627D01*
X124470Y37470D01*
X124490Y37313D01*
X124551Y37167D01*
X124647Y37042D01*
X124772Y36946D01*
X124918Y36885D01*
X125075Y36865D01*
X125232Y36885D01*
X125378Y36946D01*
X125503Y37042D01*
X125599Y37167D01*
X125660Y37313D01*
X125680Y37470D01*
X125660Y37627D01*
X125599Y37773D01*
X125503Y37898D01*
X125378Y37994D01*
X125232Y38055D01*
X125075Y38075D01*
D02*
G37*
G36*
X120265D02*
X120108Y38055D01*
X119962Y37994D01*
X119837Y37898D01*
X119741Y37773D01*
X119680Y37627D01*
X119660Y37470D01*
X119680Y37313D01*
X119741Y37167D01*
X119837Y37042D01*
X119962Y36946D01*
X120108Y36885D01*
X120265Y36865D01*
X120422Y36885D01*
X120568Y36946D01*
X120693Y37042D01*
X120789Y37167D01*
X120850Y37313D01*
X120870Y37470D01*
X120850Y37627D01*
X120789Y37773D01*
X120693Y37898D01*
X120568Y37994D01*
X120422Y38055D01*
X120265Y38075D01*
D02*
G37*
G36*
X126300Y34505D02*
X126143Y34485D01*
X125997Y34424D01*
X125872Y34328D01*
X125776Y34203D01*
X125715Y34057D01*
X125695Y33900D01*
X125715Y33743D01*
X125776Y33597D01*
X125872Y33472D01*
X125997Y33376D01*
X126143Y33315D01*
X126300Y33295D01*
X126324Y33298D01*
X126395Y33227D01*
X126395Y33225D01*
X126415Y33068D01*
X126476Y32922D01*
X126572Y32797D01*
X126697Y32701D01*
X126843Y32640D01*
X127000Y32620D01*
X127157Y32640D01*
X127303Y32701D01*
X127428Y32797D01*
X127524Y32922D01*
X127585Y33068D01*
X127605Y33225D01*
X127585Y33382D01*
X127524Y33528D01*
X127428Y33653D01*
X127303Y33749D01*
X127157Y33810D01*
X127000Y33830D01*
X126976Y33827D01*
X126905Y33898D01*
X126905Y33900D01*
X126885Y34057D01*
X126824Y34203D01*
X126728Y34328D01*
X126603Y34424D01*
X126457Y34485D01*
X126300Y34505D01*
D02*
G37*
G36*
X133828Y32105D02*
X133671Y32085D01*
X133526Y32024D01*
X133400Y31928D01*
X133322Y31827D01*
X133286Y31818D01*
X133242D01*
X133206Y31827D01*
X133128Y31928D01*
X133003Y32024D01*
X132857Y32085D01*
X132700Y32105D01*
X132543Y32085D01*
X132397Y32024D01*
X132272Y31928D01*
X132210Y31847D01*
X132206Y31845D01*
X132094D01*
X132090Y31847D01*
X132028Y31928D01*
X131903Y32024D01*
X131757Y32085D01*
X131600Y32105D01*
X131443Y32085D01*
X131297Y32024D01*
X131172Y31928D01*
X131110Y31847D01*
X131106Y31845D01*
X130994D01*
X130990Y31847D01*
X130928Y31928D01*
X130803Y32024D01*
X130657Y32085D01*
X130500Y32105D01*
X130343Y32085D01*
X130197Y32024D01*
X130072Y31928D01*
X130024Y31866D01*
X129898D01*
X129851Y31928D01*
X129725Y32024D01*
X129579Y32085D01*
X129423Y32105D01*
X129266Y32085D01*
X129120Y32024D01*
X128995Y31928D01*
X128899Y31803D01*
X128838Y31657D01*
X128818Y31500D01*
X128838Y31343D01*
X128899Y31197D01*
X128995Y31072D01*
X129120Y30976D01*
X129266Y30915D01*
X129423Y30895D01*
X129579Y30915D01*
X129725Y30976D01*
X129851Y31072D01*
X129898Y31134D01*
X130024D01*
X130072Y31072D01*
X130197Y30976D01*
X130343Y30915D01*
X130500Y30895D01*
X130657Y30915D01*
X130803Y30976D01*
X130928Y31072D01*
X130990Y31153D01*
X130994Y31155D01*
X131106D01*
X131110Y31153D01*
X131172Y31072D01*
X131297Y30976D01*
X131443Y30915D01*
X131600Y30895D01*
X131757Y30915D01*
X131903Y30976D01*
X132028Y31072D01*
X132090Y31153D01*
X132094Y31155D01*
X132206D01*
X132210Y31153D01*
X132272Y31072D01*
X132397Y30976D01*
X132543Y30915D01*
X132700Y30895D01*
X132857Y30915D01*
X133003Y30976D01*
X133128Y31072D01*
X133206Y31173D01*
X133242Y31182D01*
X133286D01*
X133322Y31173D01*
X133400Y31072D01*
X133526Y30976D01*
X133671Y30915D01*
X133828Y30895D01*
X133985Y30915D01*
X134131Y30976D01*
X134256Y31072D01*
X134352Y31197D01*
X134413Y31343D01*
X134433Y31500D01*
X134413Y31657D01*
X134352Y31803D01*
X134256Y31928D01*
X134131Y32024D01*
X133985Y32085D01*
X133828Y32105D01*
D02*
G37*
G36*
X126500Y29322D02*
X126343Y29302D01*
X126197Y29241D01*
X126072Y29145D01*
X125976Y29020D01*
X125915Y28874D01*
X125895Y28717D01*
X125915Y28561D01*
X125976Y28415D01*
X126072Y28289D01*
X126197Y28193D01*
X126343Y28133D01*
X126500Y28112D01*
X126657Y28133D01*
X126803Y28193D01*
X126928Y28289D01*
X127024Y28415D01*
X127085Y28561D01*
X127105Y28717D01*
X127085Y28874D01*
X127024Y29020D01*
X126928Y29145D01*
X126803Y29241D01*
X126657Y29302D01*
X126500Y29322D01*
D02*
G37*
G36*
X129825Y13596D02*
Y12855D01*
X130566D01*
X130564Y12870D01*
X130462Y13117D01*
X130299Y13329D01*
X130087Y13492D01*
X129840Y13594D01*
X129825Y13596D01*
D02*
G37*
G36*
X129325D02*
X129310Y13594D01*
X129063Y13492D01*
X128851Y13329D01*
X128688Y13117D01*
X128586Y12870D01*
X128584Y12855D01*
X129325D01*
Y13596D01*
D02*
G37*
G36*
X118905D02*
Y12855D01*
X119646D01*
X119644Y12870D01*
X119542Y13117D01*
X119379Y13329D01*
X119167Y13492D01*
X118920Y13594D01*
X118905Y13596D01*
D02*
G37*
G36*
X118405D02*
X118390Y13594D01*
X118143Y13492D01*
X117931Y13329D01*
X117768Y13117D01*
X117666Y12870D01*
X117664Y12855D01*
X118405D01*
Y13596D01*
D02*
G37*
G36*
X130566Y12355D02*
X129825D01*
Y11614D01*
X129840Y11616D01*
X130087Y11718D01*
X130299Y11881D01*
X130462Y12093D01*
X130564Y12340D01*
X130566Y12355D01*
D02*
G37*
G36*
X129325D02*
X128584D01*
X128586Y12340D01*
X128688Y12093D01*
X128851Y11881D01*
X129063Y11718D01*
X129310Y11616D01*
X129325Y11614D01*
Y12355D01*
D02*
G37*
G36*
X119646D02*
X118905D01*
Y11614D01*
X118920Y11616D01*
X119167Y11718D01*
X119379Y11881D01*
X119542Y12093D01*
X119644Y12340D01*
X119646Y12355D01*
D02*
G37*
G36*
X118405D02*
X117664D01*
X117666Y12340D01*
X117768Y12093D01*
X117931Y11881D01*
X118143Y11718D01*
X118390Y11616D01*
X118405Y11614D01*
Y12355D01*
D02*
G37*
G36*
X132115Y13629D02*
X131850Y13594D01*
X131603Y13492D01*
X131391Y13329D01*
X131228Y13117D01*
X131126Y12870D01*
X131091Y12605D01*
X131126Y12340D01*
X131228Y12093D01*
X131391Y11881D01*
X131603Y11718D01*
X131850Y11616D01*
X132115Y11581D01*
X132380Y11616D01*
X132627Y11718D01*
X132839Y11881D01*
X133002Y12093D01*
X133104Y12340D01*
X133139Y12605D01*
X133104Y12870D01*
X133002Y13117D01*
X132839Y13329D01*
X132627Y13492D01*
X132380Y13594D01*
X132115Y13629D01*
D02*
G37*
G36*
X121195D02*
X120930Y13594D01*
X120683Y13492D01*
X120471Y13329D01*
X120308Y13117D01*
X120206Y12870D01*
X120171Y12605D01*
X120206Y12340D01*
X120308Y12093D01*
X120471Y11881D01*
X120683Y11718D01*
X120930Y11616D01*
X121195Y11581D01*
X121460Y11616D01*
X121707Y11718D01*
X121919Y11881D01*
X122082Y12093D01*
X122184Y12340D01*
X122219Y12605D01*
X122184Y12870D01*
X122082Y13117D01*
X121919Y13329D01*
X121707Y13492D01*
X121460Y13594D01*
X121195Y13629D01*
D02*
G37*
G36*
X56755Y58905D02*
X56598Y58884D01*
X56452Y58824D01*
X56327Y58727D01*
X56231Y58602D01*
X56175Y58468D01*
X56133Y58451D01*
X56068Y58443D01*
X56003Y58528D01*
X55878Y58624D01*
X55732Y58685D01*
X55575Y58705D01*
X55418Y58685D01*
X55272Y58624D01*
X55147Y58528D01*
X55051Y58403D01*
X54990Y58257D01*
X54970Y58100D01*
X54990Y57943D01*
X55051Y57797D01*
X55147Y57672D01*
X55272Y57576D01*
X55418Y57515D01*
X55575Y57495D01*
X55732Y57515D01*
X55878Y57576D01*
X56003Y57672D01*
X56099Y57797D01*
X56155Y57932D01*
X56197Y57948D01*
X56262Y57956D01*
X56327Y57871D01*
X56452Y57775D01*
X56598Y57715D01*
X56755Y57694D01*
X56912Y57715D01*
X57058Y57775D01*
X57183Y57871D01*
X57279Y57997D01*
X57340Y58143D01*
X57360Y58299D01*
X57340Y58456D01*
X57279Y58602D01*
X57183Y58727D01*
X57058Y58824D01*
X56912Y58884D01*
X56755Y58905D01*
D02*
G37*
G36*
X61356Y59054D02*
X61199Y59033D01*
X61053Y58972D01*
X60928Y58876D01*
X60832Y58751D01*
X60771Y58605D01*
X60751Y58448D01*
X60771Y58292D01*
X60826Y58160D01*
X60792Y58054D01*
X60743Y58048D01*
X60597Y57988D01*
X60472Y57891D01*
X60376Y57766D01*
X60315Y57620D01*
X60295Y57463D01*
X60315Y57307D01*
X60376Y57161D01*
X60472Y57036D01*
X60597Y56939D01*
X60743Y56879D01*
X60900Y56858D01*
X61057Y56879D01*
X61203Y56939D01*
X61328Y57036D01*
X61424Y57161D01*
X61485Y57307D01*
X61505Y57463D01*
X61485Y57620D01*
X61430Y57752D01*
X61463Y57857D01*
X61512Y57864D01*
X61658Y57924D01*
X61784Y58020D01*
X61880Y58146D01*
X61940Y58292D01*
X61961Y58448D01*
X61940Y58605D01*
X61880Y58751D01*
X61784Y58876D01*
X61658Y58972D01*
X61512Y59033D01*
X61356Y59054D01*
D02*
G37*
G36*
X53220Y57505D02*
X53063Y57484D01*
X52917Y57424D01*
X52792Y57327D01*
X52696Y57202D01*
X52635Y57056D01*
X52615Y56899D01*
X52635Y56743D01*
X52696Y56597D01*
X52792Y56471D01*
X52917Y56375D01*
X53063Y56315D01*
X53220Y56294D01*
X53377Y56315D01*
X53523Y56375D01*
X53648Y56471D01*
X53744Y56597D01*
X53805Y56743D01*
X53825Y56899D01*
X53805Y57056D01*
X53744Y57202D01*
X53648Y57327D01*
X53523Y57424D01*
X53377Y57484D01*
X53220Y57505D01*
D02*
G37*
G36*
X51745D02*
X51588Y57484D01*
X51442Y57424D01*
X51317Y57327D01*
X51221Y57202D01*
X51160Y57056D01*
X51140Y56899D01*
X51160Y56743D01*
X51221Y56597D01*
X51317Y56471D01*
X51442Y56375D01*
X51588Y56315D01*
X51745Y56294D01*
X51902Y56315D01*
X52048Y56375D01*
X52173Y56471D01*
X52269Y56597D01*
X52330Y56743D01*
X52350Y56899D01*
X52330Y57056D01*
X52269Y57202D01*
X52173Y57327D01*
X52048Y57424D01*
X51902Y57484D01*
X51745Y57505D01*
D02*
G37*
G36*
X57870Y56993D02*
X57713Y56972D01*
X57567Y56912D01*
X57442Y56815D01*
X57346Y56690D01*
X57285Y56544D01*
X57265Y56387D01*
X57285Y56231D01*
X57346Y56085D01*
X57442Y55960D01*
X57567Y55863D01*
X57713Y55803D01*
X57870Y55782D01*
X58027Y55803D01*
X58173Y55863D01*
X58298Y55960D01*
X58394Y56085D01*
X58455Y56231D01*
X58475Y56387D01*
X58455Y56544D01*
X58394Y56690D01*
X58298Y56815D01*
X58173Y56912D01*
X58027Y56972D01*
X57870Y56993D01*
D02*
G37*
G36*
X55682D02*
X55525Y56972D01*
X55379Y56912D01*
X55254Y56815D01*
X55158Y56690D01*
X55097Y56544D01*
X55077Y56387D01*
X55097Y56231D01*
X55158Y56085D01*
X55254Y55960D01*
X55379Y55863D01*
X55525Y55803D01*
X55682Y55782D01*
X55839Y55803D01*
X55985Y55863D01*
X56110Y55960D01*
X56206Y56085D01*
X56267Y56231D01*
X56287Y56387D01*
X56267Y56544D01*
X56206Y56690D01*
X56110Y56815D01*
X55985Y56912D01*
X55839Y56972D01*
X55682Y56993D01*
D02*
G37*
G36*
X65925Y51555D02*
X65768Y51535D01*
X65622Y51474D01*
X65497Y51378D01*
X65401Y51253D01*
X65340Y51107D01*
X65320Y50950D01*
X65340Y50793D01*
X65401Y50647D01*
X65497Y50522D01*
X65622Y50426D01*
X65768Y50365D01*
X65925Y50345D01*
X66082Y50365D01*
X66228Y50426D01*
X66353Y50522D01*
X66449Y50647D01*
X66510Y50793D01*
X66530Y50950D01*
X66510Y51107D01*
X66449Y51253D01*
X66353Y51378D01*
X66228Y51474D01*
X66082Y51535D01*
X65925Y51555D01*
D02*
G37*
G36*
X57370Y51030D02*
X57213Y51009D01*
X57067Y50949D01*
X56942Y50852D01*
X56846Y50727D01*
X56785Y50581D01*
X56765Y50424D01*
X56785Y50268D01*
X56846Y50122D01*
X56942Y49996D01*
X57067Y49900D01*
X57213Y49840D01*
X57370Y49819D01*
X57527Y49840D01*
X57673Y49900D01*
X57798Y49996D01*
X57894Y50122D01*
X57955Y50268D01*
X57975Y50424D01*
X57955Y50581D01*
X57894Y50727D01*
X57798Y50852D01*
X57673Y50949D01*
X57527Y51009D01*
X57370Y51030D01*
D02*
G37*
G36*
X76996Y50813D02*
X76840Y50793D01*
X76694Y50732D01*
X76568Y50636D01*
X76472Y50511D01*
X76412Y50365D01*
X76391Y50208D01*
X76412Y50052D01*
X76472Y49906D01*
X76568Y49780D01*
X76694Y49684D01*
X76840Y49624D01*
X76996Y49603D01*
X77153Y49624D01*
X77299Y49684D01*
X77424Y49780D01*
X77520Y49906D01*
X77581Y50052D01*
X77601Y50208D01*
X77581Y50365D01*
X77520Y50511D01*
X77424Y50636D01*
X77299Y50732D01*
X77153Y50793D01*
X76996Y50813D01*
D02*
G37*
G36*
X59330Y50145D02*
X59173Y50124D01*
X59027Y50063D01*
X58902Y49967D01*
X58806Y49842D01*
X58745Y49696D01*
X58725Y49539D01*
X58745Y49383D01*
X58806Y49237D01*
X58902Y49111D01*
X59027Y49015D01*
X59173Y48955D01*
X59330Y48934D01*
X59487Y48955D01*
X59633Y49015D01*
X59758Y49111D01*
X59854Y49237D01*
X59915Y49383D01*
X59935Y49539D01*
X59915Y49696D01*
X59854Y49842D01*
X59758Y49967D01*
X59633Y50063D01*
X59487Y50124D01*
X59330Y50145D01*
D02*
G37*
G36*
X78706Y49789D02*
X78549Y49769D01*
X78403Y49708D01*
X78278Y49612D01*
X78182Y49487D01*
X78121Y49341D01*
X78101Y49184D01*
X78121Y49028D01*
X78182Y48882D01*
X78278Y48756D01*
X78403Y48660D01*
X78549Y48600D01*
X78706Y48579D01*
X78863Y48600D01*
X79009Y48660D01*
X79134Y48756D01*
X79230Y48882D01*
X79290Y49028D01*
X79311Y49184D01*
X79290Y49341D01*
X79230Y49487D01*
X79134Y49612D01*
X79009Y49708D01*
X78863Y49769D01*
X78706Y49789D01*
D02*
G37*
G36*
X63250Y49680D02*
X63093Y49660D01*
X62947Y49599D01*
X62822Y49503D01*
X62726Y49378D01*
X62665Y49232D01*
X62645Y49075D01*
X62665Y48918D01*
X62726Y48772D01*
X62822Y48647D01*
X62947Y48551D01*
X63093Y48490D01*
X63250Y48470D01*
X63407Y48490D01*
X63553Y48551D01*
X63678Y48647D01*
X63774Y48772D01*
X63835Y48918D01*
X63855Y49075D01*
X63835Y49232D01*
X63774Y49378D01*
X63678Y49503D01*
X63553Y49599D01*
X63407Y49660D01*
X63250Y49680D01*
D02*
G37*
G36*
X64970Y49575D02*
X64813Y49555D01*
X64667Y49494D01*
X64542Y49398D01*
X64446Y49273D01*
X64385Y49127D01*
X64365Y48970D01*
X64385Y48813D01*
X64446Y48667D01*
X64542Y48542D01*
X64667Y48446D01*
X64813Y48385D01*
X64970Y48365D01*
X65127Y48385D01*
X65273Y48446D01*
X65398Y48542D01*
X65494Y48667D01*
X65555Y48813D01*
X65575Y48970D01*
X65555Y49127D01*
X65494Y49273D01*
X65398Y49398D01*
X65273Y49494D01*
X65127Y49555D01*
X64970Y49575D01*
D02*
G37*
G36*
X68375Y48842D02*
X68218Y48821D01*
X68072Y48761D01*
X67947Y48664D01*
X67851Y48539D01*
X67790Y48393D01*
X67770Y48236D01*
X67790Y48080D01*
X67851Y47934D01*
X67947Y47808D01*
X68072Y47712D01*
X68218Y47652D01*
X68375Y47631D01*
X68532Y47652D01*
X68678Y47712D01*
X68803Y47808D01*
X68899Y47934D01*
X68960Y48080D01*
X68980Y48236D01*
X68960Y48393D01*
X68899Y48539D01*
X68803Y48664D01*
X68678Y48761D01*
X68532Y48821D01*
X68375Y48842D01*
D02*
G37*
G36*
X59505Y48830D02*
X59348Y48809D01*
X59202Y48749D01*
X59077Y48652D01*
X58981Y48527D01*
X58920Y48381D01*
X58900Y48224D01*
X58920Y48068D01*
X58981Y47922D01*
X59077Y47796D01*
X59202Y47700D01*
X59348Y47640D01*
X59505Y47619D01*
X59662Y47640D01*
X59808Y47700D01*
X59933Y47796D01*
X60029Y47922D01*
X60090Y48068D01*
X60110Y48224D01*
X60090Y48381D01*
X60029Y48527D01*
X59933Y48652D01*
X59808Y48749D01*
X59662Y48809D01*
X59505Y48830D01*
D02*
G37*
G36*
X80381Y48305D02*
X80224Y48285D01*
X80078Y48224D01*
X79953Y48128D01*
X79857Y48003D01*
X79796Y47857D01*
X79776Y47700D01*
X79796Y47543D01*
X79857Y47397D01*
X79953Y47272D01*
X80078Y47176D01*
X80224Y47115D01*
X80381Y47095D01*
X80538Y47115D01*
X80684Y47176D01*
X80809Y47272D01*
X80905Y47397D01*
X80965Y47543D01*
X80986Y47700D01*
X80965Y47857D01*
X80905Y48003D01*
X80809Y48128D01*
X80684Y48224D01*
X80538Y48285D01*
X80381Y48305D01*
D02*
G37*
G36*
X69900Y48130D02*
X69743Y48110D01*
X69597Y48049D01*
X69472Y47953D01*
X69376Y47828D01*
X69315Y47682D01*
X69295Y47525D01*
X69315Y47368D01*
X69376Y47222D01*
X69472Y47097D01*
X69597Y47001D01*
X69743Y46940D01*
X69900Y46920D01*
X70057Y46940D01*
X70203Y47001D01*
X70328Y47097D01*
X70424Y47222D01*
X70485Y47368D01*
X70505Y47525D01*
X70485Y47682D01*
X70424Y47828D01*
X70328Y47953D01*
X70203Y48049D01*
X70057Y48110D01*
X69900Y48130D01*
D02*
G37*
G36*
X74900Y48055D02*
X74743Y48035D01*
X74597Y47974D01*
X74472Y47878D01*
X74376Y47753D01*
X74315Y47607D01*
X74295Y47450D01*
X74315Y47293D01*
X74376Y47147D01*
X74472Y47022D01*
X74597Y46926D01*
X74743Y46865D01*
X74900Y46845D01*
X75057Y46865D01*
X75203Y46926D01*
X75328Y47022D01*
X75424Y47147D01*
X75485Y47293D01*
X75505Y47450D01*
X75485Y47607D01*
X75424Y47753D01*
X75328Y47878D01*
X75203Y47974D01*
X75057Y48035D01*
X74900Y48055D01*
D02*
G37*
G36*
X73900Y47080D02*
X73743Y47060D01*
X73597Y46999D01*
X73472Y46903D01*
X73376Y46778D01*
X73315Y46632D01*
X73295Y46475D01*
X73315Y46318D01*
X73376Y46172D01*
X73472Y46047D01*
X73597Y45951D01*
X73743Y45890D01*
X73900Y45870D01*
X74057Y45890D01*
X74203Y45951D01*
X74328Y46047D01*
X74424Y46172D01*
X74485Y46318D01*
X74505Y46475D01*
X74485Y46632D01*
X74424Y46778D01*
X74328Y46903D01*
X74203Y46999D01*
X74057Y47060D01*
X73900Y47080D01*
D02*
G37*
G36*
X88025Y32725D02*
X87868Y32705D01*
X87722Y32644D01*
X87597Y32548D01*
X87501Y32423D01*
X87440Y32277D01*
X87420Y32120D01*
X87440Y31963D01*
X87501Y31817D01*
X87597Y31692D01*
X87722Y31596D01*
X87868Y31535D01*
X88025Y31515D01*
X88182Y31535D01*
X88328Y31596D01*
X88453Y31692D01*
X88549Y31817D01*
X88610Y31963D01*
X88630Y32120D01*
X88610Y32277D01*
X88549Y32423D01*
X88453Y32548D01*
X88328Y32644D01*
X88182Y32705D01*
X88025Y32725D01*
D02*
G37*
G36*
X88075Y30150D02*
X87918Y30130D01*
X87772Y30069D01*
X87647Y29973D01*
X87551Y29848D01*
X87490Y29702D01*
X87470Y29545D01*
X87490Y29388D01*
X87551Y29242D01*
X87647Y29117D01*
X87772Y29021D01*
X87918Y28960D01*
X88075Y28940D01*
X88232Y28960D01*
X88378Y29021D01*
X88503Y29117D01*
X88599Y29242D01*
X88660Y29388D01*
X88680Y29545D01*
X88660Y29702D01*
X88599Y29848D01*
X88503Y29973D01*
X88378Y30069D01*
X88232Y30130D01*
X88075Y30150D01*
D02*
G37*
G36*
X85425Y26438D02*
X85268Y26418D01*
X85122Y26357D01*
X84997Y26261D01*
X84901Y26136D01*
X84840Y25990D01*
X84820Y25833D01*
X84840Y25676D01*
X84901Y25530D01*
X84997Y25405D01*
X85122Y25309D01*
X85268Y25248D01*
X85425Y25228D01*
X85582Y25248D01*
X85728Y25309D01*
X85853Y25405D01*
X85949Y25530D01*
X86010Y25676D01*
X86030Y25833D01*
X86010Y25990D01*
X85949Y26136D01*
X85853Y26261D01*
X85728Y26357D01*
X85582Y26418D01*
X85425Y26438D01*
D02*
G37*
G36*
X86332Y24650D02*
X86176Y24630D01*
X86030Y24569D01*
X85905Y24473D01*
X85808Y24348D01*
X85748Y24202D01*
X85727Y24045D01*
X85748Y23888D01*
X85808Y23742D01*
X85905Y23617D01*
X86030Y23521D01*
X86176Y23460D01*
X86332Y23440D01*
X86489Y23460D01*
X86635Y23521D01*
X86760Y23617D01*
X86857Y23742D01*
X86917Y23888D01*
X86938Y24045D01*
X86917Y24202D01*
X86857Y24348D01*
X86760Y24473D01*
X86635Y24569D01*
X86489Y24630D01*
X86332Y24650D01*
D02*
G37*
G36*
X87886Y21782D02*
X87729Y21761D01*
X87583Y21701D01*
X87458Y21605D01*
X87362Y21479D01*
X87301Y21333D01*
X87281Y21177D01*
X87301Y21020D01*
X87362Y20874D01*
X87458Y20749D01*
X87583Y20653D01*
X87729Y20592D01*
X87886Y20572D01*
X88042Y20592D01*
X88188Y20653D01*
X88314Y20749D01*
X88410Y20874D01*
X88470Y21020D01*
X88491Y21177D01*
X88470Y21333D01*
X88410Y21479D01*
X88314Y21605D01*
X88188Y21701D01*
X88042Y21761D01*
X87886Y21782D01*
D02*
G37*
G36*
X83025Y20560D02*
X82868Y20540D01*
X82722Y20479D01*
X82597Y20383D01*
X82501Y20258D01*
X82440Y20112D01*
X82420Y19955D01*
X82440Y19798D01*
X82501Y19652D01*
X82565Y19569D01*
X82588Y19497D01*
X82565Y19426D01*
X82501Y19343D01*
X82440Y19197D01*
X82420Y19040D01*
X82440Y18883D01*
X82501Y18737D01*
X82565Y18654D01*
X82588Y18583D01*
X82565Y18511D01*
X82501Y18428D01*
X82440Y18282D01*
X82420Y18125D01*
X82440Y17968D01*
X82501Y17822D01*
X82597Y17697D01*
X82722Y17601D01*
X82868Y17540D01*
X83025Y17520D01*
X83182Y17540D01*
X83328Y17601D01*
X83453Y17697D01*
X83487Y17741D01*
X83613D01*
X83647Y17697D01*
X83772Y17601D01*
X83918Y17540D01*
X84075Y17520D01*
X84232Y17540D01*
X84378Y17601D01*
X84499Y17694D01*
X84526Y17710D01*
X84599D01*
X84626Y17694D01*
X84747Y17601D01*
X84893Y17540D01*
X85050Y17520D01*
X85207Y17540D01*
X85353Y17601D01*
X85478Y17697D01*
X85540Y17778D01*
X85544Y17780D01*
X85656D01*
X85660Y17778D01*
X85722Y17697D01*
X85847Y17601D01*
X85993Y17540D01*
X86150Y17520D01*
X86307Y17540D01*
X86453Y17601D01*
X86578Y17697D01*
X86600Y17726D01*
X86700D01*
X86722Y17697D01*
X86847Y17601D01*
X86993Y17540D01*
X87150Y17520D01*
X87307Y17540D01*
X87453Y17601D01*
X87578Y17697D01*
X87674Y17822D01*
X87735Y17968D01*
X87755Y18125D01*
X87735Y18282D01*
X87674Y18428D01*
X87625Y18492D01*
X87586Y18568D01*
X87625Y18643D01*
X87674Y18707D01*
X87735Y18853D01*
X87755Y19010D01*
X87735Y19167D01*
X87674Y19313D01*
X87610Y19396D01*
X87587Y19468D01*
X87610Y19539D01*
X87674Y19622D01*
X87735Y19768D01*
X87755Y19925D01*
X87735Y20082D01*
X87674Y20228D01*
X87578Y20353D01*
X87453Y20449D01*
X87307Y20510D01*
X87150Y20530D01*
X86993Y20510D01*
X86847Y20449D01*
X86722Y20353D01*
X86626Y20228D01*
X86565Y20082D01*
X86545Y19925D01*
X86565Y19768D01*
X86626Y19622D01*
X86690Y19539D01*
X86713Y19468D01*
X86690Y19396D01*
X86626Y19313D01*
X86565Y19167D01*
X86545Y19010D01*
X86565Y18853D01*
X86626Y18707D01*
X86675Y18643D01*
X86685Y18624D01*
X86669Y18598D01*
X86649Y18588D01*
X86542Y18581D01*
X86453Y18649D01*
X86307Y18710D01*
X86150Y18730D01*
X85993Y18710D01*
X85847Y18649D01*
X85722Y18553D01*
X85660Y18472D01*
X85656Y18470D01*
X85544D01*
X85540Y18472D01*
X85478Y18553D01*
X85353Y18649D01*
X85207Y18710D01*
X85050Y18730D01*
X84893Y18710D01*
X84747Y18649D01*
X84626Y18556D01*
X84599Y18540D01*
X84526D01*
X84499Y18556D01*
X84378Y18649D01*
X84232Y18710D01*
X84075Y18730D01*
X83918Y18710D01*
X83772Y18649D01*
X83647Y18553D01*
X83614Y18510D01*
X83518Y18513D01*
X83468Y18601D01*
X83485Y18654D01*
X83549Y18737D01*
X83610Y18883D01*
X83630Y19040D01*
X83610Y19197D01*
X83549Y19343D01*
X83485Y19426D01*
X83462Y19497D01*
X83485Y19569D01*
X83549Y19652D01*
X83610Y19798D01*
X83630Y19955D01*
X83610Y20112D01*
X83549Y20258D01*
X83453Y20383D01*
X83328Y20479D01*
X83182Y20540D01*
X83025Y20560D01*
D02*
G37*
G36*
X88200Y16502D02*
X88043Y16481D01*
X87897Y16421D01*
X87772Y16325D01*
X87676Y16199D01*
X87615Y16053D01*
X87595Y15897D01*
X87615Y15740D01*
X87676Y15594D01*
X87772Y15469D01*
X87897Y15373D01*
X88043Y15312D01*
X88200Y15292D01*
X88357Y15312D01*
X88503Y15373D01*
X88628Y15469D01*
X88724Y15594D01*
X88785Y15740D01*
X88805Y15897D01*
X88785Y16053D01*
X88724Y16199D01*
X88628Y16325D01*
X88503Y16421D01*
X88357Y16481D01*
X88200Y16502D01*
D02*
G37*
G36*
Y13975D02*
X88043Y13955D01*
X87897Y13894D01*
X87772Y13798D01*
X87676Y13673D01*
X87615Y13527D01*
X87595Y13370D01*
X87615Y13213D01*
X87676Y13067D01*
X87772Y12942D01*
X87897Y12846D01*
X88043Y12785D01*
X88200Y12765D01*
X88357Y12785D01*
X88503Y12846D01*
X88628Y12942D01*
X88724Y13067D01*
X88785Y13213D01*
X88805Y13370D01*
X88785Y13527D01*
X88724Y13673D01*
X88628Y13798D01*
X88503Y13894D01*
X88357Y13955D01*
X88200Y13975D01*
D02*
G37*
G36*
X85400Y10250D02*
X85243Y10230D01*
X85097Y10169D01*
X84972Y10073D01*
X84876Y9948D01*
X84815Y9802D01*
X84795Y9645D01*
X84815Y9488D01*
X84876Y9342D01*
X84972Y9217D01*
X85097Y9121D01*
X85243Y9060D01*
X85400Y9040D01*
X85557Y9060D01*
X85703Y9121D01*
X85828Y9217D01*
X85924Y9342D01*
X85985Y9488D01*
X86005Y9645D01*
X85985Y9802D01*
X85924Y9948D01*
X85828Y10073D01*
X85703Y10169D01*
X85557Y10230D01*
X85400Y10250D01*
D02*
G37*
G36*
X86305Y8462D02*
X86148Y8442D01*
X86002Y8381D01*
X85877Y8285D01*
X85781Y8160D01*
X85720Y8014D01*
X85700Y7857D01*
X85720Y7700D01*
X85781Y7554D01*
X85877Y7429D01*
X86002Y7333D01*
X86148Y7272D01*
X86305Y7252D01*
X86462Y7272D01*
X86608Y7333D01*
X86733Y7429D01*
X86829Y7554D01*
X86890Y7700D01*
X86910Y7857D01*
X86890Y8014D01*
X86829Y8160D01*
X86733Y8285D01*
X86608Y8381D01*
X86462Y8442D01*
X86305Y8462D01*
D02*
G37*
%LPD*%
D12*
X103600Y14602D02*
X103600Y14602D01*
Y6795D02*
Y14602D01*
X103600Y22995D02*
X103600Y22995D01*
X103600Y22995D02*
Y30802D01*
D85*
X94300Y90769D02*
D03*
D162*
X118655Y12605D02*
D03*
X129575D02*
D03*
D163*
X37389Y77034D02*
D03*
Y78584D02*
D03*
Y77859D02*
D03*
X123009Y28691D02*
D03*
X128345Y34250D02*
D03*
X124925Y34250D02*
D03*
X123550D02*
D03*
X120120Y34250D02*
D03*
X120628Y47275D02*
D03*
X117129Y46225D02*
D03*
X117950Y51525D02*
D03*
X115675Y56725D02*
D03*
X114575Y57675D02*
D03*
X112389Y56720D02*
D03*
X48935Y91056D02*
D03*
Y91819D02*
D03*
X48100Y91866D02*
D03*
X33917Y76975D02*
D03*
X36473Y77830D02*
D03*
Y78555D02*
D03*
Y77005D02*
D03*
X35557Y76975D02*
D03*
X118497Y49672D02*
D03*
X85025Y23845D02*
D03*
X83000Y22290D02*
D03*
X82950Y6165D02*
D03*
X84975Y7720D02*
D03*
X34737Y76975D02*
D03*
X35557Y78525D02*
D03*
Y77800D02*
D03*
X94225Y86781D02*
D03*
X47194Y91875D02*
D03*
X48935Y90275D02*
D03*
D164*
X49082Y60525D02*
D03*
X49082Y64308D02*
D03*
X49082Y61786D02*
D03*
X49082Y63047D02*
D03*
X46882Y63047D02*
D03*
X46882Y61786D02*
D03*
X47982Y63047D02*
D03*
X47982Y61786D02*
D03*
X47982Y60525D02*
D03*
X46882D02*
D03*
X103600Y14602D02*
D03*
X103600Y6795D02*
D03*
X103600Y30802D02*
D03*
X103600Y22995D02*
D03*
X67025Y92750D02*
D03*
X57640D02*
D03*
X83063Y92037D02*
D03*
M02*
