G04*
G04 #@! TF.GenerationSoftware,Altium Limited,Altium Designer,22.7.1 (60)*
G04*
G04 Layer_Physical_Order=6*
G04 Layer_Color=16711680*
%FSLAX43Y43*%
%MOMM*%
G71*
G04*
G04 #@! TF.SameCoordinates,BF121B45-6408-4E43-B4A1-C448907F0F72*
G04*
G04*
G04 #@! TF.FilePolarity,Positive*
G04*
G01*
G75*
%ADD10C,0.200*%
%ADD11C,0.500*%
%ADD14C,0.400*%
%ADD15C,0.250*%
%ADD20C,0.300*%
%ADD71C,1.700*%
%ADD74C,1.600*%
%ADD75C,1.800*%
%ADD79C,1.900*%
G04:AMPARAMS|DCode=83|XSize=0.65mm|YSize=0.7mm|CornerRadius=0.081mm|HoleSize=0mm|Usage=FLASHONLY|Rotation=180.000|XOffset=0mm|YOffset=0mm|HoleType=Round|Shape=RoundedRectangle|*
%AMROUNDEDRECTD83*
21,1,0.650,0.538,0,0,180.0*
21,1,0.488,0.700,0,0,180.0*
1,1,0.163,-0.244,0.269*
1,1,0.163,0.244,0.269*
1,1,0.163,0.244,-0.269*
1,1,0.163,-0.244,-0.269*
%
%ADD83ROUNDEDRECTD83*%
G04:AMPARAMS|DCode=84|XSize=0.65mm|YSize=0.7mm|CornerRadius=0.081mm|HoleSize=0mm|Usage=FLASHONLY|Rotation=90.000|XOffset=0mm|YOffset=0mm|HoleType=Round|Shape=RoundedRectangle|*
%AMROUNDEDRECTD84*
21,1,0.650,0.538,0,0,90.0*
21,1,0.488,0.700,0,0,90.0*
1,1,0.163,0.269,0.244*
1,1,0.163,0.269,-0.244*
1,1,0.163,-0.269,-0.244*
1,1,0.163,-0.269,0.244*
%
%ADD84ROUNDEDRECTD84*%
G04:AMPARAMS|DCode=88|XSize=1.1mm|YSize=1.1mm|CornerRadius=0.138mm|HoleSize=0mm|Usage=FLASHONLY|Rotation=90.000|XOffset=0mm|YOffset=0mm|HoleType=Round|Shape=RoundedRectangle|*
%AMROUNDEDRECTD88*
21,1,1.100,0.825,0,0,90.0*
21,1,0.825,1.100,0,0,90.0*
1,1,0.275,0.413,0.413*
1,1,0.275,0.413,-0.413*
1,1,0.275,-0.413,-0.413*
1,1,0.275,-0.413,0.413*
%
%ADD88ROUNDEDRECTD88*%
G04:AMPARAMS|DCode=91|XSize=1.1mm|YSize=1.1mm|CornerRadius=0.138mm|HoleSize=0mm|Usage=FLASHONLY|Rotation=0.000|XOffset=0mm|YOffset=0mm|HoleType=Round|Shape=RoundedRectangle|*
%AMROUNDEDRECTD91*
21,1,1.100,0.825,0,0,0.0*
21,1,0.825,1.100,0,0,0.0*
1,1,0.275,0.413,-0.413*
1,1,0.275,-0.413,-0.413*
1,1,0.275,-0.413,0.413*
1,1,0.275,0.413,0.413*
%
%ADD91ROUNDEDRECTD91*%
G04:AMPARAMS|DCode=96|XSize=1.35mm|YSize=1.55mm|CornerRadius=0.169mm|HoleSize=0mm|Usage=FLASHONLY|Rotation=270.000|XOffset=0mm|YOffset=0mm|HoleType=Round|Shape=RoundedRectangle|*
%AMROUNDEDRECTD96*
21,1,1.350,1.212,0,0,270.0*
21,1,1.013,1.550,0,0,270.0*
1,1,0.338,-0.606,-0.506*
1,1,0.338,-0.606,0.506*
1,1,0.338,0.606,0.506*
1,1,0.338,0.606,-0.506*
%
%ADD96ROUNDEDRECTD96*%
G04:AMPARAMS|DCode=97|XSize=1.6mm|YSize=3.6mm|CornerRadius=0.2mm|HoleSize=0mm|Usage=FLASHONLY|Rotation=270.000|XOffset=0mm|YOffset=0mm|HoleType=Round|Shape=RoundedRectangle|*
%AMROUNDEDRECTD97*
21,1,1.600,3.200,0,0,270.0*
21,1,1.200,3.600,0,0,270.0*
1,1,0.400,-1.600,-0.600*
1,1,0.400,-1.600,0.600*
1,1,0.400,1.600,0.600*
1,1,0.400,1.600,-0.600*
%
%ADD97ROUNDEDRECTD97*%
G04:AMPARAMS|DCode=103|XSize=1.7mm|YSize=2.8mm|CornerRadius=0.213mm|HoleSize=0mm|Usage=FLASHONLY|Rotation=90.000|XOffset=0mm|YOffset=0mm|HoleType=Round|Shape=RoundedRectangle|*
%AMROUNDEDRECTD103*
21,1,1.700,2.375,0,0,90.0*
21,1,1.275,2.800,0,0,90.0*
1,1,0.425,1.188,0.638*
1,1,0.425,1.188,-0.638*
1,1,0.425,-1.188,-0.638*
1,1,0.425,-1.188,0.638*
%
%ADD103ROUNDEDRECTD103*%
G04:AMPARAMS|DCode=116|XSize=0.65mm|YSize=0.7mm|CornerRadius=0.081mm|HoleSize=0mm|Usage=FLASHONLY|Rotation=315.000|XOffset=0mm|YOffset=0mm|HoleType=Round|Shape=RoundedRectangle|*
%AMROUNDEDRECTD116*
21,1,0.650,0.538,0,0,315.0*
21,1,0.488,0.700,0,0,315.0*
1,1,0.163,-0.018,-0.362*
1,1,0.163,-0.362,-0.018*
1,1,0.163,0.018,0.362*
1,1,0.163,0.362,0.018*
%
%ADD116ROUNDEDRECTD116*%
%ADD118C,1.000*%
G04:AMPARAMS|DCode=122|XSize=0.45mm|YSize=1.5mm|CornerRadius=0.056mm|HoleSize=0mm|Usage=FLASHONLY|Rotation=180.000|XOffset=0mm|YOffset=0mm|HoleType=Round|Shape=RoundedRectangle|*
%AMROUNDEDRECTD122*
21,1,0.450,1.388,0,0,180.0*
21,1,0.338,1.500,0,0,180.0*
1,1,0.113,-0.169,0.694*
1,1,0.113,0.169,0.694*
1,1,0.113,0.169,-0.694*
1,1,0.113,-0.169,-0.694*
%
%ADD122ROUNDEDRECTD122*%
G04:AMPARAMS|DCode=123|XSize=1.8mm|YSize=2mm|CornerRadius=0.225mm|HoleSize=0mm|Usage=FLASHONLY|Rotation=90.000|XOffset=0mm|YOffset=0mm|HoleType=Round|Shape=RoundedRectangle|*
%AMROUNDEDRECTD123*
21,1,1.800,1.550,0,0,90.0*
21,1,1.350,2.000,0,0,90.0*
1,1,0.450,0.775,0.675*
1,1,0.450,0.775,-0.675*
1,1,0.450,-0.775,-0.675*
1,1,0.450,-0.775,0.675*
%
%ADD123ROUNDEDRECTD123*%
G04:AMPARAMS|DCode=127|XSize=1.35mm|YSize=1.9mm|CornerRadius=0.169mm|HoleSize=0mm|Usage=FLASHONLY|Rotation=0.000|XOffset=0mm|YOffset=0mm|HoleType=Round|Shape=RoundedRectangle|*
%AMROUNDEDRECTD127*
21,1,1.350,1.563,0,0,0.0*
21,1,1.013,1.900,0,0,0.0*
1,1,0.338,0.506,-0.781*
1,1,0.338,-0.506,-0.781*
1,1,0.338,-0.506,0.781*
1,1,0.338,0.506,0.781*
%
%ADD127ROUNDEDRECTD127*%
%ADD129C,1.000*%
%ADD131C,0.350*%
%ADD132C,2.000*%
%ADD133C,1.408*%
%ADD134R,1.408X1.408*%
%ADD135C,4.000*%
%ADD136C,1.500*%
%ADD137R,1.700X1.700*%
%ADD138C,2.400*%
%ADD139C,3.250*%
%ADD140C,2.600*%
%ADD141C,1.100*%
%ADD142C,0.700*%
%ADD143C,1.500*%
G04:AMPARAMS|DCode=145|XSize=0.95mm|YSize=0.3mm|CornerRadius=0.038mm|HoleSize=0mm|Usage=FLASHONLY|Rotation=0.000|XOffset=0mm|YOffset=0mm|HoleType=Round|Shape=RoundedRectangle|*
%AMROUNDEDRECTD145*
21,1,0.950,0.225,0,0,0.0*
21,1,0.875,0.300,0,0,0.0*
1,1,0.075,0.438,-0.113*
1,1,0.075,-0.438,-0.113*
1,1,0.075,-0.438,0.113*
1,1,0.075,0.438,0.113*
%
%ADD145ROUNDEDRECTD145*%
G04:AMPARAMS|DCode=146|XSize=0.53mm|YSize=0.28mm|CornerRadius=0.035mm|HoleSize=0mm|Usage=FLASHONLY|Rotation=90.000|XOffset=0mm|YOffset=0mm|HoleType=Round|Shape=RoundedRectangle|*
%AMROUNDEDRECTD146*
21,1,0.530,0.210,0,0,90.0*
21,1,0.460,0.280,0,0,90.0*
1,1,0.070,0.105,0.230*
1,1,0.070,0.105,-0.230*
1,1,0.070,-0.105,-0.230*
1,1,0.070,-0.105,0.230*
%
%ADD146ROUNDEDRECTD146*%
G04:AMPARAMS|DCode=147|XSize=0.53mm|YSize=0.28mm|CornerRadius=0.035mm|HoleSize=0mm|Usage=FLASHONLY|Rotation=0.000|XOffset=0mm|YOffset=0mm|HoleType=Round|Shape=RoundedRectangle|*
%AMROUNDEDRECTD147*
21,1,0.530,0.210,0,0,0.0*
21,1,0.460,0.280,0,0,0.0*
1,1,0.070,0.230,-0.105*
1,1,0.070,-0.230,-0.105*
1,1,0.070,-0.230,0.105*
1,1,0.070,0.230,0.105*
%
%ADD147ROUNDEDRECTD147*%
G04:AMPARAMS|DCode=148|XSize=1.5mm|YSize=1.25mm|CornerRadius=0.156mm|HoleSize=0mm|Usage=FLASHONLY|Rotation=180.000|XOffset=0mm|YOffset=0mm|HoleType=Round|Shape=RoundedRectangle|*
%AMROUNDEDRECTD148*
21,1,1.500,0.938,0,0,180.0*
21,1,1.188,1.250,0,0,180.0*
1,1,0.313,-0.594,0.469*
1,1,0.313,0.594,0.469*
1,1,0.313,0.594,-0.469*
1,1,0.313,-0.594,-0.469*
%
%ADD148ROUNDEDRECTD148*%
G04:AMPARAMS|DCode=149|XSize=1.35mm|YSize=1.9mm|CornerRadius=0.169mm|HoleSize=0mm|Usage=FLASHONLY|Rotation=270.000|XOffset=0mm|YOffset=0mm|HoleType=Round|Shape=RoundedRectangle|*
%AMROUNDEDRECTD149*
21,1,1.350,1.563,0,0,270.0*
21,1,1.013,1.900,0,0,270.0*
1,1,0.338,-0.781,-0.506*
1,1,0.338,-0.781,0.506*
1,1,0.338,0.781,0.506*
1,1,0.338,0.781,-0.506*
%
%ADD149ROUNDEDRECTD149*%
G04:AMPARAMS|DCode=150|XSize=7.3mm|YSize=7.3mm|CornerRadius=0.183mm|HoleSize=0mm|Usage=FLASHONLY|Rotation=270.000|XOffset=0mm|YOffset=0mm|HoleType=Round|Shape=RoundedRectangle|*
%AMROUNDEDRECTD150*
21,1,7.300,6.935,0,0,270.0*
21,1,6.935,7.300,0,0,270.0*
1,1,0.365,-3.468,-3.468*
1,1,0.365,-3.468,3.468*
1,1,0.365,3.468,3.468*
1,1,0.365,3.468,-3.468*
%
%ADD150ROUNDEDRECTD150*%
G04:AMPARAMS|DCode=151|XSize=0.95mm|YSize=0.3mm|CornerRadius=0.038mm|HoleSize=0mm|Usage=FLASHONLY|Rotation=90.000|XOffset=0mm|YOffset=0mm|HoleType=Round|Shape=RoundedRectangle|*
%AMROUNDEDRECTD151*
21,1,0.950,0.225,0,0,90.0*
21,1,0.875,0.300,0,0,90.0*
1,1,0.075,0.113,0.438*
1,1,0.075,0.113,-0.438*
1,1,0.075,-0.113,-0.438*
1,1,0.075,-0.113,0.438*
%
%ADD151ROUNDEDRECTD151*%
G04:AMPARAMS|DCode=152|XSize=0.61mm|YSize=0.6mm|CornerRadius=0.075mm|HoleSize=0mm|Usage=FLASHONLY|Rotation=270.000|XOffset=0mm|YOffset=0mm|HoleType=Round|Shape=RoundedRectangle|*
%AMROUNDEDRECTD152*
21,1,0.610,0.450,0,0,270.0*
21,1,0.460,0.600,0,0,270.0*
1,1,0.150,-0.225,-0.230*
1,1,0.150,-0.225,0.230*
1,1,0.150,0.225,0.230*
1,1,0.150,0.225,-0.230*
%
%ADD152ROUNDEDRECTD152*%
G04:AMPARAMS|DCode=153|XSize=2mm|YSize=0.35mm|CornerRadius=0.044mm|HoleSize=0mm|Usage=FLASHONLY|Rotation=270.000|XOffset=0mm|YOffset=0mm|HoleType=Round|Shape=RoundedRectangle|*
%AMROUNDEDRECTD153*
21,1,2.000,0.263,0,0,270.0*
21,1,1.913,0.350,0,0,270.0*
1,1,0.088,-0.131,-0.956*
1,1,0.088,-0.131,0.956*
1,1,0.088,0.131,0.956*
1,1,0.088,0.131,-0.956*
%
%ADD153ROUNDEDRECTD153*%
G04:AMPARAMS|DCode=154|XSize=4.6mm|YSize=4.5mm|CornerRadius=0.563mm|HoleSize=0mm|Usage=FLASHONLY|Rotation=270.000|XOffset=0mm|YOffset=0mm|HoleType=Round|Shape=RoundedRectangle|*
%AMROUNDEDRECTD154*
21,1,4.600,3.375,0,0,270.0*
21,1,3.475,4.500,0,0,270.0*
1,1,1.125,-1.688,-1.738*
1,1,1.125,-1.688,1.738*
1,1,1.125,1.688,1.738*
1,1,1.125,1.688,-1.738*
%
%ADD154ROUNDEDRECTD154*%
G04:AMPARAMS|DCode=155|XSize=0.65mm|YSize=0.65mm|CornerRadius=0.081mm|HoleSize=0mm|Usage=FLASHONLY|Rotation=0.000|XOffset=0mm|YOffset=0mm|HoleType=Round|Shape=RoundedRectangle|*
%AMROUNDEDRECTD155*
21,1,0.650,0.488,0,0,0.0*
21,1,0.488,0.650,0,0,0.0*
1,1,0.163,0.244,-0.244*
1,1,0.163,-0.244,-0.244*
1,1,0.163,-0.244,0.244*
1,1,0.163,0.244,0.244*
%
%ADD155ROUNDEDRECTD155*%
G04:AMPARAMS|DCode=156|XSize=0.8mm|YSize=0.6mm|CornerRadius=0.075mm|HoleSize=0mm|Usage=FLASHONLY|Rotation=270.000|XOffset=0mm|YOffset=0mm|HoleType=Round|Shape=RoundedRectangle|*
%AMROUNDEDRECTD156*
21,1,0.800,0.450,0,0,270.0*
21,1,0.650,0.600,0,0,270.0*
1,1,0.150,-0.225,-0.325*
1,1,0.150,-0.225,0.325*
1,1,0.150,0.225,0.325*
1,1,0.150,0.225,-0.325*
%
%ADD156ROUNDEDRECTD156*%
%ADD157C,1.200*%
%ADD158C,0.800*%
%ADD159C,1.300*%
G36*
X37770Y84450D02*
Y82622D01*
X37598Y82450D01*
X36966D01*
Y82542D01*
X34907D01*
X32849D01*
Y82450D01*
X32559D01*
Y82525D01*
X30500D01*
Y82925D01*
X30100D01*
Y83984D01*
X29950D01*
Y84746D01*
X37475D01*
X37770Y84450D01*
D02*
G37*
G36*
X36475Y79450D02*
X35307D01*
Y78442D01*
Y77434D01*
X36475D01*
Y77125D01*
Y76909D01*
X32516D01*
X28416Y76909D01*
X28200Y77125D01*
X27825Y77500D01*
Y79800D01*
X28050Y80025D01*
X36475D01*
Y79450D01*
D02*
G37*
G36*
X52184Y69182D02*
Y66657D01*
X52009Y66482D01*
X51480Y66479D01*
X51420Y66559D01*
X51445Y66640D01*
X51448Y66675D01*
X50262D01*
X49076D01*
X49079Y66640D01*
X49108Y66545D01*
X49049Y66464D01*
X47762Y66457D01*
X46837Y67382D01*
X43612D01*
X43299Y67694D01*
Y70032D01*
X51337Y70032D01*
X52184Y69182D01*
D02*
G37*
G36*
X83653Y67978D02*
X83706Y67925D01*
Y67324D01*
X83530D01*
Y66165D01*
X83280D01*
Y65915D01*
X82021D01*
Y65825D01*
X81437D01*
X81425Y65837D01*
X81425Y67875D01*
X81528Y67978D01*
X83653Y67978D01*
D02*
G37*
G36*
X62710Y62368D02*
X65935D01*
X66247Y62056D01*
Y59718D01*
X58210Y59718D01*
X57363Y60568D01*
X57363Y63093D01*
X57538Y63268D01*
X58067Y63271D01*
X58127Y63191D01*
X58102Y63110D01*
X58099Y63075D01*
X59285D01*
X60471D01*
X60468Y63110D01*
X60439Y63205D01*
X60498Y63286D01*
X61785Y63293D01*
X62710Y62368D01*
D02*
G37*
G36*
X86221Y61335D02*
X87480D01*
Y61085D01*
X87730D01*
Y59926D01*
X87775D01*
Y59650D01*
X87068D01*
X87034Y59616D01*
X86925Y59638D01*
Y59032D01*
Y58425D01*
X87000Y58363D01*
Y57850D01*
X84745D01*
Y58167D01*
X84750D01*
Y58975D01*
Y59783D01*
X84745D01*
Y60000D01*
X85910Y61165D01*
X85910Y61329D01*
X85981Y61400D01*
X86221D01*
Y61335D01*
D02*
G37*
G36*
X30625Y60850D02*
X30625Y57975D01*
X29188Y56537D01*
X28181D01*
X27125Y57593D01*
X27125Y58725D01*
Y62025D01*
X27425Y62325D01*
X29150D01*
X30625Y60850D01*
D02*
G37*
G36*
X52202Y58282D02*
Y55757D01*
X52027Y55582D01*
X51549Y55579D01*
X51493Y55649D01*
X50280D01*
X49081D01*
X49019Y55564D01*
X47780Y55557D01*
X46855Y56482D01*
X43630D01*
X43318Y56794D01*
Y59132D01*
X51355Y59132D01*
X52202Y58282D01*
D02*
G37*
G36*
X62705Y51367D02*
X65930D01*
X66243Y51055D01*
Y48717D01*
X58205Y48717D01*
X57358Y49567D01*
X57358Y52092D01*
X57533Y52267D01*
X58062Y52270D01*
X58122Y52190D01*
X58098Y52109D01*
X58094Y52074D01*
X59280D01*
X60466D01*
X60463Y52109D01*
X60434Y52204D01*
X60493Y52285D01*
X61780Y52292D01*
X62705Y51367D01*
D02*
G37*
G36*
X52202Y47174D02*
Y44649D01*
X52028Y44474D01*
X51498Y44471D01*
X51438Y44551D01*
X51463Y44632D01*
X51466Y44667D01*
X50280D01*
X49094D01*
X49098Y44632D01*
X49126Y44537D01*
X49067Y44457D01*
X47780Y44449D01*
X46855Y45374D01*
X43630D01*
X43318Y45686D01*
Y48024D01*
X51356Y48024D01*
X52202Y47174D01*
D02*
G37*
G36*
X62706Y40361D02*
X65931D01*
X66244Y40048D01*
Y37711D01*
X58206Y37711D01*
X57359Y38561D01*
X57359Y41086D01*
X57534Y41261D01*
X58063Y41264D01*
X58123Y41184D01*
X58099Y41103D01*
X58095Y41067D01*
X59281D01*
X60467D01*
X60464Y41103D01*
X60435Y41198D01*
X60494Y41278D01*
X61781Y41286D01*
X62706Y40361D01*
D02*
G37*
G36*
X52197Y36182D02*
Y33657D01*
X52022Y33482D01*
X51493Y33479D01*
X51433Y33559D01*
X51458Y33640D01*
X51461Y33675D01*
X50275D01*
X49089D01*
X49092Y33640D01*
X49121Y33545D01*
X49062Y33464D01*
X47775Y33457D01*
X46850Y34382D01*
X43625D01*
X43312Y34694D01*
Y37032D01*
X51350Y37032D01*
X52197Y36182D01*
D02*
G37*
G36*
X109225Y33050D02*
Y32513D01*
X107712Y31000D01*
X104079D01*
Y31260D01*
X102420D01*
X100761D01*
Y31000D01*
X90575D01*
X89200Y32375D01*
Y33000D01*
X89400Y33200D01*
X100115D01*
X104875Y33200D01*
X109075D01*
X109225Y33050D01*
D02*
G37*
G36*
X62700Y29343D02*
X65925D01*
X66238Y29031D01*
Y26693D01*
X58200Y26693D01*
X57353Y27543D01*
X57353Y30068D01*
X57528Y30243D01*
X58057Y30246D01*
X58117Y30166D01*
X58092Y30085D01*
X58089Y30050D01*
X59275D01*
X60461D01*
X60458Y30085D01*
X60429Y30180D01*
X60488Y30261D01*
X61775Y30268D01*
X62700Y29343D01*
D02*
G37*
G36*
X104639Y28761D02*
X104639Y27039D01*
X104450Y26850D01*
X100285D01*
X100135Y27000D01*
X100140Y28825D01*
X100761D01*
Y28760D01*
X102420D01*
X104079D01*
Y28825D01*
X104575D01*
X104639Y28761D01*
D02*
G37*
G36*
X52190Y25153D02*
Y22628D01*
X52016Y22454D01*
X51486Y22450D01*
X51427Y22531D01*
X51451Y22611D01*
X51455Y22647D01*
X50268D01*
X49082D01*
X49086Y22611D01*
X49115Y22516D01*
X49055Y22436D01*
X47768Y22428D01*
X46843Y23353D01*
X43618D01*
X43306Y23666D01*
Y26004D01*
X51344Y26004D01*
X52190Y25153D01*
D02*
G37*
G36*
X62700Y18340D02*
X65925D01*
X66238Y18028D01*
Y15690D01*
X58200Y15690D01*
X57353Y16540D01*
X57353Y19065D01*
X57528Y19240D01*
X58057Y19243D01*
X58117Y19163D01*
X58092Y19082D01*
X58089Y19047D01*
X59275D01*
X60461D01*
X60458Y19082D01*
X60429Y19177D01*
X60488Y19258D01*
X61775Y19265D01*
X62700Y18340D01*
D02*
G37*
G36*
X14625Y10500D02*
Y8875D01*
X14382D01*
Y8875D01*
X12950D01*
X11917D01*
Y8875D01*
X11561D01*
Y8933D01*
X10553D01*
X9545D01*
Y8875D01*
X8850D01*
Y10500D01*
X9325Y10975D01*
X14150D01*
X14625Y10500D01*
D02*
G37*
G36*
X133250Y5000D02*
X132614D01*
X132632Y5088D01*
Y5100D01*
X131875D01*
X131118D01*
Y5088D01*
X131136Y5000D01*
X130725D01*
X130150Y5575D01*
X128282Y5575D01*
X127875Y5982D01*
Y7450D01*
X128400Y7975D01*
X130713D01*
X130696Y7950D01*
X130668Y7806D01*
Y7700D01*
X131825D01*
X132982D01*
Y7806D01*
X132954Y7950D01*
X132937Y7975D01*
X133250D01*
Y5000D01*
D02*
G37*
G36*
X82895Y109593D02*
X85735Y109441D01*
X88569Y109187D01*
X91392Y108833D01*
X94200Y108378D01*
X96990Y107823D01*
X99759Y107168D01*
X102502Y106416D01*
X105217Y105566D01*
X107900Y104619D01*
X110548Y103578D01*
X113156Y102442D01*
X115722Y101214D01*
X118243Y99896D01*
X120715Y98488D01*
X123136Y96993D01*
X125501Y95412D01*
X127809Y93748D01*
X130056Y92003D01*
X132239Y90179D01*
X134355Y88278D01*
X136402Y86302D01*
X138378Y84255D01*
X140279Y82138D01*
X142103Y79955D01*
X143848Y77709D01*
X145512Y75401D01*
X147093Y73036D01*
X148588Y70615D01*
X149996Y68143D01*
X151314Y65622D01*
X152542Y63056D01*
X153678Y60447D01*
X154719Y57800D01*
X155666Y55117D01*
X156516Y52402D01*
X157269Y49659D01*
X157923Y46890D01*
X158478Y44100D01*
X158933Y41292D01*
X159287Y38469D01*
X159541Y35635D01*
X159693Y32794D01*
X159744Y29950D01*
X159685Y26887D01*
X159509Y23829D01*
X159215Y20780D01*
X158804Y17744D01*
X158277Y14727D01*
X157634Y11732D01*
X156876Y8764D01*
X156005Y5827D01*
X155022Y2926D01*
X154001Y256D01*
X149179D01*
X149060Y417D01*
X149130Y644D01*
X148725Y1050D01*
X148500D01*
Y3050D01*
X149741D01*
X149924Y3233D01*
X153340Y14365D01*
X154225Y19100D01*
X154550Y21650D01*
X154800Y24900D01*
X154931Y26599D01*
X154979Y27399D01*
X154979Y30025D01*
X154914Y32925D01*
X154700Y36525D01*
X154306Y39965D01*
X154140Y41405D01*
X153825Y43050D01*
X152825Y47825D01*
X152275Y49925D01*
X151538Y52412D01*
X150300Y56100D01*
X148917Y59441D01*
X147775Y61975D01*
X145776Y65950D01*
X143347Y70100D01*
X142124Y71961D01*
X140625Y74000D01*
X138218Y77275D01*
X134850Y81100D01*
X131317Y84633D01*
X127332Y88161D01*
X123975Y90650D01*
X119530Y93650D01*
X115663Y96063D01*
X110800Y98225D01*
X107546Y99672D01*
X101107Y101920D01*
X96944Y102935D01*
X93591Y103708D01*
X88770Y104403D01*
X82741Y104975D01*
X78425Y104875D01*
X75950Y104773D01*
X74568Y104675D01*
X72825Y104551D01*
X70875Y104350D01*
X68425Y104000D01*
X65269Y103461D01*
X59750Y102150D01*
X55750Y100875D01*
X51350Y99254D01*
X49125Y98225D01*
X45604Y96596D01*
X42284Y94713D01*
X37575Y91775D01*
X34425Y89426D01*
X30987Y86672D01*
X27216Y83115D01*
X22983Y78668D01*
X20499Y75500D01*
X17700Y71650D01*
X15325Y67750D01*
X14100Y65625D01*
X12975Y63500D01*
X10339Y57596D01*
X10059Y56822D01*
X9742Y55943D01*
X9004Y53900D01*
X8322Y51701D01*
X7964Y50546D01*
X7775Y49825D01*
X7493Y48857D01*
X7250Y47825D01*
X6750Y45700D01*
X5875Y41125D01*
X5600Y38800D01*
X5400Y36750D01*
X5250Y34775D01*
X5124Y32725D01*
X5110Y31978D01*
X5052Y28850D01*
X5166Y26051D01*
X5361Y23600D01*
X5532Y21451D01*
X5875Y19100D01*
X6255Y16495D01*
X6750Y14250D01*
X7125Y12550D01*
X8777Y7502D01*
X9125Y7850D01*
X15172D01*
X15729Y7293D01*
Y3929D01*
X15000Y3200D01*
X10185D01*
X11096Y418D01*
X10978Y256D01*
X6099D01*
X5078Y2926D01*
X4095Y5827D01*
X3224Y8764D01*
X2466Y11732D01*
X1823Y14727D01*
X1296Y17744D01*
X885Y20780D01*
X591Y23829D01*
X415Y26887D01*
X356Y29950D01*
X407Y32794D01*
X559Y35635D01*
X813Y38469D01*
X1167Y41292D01*
X1622Y44100D01*
X2177Y46890D01*
X2831Y49659D01*
X3584Y52402D01*
X4434Y55117D01*
X5381Y57800D01*
X6422Y60448D01*
X7558Y63056D01*
X8786Y65622D01*
X10104Y68143D01*
X11512Y70615D01*
X13007Y73036D01*
X14588Y75401D01*
X16252Y77709D01*
X17997Y79956D01*
X19821Y82138D01*
X21722Y84255D01*
X23698Y86302D01*
X25745Y88278D01*
X27861Y90179D01*
X30044Y92003D01*
X32291Y93748D01*
X34599Y95412D01*
X36964Y96993D01*
X39385Y98488D01*
X41857Y99896D01*
X44378Y101214D01*
X46944Y102442D01*
X49552Y103578D01*
X52200Y104619D01*
X54883Y105566D01*
X57598Y106416D01*
X60341Y107168D01*
X63110Y107823D01*
X65900Y108378D01*
X68708Y108833D01*
X71531Y109187D01*
X74365Y109441D01*
X77206Y109593D01*
X80050Y109644D01*
X82895Y109593D01*
D02*
G37*
%LPC*%
G36*
X36507Y84001D02*
X35307D01*
Y83342D01*
X36966D01*
Y83542D01*
X36931Y83717D01*
X36832Y83866D01*
X36683Y83966D01*
X36507Y84001D01*
D02*
G37*
G36*
X34507D02*
X33307D01*
X33132Y83966D01*
X32983Y83866D01*
X32883Y83717D01*
X32849Y83542D01*
Y83342D01*
X34507D01*
Y84001D01*
D02*
G37*
G36*
X32100Y83984D02*
X30900D01*
Y83325D01*
X32559D01*
Y83525D01*
X32524Y83701D01*
X32424Y83849D01*
X32276Y83949D01*
X32100Y83984D01*
D02*
G37*
G36*
X34507Y79450D02*
X33307D01*
X33151Y79419D01*
X33019Y79330D01*
X32931Y79198D01*
X32900Y79042D01*
Y78842D01*
X34507D01*
Y79450D01*
D02*
G37*
G36*
X32100Y79433D02*
X30900D01*
Y78825D01*
X32508D01*
Y79025D01*
X32477Y79181D01*
X32388Y79313D01*
X32256Y79402D01*
X32100Y79433D01*
D02*
G37*
G36*
X30100D02*
X28900D01*
X28744Y79402D01*
X28612Y79313D01*
X28523Y79181D01*
X28492Y79025D01*
Y78825D01*
X30100D01*
Y79433D01*
D02*
G37*
G36*
X34507Y78042D02*
X32900D01*
Y77842D01*
X32931Y77686D01*
X33019Y77554D01*
X33151Y77465D01*
X33307Y77434D01*
X34507D01*
Y78042D01*
D02*
G37*
G36*
X32508Y78025D02*
X30900D01*
Y77417D01*
X32100D01*
X32256Y77448D01*
X32388Y77537D01*
X32477Y77669D01*
X32508Y77825D01*
Y78025D01*
D02*
G37*
G36*
X30100D02*
X28492D01*
Y77825D01*
X28523Y77669D01*
X28612Y77537D01*
X28744Y77448D01*
X28900Y77417D01*
X30100D01*
Y78025D01*
D02*
G37*
G36*
X45237Y69801D02*
X45129Y69780D01*
X45112Y69768D01*
X45095Y69780D01*
X44987Y69801D01*
Y68750D01*
Y67700D01*
X45095Y67721D01*
X45112Y67732D01*
X45129Y67721D01*
X45237Y67700D01*
Y68750D01*
Y69801D01*
D02*
G37*
G36*
X44587Y69801D02*
X44479Y69780D01*
X44462Y69768D01*
X44445Y69780D01*
X44337Y69801D01*
Y68750D01*
Y67700D01*
X44445Y67721D01*
X44462Y67732D01*
X44479Y67721D01*
X44587Y67700D01*
Y68750D01*
Y69801D01*
D02*
G37*
G36*
X46287D02*
Y68950D01*
X46619D01*
Y69444D01*
X46591Y69583D01*
X46513Y69701D01*
X46395Y69780D01*
X46287Y69801D01*
D02*
G37*
G36*
X43937D02*
X43829Y69780D01*
X43711Y69701D01*
X43633Y69583D01*
X43605Y69444D01*
Y68950D01*
X43937D01*
Y69801D01*
D02*
G37*
G36*
X46619Y68550D02*
X46287D01*
Y67700D01*
X46395Y67721D01*
X46513Y67800D01*
X46591Y67918D01*
X46619Y68057D01*
Y68550D01*
D02*
G37*
G36*
X45637Y69801D02*
Y68750D01*
Y67700D01*
X45745Y67721D01*
X45762Y67732D01*
X45779Y67721D01*
X45887Y67700D01*
Y68750D01*
Y69801D01*
X45779Y69780D01*
X45762Y69768D01*
X45745Y69780D01*
X45637Y69801D01*
D02*
G37*
G36*
X43937Y68550D02*
X43605D01*
Y68057D01*
X43633Y67918D01*
X43711Y67800D01*
X43829Y67721D01*
X43937Y67700D01*
Y68550D01*
D02*
G37*
G36*
X50462Y68061D02*
Y67075D01*
X51448D01*
X51445Y67111D01*
X51376Y67337D01*
X51265Y67545D01*
X51115Y67728D01*
X50932Y67878D01*
X50723Y67989D01*
X50497Y68058D01*
X50462Y68061D01*
D02*
G37*
G36*
X50062Y68061D02*
X50027Y68058D01*
X49800Y67989D01*
X49592Y67878D01*
X49409Y67728D01*
X49259Y67545D01*
X49148Y67337D01*
X49079Y67111D01*
X49076Y67075D01*
X50062D01*
Y68061D01*
D02*
G37*
G36*
X83030Y67324D02*
X82505D01*
X82319Y67287D01*
X82162Y67182D01*
X82057Y67025D01*
X82021Y66840D01*
Y66415D01*
X83030D01*
Y67324D01*
D02*
G37*
G36*
X64560Y62050D02*
X64452Y62029D01*
X64435Y62018D01*
X64418Y62029D01*
X64310Y62050D01*
Y61000D01*
Y59949D01*
X64418Y59970D01*
X64435Y59982D01*
X64452Y59970D01*
X64560Y59949D01*
Y61000D01*
Y62050D01*
D02*
G37*
G36*
X63910Y62050D02*
X63802Y62029D01*
X63785Y62018D01*
X63768Y62029D01*
X63660Y62050D01*
Y61000D01*
Y59949D01*
X63768Y59970D01*
X63785Y59982D01*
X63802Y59970D01*
X63910Y59949D01*
Y61000D01*
Y62050D01*
D02*
G37*
G36*
X59085Y62675D02*
X58099D01*
X58102Y62639D01*
X58171Y62413D01*
X58282Y62205D01*
X58432Y62022D01*
X58615Y61872D01*
X58823Y61761D01*
X59050Y61692D01*
X59085Y61689D01*
Y62675D01*
D02*
G37*
G36*
X60471D02*
X59485D01*
Y61689D01*
X59520Y61692D01*
X59746Y61761D01*
X59955Y61872D01*
X60138Y62022D01*
X60288Y62205D01*
X60399Y62413D01*
X60468Y62639D01*
X60471Y62675D01*
D02*
G37*
G36*
X65610Y62050D02*
Y61200D01*
X65942D01*
Y61693D01*
X65914Y61832D01*
X65836Y61950D01*
X65718Y62029D01*
X65610Y62050D01*
D02*
G37*
G36*
X63260Y62050D02*
X63152Y62029D01*
X63034Y61950D01*
X62956Y61832D01*
X62928Y61693D01*
Y61200D01*
X63260D01*
Y62050D01*
D02*
G37*
G36*
X65942Y60800D02*
X65610D01*
Y59949D01*
X65718Y59970D01*
X65836Y60049D01*
X65914Y60167D01*
X65942Y60306D01*
Y60800D01*
D02*
G37*
G36*
X64960Y62050D02*
Y61000D01*
Y59949D01*
X65068Y59970D01*
X65085Y59982D01*
X65102Y59970D01*
X65210Y59949D01*
Y61000D01*
Y62050D01*
X65102Y62029D01*
X65085Y62018D01*
X65068Y62029D01*
X64960Y62050D01*
D02*
G37*
G36*
X63260Y60800D02*
X62928D01*
Y60306D01*
X62956Y60167D01*
X63034Y60049D01*
X63152Y59970D01*
X63260Y59949D01*
Y60800D01*
D02*
G37*
G36*
X87230Y60835D02*
X86221D01*
Y60410D01*
X86257Y60225D01*
X86362Y60068D01*
X86519Y59963D01*
X86705Y59926D01*
X87230D01*
Y60835D01*
D02*
G37*
G36*
X86425Y59638D02*
X86302Y59613D01*
X86192Y59540D01*
X86119Y59430D01*
X86094Y59301D01*
Y59282D01*
X86425D01*
Y59638D01*
D02*
G37*
G36*
X85412Y59783D02*
X85250D01*
Y59225D01*
X85808D01*
Y59388D01*
X85778Y59539D01*
X85692Y59667D01*
X85564Y59753D01*
X85412Y59783D01*
D02*
G37*
G36*
X86425Y58782D02*
X86094D01*
Y58764D01*
X86119Y58634D01*
X86192Y58525D01*
X86302Y58452D01*
X86425Y58427D01*
Y58782D01*
D02*
G37*
G36*
X85808Y58725D02*
X85250D01*
Y58167D01*
X85412D01*
X85564Y58197D01*
X85692Y58283D01*
X85778Y58411D01*
X85808Y58562D01*
Y58725D01*
D02*
G37*
G36*
X45255Y58775D02*
X45147Y58753D01*
X45130Y58742D01*
X45113Y58753D01*
X45005Y58775D01*
Y57724D01*
Y56673D01*
X45113Y56695D01*
X45130Y56706D01*
X45147Y56695D01*
X45255Y56673D01*
Y57724D01*
Y58775D01*
D02*
G37*
G36*
X44605D02*
X44497Y58753D01*
X44480Y58742D01*
X44463Y58753D01*
X44355Y58775D01*
Y57724D01*
Y56673D01*
X44463Y56695D01*
X44480Y56706D01*
X44497Y56695D01*
X44605Y56673D01*
Y57724D01*
Y58775D01*
D02*
G37*
G36*
X46305Y58775D02*
Y57924D01*
X46637D01*
Y58418D01*
X46610Y58557D01*
X46531Y58675D01*
X46413Y58753D01*
X46305Y58775D01*
D02*
G37*
G36*
X43955D02*
X43847Y58753D01*
X43730Y58675D01*
X43651Y58557D01*
X43623Y58418D01*
Y57924D01*
X43955D01*
Y58775D01*
D02*
G37*
G36*
X46637Y57524D02*
X46305D01*
Y56673D01*
X46413Y56695D01*
X46531Y56773D01*
X46610Y56891D01*
X46637Y57030D01*
Y57524D01*
D02*
G37*
G36*
X45655Y58775D02*
Y57724D01*
Y56673D01*
X45763Y56695D01*
X45780Y56706D01*
X45797Y56695D01*
X45905Y56673D01*
Y57724D01*
Y58775D01*
X45797Y58753D01*
X45780Y58742D01*
X45763Y58753D01*
X45655Y58775D01*
D02*
G37*
G36*
X43955Y57524D02*
X43623D01*
Y57030D01*
X43651Y56891D01*
X43730Y56773D01*
X43847Y56695D01*
X43955Y56673D01*
Y57524D01*
D02*
G37*
G36*
X50480Y57035D02*
Y56049D01*
X51466D01*
X51463Y56084D01*
X51394Y56310D01*
X51283Y56519D01*
X51133Y56702D01*
X50950Y56852D01*
X50742Y56963D01*
X50515Y57032D01*
X50480Y57035D01*
D02*
G37*
G36*
X50080Y57035D02*
X50045Y57032D01*
X49819Y56963D01*
X49610Y56852D01*
X49428Y56702D01*
X49278Y56519D01*
X49166Y56310D01*
X49098Y56084D01*
X49094Y56049D01*
X50080D01*
Y57035D01*
D02*
G37*
G36*
X63755Y51050D02*
X63647Y51028D01*
X63630Y51017D01*
X63613Y51028D01*
X63505Y51050D01*
Y49999D01*
Y48948D01*
X63613Y48970D01*
X63630Y48981D01*
X63647Y48970D01*
X63755Y48948D01*
Y49999D01*
Y51050D01*
D02*
G37*
G36*
X59080Y51674D02*
X58094D01*
X58098Y51639D01*
X58166Y51412D01*
X58278Y51204D01*
X58428Y51021D01*
X58610Y50871D01*
X58819Y50760D01*
X59045Y50691D01*
X59080Y50688D01*
Y51674D01*
D02*
G37*
G36*
X60466D02*
X59480D01*
Y50688D01*
X59515Y50691D01*
X59742Y50760D01*
X59950Y50871D01*
X60133Y51021D01*
X60283Y51204D01*
X60394Y51412D01*
X60463Y51639D01*
X60466Y51674D01*
D02*
G37*
G36*
X65455Y51050D02*
Y50199D01*
X65787D01*
Y50693D01*
X65760Y50832D01*
X65681Y50950D01*
X65563Y51028D01*
X65455Y51050D01*
D02*
G37*
G36*
X63105D02*
X62997Y51028D01*
X62880Y50950D01*
X62801Y50832D01*
X62773Y50693D01*
Y50199D01*
X63105D01*
Y51050D01*
D02*
G37*
G36*
X64155D02*
Y49999D01*
Y48948D01*
X64263Y48970D01*
X64280Y48981D01*
X64297Y48970D01*
X64405Y48948D01*
Y49999D01*
Y51050D01*
X64297Y51028D01*
X64280Y51017D01*
X64263Y51028D01*
X64155Y51050D01*
D02*
G37*
G36*
X65787Y49799D02*
X65455D01*
Y48948D01*
X65563Y48970D01*
X65681Y49048D01*
X65760Y49166D01*
X65787Y49305D01*
Y49799D01*
D02*
G37*
G36*
X64805Y51050D02*
Y49999D01*
Y48948D01*
X64913Y48970D01*
X64930Y48981D01*
X64947Y48970D01*
X65055Y48948D01*
Y49999D01*
Y51050D01*
X64947Y51028D01*
X64930Y51017D01*
X64913Y51028D01*
X64805Y51050D01*
D02*
G37*
G36*
X63105Y49799D02*
X62773D01*
Y49305D01*
X62801Y49166D01*
X62880Y49048D01*
X62997Y48970D01*
X63105Y48948D01*
Y49799D01*
D02*
G37*
G36*
X44605Y47800D02*
X44497Y47778D01*
X44480Y47767D01*
X44463Y47778D01*
X44355Y47800D01*
Y46749D01*
Y45698D01*
X44463Y45720D01*
X44480Y45731D01*
X44497Y45720D01*
X44605Y45698D01*
Y46749D01*
Y47800D01*
D02*
G37*
G36*
X45905Y47800D02*
X45797Y47778D01*
X45780Y47767D01*
X45763Y47778D01*
X45655Y47800D01*
Y46749D01*
Y45698D01*
X45763Y45720D01*
X45780Y45731D01*
X45797Y45720D01*
X45905Y45698D01*
Y46749D01*
Y47800D01*
D02*
G37*
G36*
X46305D02*
Y46949D01*
X46637D01*
Y47443D01*
X46610Y47582D01*
X46531Y47700D01*
X46413Y47778D01*
X46305Y47800D01*
D02*
G37*
G36*
X43955D02*
X43847Y47778D01*
X43730Y47700D01*
X43651Y47582D01*
X43623Y47443D01*
Y46949D01*
X43955D01*
Y47800D01*
D02*
G37*
G36*
X46637Y46549D02*
X46305D01*
Y45698D01*
X46413Y45720D01*
X46531Y45798D01*
X46610Y45916D01*
X46637Y46055D01*
Y46549D01*
D02*
G37*
G36*
X43955D02*
X43623D01*
Y46055D01*
X43651Y45916D01*
X43730Y45798D01*
X43847Y45720D01*
X43955Y45698D01*
Y46549D01*
D02*
G37*
G36*
X45005Y47800D02*
Y46749D01*
Y45698D01*
X45113Y45720D01*
X45130Y45731D01*
X45147Y45720D01*
X45255Y45698D01*
Y46749D01*
Y47800D01*
X45147Y47778D01*
X45130Y47767D01*
X45113Y47778D01*
X45005Y47800D01*
D02*
G37*
G36*
X50480Y46054D02*
Y45067D01*
X51466D01*
X51463Y45103D01*
X51394Y45329D01*
X51283Y45537D01*
X51133Y45720D01*
X50950Y45870D01*
X50742Y45981D01*
X50515Y46050D01*
X50480Y46054D01*
D02*
G37*
G36*
X50080Y46054D02*
X50045Y46050D01*
X49819Y45981D01*
X49610Y45870D01*
X49428Y45720D01*
X49278Y45537D01*
X49166Y45329D01*
X49098Y45103D01*
X49094Y45067D01*
X50080D01*
Y46054D01*
D02*
G37*
G36*
X63770Y40043D02*
X63662Y40021D01*
X63645Y40010D01*
X63627Y40021D01*
X63520Y40043D01*
Y38992D01*
Y37941D01*
X63627Y37963D01*
X63645Y37974D01*
X63662Y37963D01*
X63770Y37941D01*
Y38992D01*
Y40043D01*
D02*
G37*
G36*
X65070Y40043D02*
X64962Y40021D01*
X64945Y40010D01*
X64927Y40021D01*
X64820Y40043D01*
Y38992D01*
Y37941D01*
X64927Y37963D01*
X64945Y37974D01*
X64962Y37963D01*
X65070Y37941D01*
Y38992D01*
Y40043D01*
D02*
G37*
G36*
X59081Y40667D02*
X58095D01*
X58099Y40632D01*
X58167Y40406D01*
X58279Y40197D01*
X58429Y40015D01*
X58611Y39865D01*
X58820Y39753D01*
X59046Y39685D01*
X59081Y39681D01*
Y40667D01*
D02*
G37*
G36*
X60467D02*
X59481D01*
Y39681D01*
X59517Y39685D01*
X59743Y39753D01*
X59951Y39865D01*
X60134Y40015D01*
X60284Y40197D01*
X60395Y40406D01*
X60464Y40632D01*
X60467Y40667D01*
D02*
G37*
G36*
X65470Y40043D02*
Y39192D01*
X65801D01*
Y39686D01*
X65774Y39825D01*
X65695Y39943D01*
X65577Y40021D01*
X65470Y40043D01*
D02*
G37*
G36*
X63120Y40043D02*
X63012Y40021D01*
X62894Y39943D01*
X62815Y39825D01*
X62788Y39686D01*
Y39192D01*
X63120D01*
Y40043D01*
D02*
G37*
G36*
X65801Y38792D02*
X65470D01*
Y37941D01*
X65577Y37963D01*
X65695Y38041D01*
X65774Y38159D01*
X65801Y38298D01*
Y38792D01*
D02*
G37*
G36*
X63120D02*
X62788D01*
Y38298D01*
X62815Y38159D01*
X62894Y38041D01*
X63012Y37963D01*
X63120Y37941D01*
Y38792D01*
D02*
G37*
G36*
X64170Y40043D02*
Y38992D01*
Y37941D01*
X64277Y37963D01*
X64295Y37974D01*
X64312Y37963D01*
X64420Y37941D01*
Y38992D01*
Y40043D01*
X64312Y40021D01*
X64295Y40010D01*
X64277Y40021D01*
X64170Y40043D01*
D02*
G37*
G36*
X44607Y36801D02*
X44499Y36779D01*
X44482Y36768D01*
X44465Y36779D01*
X44357Y36801D01*
Y35750D01*
Y34699D01*
X44465Y34721D01*
X44482Y34732D01*
X44499Y34721D01*
X44607Y34699D01*
Y35750D01*
Y36801D01*
D02*
G37*
G36*
X45907D02*
X45799Y36779D01*
X45782Y36768D01*
X45765Y36779D01*
X45657Y36801D01*
Y35750D01*
Y34699D01*
X45765Y34721D01*
X45782Y34732D01*
X45799Y34721D01*
X45907Y34699D01*
Y35750D01*
Y36801D01*
D02*
G37*
G36*
X46307D02*
Y35950D01*
X46639D01*
Y36444D01*
X46611Y36583D01*
X46533Y36701D01*
X46415Y36779D01*
X46307Y36801D01*
D02*
G37*
G36*
X43957D02*
X43849Y36779D01*
X43731Y36701D01*
X43653Y36583D01*
X43625Y36444D01*
Y35950D01*
X43957D01*
Y36801D01*
D02*
G37*
G36*
X46639Y35550D02*
X46307D01*
Y34699D01*
X46415Y34721D01*
X46533Y34799D01*
X46611Y34917D01*
X46639Y35056D01*
Y35550D01*
D02*
G37*
G36*
X43957D02*
X43625D01*
Y35056D01*
X43653Y34917D01*
X43731Y34799D01*
X43849Y34721D01*
X43957Y34699D01*
Y35550D01*
D02*
G37*
G36*
X45007Y36801D02*
Y35750D01*
Y34699D01*
X45115Y34721D01*
X45132Y34732D01*
X45149Y34721D01*
X45257Y34699D01*
Y35750D01*
Y36801D01*
X45149Y36779D01*
X45132Y36768D01*
X45115Y36779D01*
X45007Y36801D01*
D02*
G37*
G36*
X50475Y35061D02*
Y34075D01*
X51461D01*
X51458Y34110D01*
X51389Y34336D01*
X51278Y34545D01*
X51128Y34728D01*
X50945Y34878D01*
X50736Y34989D01*
X50510Y35058D01*
X50475Y35061D01*
D02*
G37*
G36*
X50075Y35061D02*
X50040Y35058D01*
X49814Y34989D01*
X49605Y34878D01*
X49422Y34728D01*
X49272Y34545D01*
X49161Y34336D01*
X49092Y34110D01*
X49089Y34075D01*
X50075D01*
Y35061D01*
D02*
G37*
G36*
X103607Y32619D02*
X102670D01*
Y31760D01*
X104079D01*
Y32148D01*
X104043Y32328D01*
X103941Y32481D01*
X103788Y32583D01*
X103607Y32619D01*
D02*
G37*
G36*
X102170D02*
X101232D01*
X101052Y32583D01*
X100899Y32481D01*
X100796Y32328D01*
X100761Y32148D01*
Y31760D01*
X102170D01*
Y32619D01*
D02*
G37*
G36*
X64475Y29025D02*
X64367Y29004D01*
X64350Y28992D01*
X64333Y29004D01*
X64225Y29025D01*
Y27975D01*
Y26924D01*
X64333Y26945D01*
X64350Y26957D01*
X64367Y26945D01*
X64475Y26924D01*
Y27975D01*
Y29025D01*
D02*
G37*
G36*
X63825Y29025D02*
X63717Y29004D01*
X63700Y28992D01*
X63683Y29004D01*
X63575Y29025D01*
Y27975D01*
Y26924D01*
X63683Y26945D01*
X63700Y26957D01*
X63717Y26945D01*
X63825Y26924D01*
Y27975D01*
Y29025D01*
D02*
G37*
G36*
X60461Y29650D02*
X59475D01*
Y28664D01*
X59510Y28667D01*
X59736Y28736D01*
X59945Y28847D01*
X60128Y28997D01*
X60278Y29180D01*
X60389Y29389D01*
X60458Y29615D01*
X60461Y29650D01*
D02*
G37*
G36*
X59075D02*
X58089D01*
X58092Y29615D01*
X58161Y29389D01*
X58272Y29180D01*
X58422Y28997D01*
X58605Y28847D01*
X58814Y28736D01*
X59040Y28667D01*
X59075Y28664D01*
Y29650D01*
D02*
G37*
G36*
X65525Y29025D02*
Y28175D01*
X65857D01*
Y28668D01*
X65829Y28807D01*
X65751Y28925D01*
X65633Y29004D01*
X65525Y29025D01*
D02*
G37*
G36*
X63175Y29025D02*
X63067Y29004D01*
X62949Y28925D01*
X62871Y28807D01*
X62843Y28668D01*
Y28175D01*
X63175D01*
Y29025D01*
D02*
G37*
G36*
X64875Y29025D02*
Y27975D01*
Y26924D01*
X64983Y26945D01*
X65000Y26957D01*
X65017Y26945D01*
X65125Y26924D01*
Y27975D01*
Y29025D01*
X65017Y29004D01*
X65000Y28992D01*
X64983Y29004D01*
X64875Y29025D01*
D02*
G37*
G36*
X63175Y27775D02*
X62843D01*
Y27281D01*
X62871Y27142D01*
X62949Y27024D01*
X63067Y26945D01*
X63175Y26924D01*
Y27775D01*
D02*
G37*
G36*
X65857D02*
X65525D01*
Y26924D01*
X65633Y26945D01*
X65751Y27024D01*
X65829Y27142D01*
X65857Y27281D01*
Y27775D01*
D02*
G37*
G36*
X104079Y28260D02*
X102670D01*
Y27401D01*
X103607D01*
X103788Y27437D01*
X103941Y27539D01*
X104043Y27692D01*
X104079Y27873D01*
Y28260D01*
D02*
G37*
G36*
X102170D02*
X100761D01*
Y27873D01*
X100796Y27692D01*
X100899Y27539D01*
X101052Y27437D01*
X101232Y27401D01*
X102170D01*
Y28260D01*
D02*
G37*
G36*
X45268Y25772D02*
X45161Y25751D01*
X45143Y25740D01*
X45126Y25751D01*
X45018Y25772D01*
Y24722D01*
Y23671D01*
X45126Y23692D01*
X45143Y23704D01*
X45161Y23692D01*
X45268Y23671D01*
Y24722D01*
Y25772D01*
D02*
G37*
G36*
X44618D02*
X44511Y25751D01*
X44493Y25740D01*
X44476Y25751D01*
X44368Y25772D01*
Y24722D01*
Y23671D01*
X44476Y23692D01*
X44493Y23704D01*
X44511Y23692D01*
X44618Y23671D01*
Y24722D01*
Y25772D01*
D02*
G37*
G36*
X46318Y25772D02*
Y24922D01*
X46650D01*
Y25415D01*
X46623Y25554D01*
X46544Y25672D01*
X46426Y25751D01*
X46318Y25772D01*
D02*
G37*
G36*
X43968D02*
X43861Y25751D01*
X43743Y25672D01*
X43664Y25554D01*
X43636Y25415D01*
Y24922D01*
X43968D01*
Y25772D01*
D02*
G37*
G36*
X46650Y24522D02*
X46318D01*
Y23671D01*
X46426Y23692D01*
X46544Y23771D01*
X46623Y23889D01*
X46650Y24028D01*
Y24522D01*
D02*
G37*
G36*
X45668Y25772D02*
Y24722D01*
Y23671D01*
X45776Y23692D01*
X45793Y23704D01*
X45811Y23692D01*
X45918Y23671D01*
Y24722D01*
Y25772D01*
X45811Y25751D01*
X45793Y25740D01*
X45776Y25751D01*
X45668Y25772D01*
D02*
G37*
G36*
X43968Y24522D02*
X43636D01*
Y24028D01*
X43664Y23889D01*
X43743Y23771D01*
X43861Y23692D01*
X43968Y23671D01*
Y24522D01*
D02*
G37*
G36*
X50468Y24033D02*
Y23047D01*
X51455D01*
X51451Y23082D01*
X51382Y23308D01*
X51271Y23517D01*
X51121Y23699D01*
X50938Y23849D01*
X50730Y23961D01*
X50504Y24029D01*
X50468Y24033D01*
D02*
G37*
G36*
X50068Y24033D02*
X50033Y24029D01*
X49807Y23961D01*
X49599Y23849D01*
X49416Y23699D01*
X49266Y23517D01*
X49154Y23308D01*
X49086Y23082D01*
X49082Y23047D01*
X50068D01*
Y24033D01*
D02*
G37*
G36*
X59075Y18647D02*
X58089D01*
X58092Y18611D01*
X58161Y18385D01*
X58272Y18177D01*
X58422Y17994D01*
X58605Y17844D01*
X58814Y17733D01*
X59040Y17664D01*
X59075Y17661D01*
Y18647D01*
D02*
G37*
G36*
X60461D02*
X59475D01*
Y17661D01*
X59510Y17664D01*
X59736Y17733D01*
X59945Y17844D01*
X60128Y17994D01*
X60278Y18177D01*
X60389Y18385D01*
X60458Y18611D01*
X60461Y18647D01*
D02*
G37*
G36*
X65525Y18022D02*
Y17172D01*
X65857D01*
Y17665D01*
X65829Y17804D01*
X65751Y17922D01*
X65633Y18001D01*
X65525Y18022D01*
D02*
G37*
G36*
X63175Y18022D02*
X63067Y18001D01*
X62949Y17922D01*
X62871Y17804D01*
X62843Y17665D01*
Y17172D01*
X63175D01*
Y18022D01*
D02*
G37*
G36*
X63575Y18022D02*
Y16972D01*
Y15921D01*
X63683Y15942D01*
X63700Y15954D01*
X63717Y15942D01*
X63825Y15921D01*
Y16972D01*
Y18022D01*
X63717Y18001D01*
X63700Y17989D01*
X63683Y18001D01*
X63575Y18022D01*
D02*
G37*
G36*
X64875Y18022D02*
Y16972D01*
Y15921D01*
X64983Y15942D01*
X65000Y15954D01*
X65017Y15942D01*
X65125Y15921D01*
Y16972D01*
X65325D01*
D01*
X65125D01*
Y18022D01*
X65017Y18001D01*
X65000Y17989D01*
X64983Y18001D01*
X64875Y18022D01*
D02*
G37*
G36*
X63175Y16772D02*
X62843D01*
Y16278D01*
X62871Y16139D01*
X62949Y16021D01*
X63067Y15942D01*
X63175Y15921D01*
Y16772D01*
D02*
G37*
G36*
X64225Y18022D02*
Y16972D01*
Y15921D01*
X64333Y15942D01*
X64350Y15954D01*
X64367Y15942D01*
X64475Y15921D01*
Y16972D01*
Y18022D01*
X64367Y18001D01*
X64350Y17989D01*
X64333Y18001D01*
X64225Y18022D01*
D02*
G37*
G36*
X65857Y16772D02*
X65525D01*
Y15921D01*
X65633Y15942D01*
X65751Y16021D01*
X65829Y16139D01*
X65857Y16278D01*
Y16772D01*
D02*
G37*
G36*
X11147Y10215D02*
X10953D01*
Y9733D01*
X11561D01*
Y9801D01*
X11529Y9960D01*
X11439Y10094D01*
X11305Y10184D01*
X11147Y10215D01*
D02*
G37*
G36*
X10153D02*
X9959D01*
X9801Y10184D01*
X9666Y10094D01*
X9576Y9960D01*
X9545Y9801D01*
Y9733D01*
X10153D01*
Y10215D01*
D02*
G37*
G36*
X13556Y10208D02*
X13350D01*
Y9675D01*
X13983D01*
Y9781D01*
X13951Y9945D01*
X13858Y10083D01*
X13720Y10176D01*
X13556Y10208D01*
D02*
G37*
G36*
X12550D02*
X12344D01*
X12180Y10176D01*
X12042Y10083D01*
X11949Y9945D01*
X11917Y9781D01*
Y9675D01*
X12550D01*
Y10208D01*
D02*
G37*
G36*
X129470Y7558D02*
Y7095D01*
X129932D01*
X129900Y7174D01*
X129747Y7373D01*
X129549Y7525D01*
X129470Y7558D01*
D02*
G37*
G36*
X128670Y7558D02*
X128591Y7525D01*
X128392Y7373D01*
X128240Y7174D01*
X128207Y7095D01*
X128670D01*
Y7558D01*
D02*
G37*
G36*
X132982Y6900D02*
X132225D01*
Y6418D01*
X132606D01*
X132750Y6446D01*
X132872Y6528D01*
X132954Y6650D01*
X132982Y6794D01*
Y6900D01*
D02*
G37*
G36*
X131425D02*
X130668D01*
Y6794D01*
X130696Y6650D01*
X130778Y6528D01*
X130900Y6446D01*
X131044Y6418D01*
X131425D01*
Y6900D01*
D02*
G37*
G36*
X132288Y6257D02*
X132275D01*
Y5900D01*
X132632D01*
Y5912D01*
X132605Y6044D01*
X132531Y6156D01*
X132419Y6230D01*
X132288Y6257D01*
D02*
G37*
G36*
X131475D02*
X131462D01*
X131331Y6230D01*
X131219Y6156D01*
X131145Y6044D01*
X131118Y5912D01*
Y5900D01*
X131475D01*
Y6257D01*
D02*
G37*
G36*
X129932Y6295D02*
X129470D01*
Y5832D01*
X129549Y5865D01*
X129747Y6017D01*
X129900Y6216D01*
X129932Y6295D01*
D02*
G37*
G36*
X128670D02*
X128207D01*
X128240Y6216D01*
X128392Y6017D01*
X128591Y5865D01*
X128670Y5832D01*
Y6295D01*
D02*
G37*
%LPD*%
D10*
X73238Y91200D02*
X73575Y90863D01*
X71550Y91200D02*
X73238D01*
X71014Y91736D02*
X71550Y91200D01*
X68314Y91264D02*
X68614Y91564D01*
X68314Y90032D02*
Y91264D01*
X67157Y88875D02*
X68314Y90032D01*
X100825Y95275D02*
X101114Y94986D01*
Y94257D02*
Y94986D01*
X101014Y94157D02*
X101114Y94257D01*
X101014Y93057D02*
Y94157D01*
X84414Y55612D02*
X84900D01*
X84165Y55862D02*
X84414Y55612D01*
X101514Y94964D02*
X101825Y95275D01*
X101614Y93057D02*
Y94157D01*
X101514Y94257D02*
Y94964D01*
Y94257D02*
X101614Y94157D01*
X84566Y57262D02*
X84900D01*
X84165Y56862D02*
X84566Y57262D01*
X76300Y89900D02*
X76950D01*
X78214Y91164D01*
X69272Y72297D02*
X69819Y71750D01*
X71000D01*
Y71781D01*
X71700Y72481D01*
Y73050D01*
X71314Y73436D02*
X71700Y73050D01*
X86650Y47550D02*
X86950Y47850D01*
X77175Y91113D02*
X77614Y91552D01*
X65975Y88366D02*
X66350Y88741D01*
Y90850D01*
X67364Y91864D01*
X65650Y89483D02*
Y90825D01*
X85910Y56028D02*
X86094Y56212D01*
X85810Y55612D02*
X85910Y55712D01*
Y56028D01*
X93684Y61387D02*
X93960D01*
X94010Y61337D02*
X94585D01*
X90200Y61800D02*
X93271D01*
X93684Y61387D01*
X93960D02*
X94010Y61337D01*
X89754Y61354D02*
X90200Y61800D01*
X89754Y60384D02*
Y61354D01*
X85810Y57262D02*
X85910Y57162D01*
Y56796D02*
X86094Y56612D01*
X85910Y56796D02*
Y57162D01*
X93960Y61787D02*
X94010Y61837D01*
X94585D01*
X90034Y62200D02*
X93437D01*
X93850Y61787D02*
X93960D01*
X93437Y62200D02*
X93850Y61787D01*
X89354Y61519D02*
X90034Y62200D01*
X89354Y60550D02*
Y61519D01*
X86094Y56212D02*
X87181D01*
X86094Y56612D02*
X87015D01*
X87181Y56212D02*
X88975Y58006D01*
X87015Y56612D02*
X88575Y58171D01*
X88975Y58006D02*
Y59606D01*
X89754Y60384D01*
X88575Y58171D02*
Y59771D01*
X89354Y60550D01*
X88760Y66165D02*
X89225Y65700D01*
Y63450D02*
Y65700D01*
Y63450D02*
X89838Y62837D01*
X87480Y66165D02*
X88760D01*
X89838Y62837D02*
X94585D01*
X94010Y59837D02*
X94585D01*
X93960Y59887D02*
X94010Y59837D01*
X90562Y59887D02*
X93960D01*
X94010Y60337D02*
X94585D01*
X93960Y60287D02*
X94010Y60337D01*
X90396Y60287D02*
X93960D01*
X89914Y57780D02*
Y59239D01*
X90562Y59887D01*
X86250Y47250D02*
Y47550D01*
X85275Y53141D02*
X89914Y57780D01*
X85950Y47850D02*
X86250Y47550D01*
X86050Y47050D02*
X86250Y47250D01*
X85525Y47050D02*
X86050D01*
X85275Y47300D02*
Y53141D01*
Y47300D02*
X85525Y47050D01*
X89514Y57946D02*
Y59405D01*
X90396Y60287D01*
X86650Y47084D02*
Y47550D01*
X84875Y53307D02*
X89514Y57946D01*
X86216Y46650D02*
X86650Y47084D01*
X85359Y46650D02*
X86216D01*
X84875Y47134D02*
Y53307D01*
Y47134D02*
X85359Y46650D01*
X104654Y56412D02*
X105163D01*
X93663Y63837D02*
X94585D01*
X92837Y64663D02*
X93663Y63837D01*
X92122Y64663D02*
X92837D01*
X94700Y47625D02*
X94700Y47625D01*
X94700Y47625D02*
Y49225D01*
X104229Y56837D02*
X104654Y56412D01*
X103585Y56837D02*
X104229D01*
X116325Y62575D02*
X116332Y62582D01*
X81110Y28204D02*
Y28775D01*
X80680Y27934D02*
Y28775D01*
X79544Y26900D02*
Y27313D01*
X79820Y27590D01*
Y28775D01*
X80250Y27657D02*
Y28775D01*
Y27657D02*
X80568Y27340D01*
Y26900D02*
Y27340D01*
X81595Y26900D02*
Y27305D01*
X80680Y27934D02*
X81114Y27500D01*
X81400D01*
X81595Y27305D01*
X81110Y28204D02*
X81464Y27850D01*
X82614Y26900D02*
Y27300D01*
X81540Y28435D02*
Y28775D01*
Y28435D02*
X81771Y28204D01*
X82596D01*
X83629Y27171D01*
Y26900D02*
Y27171D01*
X81464Y27850D02*
X82064D01*
X82614Y27300D01*
X78524Y26900D02*
Y27359D01*
X78665Y27500D01*
X79000D01*
X79390Y27890D01*
Y28775D01*
X78960Y28060D02*
Y28775D01*
X78750Y27850D02*
X78960Y28060D01*
X78074Y27850D02*
X78750D01*
X77474Y27250D02*
X78074Y27850D01*
X77474Y26900D02*
Y27250D01*
X78530Y28365D02*
Y28775D01*
X78369Y28204D02*
X78530Y28365D01*
X76467Y27267D02*
X77404Y28204D01*
X78369D01*
X76467Y26870D02*
Y26875D01*
Y27267D01*
X81505Y29350D02*
X81900D01*
X81975Y29275D01*
Y28875D02*
Y29275D01*
X81875Y28775D02*
X81975Y28875D01*
X81540Y28775D02*
X81875D01*
X81505Y29780D02*
X82145D01*
X82575Y29350D01*
X83400D01*
X81505Y30210D02*
X81979D01*
X81505Y30640D02*
X81840D01*
X82650Y31450D01*
X83400D01*
X81110Y31215D02*
Y31760D01*
X81350Y32000D01*
X81664D01*
X82370Y32706D01*
Y33100D01*
X142550Y39275D02*
X144175Y37650D01*
X140950Y39275D02*
X142550D01*
X137167Y38443D02*
Y48549D01*
X137171Y48552D01*
X104614Y93057D02*
Y96025D01*
X104595Y96044D02*
X104614Y96025D01*
X103481Y96044D02*
X104595D01*
X103475Y96050D02*
X103481Y96044D01*
X71014Y91736D02*
Y93057D01*
X68614Y91564D02*
Y93057D01*
X67364Y91864D02*
Y93057D01*
X66814Y91989D02*
Y93057D01*
X65650Y90825D02*
X66814Y91989D01*
X65614Y91496D02*
Y93057D01*
X64950Y90832D02*
X65614Y91496D01*
X65014Y91654D02*
Y93057D01*
X64275Y90914D02*
X65014Y91654D01*
X77614Y91552D02*
Y93057D01*
X78214Y91164D02*
Y93057D01*
X71314Y73436D02*
Y84857D01*
X64275Y88300D02*
Y90914D01*
X64950Y87425D02*
Y90832D01*
X90700Y57225D02*
X91475D01*
X90417Y57508D02*
X90417D01*
X90534Y57625D01*
X91309D01*
X91475Y57225D02*
X92302Y58052D01*
X91309Y57625D02*
X92137Y58452D01*
X93276Y58212D02*
X93451Y58387D01*
X93110Y58612D02*
X93285Y58787D01*
X92814Y58452D02*
X92973Y58612D01*
X93110D01*
X92980Y58052D02*
X93139Y58212D01*
X93276D01*
X92137Y58452D02*
X92814D01*
X92302Y58052D02*
X92980D01*
X86216Y51650D02*
X86516Y51950D01*
Y52816D01*
X89720Y56020D01*
Y56810D01*
X93285Y58787D02*
X93960D01*
X94010Y58837D01*
X94585D01*
X86916Y51950D02*
X87216Y51650D01*
X86916Y51950D02*
Y52650D01*
X90120Y55854D01*
Y56645D02*
X90700Y57225D01*
X90120Y55854D02*
Y56645D01*
X93451Y58387D02*
X93960D01*
X94010Y58337D02*
X94585D01*
X93960Y58387D02*
X94010Y58337D01*
X89720Y56810D02*
X90417Y57508D01*
X79820Y31215D02*
Y32185D01*
X79270Y32735D02*
Y33100D01*
Y32735D02*
X79820Y32185D01*
D11*
X131825Y11732D02*
X131825Y11732D01*
Y10500D02*
Y11732D01*
X111457Y64220D02*
X111600Y64363D01*
X90340Y64691D02*
X90368Y64663D01*
X91122D01*
X63540Y94905D02*
Y95675D01*
X94043Y54557D02*
X94809D01*
X93020Y53975D02*
Y54725D01*
X80555Y54725D02*
X81650D01*
X81425Y53700D02*
X81650Y53475D01*
X80555Y53700D02*
X81425D01*
X81638Y55725D02*
X81650Y55737D01*
X99444Y48140D02*
Y49190D01*
X128835Y48280D02*
X128847Y48292D01*
Y49075D01*
X130045Y48280D02*
X130050Y48275D01*
X130045Y48280D02*
Y49057D01*
X126097Y50825D02*
Y51730D01*
Y52755D02*
Y53650D01*
X131580Y50795D02*
X131600Y50775D01*
X83432Y34125D02*
Y34850D01*
X82370Y34844D02*
X82376Y34850D01*
X84430Y30400D02*
X85150D01*
X102140Y66639D02*
Y67222D01*
X87700Y58275D02*
Y59032D01*
X83400Y57984D02*
X83412Y57972D01*
X83400Y57984D02*
Y58975D01*
X90815Y58254D02*
Y59052D01*
X92152Y61095D02*
X92888D01*
X91840Y59052D02*
X92565D01*
X90975Y56490D02*
X90980Y56485D01*
X106885Y56412D02*
X106890Y56407D01*
X106163Y56412D02*
X106885D01*
X95445Y48250D02*
X95645Y48450D01*
Y49210D01*
X93755Y48450D02*
X93955Y48250D01*
X93755Y48450D02*
Y49215D01*
X95445Y51300D02*
X95645Y51100D01*
Y50235D02*
Y51100D01*
X94470Y50845D02*
Y51475D01*
Y50845D02*
X94700Y50615D01*
Y50225D02*
Y50615D01*
X93475Y50900D02*
Y51300D01*
Y50900D02*
X93755Y50620D01*
Y50240D02*
Y50620D01*
X120045Y63600D02*
X120052Y63607D01*
X119269Y63600D02*
X120045D01*
X120051Y62600D02*
X120052Y62600D01*
X119274Y62600D02*
X120051D01*
X120036Y61579D02*
X120052Y61595D01*
X119299Y61579D02*
X120036D01*
X97197Y66459D02*
X97210Y66446D01*
X103165Y66439D02*
X104006D01*
X102140Y67222D02*
X102168Y67250D01*
X100135Y67225D02*
X100135Y67225D01*
Y66448D02*
Y67225D01*
X99237Y67225D02*
X99250Y67212D01*
Y66442D02*
Y67212D01*
X98225Y67190D02*
X98235Y67200D01*
X98225Y66442D02*
Y67190D01*
X95390Y66446D02*
X96185D01*
X92115Y65757D02*
X92915D01*
X90340D02*
X91090D01*
X90365Y63566D02*
X90368Y63569D01*
X91115D01*
X92140D02*
X92940D01*
X100448Y53757D02*
X101206D01*
X90402Y61095D02*
X91127D01*
X90980Y55750D02*
Y56485D01*
Y53975D02*
Y54725D01*
X93020Y55750D02*
X93815D01*
X92021Y53988D02*
X92040Y53969D01*
X92021Y53988D02*
Y54737D01*
X94040Y53532D02*
X94809D01*
X59825Y94901D02*
Y95675D01*
X58800Y94901D02*
Y95700D01*
X83455Y48255D02*
Y49225D01*
Y50250D02*
Y51275D01*
X80580Y65230D02*
X81638D01*
X78425D02*
X79555D01*
X78425Y64230D02*
X79550D01*
X81595D02*
X81650Y64175D01*
X80575Y64230D02*
X81595D01*
X81259Y62771D02*
X81638Y63150D01*
X80575Y62771D02*
X81259D01*
X81443Y61780D02*
X81638Y61975D01*
X80575Y61780D02*
X81443D01*
X80564Y58740D02*
X81650D01*
X78450D02*
X79539D01*
X81425Y56750D02*
X81650Y56975D01*
X80555Y56750D02*
X81425D01*
X80555Y55725D02*
X81638D01*
X111574Y62974D02*
X111575Y62975D01*
X110512Y62974D02*
X111574D01*
X108626D02*
X109487D01*
X111574Y61976D02*
X111575Y61975D01*
X110513Y61976D02*
X111574D01*
X108412Y61975D02*
X108413Y61976D01*
X109488D01*
X108412Y58720D02*
X109450D01*
X110475D02*
X111575D01*
X108400Y56975D02*
X108655Y56720D01*
X109425D01*
X108400Y54732D02*
X108412Y54720D01*
X109425D01*
X108400Y55735D02*
X108415Y55720D01*
X109425D01*
X109413Y54732D02*
X109425Y54720D01*
X110450D02*
X111575D01*
X82455Y48250D02*
Y49225D01*
Y50250D02*
Y51275D01*
X89455Y48250D02*
Y49200D01*
X90450Y48250D02*
X90455Y48255D01*
Y49200D01*
X90450Y51290D02*
X90455Y51285D01*
Y50225D02*
Y51285D01*
X89455Y50225D02*
Y51270D01*
X107445Y51270D02*
X107450Y51275D01*
X107445Y50275D02*
Y51270D01*
X106445Y51270D02*
X106450Y51275D01*
X106445Y50275D02*
Y51270D01*
X107445Y48505D02*
X107700Y48250D01*
X107445Y48505D02*
Y49250D01*
X106200Y48275D02*
X106445Y48520D01*
Y49250D01*
X87919Y37838D02*
X87924Y37843D01*
Y38563D01*
X91184Y39401D02*
Y40176D01*
X94390Y37787D02*
Y38537D01*
X98040Y53769D02*
X98054Y53782D01*
X98835D01*
X110680Y39300D02*
X110680Y39300D01*
X110680Y39300D02*
Y40050D01*
X107376Y37700D02*
Y38475D01*
X104119Y39307D02*
X104124Y39312D01*
Y40063D01*
X97649Y39438D02*
Y40163D01*
X108730Y25600D02*
Y26400D01*
X102430Y25600D02*
Y26450D01*
X96080Y25475D02*
Y26350D01*
X89655Y25500D02*
Y26350D01*
X100445Y48165D02*
Y49190D01*
Y50215D02*
Y51290D01*
X99444Y50215D02*
Y51290D01*
X100849Y37759D02*
X100852Y37757D01*
X100849Y37759D02*
Y38550D01*
X84425Y30395D02*
X84430Y30400D01*
X82675Y30395D02*
X83400D01*
X80300Y33095D02*
X80305Y33100D01*
X83432Y32375D02*
Y33100D01*
X79270Y34125D02*
Y34850D01*
X82370Y34125D02*
Y34844D01*
X138161Y20186D02*
X138969D01*
X138989Y20206D01*
X107253Y57502D02*
X107265Y57491D01*
X107260Y59502D02*
X107265Y59497D01*
X104671Y57502D02*
X105463D01*
X104701Y59510D02*
X105455D01*
X105463Y59502D01*
X103093Y54927D02*
X103093Y54927D01*
X102068Y54927D02*
X102068Y54927D01*
X107259Y58502D02*
X107265Y58509D01*
X104676Y58491D02*
X104687Y58502D01*
X105463D01*
X103093Y54182D02*
Y54927D01*
X102068Y54182D02*
Y54927D01*
X106488Y57502D02*
X107253D01*
X106488Y59502D02*
X107260D01*
X100448Y54782D02*
X101206D01*
X96631Y53508D02*
X96643Y53520D01*
X95830Y53508D02*
X96631D01*
X106488Y58502D02*
X107259D01*
X96602Y54533D02*
X96603Y54532D01*
X95830Y54533D02*
X96602D01*
X124734Y76610D02*
Y76649D01*
X132570Y40075D02*
X133354D01*
X132470Y49970D02*
X133367D01*
X132450Y49950D02*
X132470Y49970D01*
X134392D02*
X135305D01*
X135325Y49950D01*
X131580Y52750D02*
Y53745D01*
X131575Y53750D02*
X131580Y53745D01*
Y50795D02*
Y51725D01*
X34300Y64300D02*
X41100Y71100D01*
X45725D01*
X110450Y64220D02*
X111457D01*
X108608D02*
X109425D01*
X108415Y64413D02*
X108608Y64220D01*
X108400Y63200D02*
X108626Y62974D01*
X132570Y41100D02*
Y41862D01*
X120830Y49420D02*
X121750D01*
X120825Y49425D02*
X120830Y49420D01*
X122775D02*
X123795D01*
X123800Y49425D01*
X103475Y97050D02*
Y97800D01*
X104595Y97069D02*
Y97864D01*
X110450Y55720D02*
X111575D01*
X110450Y56720D02*
X111575D01*
X81495Y100609D02*
X82425Y99679D01*
Y97450D02*
Y99679D01*
X85625Y99659D02*
X86575Y100609D01*
X85625Y97450D02*
Y99659D01*
X64565Y94905D02*
Y95675D01*
X78843Y62771D02*
X79550D01*
X78414Y63200D02*
X78843Y62771D01*
X80305Y34325D02*
Y35050D01*
X81320Y34325D02*
Y35050D01*
Y32606D02*
Y33100D01*
X22900Y34700D02*
Y46750D01*
X22025Y47625D02*
X22900Y46750D01*
X23022Y46872D02*
Y47625D01*
X22900Y46750D02*
X23022Y46872D01*
X22900Y33076D02*
X23125Y32851D01*
X22900Y33076D02*
Y34700D01*
X122415Y74050D02*
Y74293D01*
X123100Y74978D01*
X124734Y76610D02*
X125457Y75887D01*
X121250Y75215D02*
X122415Y74050D01*
X121250Y75215D02*
Y76734D01*
X124855Y80339D01*
X126061D01*
X127125Y79275D01*
X126061Y81061D02*
X126600Y81600D01*
X126061Y80339D02*
Y81061D01*
X128800Y78175D02*
X129425Y78800D01*
X128225Y78175D02*
X128800D01*
X127125Y79275D02*
X128225Y78175D01*
X97197Y66459D02*
Y67225D01*
X78609Y61780D02*
X79550D01*
X78414Y61975D02*
X78609Y61780D01*
X80300Y32600D02*
Y33095D01*
D14*
X44803Y54642D02*
X44805Y54640D01*
Y53274D02*
Y54640D01*
X46105Y54644D02*
X46110Y54649D01*
X46105Y53274D02*
Y54644D01*
X46107Y32650D02*
X46107Y32650D01*
X46107Y31300D02*
Y32650D01*
X44800Y32650D02*
X44807Y32643D01*
Y31300D02*
Y32643D01*
X63319Y42075D02*
X63320Y42075D01*
Y43442D01*
X64619Y42079D02*
X64625Y42074D01*
X64619Y42079D02*
Y43442D01*
X46118Y21593D02*
X46125Y21600D01*
X46118Y20272D02*
Y21593D01*
X44818Y21600D02*
X44818Y21600D01*
Y20272D02*
Y21600D01*
X64675Y20075D02*
X64675Y20075D01*
X64675Y20075D02*
Y21422D01*
X63375Y20075D02*
X63375Y20075D01*
X63375Y20075D02*
Y21422D01*
X57475Y89975D02*
X63225D01*
X138231Y31511D02*
X138923D01*
X138950Y31485D01*
D15*
X63532Y102507D02*
X72532D01*
X56014Y94989D02*
X63532Y102507D01*
X56014Y93057D02*
Y94989D01*
X107313Y60287D02*
X111987D01*
X105763Y61837D02*
X107313Y60287D01*
X103585Y61837D02*
X105763D01*
X103585Y62337D02*
X105262D01*
X103585Y62837D02*
X104951D01*
X105262Y62337D02*
X108931Y66006D01*
X112044D01*
X115468Y62582D01*
X115593Y63582D02*
X116332D01*
X112650Y66525D02*
X115593Y63582D01*
X108640Y66525D02*
X112650D01*
X104951Y62837D02*
X108640Y66525D01*
X117050Y66900D02*
X117724Y66226D01*
X116250Y66900D02*
X117050D01*
X115150Y68000D02*
X116250Y66900D01*
X101700Y68000D02*
X115150D01*
X101135Y67435D02*
X101700Y68000D01*
X117724Y66226D02*
X121135D01*
X124777Y68823D02*
X126894D01*
X119976Y73624D02*
X124777Y68823D01*
X119976Y73624D02*
Y77559D01*
X118519Y79016D02*
X119976Y77559D01*
X104522Y58337D02*
X104676Y58491D01*
X103585Y58337D02*
X104522D01*
X109325Y83075D02*
X109714Y83464D01*
X109114Y83286D02*
X109325Y83075D01*
X108275D02*
X108514Y83314D01*
X107300Y83125D02*
Y84843D01*
X132993Y73319D02*
X139922Y66390D01*
X53875Y70900D02*
X56314Y73339D01*
Y84857D01*
X77250Y29525D02*
X77505Y29780D01*
X65314Y81036D02*
X66850Y79500D01*
X65314Y81036D02*
Y84857D01*
X116875Y90450D02*
X117574D01*
X127083Y83071D02*
Y84792D01*
X120475Y91400D02*
X127083Y84792D01*
X118775Y91400D02*
X120475D01*
X117338Y91858D02*
Y92188D01*
Y91858D02*
X118495Y90700D01*
X120354D01*
X126350Y84704D01*
Y82961D02*
Y84704D01*
X127756Y83394D02*
Y84894D01*
X119875Y92775D02*
X127756Y84894D01*
X118177Y92775D02*
X119875D01*
X126350Y82961D02*
X130460Y78851D01*
Y69990D02*
Y78851D01*
Y69990D02*
X137025Y63425D01*
X139193Y56525D02*
X141299D01*
X127083Y83071D02*
X132275Y77879D01*
Y72578D02*
Y77879D01*
Y72578D02*
X139178Y65675D01*
X127756Y83394D02*
X132993Y78157D01*
Y73319D02*
Y78157D01*
X110014Y91592D02*
X110281Y91325D01*
X107330Y91500D02*
X107614Y91784D01*
X107914Y86140D02*
X108299Y86525D01*
X106114Y86289D02*
X106300Y86475D01*
X106114Y84857D02*
Y86289D01*
X51814Y91485D02*
Y93057D01*
X104337Y57837D02*
X104671Y57502D01*
X102140Y66439D02*
Y66639D01*
Y65925D02*
Y66439D01*
X93296Y61095D02*
X93554Y60837D01*
X92565Y59052D02*
X92850Y59337D01*
X94585D01*
X92888Y61095D02*
X93296D01*
X93554Y60837D02*
X94585D01*
X104165Y63337D02*
X104350D01*
X104850Y63837D01*
X103585Y57837D02*
X104337D01*
X104329Y58837D02*
X104676Y58491D01*
X92915Y65457D02*
Y65757D01*
Y65457D02*
X94035Y64337D01*
X92940Y63569D02*
X93173Y63337D01*
X94585D01*
X97197Y66006D02*
Y66433D01*
Y66006D02*
X97335Y65868D01*
X99835Y65087D02*
Y65579D01*
X99577Y65837D02*
X99835Y65579D01*
X99572Y65837D02*
X99577D01*
X99250Y66158D02*
X99572Y65837D01*
X99250Y66158D02*
Y66442D01*
X100335Y65087D02*
Y65805D01*
X100135Y66005D02*
X100335Y65805D01*
X100135Y66005D02*
Y66448D01*
X100835Y65087D02*
Y65695D01*
X101135Y65995D01*
Y66448D01*
X102140Y65925D02*
X102335Y65730D01*
Y65087D02*
Y65730D01*
X103585Y58837D02*
X104329D01*
X104326Y59510D02*
X104701D01*
X103585Y59337D02*
X104152D01*
X104326Y59510D01*
X97197Y66433D02*
X97210Y66446D01*
X97335Y65087D02*
Y65868D01*
X94035Y64337D02*
X94585D01*
X59825Y94901D02*
X59825Y94901D01*
X59750Y94826D02*
X59825Y94901D01*
X59750Y94300D02*
Y94826D01*
X59614Y94164D02*
X59750Y94300D01*
X59614Y93057D02*
Y94164D01*
X58800Y94350D02*
Y94901D01*
Y94350D02*
X59014Y94136D01*
Y93057D02*
Y94136D01*
X48214Y93057D02*
Y94550D01*
X50000Y94575D02*
X50014Y94561D01*
Y93057D02*
Y94561D01*
X51214Y94775D02*
X51214Y94774D01*
Y93057D02*
Y94774D01*
X52364Y93057D02*
Y94800D01*
X55414Y91485D02*
Y93057D01*
X56614D02*
Y94589D01*
X56825Y94800D01*
X53614Y91500D02*
Y93057D01*
X59914Y86264D02*
X60175Y86525D01*
X59914Y84857D02*
Y86264D01*
X59150Y86525D02*
X59314Y86361D01*
Y84857D02*
Y86361D01*
X55714Y84857D02*
Y86090D01*
X50311Y83350D02*
X50314Y83353D01*
Y84857D01*
X52114Y83350D02*
Y84857D01*
X53914D02*
Y86336D01*
X81505Y30210D02*
X81505Y30210D01*
X78530Y31215D02*
Y31589D01*
X78960Y31215D02*
Y31790D01*
X78000Y32750D02*
X78960Y31790D01*
X78369Y33525D02*
X78565Y33329D01*
X80250Y31215D02*
Y32550D01*
X80680Y31215D02*
Y31966D01*
X81540Y31215D02*
Y31565D01*
X81600Y31625D01*
X81980D01*
X82730Y32375D01*
X83432D01*
X78225Y29350D02*
X78565D01*
X77775Y28900D02*
X78225Y29350D01*
X77775Y28850D02*
Y28900D01*
X77505Y29780D02*
X78565D01*
X77415Y30210D02*
X78565D01*
X77250Y30375D02*
X77415Y30210D01*
X78135Y30640D02*
X78565D01*
X77550Y31225D02*
X78135Y30640D01*
X77250Y31225D02*
X77550D01*
X48514Y84857D02*
Y87586D01*
X137206Y30012D02*
Y31511D01*
Y33078D01*
X138078Y33950D01*
X137206Y30012D02*
X138086Y29132D01*
X117332Y61582D02*
X117335Y61579D01*
X117332Y62582D02*
X117350Y62600D01*
X117332Y63582D02*
X117350Y63600D01*
X103093Y54927D02*
Y55282D01*
X103585Y63337D02*
X104165Y63337D01*
X102068Y54927D02*
Y55328D01*
X102335Y55595D01*
Y56087D01*
X98835Y53782D02*
X99353D01*
X99561Y53991D01*
Y55072D02*
X99835Y55346D01*
Y56087D01*
X99335Y55299D02*
X99561Y55072D01*
X99335Y55299D02*
Y56087D01*
X98835Y54782D02*
Y56087D01*
X97335Y55155D02*
X97343Y55147D01*
X97335Y55155D02*
Y56087D01*
X94809Y54898D02*
X95335Y55424D01*
Y56087D01*
X95830Y54944D02*
X96335Y55449D01*
Y56087D01*
X99561Y53991D02*
Y55072D01*
X94809Y54557D02*
Y54898D01*
X95830Y54533D02*
Y54944D01*
X117335Y61579D02*
X118299D01*
X117350Y62600D02*
X118274D01*
X117350Y63600D02*
X118269D01*
X102835Y55540D02*
X103093Y55282D01*
X102835Y55540D02*
Y56087D01*
X121675Y32235D02*
X123435Y30475D01*
X124500D01*
X122175Y32500D02*
X122825Y31850D01*
X123911D01*
X124850Y32789D01*
Y33475D01*
X121675Y32235D02*
Y38475D01*
X122175Y32500D02*
Y37675D01*
X123116Y38616D01*
Y39800D01*
X121675Y38475D02*
X122250Y39050D01*
X121125Y20175D02*
X121800Y20850D01*
X123729D01*
X124986Y22107D01*
X111987Y60287D02*
X114150Y62450D01*
X115468Y62582D02*
X116332D01*
X114150Y62450D02*
X114925D01*
X115793Y61582D01*
X116332D01*
X131550Y44297D02*
X133972Y41875D01*
X131550Y44297D02*
Y49293D01*
X130763Y50080D02*
X131550Y49293D01*
X130047Y50080D02*
X130763D01*
X130045Y50082D02*
X130047Y50080D01*
X128882Y50082D02*
X130045D01*
X128875Y50075D02*
X128882Y50082D01*
X128847Y50075D02*
Y50800D01*
X102514Y83300D02*
Y84857D01*
X100714Y83325D02*
Y84857D01*
X106414Y93057D02*
Y94300D01*
X106114Y94600D02*
X106414Y94300D01*
X107014Y93057D02*
Y94300D01*
X107314Y94600D01*
X107614Y91784D02*
Y93057D01*
X105814Y91775D02*
Y93057D01*
Y91775D02*
X106114Y91475D01*
X111214Y93057D02*
Y94669D01*
X111320Y94775D01*
X110614Y93057D02*
Y94461D01*
X110300Y94775D02*
X110614Y94461D01*
X110014Y91592D02*
Y93057D01*
X109414D02*
Y94606D01*
X109195Y94825D02*
X109414Y94606D01*
X108814Y93057D02*
Y94444D01*
X109195Y94825D01*
X108214Y93057D02*
Y94789D01*
X108225Y94800D01*
X111514Y83290D02*
Y84857D01*
X111299Y83075D02*
X111514Y83290D01*
X110914Y83664D02*
Y84857D01*
X109714Y83464D02*
Y84857D01*
X109114Y83286D02*
Y84857D01*
X107914D02*
Y86140D01*
X110314Y84857D02*
Y86556D01*
X107300Y84843D02*
X107314Y84857D01*
X106714Y83689D02*
Y84857D01*
X106280Y83255D02*
X106714Y83689D01*
X105950Y83255D02*
X106280D01*
X97114Y84857D02*
Y86289D01*
X97125Y86300D01*
X95314Y84857D02*
Y86279D01*
X95335Y86300D01*
X93514Y84857D02*
Y86325D01*
X91714Y84857D02*
Y86289D01*
X102214Y93057D02*
Y94389D01*
X100414Y93057D02*
Y94421D01*
X100100Y94735D02*
X100414Y94421D01*
X102214Y94389D02*
X102550Y94725D01*
X93214Y93057D02*
Y94553D01*
X93200Y94567D02*
X93214Y94553D01*
X95014Y93057D02*
Y94606D01*
X96814Y93057D02*
Y94546D01*
X96835Y94567D01*
X98614Y93057D02*
Y94539D01*
X98625Y94550D01*
X91414Y93057D02*
Y94525D01*
X89614Y93057D02*
Y94506D01*
X87814Y93057D02*
Y94525D01*
X82414Y93057D02*
Y94525D01*
X80614Y93057D02*
Y94469D01*
X80625Y94480D01*
X78814Y93057D02*
Y94464D01*
X79125Y94775D01*
X77014Y93057D02*
Y94486D01*
X76725Y94775D02*
X77014Y94486D01*
X84214Y93057D02*
Y94511D01*
X83925Y94800D02*
X84214Y94511D01*
X86014Y93057D02*
Y94474D01*
X86325Y94784D01*
X73414Y93057D02*
Y94600D01*
X75214Y93057D02*
Y94561D01*
X69814Y93057D02*
Y94675D01*
X71614Y93057D02*
Y94449D01*
X71900Y94735D01*
X68014Y93057D02*
Y94400D01*
X67714Y94700D02*
X68014Y94400D01*
X69214Y91085D02*
Y93057D01*
X70414Y91113D02*
Y93057D01*
Y91113D02*
X70427Y91100D01*
X66214Y93057D02*
Y94606D01*
X63540Y94460D02*
Y94905D01*
Y94460D02*
X63814Y94186D01*
Y93057D02*
Y94186D01*
X64414Y93057D02*
Y94211D01*
X64565Y94362D01*
Y94905D01*
X82714Y83375D02*
Y84857D01*
X84514Y83375D02*
Y84857D01*
X86314Y83325D02*
Y84857D01*
X64714D02*
Y86061D01*
X64400Y86375D02*
X64714Y86061D01*
X64114Y83500D02*
Y84857D01*
Y83500D02*
X64414Y83200D01*
X80914Y83386D02*
Y84857D01*
Y83386D02*
X80925Y83375D01*
X79114Y83386D02*
Y84857D01*
Y83386D02*
X79125Y83375D01*
X77314Y83400D02*
Y84857D01*
Y83400D02*
X77329Y83386D01*
X75514Y83386D02*
Y84857D01*
Y83386D02*
X75525Y83375D01*
X73714Y83396D02*
Y84857D01*
Y83396D02*
X73725Y83386D01*
X71914Y83711D02*
Y84857D01*
Y83711D02*
X72250Y83375D01*
X70114Y83664D02*
Y84857D01*
X69825Y83375D02*
X70114Y83664D01*
X70714Y72657D02*
Y84857D01*
X68314Y83375D02*
Y84857D01*
X66514Y83664D02*
Y84857D01*
Y83664D02*
X66825Y83353D01*
X88125Y83375D02*
Y83386D01*
X88114Y83396D02*
Y84857D01*
Y83396D02*
X88125Y83386D01*
X57214Y91500D02*
Y93057D01*
X58414Y92011D02*
Y93057D01*
Y92011D02*
X59025Y91400D01*
X78119Y32000D02*
X78530Y31589D01*
X77625Y32000D02*
X78119D01*
X53900Y86350D02*
X53914Y86336D01*
X55429Y86375D02*
X55714Y86090D01*
X57514Y84857D02*
Y86400D01*
X80680Y31966D02*
X81320Y32606D01*
X65914Y82461D02*
Y84857D01*
X101135Y66448D02*
Y67435D01*
X108514Y83314D02*
Y84857D01*
X72532Y102507D02*
X73825Y103800D01*
X81700D01*
X83375Y102125D01*
X87989D01*
X108228Y97150D02*
X109250D01*
X122250Y20175D02*
X123650D01*
X124246Y19579D01*
Y19125D02*
Y19579D01*
X70714Y72657D02*
X70714Y72657D01*
X65914Y82461D02*
X66807Y81568D01*
X126894Y68823D02*
X139193Y56525D01*
X118519Y79016D02*
Y87312D01*
X100335Y55482D02*
Y56087D01*
Y55482D02*
X100448Y55369D01*
Y54782D02*
Y55369D01*
X110295Y86575D02*
X110314Y86556D01*
X110325Y83075D02*
X110914Y83664D01*
X93020Y55750D02*
Y56095D01*
X93762Y56837D01*
X94585D01*
X92021Y55737D02*
Y55963D01*
X93395Y57337D01*
X94585D01*
X94585Y57837D02*
X94585Y57837D01*
X91948Y56490D02*
X93294Y57837D01*
X94585D01*
X90975Y56490D02*
X91948D01*
X118982Y87775D02*
Y89042D01*
X118519Y87312D02*
X118982Y87775D01*
X117574Y90450D02*
X118982Y89042D01*
X80250Y32550D02*
X80300Y32600D01*
X79390Y31215D02*
Y31955D01*
X78565Y32780D02*
Y33329D01*
Y32780D02*
X79390Y31955D01*
X87989Y102125D02*
X90639Y99475D01*
X105903D01*
X108228Y97150D01*
D20*
X89554Y41951D02*
X90304Y41201D01*
X63225Y89975D02*
X63250Y89950D01*
X57814Y93057D02*
Y94800D01*
X92050Y41201D02*
X92800Y41951D01*
X104925Y41088D02*
X105744Y41907D01*
X88769Y39588D02*
X89544Y38813D01*
X87924Y39588D02*
X88769D01*
X86308Y38788D02*
X87108Y39588D01*
X87924D01*
X90304Y41201D02*
X91184D01*
X92050D01*
X95250Y39562D02*
X96007Y38805D01*
X94390Y39562D02*
X95250D01*
X93510D02*
X94390D01*
X92760Y38812D02*
X93510Y39562D01*
X111519Y41075D02*
X112300Y41856D01*
X110680Y41075D02*
X111519D01*
X109050Y41850D02*
X109825Y41075D01*
X110680D01*
X104124Y41088D02*
X104925D01*
X103301D02*
X104124D01*
X102494Y41895D02*
X103301Y41088D01*
X97649Y41188D02*
X98473D01*
X99278Y41993D01*
X96034Y41963D02*
X96809Y41188D01*
X97649D01*
X101650Y39575D02*
X102488Y38737D01*
X100849Y39575D02*
X101650D01*
X99247Y38812D02*
X100010Y39575D01*
X100849D01*
X108750Y21725D02*
Y22550D01*
X108730Y23570D02*
X108750Y23550D01*
X108730Y23570D02*
Y24575D01*
X102420Y21775D02*
X102424Y21780D01*
Y22550D01*
Y23550D02*
X102430Y23556D01*
Y24575D01*
X96056Y21650D02*
X96070Y21663D01*
Y22475D01*
Y23475D02*
X96080Y23485D01*
Y24450D01*
X89655Y24475D02*
X89675Y24455D01*
Y23500D02*
Y24455D01*
Y22500D02*
X89700Y22475D01*
Y21689D02*
Y22475D01*
X81571Y22450D02*
Y23175D01*
X82601Y22450D02*
Y23175D01*
X78514Y25175D02*
Y25891D01*
X78524Y25900D01*
X79544Y25175D02*
Y25900D01*
X80575Y25175D02*
Y25893D01*
X80568Y25900D02*
X80575Y25893D01*
X82614Y25900D02*
X82626Y25889D01*
X76467Y25150D02*
Y25875D01*
X83625Y25175D02*
Y25896D01*
X83629Y25900D01*
X82164Y30395D02*
X82675D01*
X81979Y30210D02*
X82164Y30395D01*
X84400Y31450D02*
X85130D01*
X84425Y29375D02*
X85130D01*
X84400Y29350D02*
X84425Y29375D01*
X137136Y18820D02*
Y20186D01*
Y18820D02*
X138156Y17800D01*
X137136Y20186D02*
Y21550D01*
X138161Y22575D01*
X122300Y75754D02*
X122390D01*
X143108Y57040D02*
X143300D01*
X142592Y56525D02*
X143108Y57040D01*
X141299Y56525D02*
X142592D01*
X143108Y55040D02*
X143300D01*
X142623Y55525D02*
X143108Y55040D01*
X141299Y55525D02*
X142623D01*
X108232Y39500D02*
X109014Y38718D01*
X107376Y39500D02*
X108232D01*
X105746Y38729D02*
X106517Y39500D01*
X107376D01*
X81595Y24199D02*
Y25900D01*
X81571Y24175D02*
X81595Y24199D01*
X82614Y24188D02*
Y25900D01*
X82601Y24175D02*
X82614Y24188D01*
X80818Y24175D02*
X81571D01*
X80818Y24175D02*
X80818Y24175D01*
X82601D02*
X83350D01*
X77474Y25900D02*
X77483Y25891D01*
Y25175D02*
Y25891D01*
X122390Y75754D02*
X124010Y77373D01*
X124024D01*
X125675Y79025D01*
D71*
X90600Y97850D02*
D03*
X123675Y66226D02*
D03*
X96835Y97850D02*
D03*
D74*
X73122Y97525D02*
D03*
X71122D02*
D03*
X62150Y97525D02*
D03*
X64150D02*
D03*
X46464Y88957D02*
D03*
D75*
X143300Y55040D02*
D03*
Y57040D02*
D03*
Y59040D02*
D03*
X144575Y29975D02*
D03*
Y23975D02*
D03*
Y25975D02*
D03*
Y27975D02*
D03*
X146101Y8883D02*
D03*
Y6883D02*
D03*
Y4883D02*
D03*
Y10883D02*
D03*
X138375Y10890D02*
D03*
Y4890D02*
D03*
Y6890D02*
D03*
Y8890D02*
D03*
X151350Y27975D02*
D03*
Y25975D02*
D03*
Y23975D02*
D03*
Y29975D02*
D03*
X50268Y22847D02*
D03*
X50268Y20847D02*
D03*
Y18847D02*
D03*
X59275D02*
D03*
Y20847D02*
D03*
Y22847D02*
D03*
X59275Y29850D02*
D03*
Y31850D02*
D03*
Y33850D02*
D03*
X59281Y44867D02*
D03*
Y42867D02*
D03*
Y40867D02*
D03*
X59280Y55874D02*
D03*
Y53874D02*
D03*
Y51874D02*
D03*
X120404Y88366D02*
D03*
X124646Y84123D02*
D03*
X123232Y85538D02*
D03*
X121818Y86952D02*
D03*
X59285Y66875D02*
D03*
Y64875D02*
D03*
Y62875D02*
D03*
X50262Y66875D02*
D03*
Y64875D02*
D03*
Y62875D02*
D03*
X50280Y40867D02*
D03*
Y42867D02*
D03*
Y44867D02*
D03*
X50275Y33875D02*
D03*
Y31875D02*
D03*
Y29875D02*
D03*
X50280Y51849D02*
D03*
Y53849D02*
D03*
Y55849D02*
D03*
D79*
X13000Y15670D02*
D03*
X9500D02*
D03*
X12275Y24825D02*
D03*
X8775D02*
D03*
X13050Y43200D02*
D03*
X9550D02*
D03*
X12225Y33975D02*
D03*
X8725D02*
D03*
D83*
X58800Y94901D02*
D03*
X59825D02*
D03*
X63540Y94905D02*
D03*
X64565D02*
D03*
X116332Y61582D02*
D03*
X117332D02*
D03*
Y62582D02*
D03*
X116332D02*
D03*
Y63582D02*
D03*
X117332D02*
D03*
X138161Y20186D02*
D03*
X137136D02*
D03*
X137206Y31511D02*
D03*
X138231D02*
D03*
X84400Y31450D02*
D03*
X83400D02*
D03*
Y29350D02*
D03*
X84400D02*
D03*
X83400Y30395D02*
D03*
X84425D02*
D03*
X134392Y49970D02*
D03*
X133367D02*
D03*
X121750Y49420D02*
D03*
X122775D02*
D03*
X87700Y59032D02*
D03*
X86675D02*
D03*
X79539Y58740D02*
D03*
X80564D02*
D03*
X80575Y61780D02*
D03*
X79550D02*
D03*
Y62771D02*
D03*
X80575D02*
D03*
X79550Y64230D02*
D03*
X80575D02*
D03*
X79555Y65230D02*
D03*
X80580D02*
D03*
X106163Y56412D02*
D03*
X105163D02*
D03*
X103093Y54927D02*
D03*
X102068D02*
D03*
X106488Y57502D02*
D03*
X105463D02*
D03*
X106488Y59502D02*
D03*
X105463D02*
D03*
Y58502D02*
D03*
X106488D02*
D03*
X110450Y54720D02*
D03*
X109425D02*
D03*
Y55720D02*
D03*
X110450D02*
D03*
X109425Y56720D02*
D03*
X110450D02*
D03*
X110475Y58720D02*
D03*
X109450D02*
D03*
X110512Y62974D02*
D03*
X109487D02*
D03*
X109488Y61976D02*
D03*
X110513D02*
D03*
X109425Y64220D02*
D03*
X110450D02*
D03*
X99250Y66442D02*
D03*
X98225D02*
D03*
X101135Y66448D02*
D03*
X100135D02*
D03*
X103165Y66439D02*
D03*
X102140D02*
D03*
X96185Y66446D02*
D03*
X97210D02*
D03*
X90815Y59052D02*
D03*
X91840D02*
D03*
X91127Y61095D02*
D03*
X92152D02*
D03*
X91122Y64663D02*
D03*
X92122D02*
D03*
X92140Y63569D02*
D03*
X91115D02*
D03*
X92115Y65757D02*
D03*
X91090D02*
D03*
D84*
X94700Y49225D02*
D03*
Y50225D02*
D03*
X94390Y39562D02*
D03*
Y38537D02*
D03*
X100849Y38550D02*
D03*
Y39575D02*
D03*
X110680Y41075D02*
D03*
Y40050D02*
D03*
X107376Y39500D02*
D03*
Y38475D02*
D03*
X104124Y41088D02*
D03*
Y40063D02*
D03*
X97649Y40163D02*
D03*
Y41188D02*
D03*
X80568Y26900D02*
D03*
Y25900D02*
D03*
X79544Y25900D02*
D03*
Y26900D02*
D03*
X78524D02*
D03*
Y25900D02*
D03*
X77474Y26900D02*
D03*
Y25900D02*
D03*
X95645Y49210D02*
D03*
Y50235D02*
D03*
X76467Y25875D02*
D03*
Y26875D02*
D03*
X108750Y23550D02*
D03*
Y22550D02*
D03*
X108730Y24575D02*
D03*
Y25600D02*
D03*
X102424Y22550D02*
D03*
Y23550D02*
D03*
X102430Y24575D02*
D03*
Y25600D02*
D03*
X96070Y23475D02*
D03*
Y22475D02*
D03*
X96080Y25475D02*
D03*
Y24450D02*
D03*
X89675Y22500D02*
D03*
Y23500D02*
D03*
X89655Y24475D02*
D03*
Y25500D02*
D03*
X99444Y49190D02*
D03*
Y50215D02*
D03*
X100445Y50215D02*
D03*
Y49190D02*
D03*
X98835Y53782D02*
D03*
Y54782D02*
D03*
X132570Y41100D02*
D03*
Y40075D02*
D03*
X103475Y97050D02*
D03*
Y96050D02*
D03*
X104595Y96044D02*
D03*
Y97069D02*
D03*
X91184Y40176D02*
D03*
Y41201D02*
D03*
X87924Y38563D02*
D03*
Y39588D02*
D03*
X82601Y23175D02*
D03*
Y24175D02*
D03*
X81571D02*
D03*
Y23175D02*
D03*
X83629Y25900D02*
D03*
Y26900D02*
D03*
X82614D02*
D03*
Y25900D02*
D03*
X81595D02*
D03*
Y26900D02*
D03*
X80305Y34325D02*
D03*
Y33300D02*
D03*
X79270Y34125D02*
D03*
Y33100D02*
D03*
X81320Y33300D02*
D03*
Y34325D02*
D03*
X82370Y33100D02*
D03*
Y34125D02*
D03*
X83432D02*
D03*
Y33100D02*
D03*
X131580Y51725D02*
D03*
Y52750D02*
D03*
X128847Y50075D02*
D03*
Y49075D02*
D03*
X130045Y50082D02*
D03*
Y49057D02*
D03*
X126097Y52755D02*
D03*
Y51730D02*
D03*
X107445Y50275D02*
D03*
Y49250D02*
D03*
X106445D02*
D03*
Y50275D02*
D03*
X82455Y50250D02*
D03*
Y49225D02*
D03*
X83455D02*
D03*
Y50250D02*
D03*
X89455Y49200D02*
D03*
Y50225D02*
D03*
X90455D02*
D03*
Y49200D02*
D03*
X93755Y50240D02*
D03*
Y49215D02*
D03*
X80555Y53700D02*
D03*
Y54725D02*
D03*
Y56750D02*
D03*
Y55725D02*
D03*
X90980Y55750D02*
D03*
Y54725D02*
D03*
X92021Y54737D02*
D03*
Y55737D02*
D03*
X93020Y55750D02*
D03*
Y54725D02*
D03*
X94809Y53532D02*
D03*
Y54557D02*
D03*
X95830Y53508D02*
D03*
Y54533D02*
D03*
X100448Y54782D02*
D03*
Y53757D02*
D03*
D88*
X131875Y5500D02*
D03*
Y3900D02*
D03*
D91*
X83400Y58975D02*
D03*
X85000Y58975D02*
D03*
D96*
X12950Y9275D02*
D03*
Y7275D02*
D03*
D97*
X30500Y78425D02*
D03*
X30500Y82925D02*
D03*
X34907Y78442D02*
D03*
Y82942D02*
D03*
D103*
X102420Y28510D02*
D03*
Y31510D02*
D03*
D116*
X124734Y76649D02*
D03*
X124010Y77373D02*
D03*
D118*
X86175Y34525D02*
D03*
X74000Y26560D02*
D03*
X93900Y67975D02*
D03*
X105550Y53182D02*
D03*
X155006Y20300D02*
D03*
X151697Y5900D02*
D03*
X154712Y4700D02*
D03*
X152407D02*
D03*
X151255D02*
D03*
X155155Y5900D02*
D03*
X154002D02*
D03*
X152850D02*
D03*
X153560Y4700D02*
D03*
X154094Y14300D02*
D03*
X154336Y15500D02*
D03*
X155246Y14300D02*
D03*
X156399D02*
D03*
X155731Y16700D02*
D03*
X155489Y15500D02*
D03*
X156641D02*
D03*
X157794D02*
D03*
X157026Y17900D02*
D03*
X156884Y16700D02*
D03*
X158036D02*
D03*
X158179Y17900D02*
D03*
X158464Y20300D02*
D03*
X158321Y19100D02*
D03*
X122539Y93844D02*
D03*
X120995Y93569D02*
D03*
X124525Y92484D02*
D03*
X122981Y92209D02*
D03*
X114673Y97219D02*
D03*
X113563Y97696D02*
D03*
X112502Y98259D02*
D03*
X112544Y100732D02*
D03*
X113078Y99257D02*
D03*
X111968Y99734D02*
D03*
X111434Y101208D02*
D03*
X109747Y100687D02*
D03*
X110858Y100210D02*
D03*
X108637Y101164D02*
D03*
X107526Y101640D02*
D03*
X106992Y103115D02*
D03*
X106416Y102117D02*
D03*
X104671Y103895D02*
D03*
X105832Y103505D02*
D03*
X105255Y102507D02*
D03*
X108679Y103636D02*
D03*
X109789Y103160D02*
D03*
X115249Y98217D02*
D03*
X114139Y98694D02*
D03*
X114715Y99692D02*
D03*
X115291Y100690D02*
D03*
X114231Y101253D02*
D03*
X111392Y98735D02*
D03*
X110281Y99212D02*
D03*
X109171Y99689D02*
D03*
X109213Y102162D02*
D03*
X108102Y102638D02*
D03*
X104087Y105283D02*
D03*
X105247Y104893D02*
D03*
X102877Y105587D02*
D03*
X101666Y105890D02*
D03*
X101724Y103591D02*
D03*
X102300Y104589D02*
D03*
X99879Y105196D02*
D03*
X101090Y104892D02*
D03*
X98669Y105499D02*
D03*
X97409Y105716D02*
D03*
X97516Y103503D02*
D03*
X98093Y104501D02*
D03*
X96832Y104718D02*
D03*
X96256Y103720D02*
D03*
X94361Y105238D02*
D03*
X95622Y105021D02*
D03*
X95046Y104023D02*
D03*
X106408Y104503D02*
D03*
X107568Y104113D02*
D03*
X153558Y1000D02*
D03*
X152405D02*
D03*
X153900Y2200D02*
D03*
X82409Y108737D02*
D03*
X117412Y99563D02*
D03*
X116402Y100213D02*
D03*
X115826Y99215D02*
D03*
X113655Y100255D02*
D03*
X113120Y101730D02*
D03*
X112010Y102206D02*
D03*
X110900Y102683D02*
D03*
X110323Y101685D02*
D03*
X105840Y101119D02*
D03*
X104095Y102897D02*
D03*
X103511Y104285D02*
D03*
X99937Y102896D02*
D03*
X100456Y106194D02*
D03*
X98727Y103199D02*
D03*
X99245Y106497D02*
D03*
X97985Y106714D02*
D03*
X96198Y106019D02*
D03*
X96774Y107018D02*
D03*
X93785Y104240D02*
D03*
X94938Y106236D02*
D03*
X95514Y107234D02*
D03*
X94304Y107538D02*
D03*
X93727Y106540D02*
D03*
X93151Y105542D02*
D03*
X92575Y104544D02*
D03*
X92943Y107781D02*
D03*
X92367Y106783D02*
D03*
X91790Y105785D02*
D03*
X91214Y104787D02*
D03*
X90004Y105090D02*
D03*
X90580Y106088D02*
D03*
X91156Y107086D02*
D03*
X91732Y108084D02*
D03*
X90422Y108215D02*
D03*
X89846Y107217D02*
D03*
X89269Y106218D02*
D03*
X88693Y105220D02*
D03*
X89111Y108345D02*
D03*
X88535Y107347D02*
D03*
X87959Y106349D02*
D03*
X87383Y105351D02*
D03*
X87801Y108475D02*
D03*
X87225Y107477D02*
D03*
X86649Y106479D02*
D03*
X86072Y105481D02*
D03*
X86491Y108606D02*
D03*
X85914Y107607D02*
D03*
X85338Y106609D02*
D03*
X84762Y105611D02*
D03*
X85130Y108649D02*
D03*
X84554Y107651D02*
D03*
X83978Y106653D02*
D03*
X83401Y105655D02*
D03*
X82041Y105699D02*
D03*
X82617Y106697D02*
D03*
X83194Y107695D02*
D03*
X83770Y108693D02*
D03*
X76330D02*
D03*
X76907Y107695D02*
D03*
X77483Y106697D02*
D03*
X78059Y105699D02*
D03*
X76699Y105655D02*
D03*
X76122Y106653D02*
D03*
X75338Y105611D02*
D03*
X74762Y106609D02*
D03*
X74186Y107607D02*
D03*
X74028Y105481D02*
D03*
X73452Y106479D02*
D03*
X72875Y107477D02*
D03*
X72717Y105351D02*
D03*
X72141Y106349D02*
D03*
X71565Y107347D02*
D03*
X71407Y105220D02*
D03*
X70831Y106218D02*
D03*
X70254Y107217D02*
D03*
X69520Y106088D02*
D03*
X70096Y105090D02*
D03*
X68886Y104787D02*
D03*
X68310Y105785D02*
D03*
X67525Y104544D02*
D03*
X66949Y105542D02*
D03*
X66315Y104240D02*
D03*
X63326Y107018D02*
D03*
X62115Y106714D02*
D03*
X62691Y105716D02*
D03*
X60855Y106497D02*
D03*
X61431Y105499D02*
D03*
X60797Y104198D02*
D03*
X60221Y105196D02*
D03*
X59644Y106194D02*
D03*
X60163Y102896D02*
D03*
X59586Y103894D02*
D03*
X59010Y104892D02*
D03*
X58434Y105890D02*
D03*
X58952Y102592D02*
D03*
X58376Y103591D02*
D03*
X57800Y104589D02*
D03*
X57223Y105587D02*
D03*
X56013Y105283D02*
D03*
X56589Y104285D02*
D03*
X54853Y104893D02*
D03*
X55429Y103895D02*
D03*
X53692Y104503D02*
D03*
X54268Y103505D02*
D03*
X52532Y104113D02*
D03*
X53108Y103115D02*
D03*
X54261Y101119D02*
D03*
X51421Y103636D02*
D03*
X51463Y101164D02*
D03*
X50887Y102162D02*
D03*
X50311Y103160D02*
D03*
X50929Y99689D02*
D03*
X50353Y100687D02*
D03*
X49777Y101685D02*
D03*
X49200Y102683D02*
D03*
X49819Y99212D02*
D03*
X49243Y100210D02*
D03*
X48666Y101208D02*
D03*
X48090Y102206D02*
D03*
X46980Y101730D02*
D03*
X47556Y100732D02*
D03*
X48132Y99734D02*
D03*
X48708Y98735D02*
D03*
X47598Y98259D02*
D03*
X47022Y99257D02*
D03*
X46445Y100255D02*
D03*
X45869Y101253D02*
D03*
X46537Y97696D02*
D03*
X45961Y98694D02*
D03*
X45385Y99692D02*
D03*
X44809Y100690D02*
D03*
X45427Y97219D02*
D03*
X44851Y98217D02*
D03*
X44275Y99215D02*
D03*
X43698Y100213D02*
D03*
X42688Y99563D02*
D03*
X44417Y96569D02*
D03*
X52040Y100165D02*
D03*
X77691Y108737D02*
D03*
X149461Y67300D02*
D03*
X146383Y72543D02*
D03*
X145807Y71545D02*
D03*
X145231Y70547D02*
D03*
X144655Y69548D02*
D03*
X143937Y70705D02*
D03*
X144513Y71703D02*
D03*
X145089Y72701D02*
D03*
X145665Y73699D02*
D03*
X143219Y71861D02*
D03*
X143795Y72859D02*
D03*
X144371Y73857D02*
D03*
X144947Y74855D02*
D03*
X142451Y72931D02*
D03*
X143027Y73929D02*
D03*
X143603Y74927D02*
D03*
X144179Y75925D02*
D03*
X141683Y74001D02*
D03*
X142259Y74999D02*
D03*
X142835Y75997D02*
D03*
X143411Y76995D02*
D03*
X140914Y75070D02*
D03*
X141491Y76068D02*
D03*
X142067Y77067D02*
D03*
X142643Y78065D02*
D03*
X141875Y79134D02*
D03*
X141299Y78136D02*
D03*
X140723Y77138D02*
D03*
X140146Y76140D02*
D03*
X139278Y77037D02*
D03*
X139855Y78035D02*
D03*
X140431Y79033D02*
D03*
X141007Y80031D02*
D03*
X138388Y78094D02*
D03*
X138964Y79092D02*
D03*
X139540Y80090D02*
D03*
X140116Y81088D02*
D03*
X139248Y81984D02*
D03*
X138672Y80986D02*
D03*
X138096Y79988D02*
D03*
X137520Y78990D02*
D03*
X138430Y82968D02*
D03*
X137854Y81969D02*
D03*
X137278Y80971D02*
D03*
X136701Y79973D02*
D03*
X137562Y83864D02*
D03*
X136986Y82866D02*
D03*
X136410Y81868D02*
D03*
X135833Y80870D02*
D03*
X136744Y84847D02*
D03*
X136168Y83849D02*
D03*
X135592Y82851D02*
D03*
X135015Y81853D02*
D03*
X134147Y82749D02*
D03*
X134724Y83748D02*
D03*
X135300Y84746D02*
D03*
X135876Y85744D02*
D03*
X133279Y83646D02*
D03*
X133856Y84644D02*
D03*
X134432Y85642D02*
D03*
X135008Y86640D02*
D03*
X132411Y84542D02*
D03*
X132988Y85541D02*
D03*
X133564Y86539D02*
D03*
X134140Y87537D02*
D03*
X133272Y88433D02*
D03*
X132696Y87435D02*
D03*
X132120Y86437D02*
D03*
X131543Y85439D02*
D03*
X132354Y89243D02*
D03*
X131778Y88245D02*
D03*
X131202Y87247D02*
D03*
X130625Y86249D02*
D03*
X131436Y90053D02*
D03*
X130860Y89055D02*
D03*
X130284Y88057D02*
D03*
X129707Y87059D02*
D03*
X130518Y90863D02*
D03*
X129942Y89865D02*
D03*
X129365Y88867D02*
D03*
X128789Y87869D02*
D03*
X127821Y88592D02*
D03*
X128397Y89590D02*
D03*
X128974Y90588D02*
D03*
X129550Y91586D02*
D03*
X127429Y90314D02*
D03*
X128006Y91312D02*
D03*
X128582Y92310D02*
D03*
X125885Y90039D02*
D03*
X126461Y91037D02*
D03*
X127038Y92035D02*
D03*
X127614Y93033D02*
D03*
X124917Y90762D02*
D03*
X125493Y91760D02*
D03*
X126070Y92758D02*
D03*
X126646Y93756D02*
D03*
X125678Y94480D02*
D03*
X125102Y93482D02*
D03*
X123949Y91485D02*
D03*
X123557Y93207D02*
D03*
X124134Y94205D02*
D03*
X124710Y95203D02*
D03*
X121963Y92845D02*
D03*
X123116Y94842D02*
D03*
X123692Y95840D02*
D03*
X121571Y94567D02*
D03*
X122148Y95565D02*
D03*
X122724Y96563D02*
D03*
X121656Y97113D02*
D03*
X119927Y94119D02*
D03*
X126853Y89315D02*
D03*
X147101Y71386D02*
D03*
X12999D02*
D03*
X10639Y67300D02*
D03*
X33247Y89315D02*
D03*
X40173Y94119D02*
D03*
X38444Y97113D02*
D03*
X37376Y96563D02*
D03*
X37952Y95565D02*
D03*
X38529Y94567D02*
D03*
X39105Y93569D02*
D03*
X36408Y95840D02*
D03*
X36984Y94842D02*
D03*
X37561Y93844D02*
D03*
X38137Y92845D02*
D03*
X35390Y95203D02*
D03*
X35966Y94205D02*
D03*
X36543Y93207D02*
D03*
X37119Y92209D02*
D03*
X36151Y91485D02*
D03*
X35575Y92484D02*
D03*
X34998Y93482D02*
D03*
X34422Y94480D02*
D03*
X33454Y93756D02*
D03*
X34030Y92758D02*
D03*
X34607Y91760D02*
D03*
X35183Y90762D02*
D03*
X32486Y93033D02*
D03*
X33062Y92035D02*
D03*
X33639Y91037D02*
D03*
X34215Y90039D02*
D03*
X31518Y92310D02*
D03*
X32094Y91312D02*
D03*
X32671Y90314D02*
D03*
X30550Y91586D02*
D03*
X31126Y90588D02*
D03*
X31703Y89590D02*
D03*
X32279Y88592D02*
D03*
X31311Y87869D02*
D03*
X30735Y88867D02*
D03*
X30158Y89865D02*
D03*
X29582Y90863D02*
D03*
X30393Y87059D02*
D03*
X29816Y88057D02*
D03*
X29240Y89055D02*
D03*
X28664Y90053D02*
D03*
X29475Y86249D02*
D03*
X28898Y87247D02*
D03*
X28322Y88245D02*
D03*
X27746Y89243D02*
D03*
X28557Y85439D02*
D03*
X27980Y86437D02*
D03*
X27404Y87435D02*
D03*
X26828Y88433D02*
D03*
X25960Y87537D02*
D03*
X26536Y86539D02*
D03*
X27112Y85541D02*
D03*
X27689Y84542D02*
D03*
X25092Y86640D02*
D03*
X25668Y85642D02*
D03*
X26244Y84644D02*
D03*
X26821Y83646D02*
D03*
X24224Y85744D02*
D03*
X24800Y84746D02*
D03*
X25376Y83748D02*
D03*
X25953Y82749D02*
D03*
X25085Y81853D02*
D03*
X24508Y82851D02*
D03*
X23932Y83849D02*
D03*
X23356Y84847D02*
D03*
X24267Y80870D02*
D03*
X23690Y81868D02*
D03*
X23114Y82866D02*
D03*
X22538Y83864D02*
D03*
X23399Y79973D02*
D03*
X22822Y80971D02*
D03*
X22246Y81969D02*
D03*
X21670Y82968D02*
D03*
X22580Y78990D02*
D03*
X22004Y79988D02*
D03*
X21428Y80986D02*
D03*
X20852Y81984D02*
D03*
X19984Y81088D02*
D03*
X20560Y80090D02*
D03*
X21136Y79092D02*
D03*
X21712Y78094D02*
D03*
X19093Y80031D02*
D03*
X19669Y79033D02*
D03*
X20245Y78035D02*
D03*
X20822Y77037D02*
D03*
X19954Y76140D02*
D03*
X19377Y77138D02*
D03*
X18801Y78136D02*
D03*
X18225Y79134D02*
D03*
X17457Y78065D02*
D03*
X18033Y77067D02*
D03*
X18609Y76068D02*
D03*
X19186Y75070D02*
D03*
X17265Y75997D02*
D03*
X17841Y74999D02*
D03*
X18417Y74001D02*
D03*
X16305Y72859D02*
D03*
X14435Y73699D02*
D03*
X15011Y72701D02*
D03*
X15587Y71703D02*
D03*
X16163Y70705D02*
D03*
X15445Y69548D02*
D03*
X14869Y70547D02*
D03*
X14293Y71545D02*
D03*
X13717Y72543D02*
D03*
X155560Y32400D02*
D03*
X159018Y32400D02*
D03*
X159076Y33600D02*
D03*
X157923Y33600D02*
D03*
X156771Y33600D02*
D03*
X158933Y34800D02*
D03*
X157781Y34800D02*
D03*
X156628D02*
D03*
X155476Y34800D02*
D03*
X158891Y36000D02*
D03*
X157738Y36000D02*
D03*
X156586Y36000D02*
D03*
X155433D02*
D03*
X155291Y37200D02*
D03*
X156443Y37200D02*
D03*
X157596Y37200D02*
D03*
X158748Y37200D02*
D03*
X158606Y38400D02*
D03*
X157453Y38400D02*
D03*
X156301Y38400D02*
D03*
X155148Y38400D02*
D03*
X158464Y39600D02*
D03*
X157311D02*
D03*
X156158D02*
D03*
X155006Y39600D02*
D03*
X158321Y40800D02*
D03*
X157169Y40800D02*
D03*
X156016Y40800D02*
D03*
X154864Y40800D02*
D03*
X158179Y42000D02*
D03*
X157026Y42000D02*
D03*
X155874D02*
D03*
X154721D02*
D03*
X154579Y43200D02*
D03*
X155731Y43200D02*
D03*
X156884Y43200D02*
D03*
X158036Y43200D02*
D03*
X154336Y44400D02*
D03*
X155489Y44400D02*
D03*
X156641Y44400D02*
D03*
X157794Y44400D02*
D03*
X154094Y45600D02*
D03*
X155246D02*
D03*
X156399Y45600D02*
D03*
X157552Y45600D02*
D03*
X153852Y46800D02*
D03*
X155004Y46800D02*
D03*
X156157Y46800D02*
D03*
X157309Y46800D02*
D03*
X156967Y48000D02*
D03*
X155814Y48000D02*
D03*
X154662D02*
D03*
X153509Y48000D02*
D03*
X156624Y49200D02*
D03*
X155472Y49200D02*
D03*
X154319Y49200D02*
D03*
X153167Y49200D02*
D03*
X156282Y50400D02*
D03*
X155129Y50400D02*
D03*
X153977Y50400D02*
D03*
X152824Y50400D02*
D03*
X152482Y51600D02*
D03*
X153634Y51600D02*
D03*
X154787Y51600D02*
D03*
X155940Y51600D02*
D03*
X152040Y52800D02*
D03*
X153192Y52800D02*
D03*
X154345Y52800D02*
D03*
X155497D02*
D03*
X151697Y54000D02*
D03*
X152850Y54000D02*
D03*
X154002Y54000D02*
D03*
X155155Y54000D02*
D03*
X151255Y55200D02*
D03*
X152407Y55200D02*
D03*
X153560Y55200D02*
D03*
X154712Y55200D02*
D03*
X154370Y56400D02*
D03*
X153217Y56400D02*
D03*
X152065Y56400D02*
D03*
X150912Y56400D02*
D03*
X153900Y57700D02*
D03*
X152747Y57700D02*
D03*
X151595Y57700D02*
D03*
X150442Y57700D02*
D03*
X150100Y58900D02*
D03*
X151253Y58900D02*
D03*
X152405Y58900D02*
D03*
X153558Y58900D02*
D03*
X153015Y60100D02*
D03*
X151863Y60100D02*
D03*
X150710Y60100D02*
D03*
X149558Y60100D02*
D03*
X152473Y61300D02*
D03*
X151320Y61300D02*
D03*
X150168Y61300D02*
D03*
X149015Y61300D02*
D03*
X151930Y62500D02*
D03*
X150778Y62500D02*
D03*
X149625Y62500D02*
D03*
X148473Y62500D02*
D03*
X151388Y63700D02*
D03*
X150235Y63700D02*
D03*
X149083Y63700D02*
D03*
X147930Y63700D02*
D03*
X150746Y64900D02*
D03*
X149593Y64900D02*
D03*
X148441Y64900D02*
D03*
X147288Y64900D02*
D03*
X146646Y66100D02*
D03*
X147798Y66100D02*
D03*
X148951Y66100D02*
D03*
X150103Y66100D02*
D03*
X9997D02*
D03*
X11149Y66100D02*
D03*
X12302Y66100D02*
D03*
X13454Y66100D02*
D03*
X12812Y64900D02*
D03*
X11659Y64900D02*
D03*
X10507Y64900D02*
D03*
X9354Y64900D02*
D03*
X12170Y63700D02*
D03*
X11017Y63700D02*
D03*
X9865Y63700D02*
D03*
X8712Y63700D02*
D03*
X11627Y62500D02*
D03*
X10475Y62500D02*
D03*
X9322Y62500D02*
D03*
X8170Y62500D02*
D03*
X11085Y61300D02*
D03*
X9932Y61300D02*
D03*
X8780Y61300D02*
D03*
X7627Y61300D02*
D03*
X10542Y60100D02*
D03*
X9390Y60100D02*
D03*
X8237Y60100D02*
D03*
X7085Y60100D02*
D03*
X6542Y58900D02*
D03*
X7695Y58900D02*
D03*
X8847Y58900D02*
D03*
X10000Y58900D02*
D03*
X9658Y57700D02*
D03*
X8505Y57700D02*
D03*
X7353Y57700D02*
D03*
X6200Y57700D02*
D03*
X9188Y56400D02*
D03*
X8035Y56400D02*
D03*
X6883Y56400D02*
D03*
X5730Y56400D02*
D03*
X5388Y55200D02*
D03*
X6540Y55200D02*
D03*
X7693Y55200D02*
D03*
X8845Y55200D02*
D03*
X4945Y54000D02*
D03*
X6098Y54000D02*
D03*
X7250Y54000D02*
D03*
X8403Y54000D02*
D03*
X4603Y52800D02*
D03*
X5755D02*
D03*
X6908Y52800D02*
D03*
X8060Y52800D02*
D03*
X4160Y51600D02*
D03*
X5313Y51600D02*
D03*
X6466Y51600D02*
D03*
X7618Y51600D02*
D03*
X7276Y50400D02*
D03*
X6123Y50400D02*
D03*
X4971Y50400D02*
D03*
X3818Y50400D02*
D03*
X6933Y49200D02*
D03*
X5781Y49200D02*
D03*
X4628Y49200D02*
D03*
X3476Y49200D02*
D03*
X6591Y48000D02*
D03*
X5438Y48000D02*
D03*
X4286D02*
D03*
X3133Y48000D02*
D03*
X2791Y46800D02*
D03*
X3943Y46800D02*
D03*
X5096Y46800D02*
D03*
X6248Y46800D02*
D03*
X2548Y45600D02*
D03*
X3701Y45600D02*
D03*
X4854Y45600D02*
D03*
X6006D02*
D03*
X2306Y44400D02*
D03*
X3459Y44400D02*
D03*
X4611Y44400D02*
D03*
X5764Y44400D02*
D03*
X2064Y43200D02*
D03*
X3216Y43200D02*
D03*
X4369Y43200D02*
D03*
X5521Y43200D02*
D03*
X5379Y42000D02*
D03*
X4226D02*
D03*
X3074D02*
D03*
X1921Y42000D02*
D03*
X5236Y40800D02*
D03*
X4084Y40800D02*
D03*
X2931Y40800D02*
D03*
X1779Y40800D02*
D03*
X5094Y39600D02*
D03*
X3941Y39600D02*
D03*
X2789D02*
D03*
X1636D02*
D03*
X4952Y38400D02*
D03*
X3799Y38400D02*
D03*
X2647Y38400D02*
D03*
X1494Y38400D02*
D03*
X1352Y37200D02*
D03*
X2504Y37200D02*
D03*
X3657Y37200D02*
D03*
X4809Y37200D02*
D03*
X4667Y36000D02*
D03*
X3514D02*
D03*
X2362Y36000D02*
D03*
X1209Y36000D02*
D03*
X4624Y34800D02*
D03*
X3472Y34800D02*
D03*
X2319D02*
D03*
X1167Y34800D02*
D03*
X4482Y33600D02*
D03*
X3329Y33600D02*
D03*
X2177Y33600D02*
D03*
X1024Y33600D02*
D03*
X1082Y32400D02*
D03*
X4540Y32400D02*
D03*
X152747Y2200D02*
D03*
X150912Y3500D02*
D03*
X152065D02*
D03*
X153217D02*
D03*
X154370D02*
D03*
X155497Y7100D02*
D03*
X154345D02*
D03*
X153192D02*
D03*
X152040D02*
D03*
X155940Y8300D02*
D03*
X154787D02*
D03*
X153634D02*
D03*
X152482D02*
D03*
X152824Y9500D02*
D03*
X153977D02*
D03*
X155129D02*
D03*
X156282D02*
D03*
X153167Y10700D02*
D03*
X154319D02*
D03*
X155472D02*
D03*
X156624D02*
D03*
X153509Y11900D02*
D03*
X154662D02*
D03*
X155814D02*
D03*
X156967D02*
D03*
X157309Y13100D02*
D03*
X156157D02*
D03*
X155004D02*
D03*
X153852D02*
D03*
X157552Y14300D02*
D03*
X154579Y16700D02*
D03*
X154721Y17900D02*
D03*
X155874D02*
D03*
X154864Y19100D02*
D03*
X156016D02*
D03*
X157169D02*
D03*
X156158Y20300D02*
D03*
X157311D02*
D03*
X155148Y21500D02*
D03*
X156301D02*
D03*
X157453D02*
D03*
X158606D02*
D03*
X158748Y22700D02*
D03*
X157596D02*
D03*
X156443D02*
D03*
X155291D02*
D03*
X155433Y23900D02*
D03*
X156586D02*
D03*
X157738D02*
D03*
X158891D02*
D03*
X155476Y25100D02*
D03*
X156628D02*
D03*
X157781D02*
D03*
X158933D02*
D03*
X155618Y26300D02*
D03*
X156771D02*
D03*
X157923D02*
D03*
X159076D02*
D03*
X159018Y27500D02*
D03*
X155560D02*
D03*
X4540D02*
D03*
X1082D02*
D03*
X1024Y26300D02*
D03*
X2177D02*
D03*
X3329D02*
D03*
X4482D02*
D03*
X1167Y25100D02*
D03*
X2319D02*
D03*
X3472D02*
D03*
X4624D02*
D03*
X1209Y23900D02*
D03*
X2362D02*
D03*
X3514D02*
D03*
X4667D02*
D03*
X4809Y22700D02*
D03*
X3657D02*
D03*
X2504D02*
D03*
X1352D02*
D03*
X1494Y21500D02*
D03*
X2647D02*
D03*
X3799D02*
D03*
X4952D02*
D03*
X1636Y20300D02*
D03*
X2789D02*
D03*
X3941D02*
D03*
X5094D02*
D03*
X1779Y19100D02*
D03*
X2931D02*
D03*
X4084D02*
D03*
X5236D02*
D03*
X1921Y17900D02*
D03*
X3074D02*
D03*
X4226D02*
D03*
X5379D02*
D03*
X5521Y16700D02*
D03*
X4369D02*
D03*
X3216D02*
D03*
X2064D02*
D03*
X5764Y15500D02*
D03*
X4611D02*
D03*
X3459D02*
D03*
X2306D02*
D03*
X6006Y14300D02*
D03*
X4854D02*
D03*
X3701D02*
D03*
X2548D02*
D03*
X6248Y13100D02*
D03*
X5096D02*
D03*
X3943D02*
D03*
X2791D02*
D03*
X3133Y11900D02*
D03*
X4286D02*
D03*
X5438D02*
D03*
X6591D02*
D03*
X3476Y10700D02*
D03*
X4628D02*
D03*
X5781D02*
D03*
X6933D02*
D03*
X3818Y9500D02*
D03*
X4971D02*
D03*
X6123D02*
D03*
X7276D02*
D03*
X7618Y8300D02*
D03*
X6466D02*
D03*
X5313D02*
D03*
X4160D02*
D03*
X8060Y7100D02*
D03*
X6908D02*
D03*
X5755D02*
D03*
X4603D02*
D03*
X8403Y5900D02*
D03*
X7250D02*
D03*
X6098D02*
D03*
X4945D02*
D03*
X8845Y4700D02*
D03*
X7693D02*
D03*
X6540D02*
D03*
X5388D02*
D03*
X5730Y3500D02*
D03*
X6883D02*
D03*
X8035D02*
D03*
X9188D02*
D03*
X6200Y2200D02*
D03*
X7353D02*
D03*
X8505D02*
D03*
X9658D02*
D03*
X10000Y1000D02*
D03*
X8847D02*
D03*
X7695D02*
D03*
X6542D02*
D03*
X155618Y33600D02*
D03*
X104679Y101509D02*
D03*
X100514Y103894D02*
D03*
X99303Y104198D02*
D03*
X101148Y102592D02*
D03*
X102358Y102289D02*
D03*
X103519Y101899D02*
D03*
X102934Y103287D02*
D03*
X108060Y100165D02*
D03*
X106950Y100642D02*
D03*
X55421Y101509D02*
D03*
X56005Y102897D02*
D03*
X54845Y102507D02*
D03*
X56581Y101899D02*
D03*
X57742Y102289D02*
D03*
X57166Y103287D02*
D03*
X65054Y104023D02*
D03*
X65739Y105238D02*
D03*
X74970Y108649D02*
D03*
X75546Y107651D02*
D03*
X73609Y108606D02*
D03*
X72299Y108475D02*
D03*
X69678Y108215D02*
D03*
X70989Y108345D02*
D03*
X68944Y107086D02*
D03*
X68368Y108084D02*
D03*
X67734Y106783D02*
D03*
X67157Y107781D02*
D03*
X66373Y106540D02*
D03*
X65796Y107538D02*
D03*
X65162Y106236D02*
D03*
X63902Y106019D02*
D03*
X64586Y107234D02*
D03*
X64478Y105021D02*
D03*
X63268Y104718D02*
D03*
X62584Y103503D02*
D03*
X63844Y103720D02*
D03*
X61373Y103199D02*
D03*
X62007Y104501D02*
D03*
X150442Y2200D02*
D03*
X151253Y1000D02*
D03*
X150100D02*
D03*
X151595Y2200D02*
D03*
X53684Y102117D02*
D03*
X51998Y102638D02*
D03*
X52574Y101640D02*
D03*
X53150Y100642D02*
D03*
X16689Y76995D02*
D03*
X15153Y74855D02*
D03*
X16497Y74927D02*
D03*
X15921Y75925D02*
D03*
X15729Y73857D02*
D03*
X17649Y72931D02*
D03*
X17073Y73929D02*
D03*
X16881Y71861D02*
D03*
X115683Y96569D02*
D03*
D122*
X63375Y21422D02*
D03*
X64025Y21422D02*
D03*
X64675D02*
D03*
X65325Y21422D02*
D03*
X63375Y16972D02*
D03*
X64025Y16972D02*
D03*
X64675Y16972D02*
D03*
X65325D02*
D03*
X63375Y32425D02*
D03*
X64025Y32425D02*
D03*
X64675Y32425D02*
D03*
X65325D02*
D03*
X63375Y27975D02*
D03*
X64025Y27975D02*
D03*
X64675Y27975D02*
D03*
X65325Y27975D02*
D03*
X46118Y20272D02*
D03*
X45468D02*
D03*
X44818D02*
D03*
X44168D02*
D03*
X46118Y24722D02*
D03*
X45468Y24722D02*
D03*
X44818D02*
D03*
X44168Y24722D02*
D03*
X46107Y31300D02*
D03*
X45457Y31300D02*
D03*
X44807Y31300D02*
D03*
X44157D02*
D03*
X46107Y35750D02*
D03*
X45457Y35750D02*
D03*
X44807Y35750D02*
D03*
X44157D02*
D03*
X46105Y42299D02*
D03*
X45455D02*
D03*
X44805D02*
D03*
X44155D02*
D03*
X46105Y46749D02*
D03*
X45455Y46749D02*
D03*
X44805Y46749D02*
D03*
X44155Y46749D02*
D03*
X63320Y43442D02*
D03*
X63970D02*
D03*
X64619D02*
D03*
X65270D02*
D03*
X63320Y38992D02*
D03*
X63970D02*
D03*
X64619Y38992D02*
D03*
X65270Y38992D02*
D03*
X46105Y53274D02*
D03*
X45455D02*
D03*
X44805D02*
D03*
X44155D02*
D03*
X46105Y57724D02*
D03*
X45455Y57724D02*
D03*
X44805D02*
D03*
X44155Y57724D02*
D03*
X63305Y54449D02*
D03*
X63955D02*
D03*
X64605D02*
D03*
X65255D02*
D03*
X63305Y49999D02*
D03*
X63955D02*
D03*
X64605Y49999D02*
D03*
X65255Y49999D02*
D03*
X63460Y65450D02*
D03*
X64110D02*
D03*
X64760Y65450D02*
D03*
X65410Y65450D02*
D03*
X63460Y61000D02*
D03*
X64110Y61000D02*
D03*
X64760Y61000D02*
D03*
X65410D02*
D03*
X46087Y64300D02*
D03*
X45437D02*
D03*
X44787D02*
D03*
X44137D02*
D03*
X46087Y68750D02*
D03*
X45437Y68750D02*
D03*
X44787Y68750D02*
D03*
X44137D02*
D03*
D123*
X87480Y61085D02*
D03*
X83280D02*
D03*
Y66165D02*
D03*
X87480Y66165D02*
D03*
D127*
X82425Y97450D02*
D03*
X85625D02*
D03*
D129*
X39400Y4850D02*
X45400D01*
X36225Y8025D02*
X39400Y4850D01*
X36225Y8025D02*
Y17275D01*
X28675Y24825D02*
X36225Y17275D01*
X107051Y6010D02*
X108470D01*
X110265Y4215D01*
X105816Y4775D02*
X107051Y6010D01*
X98002Y4775D02*
X105816D01*
X90675Y5925D02*
X96852D01*
X87225D02*
X90675D01*
X90659Y5910D02*
X90675Y5925D01*
X90659Y4215D02*
Y5910D01*
X96852Y5925D02*
X98002Y4775D01*
X86100Y4800D02*
X87225Y5925D01*
X78377Y4800D02*
X86100D01*
X71050Y6000D02*
X77177D01*
X78377Y4800D01*
X67775Y6000D02*
X71050D01*
X66400Y4625D02*
X67775Y6000D01*
X59100Y4625D02*
X66400D01*
X71050Y6000D02*
X71060Y5990D01*
Y4215D02*
Y5990D01*
X51426Y5925D02*
X57800D01*
X59100Y4625D01*
X27661Y59436D02*
Y61750D01*
X27600Y59375D02*
X27661Y59436D01*
X27600Y59375D02*
X29100D01*
X29175D01*
X30125Y58425D01*
X111535Y1675D02*
Y2945D01*
X110265Y4215D02*
X111535Y2945D01*
X91930Y1675D02*
Y2945D01*
X90659Y4215D02*
X91930Y2945D01*
X72330Y1675D02*
Y2945D01*
X71060Y4215D02*
X72330Y2945D01*
X52696Y1675D02*
Y2945D01*
X51426Y4215D02*
X52696Y2945D01*
X28675Y24825D02*
Y56975D01*
X30125Y58425D01*
X51426Y4215D02*
Y5925D01*
X45400Y4850D02*
X46475Y5925D01*
X51426D01*
X138375Y8890D02*
X146094D01*
X146101Y8883D01*
X138375Y6890D02*
X146094D01*
X146101Y6883D01*
X138375Y4890D02*
X146094D01*
X146101Y4883D01*
D131*
X63970Y44720D02*
X63975Y44725D01*
X63970Y43442D02*
Y44720D01*
X65270Y44720D02*
X65275Y44725D01*
X65270Y43442D02*
Y44720D01*
X65325Y33715D02*
X65335Y33725D01*
X65325Y32425D02*
Y33715D01*
X64025Y33725D02*
X64025Y33725D01*
Y32425D02*
Y33725D01*
X65325Y22715D02*
X65335Y22725D01*
X65325Y21422D02*
Y22715D01*
X64025Y22725D02*
X64025Y22725D01*
Y21422D02*
Y22725D01*
X63460Y64107D02*
X63460Y64107D01*
Y65450D01*
X64760Y64107D02*
X64760Y64107D01*
Y65450D01*
X63460Y64082D02*
X63460Y64082D01*
X64110Y65450D02*
Y66750D01*
X65410Y65450D02*
Y66750D01*
X46075Y65700D02*
X46087Y65688D01*
Y64300D02*
Y65688D01*
X44775Y65675D02*
X44787Y65663D01*
Y64300D02*
Y65663D01*
X45437Y63019D02*
X45450Y63006D01*
X45437Y63019D02*
Y64300D01*
X44137Y63006D02*
X44137Y63006D01*
X44137Y63006D02*
Y64300D01*
X63375Y31125D02*
Y32425D01*
Y31125D02*
X63375Y31125D01*
X64675Y31125D02*
Y32425D01*
X64675Y31125D02*
X64675Y31125D01*
X65255Y54449D02*
Y55749D01*
X63955D02*
X63955Y55749D01*
Y54449D02*
Y55749D01*
X63305Y53149D02*
X63305Y53149D01*
X63305Y53149D02*
Y54449D01*
X64596Y53149D02*
X64605Y53159D01*
Y54449D01*
X44168Y18979D02*
Y20272D01*
X45468Y18979D02*
Y20272D01*
X45457Y30000D02*
Y31300D01*
X44157Y30000D02*
X44157Y30000D01*
X44157Y30000D02*
Y31300D01*
X45455Y51952D02*
Y53274D01*
X44155Y51949D02*
X44155Y51949D01*
X44155Y51949D02*
Y53274D01*
X45455D02*
X45462Y53267D01*
X45455Y41001D02*
Y42299D01*
X44155Y41006D02*
X44162Y40999D01*
X44155Y41006D02*
Y42299D01*
X46105D02*
Y43599D01*
X44805D02*
X44805Y43599D01*
Y42299D02*
Y43599D01*
X45455Y41001D02*
X45457Y40999D01*
X45455Y51952D02*
X45462Y51945D01*
D132*
X135975Y2050D02*
X148500D01*
X135284Y2741D02*
X135975Y2050D01*
X135284Y2741D02*
Y10666D01*
X136757D01*
X54733Y40750D02*
Y44867D01*
Y33825D02*
Y40750D01*
Y29950D02*
Y33825D01*
Y22775D02*
Y29950D01*
Y19075D02*
Y22775D01*
Y13858D02*
Y19075D01*
X54725Y13850D02*
X54733Y13858D01*
X108481Y13850D02*
X111125D01*
X93925D02*
X108481D01*
X89025D02*
X93925D01*
X74275D02*
X89025D01*
X69425D02*
X74275D01*
X54725D02*
X69425D01*
X51300D02*
X54725D01*
X49975Y12525D02*
X51300Y13850D01*
X54801Y44951D02*
Y55874D01*
X54725Y62550D02*
Y65850D01*
X54775Y55900D02*
Y62500D01*
X54725Y65850D02*
X55750Y66875D01*
X111125Y13850D02*
X111174Y13899D01*
X120186D01*
X122560Y11525D01*
X124125D01*
X126300Y13700D01*
X132250D01*
X135284Y10666D01*
D133*
X55236Y1675D02*
D03*
X86850Y1675D02*
D03*
X94470D02*
D03*
X93199Y4215D02*
D03*
X90659Y4215D02*
D03*
X91930Y1675D02*
D03*
X89390D02*
D03*
X88119Y4215D02*
D03*
X107725D02*
D03*
X108995Y1675D02*
D03*
X111535D02*
D03*
X110265Y4215D02*
D03*
X112805Y4215D02*
D03*
X114075Y1675D02*
D03*
X106455D02*
D03*
X67250Y1675D02*
D03*
X74870D02*
D03*
X73600Y4215D02*
D03*
X71060Y4215D02*
D03*
X72330Y1675D02*
D03*
X69790D02*
D03*
X68520Y4215D02*
D03*
X48886Y4215D02*
D03*
X50156Y1675D02*
D03*
X52696D02*
D03*
X51426Y4215D02*
D03*
X53966Y4215D02*
D03*
X47616Y1675D02*
D03*
D134*
X56506Y4215D02*
D03*
X95739Y4215D02*
D03*
X115345D02*
D03*
X76140Y4215D02*
D03*
D135*
X2550Y29950D02*
D03*
X12933Y68700D02*
D03*
X41300Y97067D02*
D03*
X80050Y107450D02*
D03*
X118800Y97067D02*
D03*
X147167Y68700D02*
D03*
X157550Y29950D02*
D03*
D136*
X86575Y100609D02*
D03*
X84035D02*
D03*
X81495Y100609D02*
D03*
X78955Y100609D02*
D03*
X129070Y4155D02*
D03*
Y6695D02*
D03*
Y9235D02*
D03*
Y11775D02*
D03*
D137*
X93140Y97850D02*
D03*
X121135Y66226D02*
D03*
X99375Y97850D02*
D03*
D138*
X99170Y7625D02*
D03*
X83420D02*
D03*
X103025D02*
D03*
X118775D02*
D03*
X79570Y7625D02*
D03*
X63820D02*
D03*
X44186Y7625D02*
D03*
X59936D02*
D03*
D139*
X85570Y10575D02*
D03*
X97000Y10575D02*
D03*
X116605D02*
D03*
X105175Y10575D02*
D03*
X65970Y10575D02*
D03*
X77400Y10575D02*
D03*
X57766Y10575D02*
D03*
X46336Y10575D02*
D03*
D140*
X28428Y5125D02*
D03*
X14428D02*
D03*
X17928D02*
D03*
X21428D02*
D03*
X24928D02*
D03*
D141*
X113264Y88957D02*
D03*
D142*
X63375Y20075D02*
D03*
X111320Y91325D02*
D03*
X111600Y65300D02*
D03*
Y64363D02*
D03*
X134467Y63475D02*
D03*
X108200Y67150D02*
D03*
X141622Y40450D02*
D03*
Y47900D02*
D03*
X132400Y48180D02*
D03*
X90340Y64691D02*
D03*
X49807Y48758D02*
D03*
X49750Y26525D02*
D03*
X49850Y37757D02*
D03*
X63540Y95675D02*
D03*
X84165Y55862D02*
D03*
Y56862D02*
D03*
X100825Y95275D02*
D03*
X101825D02*
D03*
X109325Y83075D02*
D03*
X108275D02*
D03*
X107300Y83125D02*
D03*
X67125Y36575D02*
D03*
X100516Y28460D02*
D03*
X104275D02*
D03*
X102442Y27225D02*
D03*
X29825Y32850D02*
D03*
X23125Y32851D02*
D03*
X19155Y32900D02*
D03*
X29825Y34625D02*
D03*
X21300Y32883D02*
D03*
X22900Y34700D02*
D03*
X19925Y35035D02*
D03*
X17700Y33647D02*
D03*
X15825Y33024D02*
D03*
X38800Y38225D02*
D03*
X36250D02*
D03*
X37500Y35725D02*
D03*
X139922Y66390D02*
D03*
X140157Y67500D02*
D03*
X140925Y68228D02*
D03*
X128550Y77085D02*
D03*
X27661Y61750D02*
D03*
X27600Y59375D02*
D03*
X30125Y58425D02*
D03*
X29100Y59375D02*
D03*
X30500Y79650D02*
D03*
X32775Y77275D02*
D03*
X34907Y79675D02*
D03*
X32694Y79625D02*
D03*
X28181Y78425D02*
D03*
X28595Y14787D02*
D03*
X70623Y19342D02*
D03*
X71475Y20232D02*
D03*
X70625Y21117D02*
D03*
X69625D02*
D03*
X69610Y19392D02*
D03*
X68772Y20225D02*
D03*
X42150Y9716D02*
D03*
X41275Y10597D02*
D03*
X37650Y9747D02*
D03*
X34146Y13097D02*
D03*
X34921Y13900D02*
D03*
X34146Y14697D02*
D03*
X34146Y12108D02*
D03*
X34921Y11311D02*
D03*
X34146Y10507D02*
D03*
X118081Y15875D02*
D03*
X117100Y17825D02*
D03*
X116256Y16875D02*
D03*
X117100Y16000D02*
D03*
X41600Y16436D02*
D03*
X40500Y16425D02*
D03*
X39528Y17225D02*
D03*
X37725Y15450D02*
D03*
Y19047D02*
D03*
X34169Y21375D02*
D03*
X30000Y21325D02*
D03*
X118981Y16875D02*
D03*
X118081Y17850D02*
D03*
X40025Y6852D02*
D03*
X40450Y9749D02*
D03*
X38475Y10591D02*
D03*
X31900Y7785D02*
D03*
X39780Y30225D02*
D03*
X40300Y25194D02*
D03*
Y26783D02*
D03*
X38000Y25200D02*
D03*
Y26750D02*
D03*
X39145Y25975D02*
D03*
X39528Y32100D02*
D03*
X36175Y35250D02*
D03*
X33821D02*
D03*
X35025Y34153D02*
D03*
X65275Y44725D02*
D03*
X63975D02*
D03*
X65335Y33725D02*
D03*
X64025D02*
D03*
X127829Y53979D02*
D03*
X94043Y54557D02*
D03*
X93020Y53975D02*
D03*
X81650Y51975D02*
D03*
Y54725D02*
D03*
Y53475D02*
D03*
Y55737D02*
D03*
X67499Y60374D02*
D03*
X127821Y49150D02*
D03*
X118902Y56035D02*
D03*
X67525Y49805D02*
D03*
X126400Y49050D02*
D03*
X99444Y48140D02*
D03*
X125650Y49800D02*
D03*
X128835Y48280D02*
D03*
X130050Y48275D02*
D03*
X126097Y53650D02*
D03*
Y50825D02*
D03*
X131600Y50775D02*
D03*
X120100Y45650D02*
D03*
X124646D02*
D03*
X125925Y42525D02*
D03*
X67225Y27458D02*
D03*
X127350Y42525D02*
D03*
X42950Y12700D02*
D03*
X76300Y89900D02*
D03*
X53875Y70900D02*
D03*
X65335Y22725D02*
D03*
X64025D02*
D03*
X64760Y64107D02*
D03*
X63460Y64107D02*
D03*
X65410Y68525D02*
D03*
X64114Y68520D02*
D03*
X65410Y66750D02*
D03*
X64110D02*
D03*
X44125Y61062D02*
D03*
X45432Y61050D02*
D03*
X46075Y65700D02*
D03*
X44775Y65675D02*
D03*
X45450Y63006D02*
D03*
X44137D02*
D03*
X69272Y72297D02*
D03*
X77250Y29525D02*
D03*
X89554Y41951D02*
D03*
X81504Y72475D02*
D03*
X86675Y58190D02*
D03*
X86950Y47850D02*
D03*
X66850Y79500D02*
D03*
X63250Y89950D02*
D03*
X79525Y81125D02*
D03*
X80551Y81133D02*
D03*
X64025Y35575D02*
D03*
X65325D02*
D03*
X65255Y55749D02*
D03*
X63955D02*
D03*
X64596Y53149D02*
D03*
X63305D02*
D03*
X63319Y42075D02*
D03*
X64625Y42074D02*
D03*
X63969Y46649D02*
D03*
X65270D02*
D03*
X46125Y21600D02*
D03*
X44818D02*
D03*
X44168Y18979D02*
D03*
X45468D02*
D03*
X46107Y32650D02*
D03*
X44800D02*
D03*
X45457Y30000D02*
D03*
X44157D02*
D03*
X124705Y47180D02*
D03*
X123900Y48497D02*
D03*
X115197Y48475D02*
D03*
X116475Y47775D02*
D03*
X83432Y34850D02*
D03*
X82376D02*
D03*
X63375Y31125D02*
D03*
X64675Y31125D02*
D03*
X65255Y57674D02*
D03*
X63955Y57649D02*
D03*
X64675Y20075D02*
D03*
X64025Y24647D02*
D03*
X65335Y24647D02*
D03*
X44150Y17038D02*
D03*
X45450Y17022D02*
D03*
X44150Y28075D02*
D03*
X45449D02*
D03*
X44155Y51949D02*
D03*
Y50060D02*
D03*
X44162Y40999D02*
D03*
X46105Y43599D02*
D03*
X44805D02*
D03*
X44155Y39124D02*
D03*
X45455Y39074D02*
D03*
X85150Y30400D02*
D03*
X77175Y91113D02*
D03*
X116875Y90450D02*
D03*
X126425Y78225D02*
D03*
X125675Y79025D02*
D03*
X122415Y74050D02*
D03*
X121675Y73325D02*
D03*
X117338Y92188D02*
D03*
X65975Y88366D02*
D03*
X67450Y90300D02*
D03*
X67157Y88875D02*
D03*
X65650Y89483D02*
D03*
X118775Y91400D02*
D03*
X118177Y92775D02*
D03*
X108250Y91312D02*
D03*
X109225Y91325D02*
D03*
X110281D02*
D03*
X107330Y91500D02*
D03*
X108299Y86525D02*
D03*
X109375Y86575D02*
D03*
X106300Y86475D02*
D03*
X107325Y86525D02*
D03*
X111200Y86600D02*
D03*
X99450Y91352D02*
D03*
X89455Y91346D02*
D03*
X83280Y67600D02*
D03*
X83412Y57972D02*
D03*
X85955Y59000D02*
D03*
X87700Y58275D02*
D03*
X90815Y58254D02*
D03*
X92888Y61095D02*
D03*
X92565Y59052D02*
D03*
X85950Y47850D02*
D03*
X90975Y56490D02*
D03*
X94700Y47625D02*
D03*
X93475Y51300D02*
D03*
X120052Y61595D02*
D03*
Y62600D02*
D03*
Y63607D02*
D03*
X104850Y63837D02*
D03*
X104006Y66439D02*
D03*
X102168Y67250D02*
D03*
X100135Y67225D02*
D03*
X99237D02*
D03*
X98235Y67200D02*
D03*
X95390Y66446D02*
D03*
X90340Y65757D02*
D03*
X92915D02*
D03*
X90365Y63566D02*
D03*
X92940Y63569D02*
D03*
X101206Y53757D02*
D03*
X90402Y61095D02*
D03*
X90980Y53975D02*
D03*
X93815Y55750D02*
D03*
X92040Y53969D02*
D03*
X59825Y95675D02*
D03*
X57814Y94800D02*
D03*
X56825D02*
D03*
X55414Y91485D02*
D03*
X53614Y91500D02*
D03*
X58800Y95700D02*
D03*
X48214Y94550D02*
D03*
X51814Y91485D02*
D03*
X50000Y94575D02*
D03*
X51214Y94775D02*
D03*
X52364Y94800D02*
D03*
X60175Y86525D02*
D03*
X59150D02*
D03*
X52114Y83350D02*
D03*
X50311D02*
D03*
X50400Y88574D02*
D03*
X92800Y41951D02*
D03*
X83455Y48255D02*
D03*
Y51275D02*
D03*
X93955Y48250D02*
D03*
X95445Y51300D02*
D03*
X105744Y41907D02*
D03*
X116350Y66075D02*
D03*
X116750Y67625D02*
D03*
X119007Y76675D02*
D03*
X117737D02*
D03*
X116467D02*
D03*
X115197D02*
D03*
X113918Y74150D02*
D03*
X113925Y69425D02*
D03*
X75042Y65100D02*
D03*
X76550Y63600D02*
D03*
X73525Y63550D02*
D03*
X68500Y69325D02*
D03*
X71737Y70295D02*
D03*
X67425Y65675D02*
D03*
X68500Y67770D02*
D03*
X70000Y69350D02*
D03*
X74167Y70500D02*
D03*
X78425Y65230D02*
D03*
X81638D02*
D03*
X78425Y64230D02*
D03*
X81650Y64175D02*
D03*
X81638Y63150D02*
D03*
Y61975D02*
D03*
Y61000D02*
D03*
X75375Y61700D02*
D03*
Y60700D02*
D03*
Y58700D02*
D03*
X78450Y58740D02*
D03*
X81650D02*
D03*
Y56975D02*
D03*
X108415Y60975D02*
D03*
Y63144D02*
D03*
X111575Y62975D02*
D03*
Y61975D02*
D03*
X108412D02*
D03*
X114600Y61750D02*
D03*
X108400Y51975D02*
D03*
X108412Y58720D02*
D03*
X114600Y58775D02*
D03*
X111575Y58720D02*
D03*
X108400Y56975D02*
D03*
Y54732D02*
D03*
Y55735D02*
D03*
X111575Y54720D02*
D03*
X108400Y53475D02*
D03*
X82455Y48250D02*
D03*
Y51275D02*
D03*
X94470Y51475D02*
D03*
X89455Y51270D02*
D03*
X90450Y51290D02*
D03*
X89455Y48250D02*
D03*
X90450D02*
D03*
X92200Y51275D02*
D03*
X96450Y51300D02*
D03*
X95445Y48250D02*
D03*
X97700Y51290D02*
D03*
X106200Y48275D02*
D03*
X107700Y48250D02*
D03*
X107450Y51275D02*
D03*
X106450D02*
D03*
X117877Y67346D02*
D03*
X118902Y67350D02*
D03*
X89544Y38813D02*
D03*
X86308Y38788D02*
D03*
X87919Y37838D02*
D03*
X91184Y39401D02*
D03*
X94390Y37787D02*
D03*
X92760Y38812D02*
D03*
X96007Y38805D02*
D03*
X110680Y39300D02*
D03*
X112300Y41856D02*
D03*
X109050Y41850D02*
D03*
X109014Y38718D02*
D03*
X99247Y38812D02*
D03*
X105746Y38729D02*
D03*
X107376Y37700D02*
D03*
X104119Y39307D02*
D03*
X102494Y41895D02*
D03*
X96034Y41963D02*
D03*
X99278Y41993D02*
D03*
X102488Y38737D02*
D03*
X99043Y57337D02*
D03*
X95943Y60566D02*
D03*
X102254Y60532D02*
D03*
X99168Y63707D02*
D03*
X95993D02*
D03*
X95943Y57457D02*
D03*
X102193Y57432D02*
D03*
X102168Y63707D02*
D03*
X99085Y60587D02*
D03*
X96643Y53520D02*
D03*
X94040Y53532D02*
D03*
X96603Y54532D02*
D03*
X97343Y55147D02*
D03*
X98040Y53769D02*
D03*
X101206Y54782D02*
D03*
X103093Y54182D02*
D03*
X102068D02*
D03*
X108730Y26400D02*
D03*
X108750Y21725D02*
D03*
X102430Y26450D02*
D03*
X102420Y21775D02*
D03*
X96080Y26350D02*
D03*
X96056Y21650D02*
D03*
X89655Y26350D02*
D03*
X89700Y21689D02*
D03*
X39325Y86400D02*
D03*
Y82750D02*
D03*
X37750Y61025D02*
D03*
X39900Y59236D02*
D03*
X41975Y61075D02*
D03*
X23425Y66450D02*
D03*
X23050Y53065D02*
D03*
X34300Y67100D02*
D03*
Y65800D02*
D03*
Y64300D02*
D03*
X33425Y72075D02*
D03*
Y73700D02*
D03*
X31100Y72150D02*
D03*
Y73725D02*
D03*
X32264Y72917D02*
D03*
X29071Y71331D02*
D03*
X37376Y82984D02*
D03*
X35000Y84275D02*
D03*
X30500D02*
D03*
X32694Y82950D02*
D03*
X24650Y64075D02*
D03*
X23278Y61771D02*
D03*
X24625Y59450D02*
D03*
X27450Y53650D02*
D03*
X27465Y55300D02*
D03*
X25100Y53679D02*
D03*
Y55300D02*
D03*
X26276Y54485D02*
D03*
X15775Y64150D02*
D03*
X16958D02*
D03*
X81571Y22450D02*
D03*
X82601D02*
D03*
X104665Y57497D02*
D03*
X104676Y58491D02*
D03*
X100445Y48165D02*
D03*
Y51290D02*
D03*
X99444D02*
D03*
X104483Y31500D02*
D03*
X100450Y31510D02*
D03*
X89720Y32850D02*
D03*
X96081Y32875D02*
D03*
X102424Y32900D02*
D03*
X108775Y32850D02*
D03*
X106890Y56407D02*
D03*
X107265Y59497D02*
D03*
Y58509D02*
D03*
X107265Y57491D02*
D03*
X104701Y59510D02*
D03*
X37179Y52675D02*
D03*
X37300Y47925D02*
D03*
X39225Y50325D02*
D03*
X36100Y44997D02*
D03*
X38900Y45000D02*
D03*
X76467Y25150D02*
D03*
X78514Y25175D02*
D03*
X79544D02*
D03*
X80575D02*
D03*
X83625D02*
D03*
X82675Y30395D02*
D03*
X85130Y31450D02*
D03*
Y29375D02*
D03*
X77775Y28850D02*
D03*
X77250Y30375D02*
D03*
Y31225D02*
D03*
X78000Y32750D02*
D03*
X78369Y33525D02*
D03*
X83432Y32375D02*
D03*
X79270Y34850D02*
D03*
X21100Y74000D02*
D03*
X22650Y76450D02*
D03*
X17025Y67600D02*
D03*
X18375Y69125D02*
D03*
X15900Y65825D02*
D03*
X18462Y70050D02*
D03*
X19850Y72450D02*
D03*
X19688Y71561D02*
D03*
X21450Y74900D02*
D03*
X9275Y9321D02*
D03*
X10575Y10475D02*
D03*
X11725Y9375D02*
D03*
X12950Y10475D02*
D03*
X14275Y9339D02*
D03*
X97649Y39438D02*
D03*
X100852Y37757D02*
D03*
X18255Y66125D02*
D03*
X22007Y52083D02*
D03*
X23022Y52090D02*
D03*
X22025Y47625D02*
D03*
X23022D02*
D03*
X27408Y48562D02*
D03*
X27425Y49557D02*
D03*
X35997Y63315D02*
D03*
X37250Y58860D02*
D03*
X37300Y56817D02*
D03*
X35964Y54425D02*
D03*
X17725Y40950D02*
D03*
X19959Y39554D02*
D03*
X15475Y39570D02*
D03*
X36940Y89075D02*
D03*
X50350Y86832D02*
D03*
X48525Y87600D02*
D03*
X51262Y81775D02*
D03*
X52364Y80625D02*
D03*
X51268Y79423D02*
D03*
X51243Y71748D02*
D03*
X52339Y72950D02*
D03*
X51237Y74100D02*
D03*
X77329Y77513D02*
D03*
X126979Y11475D02*
D03*
X120075Y11425D02*
D03*
X131825Y11732D02*
D03*
X121200Y17525D02*
D03*
X125011Y17044D02*
D03*
X122486Y18297D02*
D03*
X124986Y22107D02*
D03*
X123507Y22187D02*
D03*
X125042Y27119D02*
D03*
Y28394D02*
D03*
X122711Y29644D02*
D03*
X123311Y37100D02*
D03*
Y33494D02*
D03*
X140661Y24875D02*
D03*
X138950Y31485D02*
D03*
X138078Y33950D02*
D03*
X138989Y20206D02*
D03*
X138156Y17800D02*
D03*
X138161Y22575D02*
D03*
X137643Y17044D02*
D03*
X137650Y28344D02*
D03*
X138088Y29129D02*
D03*
X137643Y27119D02*
D03*
X140450Y36495D02*
D03*
X140439Y34875D02*
D03*
X140675Y23300D02*
D03*
X123511Y25869D02*
D03*
X140375Y70725D02*
D03*
X137716Y64200D02*
D03*
X134050Y64425D02*
D03*
X136832Y60225D02*
D03*
X136432Y62475D02*
D03*
X132125Y61874D02*
D03*
X132025Y60768D02*
D03*
X132396Y58450D02*
D03*
X134721Y58075D02*
D03*
X139178Y65675D02*
D03*
X138473Y64900D02*
D03*
X137025Y63425D02*
D03*
X119275Y80851D02*
D03*
X123100Y74978D02*
D03*
X122300Y75754D02*
D03*
X127125Y79275D02*
D03*
X129425Y78800D02*
D03*
X126600Y81600D02*
D03*
X131500Y80825D02*
D03*
X131250Y83325D02*
D03*
X128773Y83742D02*
D03*
X133354Y40075D02*
D03*
X134981Y38450D02*
D03*
X135325Y49950D02*
D03*
X132450D02*
D03*
X140950Y39275D02*
D03*
X144175Y37650D02*
D03*
X131575Y53750D02*
D03*
X124850Y33475D02*
D03*
X124500Y30475D02*
D03*
X123116Y39800D02*
D03*
X122250Y39050D02*
D03*
X121125Y20175D02*
D03*
X122250D02*
D03*
X124246Y19125D02*
D03*
X45725Y71100D02*
D03*
X149300Y41300D02*
D03*
X137167Y38443D02*
D03*
X137171Y48552D02*
D03*
X108415Y64413D02*
D03*
X114600Y59775D02*
D03*
Y60750D02*
D03*
X132570Y41862D02*
D03*
X133972Y41875D02*
D03*
X128847Y50800D02*
D03*
X120825Y49425D02*
D03*
X123800D02*
D03*
X129531Y61050D02*
D03*
X127750Y62540D02*
D03*
X125050Y63687D02*
D03*
X129432Y62506D02*
D03*
X129531Y58250D02*
D03*
X105425Y82550D02*
D03*
X103475Y97800D02*
D03*
X104595Y97864D02*
D03*
X102514Y83300D02*
D03*
X100714Y83325D02*
D03*
X106114Y91475D02*
D03*
Y94600D02*
D03*
X107314D02*
D03*
X108225Y94800D02*
D03*
X109195Y94825D02*
D03*
X110300Y94775D02*
D03*
X111320D02*
D03*
X111299Y83075D02*
D03*
X105950Y83255D02*
D03*
X106464Y82536D02*
D03*
X91902Y82700D02*
D03*
X92925Y82725D02*
D03*
X97125Y86300D02*
D03*
X95335D02*
D03*
X93514Y86325D02*
D03*
X91714Y86289D02*
D03*
X90450Y91346D02*
D03*
X91435Y91350D02*
D03*
X92450Y91346D02*
D03*
X93450Y91355D02*
D03*
X94450Y91346D02*
D03*
X95445Y91355D02*
D03*
X96425Y91352D02*
D03*
X97450D02*
D03*
X98450Y91355D02*
D03*
X100445D02*
D03*
X101450D02*
D03*
X102450D02*
D03*
X103450D02*
D03*
X104450Y89125D02*
D03*
X100100Y94735D02*
D03*
X102550Y94725D02*
D03*
X98625Y94550D02*
D03*
X96835Y94567D02*
D03*
X95014Y94606D02*
D03*
X93200Y94567D02*
D03*
X78150Y79275D02*
D03*
X82925Y82300D02*
D03*
X81900Y82325D02*
D03*
X83194Y78225D02*
D03*
X112975Y74062D02*
D03*
Y73000D02*
D03*
X116775Y45325D02*
D03*
X117700Y43136D02*
D03*
X115725Y41775D02*
D03*
X120125Y42925D02*
D03*
X119575Y38760D02*
D03*
X117675Y37350D02*
D03*
X115750Y38775D02*
D03*
X120125Y40350D02*
D03*
X123175Y53225D02*
D03*
X118025Y48650D02*
D03*
X113575Y48495D02*
D03*
X123500Y54625D02*
D03*
X122000Y55969D02*
D03*
X118900Y54765D02*
D03*
X111575Y55720D02*
D03*
Y56720D02*
D03*
X91414Y94525D02*
D03*
X89614Y94506D02*
D03*
X87814Y94525D02*
D03*
X83925Y94800D02*
D03*
X82414Y94525D02*
D03*
X80625Y94480D02*
D03*
X79125Y94775D02*
D03*
X79570Y91125D02*
D03*
X79625Y86800D02*
D03*
X80525Y88900D02*
D03*
X76725Y94775D02*
D03*
X76800Y88900D02*
D03*
X86325Y94784D02*
D03*
X71900Y94735D02*
D03*
X73414Y94600D02*
D03*
X75214Y94561D02*
D03*
X70427Y91100D02*
D03*
X69214Y91085D02*
D03*
X69814Y94675D02*
D03*
X67714Y94700D02*
D03*
X72200Y90300D02*
D03*
X73575Y90863D02*
D03*
X71750Y87586D02*
D03*
X70663Y86500D02*
D03*
X68975D02*
D03*
X67863Y87575D02*
D03*
X66214Y94606D02*
D03*
X64565Y95675D02*
D03*
X88125Y83325D02*
D03*
X86314D02*
D03*
X84514D02*
D03*
X82714D02*
D03*
X64414Y83200D02*
D03*
X64400Y86375D02*
D03*
X66825Y83303D02*
D03*
X80925Y83325D02*
D03*
X79125D02*
D03*
X77329Y83336D02*
D03*
X75525Y83325D02*
D03*
X73725Y83336D02*
D03*
X72250Y83325D02*
D03*
X69825D02*
D03*
X68314Y83325D02*
D03*
X58025Y74225D02*
D03*
X62694Y72075D02*
D03*
X57475Y89975D02*
D03*
X78414Y63200D02*
D03*
X77200Y66190D02*
D03*
Y67190D02*
D03*
X75375Y59700D02*
D03*
X57214Y91500D02*
D03*
X59025Y91400D02*
D03*
X83350Y24175D02*
D03*
X80818Y24175D02*
D03*
X64275Y88300D02*
D03*
X64950Y87425D02*
D03*
X77200Y71331D02*
D03*
Y72356D02*
D03*
X81505Y71476D02*
D03*
X81500Y73500D02*
D03*
Y74475D02*
D03*
X78309Y74175D02*
D03*
X78325Y75275D02*
D03*
X86193Y81200D02*
D03*
X108000Y81133D02*
D03*
X107200Y78231D02*
D03*
X77625Y32000D02*
D03*
X77483Y25175D02*
D03*
X53900Y86350D02*
D03*
X55429Y86375D02*
D03*
X57514Y86400D02*
D03*
X80305Y35050D02*
D03*
X81320D02*
D03*
Y32606D02*
D03*
X66807Y81568D02*
D03*
X116350Y65100D02*
D03*
X97435Y81200D02*
D03*
Y78175D02*
D03*
X119800Y49463D02*
D03*
X109250Y97150D02*
D03*
X70714Y72657D02*
D03*
X78430Y73218D02*
D03*
X126845Y75250D02*
D03*
X125457Y75887D02*
D03*
X125005Y15794D02*
D03*
X123307Y13350D02*
D03*
X137667Y15757D02*
D03*
X45457Y40999D02*
D03*
X74167Y69500D02*
D03*
X97197Y67225D02*
D03*
X106325Y78225D02*
D03*
X39350Y9747D02*
D03*
X110295Y86575D02*
D03*
X110325Y83075D02*
D03*
X46110Y54649D02*
D03*
X44803Y54642D02*
D03*
X45462Y51945D02*
D03*
X45455Y50060D02*
D03*
X81775Y66175D02*
D03*
X78414Y61975D02*
D03*
X86216Y51650D02*
D03*
X87216D02*
D03*
X80300Y32600D02*
D03*
D143*
X147975Y12758D02*
Y28900D01*
X146101Y10883D02*
X147975Y12758D01*
X136757Y10666D02*
X136981Y10890D01*
X138375D01*
X138382Y10883D01*
X146101D01*
X54615Y40867D02*
X54733Y40750D01*
X50280Y40867D02*
X54615D01*
X54733Y33825D02*
X54758Y33850D01*
X59275D01*
X54658Y29875D02*
X54733Y29950D01*
X50275Y29875D02*
X54658D01*
X54733Y22775D02*
X54804Y22847D01*
X59275D01*
X54504Y18847D02*
X54733Y19075D01*
X50268Y18847D02*
X54504D01*
X54725Y44875D02*
X54801Y44951D01*
X108481Y9606D02*
Y13850D01*
X106500Y7625D02*
X108481Y9606D01*
X103025Y7625D02*
X106500D01*
X93925Y9275D02*
Y13850D01*
Y9275D02*
X95575Y7625D01*
X99170D01*
X89025Y9600D02*
Y13850D01*
X87050Y7625D02*
X89025Y9600D01*
X83420Y7625D02*
X87050D01*
X74275Y9625D02*
Y13850D01*
Y9625D02*
X76275Y7625D01*
X79570D01*
X69425Y9950D02*
Y13850D01*
X67100Y7625D02*
X69425Y9950D01*
X63820Y7625D02*
X67100D01*
X54725Y13850D02*
X54800Y13775D01*
Y8675D02*
Y13775D01*
Y8675D02*
X55850Y7625D01*
X59936D01*
X44186D02*
X44236Y7675D01*
X48050D01*
X49975Y9600D01*
Y12525D01*
X111125Y13850D02*
X113050Y11925D01*
Y8800D02*
Y11925D01*
X54725Y44875D02*
X54733Y44867D01*
X59281D01*
X50280Y51849D02*
X54749D01*
X54725Y62550D02*
X54775Y62500D01*
X54400Y62875D02*
X54725Y62550D01*
X54775Y55900D02*
X54801Y55874D01*
X59280D01*
X50262Y62875D02*
X54400D01*
X55750Y66875D02*
X59285D01*
X114344Y7506D02*
X118657D01*
X118775Y7625D01*
X113050Y8800D02*
X114344Y7506D01*
D145*
X94585Y58337D02*
D03*
Y58837D02*
D03*
Y64337D02*
D03*
Y63837D02*
D03*
Y63337D02*
D03*
Y62837D02*
D03*
Y62337D02*
D03*
Y61837D02*
D03*
Y61337D02*
D03*
X94585Y60837D02*
D03*
Y60337D02*
D03*
X94585Y59837D02*
D03*
Y59337D02*
D03*
Y57837D02*
D03*
Y57337D02*
D03*
Y56837D02*
D03*
X103585D02*
D03*
Y57337D02*
D03*
Y57837D02*
D03*
Y58337D02*
D03*
Y58837D02*
D03*
Y59337D02*
D03*
Y59837D02*
D03*
X103585Y60337D02*
D03*
Y60837D02*
D03*
X103585Y61337D02*
D03*
Y61837D02*
D03*
Y62337D02*
D03*
Y62837D02*
D03*
Y63337D02*
D03*
Y63837D02*
D03*
Y64337D02*
D03*
D146*
X81540Y31215D02*
D03*
Y28775D02*
D03*
X81110D02*
D03*
X80680D02*
D03*
X80250D02*
D03*
X79820D02*
D03*
X79390D02*
D03*
X78960D02*
D03*
X78530D02*
D03*
Y31215D02*
D03*
X78960D02*
D03*
X79390D02*
D03*
X79820D02*
D03*
X80250D02*
D03*
X80680D02*
D03*
X81110D02*
D03*
D147*
X81505Y30640D02*
D03*
Y30210D02*
D03*
Y29780D02*
D03*
Y29350D02*
D03*
X78565D02*
D03*
Y29780D02*
D03*
Y30210D02*
D03*
Y30640D02*
D03*
D148*
X10553Y9333D02*
D03*
Y7318D02*
D03*
D149*
X131825Y10500D02*
D03*
Y7300D02*
D03*
D150*
X99085Y60587D02*
D03*
D151*
X95335Y56087D02*
D03*
X95835D02*
D03*
X96335D02*
D03*
X96835D02*
D03*
X97335D02*
D03*
X97835D02*
D03*
X98335D02*
D03*
X98835Y56087D02*
D03*
X99335D02*
D03*
X99835Y56087D02*
D03*
X100335D02*
D03*
X100835D02*
D03*
X101335D02*
D03*
X101835D02*
D03*
X102335D02*
D03*
X102835D02*
D03*
Y65087D02*
D03*
X102335D02*
D03*
X101835D02*
D03*
X101335D02*
D03*
X100835D02*
D03*
X100335D02*
D03*
X99835D02*
D03*
X99335Y65087D02*
D03*
X98835D02*
D03*
X98335Y65087D02*
D03*
X97835D02*
D03*
X97335D02*
D03*
X96835D02*
D03*
X96335D02*
D03*
X95835D02*
D03*
X95335D02*
D03*
D152*
X141299Y56525D02*
D03*
Y55525D02*
D03*
D153*
X48214Y93057D02*
D03*
X48514Y84857D02*
D03*
X48814Y93057D02*
D03*
X49114Y84857D02*
D03*
X49414Y93057D02*
D03*
X49714Y84857D02*
D03*
X50014Y93057D02*
D03*
X50314Y84857D02*
D03*
X50614Y93057D02*
D03*
X50914Y84857D02*
D03*
X51214Y93057D02*
D03*
X51514Y84857D02*
D03*
X51814Y93057D02*
D03*
X52114Y84857D02*
D03*
X52364Y93057D02*
D03*
X52714Y84857D02*
D03*
X53014Y93057D02*
D03*
X53314Y84857D02*
D03*
X53614Y93057D02*
D03*
X53914Y84857D02*
D03*
X54214Y93057D02*
D03*
X54514Y84857D02*
D03*
X54814Y93057D02*
D03*
X55114Y84857D02*
D03*
X55414Y93057D02*
D03*
X55714Y84857D02*
D03*
X56014Y93057D02*
D03*
X56314Y84857D02*
D03*
X56614Y93057D02*
D03*
X56914Y84857D02*
D03*
X57214Y93057D02*
D03*
X57514Y84857D02*
D03*
X57814Y93057D02*
D03*
X58114Y84857D02*
D03*
X58414Y93057D02*
D03*
X58714Y84857D02*
D03*
X59014Y93057D02*
D03*
X59314Y84857D02*
D03*
X59614Y93057D02*
D03*
X59914Y84857D02*
D03*
X63814Y93057D02*
D03*
X64114Y84857D02*
D03*
X64414Y93057D02*
D03*
X64714Y84857D02*
D03*
X65014Y93057D02*
D03*
X65314Y84857D02*
D03*
X65614Y93057D02*
D03*
X65914Y84857D02*
D03*
X66214Y93057D02*
D03*
X66514Y84857D02*
D03*
X66814Y93057D02*
D03*
X67114Y84857D02*
D03*
X67364Y93057D02*
D03*
X67714Y84857D02*
D03*
X68014Y93057D02*
D03*
X68314Y84857D02*
D03*
X68614Y93057D02*
D03*
X68914Y84857D02*
D03*
X69214Y93057D02*
D03*
X69514Y84857D02*
D03*
X69814Y93057D02*
D03*
X70114Y84857D02*
D03*
X70414Y93057D02*
D03*
X70714Y84857D02*
D03*
X71014Y93057D02*
D03*
X71314Y84857D02*
D03*
X71614Y93057D02*
D03*
X71914Y84857D02*
D03*
X72214Y93057D02*
D03*
X72514Y84857D02*
D03*
X72814Y93057D02*
D03*
X73114Y84857D02*
D03*
X73414Y93057D02*
D03*
X73714Y84857D02*
D03*
X74014Y93057D02*
D03*
X74314Y84857D02*
D03*
X74614Y93057D02*
D03*
X74914Y84857D02*
D03*
X75214Y93057D02*
D03*
X75514Y84857D02*
D03*
X75814Y93057D02*
D03*
X76114Y84857D02*
D03*
X76414Y93057D02*
D03*
X76714Y84857D02*
D03*
X77014Y93057D02*
D03*
X77314Y84857D02*
D03*
X77614Y93057D02*
D03*
X77914Y84857D02*
D03*
X78214Y93057D02*
D03*
X78514Y84857D02*
D03*
X78814Y93057D02*
D03*
X79114Y84857D02*
D03*
X79414Y93057D02*
D03*
X79714Y84857D02*
D03*
X80014Y93057D02*
D03*
X80314Y84857D02*
D03*
X80614Y93057D02*
D03*
X80914Y84857D02*
D03*
X81214Y93057D02*
D03*
X81514Y84857D02*
D03*
X81814Y93057D02*
D03*
X82114Y84857D02*
D03*
X82414Y93057D02*
D03*
X82714Y84857D02*
D03*
X83014Y93057D02*
D03*
X83314Y84857D02*
D03*
X83614Y93057D02*
D03*
X83914Y84857D02*
D03*
X84214Y93057D02*
D03*
X84514Y84857D02*
D03*
X84814Y93057D02*
D03*
X85114Y84857D02*
D03*
X85414Y93057D02*
D03*
X85714Y84857D02*
D03*
X86014Y93057D02*
D03*
X86314Y84857D02*
D03*
X86614Y93057D02*
D03*
X86914Y84857D02*
D03*
X87214Y93057D02*
D03*
X87514Y84857D02*
D03*
X87814Y93057D02*
D03*
X88114Y84857D02*
D03*
X88414Y93057D02*
D03*
X88714Y84857D02*
D03*
X89014Y93057D02*
D03*
X89314Y84857D02*
D03*
X89614Y93057D02*
D03*
X89914Y84857D02*
D03*
X90214Y93057D02*
D03*
X90514Y84857D02*
D03*
X90814Y93057D02*
D03*
X91114Y84857D02*
D03*
X91414Y93057D02*
D03*
X91714Y84857D02*
D03*
X92014Y93057D02*
D03*
X92314Y84857D02*
D03*
X92614Y93057D02*
D03*
X92914Y84857D02*
D03*
X93214Y93057D02*
D03*
X93514Y84857D02*
D03*
X93814Y93057D02*
D03*
X94114Y84857D02*
D03*
X94414Y93057D02*
D03*
X94714Y84857D02*
D03*
X95014Y93057D02*
D03*
X95314Y84857D02*
D03*
X95614Y93057D02*
D03*
X95914Y84857D02*
D03*
X96214Y93057D02*
D03*
X96514Y84857D02*
D03*
X96814Y93057D02*
D03*
X97114Y84857D02*
D03*
X97414Y93057D02*
D03*
X97714Y84857D02*
D03*
X98014Y93057D02*
D03*
X98314Y84857D02*
D03*
X98614Y93057D02*
D03*
X98914Y84857D02*
D03*
X99214Y93057D02*
D03*
X99514Y84857D02*
D03*
X99814Y93057D02*
D03*
X100114Y84857D02*
D03*
X100414Y93057D02*
D03*
X100714Y84857D02*
D03*
X101014Y93057D02*
D03*
X101314Y84857D02*
D03*
X101614Y93057D02*
D03*
X101914Y84857D02*
D03*
X102214Y93057D02*
D03*
X102514Y84857D02*
D03*
X102814Y93057D02*
D03*
X103114Y84857D02*
D03*
X103414Y93057D02*
D03*
X103714Y84857D02*
D03*
X104014Y93057D02*
D03*
X104314Y84857D02*
D03*
X104614Y93057D02*
D03*
X104914Y84857D02*
D03*
X105214Y93057D02*
D03*
X105514Y84857D02*
D03*
X105814Y93057D02*
D03*
X106114Y84857D02*
D03*
X106414Y93057D02*
D03*
X106714Y84857D02*
D03*
X107014Y93057D02*
D03*
X107314Y84857D02*
D03*
X107614Y93057D02*
D03*
X107914Y84857D02*
D03*
X108214Y93057D02*
D03*
X108514Y84857D02*
D03*
X108814Y93057D02*
D03*
X109114Y84857D02*
D03*
X109414Y93057D02*
D03*
X109714Y84857D02*
D03*
X110014Y93057D02*
D03*
X110314Y84857D02*
D03*
X110614Y93057D02*
D03*
X110914Y84857D02*
D03*
X111214Y93057D02*
D03*
X111514Y84857D02*
D03*
D154*
X47314Y76957D02*
D03*
X112414D02*
D03*
D155*
X119299Y61579D02*
D03*
X118299D02*
D03*
X119274Y62600D02*
D03*
X118274D02*
D03*
X119269Y63600D02*
D03*
X118269D02*
D03*
D156*
X84900Y57262D02*
D03*
Y55612D02*
D03*
X85810D02*
D03*
Y57262D02*
D03*
D157*
X147975Y28900D02*
X149050Y29975D01*
X151350D01*
X146900D02*
X147975Y28900D01*
X144575Y29975D02*
X146900D01*
D158*
X129070Y4155D02*
X130420D01*
X130675Y3900D02*
X131875D01*
X130420Y4155D02*
X130675Y3900D01*
X129070Y11775D02*
X130345Y10500D01*
X131825D01*
D159*
X64150Y97525D02*
Y100025D01*
X65375Y101250D01*
X73183D01*
X74616Y102683D01*
X80050D01*
X81495Y101238D01*
Y100609D02*
Y101238D01*
X73122Y97525D02*
Y101189D01*
X73183Y101250D01*
M02*
