G04*
G04 #@! TF.GenerationSoftware,Altium Limited,Altium Designer,22.7.1 (60)*
G04*
G04 Layer_Physical_Order=2*
G04 Layer_Color=255*
%FSLAX43Y43*%
%MOMM*%
G71*
G04*
G04 #@! TF.SameCoordinates,6218B3DD-F4BF-4AD2-B5C1-062D57A95E1A*
G04*
G04*
G04 #@! TF.FilePolarity,Positive*
G04*
G01*
G75*
%ADD79C,1.700*%
%ADD85C,1.800*%
%ADD86C,1.900*%
%ADD155C,2.000*%
%ADD163C,0.700*%
%ADD164C,1.000*%
G36*
X32362Y93000D02*
X37202Y93000D01*
X37202Y93000D01*
X37202Y93000D01*
X37346Y93000D01*
X37629Y92944D01*
X37895Y92834D01*
X38134Y92673D01*
X38338Y92470D01*
X38498Y92230D01*
X38609Y91964D01*
X38665Y91681D01*
X38665Y91537D01*
X38665Y83024D01*
X38665Y83024D01*
X38665Y82954D01*
X38638Y82817D01*
X38584Y82689D01*
X38507Y82573D01*
X38409Y82475D01*
X38293Y82397D01*
X38164Y82344D01*
X38028Y82317D01*
X37958Y82317D01*
X35261Y82317D01*
X35261Y82317D01*
X35114Y82310D01*
X34827Y82253D01*
X34556Y82141D01*
X34313Y81978D01*
X34204Y81879D01*
X33734Y81409D01*
X33614Y81289D01*
X33332Y81100D01*
X33018Y80970D01*
X32685Y80904D01*
X31200Y80904D01*
X31200Y80904D01*
X31081Y80898D01*
X30848Y80852D01*
X30628Y80761D01*
X30430Y80629D01*
X30261Y80460D01*
X30129Y80262D01*
X30038Y80042D01*
X29992Y79809D01*
X29986Y79690D01*
X29986Y72875D01*
X29992Y72743D01*
X30044Y72483D01*
X30145Y72239D01*
X30292Y72018D01*
X30479Y71831D01*
X30700Y71684D01*
X30944Y71583D01*
X31204Y71531D01*
X31336Y71525D01*
X43862Y71525D01*
X43862Y71525D01*
X43862Y71525D01*
X43862D01*
X43959Y71518D01*
X44048Y71500D01*
X44164Y71452D01*
X44269Y71382D01*
X44357Y71293D01*
X44427Y71189D01*
X44475Y71073D01*
X44500Y70950D01*
X44500Y70887D01*
X44500Y63690D01*
X44500D01*
X44500Y63501D01*
X44463Y63126D01*
X44389Y62756D01*
X44280Y62395D01*
X44136Y62047D01*
X43958Y61714D01*
X43748Y61401D01*
X43509Y61109D01*
X43376Y60976D01*
X40984Y58584D01*
X40877Y58471D01*
X40680Y58231D01*
X40507Y57973D01*
X40361Y57699D01*
X40242Y57412D01*
X40152Y57114D01*
X40091Y56810D01*
X40061Y56500D01*
X40057Y56345D01*
X40057Y42937D01*
X40057Y42937D01*
Y42754D01*
X40021Y42389D01*
X39949Y42029D01*
X39843Y41678D01*
X39702Y41340D01*
X39530Y41016D01*
X39326Y40711D01*
X39093Y40428D01*
X38964Y40298D01*
X34945Y36280D01*
X34836Y36166D01*
X34652Y35941D01*
X34537Y35853D01*
X34441Y35728D01*
X34381Y35582D01*
X34368Y35487D01*
X34310Y35378D01*
X34189Y35085D01*
X34097Y34782D01*
X34035Y34471D01*
X34004Y34156D01*
X34000Y33998D01*
X34000Y14297D01*
X34000Y14297D01*
X34000Y14150D01*
X33942Y13861D01*
X33830Y13588D01*
X33666Y13343D01*
X33457Y13134D01*
X33212Y12970D01*
X32939Y12858D01*
X32650Y12800D01*
X32503Y12800D01*
X23258Y12800D01*
X197Y12783D01*
X138Y12864D01*
X220Y13134D01*
X258Y13526D01*
X220Y13918D01*
X105Y14295D01*
X-80Y14643D01*
X-330Y14947D01*
X-635Y15197D01*
X-982Y15383D01*
X-1359Y15497D01*
X-1751Y15536D01*
X-2144Y15497D01*
X-2521Y15383D01*
X-2868Y15197D01*
X-3172Y14947D01*
X-3422Y14643D01*
X-3608Y14295D01*
X-3723Y13918D01*
X-3761Y13526D01*
X-3758Y13493D01*
X-3857Y13476D01*
X-5076Y18332D01*
X-5776Y25126D01*
X-5950Y32150D01*
X-4843Y42076D01*
X-1700Y54115D01*
X1991Y62725D01*
X5924Y69078D01*
X6019Y69046D01*
X6007Y68926D01*
X6046Y68534D01*
X6160Y68157D01*
X6346Y67809D01*
X6596Y67505D01*
X6901Y67255D01*
X7248Y67069D01*
X7625Y66955D01*
X8017Y66916D01*
X8409Y66955D01*
X8786Y67069D01*
X9134Y67255D01*
X9438Y67505D01*
X9688Y67809D01*
X9874Y68157D01*
X9988Y68534D01*
X10027Y68926D01*
X9988Y69318D01*
X9874Y69695D01*
X9688Y70042D01*
X9438Y70347D01*
X9134Y70597D01*
X8786Y70783D01*
X8409Y70897D01*
X8017Y70936D01*
X7625Y70897D01*
X7248Y70783D01*
X7023Y70662D01*
X6952Y70738D01*
X7888Y72250D01*
X12667Y77983D01*
X18768Y84093D01*
X26502Y90150D01*
X30665Y92546D01*
X30665Y92546D01*
Y92546D01*
X30858Y92657D01*
X31269Y92827D01*
X31699Y92942D01*
X32140Y93000D01*
X32362Y93000D01*
D02*
G37*
G36*
X91593Y89200D02*
X104793Y89200D01*
X104793Y89200D01*
X104793Y89200D01*
X104984Y89200D01*
X105363Y89163D01*
X105737Y89088D01*
X106102Y88978D01*
X106454Y88832D01*
X106790Y88652D01*
X107107Y88440D01*
X107402Y88198D01*
X107536Y88064D01*
X124160Y71440D01*
X124160Y71440D01*
X124160Y71440D01*
X124319Y71281D01*
X124603Y70935D01*
X124852Y70562D01*
X125063Y70167D01*
X125235Y69753D01*
X125365Y69325D01*
X125452Y68885D01*
X125496Y68439D01*
X125496Y68215D01*
X125496Y66110D01*
X125501Y65925D01*
X125537Y65558D01*
X125609Y65197D01*
X125716Y64844D01*
X125857Y64503D01*
X126031Y64178D01*
X126236Y63871D01*
X126470Y63586D01*
X126597Y63452D01*
X131224Y58825D01*
X131224Y58825D01*
X131224Y58825D01*
X131344Y58705D01*
X131558Y58444D01*
X131746Y58163D01*
X131906Y57865D01*
X132035Y57552D01*
X132133Y57228D01*
X132199Y56897D01*
X132232Y56560D01*
X132232Y56391D01*
X132232Y50590D01*
X132232Y50589D01*
X132232Y50492D01*
X132194Y50301D01*
X132120Y50121D01*
X132011Y49959D01*
X131874Y49821D01*
X131712Y49713D01*
X131532Y49638D01*
X131340Y49600D01*
X131243Y49600D01*
X130042D01*
X129999Y49703D01*
X129903Y49828D01*
X129778Y49924D01*
X129632Y49985D01*
X129475Y50005D01*
X129318Y49985D01*
X129172Y49924D01*
X129047Y49828D01*
X128951Y49703D01*
X128908Y49600D01*
X126200Y49600D01*
X126200Y49600D01*
X126102Y49600D01*
X125911Y49638D01*
X125730Y49713D01*
X125568Y49821D01*
X125430Y49960D01*
X125321Y50122D01*
X125246Y50302D01*
X125208Y50494D01*
Y50592D01*
X125208Y55021D01*
X125208Y55021D01*
X125208Y55021D01*
X125204Y55208D01*
X125167Y55580D01*
X125094Y55947D01*
X124986Y56305D01*
X124843Y56650D01*
X124666Y56980D01*
X124459Y57291D01*
X124221Y57580D01*
X124093Y57715D01*
X122267Y59541D01*
X122267Y59541D01*
X122267Y59541D01*
X122175Y59629D01*
X121978Y59790D01*
X121767Y59931D01*
X121543Y60051D01*
X121308Y60148D01*
X121065Y60222D01*
X120815Y60272D01*
X120562Y60297D01*
X120435Y60300D01*
X117056Y60300D01*
X116912Y60360D01*
X116755Y60380D01*
X116598Y60360D01*
X116454Y60300D01*
X112720Y60300D01*
X112720Y60300D01*
X112599Y60297D01*
X112359Y60273D01*
X112122Y60226D01*
X111890Y60156D01*
X111667Y60064D01*
X111454Y59950D01*
X111253Y59815D01*
X111066Y59662D01*
X110979Y59579D01*
X108795Y57395D01*
X108795Y57395D01*
X108690Y57284D01*
X108496Y57049D01*
X108327Y56795D01*
X108183Y56526D01*
X108066Y56244D01*
X107977Y55952D01*
X107918Y55652D01*
X107888Y55349D01*
X107884Y55196D01*
X107884Y47716D01*
X107890Y47603D01*
X107934Y47382D01*
X108020Y47173D01*
X108145Y46986D01*
X108305Y46826D01*
X108492Y46701D01*
X108701Y46615D01*
X108922Y46571D01*
X109035Y46565D01*
X114035Y46565D01*
X114035Y46565D01*
X114035Y46565D01*
X114152Y46565D01*
X114382Y46519D01*
X114599Y46430D01*
X114794Y46299D01*
X114959Y46134D01*
X115090Y45939D01*
X115179Y45722D01*
X115225Y45492D01*
X115225Y45375D01*
X115225Y38538D01*
X115225Y38538D01*
X115225Y38403D01*
X115173Y38140D01*
X115070Y37892D01*
X114921Y37669D01*
X114731Y37479D01*
X114508Y37330D01*
X114260Y37227D01*
X113997Y37175D01*
X113862Y37175D01*
X94456Y37175D01*
X94456Y37175D01*
X94308Y37170D01*
X94016Y37132D01*
X93731Y37055D01*
X93458Y36942D01*
X93203Y36795D01*
X92968Y36615D01*
X92760Y36406D01*
X92580Y36172D01*
X92433Y35917D01*
X92320Y35644D01*
X92243Y35359D01*
X92205Y35067D01*
X92200Y34919D01*
X92200Y2500D01*
X92200D01*
X92200Y2382D01*
X92154Y2150D01*
X92063Y1932D01*
X91932Y1735D01*
X91765Y1568D01*
X91568Y1437D01*
X91350Y1346D01*
X91118Y1300D01*
X91000Y1300D01*
X82500Y1300D01*
X82399Y1300D01*
X82201Y1339D01*
X82014Y1417D01*
X81846Y1529D01*
X81704Y1672D01*
X81592Y1839D01*
X81514Y2026D01*
X81475Y2224D01*
X81475Y2325D01*
X81475Y29702D01*
X81475Y29702D01*
X81475Y29702D01*
X81466Y30227D01*
X81398Y31275D01*
X81261Y32317D01*
X81056Y33347D01*
X80784Y34361D01*
X80447Y35356D01*
X80045Y36326D01*
X79580Y37268D01*
X79055Y38178D01*
X78472Y39051D01*
X77832Y39884D01*
X77140Y40674D01*
X76774Y41051D01*
X76774Y41051D01*
X76450Y41366D01*
X75773Y41967D01*
X75061Y42526D01*
X74317Y43041D01*
X73544Y43512D01*
X72744Y43935D01*
X71921Y44309D01*
X71076Y44634D01*
X70647Y44777D01*
X70253Y44902D01*
X70253Y44902D01*
X69831Y45029D01*
X68977Y45242D01*
X68112Y45403D01*
X67238Y45509D01*
X66360Y45561D01*
X65480Y45558D01*
X64601Y45500D01*
X63728Y45388D01*
X63295Y45312D01*
X62601Y45179D01*
X62600Y45179D01*
X62273Y45112D01*
X61625Y44952D01*
X60986Y44760D01*
X60357Y44535D01*
X59741Y44278D01*
X59139Y43989D01*
X58553Y43670D01*
X57984Y43321D01*
X57706Y43135D01*
X57160Y42761D01*
X57160Y42761D01*
X56781Y42491D01*
X56047Y41919D01*
X55350Y41303D01*
X54692Y40646D01*
X54074Y39950D01*
X53501Y39218D01*
X52973Y38451D01*
X52493Y37655D01*
X52271Y37246D01*
X51803Y36351D01*
X51803Y36351D01*
X51627Y36001D01*
X51306Y35286D01*
X51029Y34554D01*
X50796Y33806D01*
X50609Y33045D01*
X50467Y32275D01*
X50371Y31497D01*
X50323Y30716D01*
X50316Y30324D01*
X50278Y13927D01*
X50278Y13927D01*
X50278Y13797D01*
X50226Y13541D01*
X50126Y13301D01*
X49981Y13084D01*
X49796Y12900D01*
X49579Y12755D01*
X49339Y12656D01*
X49083Y12605D01*
X48952Y12605D01*
X35957Y12601D01*
X35819Y12601D01*
X35547Y12655D01*
X35291Y12761D01*
X35060Y12915D01*
X34864Y13111D01*
X34710Y13341D01*
X34604Y13597D01*
X34550Y13869D01*
X34550Y14008D01*
X34550Y16750D01*
Y22250D01*
X34550Y29532D01*
X34640Y29576D01*
X34672Y29551D01*
X34818Y29490D01*
X34975Y29470D01*
X35132Y29490D01*
X35278Y29551D01*
X35403Y29647D01*
X35499Y29772D01*
X35560Y29918D01*
X35580Y30075D01*
X35560Y30232D01*
X35499Y30378D01*
X35403Y30503D01*
X35278Y30599D01*
X35132Y30660D01*
X34975Y30680D01*
X34818Y30660D01*
X34672Y30599D01*
X34640Y30574D01*
X34550Y30618D01*
X34550Y33656D01*
X34550Y33755D01*
X34550Y33755D01*
X34550Y33755D01*
X34550Y33889D01*
X34576Y34155D01*
X34628Y34417D01*
X34706Y34673D01*
X34768Y34824D01*
X34808Y34840D01*
X34965Y34820D01*
X35122Y34840D01*
X35268Y34901D01*
X35393Y34997D01*
X35489Y35122D01*
X35550Y35268D01*
X35570Y35425D01*
X35550Y35582D01*
X35489Y35728D01*
X35448Y35781D01*
X38437Y38770D01*
X38561Y38752D01*
X38622Y38672D01*
X38747Y38576D01*
X38893Y38515D01*
X39050Y38495D01*
X39207Y38515D01*
X39353Y38576D01*
X39478Y38672D01*
X39574Y38797D01*
X39635Y38943D01*
X39655Y39100D01*
X39635Y39257D01*
X39574Y39403D01*
X39478Y39528D01*
X39397Y39590D01*
X39377Y39713D01*
X39442Y39782D01*
X39691Y40084D01*
X39908Y40410D01*
X40092Y40755D01*
X40242Y41116D01*
X40356Y41491D01*
X40432Y41874D01*
X40470Y42264D01*
X40475Y42459D01*
X40475Y55980D01*
X40475Y56074D01*
X40475Y56074D01*
X40475Y56074D01*
X40475Y56233D01*
X40506Y56550D01*
X40568Y56863D01*
X40661Y57168D01*
X40783Y57462D01*
X40933Y57743D01*
X41110Y58008D01*
X41312Y58254D01*
X41425Y58367D01*
X43764Y60706D01*
X43764D01*
X43764Y60706D01*
X43907Y60856D01*
X44170Y61176D01*
X44400Y61520D01*
X44595Y61886D01*
X44754Y62268D01*
X44874Y62664D01*
X44954Y63071D01*
X44995Y63483D01*
X45000Y63690D01*
X45000Y71221D01*
X45000Y71221D01*
X45000Y71221D01*
X45000Y71224D01*
X44996Y71298D01*
X44993Y71315D01*
X44967Y71447D01*
X44908Y71589D01*
X44823Y71715D01*
X44716Y71823D01*
X44589Y71908D01*
X44448Y71967D01*
X44298Y71996D01*
X44222Y72000D01*
X35600Y72000D01*
X35524Y72000D01*
X35374Y72030D01*
X35234Y72088D01*
X35107Y72173D01*
X34999Y72280D01*
X34915Y72407D01*
X34857Y72548D01*
X34827Y72697D01*
X34827Y72773D01*
X34827Y75577D01*
X34832Y75676D01*
X34856Y75795D01*
X34912Y75931D01*
X34994Y76054D01*
X35098Y76158D01*
X35221Y76240D01*
X35357Y76296D01*
X35501Y76325D01*
X35575Y76325D01*
X37459Y76325D01*
X37553Y76325D01*
Y76325D01*
X37553Y76325D01*
X37553Y76325D01*
X37675Y76331D01*
X37915Y76379D01*
X38141Y76472D01*
X38344Y76608D01*
X38517Y76781D01*
X38653Y76984D01*
X38746Y77210D01*
X38794Y77450D01*
X38800Y77572D01*
X38800Y81302D01*
X38800Y81397D01*
X38800Y81397D01*
Y81397D01*
X38800Y81397D01*
X38800Y81588D01*
X38874Y81962D01*
X39021Y82315D01*
X39233Y82633D01*
X39368Y82768D01*
X42723Y86123D01*
X42723Y86123D01*
X42723Y86123D01*
X42898Y86298D01*
X43281Y86613D01*
X43693Y86888D01*
X44130Y87121D01*
X44588Y87311D01*
X45062Y87455D01*
X45548Y87552D01*
X46041Y87600D01*
X46289Y87600D01*
X88476Y87600D01*
X88671Y87610D01*
X89053Y87686D01*
X89414Y87835D01*
X89738Y88052D01*
X89883Y88183D01*
X90410Y88710D01*
X90410Y88710D01*
X90410Y88710D01*
X90526Y88826D01*
X90800Y89010D01*
X91105Y89136D01*
X91428Y89200D01*
X91593Y89200D01*
D02*
G37*
G36*
X109801Y35962D02*
X109857Y35879D01*
X109814Y35775D01*
X109774Y35475D01*
X109814Y35175D01*
X109930Y34895D01*
X110114Y34655D01*
X110283Y34525D01*
Y34425D01*
X110114Y34295D01*
X109930Y34055D01*
X109814Y33775D01*
X109774Y33475D01*
X109814Y33175D01*
X109930Y32895D01*
X110114Y32655D01*
X110307Y32507D01*
X110314Y32389D01*
X110311Y32383D01*
X110150Y32260D01*
X109973Y32030D01*
X109909Y31875D01*
X110934D01*
X111959D01*
X111895Y32030D01*
X111719Y32260D01*
X111558Y32383D01*
X111555Y32389D01*
X111561Y32507D01*
X111754Y32655D01*
X111939Y32895D01*
X112055Y33175D01*
X112094Y33475D01*
X112055Y33775D01*
X111939Y34055D01*
X111754Y34295D01*
X111585Y34425D01*
Y34525D01*
X111754Y34655D01*
X111939Y34895D01*
X112055Y35175D01*
X112094Y35475D01*
X112055Y35775D01*
X112012Y35879D01*
X112067Y35962D01*
X112222D01*
X112346Y35962D01*
X112591Y35914D01*
X112821Y35818D01*
X113029Y35680D01*
X113205Y35503D01*
X113344Y35296D01*
X113439Y35066D01*
X113488Y34821D01*
X113488Y34696D01*
X113488Y34696D01*
X113488Y34696D01*
X113488Y28234D01*
X113388Y28185D01*
X113288Y28261D01*
X113069Y28352D01*
X112834Y28383D01*
X112599Y28352D01*
X112380Y28261D01*
X112192Y28117D01*
X112048Y27929D01*
X111957Y27710D01*
X111926Y27475D01*
X111957Y27240D01*
X112048Y27021D01*
X112192Y26833D01*
X112380Y26689D01*
X112599Y26598D01*
X112834Y26567D01*
X113069Y26598D01*
X113288Y26689D01*
X113388Y26765D01*
X113488Y26716D01*
X113488Y15348D01*
X113398Y15304D01*
X113388Y15311D01*
X113169Y15402D01*
X112934Y15433D01*
X112699Y15402D01*
X112480Y15311D01*
X112292Y15167D01*
X112148Y14979D01*
X112057Y14760D01*
X112026Y14525D01*
X112057Y14290D01*
X112148Y14071D01*
X112292Y13883D01*
X112480Y13739D01*
X112699Y13648D01*
X112934Y13617D01*
X113169Y13648D01*
X113388Y13739D01*
X113398Y13746D01*
X113488Y13702D01*
X113488Y2398D01*
X113488Y2291D01*
X113446Y2082D01*
X113364Y1885D01*
X113246Y1708D01*
X113095Y1557D01*
X112918Y1438D01*
X112720Y1356D01*
X112511Y1315D01*
X112404Y1315D01*
X112404Y1315D01*
X112404Y1315D01*
X98896Y1315D01*
X98788Y1315D01*
X98576Y1357D01*
X98377Y1440D01*
X98198Y1560D01*
X98045Y1712D01*
X97925Y1892D01*
X97843Y2091D01*
X97801Y2303D01*
X97801Y2411D01*
X97801Y2411D01*
X97828Y34529D01*
X97828Y34670D01*
X97884Y34947D01*
X97992Y35208D01*
X98149Y35443D01*
X98349Y35642D01*
X98584Y35799D01*
X98845Y35907D01*
X99122Y35962D01*
X99263Y35962D01*
X99263Y35962D01*
X109801Y35962D01*
D02*
G37*
%LPC*%
G36*
X14453Y77856D02*
X14258Y77831D01*
X14075Y77755D01*
X13919Y77635D01*
X13798Y77478D01*
X13723Y77296D01*
X13697Y77100D01*
X13723Y76904D01*
X13798Y76722D01*
X13919Y76565D01*
X14075Y76445D01*
X14258Y76369D01*
X14453Y76344D01*
X14649Y76369D01*
X14832Y76445D01*
X14988Y76565D01*
X15109Y76722D01*
X15184Y76904D01*
X15210Y77100D01*
X15184Y77296D01*
X15109Y77478D01*
X14988Y77635D01*
X14832Y77755D01*
X14649Y77831D01*
X14453Y77856D01*
D02*
G37*
G36*
X24463Y60458D02*
X24071Y60419D01*
X23694Y60305D01*
X23347Y60119D01*
X23042Y59869D01*
X22792Y59565D01*
X22606Y59217D01*
X22492Y58840D01*
X22453Y58448D01*
X22492Y58056D01*
X22606Y57679D01*
X22792Y57332D01*
X23042Y57027D01*
X23347Y56777D01*
X23694Y56592D01*
X24071Y56477D01*
X24463Y56439D01*
X24855Y56477D01*
X25232Y56592D01*
X25580Y56777D01*
X25884Y57027D01*
X26134Y57332D01*
X26320Y57679D01*
X26434Y58056D01*
X26473Y58448D01*
X26434Y58840D01*
X26320Y59217D01*
X26134Y59565D01*
X25884Y59869D01*
X25580Y60119D01*
X25232Y60305D01*
X24855Y60419D01*
X24463Y60458D01*
D02*
G37*
G36*
X12655Y56220D02*
X12459Y56194D01*
X12276Y56119D01*
X12120Y55998D01*
X11999Y55842D01*
X11924Y55659D01*
X11898Y55463D01*
X11924Y55268D01*
X11999Y55085D01*
X12120Y54929D01*
X12276Y54808D01*
X12459Y54733D01*
X12655Y54707D01*
X12850Y54733D01*
X13033Y54808D01*
X13190Y54929D01*
X13310Y55085D01*
X13385Y55268D01*
X13411Y55463D01*
X13385Y55659D01*
X13310Y55842D01*
X13190Y55998D01*
X13033Y56119D01*
X12850Y56194D01*
X12655Y56220D01*
D02*
G37*
G36*
X22600Y49731D02*
X22404Y49706D01*
X22222Y49630D01*
X22065Y49510D01*
X21945Y49353D01*
X21869Y49171D01*
X21844Y48975D01*
X21869Y48779D01*
X21945Y48597D01*
X22065Y48440D01*
X22222Y48320D01*
X22404Y48244D01*
X22600Y48219D01*
X22796Y48244D01*
X22978Y48320D01*
X23135Y48440D01*
X23255Y48597D01*
X23331Y48779D01*
X23357Y48975D01*
X23331Y49171D01*
X23255Y49353D01*
X23135Y49510D01*
X22978Y49630D01*
X22796Y49706D01*
X22600Y49731D01*
D02*
G37*
G36*
X-2800Y33433D02*
Y32700D01*
X-2067D01*
X-2086Y32761D01*
X-2197Y32970D01*
X-2347Y33153D01*
X-2530Y33303D01*
X-2739Y33414D01*
X-2800Y33433D01*
D02*
G37*
G36*
X-3600Y33433D02*
X-3661Y33414D01*
X-3870Y33303D01*
X-4053Y33153D01*
X-4203Y32970D01*
X-4314Y32761D01*
X-4333Y32700D01*
X-3600D01*
Y33433D01*
D02*
G37*
G36*
X-2067Y31900D02*
X-2800D01*
Y31167D01*
X-2739Y31186D01*
X-2530Y31297D01*
X-2347Y31447D01*
X-2197Y31630D01*
X-2086Y31839D01*
X-2067Y31900D01*
D02*
G37*
G36*
X-3600D02*
X-4333D01*
X-4314Y31839D01*
X-4203Y31630D01*
X-4053Y31447D01*
X-3870Y31297D01*
X-3661Y31186D01*
X-3600Y31167D01*
Y31900D01*
D02*
G37*
G36*
X300Y33506D02*
X65Y33483D01*
X-161Y33414D01*
X-370Y33303D01*
X-553Y33153D01*
X-703Y32970D01*
X-814Y32761D01*
X-883Y32535D01*
X-906Y32300D01*
X-883Y32065D01*
X-814Y31839D01*
X-703Y31630D01*
X-553Y31447D01*
X-370Y31297D01*
X-161Y31186D01*
X65Y31117D01*
X300Y31094D01*
X535Y31117D01*
X761Y31186D01*
X970Y31297D01*
X1153Y31447D01*
X1303Y31630D01*
X1414Y31839D01*
X1483Y32065D01*
X1506Y32300D01*
X1483Y32535D01*
X1414Y32761D01*
X1303Y32970D01*
X1153Y33153D01*
X970Y33303D01*
X761Y33414D01*
X535Y33483D01*
X300Y33506D01*
D02*
G37*
G36*
X15075Y24233D02*
X14771Y24203D01*
X14479Y24114D01*
X14210Y23970D01*
X13974Y23776D01*
X13780Y23540D01*
X13636Y23271D01*
X13547Y22979D01*
X13517Y22675D01*
X13547Y22371D01*
X13636Y22079D01*
X13780Y21810D01*
X13974Y21574D01*
X14210Y21380D01*
X14479Y21236D01*
X14771Y21147D01*
X15075Y21118D01*
X15379Y21147D01*
X15671Y21236D01*
X15940Y21380D01*
X16176Y21574D01*
X16370Y21810D01*
X16514Y22079D01*
X16603Y22371D01*
X16632Y22675D01*
X16603Y22979D01*
X16514Y23271D01*
X16370Y23540D01*
X16176Y23776D01*
X15940Y23970D01*
X15671Y24114D01*
X15379Y24203D01*
X15075Y24233D01*
D02*
G37*
G36*
X11575D02*
X11271Y24203D01*
X10979Y24114D01*
X10710Y23970D01*
X10474Y23776D01*
X10280Y23540D01*
X10136Y23271D01*
X10047Y22979D01*
X10017Y22675D01*
X10047Y22371D01*
X10136Y22079D01*
X10280Y21810D01*
X10474Y21574D01*
X10710Y21380D01*
X10979Y21236D01*
X11271Y21147D01*
X11575Y21118D01*
X11879Y21147D01*
X12171Y21236D01*
X12440Y21380D01*
X12676Y21574D01*
X12870Y21810D01*
X13014Y22079D01*
X13103Y22371D01*
X13132Y22675D01*
X13103Y22979D01*
X13014Y23271D01*
X12870Y23540D01*
X12676Y23776D01*
X12440Y23970D01*
X12171Y24114D01*
X11879Y24203D01*
X11575Y24233D01*
D02*
G37*
G36*
X30850Y19133D02*
X30615Y19102D01*
X30396Y19011D01*
X30208Y18867D01*
X30064Y18679D01*
X29973Y18460D01*
X29942Y18225D01*
X29973Y17990D01*
X30064Y17771D01*
X30208Y17583D01*
X30396Y17439D01*
X30615Y17348D01*
X30850Y17317D01*
X31085Y17348D01*
X31304Y17439D01*
X31492Y17583D01*
X31636Y17771D01*
X31727Y17990D01*
X31758Y18225D01*
X31727Y18460D01*
X31636Y18679D01*
X31492Y18867D01*
X31304Y19011D01*
X31085Y19102D01*
X30850Y19133D01*
D02*
G37*
G36*
X29250Y17350D02*
Y16725D01*
X29875D01*
X29811Y16880D01*
X29635Y17110D01*
X29405Y17286D01*
X29250Y17350D01*
D02*
G37*
G36*
X26850Y17434D02*
X26563Y17397D01*
X26295Y17286D01*
X26065Y17110D01*
X25889Y16880D01*
X25778Y16612D01*
X25741Y16325D01*
X25778Y16038D01*
X25889Y15770D01*
X26065Y15540D01*
X26295Y15364D01*
X26563Y15253D01*
X26850Y15216D01*
X27137Y15253D01*
X27405Y15364D01*
X27635Y15540D01*
X27791Y15745D01*
X27825Y15753D01*
X27875D01*
X27909Y15745D01*
X28065Y15540D01*
X28295Y15364D01*
X28450Y15300D01*
Y16325D01*
Y17350D01*
X28295Y17286D01*
X28065Y17110D01*
X27909Y16905D01*
X27875Y16896D01*
X27825D01*
X27791Y16905D01*
X27635Y17110D01*
X27405Y17286D01*
X27137Y17397D01*
X26850Y17434D01*
D02*
G37*
G36*
X29875Y15925D02*
X29250D01*
Y15300D01*
X29405Y15364D01*
X29635Y15540D01*
X29811Y15770D01*
X29875Y15925D01*
D02*
G37*
G36*
X13325Y16589D02*
X12969Y16554D01*
X12627Y16450D01*
X12312Y16281D01*
X12035Y16055D01*
X11809Y15778D01*
X11640Y15463D01*
X11536Y15121D01*
X11501Y14765D01*
X11536Y14409D01*
X11640Y14067D01*
X11809Y13752D01*
X12035Y13475D01*
X12312Y13249D01*
X12627Y13080D01*
X12969Y12976D01*
X13325Y12941D01*
X13681Y12976D01*
X14023Y13080D01*
X14338Y13249D01*
X14615Y13475D01*
X14841Y13752D01*
X15010Y14067D01*
X15114Y14409D01*
X15149Y14765D01*
X15114Y15121D01*
X15010Y15463D01*
X14841Y15778D01*
X14615Y16055D01*
X14338Y16281D01*
X14023Y16450D01*
X13681Y16554D01*
X13325Y16589D01*
D02*
G37*
G36*
X94225Y87386D02*
X94068Y87366D01*
X93922Y87305D01*
X93797Y87209D01*
X93701Y87084D01*
X93640Y86938D01*
X93620Y86781D01*
X93640Y86624D01*
X93701Y86478D01*
X93797Y86353D01*
X93922Y86257D01*
X94068Y86196D01*
X94225Y86176D01*
X94382Y86196D01*
X94528Y86257D01*
X94653Y86353D01*
X94749Y86478D01*
X94810Y86624D01*
X94830Y86781D01*
X94810Y86938D01*
X94749Y87084D01*
X94653Y87209D01*
X94528Y87305D01*
X94382Y87366D01*
X94225Y87386D01*
D02*
G37*
G36*
X106293Y86878D02*
X106136Y86857D01*
X105990Y86797D01*
X105865Y86701D01*
X105769Y86575D01*
X105708Y86429D01*
X105688Y86273D01*
X105708Y86116D01*
X105769Y85970D01*
X105865Y85845D01*
X105990Y85749D01*
X106136Y85688D01*
X106293Y85668D01*
X106450Y85688D01*
X106595Y85749D01*
X106721Y85845D01*
X106817Y85970D01*
X106877Y86116D01*
X106898Y86273D01*
X106877Y86429D01*
X106817Y86575D01*
X106721Y86701D01*
X106595Y86797D01*
X106450Y86857D01*
X106293Y86878D01*
D02*
G37*
G36*
X57704Y86805D02*
X57547Y86785D01*
X57401Y86724D01*
X57276Y86628D01*
X57180Y86503D01*
X57119Y86357D01*
X57098Y86200D01*
X57119Y86043D01*
X57180Y85897D01*
X57276Y85772D01*
X57401Y85676D01*
X57547Y85615D01*
X57704Y85595D01*
X57860Y85615D01*
X58006Y85676D01*
X58132Y85772D01*
X58228Y85897D01*
X58288Y86043D01*
X58309Y86200D01*
X58288Y86357D01*
X58228Y86503D01*
X58132Y86628D01*
X58006Y86724D01*
X57860Y86785D01*
X57704Y86805D01*
D02*
G37*
G36*
X104092Y85905D02*
X103936Y85885D01*
X103790Y85824D01*
X103664Y85728D01*
X103568Y85603D01*
X103544Y85545D01*
X103430Y85530D01*
X103428Y85533D01*
X103303Y85629D01*
X103157Y85690D01*
X103000Y85710D01*
X102843Y85690D01*
X102697Y85629D01*
X102572Y85533D01*
X102476Y85408D01*
X102415Y85262D01*
X102395Y85105D01*
X102415Y84948D01*
X102476Y84802D01*
X102572Y84677D01*
X102697Y84581D01*
X102843Y84520D01*
X103000Y84500D01*
X103157Y84520D01*
X103303Y84581D01*
X103428Y84677D01*
X103524Y84802D01*
X103548Y84860D01*
X103662Y84875D01*
X103664Y84872D01*
X103765Y84795D01*
X103765Y84711D01*
X103754Y84682D01*
X103683Y84653D01*
X103558Y84557D01*
X103462Y84432D01*
X103401Y84286D01*
X103381Y84129D01*
X103401Y83972D01*
X103462Y83827D01*
X103558Y83701D01*
X103683Y83605D01*
X103829Y83545D01*
X103986Y83524D01*
X104142Y83545D01*
X104288Y83605D01*
X104344Y83647D01*
X104435Y83692D01*
X104561Y83596D01*
X104707Y83535D01*
X104863Y83515D01*
X105020Y83535D01*
X105166Y83596D01*
X105290Y83691D01*
X105314Y83707D01*
X105393D01*
X105416Y83691D01*
X105540Y83596D01*
X105686Y83535D01*
X105843Y83515D01*
X106000Y83535D01*
X106145Y83596D01*
X106271Y83692D01*
X106367Y83817D01*
X106427Y83963D01*
X106448Y84120D01*
X106427Y84276D01*
X106367Y84422D01*
X106271Y84548D01*
X106145Y84644D01*
X106000Y84704D01*
X105843Y84725D01*
X105686Y84704D01*
X105540Y84644D01*
X105416Y84549D01*
X105393Y84532D01*
X105314D01*
X105290Y84549D01*
X105166Y84644D01*
X105020Y84704D01*
X104863Y84725D01*
X104707Y84704D01*
X104561Y84644D01*
X104435Y84548D01*
X104353Y84604D01*
X104313Y84634D01*
X104313Y84719D01*
X104324Y84747D01*
X104395Y84776D01*
X104520Y84872D01*
X104616Y84997D01*
X104677Y85143D01*
X104697Y85300D01*
X104677Y85457D01*
X104616Y85603D01*
X104520Y85728D01*
X104395Y85824D01*
X104249Y85885D01*
X104092Y85905D01*
D02*
G37*
G36*
X62600Y86305D02*
X62443Y86285D01*
X62297Y86224D01*
X62172Y86128D01*
X62076Y86003D01*
X62015Y85857D01*
X61995Y85700D01*
X62015Y85543D01*
X62076Y85397D01*
X62172Y85272D01*
X62297Y85176D01*
X62443Y85115D01*
X62600Y85095D01*
X62757Y85115D01*
X62903Y85176D01*
X63028Y85272D01*
X63124Y85397D01*
X63185Y85543D01*
X63205Y85700D01*
X63185Y85857D01*
X63124Y86003D01*
X63028Y86128D01*
X62903Y86224D01*
X62757Y86285D01*
X62600Y86305D01*
D02*
G37*
G36*
X109895Y84900D02*
X109738Y84880D01*
X109592Y84819D01*
X109467Y84723D01*
X109371Y84598D01*
X109310Y84452D01*
X109290Y84295D01*
X109310Y84138D01*
X109371Y83992D01*
X109467Y83867D01*
X109592Y83771D01*
X109738Y83710D01*
X109895Y83690D01*
X110052Y83710D01*
X110198Y83771D01*
X110323Y83867D01*
X110419Y83992D01*
X110480Y84138D01*
X110500Y84295D01*
X110480Y84452D01*
X110419Y84598D01*
X110323Y84723D01*
X110198Y84819D01*
X110052Y84880D01*
X109895Y84900D01*
D02*
G37*
G36*
X83300Y84830D02*
X83143Y84810D01*
X82997Y84749D01*
X82872Y84653D01*
X82776Y84528D01*
X82715Y84382D01*
X82695Y84225D01*
X82715Y84068D01*
X82776Y83922D01*
X82872Y83797D01*
X82997Y83701D01*
X83143Y83640D01*
X83300Y83620D01*
X83457Y83640D01*
X83603Y83701D01*
X83728Y83797D01*
X83824Y83922D01*
X83885Y84068D01*
X83905Y84225D01*
X83885Y84382D01*
X83824Y84528D01*
X83728Y84653D01*
X83603Y84749D01*
X83457Y84810D01*
X83300Y84830D01*
D02*
G37*
G36*
X58350Y83480D02*
X58193Y83460D01*
X58047Y83399D01*
X57922Y83303D01*
X57826Y83178D01*
X57765Y83032D01*
X57745Y82875D01*
X57765Y82718D01*
X57826Y82572D01*
X57922Y82447D01*
X58047Y82351D01*
X58193Y82290D01*
X58350Y82270D01*
X58507Y82290D01*
X58653Y82351D01*
X58778Y82447D01*
X58874Y82572D01*
X58935Y82718D01*
X58955Y82875D01*
X58935Y83032D01*
X58874Y83178D01*
X58778Y83303D01*
X58653Y83399D01*
X58507Y83460D01*
X58350Y83480D01*
D02*
G37*
G36*
X109700Y83084D02*
X109543Y83064D01*
X109397Y83003D01*
X109272Y82907D01*
X109176Y82782D01*
X109115Y82636D01*
X109095Y82479D01*
X109115Y82323D01*
X109176Y82177D01*
X109272Y82051D01*
X109397Y81955D01*
X109543Y81895D01*
X109700Y81874D01*
X109857Y81895D01*
X110003Y81955D01*
X110128Y82051D01*
X110224Y82177D01*
X110285Y82323D01*
X110305Y82479D01*
X110285Y82636D01*
X110224Y82782D01*
X110128Y82907D01*
X110003Y83003D01*
X109857Y83064D01*
X109700Y83084D01*
D02*
G37*
G36*
X40683Y82430D02*
Y81450D01*
X41663D01*
X41593Y81681D01*
X41477Y81898D01*
X41321Y82088D01*
X41130Y82244D01*
X40913Y82360D01*
X40683Y82430D01*
D02*
G37*
G36*
X40183Y82430D02*
X39952Y82360D01*
X39735Y82244D01*
X39544Y82088D01*
X39388Y81898D01*
X39272Y81681D01*
X39202Y81450D01*
X40183D01*
Y82430D01*
D02*
G37*
G36*
X108743Y81442D02*
X108586Y81422D01*
X108440Y81361D01*
X108315Y81265D01*
X108219Y81140D01*
X108158Y80994D01*
X108137Y80837D01*
X108158Y80680D01*
X108219Y80535D01*
X108315Y80409D01*
X108440Y80313D01*
X108586Y80253D01*
X108743Y80232D01*
X108899Y80253D01*
X109045Y80313D01*
X109171Y80409D01*
X109267Y80535D01*
X109327Y80680D01*
X109348Y80837D01*
X109327Y80994D01*
X109267Y81140D01*
X109171Y81265D01*
X109045Y81361D01*
X108899Y81422D01*
X108743Y81442D01*
D02*
G37*
G36*
X62100Y81305D02*
X61943Y81285D01*
X61797Y81224D01*
X61672Y81128D01*
X61576Y81003D01*
X61515Y80857D01*
X61495Y80700D01*
X61515Y80543D01*
X61576Y80397D01*
X61672Y80272D01*
X61797Y80176D01*
X61943Y80115D01*
X62100Y80095D01*
X62257Y80115D01*
X62403Y80176D01*
X62528Y80272D01*
X62624Y80397D01*
X62685Y80543D01*
X62705Y80700D01*
X62685Y80857D01*
X62624Y81003D01*
X62528Y81128D01*
X62403Y81224D01*
X62257Y81285D01*
X62100Y81305D01*
D02*
G37*
G36*
X52195Y81280D02*
X52038Y81260D01*
X51892Y81199D01*
X51767Y81103D01*
X51671Y80978D01*
X51610Y80832D01*
X51590Y80675D01*
X51610Y80518D01*
X51671Y80372D01*
X51767Y80247D01*
X51892Y80151D01*
X52038Y80090D01*
X52195Y80070D01*
X52352Y80090D01*
X52498Y80151D01*
X52623Y80247D01*
X52719Y80372D01*
X52780Y80518D01*
X52800Y80675D01*
X52780Y80832D01*
X52719Y80978D01*
X52623Y81103D01*
X52498Y81199D01*
X52352Y81260D01*
X52195Y81280D01*
D02*
G37*
G36*
X77800Y81205D02*
X77643Y81185D01*
X77497Y81124D01*
X77372Y81028D01*
X77276Y80903D01*
X77215Y80757D01*
X77195Y80600D01*
X77215Y80443D01*
X77276Y80298D01*
X77372Y80172D01*
X77497Y80076D01*
X77643Y80016D01*
X77800Y79995D01*
X77957Y80016D01*
X78103Y80076D01*
X78228Y80172D01*
X78324Y80298D01*
X78385Y80443D01*
X78405Y80600D01*
X78385Y80757D01*
X78324Y80903D01*
X78228Y81028D01*
X78103Y81124D01*
X77957Y81185D01*
X77800Y81205D01*
D02*
G37*
G36*
X68525Y80780D02*
X68368Y80760D01*
X68222Y80699D01*
X68097Y80603D01*
X68001Y80478D01*
X67940Y80332D01*
X67920Y80175D01*
X67940Y80018D01*
X68001Y79872D01*
X68097Y79747D01*
X68222Y79651D01*
X68368Y79590D01*
X68525Y79570D01*
X68682Y79590D01*
X68828Y79651D01*
X68953Y79747D01*
X69049Y79872D01*
X69110Y80018D01*
X69130Y80175D01*
X69110Y80332D01*
X69049Y80478D01*
X68953Y80603D01*
X68828Y80699D01*
X68682Y80760D01*
X68525Y80780D01*
D02*
G37*
G36*
X111093Y79207D02*
X110884Y79179D01*
X110689Y79099D01*
X110522Y78971D01*
X110394Y78803D01*
X110313Y78609D01*
X110286Y78400D01*
X110313Y78191D01*
X110394Y77997D01*
X110522Y77829D01*
X110689Y77701D01*
X110884Y77621D01*
X111093Y77593D01*
X111302Y77621D01*
X111496Y77701D01*
X111663Y77829D01*
X111792Y77997D01*
X111872Y78191D01*
X111900Y78400D01*
X111872Y78609D01*
X111792Y78803D01*
X111663Y78971D01*
X111496Y79099D01*
X111302Y79179D01*
X111093Y79207D01*
D02*
G37*
G36*
X41663Y80950D02*
X40433D01*
X39202D01*
X39272Y80719D01*
X39388Y80502D01*
X39544Y80312D01*
X39735Y80156D01*
X39952Y80040D01*
X40141Y79982D01*
Y79878D01*
X39952Y79820D01*
X39735Y79704D01*
X39544Y79548D01*
X39388Y79358D01*
X39272Y79141D01*
X39201Y78905D01*
X39177Y78660D01*
X39201Y78415D01*
X39272Y78179D01*
X39388Y77962D01*
X39544Y77772D01*
X39735Y77616D01*
X39952Y77500D01*
X40188Y77428D01*
X40433Y77404D01*
X40678Y77428D01*
X40913Y77500D01*
X41130Y77616D01*
X41321Y77772D01*
X41477Y77962D01*
X41593Y78179D01*
X41665Y78415D01*
X41689Y78660D01*
X41665Y78905D01*
X41593Y79141D01*
X41477Y79358D01*
X41321Y79548D01*
X41130Y79704D01*
X40913Y79820D01*
X40724Y79878D01*
Y79982D01*
X40913Y80040D01*
X41130Y80156D01*
X41321Y80312D01*
X41477Y80502D01*
X41593Y80719D01*
X41663Y80950D01*
D02*
G37*
G36*
X44293Y79459D02*
X44019Y79423D01*
X43763Y79317D01*
X43544Y79149D01*
X43376Y78930D01*
X43270Y78674D01*
X43234Y78400D01*
X43270Y78126D01*
X43376Y77870D01*
X43544Y77651D01*
X43763Y77483D01*
X44019Y77377D01*
X44293Y77341D01*
X44567Y77377D01*
X44822Y77483D01*
X45042Y77651D01*
X45210Y77870D01*
X45316Y78126D01*
X45352Y78400D01*
X45316Y78674D01*
X45210Y78930D01*
X45042Y79149D01*
X44822Y79317D01*
X44567Y79423D01*
X44293Y79459D01*
D02*
G37*
G36*
X109748Y76548D02*
X109591Y76527D01*
X109445Y76467D01*
X109320Y76371D01*
X109287Y76329D01*
X109187D01*
X109171Y76350D01*
X109045Y76446D01*
X108900Y76507D01*
X108743Y76527D01*
X108586Y76507D01*
X108440Y76446D01*
X108315Y76350D01*
X108219Y76225D01*
X108158Y76079D01*
X108138Y75922D01*
X108158Y75765D01*
X108219Y75620D01*
X108315Y75494D01*
X108440Y75398D01*
X108586Y75338D01*
X108743Y75317D01*
X108900Y75338D01*
X109045Y75398D01*
X109171Y75494D01*
X109203Y75536D01*
X109303D01*
X109320Y75515D01*
X109445Y75419D01*
X109591Y75358D01*
X109748Y75338D01*
X109904Y75358D01*
X110050Y75419D01*
X110176Y75515D01*
X110272Y75640D01*
X110332Y75786D01*
X110353Y75943D01*
X110332Y76100D01*
X110272Y76245D01*
X110176Y76371D01*
X110050Y76467D01*
X109904Y76527D01*
X109748Y76548D01*
D02*
G37*
G36*
X54386Y76605D02*
X54229Y76585D01*
X54083Y76524D01*
X53958Y76428D01*
X53862Y76303D01*
X53801Y76157D01*
X53781Y76000D01*
X53801Y75843D01*
X53862Y75697D01*
X53958Y75572D01*
X54083Y75476D01*
X54229Y75415D01*
X54386Y75395D01*
X54542Y75415D01*
X54688Y75476D01*
X54814Y75572D01*
X54910Y75697D01*
X54970Y75843D01*
X54991Y76000D01*
X54970Y76157D01*
X54910Y76303D01*
X54814Y76428D01*
X54688Y76524D01*
X54542Y76585D01*
X54386Y76605D01*
D02*
G37*
G36*
X46943Y76484D02*
X46786Y76464D01*
X46640Y76403D01*
X46515Y76307D01*
X46419Y76182D01*
X46358Y76036D01*
X46338Y75879D01*
X46358Y75723D01*
X46419Y75577D01*
X46515Y75451D01*
X46640Y75355D01*
X46786Y75295D01*
X46943Y75274D01*
X47100Y75295D01*
X47245Y75355D01*
X47371Y75451D01*
X47467Y75577D01*
X47527Y75723D01*
X47548Y75879D01*
X47527Y76036D01*
X47467Y76182D01*
X47371Y76307D01*
X47245Y76403D01*
X47100Y76464D01*
X46943Y76484D01*
D02*
G37*
G36*
X45606Y74905D02*
X45449Y74885D01*
X45304Y74824D01*
X45178Y74728D01*
X45082Y74603D01*
X45022Y74457D01*
X45001Y74300D01*
X45022Y74143D01*
X45082Y73997D01*
X45178Y73872D01*
X45304Y73776D01*
X45449Y73715D01*
X45606Y73695D01*
X45763Y73715D01*
X45909Y73776D01*
X46034Y73872D01*
X46130Y73997D01*
X46191Y74143D01*
X46211Y74300D01*
X46191Y74457D01*
X46130Y74603D01*
X46034Y74728D01*
X45909Y74824D01*
X45763Y74885D01*
X45606Y74905D01*
D02*
G37*
G36*
X58971Y74705D02*
X58814Y74685D01*
X58668Y74624D01*
X58543Y74528D01*
X58447Y74403D01*
X58386Y74257D01*
X58366Y74100D01*
X58386Y73943D01*
X58447Y73797D01*
X58543Y73672D01*
X58668Y73576D01*
X58814Y73515D01*
X58971Y73495D01*
X59127Y73515D01*
X59273Y73576D01*
X59399Y73672D01*
X59495Y73797D01*
X59555Y73943D01*
X59576Y74100D01*
X59555Y74257D01*
X59495Y74403D01*
X59399Y74528D01*
X59273Y74624D01*
X59127Y74685D01*
X58971Y74705D01*
D02*
G37*
G36*
X107043Y73276D02*
X106886Y73255D01*
X106740Y73195D01*
X106615Y73099D01*
X106578D01*
X106453Y73195D01*
X106307Y73255D01*
X106150Y73276D01*
X105993Y73255D01*
X105847Y73195D01*
X105722Y73099D01*
X105700Y73070D01*
X105600D01*
X105578Y73099D01*
X105453Y73195D01*
X105307Y73255D01*
X105150Y73276D01*
X104993Y73255D01*
X104847Y73195D01*
X104722Y73099D01*
X104626Y72974D01*
X104597Y72904D01*
X104489D01*
X104460Y72974D01*
X104364Y73099D01*
X104238Y73195D01*
X104092Y73255D01*
X103936Y73276D01*
X103779Y73255D01*
X103633Y73195D01*
X103508Y73099D01*
X103412Y72974D01*
X103351Y72828D01*
X103331Y72671D01*
X103351Y72514D01*
X103412Y72368D01*
X103508Y72243D01*
X103598Y72174D01*
X103610Y72057D01*
X103572Y72028D01*
X103476Y71903D01*
X103415Y71757D01*
X103395Y71600D01*
X103415Y71443D01*
X103476Y71297D01*
X103531Y71225D01*
X103476Y71153D01*
X103415Y71007D01*
X103395Y70850D01*
X103415Y70693D01*
X103476Y70547D01*
X103572Y70422D01*
X103697Y70326D01*
X103843Y70265D01*
X104000Y70245D01*
X104157Y70265D01*
X104303Y70326D01*
X104428Y70422D01*
X104524Y70547D01*
X104585Y70693D01*
X104605Y70850D01*
X104585Y71007D01*
X104524Y71153D01*
X104469Y71225D01*
X104524Y71297D01*
X104585Y71443D01*
X104605Y71600D01*
X104585Y71757D01*
X104524Y71903D01*
X104428Y72028D01*
X104338Y72097D01*
X104325Y72214D01*
X104364Y72243D01*
X104460Y72368D01*
X104489Y72438D01*
X104597D01*
X104626Y72368D01*
X104722Y72243D01*
X104847Y72147D01*
X104993Y72086D01*
X105150Y72066D01*
X105307Y72086D01*
X105453Y72147D01*
X105578Y72243D01*
X105600Y72272D01*
X105700D01*
X105722Y72243D01*
X105847Y72147D01*
X105993Y72086D01*
X106150Y72066D01*
X106307Y72086D01*
X106453Y72147D01*
X106578Y72243D01*
X106615D01*
X106740Y72147D01*
X106886Y72086D01*
X107043Y72066D01*
X107200Y72086D01*
X107345Y72147D01*
X107471Y72243D01*
X107567Y72368D01*
X107627Y72514D01*
X107648Y72671D01*
X107627Y72828D01*
X107567Y72974D01*
X107471Y73099D01*
X107345Y73195D01*
X107200Y73255D01*
X107043Y73276D01*
D02*
G37*
G36*
X47543Y73326D02*
X47386Y73305D01*
X47240Y73245D01*
X47115Y73149D01*
X47019Y73023D01*
X46958Y72877D01*
X46938Y72721D01*
X46958Y72564D01*
X47019Y72418D01*
X47115Y72293D01*
X47240Y72197D01*
X47386Y72136D01*
X47543Y72116D01*
X47700Y72136D01*
X47845Y72197D01*
X47971Y72293D01*
X48067Y72418D01*
X48127Y72564D01*
X48148Y72721D01*
X48127Y72877D01*
X48067Y73023D01*
X47971Y73149D01*
X47845Y73245D01*
X47700Y73305D01*
X47543Y73326D01*
D02*
G37*
G36*
X73675Y73330D02*
X73518Y73310D01*
X73372Y73249D01*
X73247Y73153D01*
X73151Y73028D01*
X73090Y72882D01*
X73070Y72725D01*
X73090Y72568D01*
X73151Y72422D01*
X73247Y72297D01*
X73372Y72201D01*
X73518Y72140D01*
X73675Y72120D01*
X73832Y72140D01*
X73978Y72201D01*
X74103Y72297D01*
X74199Y72422D01*
X74216Y72463D01*
X74324D01*
X74351Y72397D01*
X74447Y72272D01*
X74572Y72176D01*
X74718Y72115D01*
X74875Y72095D01*
X75032Y72115D01*
X75178Y72176D01*
X75303Y72272D01*
X75399Y72397D01*
X75460Y72543D01*
X75480Y72700D01*
X75460Y72857D01*
X75399Y73003D01*
X75303Y73128D01*
X75178Y73224D01*
X75032Y73285D01*
X74875Y73305D01*
X74718Y73285D01*
X74572Y73224D01*
X74447Y73128D01*
X74351Y73003D01*
X74334Y72963D01*
X74226D01*
X74199Y73028D01*
X74103Y73153D01*
X73978Y73249D01*
X73832Y73310D01*
X73675Y73330D01*
D02*
G37*
G36*
X108900Y73276D02*
X108743Y73255D01*
X108597Y73195D01*
X108472Y73099D01*
X108376Y72974D01*
X108315Y72828D01*
X108295Y72671D01*
X108315Y72514D01*
X108376Y72368D01*
X108472Y72243D01*
X108597Y72147D01*
X108743Y72086D01*
X108900Y72066D01*
X109057Y72086D01*
X109203Y72147D01*
X109328Y72243D01*
X109424Y72368D01*
X109485Y72514D01*
X109505Y72671D01*
X109485Y72828D01*
X109424Y72974D01*
X109328Y73099D01*
X109203Y73195D01*
X109057Y73255D01*
X108900Y73276D01*
D02*
G37*
G36*
X54475Y73205D02*
X54318Y73185D01*
X54172Y73124D01*
X54047Y73028D01*
X53951Y72903D01*
X53890Y72757D01*
X53870Y72600D01*
X53890Y72443D01*
X53951Y72297D01*
X54047Y72172D01*
X54172Y72076D01*
X54318Y72015D01*
X54475Y71995D01*
X54632Y72015D01*
X54778Y72076D01*
X54903Y72172D01*
X54999Y72297D01*
X55060Y72443D01*
X55080Y72600D01*
X55060Y72757D01*
X54999Y72903D01*
X54903Y73028D01*
X54778Y73124D01*
X54632Y73185D01*
X54475Y73205D01*
D02*
G37*
G36*
X57737Y73159D02*
X57581Y73138D01*
X57435Y73078D01*
X57309Y72981D01*
X57213Y72856D01*
X57153Y72710D01*
X57132Y72554D01*
X57153Y72397D01*
X57213Y72251D01*
X57309Y72126D01*
X57435Y72029D01*
X57581Y71969D01*
X57737Y71948D01*
X57894Y71969D01*
X58040Y72029D01*
X58165Y72126D01*
X58261Y72251D01*
X58322Y72397D01*
X58343Y72554D01*
X58322Y72710D01*
X58261Y72856D01*
X58165Y72981D01*
X58040Y73078D01*
X57894Y73138D01*
X57737Y73159D01*
D02*
G37*
G36*
X99149Y71805D02*
X98992Y71785D01*
X98847Y71724D01*
X98721Y71628D01*
X98628D01*
X98503Y71724D01*
X98357Y71785D01*
X98200Y71805D01*
X98043Y71785D01*
X97897Y71724D01*
X97772Y71628D01*
X97679D01*
X97553Y71724D01*
X97408Y71785D01*
X97251Y71805D01*
X97094Y71785D01*
X96948Y71724D01*
X96823Y71628D01*
X96727Y71503D01*
X96666Y71357D01*
X96646Y71200D01*
X96666Y71043D01*
X96727Y70897D01*
X96823Y70772D01*
X96884Y70726D01*
Y70599D01*
X96823Y70553D01*
X96727Y70428D01*
X96666Y70282D01*
X96646Y70125D01*
X96666Y69968D01*
X96727Y69822D01*
X96823Y69697D01*
X96948Y69601D01*
X97094Y69540D01*
X97251Y69520D01*
X97408Y69540D01*
X97553Y69601D01*
X97679Y69697D01*
X97772D01*
X97897Y69601D01*
X98043Y69540D01*
X98200Y69520D01*
X98357Y69540D01*
X98503Y69601D01*
X98628Y69697D01*
X98724Y69822D01*
X98785Y69968D01*
X98805Y70125D01*
X98785Y70282D01*
X98724Y70428D01*
X98628Y70553D01*
X98567Y70599D01*
Y70726D01*
X98628Y70772D01*
X98721D01*
X98847Y70676D01*
X98992Y70615D01*
X99149Y70595D01*
X99306Y70615D01*
X99452Y70676D01*
X99577Y70772D01*
X99673Y70897D01*
X99734Y71043D01*
X99754Y71200D01*
X99734Y71357D01*
X99673Y71503D01*
X99577Y71628D01*
X99452Y71724D01*
X99306Y71785D01*
X99149Y71805D01*
D02*
G37*
G36*
X110800Y72330D02*
X110643Y72310D01*
X110497Y72249D01*
X110372Y72153D01*
X110276Y72028D01*
X110215Y71882D01*
X110195Y71725D01*
X110215Y71568D01*
X110276Y71422D01*
X110372Y71297D01*
X110497Y71201D01*
X110643Y71140D01*
X110800Y71120D01*
X110957Y71140D01*
X111103Y71201D01*
X111228Y71297D01*
X111324Y71422D01*
X111385Y71568D01*
X111405Y71725D01*
X111385Y71882D01*
X111324Y72028D01*
X111228Y72153D01*
X111103Y72249D01*
X110957Y72310D01*
X110800Y72330D01*
D02*
G37*
G36*
X85300Y72144D02*
X85143Y72124D01*
X84997Y72063D01*
X84872Y71967D01*
X84776Y71842D01*
X84715Y71696D01*
X84695Y71539D01*
X84715Y71382D01*
X84776Y71236D01*
X84872Y71111D01*
X84997Y71015D01*
X85143Y70954D01*
X85300Y70934D01*
X85457Y70954D01*
X85603Y71015D01*
X85728Y71111D01*
X85824Y71236D01*
X85885Y71382D01*
X85905Y71539D01*
X85885Y71696D01*
X85824Y71842D01*
X85728Y71967D01*
X85603Y72063D01*
X85457Y72124D01*
X85300Y72144D01*
D02*
G37*
G36*
X89000Y72144D02*
X88843Y72123D01*
X88697Y72063D01*
X88572Y71967D01*
X88476Y71842D01*
X88415Y71696D01*
X88395Y71539D01*
X88415Y71382D01*
X88476Y71236D01*
X88572Y71111D01*
X88697Y71015D01*
X88843Y70954D01*
X89000Y70934D01*
X89157Y70954D01*
X89303Y71015D01*
X89428Y71111D01*
X89524Y71236D01*
X89585Y71382D01*
X89605Y71539D01*
X89585Y71696D01*
X89524Y71842D01*
X89428Y71967D01*
X89303Y72063D01*
X89157Y72123D01*
X89000Y72144D01*
D02*
G37*
G36*
X107600Y71905D02*
X107443Y71885D01*
X107297Y71824D01*
X107172Y71728D01*
X107076Y71603D01*
X107015Y71457D01*
X106995Y71300D01*
X107015Y71143D01*
X107076Y70997D01*
X107172Y70872D01*
X107297Y70776D01*
X107443Y70715D01*
X107600Y70695D01*
X107757Y70715D01*
X107903Y70776D01*
X108028Y70872D01*
X108124Y70997D01*
X108185Y71143D01*
X108205Y71300D01*
X108185Y71457D01*
X108124Y71603D01*
X108028Y71728D01*
X107903Y71824D01*
X107757Y71885D01*
X107600Y71905D01*
D02*
G37*
G36*
X62499Y71526D02*
X62342Y71505D01*
X62196Y71445D01*
X62071Y71349D01*
X61975Y71223D01*
X61914Y71077D01*
X61894Y70921D01*
X61914Y70764D01*
X61975Y70618D01*
X62071Y70493D01*
X62196Y70397D01*
X62342Y70336D01*
X62499Y70316D01*
X62656Y70336D01*
X62802Y70397D01*
X62927Y70493D01*
X63023Y70618D01*
X63084Y70764D01*
X63104Y70921D01*
X63084Y71077D01*
X63023Y71223D01*
X62927Y71349D01*
X62802Y71445D01*
X62656Y71505D01*
X62499Y71526D01*
D02*
G37*
G36*
X64343Y70103D02*
X64186Y70082D01*
X64040Y70022D01*
X63915Y69925D01*
X63819Y69800D01*
X63758Y69654D01*
X63738Y69497D01*
X63758Y69341D01*
X63819Y69195D01*
X63915Y69069D01*
X64040Y68973D01*
X64186Y68913D01*
X64343Y68892D01*
X64500Y68913D01*
X64645Y68973D01*
X64771Y69069D01*
X64867Y69195D01*
X64927Y69341D01*
X64948Y69497D01*
X64927Y69654D01*
X64867Y69800D01*
X64771Y69925D01*
X64645Y70022D01*
X64500Y70082D01*
X64343Y70103D01*
D02*
G37*
G36*
X103826Y70030D02*
X103669Y70010D01*
X103523Y69949D01*
X103398Y69853D01*
X103302Y69728D01*
X103241Y69582D01*
X103221Y69425D01*
X103241Y69268D01*
X103302Y69122D01*
X103398Y68997D01*
X103523Y68901D01*
X103669Y68840D01*
X103826Y68820D01*
X103983Y68840D01*
X104129Y68901D01*
X104254Y68997D01*
X104350Y69122D01*
X104411Y69268D01*
X104431Y69425D01*
X104411Y69582D01*
X104350Y69728D01*
X104254Y69853D01*
X104129Y69949D01*
X103983Y70010D01*
X103826Y70030D01*
D02*
G37*
G36*
X60772Y68733D02*
X60615Y68713D01*
X60469Y68652D01*
X60344Y68556D01*
X60248Y68431D01*
X60187Y68285D01*
X60167Y68128D01*
X60187Y67971D01*
X60248Y67825D01*
X60344Y67700D01*
X60469Y67604D01*
X60615Y67543D01*
X60772Y67523D01*
X60929Y67543D01*
X61075Y67604D01*
X61200Y67700D01*
X61296Y67825D01*
X61357Y67971D01*
X61377Y68128D01*
X61357Y68285D01*
X61296Y68431D01*
X61200Y68556D01*
X61075Y68652D01*
X60929Y68713D01*
X60772Y68733D01*
D02*
G37*
G36*
X60500Y67305D02*
X60343Y67285D01*
X60197Y67224D01*
X60072Y67128D01*
X59976Y67003D01*
X59915Y66857D01*
X59895Y66700D01*
X59915Y66543D01*
X59976Y66397D01*
X60072Y66272D01*
X60197Y66176D01*
X60343Y66115D01*
X60500Y66095D01*
X60657Y66115D01*
X60803Y66176D01*
X60928Y66272D01*
X61024Y66397D01*
X61085Y66543D01*
X61105Y66700D01*
X61085Y66857D01*
X61024Y67003D01*
X60928Y67128D01*
X60803Y67224D01*
X60657Y67285D01*
X60500Y67305D01*
D02*
G37*
G36*
X59300Y66605D02*
X59143Y66585D01*
X58997Y66524D01*
X58872Y66428D01*
X58776Y66303D01*
X58715Y66157D01*
X58695Y66000D01*
X58715Y65843D01*
X58776Y65697D01*
X58872Y65572D01*
X58997Y65476D01*
X59143Y65415D01*
X59300Y65395D01*
X59457Y65415D01*
X59603Y65476D01*
X59728Y65572D01*
X59824Y65697D01*
X59885Y65843D01*
X59905Y66000D01*
X59885Y66157D01*
X59824Y66303D01*
X59728Y66428D01*
X59603Y66524D01*
X59457Y66585D01*
X59300Y66605D01*
D02*
G37*
G36*
X72101Y66455D02*
X71944Y66435D01*
X71798Y66374D01*
X71673Y66278D01*
X71577Y66153D01*
X71516Y66007D01*
X71496Y65850D01*
X71516Y65693D01*
X71577Y65547D01*
X71673Y65422D01*
X71798Y65326D01*
X71944Y65265D01*
X72101Y65245D01*
X72257Y65265D01*
X72403Y65326D01*
X72529Y65422D01*
X72625Y65547D01*
X72685Y65693D01*
X72706Y65850D01*
X72685Y66007D01*
X72625Y66153D01*
X72529Y66278D01*
X72403Y66374D01*
X72257Y66435D01*
X72101Y66455D01*
D02*
G37*
G36*
X85646Y65656D02*
X85450Y65631D01*
X85267Y65555D01*
X85111Y65435D01*
X84991Y65278D01*
X84915Y65096D01*
X84889Y64900D01*
X84915Y64704D01*
X84991Y64522D01*
X85111Y64365D01*
X85267Y64245D01*
X85450Y64169D01*
X85646Y64144D01*
X85841Y64169D01*
X86024Y64245D01*
X86181Y64365D01*
X86301Y64522D01*
X86376Y64704D01*
X86402Y64900D01*
X86376Y65096D01*
X86301Y65278D01*
X86181Y65435D01*
X86024Y65555D01*
X85841Y65631D01*
X85646Y65656D01*
D02*
G37*
G36*
X69750Y64805D02*
X69593Y64785D01*
X69447Y64724D01*
X69322Y64628D01*
X69226Y64503D01*
X69165Y64357D01*
X69145Y64200D01*
X69165Y64043D01*
X69226Y63897D01*
X69322Y63772D01*
X69447Y63676D01*
X69593Y63615D01*
X69750Y63595D01*
X69907Y63615D01*
X70053Y63676D01*
X70178Y63772D01*
X70274Y63897D01*
X70335Y64043D01*
X70355Y64200D01*
X70335Y64357D01*
X70274Y64503D01*
X70178Y64628D01*
X70053Y64724D01*
X69907Y64785D01*
X69750Y64805D01*
D02*
G37*
G36*
X49082Y65065D02*
X48886Y65039D01*
X48703Y64963D01*
X48547Y64843D01*
X48426Y64686D01*
X48351Y64504D01*
X48325Y64308D01*
X48351Y64112D01*
X48426Y63930D01*
X48547Y63773D01*
X48606Y63728D01*
X48606Y63628D01*
X48517Y63582D01*
X48360Y63702D01*
X48177Y63778D01*
X47982Y63804D01*
X47786Y63778D01*
X47603Y63702D01*
X47447Y63582D01*
X47356Y63628D01*
X47260Y63702D01*
X47077Y63778D01*
X46882Y63804D01*
X46686Y63778D01*
X46503Y63702D01*
X46347Y63582D01*
X46227Y63425D01*
X46151Y63243D01*
X46125Y63047D01*
X46151Y62851D01*
X46227Y62669D01*
X46347Y62512D01*
X46406Y62467D01*
Y62367D01*
X46347Y62321D01*
X46227Y62164D01*
X46151Y61982D01*
X46125Y61786D01*
X46151Y61590D01*
X46227Y61408D01*
X46347Y61251D01*
X46406Y61206D01*
Y61106D01*
X46347Y61060D01*
X46227Y60903D01*
X46151Y60721D01*
X46125Y60525D01*
X46151Y60329D01*
X46227Y60147D01*
X46347Y59990D01*
X46503Y59870D01*
X46686Y59794D01*
X46882Y59769D01*
X47077Y59794D01*
X47260Y59870D01*
X47417Y59990D01*
X47507Y59944D01*
X47603Y59870D01*
X47786Y59794D01*
X47982Y59769D01*
X48177Y59794D01*
X48360Y59870D01*
X48456Y59944D01*
X48547Y59990D01*
X48703Y59870D01*
X48886Y59794D01*
X49082Y59769D01*
X49277Y59794D01*
X49460Y59870D01*
X49617Y59990D01*
X49737Y60147D01*
X49812Y60329D01*
X49838Y60525D01*
X49812Y60721D01*
X49737Y60903D01*
X49617Y61060D01*
X49557Y61106D01*
X49557Y61206D01*
X49617Y61251D01*
X49737Y61408D01*
X49812Y61590D01*
X49838Y61786D01*
X49812Y61982D01*
X49737Y62164D01*
X49617Y62321D01*
X49557Y62367D01*
Y62467D01*
X49617Y62512D01*
X49737Y62669D01*
X49812Y62851D01*
X49838Y63047D01*
X49812Y63243D01*
X49737Y63425D01*
X49617Y63582D01*
X49557Y63628D01*
X49557Y63728D01*
X49617Y63773D01*
X49737Y63930D01*
X49812Y64112D01*
X49838Y64308D01*
X49812Y64504D01*
X49737Y64686D01*
X49617Y64843D01*
X49460Y64963D01*
X49277Y65039D01*
X49082Y65065D01*
D02*
G37*
G36*
X77216Y64198D02*
X77059Y64178D01*
X76913Y64117D01*
X76788Y64021D01*
X76692Y63896D01*
X76631Y63750D01*
X76611Y63593D01*
X76631Y63436D01*
X76692Y63290D01*
X76788Y63165D01*
X76913Y63069D01*
X77059Y63009D01*
X77216Y62988D01*
X77372Y63009D01*
X77518Y63069D01*
X77644Y63165D01*
X77740Y63290D01*
X77800Y63436D01*
X77821Y63593D01*
X77800Y63750D01*
X77740Y63896D01*
X77644Y64021D01*
X77518Y64117D01*
X77372Y64178D01*
X77216Y64198D01*
D02*
G37*
G36*
X90600Y63405D02*
X90443Y63385D01*
X90297Y63324D01*
X90172Y63228D01*
X90076Y63103D01*
X90015Y62957D01*
X89995Y62800D01*
X90015Y62643D01*
X90076Y62497D01*
X90172Y62372D01*
X90297Y62276D01*
X90443Y62215D01*
X90600Y62195D01*
X90757Y62215D01*
X90903Y62276D01*
X91028Y62372D01*
X91124Y62497D01*
X91185Y62643D01*
X91205Y62800D01*
X91185Y62957D01*
X91124Y63103D01*
X91028Y63228D01*
X90903Y63324D01*
X90757Y63385D01*
X90600Y63405D01*
D02*
G37*
G36*
X108450Y61730D02*
X108293Y61710D01*
X108147Y61649D01*
X108022Y61553D01*
X107926Y61428D01*
X107865Y61282D01*
X107845Y61125D01*
X107865Y60968D01*
X107926Y60822D01*
X108022Y60697D01*
X108147Y60601D01*
X108293Y60540D01*
X108450Y60520D01*
X108607Y60540D01*
X108753Y60601D01*
X108878Y60697D01*
X108974Y60822D01*
X109035Y60968D01*
X109055Y61125D01*
X109035Y61282D01*
X108974Y61428D01*
X108878Y61553D01*
X108753Y61649D01*
X108607Y61710D01*
X108450Y61730D01*
D02*
G37*
G36*
X111071Y61697D02*
X110914Y61677D01*
X110768Y61616D01*
X110643Y61520D01*
X110547Y61395D01*
X110486Y61249D01*
X110466Y61092D01*
X110486Y60935D01*
X110547Y60790D01*
X110643Y60664D01*
X110768Y60568D01*
X110914Y60508D01*
X111071Y60487D01*
X111228Y60508D01*
X111373Y60568D01*
X111499Y60664D01*
X111595Y60790D01*
X111655Y60935D01*
X111676Y61092D01*
X111655Y61249D01*
X111595Y61395D01*
X111499Y61520D01*
X111373Y61616D01*
X111228Y61677D01*
X111071Y61697D01*
D02*
G37*
G36*
X81000Y60605D02*
X80843Y60585D01*
X80697Y60524D01*
X80572Y60428D01*
X80476Y60303D01*
X80415Y60157D01*
X80395Y60000D01*
X80415Y59843D01*
X80476Y59697D01*
X80572Y59572D01*
X80697Y59476D01*
X80843Y59415D01*
X81000Y59395D01*
X81157Y59415D01*
X81303Y59476D01*
X81428Y59572D01*
X81524Y59697D01*
X81585Y59843D01*
X81605Y60000D01*
X81585Y60157D01*
X81524Y60303D01*
X81428Y60428D01*
X81303Y60524D01*
X81157Y60585D01*
X81000Y60605D01*
D02*
G37*
G36*
X56755Y58905D02*
X56598Y58884D01*
X56452Y58824D01*
X56327Y58727D01*
X56231Y58602D01*
X56175Y58468D01*
X56133Y58451D01*
X56068Y58443D01*
X56003Y58528D01*
X55878Y58624D01*
X55732Y58685D01*
X55575Y58705D01*
X55418Y58685D01*
X55272Y58624D01*
X55147Y58528D01*
X55051Y58403D01*
X54990Y58257D01*
X54970Y58100D01*
X54990Y57943D01*
X55051Y57797D01*
X55147Y57672D01*
X55272Y57576D01*
X55418Y57515D01*
X55575Y57495D01*
X55732Y57515D01*
X55878Y57576D01*
X56003Y57672D01*
X56099Y57797D01*
X56155Y57932D01*
X56197Y57948D01*
X56262Y57956D01*
X56327Y57871D01*
X56452Y57775D01*
X56598Y57715D01*
X56755Y57694D01*
X56912Y57715D01*
X57058Y57775D01*
X57183Y57871D01*
X57279Y57997D01*
X57340Y58143D01*
X57360Y58299D01*
X57340Y58456D01*
X57279Y58602D01*
X57183Y58727D01*
X57058Y58824D01*
X56912Y58884D01*
X56755Y58905D01*
D02*
G37*
G36*
X64100Y58569D02*
X63943Y58548D01*
X63797Y58488D01*
X63672Y58391D01*
X63576Y58266D01*
X63515Y58120D01*
X63495Y57963D01*
X63515Y57807D01*
X63576Y57661D01*
X63672Y57536D01*
X63797Y57439D01*
X63943Y57379D01*
X64100Y57358D01*
X64257Y57379D01*
X64403Y57439D01*
X64528Y57536D01*
X64624Y57661D01*
X64685Y57807D01*
X64705Y57963D01*
X64685Y58120D01*
X64624Y58266D01*
X64528Y58391D01*
X64403Y58488D01*
X64257Y58548D01*
X64100Y58569D01*
D02*
G37*
G36*
X61356Y59054D02*
X61199Y59033D01*
X61053Y58972D01*
X60928Y58876D01*
X60832Y58751D01*
X60771Y58605D01*
X60751Y58448D01*
X60771Y58292D01*
X60826Y58160D01*
X60792Y58054D01*
X60743Y58048D01*
X60597Y57988D01*
X60472Y57891D01*
X60376Y57766D01*
X60315Y57620D01*
X60295Y57463D01*
X60315Y57307D01*
X60376Y57161D01*
X60472Y57036D01*
X60597Y56939D01*
X60743Y56879D01*
X60900Y56858D01*
X61057Y56879D01*
X61203Y56939D01*
X61328Y57036D01*
X61424Y57161D01*
X61485Y57307D01*
X61505Y57463D01*
X61485Y57620D01*
X61430Y57752D01*
X61463Y57857D01*
X61512Y57864D01*
X61658Y57924D01*
X61784Y58020D01*
X61880Y58146D01*
X61940Y58292D01*
X61961Y58448D01*
X61940Y58605D01*
X61880Y58751D01*
X61784Y58876D01*
X61658Y58972D01*
X61512Y59033D01*
X61356Y59054D01*
D02*
G37*
G36*
X103700Y57905D02*
X103543Y57885D01*
X103397Y57824D01*
X103272Y57728D01*
X103176Y57603D01*
X103115Y57457D01*
X103095Y57300D01*
X103115Y57143D01*
X103176Y56997D01*
X103272Y56872D01*
X103397Y56776D01*
X103543Y56715D01*
X103700Y56695D01*
X103857Y56715D01*
X104003Y56776D01*
X104128Y56872D01*
X104224Y56997D01*
X104285Y57143D01*
X104305Y57300D01*
X104285Y57457D01*
X104224Y57603D01*
X104128Y57728D01*
X104003Y57824D01*
X103857Y57885D01*
X103700Y57905D01*
D02*
G37*
G36*
X68600D02*
X68443Y57885D01*
X68297Y57824D01*
X68172Y57728D01*
X68076Y57603D01*
X68015Y57457D01*
X67995Y57300D01*
X68015Y57143D01*
X68076Y56997D01*
X68172Y56872D01*
X68297Y56776D01*
X68443Y56715D01*
X68600Y56695D01*
X68757Y56715D01*
X68903Y56776D01*
X69028Y56872D01*
X69124Y56997D01*
X69185Y57143D01*
X69205Y57300D01*
X69185Y57457D01*
X69124Y57603D01*
X69028Y57728D01*
X68903Y57824D01*
X68757Y57885D01*
X68600Y57905D01*
D02*
G37*
G36*
X53220Y57505D02*
X53063Y57484D01*
X52917Y57424D01*
X52792Y57327D01*
X52696Y57202D01*
X52635Y57056D01*
X52615Y56899D01*
X52635Y56743D01*
X52696Y56597D01*
X52792Y56471D01*
X52917Y56375D01*
X53063Y56315D01*
X53220Y56294D01*
X53377Y56315D01*
X53523Y56375D01*
X53648Y56471D01*
X53744Y56597D01*
X53805Y56743D01*
X53825Y56899D01*
X53805Y57056D01*
X53744Y57202D01*
X53648Y57327D01*
X53523Y57424D01*
X53377Y57484D01*
X53220Y57505D01*
D02*
G37*
G36*
X51745D02*
X51588Y57484D01*
X51442Y57424D01*
X51317Y57327D01*
X51221Y57202D01*
X51160Y57056D01*
X51140Y56899D01*
X51160Y56743D01*
X51221Y56597D01*
X51317Y56471D01*
X51442Y56375D01*
X51588Y56315D01*
X51745Y56294D01*
X51902Y56315D01*
X52048Y56375D01*
X52173Y56471D01*
X52269Y56597D01*
X52330Y56743D01*
X52350Y56899D01*
X52330Y57056D01*
X52269Y57202D01*
X52173Y57327D01*
X52048Y57424D01*
X51902Y57484D01*
X51745Y57505D01*
D02*
G37*
G36*
X57870Y56993D02*
X57713Y56972D01*
X57567Y56912D01*
X57442Y56815D01*
X57346Y56690D01*
X57285Y56544D01*
X57265Y56387D01*
X57285Y56231D01*
X57346Y56085D01*
X57442Y55960D01*
X57567Y55863D01*
X57713Y55803D01*
X57870Y55782D01*
X58027Y55803D01*
X58173Y55863D01*
X58298Y55960D01*
X58394Y56085D01*
X58455Y56231D01*
X58475Y56387D01*
X58455Y56544D01*
X58394Y56690D01*
X58298Y56815D01*
X58173Y56912D01*
X58027Y56972D01*
X57870Y56993D01*
D02*
G37*
G36*
X55682D02*
X55525Y56972D01*
X55379Y56912D01*
X55254Y56815D01*
X55158Y56690D01*
X55097Y56544D01*
X55077Y56387D01*
X55097Y56231D01*
X55158Y56085D01*
X55254Y55960D01*
X55379Y55863D01*
X55525Y55803D01*
X55682Y55782D01*
X55839Y55803D01*
X55985Y55863D01*
X56110Y55960D01*
X56206Y56085D01*
X56267Y56231D01*
X56287Y56387D01*
X56267Y56544D01*
X56206Y56690D01*
X56110Y56815D01*
X55985Y56912D01*
X55839Y56972D01*
X55682Y56993D01*
D02*
G37*
G36*
X96585Y56290D02*
X96428Y56269D01*
X96282Y56209D01*
X96157Y56113D01*
X96061Y55987D01*
X96000Y55841D01*
X95980Y55685D01*
X96000Y55528D01*
X96061Y55382D01*
X96157Y55257D01*
X96282Y55161D01*
X96428Y55100D01*
X96585Y55080D01*
X96741Y55100D01*
X96887Y55161D01*
X97013Y55257D01*
X97109Y55382D01*
X97169Y55528D01*
X97190Y55685D01*
X97169Y55841D01*
X97109Y55987D01*
X97013Y56113D01*
X96887Y56209D01*
X96741Y56269D01*
X96585Y56290D01*
D02*
G37*
G36*
X48105Y55938D02*
X47948Y55917D01*
X47802Y55857D01*
X47677Y55761D01*
X47581Y55635D01*
X47520Y55489D01*
X47500Y55333D01*
X47520Y55176D01*
X47581Y55030D01*
X47677Y54905D01*
X47802Y54809D01*
X47948Y54748D01*
X48105Y54728D01*
X48262Y54748D01*
X48408Y54809D01*
X48533Y54905D01*
X48629Y55030D01*
X48690Y55176D01*
X48710Y55333D01*
X48690Y55489D01*
X48629Y55635D01*
X48533Y55761D01*
X48408Y55857D01*
X48262Y55917D01*
X48105Y55938D01*
D02*
G37*
G36*
X104850Y54655D02*
X104693Y54634D01*
X104547Y54574D01*
X104422Y54477D01*
X104326Y54352D01*
X104265Y54206D01*
X104245Y54049D01*
X104265Y53893D01*
X104326Y53747D01*
X104422Y53621D01*
X104547Y53525D01*
X104693Y53465D01*
X104850Y53444D01*
X105007Y53465D01*
X105153Y53525D01*
X105278Y53621D01*
X105374Y53747D01*
X105435Y53893D01*
X105455Y54049D01*
X105435Y54206D01*
X105374Y54352D01*
X105278Y54477D01*
X105153Y54574D01*
X105007Y54634D01*
X104850Y54655D01*
D02*
G37*
G36*
X48105Y54538D02*
X47948Y54517D01*
X47802Y54457D01*
X47677Y54361D01*
X47581Y54235D01*
X47520Y54089D01*
X47500Y53933D01*
X47520Y53776D01*
X47581Y53630D01*
X47677Y53505D01*
X47802Y53409D01*
X47948Y53348D01*
X48105Y53328D01*
X48262Y53348D01*
X48408Y53409D01*
X48533Y53505D01*
X48629Y53630D01*
X48690Y53776D01*
X48710Y53933D01*
X48690Y54089D01*
X48629Y54235D01*
X48533Y54361D01*
X48408Y54457D01*
X48262Y54517D01*
X48105Y54538D01*
D02*
G37*
G36*
Y53145D02*
X47948Y53124D01*
X47802Y53063D01*
X47677Y52967D01*
X47581Y52842D01*
X47520Y52696D01*
X47500Y52539D01*
X47520Y52383D01*
X47581Y52237D01*
X47677Y52111D01*
X47802Y52015D01*
X47948Y51955D01*
X48105Y51934D01*
X48262Y51955D01*
X48408Y52015D01*
X48533Y52111D01*
X48629Y52237D01*
X48690Y52383D01*
X48710Y52539D01*
X48690Y52696D01*
X48629Y52842D01*
X48533Y52967D01*
X48408Y53063D01*
X48262Y53124D01*
X48105Y53145D01*
D02*
G37*
G36*
X65925Y51555D02*
X65768Y51535D01*
X65622Y51474D01*
X65497Y51378D01*
X65401Y51253D01*
X65340Y51107D01*
X65320Y50950D01*
X65340Y50793D01*
X65401Y50647D01*
X65497Y50522D01*
X65622Y50426D01*
X65768Y50365D01*
X65925Y50345D01*
X66082Y50365D01*
X66228Y50426D01*
X66353Y50522D01*
X66449Y50647D01*
X66510Y50793D01*
X66530Y50950D01*
X66510Y51107D01*
X66449Y51253D01*
X66353Y51378D01*
X66228Y51474D01*
X66082Y51535D01*
X65925Y51555D01*
D02*
G37*
G36*
X57370Y51030D02*
X57213Y51009D01*
X57067Y50949D01*
X56942Y50852D01*
X56846Y50727D01*
X56785Y50581D01*
X56765Y50424D01*
X56785Y50268D01*
X56846Y50122D01*
X56942Y49996D01*
X57067Y49900D01*
X57213Y49840D01*
X57370Y49819D01*
X57527Y49840D01*
X57673Y49900D01*
X57798Y49996D01*
X57894Y50122D01*
X57955Y50268D01*
X57975Y50424D01*
X57955Y50581D01*
X57894Y50727D01*
X57798Y50852D01*
X57673Y50949D01*
X57527Y51009D01*
X57370Y51030D01*
D02*
G37*
G36*
X53198Y51200D02*
X53140D01*
X53032Y51155D01*
X52949Y51073D01*
X52919Y51000D01*
X52904Y50965D01*
X52904Y50906D01*
X52904Y50906D01*
X52904Y50906D01*
X52904Y49669D01*
X52904Y49616D01*
X52945Y49517D01*
X53021Y49441D01*
X53120Y49400D01*
X53173Y49400D01*
X53173Y49400D01*
X54967Y49400D01*
X55024Y49400D01*
X55130Y49444D01*
X55210Y49524D01*
X55254Y49630D01*
X55254Y49687D01*
X55254Y49687D01*
X55254Y50890D01*
X55254Y50952D01*
X55207Y51066D01*
X55120Y51153D01*
X55036Y51188D01*
X55006Y51200D01*
X54944Y51200D01*
X54944Y51200D01*
X54944Y51200D01*
X54944Y51200D01*
X53198Y51200D01*
D02*
G37*
G36*
X78706Y49789D02*
X78549Y49769D01*
X78403Y49708D01*
X78278Y49612D01*
X78182Y49487D01*
X78121Y49341D01*
X78101Y49184D01*
X78121Y49028D01*
X78182Y48882D01*
X78278Y48756D01*
X78403Y48660D01*
X78549Y48600D01*
X78706Y48579D01*
X78863Y48600D01*
X79009Y48660D01*
X79134Y48756D01*
X79230Y48882D01*
X79290Y49028D01*
X79311Y49184D01*
X79290Y49341D01*
X79230Y49487D01*
X79134Y49612D01*
X79009Y49708D01*
X78863Y49769D01*
X78706Y49789D01*
D02*
G37*
G36*
X104931Y49148D02*
X104775Y49128D01*
X104629Y49067D01*
X104503Y48971D01*
X104407Y48846D01*
X104347Y48700D01*
X104326Y48543D01*
X104347Y48387D01*
X104407Y48241D01*
X104503Y48115D01*
X104629Y48019D01*
X104775Y47959D01*
X104931Y47938D01*
X105088Y47959D01*
X105234Y48019D01*
X105359Y48115D01*
X105455Y48241D01*
X105516Y48387D01*
X105536Y48543D01*
X105516Y48700D01*
X105455Y48846D01*
X105359Y48971D01*
X105234Y49067D01*
X105088Y49128D01*
X104931Y49148D01*
D02*
G37*
G36*
X68375Y48842D02*
X68218Y48821D01*
X68072Y48761D01*
X67947Y48664D01*
X67851Y48539D01*
X67790Y48393D01*
X67770Y48236D01*
X67790Y48080D01*
X67851Y47934D01*
X67947Y47808D01*
X68072Y47712D01*
X68218Y47652D01*
X68375Y47631D01*
X68532Y47652D01*
X68678Y47712D01*
X68803Y47808D01*
X68899Y47934D01*
X68960Y48080D01*
X68980Y48236D01*
X68960Y48393D01*
X68899Y48539D01*
X68803Y48664D01*
X68678Y48761D01*
X68532Y48821D01*
X68375Y48842D01*
D02*
G37*
G36*
X59505Y48830D02*
X59348Y48809D01*
X59202Y48749D01*
X59077Y48652D01*
X58981Y48527D01*
X58920Y48381D01*
X58900Y48224D01*
X58920Y48068D01*
X58981Y47922D01*
X59077Y47796D01*
X59202Y47700D01*
X59348Y47640D01*
X59505Y47619D01*
X59662Y47640D01*
X59808Y47700D01*
X59933Y47796D01*
X60029Y47922D01*
X60090Y48068D01*
X60110Y48224D01*
X60090Y48381D01*
X60029Y48527D01*
X59933Y48652D01*
X59808Y48749D01*
X59662Y48809D01*
X59505Y48830D01*
D02*
G37*
G36*
X100500Y48355D02*
X100343Y48335D01*
X100197Y48274D01*
X100072Y48178D01*
X99976Y48053D01*
X99915Y47907D01*
X99895Y47750D01*
X99915Y47593D01*
X99976Y47447D01*
X100072Y47322D01*
X100197Y47226D01*
X100343Y47165D01*
X100500Y47145D01*
X100657Y47165D01*
X100803Y47226D01*
X100928Y47322D01*
X101024Y47447D01*
X101085Y47593D01*
X101105Y47750D01*
X101085Y47907D01*
X101024Y48053D01*
X100928Y48178D01*
X100803Y48274D01*
X100657Y48335D01*
X100500Y48355D01*
D02*
G37*
G36*
X69900Y48130D02*
X69743Y48110D01*
X69597Y48049D01*
X69472Y47953D01*
X69376Y47828D01*
X69315Y47682D01*
X69295Y47525D01*
X69315Y47368D01*
X69376Y47222D01*
X69472Y47097D01*
X69597Y47001D01*
X69743Y46940D01*
X69900Y46920D01*
X70057Y46940D01*
X70203Y47001D01*
X70328Y47097D01*
X70424Y47222D01*
X70485Y47368D01*
X70505Y47525D01*
X70485Y47682D01*
X70424Y47828D01*
X70328Y47953D01*
X70203Y48049D01*
X70057Y48110D01*
X69900Y48130D01*
D02*
G37*
G36*
X74900Y48055D02*
X74743Y48035D01*
X74597Y47974D01*
X74472Y47878D01*
X74376Y47753D01*
X74315Y47607D01*
X74295Y47450D01*
X74315Y47293D01*
X74376Y47147D01*
X74472Y47022D01*
X74597Y46926D01*
X74743Y46865D01*
X74900Y46845D01*
X75057Y46865D01*
X75203Y46926D01*
X75328Y47022D01*
X75424Y47147D01*
X75485Y47293D01*
X75505Y47450D01*
X75485Y47607D01*
X75424Y47753D01*
X75328Y47878D01*
X75203Y47974D01*
X75057Y48035D01*
X74900Y48055D01*
D02*
G37*
G36*
X55695Y47192D02*
X55538Y47171D01*
X55392Y47110D01*
X55267Y47014D01*
X55171Y46889D01*
X55110Y46743D01*
X55090Y46586D01*
X55110Y46430D01*
X55171Y46284D01*
X55267Y46158D01*
X55392Y46062D01*
X55538Y46002D01*
X55695Y45981D01*
X55852Y46002D01*
X55998Y46062D01*
X56123Y46158D01*
X56219Y46284D01*
X56280Y46430D01*
X56300Y46586D01*
X56280Y46743D01*
X56219Y46889D01*
X56123Y47014D01*
X55998Y47110D01*
X55852Y47171D01*
X55695Y47192D01*
D02*
G37*
G36*
X58608Y47180D02*
X58451Y47159D01*
X58305Y47099D01*
X58180Y47002D01*
X58084Y46877D01*
X58024Y46731D01*
X58003Y46574D01*
X58024Y46418D01*
X58084Y46272D01*
X58180Y46146D01*
X58305Y46050D01*
X58451Y45990D01*
X58608Y45969D01*
X58765Y45990D01*
X58911Y46050D01*
X59036Y46146D01*
X59132Y46272D01*
X59193Y46418D01*
X59213Y46574D01*
X59193Y46731D01*
X59132Y46877D01*
X59036Y47002D01*
X58911Y47099D01*
X58765Y47159D01*
X58608Y47180D01*
D02*
G37*
G36*
X73900Y47080D02*
X73743Y47060D01*
X73597Y46999D01*
X73472Y46903D01*
X73376Y46778D01*
X73315Y46632D01*
X73295Y46475D01*
X73315Y46318D01*
X73376Y46172D01*
X73472Y46047D01*
X73597Y45951D01*
X73743Y45890D01*
X73900Y45870D01*
X74057Y45890D01*
X74203Y45951D01*
X74328Y46047D01*
X74424Y46172D01*
X74485Y46318D01*
X74505Y46475D01*
X74485Y46632D01*
X74424Y46778D01*
X74328Y46903D01*
X74203Y46999D01*
X74057Y47060D01*
X73900Y47080D01*
D02*
G37*
G36*
X46343Y46998D02*
X46186Y46977D01*
X46040Y46917D01*
X45915Y46821D01*
X45819Y46695D01*
X45758Y46550D01*
X45738Y46393D01*
X45758Y46236D01*
X45819Y46090D01*
X45915Y45965D01*
X46040Y45869D01*
X46186Y45808D01*
X46343Y45788D01*
X46500Y45808D01*
X46645Y45869D01*
X46771Y45965D01*
X46867Y46090D01*
X46927Y46236D01*
X46948Y46393D01*
X46927Y46550D01*
X46867Y46695D01*
X46771Y46821D01*
X46645Y46917D01*
X46500Y46977D01*
X46343Y46998D01*
D02*
G37*
G36*
X100500Y46964D02*
X100343Y46944D01*
X100197Y46883D01*
X100072Y46787D01*
X99976Y46662D01*
X99915Y46516D01*
X99895Y46359D01*
X99915Y46203D01*
X99976Y46057D01*
X100072Y45931D01*
X100197Y45835D01*
X100343Y45775D01*
X100500Y45754D01*
X100657Y45775D01*
X100803Y45835D01*
X100928Y45931D01*
X101024Y46057D01*
X101085Y46203D01*
X101105Y46359D01*
X101085Y46516D01*
X101024Y46662D01*
X100928Y46787D01*
X100803Y46883D01*
X100657Y46944D01*
X100500Y46964D01*
D02*
G37*
G36*
X47184Y45839D02*
X47028Y45819D01*
X46882Y45758D01*
X46756Y45662D01*
X46660Y45537D01*
X46600Y45391D01*
X46579Y45234D01*
X46600Y45078D01*
X46660Y44932D01*
X46756Y44806D01*
X46882Y44710D01*
X47028Y44650D01*
X47184Y44629D01*
X47341Y44650D01*
X47487Y44710D01*
X47612Y44806D01*
X47708Y44932D01*
X47769Y45078D01*
X47789Y45234D01*
X47769Y45391D01*
X47708Y45537D01*
X47612Y45662D01*
X47487Y45758D01*
X47341Y45819D01*
X47184Y45839D01*
D02*
G37*
G36*
X100500Y45555D02*
X100343Y45535D01*
X100197Y45474D01*
X100072Y45378D01*
X99976Y45253D01*
X99915Y45107D01*
X99895Y44950D01*
X99915Y44793D01*
X99976Y44647D01*
X100072Y44522D01*
X100197Y44426D01*
X100343Y44365D01*
X100500Y44345D01*
X100657Y44365D01*
X100803Y44426D01*
X100928Y44522D01*
X101024Y44647D01*
X101085Y44793D01*
X101105Y44950D01*
X101085Y45107D01*
X101024Y45253D01*
X100928Y45378D01*
X100803Y45474D01*
X100657Y45535D01*
X100500Y45555D01*
D02*
G37*
G36*
X109725Y45355D02*
X109568Y45335D01*
X109422Y45274D01*
X109297Y45178D01*
X109201Y45053D01*
X109140Y44907D01*
X109120Y44750D01*
X109140Y44593D01*
X109201Y44447D01*
X109297Y44322D01*
X109422Y44226D01*
X109568Y44165D01*
X109725Y44145D01*
X109882Y44165D01*
X110028Y44226D01*
X110153Y44322D01*
X110249Y44447D01*
X110310Y44593D01*
X110330Y44750D01*
X110310Y44907D01*
X110249Y45053D01*
X110153Y45178D01*
X110028Y45274D01*
X109882Y45335D01*
X109725Y45355D01*
D02*
G37*
G36*
X53230Y45145D02*
X53073Y45124D01*
X52927Y45063D01*
X52802Y44967D01*
X52706Y44842D01*
X52645Y44696D01*
X52625Y44539D01*
X52645Y44383D01*
X52706Y44237D01*
X52802Y44111D01*
X52927Y44015D01*
X53073Y43955D01*
X53230Y43934D01*
X53387Y43955D01*
X53533Y44015D01*
X53658Y44111D01*
X53754Y44237D01*
X53815Y44383D01*
X53835Y44539D01*
X53815Y44696D01*
X53754Y44842D01*
X53658Y44967D01*
X53533Y45063D01*
X53387Y45124D01*
X53230Y45145D01*
D02*
G37*
G36*
X107701Y44855D02*
X107544Y44835D01*
X107398Y44774D01*
X107273Y44678D01*
X107176Y44553D01*
X107116Y44407D01*
X107095Y44250D01*
X107116Y44093D01*
X107176Y43947D01*
X107273Y43822D01*
X107398Y43726D01*
X107544Y43665D01*
X107701Y43645D01*
X107857Y43665D01*
X108003Y43726D01*
X108128Y43822D01*
X108225Y43947D01*
X108285Y44093D01*
X108306Y44250D01*
X108285Y44407D01*
X108225Y44553D01*
X108128Y44678D01*
X108003Y44774D01*
X107857Y44835D01*
X107701Y44855D01*
D02*
G37*
G36*
X113493Y44841D02*
X113336Y44820D01*
X113190Y44760D01*
X113065Y44664D01*
X112969Y44538D01*
X112908Y44392D01*
X112888Y44236D01*
X112908Y44079D01*
X112969Y43933D01*
X113065Y43808D01*
X113190Y43712D01*
X113336Y43651D01*
X113493Y43631D01*
X113650Y43651D01*
X113795Y43712D01*
X113921Y43808D01*
X114017Y43933D01*
X114077Y44079D01*
X114098Y44236D01*
X114077Y44392D01*
X114017Y44538D01*
X113921Y44664D01*
X113795Y44760D01*
X113650Y44820D01*
X113493Y44841D01*
D02*
G37*
G36*
X100500Y44155D02*
X100343Y44135D01*
X100197Y44074D01*
X100072Y43978D01*
X99976Y43853D01*
X99915Y43707D01*
X99895Y43550D01*
X99915Y43393D01*
X99976Y43247D01*
X100072Y43122D01*
X100197Y43026D01*
X100343Y42965D01*
X100500Y42945D01*
X100657Y42965D01*
X100803Y43026D01*
X100928Y43122D01*
X101024Y43247D01*
X101085Y43393D01*
X101105Y43550D01*
X101085Y43707D01*
X101024Y43853D01*
X100928Y43978D01*
X100803Y44074D01*
X100657Y44135D01*
X100500Y44155D01*
D02*
G37*
G36*
X113300Y43355D02*
X113143Y43335D01*
X112997Y43274D01*
X112872Y43178D01*
X112776Y43053D01*
X112715Y42907D01*
X112695Y42750D01*
X112715Y42593D01*
X112776Y42447D01*
X112872Y42322D01*
X112997Y42226D01*
X113143Y42165D01*
X113300Y42145D01*
X113457Y42165D01*
X113603Y42226D01*
X113728Y42322D01*
X113824Y42447D01*
X113885Y42593D01*
X113905Y42750D01*
X113885Y42907D01*
X113824Y43053D01*
X113728Y43178D01*
X113603Y43274D01*
X113457Y43335D01*
X113300Y43355D01*
D02*
G37*
G36*
X98600Y41905D02*
X98443Y41885D01*
X98297Y41824D01*
X98172Y41728D01*
X98076Y41603D01*
X98015Y41457D01*
X97995Y41300D01*
X98015Y41143D01*
X98076Y40997D01*
X98172Y40872D01*
X98297Y40776D01*
X98443Y40715D01*
X98600Y40695D01*
X98757Y40715D01*
X98903Y40776D01*
X99028Y40872D01*
X99124Y40997D01*
X99185Y41143D01*
X99205Y41300D01*
X99185Y41457D01*
X99124Y41603D01*
X99028Y41728D01*
X98903Y41824D01*
X98757Y41885D01*
X98600Y41905D01*
D02*
G37*
G36*
X44225Y41455D02*
X44068Y41435D01*
X43922Y41374D01*
X43797Y41278D01*
X43701Y41153D01*
X43640Y41007D01*
X43620Y40850D01*
X43640Y40693D01*
X43701Y40547D01*
X43797Y40422D01*
X43922Y40326D01*
X44068Y40265D01*
X44225Y40245D01*
X44382Y40265D01*
X44528Y40326D01*
X44653Y40422D01*
X44749Y40547D01*
X44810Y40693D01*
X44830Y40850D01*
X44810Y41007D01*
X44749Y41153D01*
X44653Y41278D01*
X44528Y41374D01*
X44382Y41435D01*
X44225Y41455D01*
D02*
G37*
G36*
X40275Y38930D02*
X40118Y38910D01*
X39972Y38849D01*
X39847Y38753D01*
X39751Y38628D01*
X39690Y38482D01*
X39670Y38325D01*
X39690Y38168D01*
X39751Y38022D01*
X39847Y37897D01*
X39972Y37801D01*
X40118Y37740D01*
X40275Y37720D01*
X40432Y37740D01*
X40578Y37801D01*
X40703Y37897D01*
X40799Y38022D01*
X40860Y38168D01*
X40880Y38325D01*
X40860Y38482D01*
X40799Y38628D01*
X40703Y38753D01*
X40578Y38849D01*
X40432Y38910D01*
X40275Y38930D01*
D02*
G37*
G36*
X40375Y37605D02*
X40218Y37585D01*
X40072Y37524D01*
X39947Y37428D01*
X39851Y37303D01*
X39790Y37157D01*
X39770Y37000D01*
X39790Y36843D01*
X39851Y36697D01*
X39947Y36572D01*
X40072Y36476D01*
X40218Y36415D01*
X40375Y36395D01*
X40532Y36415D01*
X40678Y36476D01*
X40803Y36572D01*
X40899Y36697D01*
X40960Y36843D01*
X40980Y37000D01*
X40960Y37157D01*
X40899Y37303D01*
X40803Y37428D01*
X40678Y37524D01*
X40532Y37585D01*
X40375Y37605D01*
D02*
G37*
G36*
X48213Y36105D02*
X48056Y36085D01*
X47910Y36024D01*
X47785Y35928D01*
X47689Y35803D01*
X47628Y35657D01*
X47607Y35500D01*
X47628Y35343D01*
X47689Y35197D01*
X47785Y35072D01*
X47910Y34976D01*
X48056Y34915D01*
X48213Y34895D01*
X48369Y34915D01*
X48515Y34976D01*
X48641Y35072D01*
X48737Y35197D01*
X48797Y35343D01*
X48818Y35500D01*
X48797Y35657D01*
X48737Y35803D01*
X48641Y35928D01*
X48515Y36024D01*
X48369Y36085D01*
X48213Y36105D01*
D02*
G37*
G36*
X46624Y36092D02*
X46467Y36072D01*
X46321Y36011D01*
X46196Y35915D01*
X46100Y35790D01*
X46039Y35644D01*
X46019Y35487D01*
X46039Y35330D01*
X46100Y35184D01*
X46196Y35059D01*
X46321Y34963D01*
X46467Y34902D01*
X46624Y34882D01*
X46780Y34902D01*
X46926Y34963D01*
X47052Y35059D01*
X47148Y35184D01*
X47208Y35330D01*
X47229Y35487D01*
X47208Y35644D01*
X47148Y35790D01*
X47052Y35915D01*
X46926Y36011D01*
X46780Y36072D01*
X46624Y36092D01*
D02*
G37*
G36*
X45065Y36080D02*
X44908Y36060D01*
X44762Y35999D01*
X44637Y35903D01*
X44541Y35778D01*
X44480Y35632D01*
X44460Y35475D01*
X44480Y35318D01*
X44541Y35172D01*
X44637Y35047D01*
X44762Y34951D01*
X44908Y34890D01*
X45065Y34870D01*
X45222Y34890D01*
X45368Y34951D01*
X45493Y35047D01*
X45589Y35172D01*
X45650Y35318D01*
X45670Y35475D01*
X45650Y35632D01*
X45589Y35778D01*
X45493Y35903D01*
X45368Y35999D01*
X45222Y36060D01*
X45065Y36080D01*
D02*
G37*
G36*
X37013Y35980D02*
X36856Y35960D01*
X36710Y35899D01*
X36585Y35803D01*
X36489Y35678D01*
X36428Y35532D01*
X36408Y35375D01*
X36428Y35218D01*
X36489Y35072D01*
X36585Y34947D01*
X36710Y34851D01*
X36856Y34790D01*
X37013Y34770D01*
X37170Y34790D01*
X37316Y34851D01*
X37441Y34947D01*
X37537Y35072D01*
X37598Y35218D01*
X37618Y35375D01*
X37598Y35532D01*
X37537Y35678D01*
X37441Y35803D01*
X37316Y35899D01*
X37170Y35960D01*
X37013Y35980D01*
D02*
G37*
G36*
X39140Y35962D02*
X38983Y35941D01*
X38837Y35881D01*
X38712Y35785D01*
X38616Y35659D01*
X38555Y35513D01*
X38535Y35357D01*
X38555Y35200D01*
X38616Y35054D01*
X38712Y34929D01*
X38837Y34833D01*
X38983Y34772D01*
X39140Y34752D01*
X39297Y34772D01*
X39443Y34833D01*
X39568Y34929D01*
X39664Y35054D01*
X39725Y35200D01*
X39745Y35357D01*
X39725Y35513D01*
X39664Y35659D01*
X39568Y35785D01*
X39443Y35881D01*
X39297Y35941D01*
X39140Y35962D01*
D02*
G37*
G36*
X42614Y35118D02*
X42457Y35097D01*
X42311Y35037D01*
X42186Y34941D01*
X42090Y34815D01*
X42029Y34669D01*
X42009Y34513D01*
X42029Y34356D01*
X42090Y34210D01*
X42186Y34085D01*
X42311Y33989D01*
X42457Y33928D01*
X42614Y33908D01*
X42770Y33928D01*
X42916Y33989D01*
X43042Y34085D01*
X43138Y34210D01*
X43198Y34356D01*
X43219Y34513D01*
X43198Y34669D01*
X43138Y34815D01*
X43042Y34941D01*
X42916Y35037D01*
X42770Y35097D01*
X42614Y35118D01*
D02*
G37*
G36*
X48225Y30855D02*
X48068Y30835D01*
X47922Y30774D01*
X47797Y30678D01*
X47701Y30553D01*
X47640Y30407D01*
X47620Y30250D01*
X47640Y30093D01*
X47701Y29947D01*
X47797Y29822D01*
X47922Y29726D01*
X48068Y29665D01*
X48225Y29645D01*
X48382Y29665D01*
X48528Y29726D01*
X48653Y29822D01*
X48749Y29947D01*
X48810Y30093D01*
X48830Y30250D01*
X48810Y30407D01*
X48749Y30553D01*
X48653Y30678D01*
X48528Y30774D01*
X48382Y30835D01*
X48225Y30855D01*
D02*
G37*
G36*
X46634Y30804D02*
X46477Y30784D01*
X46331Y30723D01*
X46206Y30627D01*
X46110Y30502D01*
X46049Y30356D01*
X46029Y30199D01*
X46049Y30043D01*
X46110Y29897D01*
X46206Y29771D01*
X46331Y29675D01*
X46477Y29615D01*
X46634Y29594D01*
X46790Y29615D01*
X46936Y29675D01*
X47062Y29771D01*
X47158Y29897D01*
X47218Y30043D01*
X47239Y30199D01*
X47218Y30356D01*
X47158Y30502D01*
X47062Y30627D01*
X46936Y30723D01*
X46790Y30784D01*
X46634Y30804D01*
D02*
G37*
G36*
X45050Y30761D02*
X44893Y30740D01*
X44747Y30680D01*
X44622Y30584D01*
X44526Y30458D01*
X44465Y30312D01*
X44445Y30156D01*
X44465Y29999D01*
X44526Y29853D01*
X44622Y29728D01*
X44747Y29632D01*
X44893Y29571D01*
X45050Y29551D01*
X45207Y29571D01*
X45353Y29632D01*
X45478Y29728D01*
X45574Y29853D01*
X45635Y29999D01*
X45655Y30156D01*
X45635Y30312D01*
X45574Y30458D01*
X45478Y30584D01*
X45353Y30680D01*
X45207Y30740D01*
X45050Y30761D01*
D02*
G37*
G36*
X37025Y30680D02*
X36868Y30660D01*
X36722Y30599D01*
X36597Y30503D01*
X36501Y30378D01*
X36440Y30232D01*
X36420Y30075D01*
X36440Y29918D01*
X36501Y29772D01*
X36597Y29647D01*
X36722Y29551D01*
X36868Y29490D01*
X37025Y29470D01*
X37182Y29490D01*
X37328Y29551D01*
X37453Y29647D01*
X37549Y29772D01*
X37610Y29918D01*
X37630Y30075D01*
X37610Y30232D01*
X37549Y30378D01*
X37453Y30503D01*
X37328Y30599D01*
X37182Y30660D01*
X37025Y30680D01*
D02*
G37*
G36*
X42934Y30621D02*
X42777Y30601D01*
X42631Y30540D01*
X42506Y30444D01*
X42410Y30319D01*
X42349Y30173D01*
X42329Y30016D01*
X42349Y29860D01*
X42410Y29714D01*
X42506Y29588D01*
X42631Y29492D01*
X42777Y29432D01*
X42934Y29411D01*
X43090Y29432D01*
X43236Y29492D01*
X43362Y29588D01*
X43458Y29714D01*
X43518Y29860D01*
X43539Y30016D01*
X43518Y30173D01*
X43458Y30319D01*
X43362Y30444D01*
X43236Y30540D01*
X43090Y30601D01*
X42934Y30621D01*
D02*
G37*
G36*
X39140Y30333D02*
X38983Y30312D01*
X38837Y30252D01*
X38712Y30155D01*
X38616Y30030D01*
X38555Y29884D01*
X38535Y29728D01*
X38555Y29571D01*
X38616Y29425D01*
X38712Y29300D01*
X38837Y29203D01*
X38983Y29143D01*
X39140Y29122D01*
X39297Y29143D01*
X39443Y29203D01*
X39568Y29300D01*
X39664Y29425D01*
X39725Y29571D01*
X39745Y29728D01*
X39725Y29884D01*
X39664Y30030D01*
X39568Y30155D01*
X39443Y30252D01*
X39297Y30312D01*
X39140Y30333D01*
D02*
G37*
G36*
X47408Y25825D02*
X47327Y25825D01*
X38381Y25825D01*
X38381Y25825D01*
X38302Y25825D01*
X38158Y25765D01*
X38047Y25655D01*
X37987Y25510D01*
X37987Y25432D01*
X37986Y17653D01*
X37986Y17543D01*
X38070Y17340D01*
X38226Y17184D01*
X38429Y17100D01*
X38539D01*
X47287Y17100D01*
X47376D01*
X47541Y17168D01*
X47667Y17294D01*
X47735Y17459D01*
X47735Y17548D01*
X47735Y25417D01*
X47735Y25417D01*
X47735Y25417D01*
X47735Y25417D01*
Y25498D01*
X47731Y25510D01*
X47673Y25648D01*
X47558Y25763D01*
X47408Y25825D01*
D02*
G37*
G36*
X85425Y26438D02*
X85268Y26418D01*
X85122Y26357D01*
X84997Y26261D01*
X84901Y26136D01*
X84840Y25990D01*
X84820Y25833D01*
X84840Y25676D01*
X84901Y25530D01*
X84997Y25405D01*
X85122Y25309D01*
X85268Y25248D01*
X85425Y25228D01*
X85582Y25248D01*
X85728Y25309D01*
X85853Y25405D01*
X85949Y25530D01*
X86010Y25676D01*
X86030Y25833D01*
X86010Y25990D01*
X85949Y26136D01*
X85853Y26261D01*
X85728Y26357D01*
X85582Y26418D01*
X85425Y26438D01*
D02*
G37*
G36*
X85025Y24450D02*
X84868Y24430D01*
X84722Y24369D01*
X84597Y24273D01*
X84501Y24148D01*
X84440Y24002D01*
X84420Y23845D01*
X84440Y23688D01*
X84501Y23542D01*
X84597Y23417D01*
X84722Y23321D01*
X84868Y23260D01*
X85025Y23240D01*
X85182Y23260D01*
X85328Y23321D01*
X85453Y23417D01*
X85549Y23542D01*
X85610Y23688D01*
X85630Y23845D01*
X85610Y24002D01*
X85549Y24148D01*
X85453Y24273D01*
X85328Y24369D01*
X85182Y24430D01*
X85025Y24450D01*
D02*
G37*
G36*
X83000Y22895D02*
X82843Y22875D01*
X82697Y22814D01*
X82572Y22718D01*
X82476Y22593D01*
X82415Y22447D01*
X82395Y22290D01*
X82415Y22133D01*
X82476Y21987D01*
X82572Y21862D01*
X82697Y21766D01*
X82843Y21705D01*
X83000Y21685D01*
X83157Y21705D01*
X83303Y21766D01*
X83428Y21862D01*
X83524Y21987D01*
X83585Y22133D01*
X83605Y22290D01*
X83585Y22447D01*
X83524Y22593D01*
X83428Y22718D01*
X83303Y22814D01*
X83157Y22875D01*
X83000Y22895D01*
D02*
G37*
G36*
X85400Y10250D02*
X85243Y10230D01*
X85097Y10169D01*
X84972Y10073D01*
X84876Y9948D01*
X84815Y9802D01*
X84795Y9645D01*
X84815Y9488D01*
X84876Y9342D01*
X84972Y9217D01*
X85097Y9121D01*
X85243Y9060D01*
X85400Y9040D01*
X85557Y9060D01*
X85703Y9121D01*
X85828Y9217D01*
X85924Y9342D01*
X85985Y9488D01*
X86005Y9645D01*
X85985Y9802D01*
X85924Y9948D01*
X85828Y10073D01*
X85703Y10169D01*
X85557Y10230D01*
X85400Y10250D01*
D02*
G37*
G36*
X84975Y8325D02*
X84818Y8305D01*
X84672Y8244D01*
X84547Y8148D01*
X84451Y8023D01*
X84390Y7877D01*
X84370Y7720D01*
X84390Y7563D01*
X84451Y7417D01*
X84547Y7292D01*
X84672Y7196D01*
X84818Y7135D01*
X84975Y7115D01*
X85132Y7135D01*
X85278Y7196D01*
X85403Y7292D01*
X85499Y7417D01*
X85560Y7563D01*
X85580Y7720D01*
X85560Y7877D01*
X85499Y8023D01*
X85403Y8148D01*
X85278Y8244D01*
X85132Y8305D01*
X84975Y8325D01*
D02*
G37*
G36*
X82950Y6770D02*
X82793Y6750D01*
X82647Y6689D01*
X82522Y6593D01*
X82426Y6468D01*
X82365Y6322D01*
X82345Y6165D01*
X82365Y6008D01*
X82426Y5862D01*
X82522Y5737D01*
X82647Y5641D01*
X82793Y5580D01*
X82950Y5560D01*
X83107Y5580D01*
X83253Y5641D01*
X83378Y5737D01*
X83474Y5862D01*
X83535Y6008D01*
X83555Y6165D01*
X83535Y6322D01*
X83474Y6468D01*
X83378Y6593D01*
X83253Y6689D01*
X83107Y6750D01*
X82950Y6770D01*
D02*
G37*
G36*
X103600Y31558D02*
X103404Y31533D01*
X103222Y31457D01*
X103065Y31337D01*
X102945Y31180D01*
X102869Y30998D01*
X102844Y30802D01*
X102869Y30606D01*
X102945Y30424D01*
X103065Y30267D01*
X103222Y30147D01*
X103404Y30071D01*
X103600Y30045D01*
X103796Y30071D01*
X103978Y30147D01*
X104135Y30267D01*
X104255Y30424D01*
X104331Y30606D01*
X104356Y30802D01*
X104331Y30998D01*
X104255Y31180D01*
X104135Y31337D01*
X103978Y31457D01*
X103796Y31533D01*
X103600Y31558D01*
D02*
G37*
G36*
X102000Y30555D02*
X101843Y30535D01*
X101697Y30474D01*
X101572Y30378D01*
X101476Y30253D01*
X101415Y30107D01*
X101395Y29950D01*
X101415Y29793D01*
X101476Y29647D01*
X101572Y29522D01*
X101697Y29426D01*
X101843Y29365D01*
X102000Y29345D01*
X102157Y29365D01*
X102303Y29426D01*
X102428Y29522D01*
X102524Y29647D01*
X102585Y29793D01*
X102605Y29950D01*
X102585Y30107D01*
X102524Y30253D01*
X102428Y30378D01*
X102303Y30474D01*
X102157Y30535D01*
X102000Y30555D01*
D02*
G37*
G36*
X111959Y31075D02*
X110934D01*
X109909D01*
X109973Y30920D01*
X110150Y30690D01*
X110311Y30567D01*
X110314Y30561D01*
X110307Y30443D01*
X110114Y30295D01*
X109930Y30055D01*
X109814Y29775D01*
X109774Y29475D01*
X109814Y29175D01*
X109930Y28895D01*
X110114Y28655D01*
X110354Y28470D01*
X110634Y28355D01*
X110934Y28315D01*
X111234Y28355D01*
X111514Y28470D01*
X111754Y28655D01*
X111939Y28895D01*
X112055Y29175D01*
X112094Y29475D01*
X112055Y29775D01*
X111939Y30055D01*
X111754Y30295D01*
X111561Y30443D01*
X111555Y30561D01*
X111558Y30567D01*
X111719Y30690D01*
X111895Y30920D01*
X111959Y31075D01*
D02*
G37*
G36*
X101800Y27555D02*
X101643Y27535D01*
X101497Y27474D01*
X101372Y27378D01*
X101276Y27253D01*
X101215Y27107D01*
X101195Y26950D01*
X101215Y26793D01*
X101276Y26647D01*
X101372Y26522D01*
X101497Y26426D01*
X101643Y26365D01*
X101800Y26345D01*
X101957Y26365D01*
X102103Y26426D01*
X102228Y26522D01*
X102324Y26647D01*
X102385Y26793D01*
X102405Y26950D01*
X102385Y27107D01*
X102324Y27253D01*
X102228Y27378D01*
X102103Y27474D01*
X101957Y27535D01*
X101800Y27555D01*
D02*
G37*
G36*
X102025Y24405D02*
X101868Y24385D01*
X101723Y24324D01*
X101597Y24228D01*
X101501Y24103D01*
X101441Y23957D01*
X101420Y23800D01*
X101441Y23643D01*
X101501Y23497D01*
X101597Y23372D01*
X101723Y23276D01*
X101868Y23215D01*
X102025Y23195D01*
X102182Y23215D01*
X102328Y23276D01*
X102453Y23372D01*
X102549Y23497D01*
X102610Y23643D01*
X102630Y23800D01*
X102610Y23957D01*
X102549Y24103D01*
X102453Y24228D01*
X102328Y24324D01*
X102182Y24385D01*
X102025Y24405D01*
D02*
G37*
G36*
X103600Y23752D02*
X103404Y23726D01*
X103222Y23650D01*
X103065Y23530D01*
X102945Y23373D01*
X102869Y23191D01*
X102844Y22995D01*
X102869Y22799D01*
X102945Y22617D01*
X103065Y22460D01*
X103222Y22340D01*
X103404Y22265D01*
X103600Y22239D01*
X103796Y22265D01*
X103978Y22340D01*
X104135Y22460D01*
X104255Y22617D01*
X104331Y22799D01*
X104356Y22995D01*
X104331Y23191D01*
X104255Y23373D01*
X104135Y23530D01*
X103978Y23650D01*
X103796Y23726D01*
X103600Y23752D01*
D02*
G37*
G36*
X111034Y23685D02*
X110734Y23645D01*
X110454Y23530D01*
X110214Y23345D01*
X110030Y23105D01*
X109914Y22825D01*
X109874Y22525D01*
X109914Y22225D01*
X110030Y21945D01*
X110214Y21705D01*
X110383Y21575D01*
Y21475D01*
X110214Y21345D01*
X110030Y21105D01*
X109914Y20825D01*
X109874Y20525D01*
X109914Y20225D01*
X110030Y19945D01*
X110214Y19705D01*
X110407Y19557D01*
X110414Y19439D01*
X110411Y19433D01*
X110250Y19310D01*
X110073Y19080D01*
X110009Y18925D01*
X111034D01*
X112059D01*
X111995Y19080D01*
X111819Y19310D01*
X111658Y19433D01*
X111655Y19439D01*
X111661Y19557D01*
X111854Y19705D01*
X112039Y19945D01*
X112155Y20225D01*
X112194Y20525D01*
X112155Y20825D01*
X112039Y21105D01*
X111854Y21345D01*
X111685Y21475D01*
Y21575D01*
X111854Y21705D01*
X112039Y21945D01*
X112155Y22225D01*
X112194Y22525D01*
X112155Y22825D01*
X112039Y23105D01*
X111854Y23345D01*
X111614Y23530D01*
X111334Y23645D01*
X111034Y23685D01*
D02*
G37*
G36*
X112059Y18125D02*
X111034D01*
X110009D01*
X110073Y17970D01*
X110250Y17740D01*
X110411Y17617D01*
X110414Y17611D01*
X110407Y17493D01*
X110214Y17345D01*
X110030Y17105D01*
X109914Y16825D01*
X109874Y16525D01*
X109914Y16225D01*
X110030Y15945D01*
X110214Y15705D01*
X110454Y15520D01*
X110734Y15405D01*
X111034Y15365D01*
X111334Y15405D01*
X111614Y15520D01*
X111854Y15705D01*
X112039Y15945D01*
X112155Y16225D01*
X112194Y16525D01*
X112155Y16825D01*
X112039Y17105D01*
X111854Y17345D01*
X111661Y17493D01*
X111655Y17611D01*
X111658Y17617D01*
X111819Y17740D01*
X111995Y17970D01*
X112059Y18125D01*
D02*
G37*
G36*
X103600Y15358D02*
X103404Y15333D01*
X103222Y15257D01*
X103065Y15137D01*
X102945Y14980D01*
X102869Y14798D01*
X102844Y14602D01*
X102869Y14406D01*
X102945Y14224D01*
X103065Y14067D01*
X103222Y13947D01*
X103404Y13871D01*
X103600Y13845D01*
X103796Y13871D01*
X103978Y13947D01*
X104135Y14067D01*
X104255Y14224D01*
X104331Y14406D01*
X104356Y14602D01*
X104331Y14798D01*
X104255Y14980D01*
X104135Y15137D01*
X103978Y15257D01*
X103796Y15333D01*
X103600Y15358D01*
D02*
G37*
G36*
X102013Y14310D02*
X101857Y14290D01*
X101711Y14229D01*
X101585Y14133D01*
X101489Y14008D01*
X101429Y13862D01*
X101408Y13705D01*
X101429Y13548D01*
X101489Y13402D01*
X101585Y13277D01*
X101711Y13181D01*
X101857Y13120D01*
X102013Y13100D01*
X102170Y13120D01*
X102316Y13181D01*
X102441Y13277D01*
X102537Y13402D01*
X102598Y13548D01*
X102619Y13705D01*
X102598Y13862D01*
X102537Y14008D01*
X102441Y14133D01*
X102316Y14229D01*
X102170Y14290D01*
X102013Y14310D01*
D02*
G37*
G36*
X101788Y11400D02*
X101632Y11380D01*
X101486Y11319D01*
X101360Y11223D01*
X101264Y11098D01*
X101204Y10952D01*
X101183Y10795D01*
X101204Y10638D01*
X101264Y10492D01*
X101360Y10367D01*
X101486Y10271D01*
X101632Y10210D01*
X101788Y10190D01*
X101945Y10210D01*
X102091Y10271D01*
X102216Y10367D01*
X102312Y10492D01*
X102373Y10638D01*
X102394Y10795D01*
X102373Y10952D01*
X102312Y11098D01*
X102216Y11223D01*
X102091Y11319D01*
X101945Y11380D01*
X101788Y11400D01*
D02*
G37*
G36*
X111063Y12095D02*
X110671Y12057D01*
X110294Y11942D01*
X109947Y11757D01*
X109642Y11507D01*
X109392Y11202D01*
X109207Y10855D01*
X109092Y10478D01*
X109054Y10086D01*
X109092Y9694D01*
X109207Y9317D01*
X109392Y8969D01*
X109642Y8665D01*
X109947Y8415D01*
X110294Y8229D01*
X110671Y8115D01*
X111063Y8076D01*
X111455Y8115D01*
X111832Y8229D01*
X112180Y8415D01*
X112484Y8665D01*
X112734Y8969D01*
X112920Y9317D01*
X113034Y9694D01*
X113073Y10086D01*
X113034Y10478D01*
X112920Y10855D01*
X112734Y11202D01*
X112484Y11507D01*
X112180Y11757D01*
X111832Y11942D01*
X111455Y12057D01*
X111063Y12095D01*
D02*
G37*
G36*
X101988Y8510D02*
X101832Y8490D01*
X101686Y8429D01*
X101560Y8333D01*
X101464Y8208D01*
X101404Y8062D01*
X101383Y7905D01*
X101404Y7748D01*
X101464Y7602D01*
X101560Y7477D01*
X101686Y7381D01*
X101832Y7320D01*
X101988Y7300D01*
X102145Y7320D01*
X102291Y7381D01*
X102416Y7477D01*
X102512Y7602D01*
X102573Y7748D01*
X102594Y7905D01*
X102573Y8062D01*
X102512Y8208D01*
X102416Y8333D01*
X102291Y8429D01*
X102145Y8490D01*
X101988Y8510D01*
D02*
G37*
G36*
X103600Y7552D02*
X103404Y7526D01*
X103222Y7450D01*
X103065Y7330D01*
X102945Y7173D01*
X102869Y6991D01*
X102844Y6795D01*
X102869Y6599D01*
X102945Y6417D01*
X103065Y6260D01*
X103222Y6140D01*
X103404Y6065D01*
X103600Y6039D01*
X103796Y6065D01*
X103978Y6140D01*
X104135Y6260D01*
X104255Y6417D01*
X104331Y6599D01*
X104356Y6795D01*
X104331Y6991D01*
X104255Y7173D01*
X104135Y7330D01*
X103978Y7450D01*
X103796Y7526D01*
X103600Y7552D01*
D02*
G37*
%LPD*%
D79*
X28850Y16325D02*
D03*
D85*
X110934Y31475D02*
D03*
X111034Y18525D02*
D03*
D86*
X-3200Y32300D02*
D03*
D155*
X40433Y81200D02*
D03*
D163*
X91315Y8254D02*
D03*
Y5714D02*
D03*
Y20644D02*
D03*
Y21914D02*
D03*
X87886Y21177D02*
D03*
X86305Y7857D02*
D03*
X86332Y24045D02*
D03*
X111234Y41715D02*
D03*
X127750Y52450D02*
D03*
X126500Y50886D02*
D03*
X125425Y58700D02*
D03*
X123925Y60725D02*
D03*
X109743Y59617D02*
D03*
X107105Y59645D02*
D03*
X105905Y56200D02*
D03*
X105373Y61500D02*
D03*
X110625Y43250D02*
D03*
X105800Y45180D02*
D03*
X108725Y45394D02*
D03*
X103009Y49522D02*
D03*
X94995Y44200D02*
D03*
X96900Y44116D02*
D03*
X95635Y42615D02*
D03*
X99900Y50600D02*
D03*
X71125Y64100D02*
D03*
X98243Y80980D02*
D03*
X96443Y80980D02*
D03*
X94643Y80973D02*
D03*
X92843Y80973D02*
D03*
X91043Y80973D02*
D03*
X89238Y80980D02*
D03*
X87443Y80973D02*
D03*
X85643Y80973D02*
D03*
X82626Y66550D02*
D03*
X84146Y67588D02*
D03*
X77216Y60683D02*
D03*
X76996Y50208D02*
D03*
X64970Y48970D02*
D03*
X67920Y58963D02*
D03*
X76641Y58963D02*
D03*
X80132Y58070D02*
D03*
X48970Y28000D02*
D03*
X47900D02*
D03*
X47850Y27048D02*
D03*
X36100Y15470D02*
D03*
Y16470D02*
D03*
Y14470D02*
D03*
Y13470D02*
D03*
X46800Y14934D02*
D03*
X45400Y13800D02*
D03*
Y14934D02*
D03*
X40500Y14934D02*
D03*
X36000Y23800D02*
D03*
Y24800D02*
D03*
X43184Y70975D02*
D03*
X42384Y68567D02*
D03*
X42384Y69398D02*
D03*
X42384Y70170D02*
D03*
X42384Y70975D02*
D03*
X43984D02*
D03*
X45584D02*
D03*
X47184Y70975D02*
D03*
X47184Y70170D02*
D03*
X47184Y69398D02*
D03*
X46384Y70975D02*
D03*
X101125Y16564D02*
D03*
X102364Y16539D02*
D03*
X98980Y16809D02*
D03*
X100775Y13370D02*
D03*
X98980Y3301D02*
D03*
X101125Y3800D02*
D03*
X101157Y2387D02*
D03*
X100738Y7007D02*
D03*
X101157Y18587D02*
D03*
X98980Y33009D02*
D03*
X102364Y32739D02*
D03*
X101125Y32764D02*
D03*
X101125Y20000D02*
D03*
X98980Y19501D02*
D03*
X89670Y3382D02*
D03*
X87886Y5005D02*
D03*
X83025Y19040D02*
D03*
Y18125D02*
D03*
X84075D02*
D03*
X85050D02*
D03*
X86150D02*
D03*
X87150D02*
D03*
X83025Y19955D02*
D03*
X87150Y19925D02*
D03*
Y19010D02*
D03*
X87100Y2885D02*
D03*
Y3800D02*
D03*
X82975Y3830D02*
D03*
X87100Y2000D02*
D03*
X86100D02*
D03*
X85000D02*
D03*
X84025D02*
D03*
X36941Y74575D02*
D03*
X35762Y83000D02*
D03*
X37365Y84600D02*
D03*
X36593D02*
D03*
X36000Y25800D02*
D03*
Y27800D02*
D03*
Y26800D02*
D03*
X31625Y20650D02*
D03*
X32744Y20663D02*
D03*
Y21663D02*
D03*
Y22663D02*
D03*
X31250Y25113D02*
D03*
X32744Y24663D02*
D03*
Y23663D02*
D03*
X24900Y87526D02*
D03*
Y86475D02*
D03*
X27402Y89100D02*
D03*
X28402Y90151D02*
D03*
X29402D02*
D03*
Y89100D02*
D03*
X28402D02*
D03*
X33171Y91929D02*
D03*
X31171D02*
D03*
X32171D02*
D03*
X34171D02*
D03*
X35171D02*
D03*
X32600Y86649D02*
D03*
X30600D02*
D03*
X31600D02*
D03*
X33600Y87700D02*
D03*
X31600D02*
D03*
X30600D02*
D03*
X32600D02*
D03*
X22200Y62787D02*
D03*
X23319Y62800D02*
D03*
Y63800D02*
D03*
Y64800D02*
D03*
X11499Y39600D02*
D03*
X7836Y35928D02*
D03*
X8768Y35939D02*
D03*
X-691Y44037D02*
D03*
Y44887D02*
D03*
Y45717D02*
D03*
X132Y49598D02*
D03*
Y48768D02*
D03*
Y47918D02*
D03*
X1189Y52350D02*
D03*
Y53200D02*
D03*
Y54030D02*
D03*
X-2067Y50838D02*
D03*
X-2745Y49200D02*
D03*
X-2739Y46850D02*
D03*
Y47582D02*
D03*
X-3661Y45237D02*
D03*
Y42783D02*
D03*
Y43600D02*
D03*
X-4456Y40700D02*
D03*
X-4478Y39800D02*
D03*
X4750Y21800D02*
D03*
X27375Y30450D02*
D03*
X33850Y49873D02*
D03*
X88025Y32120D02*
D03*
X88075Y29545D02*
D03*
X82975Y2000D02*
D03*
Y2915D02*
D03*
X88200Y15897D02*
D03*
Y13370D02*
D03*
X64655Y61450D02*
D03*
X33234Y48950D02*
D03*
X28744Y49050D02*
D03*
X19663Y48925D02*
D03*
X12525Y76450D02*
D03*
X21650Y51225D02*
D03*
X20100Y51254D02*
D03*
X21650Y53500D02*
D03*
X20100D02*
D03*
X20900Y52350D02*
D03*
X21825Y67250D02*
D03*
X23319Y66800D02*
D03*
Y65800D02*
D03*
X16575Y55500D02*
D03*
X15450Y62025D02*
D03*
X16675Y62000D02*
D03*
X14325Y60483D02*
D03*
X10975Y56300D02*
D03*
X10825Y60925D02*
D03*
X9350Y58775D02*
D03*
X10825D02*
D03*
X9325Y60900D02*
D03*
X10050Y59850D02*
D03*
X23076Y34076D02*
D03*
X24813Y29176D02*
D03*
X24788Y30551D02*
D03*
X22763Y29226D02*
D03*
Y30551D02*
D03*
X23763Y29903D02*
D03*
X-4500Y37136D02*
D03*
X-4522Y38000D02*
D03*
X-4500Y38900D02*
D03*
X-3661Y44418D02*
D03*
X-1900Y51626D02*
D03*
X-2739Y48389D02*
D03*
X-706Y55117D02*
D03*
X-1750Y52549D02*
D03*
X1200Y59300D02*
D03*
X40500Y13800D02*
D03*
X51045Y51824D02*
D03*
X50695Y50999D02*
D03*
X50845Y50074D02*
D03*
X51165Y49274D02*
D03*
X56665Y44724D02*
D03*
X57870Y44649D02*
D03*
X54740Y44624D02*
D03*
X51290Y45394D02*
D03*
X51270Y46579D02*
D03*
X51970Y47774D02*
D03*
X51765Y48649D02*
D03*
X113726Y45625D02*
D03*
X84737Y57183D02*
D03*
X76641Y57463D02*
D03*
X84737Y49733D02*
D03*
X68325Y84650D02*
D03*
X77188Y85025D02*
D03*
X80381Y47700D02*
D03*
X73500Y65750D02*
D03*
X47825Y84125D02*
D03*
X49625Y84150D02*
D03*
X48550Y76025D02*
D03*
X51425Y84177D02*
D03*
X53234Y84170D02*
D03*
X55025Y84161D02*
D03*
X55600Y72550D02*
D03*
X62525Y72500D02*
D03*
X78400Y84225D02*
D03*
X80225Y84177D02*
D03*
X82025D02*
D03*
X100025Y84170D02*
D03*
X100325Y72875D02*
D03*
X98525D02*
D03*
X94925Y72875D02*
D03*
X93150Y72875D02*
D03*
X91350D02*
D03*
X89525D02*
D03*
X85925D02*
D03*
X84150D02*
D03*
X82325Y72850D02*
D03*
X80525Y72875D02*
D03*
X78725D02*
D03*
X104563Y10795D02*
D03*
X100725Y10810D02*
D03*
X100675Y29557D02*
D03*
Y27017D02*
D03*
X100650Y23220D02*
D03*
X104675Y26900D02*
D03*
X63250Y49075D02*
D03*
X59330Y49539D02*
D03*
X36925Y75700D02*
D03*
X35819Y75765D02*
D03*
X51725Y76075D02*
D03*
X49925Y76025D02*
D03*
X35762Y84600D02*
D03*
Y83800D02*
D03*
X39100Y14934D02*
D03*
X44500Y27625D02*
D03*
X64060Y84850D02*
D03*
X65800Y85000D02*
D03*
X32141Y70400D02*
D03*
X10632Y35960D02*
D03*
X27925Y36600D02*
D03*
X21350Y36525D02*
D03*
X11499Y38000D02*
D03*
X9700Y35949D02*
D03*
X11499Y38800D02*
D03*
X73325Y75850D02*
D03*
X75125Y75800D02*
D03*
X64325Y75850D02*
D03*
X66150D02*
D03*
X67943D02*
D03*
X69725Y75800D02*
D03*
X71543Y75800D02*
D03*
X46024Y80925D02*
D03*
X71243Y80950D02*
D03*
X74843Y80950D02*
D03*
X69443Y80936D02*
D03*
X73343Y80857D02*
D03*
X84700Y80705D02*
D03*
X39250Y51525D02*
D03*
X33975Y51443D02*
D03*
X35274Y51625D02*
D03*
X38000D02*
D03*
X39400Y49873D02*
D03*
X60800Y81725D02*
D03*
X105625Y66800D02*
D03*
X100975Y71650D02*
D03*
X99249Y68100D02*
D03*
X102392Y67425D02*
D03*
X103643Y80980D02*
D03*
X103943Y75875D02*
D03*
X105743D02*
D03*
X71057Y59818D02*
D03*
X105193Y69706D02*
D03*
X106620Y69706D02*
D03*
X105080Y88300D02*
D03*
X108134Y86112D02*
D03*
X105943Y80837D02*
D03*
X112500Y81974D02*
D03*
X110800Y73950D02*
D03*
X108520Y69706D02*
D03*
X109754Y69731D02*
D03*
X77400Y72775D02*
D03*
X56500Y84120D02*
D03*
X59300Y83800D02*
D03*
X62600Y84200D02*
D03*
X56100Y75922D02*
D03*
X55450Y70391D02*
D03*
X53300Y76000D02*
D03*
X52300Y77200D02*
D03*
X66620Y70921D02*
D03*
X46999Y80350D02*
D03*
X59800Y86500D02*
D03*
X47984Y69398D02*
D03*
X47984Y70170D02*
D03*
X47984Y70975D02*
D03*
X114500Y41700D02*
D03*
X40700Y33625D02*
D03*
X25045Y53010D02*
D03*
X29836Y53030D02*
D03*
D164*
X62800Y64700D02*
D03*
X77189Y68900D02*
D03*
X38500Y55121D02*
D03*
X38500Y56425D02*
D03*
X14245Y49542D02*
D03*
Y50803D02*
D03*
X11053Y50900D02*
D03*
Y52161D02*
D03*
Y49674D02*
D03*
X10010Y50357D02*
D03*
Y51618D02*
D03*
Y49131D02*
D03*
Y46586D02*
D03*
Y47847D02*
D03*
Y45361D02*
D03*
X13203Y42700D02*
D03*
Y43926D02*
D03*
Y45187D02*
D03*
Y47674D02*
D03*
Y46412D02*
D03*
X14245Y48281D02*
D03*
Y45759D02*
D03*
Y47020D02*
D03*
X12437Y37045D02*
D03*
X14245Y44533D02*
D03*
Y43272D02*
D03*
Y42046D02*
D03*
X16098Y37081D02*
D03*
X14855Y37057D02*
D03*
X13636D02*
D03*
X11788Y36100D02*
D03*
X13052D02*
D03*
X14324Y36076D02*
D03*
X15543D02*
D03*
X16786Y36100D02*
D03*
X-4425Y35600D02*
D03*
X-3241D02*
D03*
X-1858D02*
D03*
X-4439Y34300D02*
D03*
X-3256D02*
D03*
X-1872D02*
D03*
X-1867Y29900D02*
D03*
X-3250D02*
D03*
X-4434D02*
D03*
Y24842D02*
D03*
Y26050D02*
D03*
Y27300D02*
D03*
Y28600D02*
D03*
X-1867D02*
D03*
X-3250D02*
D03*
Y27300D02*
D03*
Y26050D02*
D03*
Y24842D02*
D03*
M02*
