G04*
G04 #@! TF.GenerationSoftware,Altium Limited,Altium Designer,22.7.1 (60)*
G04*
G04 Layer_Physical_Order=3*
G04 Layer_Color=6736896*
%FSLAX43Y43*%
%MOMM*%
G71*
G04*
G04 #@! TF.SameCoordinates,6218B3DD-F4BF-4AD2-B5C1-062D57A95E1A*
G04*
G04*
G04 #@! TF.FilePolarity,Positive*
G04*
G01*
G75*
%ADD163C,0.700*%
%ADD164C,1.000*%
G36*
X100975Y89500D02*
X106429Y89500D01*
X106470Y89459D01*
X106500Y89371D01*
Y89299D01*
Y87271D01*
X106500Y87100D01*
X106500Y87087D01*
X106500Y86994D01*
X106500Y86900D01*
X106500Y86886D01*
X106500Y85304D01*
X106500Y85148D01*
X106408Y85110D01*
X105039Y86479D01*
X104959Y86551D01*
X104780Y86671D01*
X104582Y86753D01*
X104371Y86795D01*
X104264Y86800D01*
X104264Y86800D01*
X104264Y86800D01*
X101929Y86800D01*
X101836Y86795D01*
X101652Y86759D01*
X101480Y86687D01*
X101324Y86583D01*
X101192Y86451D01*
X101088Y86296D01*
X101016Y86123D01*
X100980Y85943D01*
X100980Y85939D01*
X100975Y85846D01*
X100975Y85846D01*
X100975Y85846D01*
X100975Y73135D01*
X100875Y73115D01*
X100849Y73178D01*
X100753Y73303D01*
X100628Y73399D01*
X100482Y73460D01*
X100325Y73480D01*
X100168Y73460D01*
X100022Y73399D01*
X99897Y73303D01*
X99801Y73178D01*
X99740Y73032D01*
X99720Y72875D01*
X99740Y72718D01*
X99801Y72572D01*
X99897Y72447D01*
X100022Y72351D01*
X100168Y72290D01*
X100325Y72270D01*
X100482Y72290D01*
X100628Y72351D01*
X100753Y72447D01*
X100849Y72572D01*
X100875Y72635D01*
X100975Y72615D01*
Y72255D01*
X100975Y72255D01*
X100818Y72235D01*
X100672Y72174D01*
X100547Y72078D01*
X100451Y71953D01*
X100390Y71807D01*
X100370Y71650D01*
X100390Y71493D01*
X100451Y71347D01*
X100547Y71222D01*
X100672Y71126D01*
X100818Y71065D01*
X100975Y71045D01*
X100975Y71045D01*
X100975Y69351D01*
X100979Y69267D01*
X101012Y69104D01*
X101075Y68950D01*
X101168Y68811D01*
X101286Y68693D01*
X101425Y68600D01*
X101579Y68537D01*
X101742Y68504D01*
X101826Y68500D01*
X104477Y68500D01*
X104547Y68503D01*
X104685Y68531D01*
X104815Y68584D01*
X104931Y68662D01*
X105030Y68761D01*
X105108Y68878D01*
X105162Y69008D01*
X105181Y69103D01*
X105193Y69101D01*
X105350Y69122D01*
X105495Y69182D01*
X105621Y69278D01*
X105717Y69404D01*
X105777Y69549D01*
X105798Y69706D01*
X105777Y69863D01*
X105717Y70009D01*
X105621Y70134D01*
X105495Y70230D01*
X105350Y70291D01*
X105193Y70311D01*
X105193Y70311D01*
X105193Y71418D01*
X105193Y71495D01*
X105223Y71646D01*
X105282Y71788D01*
X105367Y71916D01*
X105476Y72025D01*
X105604Y72111D01*
X105747Y72170D01*
X105898Y72200D01*
X105975D01*
X105975Y72200D01*
X108967Y72200D01*
X109029Y72203D01*
X109150Y72227D01*
X109265Y72275D01*
X109368Y72344D01*
X109456Y72431D01*
X109525Y72535D01*
X109573Y72649D01*
X109597Y72771D01*
X109600Y72833D01*
X109600Y72833D01*
X109600Y75281D01*
X109675Y75347D01*
X109748Y75338D01*
X109904Y75358D01*
X110050Y75419D01*
X110176Y75515D01*
X110272Y75640D01*
X110332Y75786D01*
X110353Y75943D01*
X110332Y76100D01*
X110272Y76245D01*
X110176Y76371D01*
X110050Y76467D01*
X109904Y76527D01*
X109748Y76548D01*
X109596Y76528D01*
X109572Y76646D01*
X109524Y76763D01*
X109453Y76868D01*
X109364Y76958D01*
X109258Y77028D01*
X109141Y77077D01*
X109046Y77095D01*
X109017Y77101D01*
X108955Y77104D01*
X108954Y77104D01*
X108954Y77104D01*
X108954Y77104D01*
X107372Y77104D01*
X107185Y77142D01*
X107009Y77214D01*
X106851Y77320D01*
X106716Y77455D01*
X106610Y77613D01*
X106537Y77789D01*
X106500Y77976D01*
X106500Y78071D01*
X106500Y78071D01*
X106500Y80614D01*
X106527Y80680D01*
X106548Y80837D01*
X106527Y80994D01*
X106500Y81060D01*
X106500Y85018D01*
X106500Y85018D01*
X106500Y85018D01*
Y85241D01*
X106500Y85292D01*
Y86800D01*
X106500Y86987D01*
X106500Y87000D01*
X106500Y87087D01*
X106500Y89371D01*
X106592Y89409D01*
X122319Y73682D01*
X122574Y73427D01*
X123070Y72902D01*
X123550Y72363D01*
X124014Y71811D01*
X124462Y71245D01*
X124894Y70667D01*
X125308Y70076D01*
X125706Y69474D01*
X125896Y69167D01*
X125896D01*
X125896Y69167D01*
X129288Y63687D01*
X129436Y63449D01*
X129697Y62952D01*
X129924Y62439D01*
X130114Y61912D01*
X130268Y61372D01*
X130384Y60824D01*
X130461Y60268D01*
X130500Y59709D01*
Y59428D01*
X130500D01*
X130500Y59428D01*
X130500Y46700D01*
X130500Y46599D01*
X130461Y46401D01*
X130383Y46214D01*
X130271Y46047D01*
X130128Y45904D01*
X129960Y45792D01*
X129774Y45714D01*
X129576Y45675D01*
X129475D01*
X129475Y45675D01*
Y45675D01*
X126711Y45675D01*
X126597Y45675D01*
X126372Y45720D01*
X126161Y45807D01*
X125971Y45934D01*
X125809Y46096D01*
X125682Y46286D01*
X125595Y46497D01*
X125550Y46722D01*
X125550Y46836D01*
X125550Y55630D01*
X125545Y55828D01*
X125507Y56222D01*
X125429Y56610D01*
X125315Y56988D01*
X125163Y57354D01*
X124977Y57703D01*
X124757Y58032D01*
X124506Y58338D01*
X124370Y58481D01*
X124370Y58481D01*
X123722Y59129D01*
X123597Y59248D01*
X123331Y59467D01*
X123045Y59659D01*
X122741Y59822D01*
X122423Y59954D01*
X122093Y60054D01*
X121755Y60122D01*
X121412Y60156D01*
X121240Y60160D01*
X121240Y60160D01*
X121240Y60160D01*
X117210Y60167D01*
X117183Y60203D01*
X117058Y60299D01*
X116912Y60360D01*
X116755Y60380D01*
X116598Y60360D01*
X116452Y60299D01*
X116327Y60203D01*
X116301Y60169D01*
X113923Y60173D01*
X113787Y60230D01*
X113630Y60250D01*
X113473Y60230D01*
X113339Y60174D01*
X112652Y60175D01*
X112546Y60219D01*
X112389Y60240D01*
X112232Y60219D01*
X112087Y60159D01*
X112059Y60138D01*
X111992Y60124D01*
X111773Y60034D01*
X111576Y59903D01*
X111408Y59735D01*
X111277Y59539D01*
X111186Y59320D01*
X111140Y59087D01*
X111134Y58969D01*
X111134Y58969D01*
X111134D01*
X111134Y56910D01*
X111134Y56780D01*
X111084Y56526D01*
X110985Y56287D01*
X110841Y56071D01*
X110657Y55888D01*
X110442Y55744D01*
X110202Y55645D01*
X109948Y55594D01*
X109819Y55595D01*
X109819Y55595D01*
X109819Y55595D01*
X108748Y55595D01*
X108631Y55589D01*
X108400Y55543D01*
X108183Y55453D01*
X107988Y55323D01*
X107822Y55157D01*
X107691Y54961D01*
X107601Y54744D01*
X107556Y54514D01*
X107550Y54397D01*
X107550Y54397D01*
X107550Y54397D01*
X107550Y47502D01*
X107555Y47388D01*
X107600Y47166D01*
X107686Y46957D01*
X107812Y46769D01*
X107972Y46609D01*
X108160Y46484D01*
X108369Y46397D01*
X108591Y46353D01*
X108704Y46347D01*
X113968Y46347D01*
X114065Y46348D01*
X114254Y46310D01*
X114433Y46236D01*
X114594Y46128D01*
X114731Y45992D01*
X114838Y45831D01*
X114912Y45652D01*
X114950Y45462D01*
X114950Y45365D01*
X114950Y45365D01*
X114950Y45365D01*
X114950Y42237D01*
X114850Y42188D01*
X114803Y42224D01*
X114657Y42285D01*
X114500Y42305D01*
X114343Y42285D01*
X114197Y42224D01*
X114072Y42128D01*
X113976Y42003D01*
X113915Y41857D01*
X113895Y41700D01*
X113915Y41543D01*
X113976Y41397D01*
X114072Y41272D01*
X114197Y41176D01*
X114343Y41115D01*
X114500Y41095D01*
X114657Y41115D01*
X114803Y41176D01*
X114850Y41212D01*
X114950Y41163D01*
X114950Y38483D01*
X114950Y38380D01*
X114910Y38178D01*
X114832Y37988D01*
X114717Y37817D01*
X114572Y37672D01*
X114401Y37558D01*
X114211Y37479D01*
X114009Y37439D01*
X113907Y37439D01*
X113907Y37439D01*
X113907Y37439D01*
X92139Y37439D01*
X91998Y37435D01*
X91717Y37398D01*
X91444Y37325D01*
X91182Y37217D01*
X90937Y37075D01*
X90712Y36903D01*
X90512Y36702D01*
X90339Y36478D01*
X90198Y36233D01*
X90090Y35971D01*
X90016Y35697D01*
X89980Y35417D01*
X89975Y35275D01*
X89975Y35275D01*
X89975Y35275D01*
X89975Y5739D01*
X89975Y5597D01*
X89920Y5319D01*
X89812Y5057D01*
X89654Y4821D01*
X89454Y4621D01*
X89218Y4463D01*
X88956Y4355D01*
X88678Y4300D01*
X88536Y4300D01*
X88536Y4300D01*
X88536Y4300D01*
X87434Y4300D01*
X87403Y4324D01*
X87257Y4385D01*
X87100Y4405D01*
X86943Y4385D01*
X86797Y4324D01*
X86766Y4300D01*
X83348Y4300D01*
X83278Y4354D01*
X83132Y4415D01*
X82975Y4435D01*
X82818Y4415D01*
X82672Y4354D01*
X82662Y4346D01*
X82631Y4352D01*
X82385Y4454D01*
X82164Y4601D01*
X81976Y4789D01*
X81829Y5010D01*
X81727Y5256D01*
X81675Y5517D01*
X81675Y5650D01*
X81675Y30272D01*
X81667Y30756D01*
X81604Y31722D01*
X81478Y32682D01*
X81289Y33631D01*
X81038Y34567D01*
X80727Y35483D01*
X80357Y36378D01*
X79928Y37246D01*
X79444Y38085D01*
X78906Y38890D01*
X78317Y39658D01*
X77678Y40385D01*
X77342Y40733D01*
X77342Y40733D01*
X76956Y41107D01*
X76149Y41815D01*
X75296Y42468D01*
X74403Y43064D01*
X73473Y43600D01*
X72510Y44074D01*
X71517Y44484D01*
X70500Y44827D01*
X69462Y45104D01*
X68409Y45311D01*
X67344Y45449D01*
X66272Y45516D01*
X65735Y45524D01*
X65735Y45524D01*
X65735Y45524D01*
X65405Y45523D01*
X64910Y45513D01*
X63922Y45438D01*
X62942Y45291D01*
X61976Y45072D01*
X61028Y44784D01*
X60104Y44426D01*
X59208Y44002D01*
X58346Y43514D01*
X57929Y43246D01*
X57929Y43246D01*
X57929Y43246D01*
X57483Y42948D01*
X57089Y42677D01*
X56325Y42103D01*
X55595Y41486D01*
X54900Y40830D01*
X54243Y40136D01*
X53627Y39406D01*
X53052Y38642D01*
X52521Y37848D01*
X52272Y37439D01*
X52064Y37072D01*
X51684Y36318D01*
X51355Y35540D01*
X51079Y34742D01*
X50856Y33927D01*
X50689Y33099D01*
X50577Y32262D01*
X50520Y31420D01*
X50513Y30997D01*
X50513Y30997D01*
X50513Y30997D01*
X50513Y29624D01*
X50514Y29432D01*
X50439Y29055D01*
X50292Y28700D01*
X50079Y28381D01*
X49807Y28110D01*
X49673Y28020D01*
X49566Y28069D01*
X49555Y28157D01*
X49494Y28303D01*
X49398Y28428D01*
X49273Y28524D01*
X49127Y28585D01*
X48970Y28605D01*
X48813Y28585D01*
X48667Y28524D01*
X48542Y28428D01*
X48498Y28371D01*
X48372D01*
X48328Y28428D01*
X48203Y28524D01*
X48057Y28585D01*
X47900Y28605D01*
X47743Y28585D01*
X47597Y28524D01*
X47472Y28428D01*
X47376Y28303D01*
X47315Y28157D01*
X47295Y28000D01*
X47315Y27843D01*
X47344Y27775D01*
X47277Y27675D01*
X45099Y27675D01*
X45085Y27782D01*
X45024Y27928D01*
X44928Y28053D01*
X44803Y28149D01*
X44657Y28210D01*
X44500Y28230D01*
X44343Y28210D01*
X44197Y28149D01*
X44072Y28053D01*
X43976Y27928D01*
X43915Y27782D01*
X43901Y27675D01*
X36665Y27675D01*
X36599Y27750D01*
X36605Y27800D01*
X36585Y27957D01*
X36524Y28103D01*
X36428Y28228D01*
X36303Y28324D01*
X36157Y28385D01*
X36000Y28405D01*
X35843Y28385D01*
X35697Y28324D01*
X35572Y28228D01*
X35476Y28103D01*
X35415Y27957D01*
X35395Y27800D01*
X35401Y27750D01*
X35335Y27675D01*
X32625Y27675D01*
X32435Y27675D01*
X32064Y27749D01*
X31713Y27894D01*
X31398Y28105D01*
X31130Y28373D01*
X30919Y28688D01*
X30774Y29038D01*
X30700Y29410D01*
X30700Y29600D01*
X30700Y72000D01*
X30700Y75579D01*
X30731Y75733D01*
X30791Y75879D01*
X30879Y76010D01*
X30990Y76121D01*
X31121Y76209D01*
X31267Y76269D01*
X31421Y76300D01*
X31500Y76300D01*
X31500Y76300D01*
X35366Y76300D01*
X35400Y76200D01*
X35391Y76193D01*
X35295Y76068D01*
X35235Y75922D01*
X35214Y75765D01*
X35235Y75609D01*
X35295Y75463D01*
X35391Y75338D01*
X35517Y75241D01*
X35663Y75181D01*
X35819Y75160D01*
X35976Y75181D01*
X36122Y75241D01*
X36247Y75338D01*
X36293Y75397D01*
X36356Y75397D01*
X36410Y75386D01*
X36497Y75272D01*
X36601Y75192D01*
X36609Y75172D01*
X36613Y75119D01*
X36606Y75074D01*
X36513Y75003D01*
X36417Y74878D01*
X36357Y74732D01*
X36336Y74575D01*
X36357Y74419D01*
X36417Y74273D01*
X36513Y74147D01*
X36639Y74051D01*
X36785Y73991D01*
X36941Y73970D01*
X37098Y73991D01*
X37244Y74051D01*
X37369Y74147D01*
X37465Y74273D01*
X37526Y74419D01*
X37546Y74575D01*
X37526Y74732D01*
X37465Y74878D01*
X37369Y75003D01*
X37265Y75083D01*
X37257Y75103D01*
X37253Y75156D01*
X37260Y75201D01*
X37353Y75272D01*
X37449Y75397D01*
X37510Y75543D01*
X37530Y75700D01*
X37510Y75857D01*
X37449Y76003D01*
X37353Y76128D01*
X37259Y76200D01*
X37293Y76300D01*
X40200Y76300D01*
X40357Y76308D01*
X40665Y76369D01*
X40954Y76489D01*
X41215Y76663D01*
X41437Y76885D01*
X41611Y77146D01*
X41731Y77436D01*
X41792Y77743D01*
X41800Y77900D01*
X41800Y77900D01*
X41800Y84936D01*
X41800Y85078D01*
X41837Y85359D01*
X41910Y85633D01*
X42019Y85895D01*
X42161Y86141D01*
X42334Y86366D01*
X42534Y86566D01*
X42759Y86739D01*
X43005Y86881D01*
X43267Y86989D01*
X43541Y87063D01*
X43822Y87100D01*
X43964Y87100D01*
X43964Y87100D01*
X56394Y87100D01*
X59432D01*
X59466Y87000D01*
X59372Y86928D01*
X59276Y86803D01*
X59215Y86657D01*
X59195Y86500D01*
X59215Y86343D01*
X59276Y86197D01*
X59372Y86072D01*
X59497Y85976D01*
X59643Y85915D01*
X59800Y85895D01*
X59957Y85915D01*
X60103Y85976D01*
X60228Y86072D01*
X60324Y86197D01*
X60385Y86343D01*
X60405Y86500D01*
X60385Y86657D01*
X60324Y86803D01*
X60228Y86928D01*
X60134Y87000D01*
X60168Y87100D01*
X76837D01*
X87471Y87100D01*
X87614Y87104D01*
X87897Y87131D01*
X88177Y87187D01*
X88449Y87270D01*
X88713Y87379D01*
X88964Y87513D01*
X89201Y87671D01*
X89421Y87852D01*
X89524Y87950D01*
X89524Y87950D01*
X90195Y88621D01*
X90299Y88725D01*
X90527Y88912D01*
X90772Y89076D01*
X91032Y89215D01*
X91305Y89328D01*
X91587Y89414D01*
X91877Y89471D01*
X92170Y89500D01*
X92318Y89500D01*
X92318Y89500D01*
X100975Y89500D01*
D02*
G37*
G36*
X104584Y86424D02*
X104724Y86284D01*
X104800Y86100D01*
X104800Y86001D01*
X104800Y86001D01*
X104800Y86001D01*
X104800Y85095D01*
X104800Y84996D01*
X104724Y84813D01*
X104584Y84673D01*
X104401Y84598D01*
X104303Y84598D01*
X104303Y84598D01*
X104302Y84598D01*
X103834Y84598D01*
X103782Y84595D01*
X103679Y84575D01*
X103582Y84535D01*
X103495Y84477D01*
X103421Y84403D01*
X103363Y84316D01*
X103323Y84219D01*
X103311Y84159D01*
X103303Y84116D01*
X103300Y84064D01*
X103300Y84064D01*
X103300Y84064D01*
X103300Y81473D01*
X103215Y81408D01*
X103119Y81283D01*
X103058Y81137D01*
X103038Y80980D01*
X103058Y80824D01*
X103119Y80678D01*
X103215Y80552D01*
X103300Y80487D01*
X103300Y72588D01*
X103309Y72493D01*
X103382Y72317D01*
X103517Y72182D01*
X103693Y72109D01*
X103788Y72100D01*
X103788Y72100D01*
X104251Y72100D01*
X104305Y72100D01*
X104411Y72079D01*
X104511Y72037D01*
X104601Y71977D01*
X104677Y71901D01*
X104737Y71811D01*
X104779Y71711D01*
X104792Y71643D01*
X104800Y71551D01*
Y71551D01*
X104800Y71551D01*
X104800Y71551D01*
X104800Y70161D01*
X104765Y70134D01*
X104669Y70009D01*
X104608Y69863D01*
X104588Y69706D01*
X104608Y69549D01*
X104669Y69404D01*
X104765Y69278D01*
X104785Y69263D01*
X104777Y69225D01*
X104732Y69116D01*
X104666Y69018D01*
X104583Y68934D01*
X104484Y68868D01*
X104375Y68823D01*
X104297Y68807D01*
X104200Y68800D01*
X102182Y68800D01*
X102125Y68800D01*
X102012Y68822D01*
X101906Y68866D01*
X101811Y68930D01*
X101730Y69011D01*
X101666Y69106D01*
X101622Y69212D01*
X101600Y69325D01*
X101600Y69382D01*
X101600Y69382D01*
X101600Y85951D01*
X101600Y86005D01*
X101621Y86111D01*
X101662Y86211D01*
X101723Y86301D01*
X101799Y86377D01*
X101889Y86437D01*
X101989Y86479D01*
X102095Y86500D01*
X102149Y86500D01*
X102149Y86500D01*
X104301Y86500D01*
X104400D01*
X104584Y86424D01*
D02*
G37*
%LPC*%
G36*
X105080Y88905D02*
X104923Y88885D01*
X104777Y88824D01*
X104652Y88728D01*
X104556Y88603D01*
X104495Y88457D01*
X104475Y88300D01*
X104495Y88143D01*
X104556Y87997D01*
X104652Y87872D01*
X104777Y87776D01*
X104923Y87715D01*
X105080Y87695D01*
X105237Y87715D01*
X105383Y87776D01*
X105508Y87872D01*
X105604Y87997D01*
X105665Y88143D01*
X105685Y88300D01*
X105665Y88457D01*
X105604Y88603D01*
X105508Y88728D01*
X105383Y88824D01*
X105237Y88885D01*
X105080Y88905D01*
D02*
G37*
G36*
X94225Y87386D02*
X94068Y87366D01*
X93922Y87305D01*
X93797Y87209D01*
X93701Y87084D01*
X93640Y86938D01*
X93620Y86781D01*
X93640Y86624D01*
X93701Y86478D01*
X93797Y86353D01*
X93922Y86257D01*
X94068Y86196D01*
X94225Y86176D01*
X94382Y86196D01*
X94528Y86257D01*
X94653Y86353D01*
X94749Y86478D01*
X94810Y86624D01*
X94830Y86781D01*
X94810Y86938D01*
X94749Y87084D01*
X94653Y87209D01*
X94528Y87305D01*
X94382Y87366D01*
X94225Y87386D01*
D02*
G37*
G36*
X108134Y86717D02*
X107978Y86697D01*
X107832Y86636D01*
X107707Y86540D01*
X107610Y86415D01*
X107550Y86269D01*
X107529Y86112D01*
X107550Y85955D01*
X107610Y85809D01*
X107707Y85684D01*
X107832Y85588D01*
X107978Y85528D01*
X108134Y85507D01*
X108291Y85528D01*
X108437Y85588D01*
X108562Y85684D01*
X108659Y85809D01*
X108719Y85955D01*
X108740Y86112D01*
X108719Y86269D01*
X108659Y86415D01*
X108562Y86540D01*
X108437Y86636D01*
X108291Y86697D01*
X108134Y86717D01*
D02*
G37*
G36*
X77188Y85630D02*
X77031Y85610D01*
X76885Y85549D01*
X76760Y85453D01*
X76664Y85328D01*
X76603Y85182D01*
X76583Y85025D01*
X76603Y84868D01*
X76664Y84722D01*
X76760Y84597D01*
X76885Y84501D01*
X77031Y84440D01*
X77188Y84420D01*
X77345Y84440D01*
X77491Y84501D01*
X77616Y84597D01*
X77712Y84722D01*
X77773Y84868D01*
X77793Y85025D01*
X77773Y85182D01*
X77712Y85328D01*
X77616Y85453D01*
X77491Y85549D01*
X77345Y85610D01*
X77188Y85630D01*
D02*
G37*
G36*
X65800Y85605D02*
X65643Y85585D01*
X65497Y85524D01*
X65372Y85428D01*
X65276Y85303D01*
X65215Y85157D01*
X65195Y85000D01*
X65215Y84843D01*
X65276Y84697D01*
X65372Y84572D01*
X65497Y84476D01*
X65643Y84415D01*
X65800Y84395D01*
X65957Y84415D01*
X66103Y84476D01*
X66228Y84572D01*
X66324Y84697D01*
X66385Y84843D01*
X66405Y85000D01*
X66385Y85157D01*
X66324Y85303D01*
X66228Y85428D01*
X66103Y85524D01*
X65957Y85585D01*
X65800Y85605D01*
D02*
G37*
G36*
X64060Y85455D02*
X63903Y85435D01*
X63757Y85374D01*
X63632Y85278D01*
X63536Y85153D01*
X63475Y85007D01*
X63455Y84850D01*
X63475Y84693D01*
X63536Y84547D01*
X63632Y84422D01*
X63757Y84326D01*
X63903Y84265D01*
X64060Y84245D01*
X64217Y84265D01*
X64363Y84326D01*
X64488Y84422D01*
X64584Y84547D01*
X64645Y84693D01*
X64665Y84850D01*
X64645Y85007D01*
X64584Y85153D01*
X64488Y85278D01*
X64363Y85374D01*
X64217Y85435D01*
X64060Y85455D01*
D02*
G37*
G36*
X68325Y85255D02*
X68168Y85235D01*
X68022Y85174D01*
X67897Y85078D01*
X67801Y84953D01*
X67740Y84807D01*
X67720Y84650D01*
X67740Y84493D01*
X67801Y84347D01*
X67897Y84222D01*
X68022Y84126D01*
X68168Y84065D01*
X68325Y84045D01*
X68482Y84065D01*
X68628Y84126D01*
X68753Y84222D01*
X68849Y84347D01*
X68910Y84493D01*
X68930Y84650D01*
X68910Y84807D01*
X68849Y84953D01*
X68753Y85078D01*
X68628Y85174D01*
X68482Y85235D01*
X68325Y85255D01*
D02*
G37*
G36*
X78400Y84830D02*
X78243Y84810D01*
X78097Y84749D01*
X77972Y84653D01*
X77876Y84528D01*
X77815Y84382D01*
X77795Y84225D01*
X77815Y84068D01*
X77876Y83922D01*
X77972Y83797D01*
X78097Y83701D01*
X78243Y83640D01*
X78400Y83620D01*
X78557Y83640D01*
X78703Y83701D01*
X78828Y83797D01*
X78924Y83922D01*
X78985Y84068D01*
X79005Y84225D01*
X78985Y84382D01*
X78924Y84528D01*
X78828Y84653D01*
X78703Y84749D01*
X78557Y84810D01*
X78400Y84830D01*
D02*
G37*
G36*
X62600Y84805D02*
X62443Y84785D01*
X62297Y84724D01*
X62172Y84628D01*
X62076Y84503D01*
X62015Y84357D01*
X61995Y84200D01*
X62015Y84043D01*
X62076Y83897D01*
X62172Y83772D01*
X62297Y83676D01*
X62443Y83615D01*
X62600Y83595D01*
X62757Y83615D01*
X62903Y83676D01*
X63028Y83772D01*
X63124Y83897D01*
X63185Y84043D01*
X63205Y84200D01*
X63185Y84357D01*
X63124Y84503D01*
X63028Y84628D01*
X62903Y84724D01*
X62757Y84785D01*
X62600Y84805D01*
D02*
G37*
G36*
X82025Y84782D02*
X81868Y84761D01*
X81722Y84701D01*
X81597Y84605D01*
X81501Y84479D01*
X81440Y84333D01*
X81420Y84177D01*
X81440Y84020D01*
X81501Y83874D01*
X81597Y83749D01*
X81722Y83653D01*
X81868Y83592D01*
X82025Y83572D01*
X82182Y83592D01*
X82328Y83653D01*
X82453Y83749D01*
X82549Y83874D01*
X82610Y84020D01*
X82630Y84177D01*
X82610Y84333D01*
X82549Y84479D01*
X82453Y84605D01*
X82328Y84701D01*
X82182Y84761D01*
X82025Y84782D01*
D02*
G37*
G36*
X80225D02*
X80068Y84761D01*
X79922Y84701D01*
X79797Y84605D01*
X79701Y84479D01*
X79640Y84333D01*
X79620Y84177D01*
X79640Y84020D01*
X79701Y83874D01*
X79797Y83749D01*
X79922Y83653D01*
X80068Y83592D01*
X80225Y83572D01*
X80382Y83592D01*
X80528Y83653D01*
X80653Y83749D01*
X80749Y83874D01*
X80810Y84020D01*
X80830Y84177D01*
X80810Y84333D01*
X80749Y84479D01*
X80653Y84605D01*
X80528Y84701D01*
X80382Y84761D01*
X80225Y84782D01*
D02*
G37*
G36*
X51425D02*
X51268Y84761D01*
X51122Y84701D01*
X50997Y84605D01*
X50901Y84479D01*
X50840Y84333D01*
X50820Y84177D01*
X50840Y84020D01*
X50901Y83874D01*
X50997Y83749D01*
X51122Y83653D01*
X51268Y83592D01*
X51425Y83572D01*
X51582Y83592D01*
X51728Y83653D01*
X51853Y83749D01*
X51949Y83874D01*
X52010Y84020D01*
X52030Y84177D01*
X52010Y84333D01*
X51949Y84479D01*
X51853Y84605D01*
X51728Y84701D01*
X51582Y84761D01*
X51425Y84782D01*
D02*
G37*
G36*
X100025Y84775D02*
X99868Y84754D01*
X99722Y84694D01*
X99597Y84598D01*
X99501Y84472D01*
X99440Y84326D01*
X99420Y84170D01*
X99440Y84013D01*
X99501Y83867D01*
X99597Y83742D01*
X99722Y83646D01*
X99868Y83585D01*
X100025Y83565D01*
X100182Y83585D01*
X100328Y83646D01*
X100453Y83742D01*
X100549Y83867D01*
X100610Y84013D01*
X100630Y84170D01*
X100610Y84326D01*
X100549Y84472D01*
X100453Y84598D01*
X100328Y84694D01*
X100182Y84754D01*
X100025Y84775D01*
D02*
G37*
G36*
X53234D02*
X53077Y84754D01*
X52931Y84694D01*
X52806Y84598D01*
X52710Y84472D01*
X52649Y84326D01*
X52629Y84170D01*
X52649Y84013D01*
X52710Y83867D01*
X52806Y83742D01*
X52931Y83646D01*
X53077Y83585D01*
X53234Y83565D01*
X53390Y83585D01*
X53536Y83646D01*
X53662Y83742D01*
X53758Y83867D01*
X53818Y84013D01*
X53839Y84170D01*
X53818Y84326D01*
X53758Y84472D01*
X53662Y84598D01*
X53536Y84694D01*
X53390Y84754D01*
X53234Y84775D01*
D02*
G37*
G36*
X55025Y84766D02*
X54868Y84746D01*
X54722Y84685D01*
X54597Y84589D01*
X54501Y84464D01*
X54440Y84318D01*
X54420Y84161D01*
X54440Y84004D01*
X54501Y83858D01*
X54597Y83733D01*
X54722Y83637D01*
X54868Y83576D01*
X55025Y83556D01*
X55182Y83576D01*
X55328Y83637D01*
X55453Y83733D01*
X55549Y83858D01*
X55610Y84004D01*
X55630Y84161D01*
X55610Y84318D01*
X55549Y84464D01*
X55453Y84589D01*
X55328Y84685D01*
X55182Y84746D01*
X55025Y84766D01*
D02*
G37*
G36*
X49625Y84755D02*
X49468Y84735D01*
X49322Y84674D01*
X49197Y84578D01*
X49101Y84453D01*
X49040Y84307D01*
X49020Y84150D01*
X49040Y83993D01*
X49101Y83847D01*
X49197Y83722D01*
X49322Y83626D01*
X49468Y83565D01*
X49625Y83545D01*
X49782Y83565D01*
X49928Y83626D01*
X50053Y83722D01*
X50149Y83847D01*
X50210Y83993D01*
X50230Y84150D01*
X50210Y84307D01*
X50149Y84453D01*
X50053Y84578D01*
X49928Y84674D01*
X49782Y84735D01*
X49625Y84755D01*
D02*
G37*
G36*
X47825Y84730D02*
X47668Y84710D01*
X47522Y84649D01*
X47397Y84553D01*
X47301Y84428D01*
X47240Y84282D01*
X47220Y84125D01*
X47240Y83968D01*
X47301Y83822D01*
X47397Y83697D01*
X47522Y83601D01*
X47668Y83540D01*
X47825Y83520D01*
X47982Y83540D01*
X48128Y83601D01*
X48253Y83697D01*
X48349Y83822D01*
X48410Y83968D01*
X48430Y84125D01*
X48410Y84282D01*
X48349Y84428D01*
X48253Y84553D01*
X48128Y84649D01*
X47982Y84710D01*
X47825Y84730D01*
D02*
G37*
G36*
X56500Y84725D02*
X56343Y84704D01*
X56197Y84644D01*
X56072Y84548D01*
X55976Y84422D01*
X55915Y84276D01*
X55895Y84120D01*
X55915Y83963D01*
X55976Y83817D01*
X56072Y83692D01*
X56197Y83596D01*
X56343Y83535D01*
X56500Y83515D01*
X56657Y83535D01*
X56803Y83596D01*
X56928Y83692D01*
X57024Y83817D01*
X57085Y83963D01*
X57105Y84120D01*
X57085Y84276D01*
X57024Y84422D01*
X56928Y84548D01*
X56803Y84644D01*
X56657Y84704D01*
X56500Y84725D01*
D02*
G37*
G36*
X59300Y84405D02*
X59143Y84385D01*
X58997Y84324D01*
X58872Y84228D01*
X58776Y84103D01*
X58715Y83957D01*
X58695Y83800D01*
X58715Y83643D01*
X58776Y83497D01*
X58872Y83372D01*
X58997Y83276D01*
X59143Y83215D01*
X59300Y83195D01*
X59457Y83215D01*
X59603Y83276D01*
X59728Y83372D01*
X59824Y83497D01*
X59885Y83643D01*
X59905Y83800D01*
X59885Y83957D01*
X59824Y84103D01*
X59728Y84228D01*
X59603Y84324D01*
X59457Y84385D01*
X59300Y84405D01*
D02*
G37*
G36*
X109700Y83084D02*
X109543Y83064D01*
X109397Y83003D01*
X109272Y82907D01*
X109176Y82782D01*
X109115Y82636D01*
X109095Y82479D01*
X109115Y82323D01*
X109176Y82177D01*
X109272Y82051D01*
X109397Y81955D01*
X109543Y81895D01*
X109700Y81874D01*
X109857Y81895D01*
X110003Y81955D01*
X110128Y82051D01*
X110224Y82177D01*
X110285Y82323D01*
X110305Y82479D01*
X110285Y82636D01*
X110224Y82782D01*
X110128Y82907D01*
X110003Y83003D01*
X109857Y83064D01*
X109700Y83084D01*
D02*
G37*
G36*
X112500Y82579D02*
X112343Y82559D01*
X112197Y82498D01*
X112072Y82402D01*
X111976Y82277D01*
X111915Y82131D01*
X111895Y81974D01*
X111915Y81818D01*
X111976Y81672D01*
X112072Y81546D01*
X112197Y81450D01*
X112343Y81390D01*
X112500Y81369D01*
X112657Y81390D01*
X112803Y81450D01*
X112928Y81546D01*
X113024Y81672D01*
X113085Y81818D01*
X113105Y81974D01*
X113085Y82131D01*
X113024Y82277D01*
X112928Y82402D01*
X112803Y82498D01*
X112657Y82559D01*
X112500Y82579D01*
D02*
G37*
G36*
X85643Y81578D02*
X85486Y81558D01*
X85340Y81497D01*
X85215Y81401D01*
X85119Y81276D01*
X85107Y81248D01*
X85030Y81228D01*
X84993Y81233D01*
X84857Y81289D01*
X84700Y81310D01*
X84543Y81289D01*
X84397Y81229D01*
X84272Y81133D01*
X84176Y81007D01*
X84115Y80861D01*
X84095Y80705D01*
X84115Y80548D01*
X84176Y80402D01*
X84272Y80277D01*
X84397Y80181D01*
X84543Y80120D01*
X84700Y80099D01*
X84857Y80120D01*
X85003Y80181D01*
X85128Y80277D01*
X85224Y80402D01*
X85235Y80430D01*
X85332Y80455D01*
X85340Y80449D01*
X85486Y80389D01*
X85643Y80368D01*
X85800Y80389D01*
X85945Y80449D01*
X86071Y80545D01*
X86167Y80671D01*
X86227Y80817D01*
X86248Y80973D01*
X86227Y81130D01*
X86167Y81276D01*
X86071Y81401D01*
X85945Y81497D01*
X85800Y81558D01*
X85643Y81578D01*
D02*
G37*
G36*
X60800Y82330D02*
X60643Y82310D01*
X60497Y82249D01*
X60372Y82153D01*
X60276Y82028D01*
X60215Y81882D01*
X60195Y81725D01*
X60215Y81568D01*
X60276Y81422D01*
X60372Y81297D01*
X60497Y81201D01*
X60643Y81140D01*
X60800Y81120D01*
X60957Y81140D01*
X61103Y81201D01*
X61228Y81297D01*
X61324Y81422D01*
X61385Y81568D01*
X61405Y81725D01*
X61385Y81882D01*
X61324Y82028D01*
X61228Y82153D01*
X61103Y82249D01*
X60957Y82310D01*
X60800Y82330D01*
D02*
G37*
G36*
X96443Y81585D02*
X96286Y81565D01*
X96140Y81504D01*
X96015Y81408D01*
X95919Y81283D01*
X95858Y81137D01*
X95838Y80980D01*
X95858Y80824D01*
X95919Y80678D01*
X96015Y80552D01*
X96140Y80456D01*
X96286Y80396D01*
X96443Y80375D01*
X96600Y80396D01*
X96745Y80456D01*
X96871Y80552D01*
X96967Y80678D01*
X97027Y80824D01*
X97048Y80980D01*
X97027Y81137D01*
X96967Y81283D01*
X96871Y81408D01*
X96745Y81504D01*
X96600Y81565D01*
X96443Y81585D01*
D02*
G37*
G36*
X89238D02*
X89081Y81565D01*
X88935Y81504D01*
X88810Y81408D01*
X88714Y81283D01*
X88653Y81137D01*
X88633Y80980D01*
X88653Y80824D01*
X88714Y80678D01*
X88810Y80552D01*
X88935Y80456D01*
X89081Y80396D01*
X89238Y80375D01*
X89395Y80396D01*
X89540Y80456D01*
X89666Y80552D01*
X89762Y80678D01*
X89822Y80824D01*
X89843Y80980D01*
X89822Y81137D01*
X89762Y81283D01*
X89666Y81408D01*
X89540Y81504D01*
X89395Y81565D01*
X89238Y81585D01*
D02*
G37*
G36*
X98243Y81585D02*
X98086Y81565D01*
X97940Y81504D01*
X97815Y81408D01*
X97719Y81283D01*
X97658Y81137D01*
X97638Y80980D01*
X97658Y80824D01*
X97719Y80678D01*
X97815Y80552D01*
X97940Y80456D01*
X98086Y80396D01*
X98243Y80375D01*
X98400Y80396D01*
X98545Y80456D01*
X98671Y80552D01*
X98767Y80678D01*
X98827Y80824D01*
X98848Y80980D01*
X98827Y81137D01*
X98767Y81283D01*
X98671Y81408D01*
X98545Y81504D01*
X98400Y81565D01*
X98243Y81585D01*
D02*
G37*
G36*
X94643Y81578D02*
X94486Y81558D01*
X94340Y81497D01*
X94215Y81401D01*
X94119Y81276D01*
X94058Y81130D01*
X94038Y80973D01*
X94058Y80817D01*
X94119Y80671D01*
X94215Y80545D01*
X94340Y80449D01*
X94486Y80389D01*
X94643Y80368D01*
X94800Y80389D01*
X94945Y80449D01*
X95071Y80545D01*
X95167Y80671D01*
X95227Y80817D01*
X95248Y80973D01*
X95227Y81130D01*
X95167Y81276D01*
X95071Y81401D01*
X94945Y81497D01*
X94800Y81558D01*
X94643Y81578D01*
D02*
G37*
G36*
X91043Y81578D02*
X90886Y81558D01*
X90740Y81497D01*
X90615Y81401D01*
X90519Y81276D01*
X90458Y81130D01*
X90438Y80973D01*
X90458Y80817D01*
X90519Y80671D01*
X90615Y80545D01*
X90740Y80449D01*
X90886Y80389D01*
X91043Y80368D01*
X91200Y80389D01*
X91345Y80449D01*
X91471Y80545D01*
X91567Y80671D01*
X91627Y80817D01*
X91648Y80973D01*
X91627Y81130D01*
X91567Y81276D01*
X91471Y81401D01*
X91345Y81497D01*
X91200Y81558D01*
X91043Y81578D01*
D02*
G37*
G36*
X87443D02*
X87286Y81558D01*
X87140Y81497D01*
X87015Y81401D01*
X86919Y81276D01*
X86858Y81130D01*
X86838Y80973D01*
X86858Y80817D01*
X86919Y80671D01*
X87015Y80545D01*
X87140Y80449D01*
X87286Y80389D01*
X87443Y80368D01*
X87600Y80389D01*
X87745Y80449D01*
X87871Y80545D01*
X87967Y80671D01*
X88027Y80817D01*
X88048Y80973D01*
X88027Y81130D01*
X87967Y81276D01*
X87871Y81401D01*
X87745Y81497D01*
X87600Y81558D01*
X87443Y81578D01*
D02*
G37*
G36*
X92843Y81578D02*
X92686Y81558D01*
X92540Y81497D01*
X92415Y81401D01*
X92319Y81276D01*
X92258Y81130D01*
X92238Y80973D01*
X92258Y80817D01*
X92319Y80671D01*
X92415Y80545D01*
X92540Y80449D01*
X92686Y80389D01*
X92843Y80368D01*
X93000Y80389D01*
X93145Y80449D01*
X93271Y80545D01*
X93367Y80671D01*
X93427Y80817D01*
X93448Y80973D01*
X93427Y81130D01*
X93367Y81276D01*
X93271Y81401D01*
X93145Y81497D01*
X93000Y81558D01*
X92843Y81578D01*
D02*
G37*
G36*
X74843Y81555D02*
X74686Y81535D01*
X74540Y81474D01*
X74415Y81378D01*
X74319Y81253D01*
X74258Y81107D01*
X74238Y80950D01*
X74258Y80793D01*
X74319Y80647D01*
X74415Y80522D01*
X74540Y80426D01*
X74686Y80365D01*
X74843Y80345D01*
X75000Y80365D01*
X75145Y80426D01*
X75271Y80522D01*
X75367Y80647D01*
X75427Y80793D01*
X75448Y80950D01*
X75427Y81107D01*
X75367Y81253D01*
X75271Y81378D01*
X75145Y81474D01*
X75000Y81535D01*
X74843Y81555D01*
D02*
G37*
G36*
X71243Y81555D02*
X71086Y81535D01*
X70940Y81474D01*
X70815Y81378D01*
X70719Y81253D01*
X70658Y81107D01*
X70638Y80950D01*
X70658Y80793D01*
X70719Y80647D01*
X70815Y80522D01*
X70940Y80426D01*
X71086Y80365D01*
X71243Y80345D01*
X71400Y80365D01*
X71545Y80426D01*
X71671Y80522D01*
X71767Y80647D01*
X71827Y80793D01*
X71848Y80950D01*
X71827Y81107D01*
X71767Y81253D01*
X71671Y81378D01*
X71545Y81474D01*
X71400Y81535D01*
X71243Y81555D01*
D02*
G37*
G36*
X69443Y81541D02*
X69286Y81521D01*
X69140Y81460D01*
X69015Y81364D01*
X68919Y81239D01*
X68858Y81093D01*
X68838Y80936D01*
X68858Y80779D01*
X68919Y80633D01*
X69015Y80508D01*
X69140Y80412D01*
X69286Y80351D01*
X69443Y80331D01*
X69600Y80351D01*
X69745Y80412D01*
X69871Y80508D01*
X69967Y80633D01*
X70027Y80779D01*
X70048Y80936D01*
X70027Y81093D01*
X69967Y81239D01*
X69871Y81364D01*
X69745Y81460D01*
X69600Y81521D01*
X69443Y81541D01*
D02*
G37*
G36*
X73343Y81462D02*
X73186Y81442D01*
X73040Y81381D01*
X72915Y81285D01*
X72819Y81160D01*
X72758Y81014D01*
X72738Y80857D01*
X72758Y80700D01*
X72819Y80555D01*
X72915Y80429D01*
X73040Y80333D01*
X73186Y80273D01*
X73343Y80252D01*
X73500Y80273D01*
X73645Y80333D01*
X73771Y80429D01*
X73867Y80555D01*
X73927Y80700D01*
X73948Y80857D01*
X73927Y81014D01*
X73867Y81160D01*
X73771Y81285D01*
X73645Y81381D01*
X73500Y81442D01*
X73343Y81462D01*
D02*
G37*
G36*
X108743Y81442D02*
X108586Y81422D01*
X108440Y81361D01*
X108315Y81265D01*
X108219Y81140D01*
X108158Y80994D01*
X108137Y80837D01*
X108158Y80680D01*
X108219Y80535D01*
X108315Y80409D01*
X108440Y80313D01*
X108586Y80253D01*
X108743Y80232D01*
X108899Y80253D01*
X109045Y80313D01*
X109171Y80409D01*
X109267Y80535D01*
X109327Y80680D01*
X109348Y80837D01*
X109327Y80994D01*
X109267Y81140D01*
X109171Y81265D01*
X109045Y81361D01*
X108899Y81422D01*
X108743Y81442D01*
D02*
G37*
G36*
X62100Y81305D02*
X61943Y81285D01*
X61797Y81224D01*
X61672Y81128D01*
X61576Y81003D01*
X61515Y80857D01*
X61495Y80700D01*
X61515Y80543D01*
X61576Y80397D01*
X61672Y80272D01*
X61797Y80176D01*
X61943Y80115D01*
X62100Y80095D01*
X62257Y80115D01*
X62403Y80176D01*
X62528Y80272D01*
X62624Y80397D01*
X62685Y80543D01*
X62705Y80700D01*
X62685Y80857D01*
X62624Y81003D01*
X62528Y81128D01*
X62403Y81224D01*
X62257Y81285D01*
X62100Y81305D01*
D02*
G37*
G36*
X52195Y81280D02*
X52038Y81260D01*
X51892Y81199D01*
X51767Y81103D01*
X51671Y80978D01*
X51610Y80832D01*
X51590Y80675D01*
X51610Y80518D01*
X51671Y80372D01*
X51767Y80247D01*
X51892Y80151D01*
X52038Y80090D01*
X52195Y80070D01*
X52352Y80090D01*
X52498Y80151D01*
X52623Y80247D01*
X52719Y80372D01*
X52780Y80518D01*
X52800Y80675D01*
X52780Y80832D01*
X52719Y80978D01*
X52623Y81103D01*
X52498Y81199D01*
X52352Y81260D01*
X52195Y81280D01*
D02*
G37*
G36*
X77800Y81205D02*
X77643Y81185D01*
X77497Y81124D01*
X77372Y81028D01*
X77276Y80903D01*
X77215Y80757D01*
X77195Y80600D01*
X77215Y80443D01*
X77276Y80298D01*
X77372Y80172D01*
X77497Y80076D01*
X77643Y80016D01*
X77800Y79995D01*
X77957Y80016D01*
X78103Y80076D01*
X78228Y80172D01*
X78324Y80298D01*
X78385Y80443D01*
X78405Y80600D01*
X78385Y80757D01*
X78324Y80903D01*
X78228Y81028D01*
X78103Y81124D01*
X77957Y81185D01*
X77800Y81205D01*
D02*
G37*
G36*
X46024Y81530D02*
X45868Y81510D01*
X45722Y81449D01*
X45596Y81353D01*
X45500Y81228D01*
X45440Y81082D01*
X45419Y80925D01*
X45440Y80768D01*
X45500Y80622D01*
X45596Y80497D01*
X45722Y80401D01*
X45868Y80340D01*
X46024Y80320D01*
X46181Y80340D01*
X46298Y80389D01*
X46350Y80368D01*
X46373Y80353D01*
X46397Y80328D01*
X46414Y80193D01*
X46475Y80047D01*
X46571Y79922D01*
X46696Y79826D01*
X46842Y79765D01*
X46999Y79745D01*
X47155Y79765D01*
X47301Y79826D01*
X47427Y79922D01*
X47523Y80047D01*
X47583Y80193D01*
X47604Y80350D01*
X47583Y80507D01*
X47523Y80653D01*
X47427Y80778D01*
X47301Y80874D01*
X47155Y80935D01*
X46999Y80955D01*
X46842Y80935D01*
X46725Y80886D01*
X46673Y80907D01*
X46650Y80922D01*
X46627Y80947D01*
X46609Y81082D01*
X46549Y81228D01*
X46452Y81353D01*
X46327Y81449D01*
X46181Y81510D01*
X46024Y81530D01*
D02*
G37*
G36*
X111093Y79207D02*
X110884Y79179D01*
X110689Y79099D01*
X110522Y78971D01*
X110394Y78803D01*
X110313Y78609D01*
X110286Y78400D01*
X110313Y78191D01*
X110394Y77997D01*
X110522Y77829D01*
X110689Y77701D01*
X110884Y77621D01*
X111093Y77593D01*
X111302Y77621D01*
X111496Y77701D01*
X111663Y77829D01*
X111792Y77997D01*
X111872Y78191D01*
X111900Y78400D01*
X111872Y78609D01*
X111792Y78803D01*
X111663Y78971D01*
X111496Y79099D01*
X111302Y79179D01*
X111093Y79207D01*
D02*
G37*
G36*
X44293Y79459D02*
X44019Y79423D01*
X43763Y79317D01*
X43544Y79149D01*
X43376Y78930D01*
X43270Y78674D01*
X43234Y78400D01*
X43270Y78126D01*
X43376Y77870D01*
X43544Y77651D01*
X43763Y77483D01*
X44019Y77377D01*
X44293Y77341D01*
X44567Y77377D01*
X44822Y77483D01*
X45042Y77651D01*
X45210Y77870D01*
X45316Y78126D01*
X45352Y78400D01*
X45316Y78674D01*
X45210Y78930D01*
X45042Y79149D01*
X44822Y79317D01*
X44567Y79423D01*
X44293Y79459D01*
D02*
G37*
G36*
X52300Y77805D02*
X52143Y77785D01*
X51997Y77724D01*
X51872Y77628D01*
X51776Y77503D01*
X51715Y77357D01*
X51695Y77200D01*
X51715Y77043D01*
X51776Y76897D01*
X51872Y76772D01*
X51888Y76760D01*
X51849Y76664D01*
X51725Y76680D01*
X51568Y76660D01*
X51422Y76599D01*
X51297Y76503D01*
X51201Y76378D01*
X51140Y76232D01*
X51120Y76075D01*
X51140Y75918D01*
X51201Y75772D01*
X51297Y75647D01*
X51422Y75551D01*
X51568Y75490D01*
X51725Y75470D01*
X51882Y75490D01*
X52028Y75551D01*
X52153Y75647D01*
X52249Y75772D01*
X52310Y75918D01*
X52330Y76075D01*
X52310Y76232D01*
X52249Y76378D01*
X52153Y76503D01*
X52137Y76515D01*
X52176Y76611D01*
X52300Y76595D01*
X52457Y76615D01*
X52603Y76676D01*
X52728Y76772D01*
X52824Y76897D01*
X52885Y77043D01*
X52905Y77200D01*
X52885Y77357D01*
X52824Y77503D01*
X52728Y77628D01*
X52603Y77724D01*
X52457Y77785D01*
X52300Y77805D01*
D02*
G37*
G36*
X54386Y76605D02*
X54229Y76585D01*
X54083Y76524D01*
X53958Y76428D01*
X53905Y76359D01*
X53781D01*
X53728Y76428D01*
X53603Y76524D01*
X53457Y76585D01*
X53300Y76605D01*
X53143Y76585D01*
X52997Y76524D01*
X52872Y76428D01*
X52776Y76303D01*
X52715Y76157D01*
X52695Y76000D01*
X52715Y75843D01*
X52776Y75697D01*
X52872Y75572D01*
X52997Y75476D01*
X53143Y75415D01*
X53300Y75395D01*
X53457Y75415D01*
X53603Y75476D01*
X53728Y75572D01*
X53781Y75641D01*
X53905D01*
X53958Y75572D01*
X54083Y75476D01*
X54229Y75415D01*
X54386Y75395D01*
X54542Y75415D01*
X54688Y75476D01*
X54814Y75572D01*
X54910Y75697D01*
X54970Y75843D01*
X54991Y76000D01*
X54970Y76157D01*
X54910Y76303D01*
X54814Y76428D01*
X54688Y76524D01*
X54542Y76585D01*
X54386Y76605D01*
D02*
G37*
G36*
X49925Y76630D02*
X49768Y76610D01*
X49622Y76549D01*
X49497Y76453D01*
X49401Y76328D01*
X49340Y76182D01*
X49320Y76025D01*
X49340Y75868D01*
X49401Y75722D01*
X49497Y75597D01*
X49622Y75501D01*
X49768Y75440D01*
X49925Y75420D01*
X50082Y75440D01*
X50228Y75501D01*
X50353Y75597D01*
X50449Y75722D01*
X50510Y75868D01*
X50530Y76025D01*
X50510Y76182D01*
X50449Y76328D01*
X50353Y76453D01*
X50228Y76549D01*
X50082Y76610D01*
X49925Y76630D01*
D02*
G37*
G36*
X48550D02*
X48393Y76610D01*
X48247Y76549D01*
X48122Y76453D01*
X48026Y76328D01*
X47965Y76182D01*
X47945Y76025D01*
X47965Y75868D01*
X48026Y75722D01*
X48122Y75597D01*
X48247Y75501D01*
X48393Y75440D01*
X48550Y75420D01*
X48707Y75440D01*
X48853Y75501D01*
X48978Y75597D01*
X49074Y75722D01*
X49135Y75868D01*
X49155Y76025D01*
X49135Y76182D01*
X49074Y76328D01*
X48978Y76453D01*
X48853Y76549D01*
X48707Y76610D01*
X48550Y76630D01*
D02*
G37*
G36*
X56100Y76527D02*
X55943Y76507D01*
X55797Y76446D01*
X55672Y76350D01*
X55576Y76225D01*
X55515Y76079D01*
X55495Y75922D01*
X55515Y75765D01*
X55576Y75620D01*
X55672Y75494D01*
X55797Y75398D01*
X55943Y75338D01*
X56100Y75317D01*
X56257Y75338D01*
X56403Y75398D01*
X56528Y75494D01*
X56624Y75620D01*
X56685Y75765D01*
X56705Y75922D01*
X56685Y76079D01*
X56624Y76225D01*
X56528Y76350D01*
X56403Y76446D01*
X56257Y76507D01*
X56100Y76527D01*
D02*
G37*
G36*
X73325Y76455D02*
X73168Y76435D01*
X73022Y76374D01*
X72897Y76278D01*
X72801Y76153D01*
X72740Y76007D01*
X72720Y75850D01*
X72740Y75693D01*
X72801Y75547D01*
X72897Y75422D01*
X73022Y75326D01*
X73168Y75265D01*
X73325Y75245D01*
X73482Y75265D01*
X73628Y75326D01*
X73753Y75422D01*
X73849Y75547D01*
X73910Y75693D01*
X73930Y75850D01*
X73910Y76007D01*
X73849Y76153D01*
X73753Y76278D01*
X73628Y76374D01*
X73482Y76435D01*
X73325Y76455D01*
D02*
G37*
G36*
X67943D02*
X67786Y76435D01*
X67640Y76374D01*
X67515Y76278D01*
X67419Y76153D01*
X67358Y76007D01*
X67338Y75850D01*
X67358Y75693D01*
X67419Y75547D01*
X67515Y75422D01*
X67640Y75326D01*
X67786Y75265D01*
X67943Y75245D01*
X68100Y75265D01*
X68245Y75326D01*
X68371Y75422D01*
X68467Y75547D01*
X68527Y75693D01*
X68548Y75850D01*
X68527Y76007D01*
X68467Y76153D01*
X68371Y76278D01*
X68245Y76374D01*
X68100Y76435D01*
X67943Y76455D01*
D02*
G37*
G36*
X66150D02*
X65993Y76435D01*
X65847Y76374D01*
X65722Y76278D01*
X65626Y76153D01*
X65565Y76007D01*
X65545Y75850D01*
X65565Y75693D01*
X65626Y75547D01*
X65722Y75422D01*
X65847Y75326D01*
X65993Y75265D01*
X66150Y75245D01*
X66307Y75265D01*
X66453Y75326D01*
X66578Y75422D01*
X66674Y75547D01*
X66735Y75693D01*
X66755Y75850D01*
X66735Y76007D01*
X66674Y76153D01*
X66578Y76278D01*
X66453Y76374D01*
X66307Y76435D01*
X66150Y76455D01*
D02*
G37*
G36*
X64325D02*
X64168Y76435D01*
X64022Y76374D01*
X63897Y76278D01*
X63801Y76153D01*
X63740Y76007D01*
X63719Y75850D01*
X63740Y75693D01*
X63801Y75547D01*
X63897Y75422D01*
X64022Y75326D01*
X64168Y75265D01*
X64325Y75245D01*
X64481Y75265D01*
X64627Y75326D01*
X64753Y75422D01*
X64849Y75547D01*
X64909Y75693D01*
X64930Y75850D01*
X64909Y76007D01*
X64849Y76153D01*
X64753Y76278D01*
X64627Y76374D01*
X64481Y76435D01*
X64325Y76455D01*
D02*
G37*
G36*
X75125Y76405D02*
X74968Y76385D01*
X74822Y76324D01*
X74697Y76228D01*
X74601Y76103D01*
X74540Y75957D01*
X74520Y75800D01*
X74540Y75643D01*
X74601Y75497D01*
X74697Y75372D01*
X74822Y75276D01*
X74968Y75215D01*
X75125Y75195D01*
X75282Y75215D01*
X75428Y75276D01*
X75553Y75372D01*
X75649Y75497D01*
X75710Y75643D01*
X75730Y75800D01*
X75710Y75957D01*
X75649Y76103D01*
X75553Y76228D01*
X75428Y76324D01*
X75282Y76385D01*
X75125Y76405D01*
D02*
G37*
G36*
X69725D02*
X69568Y76385D01*
X69422Y76324D01*
X69297Y76228D01*
X69201Y76103D01*
X69140Y75957D01*
X69120Y75800D01*
X69140Y75643D01*
X69201Y75497D01*
X69297Y75372D01*
X69422Y75276D01*
X69568Y75215D01*
X69725Y75195D01*
X69882Y75215D01*
X70028Y75276D01*
X70153Y75372D01*
X70249Y75497D01*
X70310Y75643D01*
X70330Y75800D01*
X70310Y75957D01*
X70249Y76103D01*
X70153Y76228D01*
X70028Y76324D01*
X69882Y76385D01*
X69725Y76405D01*
D02*
G37*
G36*
X71543Y76405D02*
X71386Y76385D01*
X71240Y76324D01*
X71115Y76228D01*
X71019Y76103D01*
X70958Y75957D01*
X70938Y75800D01*
X70958Y75643D01*
X71019Y75497D01*
X71115Y75372D01*
X71240Y75276D01*
X71386Y75215D01*
X71543Y75195D01*
X71700Y75215D01*
X71845Y75276D01*
X71971Y75372D01*
X72067Y75497D01*
X72127Y75643D01*
X72148Y75800D01*
X72127Y75957D01*
X72067Y76103D01*
X71971Y76228D01*
X71845Y76324D01*
X71700Y76385D01*
X71543Y76405D01*
D02*
G37*
G36*
X45606Y74905D02*
X45449Y74885D01*
X45304Y74824D01*
X45178Y74728D01*
X45082Y74603D01*
X45022Y74457D01*
X45001Y74300D01*
X45022Y74143D01*
X45082Y73997D01*
X45178Y73872D01*
X45304Y73776D01*
X45449Y73715D01*
X45606Y73695D01*
X45763Y73715D01*
X45909Y73776D01*
X46034Y73872D01*
X46130Y73997D01*
X46191Y74143D01*
X46211Y74300D01*
X46191Y74457D01*
X46130Y74603D01*
X46034Y74728D01*
X45909Y74824D01*
X45763Y74885D01*
X45606Y74905D01*
D02*
G37*
G36*
X110800Y74555D02*
X110643Y74535D01*
X110497Y74474D01*
X110372Y74378D01*
X110276Y74253D01*
X110215Y74107D01*
X110195Y73950D01*
X110215Y73793D01*
X110276Y73647D01*
X110372Y73522D01*
X110497Y73426D01*
X110643Y73365D01*
X110800Y73345D01*
X110957Y73365D01*
X111103Y73426D01*
X111228Y73522D01*
X111324Y73647D01*
X111385Y73793D01*
X111405Y73950D01*
X111385Y74107D01*
X111324Y74253D01*
X111228Y74378D01*
X111103Y74474D01*
X110957Y74535D01*
X110800Y74555D01*
D02*
G37*
G36*
X94925Y73480D02*
X94768Y73460D01*
X94622Y73399D01*
X94497Y73303D01*
X94401Y73178D01*
X94340Y73032D01*
X94320Y72875D01*
X94340Y72718D01*
X94401Y72572D01*
X94497Y72447D01*
X94622Y72351D01*
X94768Y72290D01*
X94925Y72270D01*
X95082Y72290D01*
X95228Y72351D01*
X95353Y72447D01*
X95449Y72572D01*
X95510Y72718D01*
X95530Y72875D01*
X95510Y73032D01*
X95449Y73178D01*
X95353Y73303D01*
X95228Y73399D01*
X95082Y73460D01*
X94925Y73480D01*
D02*
G37*
G36*
X98525Y73480D02*
X98368Y73460D01*
X98222Y73399D01*
X98097Y73303D01*
X98001Y73178D01*
X97940Y73032D01*
X97920Y72875D01*
X97940Y72718D01*
X98001Y72572D01*
X98097Y72447D01*
X98222Y72351D01*
X98368Y72290D01*
X98525Y72270D01*
X98682Y72290D01*
X98828Y72351D01*
X98953Y72447D01*
X99049Y72572D01*
X99110Y72718D01*
X99130Y72875D01*
X99110Y73032D01*
X99049Y73178D01*
X98953Y73303D01*
X98828Y73399D01*
X98682Y73460D01*
X98525Y73480D01*
D02*
G37*
G36*
X93150D02*
X92993Y73460D01*
X92847Y73399D01*
X92722Y73303D01*
X92626Y73178D01*
X92565Y73032D01*
X92545Y72875D01*
X92565Y72718D01*
X92626Y72572D01*
X92722Y72447D01*
X92847Y72351D01*
X92993Y72290D01*
X93150Y72270D01*
X93307Y72290D01*
X93453Y72351D01*
X93578Y72447D01*
X93674Y72572D01*
X93735Y72718D01*
X93755Y72875D01*
X93735Y73032D01*
X93674Y73178D01*
X93578Y73303D01*
X93453Y73399D01*
X93307Y73460D01*
X93150Y73480D01*
D02*
G37*
G36*
X91350D02*
X91193Y73460D01*
X91047Y73399D01*
X90922Y73303D01*
X90826Y73178D01*
X90765Y73032D01*
X90745Y72875D01*
X90765Y72718D01*
X90826Y72572D01*
X90922Y72447D01*
X91047Y72351D01*
X91193Y72290D01*
X91350Y72270D01*
X91507Y72290D01*
X91653Y72351D01*
X91778Y72447D01*
X91874Y72572D01*
X91935Y72718D01*
X91955Y72875D01*
X91935Y73032D01*
X91874Y73178D01*
X91778Y73303D01*
X91653Y73399D01*
X91507Y73460D01*
X91350Y73480D01*
D02*
G37*
G36*
X89525D02*
X89368Y73460D01*
X89222Y73399D01*
X89097Y73303D01*
X89001Y73178D01*
X88940Y73032D01*
X88920Y72875D01*
X88940Y72718D01*
X89001Y72572D01*
X89097Y72447D01*
X89222Y72351D01*
X89368Y72290D01*
X89525Y72270D01*
X89682Y72290D01*
X89828Y72351D01*
X89953Y72447D01*
X90049Y72572D01*
X90110Y72718D01*
X90130Y72875D01*
X90110Y73032D01*
X90049Y73178D01*
X89953Y73303D01*
X89828Y73399D01*
X89682Y73460D01*
X89525Y73480D01*
D02*
G37*
G36*
X85925D02*
X85768Y73460D01*
X85622Y73399D01*
X85497Y73303D01*
X85401Y73178D01*
X85340Y73032D01*
X85320Y72875D01*
X85340Y72718D01*
X85401Y72572D01*
X85497Y72447D01*
X85622Y72351D01*
X85768Y72290D01*
X85925Y72270D01*
X86082Y72290D01*
X86228Y72351D01*
X86353Y72447D01*
X86449Y72572D01*
X86510Y72718D01*
X86530Y72875D01*
X86510Y73032D01*
X86449Y73178D01*
X86353Y73303D01*
X86228Y73399D01*
X86082Y73460D01*
X85925Y73480D01*
D02*
G37*
G36*
X84150D02*
X83993Y73460D01*
X83847Y73399D01*
X83722Y73303D01*
X83626Y73178D01*
X83565Y73032D01*
X83545Y72875D01*
X83565Y72718D01*
X83626Y72572D01*
X83722Y72447D01*
X83847Y72351D01*
X83993Y72290D01*
X84150Y72270D01*
X84307Y72290D01*
X84453Y72351D01*
X84578Y72447D01*
X84674Y72572D01*
X84735Y72718D01*
X84755Y72875D01*
X84735Y73032D01*
X84674Y73178D01*
X84578Y73303D01*
X84453Y73399D01*
X84307Y73460D01*
X84150Y73480D01*
D02*
G37*
G36*
X80525D02*
X80368Y73460D01*
X80222Y73399D01*
X80097Y73303D01*
X80001Y73178D01*
X79940Y73032D01*
X79920Y72875D01*
X79940Y72718D01*
X80001Y72572D01*
X80097Y72447D01*
X80222Y72351D01*
X80368Y72290D01*
X80525Y72270D01*
X80682Y72290D01*
X80828Y72351D01*
X80953Y72447D01*
X81049Y72572D01*
X81110Y72718D01*
X81130Y72875D01*
X81110Y73032D01*
X81049Y73178D01*
X80953Y73303D01*
X80828Y73399D01*
X80682Y73460D01*
X80525Y73480D01*
D02*
G37*
G36*
X78725D02*
X78568Y73460D01*
X78422Y73399D01*
X78297Y73303D01*
X78201Y73178D01*
X78140Y73032D01*
X78120Y72875D01*
X78140Y72718D01*
X78201Y72572D01*
X78297Y72447D01*
X78422Y72351D01*
X78568Y72290D01*
X78725Y72270D01*
X78882Y72290D01*
X79028Y72351D01*
X79153Y72447D01*
X79249Y72572D01*
X79310Y72718D01*
X79330Y72875D01*
X79310Y73032D01*
X79249Y73178D01*
X79153Y73303D01*
X79028Y73399D01*
X78882Y73460D01*
X78725Y73480D01*
D02*
G37*
G36*
X82325Y73455D02*
X82168Y73435D01*
X82022Y73374D01*
X81897Y73278D01*
X81801Y73153D01*
X81740Y73007D01*
X81720Y72850D01*
X81740Y72693D01*
X81801Y72547D01*
X81897Y72422D01*
X82022Y72326D01*
X82168Y72265D01*
X82325Y72245D01*
X82482Y72265D01*
X82628Y72326D01*
X82753Y72422D01*
X82849Y72547D01*
X82910Y72693D01*
X82930Y72850D01*
X82910Y73007D01*
X82849Y73153D01*
X82753Y73278D01*
X82628Y73374D01*
X82482Y73435D01*
X82325Y73455D01*
D02*
G37*
G36*
X77400Y73380D02*
X77243Y73360D01*
X77097Y73299D01*
X76972Y73203D01*
X76876Y73078D01*
X76815Y72932D01*
X76795Y72775D01*
X76815Y72618D01*
X76876Y72472D01*
X76972Y72347D01*
X77097Y72251D01*
X77243Y72190D01*
X77400Y72170D01*
X77557Y72190D01*
X77703Y72251D01*
X77828Y72347D01*
X77924Y72472D01*
X77985Y72618D01*
X78005Y72775D01*
X77985Y72932D01*
X77924Y73078D01*
X77828Y73203D01*
X77703Y73299D01*
X77557Y73360D01*
X77400Y73380D01*
D02*
G37*
G36*
X73675Y73330D02*
X73518Y73310D01*
X73372Y73249D01*
X73247Y73153D01*
X73151Y73028D01*
X73090Y72882D01*
X73070Y72725D01*
X73090Y72568D01*
X73151Y72422D01*
X73247Y72297D01*
X73372Y72201D01*
X73518Y72140D01*
X73675Y72120D01*
X73832Y72140D01*
X73978Y72201D01*
X74103Y72297D01*
X74199Y72422D01*
X74216Y72463D01*
X74324D01*
X74351Y72397D01*
X74447Y72272D01*
X74572Y72176D01*
X74718Y72115D01*
X74875Y72095D01*
X75032Y72115D01*
X75178Y72176D01*
X75303Y72272D01*
X75399Y72397D01*
X75460Y72543D01*
X75480Y72700D01*
X75460Y72857D01*
X75399Y73003D01*
X75303Y73128D01*
X75178Y73224D01*
X75032Y73285D01*
X74875Y73305D01*
X74718Y73285D01*
X74572Y73224D01*
X74447Y73128D01*
X74351Y73003D01*
X74334Y72963D01*
X74226D01*
X74199Y73028D01*
X74103Y73153D01*
X73978Y73249D01*
X73832Y73310D01*
X73675Y73330D01*
D02*
G37*
G36*
X54475Y73205D02*
X54318Y73185D01*
X54172Y73124D01*
X54047Y73028D01*
X53951Y72903D01*
X53890Y72757D01*
X53870Y72600D01*
X53890Y72443D01*
X53951Y72297D01*
X54047Y72172D01*
X54172Y72076D01*
X54318Y72015D01*
X54475Y71995D01*
X54632Y72015D01*
X54778Y72076D01*
X54903Y72172D01*
X54965Y72253D01*
X55071Y72248D01*
X55080Y72242D01*
X55172Y72122D01*
X55297Y72026D01*
X55443Y71965D01*
X55600Y71945D01*
X55757Y71965D01*
X55903Y72026D01*
X56028Y72122D01*
X56124Y72247D01*
X56185Y72393D01*
X56205Y72550D01*
X56185Y72707D01*
X56124Y72853D01*
X56028Y72978D01*
X55903Y73074D01*
X55757Y73135D01*
X55600Y73155D01*
X55443Y73135D01*
X55297Y73074D01*
X55172Y72978D01*
X55110Y72897D01*
X55004Y72902D01*
X54995Y72908D01*
X54903Y73028D01*
X54778Y73124D01*
X54632Y73185D01*
X54475Y73205D01*
D02*
G37*
G36*
X62525Y73105D02*
X62368Y73085D01*
X62222Y73024D01*
X62097Y72928D01*
X62001Y72803D01*
X61940Y72657D01*
X61920Y72500D01*
X61940Y72343D01*
X62001Y72197D01*
X62097Y72072D01*
X62222Y71976D01*
X62368Y71915D01*
X62525Y71895D01*
X62682Y71915D01*
X62828Y71976D01*
X62953Y72072D01*
X63049Y72197D01*
X63110Y72343D01*
X63130Y72500D01*
X63110Y72657D01*
X63049Y72803D01*
X62953Y72928D01*
X62828Y73024D01*
X62682Y73085D01*
X62525Y73105D01*
D02*
G37*
G36*
X43984Y71580D02*
X43827Y71559D01*
X43682Y71499D01*
X43584Y71424D01*
X43487Y71499D01*
X43341Y71559D01*
X43184Y71580D01*
X43027Y71559D01*
X42882Y71499D01*
X42784Y71424D01*
X42687Y71499D01*
X42541Y71559D01*
X42384Y71580D01*
X42227Y71559D01*
X42082Y71499D01*
X41956Y71403D01*
X41860Y71277D01*
X41800Y71131D01*
X41779Y70975D01*
X41800Y70818D01*
X41860Y70672D01*
X41937Y70572D01*
X41860Y70472D01*
X41800Y70326D01*
X41779Y70170D01*
X41800Y70013D01*
X41860Y69867D01*
X41924Y69784D01*
X41860Y69701D01*
X41800Y69555D01*
X41779Y69398D01*
X41800Y69241D01*
X41860Y69095D01*
X41947Y68982D01*
X41860Y68869D01*
X41800Y68723D01*
X41779Y68567D01*
X41800Y68410D01*
X41860Y68264D01*
X41956Y68139D01*
X42082Y68043D01*
X42227Y67982D01*
X42384Y67962D01*
X42541Y67982D01*
X42687Y68043D01*
X42812Y68139D01*
X42908Y68264D01*
X42969Y68410D01*
X42989Y68567D01*
X42969Y68723D01*
X42908Y68869D01*
X42821Y68982D01*
X42908Y69095D01*
X42969Y69241D01*
X42989Y69398D01*
X42969Y69555D01*
X42908Y69701D01*
X42844Y69784D01*
X42908Y69867D01*
X42969Y70013D01*
X42989Y70170D01*
X42971Y70305D01*
X42999Y70346D01*
X43005Y70353D01*
X43052Y70387D01*
X43184Y70369D01*
X43341Y70390D01*
X43487Y70451D01*
X43584Y70525D01*
X43682Y70451D01*
X43827Y70390D01*
X43984Y70369D01*
X44141Y70390D01*
X44287Y70451D01*
X44412Y70547D01*
X44508Y70672D01*
X44569Y70818D01*
X44589Y70975D01*
X44569Y71131D01*
X44508Y71277D01*
X44412Y71403D01*
X44287Y71499D01*
X44141Y71559D01*
X43984Y71580D01*
D02*
G37*
G36*
X46384D02*
X46227Y71559D01*
X46082Y71499D01*
X45984Y71424D01*
X45887Y71499D01*
X45741Y71559D01*
X45584Y71580D01*
X45427Y71559D01*
X45282Y71499D01*
X45156Y71403D01*
X45060Y71277D01*
X45000Y71131D01*
X44979Y70975D01*
X45000Y70818D01*
X45060Y70672D01*
X45156Y70547D01*
X45282Y70451D01*
X45427Y70390D01*
X45584Y70369D01*
X45741Y70390D01*
X45887Y70451D01*
X45984Y70525D01*
X46082Y70451D01*
X46227Y70390D01*
X46384Y70369D01*
X46516Y70387D01*
X46563Y70353D01*
X46570Y70346D01*
X46597Y70305D01*
X46579Y70170D01*
X46600Y70013D01*
X46660Y69867D01*
X46724Y69784D01*
X46660Y69701D01*
X46600Y69555D01*
X46579Y69398D01*
X46600Y69241D01*
X46660Y69095D01*
X46756Y68970D01*
X46882Y68874D01*
X47028Y68813D01*
X47184Y68793D01*
X47341Y68813D01*
X47487Y68874D01*
X47584Y68949D01*
X47682Y68874D01*
X47828Y68813D01*
X47984Y68793D01*
X48141Y68813D01*
X48287Y68874D01*
X48412Y68970D01*
X48508Y69095D01*
X48569Y69241D01*
X48589Y69398D01*
X48569Y69555D01*
X48508Y69701D01*
X48444Y69784D01*
X48508Y69867D01*
X48569Y70013D01*
X48589Y70170D01*
X48569Y70326D01*
X48508Y70472D01*
X48432Y70572D01*
X48508Y70672D01*
X48569Y70818D01*
X48589Y70975D01*
X48569Y71131D01*
X48508Y71277D01*
X48412Y71403D01*
X48287Y71499D01*
X48141Y71559D01*
X47984Y71580D01*
X47828Y71559D01*
X47682Y71499D01*
X47584Y71424D01*
X47487Y71499D01*
X47341Y71559D01*
X47184Y71580D01*
X47028Y71559D01*
X46882Y71499D01*
X46784Y71424D01*
X46687Y71499D01*
X46541Y71559D01*
X46384Y71580D01*
D02*
G37*
G36*
X85300Y72144D02*
X85143Y72124D01*
X84997Y72063D01*
X84872Y71967D01*
X84776Y71842D01*
X84715Y71696D01*
X84695Y71539D01*
X84715Y71382D01*
X84776Y71236D01*
X84872Y71111D01*
X84997Y71015D01*
X85143Y70954D01*
X85300Y70934D01*
X85457Y70954D01*
X85603Y71015D01*
X85728Y71111D01*
X85824Y71236D01*
X85885Y71382D01*
X85905Y71539D01*
X85885Y71696D01*
X85824Y71842D01*
X85728Y71967D01*
X85603Y72063D01*
X85457Y72124D01*
X85300Y72144D01*
D02*
G37*
G36*
X89000Y72144D02*
X88843Y72123D01*
X88697Y72063D01*
X88572Y71967D01*
X88476Y71842D01*
X88415Y71696D01*
X88395Y71539D01*
X88415Y71382D01*
X88476Y71236D01*
X88572Y71111D01*
X88697Y71015D01*
X88843Y70954D01*
X89000Y70934D01*
X89157Y70954D01*
X89303Y71015D01*
X89428Y71111D01*
X89524Y71236D01*
X89585Y71382D01*
X89605Y71539D01*
X89585Y71696D01*
X89524Y71842D01*
X89428Y71967D01*
X89303Y72063D01*
X89157Y72123D01*
X89000Y72144D01*
D02*
G37*
G36*
X66620Y71526D02*
X66463Y71505D01*
X66317Y71445D01*
X66192Y71349D01*
X66096Y71223D01*
X66035Y71077D01*
X66015Y70921D01*
X66035Y70764D01*
X66096Y70618D01*
X66192Y70493D01*
X66317Y70397D01*
X66463Y70336D01*
X66620Y70316D01*
X66777Y70336D01*
X66923Y70397D01*
X67048Y70493D01*
X67144Y70618D01*
X67204Y70764D01*
X67225Y70921D01*
X67204Y71077D01*
X67144Y71223D01*
X67048Y71349D01*
X66923Y71445D01*
X66777Y71505D01*
X66620Y71526D01*
D02*
G37*
G36*
X109754Y70336D02*
X109598Y70316D01*
X109452Y70255D01*
X109326Y70159D01*
X109230Y70034D01*
X109186Y69927D01*
X109078D01*
X109044Y70009D01*
X108948Y70134D01*
X108823Y70230D01*
X108677Y70291D01*
X108520Y70311D01*
X108363Y70291D01*
X108217Y70230D01*
X108092Y70134D01*
X107996Y70009D01*
X107935Y69863D01*
X107915Y69706D01*
X107935Y69549D01*
X107996Y69404D01*
X108092Y69278D01*
X108217Y69182D01*
X108363Y69122D01*
X108520Y69101D01*
X108677Y69122D01*
X108823Y69182D01*
X108948Y69278D01*
X109044Y69404D01*
X109088Y69510D01*
X109196D01*
X109230Y69429D01*
X109326Y69303D01*
X109452Y69207D01*
X109598Y69147D01*
X109754Y69126D01*
X109911Y69147D01*
X110057Y69207D01*
X110182Y69303D01*
X110278Y69429D01*
X110339Y69575D01*
X110359Y69731D01*
X110339Y69888D01*
X110278Y70034D01*
X110182Y70159D01*
X110057Y70255D01*
X109911Y70316D01*
X109754Y70336D01*
D02*
G37*
G36*
X32141Y71006D02*
X31985Y70985D01*
X31839Y70925D01*
X31713Y70828D01*
X31617Y70703D01*
X31557Y70557D01*
X31536Y70400D01*
X31557Y70244D01*
X31617Y70098D01*
X31713Y69973D01*
X31839Y69876D01*
X31985Y69816D01*
X32141Y69795D01*
X32298Y69816D01*
X32444Y69876D01*
X32569Y69973D01*
X32665Y70098D01*
X32726Y70244D01*
X32747Y70400D01*
X32726Y70557D01*
X32665Y70703D01*
X32569Y70828D01*
X32444Y70925D01*
X32298Y70985D01*
X32141Y71006D01*
D02*
G37*
G36*
X55450Y70997D02*
X55293Y70976D01*
X55147Y70916D01*
X55022Y70819D01*
X54926Y70694D01*
X54865Y70548D01*
X54845Y70391D01*
X54865Y70235D01*
X54926Y70089D01*
X55022Y69964D01*
X55147Y69867D01*
X55293Y69807D01*
X55450Y69786D01*
X55607Y69807D01*
X55753Y69867D01*
X55878Y69964D01*
X55974Y70089D01*
X56035Y70235D01*
X56055Y70391D01*
X56035Y70548D01*
X55974Y70694D01*
X55878Y70819D01*
X55753Y70916D01*
X55607Y70976D01*
X55450Y70997D01*
D02*
G37*
G36*
X106620Y70311D02*
X106463Y70291D01*
X106317Y70230D01*
X106192Y70134D01*
X106096Y70009D01*
X106035Y69863D01*
X106015Y69706D01*
X106035Y69549D01*
X106096Y69404D01*
X106192Y69278D01*
X106317Y69182D01*
X106463Y69122D01*
X106620Y69101D01*
X106777Y69122D01*
X106923Y69182D01*
X107048Y69278D01*
X107144Y69404D01*
X107205Y69549D01*
X107225Y69706D01*
X107205Y69863D01*
X107144Y70009D01*
X107048Y70134D01*
X106923Y70230D01*
X106777Y70291D01*
X106620Y70311D01*
D02*
G37*
G36*
X77189Y69656D02*
X76994Y69631D01*
X76811Y69555D01*
X76654Y69435D01*
X76534Y69278D01*
X76459Y69096D01*
X76433Y68900D01*
X76459Y68704D01*
X76534Y68522D01*
X76654Y68365D01*
X76811Y68245D01*
X76994Y68169D01*
X77189Y68144D01*
X77385Y68169D01*
X77568Y68245D01*
X77724Y68365D01*
X77845Y68522D01*
X77920Y68704D01*
X77946Y68900D01*
X77920Y69096D01*
X77845Y69278D01*
X77724Y69435D01*
X77568Y69555D01*
X77385Y69631D01*
X77189Y69656D01*
D02*
G37*
G36*
X60772Y68733D02*
X60615Y68713D01*
X60469Y68652D01*
X60344Y68556D01*
X60248Y68431D01*
X60187Y68285D01*
X60167Y68128D01*
X60187Y67971D01*
X60248Y67825D01*
X60344Y67700D01*
X60469Y67604D01*
X60615Y67543D01*
X60772Y67523D01*
X60929Y67543D01*
X61075Y67604D01*
X61200Y67700D01*
X61296Y67825D01*
X61357Y67971D01*
X61377Y68128D01*
X61357Y68285D01*
X61296Y68431D01*
X61200Y68556D01*
X61075Y68652D01*
X60929Y68713D01*
X60772Y68733D01*
D02*
G37*
G36*
X99249Y68705D02*
X99092Y68685D01*
X98947Y68624D01*
X98821Y68528D01*
X98725Y68403D01*
X98665Y68257D01*
X98644Y68100D01*
X98665Y67943D01*
X98725Y67797D01*
X98821Y67672D01*
X98947Y67576D01*
X99092Y67515D01*
X99249Y67495D01*
X99406Y67515D01*
X99552Y67576D01*
X99677Y67672D01*
X99773Y67797D01*
X99834Y67943D01*
X99854Y68100D01*
X99834Y68257D01*
X99773Y68403D01*
X99677Y68528D01*
X99552Y68624D01*
X99406Y68685D01*
X99249Y68705D01*
D02*
G37*
G36*
X84146Y68193D02*
X83989Y68173D01*
X83843Y68112D01*
X83718Y68016D01*
X83622Y67891D01*
X83561Y67745D01*
X83540Y67588D01*
X83561Y67432D01*
X83622Y67286D01*
X83718Y67160D01*
X83843Y67064D01*
X83989Y67004D01*
X84146Y66983D01*
X84302Y67004D01*
X84448Y67064D01*
X84574Y67160D01*
X84670Y67286D01*
X84730Y67432D01*
X84751Y67588D01*
X84730Y67745D01*
X84670Y67891D01*
X84574Y68016D01*
X84448Y68112D01*
X84302Y68173D01*
X84146Y68193D01*
D02*
G37*
G36*
X102392Y68030D02*
X102236Y68010D01*
X102090Y67949D01*
X101964Y67853D01*
X101868Y67728D01*
X101808Y67582D01*
X101787Y67425D01*
X101808Y67268D01*
X101868Y67122D01*
X101964Y66997D01*
X102090Y66901D01*
X102236Y66840D01*
X102392Y66820D01*
X102549Y66840D01*
X102695Y66901D01*
X102820Y66997D01*
X102916Y67122D01*
X102977Y67268D01*
X102998Y67425D01*
X102977Y67582D01*
X102916Y67728D01*
X102820Y67853D01*
X102695Y67949D01*
X102549Y68010D01*
X102392Y68030D01*
D02*
G37*
G36*
X105625Y67405D02*
X105468Y67385D01*
X105322Y67324D01*
X105197Y67228D01*
X105101Y67103D01*
X105040Y66957D01*
X105020Y66800D01*
X105040Y66643D01*
X105101Y66497D01*
X105197Y66372D01*
X105322Y66276D01*
X105468Y66215D01*
X105625Y66195D01*
X105782Y66215D01*
X105928Y66276D01*
X106053Y66372D01*
X106149Y66497D01*
X106210Y66643D01*
X106230Y66800D01*
X106210Y66957D01*
X106149Y67103D01*
X106053Y67228D01*
X105928Y67324D01*
X105782Y67385D01*
X105625Y67405D01*
D02*
G37*
G36*
X60500Y67305D02*
X60343Y67285D01*
X60197Y67224D01*
X60072Y67128D01*
X59976Y67003D01*
X59915Y66857D01*
X59895Y66700D01*
X59915Y66543D01*
X59976Y66397D01*
X60072Y66272D01*
X60197Y66176D01*
X60343Y66115D01*
X60500Y66095D01*
X60657Y66115D01*
X60803Y66176D01*
X60928Y66272D01*
X61024Y66397D01*
X61085Y66543D01*
X61105Y66700D01*
X61085Y66857D01*
X61024Y67003D01*
X60928Y67128D01*
X60803Y67224D01*
X60657Y67285D01*
X60500Y67305D01*
D02*
G37*
G36*
X82626Y67155D02*
X82469Y67135D01*
X82323Y67074D01*
X82198Y66978D01*
X82102Y66853D01*
X82041Y66707D01*
X82020Y66550D01*
X82041Y66393D01*
X82102Y66247D01*
X82198Y66122D01*
X82323Y66026D01*
X82469Y65965D01*
X82626Y65945D01*
X82782Y65965D01*
X82928Y66026D01*
X83054Y66122D01*
X83150Y66247D01*
X83210Y66393D01*
X83231Y66550D01*
X83210Y66707D01*
X83150Y66853D01*
X83054Y66978D01*
X82928Y67074D01*
X82782Y67135D01*
X82626Y67155D01*
D02*
G37*
G36*
X59300Y66605D02*
X59143Y66585D01*
X58997Y66524D01*
X58872Y66428D01*
X58776Y66303D01*
X58715Y66157D01*
X58695Y66000D01*
X58715Y65843D01*
X58776Y65697D01*
X58872Y65572D01*
X58997Y65476D01*
X59143Y65415D01*
X59300Y65395D01*
X59457Y65415D01*
X59603Y65476D01*
X59728Y65572D01*
X59824Y65697D01*
X59885Y65843D01*
X59905Y66000D01*
X59885Y66157D01*
X59824Y66303D01*
X59728Y66428D01*
X59603Y66524D01*
X59457Y66585D01*
X59300Y66605D01*
D02*
G37*
G36*
X73500Y66355D02*
X73343Y66335D01*
X73197Y66274D01*
X73072Y66178D01*
X72976Y66053D01*
X72915Y65907D01*
X72895Y65750D01*
X72915Y65593D01*
X72976Y65447D01*
X73072Y65322D01*
X73197Y65226D01*
X73343Y65165D01*
X73500Y65145D01*
X73657Y65165D01*
X73803Y65226D01*
X73928Y65322D01*
X74024Y65447D01*
X74085Y65593D01*
X74105Y65750D01*
X74085Y65907D01*
X74024Y66053D01*
X73928Y66178D01*
X73803Y66274D01*
X73657Y66335D01*
X73500Y66355D01*
D02*
G37*
G36*
X62800Y65456D02*
X62604Y65431D01*
X62422Y65355D01*
X62265Y65235D01*
X62145Y65078D01*
X62069Y64896D01*
X62044Y64700D01*
X62069Y64504D01*
X62145Y64322D01*
X62265Y64165D01*
X62422Y64045D01*
X62604Y63969D01*
X62800Y63944D01*
X62996Y63969D01*
X63178Y64045D01*
X63335Y64165D01*
X63455Y64322D01*
X63531Y64504D01*
X63556Y64700D01*
X63531Y64896D01*
X63455Y65078D01*
X63335Y65235D01*
X63178Y65355D01*
X62996Y65431D01*
X62800Y65456D01*
D02*
G37*
G36*
X49082Y65065D02*
X48886Y65039D01*
X48703Y64963D01*
X48547Y64843D01*
X48426Y64686D01*
X48351Y64504D01*
X48325Y64308D01*
X48351Y64112D01*
X48426Y63930D01*
X48547Y63773D01*
X48606Y63728D01*
X48606Y63628D01*
X48517Y63582D01*
X48360Y63702D01*
X48177Y63778D01*
X47982Y63804D01*
X47786Y63778D01*
X47603Y63702D01*
X47447Y63582D01*
X47356Y63628D01*
X47260Y63702D01*
X47077Y63778D01*
X46882Y63804D01*
X46686Y63778D01*
X46503Y63702D01*
X46347Y63582D01*
X46227Y63425D01*
X46151Y63243D01*
X46125Y63047D01*
X46151Y62851D01*
X46227Y62669D01*
X46347Y62512D01*
X46406Y62467D01*
Y62367D01*
X46347Y62321D01*
X46227Y62164D01*
X46151Y61982D01*
X46125Y61786D01*
X46151Y61590D01*
X46227Y61408D01*
X46347Y61251D01*
X46406Y61206D01*
Y61106D01*
X46347Y61060D01*
X46227Y60903D01*
X46151Y60721D01*
X46125Y60525D01*
X46151Y60329D01*
X46227Y60147D01*
X46347Y59990D01*
X46503Y59870D01*
X46686Y59794D01*
X46882Y59769D01*
X47077Y59794D01*
X47260Y59870D01*
X47417Y59990D01*
X47507Y59944D01*
X47603Y59870D01*
X47786Y59794D01*
X47982Y59769D01*
X48177Y59794D01*
X48360Y59870D01*
X48456Y59944D01*
X48547Y59990D01*
X48703Y59870D01*
X48886Y59794D01*
X49082Y59769D01*
X49277Y59794D01*
X49460Y59870D01*
X49617Y59990D01*
X49737Y60147D01*
X49812Y60329D01*
X49838Y60525D01*
X49812Y60721D01*
X49737Y60903D01*
X49617Y61060D01*
X49557Y61106D01*
X49557Y61206D01*
X49617Y61251D01*
X49737Y61408D01*
X49812Y61590D01*
X49838Y61786D01*
X49812Y61982D01*
X49737Y62164D01*
X49617Y62321D01*
X49557Y62367D01*
Y62467D01*
X49617Y62512D01*
X49737Y62669D01*
X49812Y62851D01*
X49838Y63047D01*
X49812Y63243D01*
X49737Y63425D01*
X49617Y63582D01*
X49557Y63628D01*
X49557Y63728D01*
X49617Y63773D01*
X49737Y63930D01*
X49812Y64112D01*
X49838Y64308D01*
X49812Y64504D01*
X49737Y64686D01*
X49617Y64843D01*
X49460Y64963D01*
X49277Y65039D01*
X49082Y65065D01*
D02*
G37*
G36*
X71125Y64705D02*
X70968Y64685D01*
X70822Y64624D01*
X70697Y64528D01*
X70601Y64403D01*
X70540Y64257D01*
X70520Y64100D01*
X70540Y63943D01*
X70601Y63797D01*
X70697Y63672D01*
X70822Y63576D01*
X70968Y63515D01*
X71125Y63495D01*
X71282Y63515D01*
X71428Y63576D01*
X71553Y63672D01*
X71649Y63797D01*
X71710Y63943D01*
X71730Y64100D01*
X71710Y64257D01*
X71649Y64403D01*
X71553Y64528D01*
X71428Y64624D01*
X71282Y64685D01*
X71125Y64705D01*
D02*
G37*
G36*
X105373Y62105D02*
X105216Y62085D01*
X105070Y62024D01*
X104945Y61928D01*
X104849Y61803D01*
X104788Y61657D01*
X104768Y61500D01*
X104788Y61343D01*
X104849Y61197D01*
X104945Y61072D01*
X105070Y60976D01*
X105216Y60915D01*
X105373Y60895D01*
X105530Y60915D01*
X105675Y60976D01*
X105801Y61072D01*
X105897Y61197D01*
X105957Y61343D01*
X105978Y61500D01*
X105957Y61657D01*
X105897Y61803D01*
X105801Y61928D01*
X105675Y62024D01*
X105530Y62085D01*
X105373Y62105D01*
D02*
G37*
G36*
X64655Y62055D02*
X64498Y62035D01*
X64352Y61974D01*
X64227Y61878D01*
X64131Y61753D01*
X64070Y61607D01*
X64050Y61450D01*
X64070Y61293D01*
X64131Y61147D01*
X64227Y61022D01*
X64352Y60926D01*
X64498Y60865D01*
X64655Y60845D01*
X64812Y60865D01*
X64958Y60926D01*
X65083Y61022D01*
X65179Y61147D01*
X65240Y61293D01*
X65260Y61450D01*
X65240Y61607D01*
X65179Y61753D01*
X65083Y61878D01*
X64958Y61974D01*
X64812Y62035D01*
X64655Y62055D01*
D02*
G37*
G36*
X123925Y61330D02*
X123768Y61310D01*
X123622Y61249D01*
X123497Y61153D01*
X123401Y61028D01*
X123340Y60882D01*
X123320Y60725D01*
X123340Y60568D01*
X123401Y60422D01*
X123497Y60297D01*
X123622Y60201D01*
X123768Y60140D01*
X123925Y60120D01*
X124082Y60140D01*
X124228Y60201D01*
X124353Y60297D01*
X124449Y60422D01*
X124510Y60568D01*
X124530Y60725D01*
X124510Y60882D01*
X124449Y61028D01*
X124353Y61153D01*
X124228Y61249D01*
X124082Y61310D01*
X123925Y61330D01*
D02*
G37*
G36*
X77216Y61288D02*
X77059Y61268D01*
X76913Y61207D01*
X76788Y61111D01*
X76692Y60986D01*
X76631Y60840D01*
X76611Y60683D01*
X76631Y60526D01*
X76692Y60381D01*
X76788Y60255D01*
X76913Y60159D01*
X77059Y60099D01*
X77216Y60078D01*
X77372Y60099D01*
X77518Y60159D01*
X77644Y60255D01*
X77740Y60381D01*
X77800Y60526D01*
X77821Y60683D01*
X77800Y60840D01*
X77740Y60986D01*
X77644Y61111D01*
X77518Y61207D01*
X77372Y61268D01*
X77216Y61288D01*
D02*
G37*
G36*
X71057Y60423D02*
X70901Y60402D01*
X70755Y60342D01*
X70629Y60246D01*
X70533Y60120D01*
X70473Y59974D01*
X70452Y59818D01*
X70473Y59661D01*
X70533Y59515D01*
X70629Y59390D01*
X70755Y59294D01*
X70901Y59233D01*
X71057Y59213D01*
X71214Y59233D01*
X71360Y59294D01*
X71485Y59390D01*
X71581Y59515D01*
X71642Y59661D01*
X71662Y59818D01*
X71642Y59974D01*
X71581Y60120D01*
X71485Y60246D01*
X71360Y60342D01*
X71214Y60402D01*
X71057Y60423D01*
D02*
G37*
G36*
X107105Y60250D02*
X106948Y60230D01*
X106802Y60169D01*
X106677Y60073D01*
X106581Y59948D01*
X106520Y59802D01*
X106500Y59645D01*
X106520Y59488D01*
X106581Y59342D01*
X106677Y59217D01*
X106802Y59121D01*
X106948Y59060D01*
X107105Y59040D01*
X107262Y59060D01*
X107408Y59121D01*
X107533Y59217D01*
X107629Y59342D01*
X107690Y59488D01*
X107710Y59645D01*
X107690Y59802D01*
X107629Y59948D01*
X107533Y60073D01*
X107408Y60169D01*
X107262Y60230D01*
X107105Y60250D01*
D02*
G37*
G36*
X109743Y60223D02*
X109587Y60202D01*
X109441Y60142D01*
X109315Y60045D01*
X109219Y59920D01*
X109159Y59774D01*
X109138Y59617D01*
X109159Y59461D01*
X109219Y59315D01*
X109315Y59189D01*
X109441Y59093D01*
X109587Y59033D01*
X109743Y59012D01*
X109900Y59033D01*
X110046Y59093D01*
X110171Y59189D01*
X110267Y59315D01*
X110328Y59461D01*
X110348Y59617D01*
X110328Y59774D01*
X110267Y59920D01*
X110171Y60045D01*
X110046Y60142D01*
X109900Y60202D01*
X109743Y60223D01*
D02*
G37*
G36*
X67920Y59569D02*
X67763Y59548D01*
X67617Y59488D01*
X67492Y59391D01*
X67396Y59266D01*
X67335Y59120D01*
X67315Y58963D01*
X67335Y58807D01*
X67396Y58661D01*
X67492Y58536D01*
X67617Y58439D01*
X67763Y58379D01*
X67920Y58358D01*
X68076Y58379D01*
X68222Y58439D01*
X68348Y58536D01*
X68444Y58661D01*
X68504Y58807D01*
X68525Y58963D01*
X68504Y59120D01*
X68444Y59266D01*
X68348Y59391D01*
X68222Y59488D01*
X68076Y59548D01*
X67920Y59569D01*
D02*
G37*
G36*
X76641Y59569D02*
X76484Y59548D01*
X76338Y59488D01*
X76213Y59391D01*
X76117Y59266D01*
X76056Y59120D01*
X76036Y58963D01*
X76056Y58807D01*
X76117Y58661D01*
X76213Y58536D01*
X76338Y58439D01*
X76484Y58379D01*
X76641Y58358D01*
X76797Y58379D01*
X76943Y58439D01*
X77069Y58536D01*
X77165Y58661D01*
X77225Y58807D01*
X77246Y58963D01*
X77225Y59120D01*
X77165Y59266D01*
X77069Y59391D01*
X76943Y59488D01*
X76797Y59548D01*
X76641Y59569D01*
D02*
G37*
G36*
X125425Y59305D02*
X125268Y59285D01*
X125122Y59224D01*
X124997Y59128D01*
X124901Y59003D01*
X124840Y58857D01*
X124820Y58700D01*
X124840Y58543D01*
X124901Y58397D01*
X124997Y58272D01*
X125122Y58176D01*
X125268Y58115D01*
X125425Y58095D01*
X125582Y58115D01*
X125728Y58176D01*
X125853Y58272D01*
X125949Y58397D01*
X126010Y58543D01*
X126030Y58700D01*
X126010Y58857D01*
X125949Y59003D01*
X125853Y59128D01*
X125728Y59224D01*
X125582Y59285D01*
X125425Y59305D01*
D02*
G37*
G36*
X80132Y58675D02*
X79975Y58655D01*
X79829Y58594D01*
X79704Y58498D01*
X79608Y58373D01*
X79547Y58227D01*
X79527Y58070D01*
X79547Y57913D01*
X79608Y57767D01*
X79704Y57642D01*
X79829Y57546D01*
X79975Y57486D01*
X80132Y57465D01*
X80289Y57486D01*
X80435Y57546D01*
X80560Y57642D01*
X80656Y57767D01*
X80717Y57913D01*
X80737Y58070D01*
X80717Y58227D01*
X80656Y58373D01*
X80560Y58498D01*
X80435Y58594D01*
X80289Y58655D01*
X80132Y58675D01*
D02*
G37*
G36*
X64100Y58569D02*
X63943Y58548D01*
X63797Y58488D01*
X63672Y58391D01*
X63576Y58266D01*
X63515Y58120D01*
X63495Y57963D01*
X63515Y57807D01*
X63576Y57661D01*
X63672Y57536D01*
X63797Y57439D01*
X63943Y57379D01*
X64100Y57358D01*
X64257Y57379D01*
X64403Y57439D01*
X64528Y57536D01*
X64624Y57661D01*
X64685Y57807D01*
X64705Y57963D01*
X64685Y58120D01*
X64624Y58266D01*
X64528Y58391D01*
X64403Y58488D01*
X64257Y58548D01*
X64100Y58569D01*
D02*
G37*
G36*
X76641Y58069D02*
X76484Y58048D01*
X76338Y57988D01*
X76213Y57891D01*
X76117Y57766D01*
X76056Y57620D01*
X76036Y57463D01*
X76056Y57307D01*
X76117Y57161D01*
X76213Y57036D01*
X76338Y56939D01*
X76484Y56879D01*
X76641Y56858D01*
X76797Y56879D01*
X76943Y56939D01*
X77069Y57036D01*
X77165Y57161D01*
X77225Y57307D01*
X77246Y57463D01*
X77225Y57620D01*
X77165Y57766D01*
X77069Y57891D01*
X76943Y57988D01*
X76797Y58048D01*
X76641Y58069D01*
D02*
G37*
G36*
X103700Y57905D02*
X103543Y57885D01*
X103397Y57824D01*
X103272Y57728D01*
X103176Y57603D01*
X103115Y57457D01*
X103095Y57300D01*
X103115Y57143D01*
X103176Y56997D01*
X103272Y56872D01*
X103397Y56776D01*
X103543Y56715D01*
X103700Y56695D01*
X103857Y56715D01*
X104003Y56776D01*
X104128Y56872D01*
X104224Y56997D01*
X104285Y57143D01*
X104305Y57300D01*
X104285Y57457D01*
X104224Y57603D01*
X104128Y57728D01*
X104003Y57824D01*
X103857Y57885D01*
X103700Y57905D01*
D02*
G37*
G36*
X68600D02*
X68443Y57885D01*
X68297Y57824D01*
X68172Y57728D01*
X68076Y57603D01*
X68015Y57457D01*
X67995Y57300D01*
X68015Y57143D01*
X68076Y56997D01*
X68172Y56872D01*
X68297Y56776D01*
X68443Y56715D01*
X68600Y56695D01*
X68757Y56715D01*
X68903Y56776D01*
X69028Y56872D01*
X69124Y56997D01*
X69185Y57143D01*
X69205Y57300D01*
X69185Y57457D01*
X69124Y57603D01*
X69028Y57728D01*
X68903Y57824D01*
X68757Y57885D01*
X68600Y57905D01*
D02*
G37*
G36*
X84737Y57789D02*
X84581Y57768D01*
X84435Y57708D01*
X84309Y57611D01*
X84213Y57486D01*
X84153Y57340D01*
X84132Y57183D01*
X84153Y57027D01*
X84213Y56881D01*
X84309Y56756D01*
X84435Y56659D01*
X84581Y56599D01*
X84737Y56578D01*
X84894Y56599D01*
X85040Y56659D01*
X85165Y56756D01*
X85261Y56881D01*
X85322Y57027D01*
X85342Y57183D01*
X85322Y57340D01*
X85261Y57486D01*
X85165Y57611D01*
X85040Y57708D01*
X84894Y57768D01*
X84737Y57789D01*
D02*
G37*
G36*
X53220Y57505D02*
X53063Y57484D01*
X52917Y57424D01*
X52792Y57327D01*
X52696Y57202D01*
X52635Y57056D01*
X52615Y56899D01*
X52635Y56743D01*
X52696Y56597D01*
X52792Y56471D01*
X52917Y56375D01*
X53063Y56315D01*
X53220Y56294D01*
X53377Y56315D01*
X53523Y56375D01*
X53648Y56471D01*
X53744Y56597D01*
X53805Y56743D01*
X53825Y56899D01*
X53805Y57056D01*
X53744Y57202D01*
X53648Y57327D01*
X53523Y57424D01*
X53377Y57484D01*
X53220Y57505D01*
D02*
G37*
G36*
X51745D02*
X51588Y57484D01*
X51442Y57424D01*
X51317Y57327D01*
X51221Y57202D01*
X51160Y57056D01*
X51140Y56899D01*
X51160Y56743D01*
X51221Y56597D01*
X51317Y56471D01*
X51442Y56375D01*
X51588Y56315D01*
X51745Y56294D01*
X51902Y56315D01*
X52048Y56375D01*
X52173Y56471D01*
X52269Y56597D01*
X52330Y56743D01*
X52350Y56899D01*
X52330Y57056D01*
X52269Y57202D01*
X52173Y57327D01*
X52048Y57424D01*
X51902Y57484D01*
X51745Y57505D01*
D02*
G37*
G36*
X109756Y57338D02*
X109599Y57317D01*
X109453Y57257D01*
X109328Y57160D01*
X109232Y57035D01*
X109171Y56889D01*
X109151Y56733D01*
X109171Y56576D01*
X109232Y56430D01*
X109328Y56305D01*
X109453Y56208D01*
X109599Y56148D01*
X109756Y56127D01*
X109913Y56148D01*
X110058Y56208D01*
X110184Y56305D01*
X110280Y56430D01*
X110340Y56576D01*
X110361Y56733D01*
X110340Y56889D01*
X110280Y57035D01*
X110184Y57160D01*
X110058Y57257D01*
X109913Y57317D01*
X109756Y57338D01*
D02*
G37*
G36*
X57870Y56993D02*
X57713Y56972D01*
X57567Y56912D01*
X57442Y56815D01*
X57346Y56690D01*
X57285Y56544D01*
X57265Y56387D01*
X57285Y56231D01*
X57346Y56085D01*
X57442Y55960D01*
X57567Y55863D01*
X57713Y55803D01*
X57870Y55782D01*
X58027Y55803D01*
X58173Y55863D01*
X58298Y55960D01*
X58394Y56085D01*
X58455Y56231D01*
X58475Y56387D01*
X58455Y56544D01*
X58394Y56690D01*
X58298Y56815D01*
X58173Y56912D01*
X58027Y56972D01*
X57870Y56993D01*
D02*
G37*
G36*
X55682D02*
X55525Y56972D01*
X55379Y56912D01*
X55254Y56815D01*
X55158Y56690D01*
X55097Y56544D01*
X55077Y56387D01*
X55097Y56231D01*
X55158Y56085D01*
X55254Y55960D01*
X55379Y55863D01*
X55525Y55803D01*
X55682Y55782D01*
X55839Y55803D01*
X55985Y55863D01*
X56110Y55960D01*
X56206Y56085D01*
X56267Y56231D01*
X56287Y56387D01*
X56267Y56544D01*
X56206Y56690D01*
X56110Y56815D01*
X55985Y56912D01*
X55839Y56972D01*
X55682Y56993D01*
D02*
G37*
G36*
X105905Y56805D02*
X105748Y56785D01*
X105602Y56724D01*
X105477Y56628D01*
X105381Y56503D01*
X105320Y56357D01*
X105300Y56200D01*
X105320Y56043D01*
X105381Y55897D01*
X105477Y55772D01*
X105602Y55676D01*
X105748Y55615D01*
X105905Y55595D01*
X106062Y55615D01*
X106208Y55676D01*
X106333Y55772D01*
X106429Y55897D01*
X106490Y56043D01*
X106510Y56200D01*
X106490Y56357D01*
X106429Y56503D01*
X106333Y56628D01*
X106208Y56724D01*
X106062Y56785D01*
X105905Y56805D01*
D02*
G37*
G36*
X48105Y55938D02*
X47948Y55917D01*
X47802Y55857D01*
X47677Y55761D01*
X47581Y55635D01*
X47520Y55489D01*
X47500Y55333D01*
X47520Y55176D01*
X47581Y55030D01*
X47677Y54905D01*
X47802Y54809D01*
X47948Y54748D01*
X48105Y54728D01*
X48262Y54748D01*
X48408Y54809D01*
X48533Y54905D01*
X48629Y55030D01*
X48690Y55176D01*
X48710Y55333D01*
X48690Y55489D01*
X48629Y55635D01*
X48533Y55761D01*
X48408Y55857D01*
X48262Y55917D01*
X48105Y55938D01*
D02*
G37*
G36*
X38500Y57181D02*
X38304Y57156D01*
X38122Y57080D01*
X37965Y56960D01*
X37845Y56803D01*
X37769Y56621D01*
X37744Y56425D01*
X37769Y56229D01*
X37845Y56047D01*
X37965Y55890D01*
X38053Y55823D01*
Y55723D01*
X37965Y55656D01*
X37845Y55499D01*
X37769Y55317D01*
X37744Y55121D01*
X37769Y54925D01*
X37845Y54742D01*
X37965Y54586D01*
X38122Y54466D01*
X38304Y54390D01*
X38500Y54364D01*
X38696Y54390D01*
X38878Y54466D01*
X39035Y54586D01*
X39155Y54742D01*
X39231Y54925D01*
X39256Y55121D01*
X39231Y55317D01*
X39155Y55499D01*
X39035Y55656D01*
X38947Y55723D01*
Y55823D01*
X39035Y55890D01*
X39155Y56047D01*
X39231Y56229D01*
X39256Y56425D01*
X39231Y56621D01*
X39155Y56803D01*
X39035Y56960D01*
X38878Y57080D01*
X38696Y57156D01*
X38500Y57181D01*
D02*
G37*
G36*
X48105Y54538D02*
X47948Y54517D01*
X47802Y54457D01*
X47677Y54361D01*
X47581Y54235D01*
X47520Y54089D01*
X47500Y53933D01*
X47520Y53776D01*
X47581Y53630D01*
X47677Y53505D01*
X47802Y53409D01*
X47948Y53348D01*
X48105Y53328D01*
X48262Y53348D01*
X48408Y53409D01*
X48533Y53505D01*
X48629Y53630D01*
X48690Y53776D01*
X48710Y53933D01*
X48690Y54089D01*
X48629Y54235D01*
X48533Y54361D01*
X48408Y54457D01*
X48262Y54517D01*
X48105Y54538D01*
D02*
G37*
G36*
Y53145D02*
X47948Y53124D01*
X47802Y53063D01*
X47677Y52967D01*
X47581Y52842D01*
X47520Y52696D01*
X47500Y52539D01*
X47520Y52383D01*
X47581Y52237D01*
X47677Y52111D01*
X47802Y52015D01*
X47948Y51955D01*
X48105Y51934D01*
X48262Y51955D01*
X48408Y52015D01*
X48533Y52111D01*
X48629Y52237D01*
X48690Y52383D01*
X48710Y52539D01*
X48690Y52696D01*
X48629Y52842D01*
X48533Y52967D01*
X48408Y53063D01*
X48262Y53124D01*
X48105Y53145D01*
D02*
G37*
G36*
X127750Y53055D02*
X127593Y53035D01*
X127447Y52974D01*
X127322Y52878D01*
X127226Y52753D01*
X127165Y52607D01*
X127145Y52450D01*
X127165Y52293D01*
X127226Y52147D01*
X127322Y52022D01*
X127447Y51926D01*
X127593Y51865D01*
X127750Y51845D01*
X127907Y51865D01*
X128053Y51926D01*
X128178Y52022D01*
X128274Y52147D01*
X128335Y52293D01*
X128355Y52450D01*
X128335Y52607D01*
X128274Y52753D01*
X128178Y52878D01*
X128053Y52974D01*
X127907Y53035D01*
X127750Y53055D01*
D02*
G37*
G36*
X35274Y52230D02*
X35117Y52210D01*
X34971Y52149D01*
X34846Y52053D01*
X34750Y51928D01*
X34689Y51782D01*
X34668Y51625D01*
X34689Y51468D01*
X34750Y51322D01*
X34846Y51197D01*
X34971Y51101D01*
X35117Y51040D01*
X35274Y51020D01*
X35430Y51040D01*
X35576Y51101D01*
X35702Y51197D01*
X35798Y51322D01*
X35858Y51468D01*
X35879Y51625D01*
X35858Y51782D01*
X35798Y51928D01*
X35702Y52053D01*
X35576Y52149D01*
X35430Y52210D01*
X35274Y52230D01*
D02*
G37*
G36*
X38000D02*
X37843Y52210D01*
X37697Y52149D01*
X37572Y52053D01*
X37476Y51928D01*
X37415Y51782D01*
X37395Y51625D01*
X37415Y51468D01*
X37476Y51322D01*
X37572Y51197D01*
X37697Y51101D01*
X37843Y51040D01*
X38000Y51020D01*
X38157Y51040D01*
X38303Y51101D01*
X38428Y51197D01*
X38524Y51322D01*
X38559Y51408D01*
X38662Y51394D01*
X38665Y51368D01*
X38726Y51222D01*
X38822Y51097D01*
X38947Y51001D01*
X39093Y50940D01*
X39250Y50920D01*
X39407Y50940D01*
X39553Y51001D01*
X39678Y51097D01*
X39774Y51222D01*
X39835Y51368D01*
X39855Y51525D01*
X39835Y51682D01*
X39774Y51828D01*
X39678Y51953D01*
X39553Y52049D01*
X39407Y52110D01*
X39250Y52130D01*
X39093Y52110D01*
X38947Y52049D01*
X38822Y51953D01*
X38726Y51828D01*
X38691Y51742D01*
X38588Y51756D01*
X38585Y51782D01*
X38524Y51928D01*
X38428Y52053D01*
X38303Y52149D01*
X38157Y52210D01*
X38000Y52230D01*
D02*
G37*
G36*
X33975Y52048D02*
X33818Y52027D01*
X33672Y51967D01*
X33547Y51871D01*
X33451Y51745D01*
X33390Y51599D01*
X33370Y51443D01*
X33390Y51286D01*
X33451Y51140D01*
X33547Y51015D01*
X33672Y50919D01*
X33818Y50858D01*
X33975Y50838D01*
X34132Y50858D01*
X34278Y50919D01*
X34403Y51015D01*
X34499Y51140D01*
X34560Y51286D01*
X34580Y51443D01*
X34560Y51599D01*
X34499Y51745D01*
X34403Y51871D01*
X34278Y51967D01*
X34132Y52027D01*
X33975Y52048D01*
D02*
G37*
G36*
X126500Y51491D02*
X126343Y51471D01*
X126197Y51410D01*
X126072Y51314D01*
X125976Y51189D01*
X125915Y51043D01*
X125895Y50886D01*
X125915Y50730D01*
X125976Y50584D01*
X126072Y50458D01*
X126197Y50362D01*
X126343Y50302D01*
X126500Y50281D01*
X126657Y50302D01*
X126803Y50362D01*
X126928Y50458D01*
X127024Y50584D01*
X127085Y50730D01*
X127105Y50886D01*
X127085Y51043D01*
X127024Y51189D01*
X126928Y51314D01*
X126803Y51410D01*
X126657Y51471D01*
X126500Y51491D01*
D02*
G37*
G36*
X99900Y51205D02*
X99743Y51185D01*
X99597Y51124D01*
X99472Y51028D01*
X99376Y50903D01*
X99315Y50757D01*
X99295Y50600D01*
X99315Y50443D01*
X99376Y50297D01*
X99472Y50172D01*
X99597Y50076D01*
X99743Y50015D01*
X99900Y49995D01*
X100057Y50015D01*
X100203Y50076D01*
X100328Y50172D01*
X100424Y50297D01*
X100485Y50443D01*
X100505Y50600D01*
X100485Y50757D01*
X100424Y50903D01*
X100328Y51028D01*
X100203Y51124D01*
X100057Y51185D01*
X99900Y51205D01*
D02*
G37*
G36*
X76996Y50813D02*
X76840Y50793D01*
X76694Y50732D01*
X76568Y50636D01*
X76472Y50511D01*
X76412Y50365D01*
X76391Y50208D01*
X76412Y50052D01*
X76472Y49906D01*
X76568Y49780D01*
X76694Y49684D01*
X76840Y49624D01*
X76996Y49603D01*
X77153Y49624D01*
X77299Y49684D01*
X77424Y49780D01*
X77520Y49906D01*
X77581Y50052D01*
X77601Y50208D01*
X77581Y50365D01*
X77520Y50511D01*
X77424Y50636D01*
X77299Y50732D01*
X77153Y50793D01*
X76996Y50813D01*
D02*
G37*
G36*
X53140Y51200D02*
X53032Y51155D01*
X52949Y51073D01*
X52904Y50965D01*
X52904Y50906D01*
X52904Y49669D01*
X52904Y49616D01*
X52945Y49517D01*
X53021Y49441D01*
X53120Y49400D01*
X53173Y49400D01*
X54967Y49400D01*
X55024Y49400D01*
X55130Y49444D01*
X55210Y49524D01*
X55254Y49630D01*
X55254Y49687D01*
X55254Y49687D01*
X55254Y50890D01*
X55254Y50952D01*
X55207Y51066D01*
X55120Y51153D01*
X55043Y51185D01*
X55006Y51200D01*
X54944Y51200D01*
X54944Y51200D01*
X53198Y51200D01*
X53140Y51200D01*
D02*
G37*
G36*
X39400Y50478D02*
X39243Y50457D01*
X39097Y50397D01*
X38972Y50301D01*
X38876Y50176D01*
X38815Y50030D01*
X38795Y49873D01*
X38815Y49716D01*
X38876Y49570D01*
X38972Y49445D01*
X39097Y49349D01*
X39243Y49288D01*
X39400Y49268D01*
X39557Y49288D01*
X39703Y49349D01*
X39828Y49445D01*
X39924Y49570D01*
X39985Y49716D01*
X40005Y49873D01*
X39985Y50030D01*
X39924Y50176D01*
X39828Y50301D01*
X39703Y50397D01*
X39557Y50457D01*
X39400Y50478D01*
D02*
G37*
G36*
X84737Y50339D02*
X84581Y50318D01*
X84435Y50258D01*
X84309Y50161D01*
X84213Y50036D01*
X84153Y49890D01*
X84132Y49733D01*
X84153Y49577D01*
X84213Y49431D01*
X84309Y49306D01*
X84435Y49209D01*
X84581Y49149D01*
X84737Y49128D01*
X84894Y49149D01*
X85040Y49209D01*
X85165Y49306D01*
X85261Y49431D01*
X85322Y49577D01*
X85342Y49733D01*
X85322Y49890D01*
X85261Y50036D01*
X85165Y50161D01*
X85040Y50258D01*
X84894Y50318D01*
X84737Y50339D01*
D02*
G37*
G36*
X59330Y50145D02*
X59173Y50124D01*
X59027Y50063D01*
X58902Y49967D01*
X58806Y49842D01*
X58745Y49696D01*
X58725Y49539D01*
X58745Y49383D01*
X58806Y49237D01*
X58902Y49111D01*
X59027Y49015D01*
X59173Y48955D01*
X59330Y48934D01*
X59487Y48955D01*
X59633Y49015D01*
X59758Y49111D01*
X59854Y49237D01*
X59915Y49383D01*
X59935Y49539D01*
X59915Y49696D01*
X59854Y49842D01*
X59758Y49967D01*
X59633Y50063D01*
X59487Y50124D01*
X59330Y50145D01*
D02*
G37*
G36*
X103009Y50127D02*
X102852Y50107D01*
X102706Y50046D01*
X102581Y49950D01*
X102485Y49825D01*
X102424Y49679D01*
X102404Y49522D01*
X102424Y49365D01*
X102485Y49219D01*
X102581Y49094D01*
X102706Y48998D01*
X102852Y48938D01*
X103009Y48917D01*
X103165Y48938D01*
X103311Y48998D01*
X103437Y49094D01*
X103533Y49219D01*
X103593Y49365D01*
X103614Y49522D01*
X103593Y49679D01*
X103533Y49825D01*
X103437Y49950D01*
X103311Y50046D01*
X103165Y50107D01*
X103009Y50127D01*
D02*
G37*
G36*
X63250Y49680D02*
X63093Y49660D01*
X62947Y49599D01*
X62822Y49503D01*
X62726Y49378D01*
X62665Y49232D01*
X62645Y49075D01*
X62665Y48918D01*
X62726Y48772D01*
X62822Y48647D01*
X62947Y48551D01*
X63093Y48490D01*
X63250Y48470D01*
X63407Y48490D01*
X63553Y48551D01*
X63678Y48647D01*
X63774Y48772D01*
X63835Y48918D01*
X63855Y49075D01*
X63835Y49232D01*
X63774Y49378D01*
X63678Y49503D01*
X63553Y49599D01*
X63407Y49660D01*
X63250Y49680D01*
D02*
G37*
G36*
X64970Y49575D02*
X64813Y49555D01*
X64667Y49494D01*
X64542Y49398D01*
X64446Y49273D01*
X64385Y49127D01*
X64365Y48970D01*
X64385Y48813D01*
X64446Y48667D01*
X64542Y48542D01*
X64667Y48446D01*
X64813Y48385D01*
X64970Y48365D01*
X65127Y48385D01*
X65273Y48446D01*
X65398Y48542D01*
X65494Y48667D01*
X65555Y48813D01*
X65575Y48970D01*
X65555Y49127D01*
X65494Y49273D01*
X65398Y49398D01*
X65273Y49494D01*
X65127Y49555D01*
X64970Y49575D01*
D02*
G37*
G36*
X33850Y50478D02*
X33693Y50457D01*
X33547Y50397D01*
X33422Y50301D01*
X33326Y50176D01*
X33265Y50030D01*
X33245Y49873D01*
X33265Y49716D01*
X33294Y49648D01*
X33238Y49563D01*
X33224Y49554D01*
X33077Y49535D01*
X32931Y49474D01*
X32806Y49378D01*
X32710Y49253D01*
X32649Y49107D01*
X32629Y48950D01*
X32649Y48794D01*
X32710Y48648D01*
X32806Y48522D01*
X32931Y48426D01*
X33077Y48366D01*
X33234Y48345D01*
X33390Y48366D01*
X33536Y48426D01*
X33662Y48522D01*
X33758Y48648D01*
X33818Y48794D01*
X33839Y48950D01*
X33818Y49107D01*
X33790Y49175D01*
X33845Y49261D01*
X33859Y49269D01*
X34007Y49288D01*
X34153Y49349D01*
X34278Y49445D01*
X34374Y49570D01*
X34435Y49716D01*
X34455Y49873D01*
X34435Y50030D01*
X34374Y50176D01*
X34278Y50301D01*
X34153Y50397D01*
X34007Y50457D01*
X33850Y50478D01*
D02*
G37*
G36*
X68375Y48842D02*
X68218Y48821D01*
X68072Y48761D01*
X67947Y48664D01*
X67851Y48539D01*
X67790Y48393D01*
X67770Y48236D01*
X67790Y48080D01*
X67851Y47934D01*
X67947Y47808D01*
X68072Y47712D01*
X68218Y47652D01*
X68375Y47631D01*
X68532Y47652D01*
X68678Y47712D01*
X68803Y47808D01*
X68899Y47934D01*
X68960Y48080D01*
X68980Y48236D01*
X68960Y48393D01*
X68899Y48539D01*
X68803Y48664D01*
X68678Y48761D01*
X68532Y48821D01*
X68375Y48842D01*
D02*
G37*
G36*
X59505Y48830D02*
X59348Y48809D01*
X59202Y48749D01*
X59077Y48652D01*
X58981Y48527D01*
X58920Y48381D01*
X58900Y48224D01*
X58920Y48068D01*
X58981Y47922D01*
X59077Y47796D01*
X59202Y47700D01*
X59348Y47640D01*
X59505Y47619D01*
X59662Y47640D01*
X59808Y47700D01*
X59933Y47796D01*
X60029Y47922D01*
X60090Y48068D01*
X60110Y48224D01*
X60090Y48381D01*
X60029Y48527D01*
X59933Y48652D01*
X59808Y48749D01*
X59662Y48809D01*
X59505Y48830D01*
D02*
G37*
G36*
X51045Y52430D02*
X50888Y52409D01*
X50742Y52349D01*
X50617Y52252D01*
X50521Y52127D01*
X50460Y51981D01*
X50440Y51824D01*
X50460Y51668D01*
X50502Y51569D01*
X50392Y51524D01*
X50267Y51427D01*
X50171Y51302D01*
X50110Y51156D01*
X50090Y50999D01*
X50110Y50843D01*
X50171Y50697D01*
X50267Y50571D01*
X50316Y50534D01*
X50335Y50395D01*
X50321Y50377D01*
X50260Y50231D01*
X50240Y50074D01*
X50260Y49918D01*
X50321Y49772D01*
X50417Y49646D01*
X50542Y49550D01*
X50617Y49520D01*
X50580Y49431D01*
X50559Y49274D01*
X50580Y49118D01*
X50641Y48972D01*
X50737Y48846D01*
X50862Y48750D01*
X51008Y48690D01*
X51162Y48670D01*
X51159Y48649D01*
X51180Y48493D01*
X51241Y48347D01*
X51337Y48221D01*
X51396Y48176D01*
X51445Y48079D01*
X51427Y48032D01*
X51385Y47931D01*
X51365Y47774D01*
X51385Y47618D01*
X51446Y47472D01*
X51542Y47346D01*
X51667Y47250D01*
X51813Y47190D01*
X51970Y47169D01*
X52127Y47190D01*
X52273Y47250D01*
X52398Y47346D01*
X52494Y47472D01*
X52555Y47618D01*
X52575Y47774D01*
X52555Y47931D01*
X52494Y48077D01*
X52398Y48202D01*
X52339Y48248D01*
X52290Y48345D01*
X52308Y48392D01*
X52349Y48493D01*
X52370Y48649D01*
X52349Y48806D01*
X52289Y48952D01*
X52193Y49077D01*
X52067Y49174D01*
X51921Y49234D01*
X51767Y49254D01*
X51770Y49274D01*
X51749Y49431D01*
X51689Y49577D01*
X51593Y49702D01*
X51467Y49799D01*
X51393Y49829D01*
X51430Y49918D01*
X51450Y50074D01*
X51430Y50231D01*
X51369Y50377D01*
X51273Y50502D01*
X51224Y50540D01*
X51205Y50679D01*
X51219Y50697D01*
X51280Y50843D01*
X51300Y50999D01*
X51280Y51156D01*
X51239Y51255D01*
X51348Y51300D01*
X51473Y51396D01*
X51569Y51522D01*
X51630Y51668D01*
X51650Y51824D01*
X51630Y51981D01*
X51569Y52127D01*
X51473Y52252D01*
X51348Y52349D01*
X51202Y52409D01*
X51045Y52430D01*
D02*
G37*
G36*
X80381Y48305D02*
X80224Y48285D01*
X80078Y48224D01*
X79953Y48128D01*
X79857Y48003D01*
X79796Y47857D01*
X79776Y47700D01*
X79796Y47543D01*
X79857Y47397D01*
X79953Y47272D01*
X80078Y47176D01*
X80224Y47115D01*
X80381Y47095D01*
X80538Y47115D01*
X80684Y47176D01*
X80809Y47272D01*
X80905Y47397D01*
X80965Y47543D01*
X80986Y47700D01*
X80965Y47857D01*
X80905Y48003D01*
X80809Y48128D01*
X80684Y48224D01*
X80538Y48285D01*
X80381Y48305D01*
D02*
G37*
G36*
X69900Y48130D02*
X69743Y48110D01*
X69597Y48049D01*
X69472Y47953D01*
X69376Y47828D01*
X69315Y47682D01*
X69295Y47525D01*
X69315Y47368D01*
X69376Y47222D01*
X69472Y47097D01*
X69597Y47001D01*
X69743Y46940D01*
X69900Y46920D01*
X70057Y46940D01*
X70203Y47001D01*
X70328Y47097D01*
X70424Y47222D01*
X70485Y47368D01*
X70505Y47525D01*
X70485Y47682D01*
X70424Y47828D01*
X70328Y47953D01*
X70203Y48049D01*
X70057Y48110D01*
X69900Y48130D01*
D02*
G37*
G36*
X74900Y48055D02*
X74743Y48035D01*
X74597Y47974D01*
X74472Y47878D01*
X74376Y47753D01*
X74315Y47607D01*
X74295Y47450D01*
X74315Y47293D01*
X74376Y47147D01*
X74472Y47022D01*
X74597Y46926D01*
X74743Y46865D01*
X74900Y46845D01*
X75057Y46865D01*
X75203Y46926D01*
X75328Y47022D01*
X75424Y47147D01*
X75485Y47293D01*
X75505Y47450D01*
X75485Y47607D01*
X75424Y47753D01*
X75328Y47878D01*
X75203Y47974D01*
X75057Y48035D01*
X74900Y48055D01*
D02*
G37*
G36*
X73900Y47080D02*
X73743Y47060D01*
X73597Y46999D01*
X73472Y46903D01*
X73376Y46778D01*
X73315Y46632D01*
X73295Y46475D01*
X73315Y46318D01*
X73376Y46172D01*
X73472Y46047D01*
X73597Y45951D01*
X73743Y45890D01*
X73900Y45870D01*
X74057Y45890D01*
X74203Y45951D01*
X74328Y46047D01*
X74424Y46172D01*
X74485Y46318D01*
X74505Y46475D01*
X74485Y46632D01*
X74424Y46778D01*
X74328Y46903D01*
X74203Y46999D01*
X74057Y47060D01*
X73900Y47080D01*
D02*
G37*
G36*
X46343Y46998D02*
X46186Y46977D01*
X46040Y46917D01*
X45915Y46821D01*
X45819Y46695D01*
X45758Y46550D01*
X45738Y46393D01*
X45758Y46236D01*
X45819Y46090D01*
X45915Y45965D01*
X46040Y45869D01*
X46186Y45808D01*
X46343Y45788D01*
X46500Y45808D01*
X46645Y45869D01*
X46771Y45965D01*
X46867Y46090D01*
X46927Y46236D01*
X46948Y46393D01*
X46927Y46550D01*
X46867Y46695D01*
X46771Y46821D01*
X46645Y46917D01*
X46500Y46977D01*
X46343Y46998D01*
D02*
G37*
G36*
X113726Y46231D02*
X113570Y46210D01*
X113424Y46150D01*
X113298Y46053D01*
X113202Y45928D01*
X113142Y45782D01*
X113121Y45625D01*
X113142Y45469D01*
X113202Y45323D01*
X113298Y45197D01*
X113424Y45101D01*
X113570Y45041D01*
X113726Y45020D01*
X113883Y45041D01*
X114029Y45101D01*
X114154Y45197D01*
X114250Y45323D01*
X114311Y45469D01*
X114331Y45625D01*
X114311Y45782D01*
X114250Y45928D01*
X114154Y46053D01*
X114029Y46150D01*
X113883Y46210D01*
X113726Y46231D01*
D02*
G37*
G36*
X51270Y47185D02*
X51113Y47164D01*
X50967Y47104D01*
X50842Y47007D01*
X50746Y46882D01*
X50685Y46736D01*
X50665Y46579D01*
X50685Y46423D01*
X50746Y46277D01*
X50842Y46151D01*
X50967Y46055D01*
X51012Y46037D01*
Y45929D01*
X50987Y45919D01*
X50862Y45822D01*
X50766Y45697D01*
X50705Y45551D01*
X50685Y45394D01*
X50705Y45238D01*
X50766Y45092D01*
X50862Y44966D01*
X50987Y44870D01*
X51133Y44810D01*
X51290Y44789D01*
X51447Y44810D01*
X51593Y44870D01*
X51718Y44966D01*
X51814Y45092D01*
X51875Y45238D01*
X51895Y45394D01*
X51875Y45551D01*
X51814Y45697D01*
X51718Y45822D01*
X51593Y45919D01*
X51548Y45937D01*
Y46045D01*
X51573Y46055D01*
X51698Y46151D01*
X51794Y46277D01*
X51855Y46423D01*
X51875Y46579D01*
X51855Y46736D01*
X51794Y46882D01*
X51698Y47007D01*
X51573Y47104D01*
X51427Y47164D01*
X51270Y47185D01*
D02*
G37*
G36*
X47184Y45839D02*
X47028Y45819D01*
X46882Y45758D01*
X46756Y45662D01*
X46660Y45537D01*
X46600Y45391D01*
X46579Y45234D01*
X46600Y45078D01*
X46660Y44932D01*
X46756Y44806D01*
X46882Y44710D01*
X47028Y44650D01*
X47184Y44629D01*
X47341Y44650D01*
X47487Y44710D01*
X47612Y44806D01*
X47708Y44932D01*
X47769Y45078D01*
X47789Y45234D01*
X47769Y45391D01*
X47708Y45537D01*
X47612Y45662D01*
X47487Y45758D01*
X47341Y45819D01*
X47184Y45839D01*
D02*
G37*
G36*
X105800Y45785D02*
X105643Y45765D01*
X105497Y45704D01*
X105372Y45608D01*
X105276Y45483D01*
X105215Y45337D01*
X105195Y45180D01*
X105215Y45023D01*
X105276Y44877D01*
X105372Y44752D01*
X105497Y44656D01*
X105643Y44595D01*
X105800Y44575D01*
X105957Y44595D01*
X106103Y44656D01*
X106228Y44752D01*
X106324Y44877D01*
X106385Y45023D01*
X106405Y45180D01*
X106385Y45337D01*
X106324Y45483D01*
X106228Y45608D01*
X106103Y45704D01*
X105957Y45765D01*
X105800Y45785D01*
D02*
G37*
G36*
X108725Y46000D02*
X108568Y45979D01*
X108422Y45919D01*
X108297Y45822D01*
X108201Y45697D01*
X108140Y45551D01*
X108120Y45394D01*
X108140Y45238D01*
X108201Y45092D01*
X108297Y44966D01*
X108422Y44870D01*
X108568Y44810D01*
X108725Y44789D01*
X108882Y44810D01*
X109028Y44870D01*
X109036Y44876D01*
X109129Y44822D01*
X109120Y44750D01*
X109140Y44593D01*
X109201Y44447D01*
X109297Y44322D01*
X109422Y44226D01*
X109568Y44165D01*
X109725Y44145D01*
X109882Y44165D01*
X110028Y44226D01*
X110153Y44322D01*
X110249Y44447D01*
X110310Y44593D01*
X110330Y44750D01*
X110310Y44907D01*
X110249Y45053D01*
X110153Y45178D01*
X110028Y45274D01*
X109882Y45335D01*
X109725Y45355D01*
X109568Y45335D01*
X109422Y45274D01*
X109414Y45268D01*
X109321Y45322D01*
X109330Y45394D01*
X109310Y45551D01*
X109249Y45697D01*
X109153Y45822D01*
X109028Y45919D01*
X108882Y45979D01*
X108725Y46000D01*
D02*
G37*
G36*
X56665Y45330D02*
X56508Y45309D01*
X56362Y45249D01*
X56237Y45152D01*
X56141Y45027D01*
X56080Y44881D01*
X56060Y44724D01*
X56080Y44568D01*
X56141Y44422D01*
X56237Y44296D01*
X56362Y44200D01*
X56508Y44140D01*
X56665Y44119D01*
X56822Y44140D01*
X56968Y44200D01*
X57093Y44296D01*
X57189Y44422D01*
X57198Y44443D01*
X57306D01*
X57346Y44347D01*
X57442Y44221D01*
X57567Y44125D01*
X57713Y44065D01*
X57870Y44044D01*
X58027Y44065D01*
X58173Y44125D01*
X58298Y44221D01*
X58394Y44347D01*
X58455Y44493D01*
X58475Y44649D01*
X58455Y44806D01*
X58394Y44952D01*
X58298Y45077D01*
X58173Y45174D01*
X58027Y45234D01*
X57870Y45255D01*
X57713Y45234D01*
X57567Y45174D01*
X57442Y45077D01*
X57346Y44952D01*
X57337Y44931D01*
X57229D01*
X57189Y45027D01*
X57093Y45152D01*
X56968Y45249D01*
X56822Y45309D01*
X56665Y45330D01*
D02*
G37*
G36*
X54740Y45230D02*
X54583Y45209D01*
X54437Y45149D01*
X54312Y45052D01*
X54216Y44927D01*
X54155Y44781D01*
X54135Y44624D01*
X54155Y44468D01*
X54216Y44322D01*
X54312Y44196D01*
X54437Y44100D01*
X54583Y44040D01*
X54740Y44019D01*
X54897Y44040D01*
X55043Y44100D01*
X55168Y44196D01*
X55264Y44322D01*
X55325Y44468D01*
X55345Y44624D01*
X55325Y44781D01*
X55264Y44927D01*
X55168Y45052D01*
X55043Y45149D01*
X54897Y45209D01*
X54740Y45230D01*
D02*
G37*
G36*
X94995Y44805D02*
X94838Y44785D01*
X94692Y44724D01*
X94567Y44628D01*
X94471Y44503D01*
X94410Y44357D01*
X94390Y44200D01*
X94410Y44043D01*
X94471Y43897D01*
X94567Y43772D01*
X94692Y43676D01*
X94838Y43615D01*
X94995Y43595D01*
X95152Y43615D01*
X95298Y43676D01*
X95423Y43772D01*
X95519Y43897D01*
X95580Y44043D01*
X95600Y44200D01*
X95580Y44357D01*
X95519Y44503D01*
X95423Y44628D01*
X95298Y44724D01*
X95152Y44785D01*
X94995Y44805D01*
D02*
G37*
G36*
X96900Y44722D02*
X96743Y44701D01*
X96597Y44640D01*
X96472Y44544D01*
X96376Y44419D01*
X96315Y44273D01*
X96295Y44116D01*
X96315Y43960D01*
X96376Y43814D01*
X96472Y43688D01*
X96597Y43592D01*
X96743Y43532D01*
X96900Y43511D01*
X97057Y43532D01*
X97203Y43592D01*
X97328Y43688D01*
X97424Y43814D01*
X97485Y43960D01*
X97505Y44116D01*
X97485Y44273D01*
X97424Y44419D01*
X97328Y44544D01*
X97203Y44640D01*
X97057Y44701D01*
X96900Y44722D01*
D02*
G37*
G36*
X110625Y43855D02*
X110468Y43835D01*
X110322Y43774D01*
X110197Y43678D01*
X110101Y43553D01*
X110040Y43407D01*
X110020Y43250D01*
X110040Y43093D01*
X110101Y42947D01*
X110197Y42822D01*
X110322Y42726D01*
X110468Y42665D01*
X110625Y42645D01*
X110782Y42665D01*
X110928Y42726D01*
X111053Y42822D01*
X111149Y42947D01*
X111210Y43093D01*
X111230Y43250D01*
X111210Y43407D01*
X111149Y43553D01*
X111053Y43678D01*
X110928Y43774D01*
X110782Y43835D01*
X110625Y43855D01*
D02*
G37*
G36*
X95635Y43220D02*
X95478Y43199D01*
X95332Y43139D01*
X95207Y43042D01*
X95111Y42917D01*
X95050Y42771D01*
X95030Y42615D01*
X95050Y42458D01*
X95111Y42312D01*
X95207Y42187D01*
X95332Y42090D01*
X95478Y42030D01*
X95635Y42009D01*
X95792Y42030D01*
X95938Y42090D01*
X96063Y42187D01*
X96159Y42312D01*
X96220Y42458D01*
X96240Y42615D01*
X96220Y42771D01*
X96159Y42917D01*
X96063Y43042D01*
X95938Y43139D01*
X95792Y43199D01*
X95635Y43220D01*
D02*
G37*
G36*
X111234Y42320D02*
X111078Y42299D01*
X110932Y42239D01*
X110806Y42142D01*
X110710Y42017D01*
X110650Y41871D01*
X110629Y41715D01*
X110650Y41558D01*
X110710Y41412D01*
X110806Y41287D01*
X110932Y41190D01*
X111078Y41130D01*
X111234Y41109D01*
X111391Y41130D01*
X111537Y41190D01*
X111662Y41287D01*
X111758Y41412D01*
X111819Y41558D01*
X111839Y41715D01*
X111819Y41871D01*
X111758Y42017D01*
X111662Y42142D01*
X111537Y42239D01*
X111391Y42299D01*
X111234Y42320D01*
D02*
G37*
G36*
X44225Y41455D02*
X44068Y41435D01*
X43922Y41374D01*
X43797Y41278D01*
X43701Y41153D01*
X43640Y41007D01*
X43620Y40850D01*
X43640Y40693D01*
X43701Y40547D01*
X43797Y40422D01*
X43922Y40326D01*
X44068Y40265D01*
X44225Y40245D01*
X44382Y40265D01*
X44528Y40326D01*
X44653Y40422D01*
X44749Y40547D01*
X44810Y40693D01*
X44830Y40850D01*
X44810Y41007D01*
X44749Y41153D01*
X44653Y41278D01*
X44528Y41374D01*
X44382Y41435D01*
X44225Y41455D01*
D02*
G37*
G36*
X39050Y39705D02*
X38893Y39685D01*
X38747Y39624D01*
X38622Y39528D01*
X38526Y39403D01*
X38465Y39257D01*
X38445Y39100D01*
X38465Y38943D01*
X38526Y38797D01*
X38622Y38672D01*
X38747Y38576D01*
X38893Y38515D01*
X39050Y38495D01*
X39207Y38515D01*
X39353Y38576D01*
X39478Y38672D01*
X39574Y38797D01*
X39635Y38943D01*
X39655Y39100D01*
X39635Y39257D01*
X39574Y39403D01*
X39478Y39528D01*
X39353Y39624D01*
X39207Y39685D01*
X39050Y39705D01*
D02*
G37*
G36*
X40275Y38930D02*
X40118Y38910D01*
X39972Y38849D01*
X39847Y38753D01*
X39751Y38628D01*
X39690Y38482D01*
X39670Y38325D01*
X39690Y38168D01*
X39751Y38022D01*
X39847Y37897D01*
X39972Y37801D01*
X40118Y37740D01*
X40275Y37720D01*
X40432Y37740D01*
X40578Y37801D01*
X40703Y37897D01*
X40799Y38022D01*
X40860Y38168D01*
X40880Y38325D01*
X40860Y38482D01*
X40799Y38628D01*
X40703Y38753D01*
X40578Y38849D01*
X40432Y38910D01*
X40275Y38930D01*
D02*
G37*
G36*
X40375Y37605D02*
X40218Y37585D01*
X40072Y37524D01*
X39947Y37428D01*
X39851Y37303D01*
X39790Y37157D01*
X39770Y37000D01*
X39790Y36843D01*
X39851Y36697D01*
X39947Y36572D01*
X40072Y36476D01*
X40218Y36415D01*
X40375Y36395D01*
X40532Y36415D01*
X40678Y36476D01*
X40803Y36572D01*
X40899Y36697D01*
X40960Y36843D01*
X40980Y37000D01*
X40960Y37157D01*
X40899Y37303D01*
X40803Y37428D01*
X40678Y37524D01*
X40532Y37585D01*
X40375Y37605D01*
D02*
G37*
G36*
X40700Y34230D02*
X40543Y34210D01*
X40397Y34149D01*
X40272Y34053D01*
X40176Y33928D01*
X40115Y33782D01*
X40095Y33625D01*
X40115Y33468D01*
X40176Y33322D01*
X40272Y33197D01*
X40397Y33101D01*
X40543Y33040D01*
X40700Y33020D01*
X40857Y33040D01*
X41003Y33101D01*
X41128Y33197D01*
X41224Y33322D01*
X41285Y33468D01*
X41305Y33625D01*
X41285Y33782D01*
X41224Y33928D01*
X41128Y34053D01*
X41003Y34149D01*
X40857Y34210D01*
X40700Y34230D01*
D02*
G37*
G36*
X88025Y32725D02*
X87868Y32705D01*
X87722Y32644D01*
X87597Y32548D01*
X87501Y32423D01*
X87440Y32277D01*
X87420Y32120D01*
X87440Y31963D01*
X87501Y31817D01*
X87597Y31692D01*
X87722Y31596D01*
X87868Y31535D01*
X88025Y31515D01*
X88182Y31535D01*
X88328Y31596D01*
X88453Y31692D01*
X88549Y31817D01*
X88610Y31963D01*
X88630Y32120D01*
X88610Y32277D01*
X88549Y32423D01*
X88453Y32548D01*
X88328Y32644D01*
X88182Y32705D01*
X88025Y32725D01*
D02*
G37*
G36*
X48225Y30855D02*
X48068Y30835D01*
X47922Y30774D01*
X47797Y30678D01*
X47701Y30553D01*
X47640Y30407D01*
X47620Y30250D01*
X47640Y30093D01*
X47701Y29947D01*
X47797Y29822D01*
X47922Y29726D01*
X48068Y29665D01*
X48225Y29645D01*
X48382Y29665D01*
X48528Y29726D01*
X48653Y29822D01*
X48749Y29947D01*
X48810Y30093D01*
X48830Y30250D01*
X48810Y30407D01*
X48749Y30553D01*
X48653Y30678D01*
X48528Y30774D01*
X48382Y30835D01*
X48225Y30855D01*
D02*
G37*
G36*
X46634Y30804D02*
X46477Y30784D01*
X46331Y30723D01*
X46206Y30627D01*
X46110Y30502D01*
X46049Y30356D01*
X46029Y30199D01*
X46049Y30043D01*
X46110Y29897D01*
X46206Y29771D01*
X46331Y29675D01*
X46477Y29615D01*
X46634Y29594D01*
X46790Y29615D01*
X46936Y29675D01*
X47062Y29771D01*
X47158Y29897D01*
X47218Y30043D01*
X47239Y30199D01*
X47218Y30356D01*
X47158Y30502D01*
X47062Y30627D01*
X46936Y30723D01*
X46790Y30784D01*
X46634Y30804D01*
D02*
G37*
G36*
X45050Y30761D02*
X44893Y30740D01*
X44747Y30680D01*
X44622Y30584D01*
X44526Y30458D01*
X44465Y30312D01*
X44445Y30156D01*
X44465Y29999D01*
X44526Y29853D01*
X44622Y29728D01*
X44747Y29632D01*
X44893Y29571D01*
X45050Y29551D01*
X45207Y29571D01*
X45353Y29632D01*
X45478Y29728D01*
X45574Y29853D01*
X45635Y29999D01*
X45655Y30156D01*
X45635Y30312D01*
X45574Y30458D01*
X45478Y30584D01*
X45353Y30680D01*
X45207Y30740D01*
X45050Y30761D01*
D02*
G37*
G36*
X37025Y30680D02*
X36868Y30660D01*
X36722Y30599D01*
X36597Y30503D01*
X36501Y30378D01*
X36440Y30232D01*
X36420Y30075D01*
X36440Y29918D01*
X36501Y29772D01*
X36597Y29647D01*
X36722Y29551D01*
X36868Y29490D01*
X37025Y29470D01*
X37182Y29490D01*
X37328Y29551D01*
X37453Y29647D01*
X37549Y29772D01*
X37610Y29918D01*
X37630Y30075D01*
X37610Y30232D01*
X37549Y30378D01*
X37453Y30503D01*
X37328Y30599D01*
X37182Y30660D01*
X37025Y30680D01*
D02*
G37*
G36*
X34975D02*
X34818Y30660D01*
X34672Y30599D01*
X34547Y30503D01*
X34451Y30378D01*
X34390Y30232D01*
X34370Y30075D01*
X34390Y29918D01*
X34451Y29772D01*
X34547Y29647D01*
X34672Y29551D01*
X34818Y29490D01*
X34975Y29470D01*
X35132Y29490D01*
X35278Y29551D01*
X35403Y29647D01*
X35499Y29772D01*
X35560Y29918D01*
X35580Y30075D01*
X35560Y30232D01*
X35499Y30378D01*
X35403Y30503D01*
X35278Y30599D01*
X35132Y30660D01*
X34975Y30680D01*
D02*
G37*
G36*
X39140Y30333D02*
X38983Y30312D01*
X38837Y30252D01*
X38712Y30155D01*
X38616Y30030D01*
X38555Y29884D01*
X38535Y29728D01*
X38555Y29571D01*
X38616Y29425D01*
X38712Y29300D01*
X38837Y29203D01*
X38983Y29143D01*
X39140Y29122D01*
X39297Y29143D01*
X39443Y29203D01*
X39568Y29300D01*
X39664Y29425D01*
X39725Y29571D01*
X39745Y29728D01*
X39725Y29884D01*
X39664Y30030D01*
X39568Y30155D01*
X39443Y30252D01*
X39297Y30312D01*
X39140Y30333D01*
D02*
G37*
G36*
X88075Y30150D02*
X87918Y30130D01*
X87772Y30069D01*
X87647Y29973D01*
X87551Y29848D01*
X87490Y29702D01*
X87470Y29545D01*
X87490Y29388D01*
X87551Y29242D01*
X87647Y29117D01*
X87772Y29021D01*
X87918Y28960D01*
X88075Y28940D01*
X88232Y28960D01*
X88378Y29021D01*
X88503Y29117D01*
X88599Y29242D01*
X88660Y29388D01*
X88680Y29545D01*
X88660Y29702D01*
X88599Y29848D01*
X88503Y29973D01*
X88378Y30069D01*
X88232Y30130D01*
X88075Y30150D01*
D02*
G37*
G36*
X86332Y24650D02*
X86176Y24630D01*
X86030Y24569D01*
X85905Y24473D01*
X85808Y24348D01*
X85748Y24202D01*
X85727Y24045D01*
X85748Y23888D01*
X85808Y23742D01*
X85905Y23617D01*
X86030Y23521D01*
X86176Y23460D01*
X86332Y23440D01*
X86489Y23460D01*
X86635Y23521D01*
X86760Y23617D01*
X86857Y23742D01*
X86917Y23888D01*
X86938Y24045D01*
X86917Y24202D01*
X86857Y24348D01*
X86760Y24473D01*
X86635Y24569D01*
X86489Y24630D01*
X86332Y24650D01*
D02*
G37*
G36*
X85025Y24450D02*
X84868Y24430D01*
X84722Y24369D01*
X84597Y24273D01*
X84501Y24148D01*
X84440Y24002D01*
X84420Y23845D01*
X84440Y23688D01*
X84501Y23542D01*
X84597Y23417D01*
X84722Y23321D01*
X84868Y23260D01*
X85025Y23240D01*
X85182Y23260D01*
X85328Y23321D01*
X85453Y23417D01*
X85549Y23542D01*
X85610Y23688D01*
X85630Y23845D01*
X85610Y24002D01*
X85549Y24148D01*
X85453Y24273D01*
X85328Y24369D01*
X85182Y24430D01*
X85025Y24450D01*
D02*
G37*
G36*
X83000Y22895D02*
X82843Y22875D01*
X82697Y22814D01*
X82572Y22718D01*
X82476Y22593D01*
X82415Y22447D01*
X82395Y22290D01*
X82415Y22133D01*
X82476Y21987D01*
X82572Y21862D01*
X82697Y21766D01*
X82843Y21705D01*
X83000Y21685D01*
X83157Y21705D01*
X83303Y21766D01*
X83428Y21862D01*
X83524Y21987D01*
X83585Y22133D01*
X83605Y22290D01*
X83585Y22447D01*
X83524Y22593D01*
X83428Y22718D01*
X83303Y22814D01*
X83157Y22875D01*
X83000Y22895D01*
D02*
G37*
G36*
X87886Y21782D02*
X87729Y21761D01*
X87583Y21701D01*
X87458Y21605D01*
X87362Y21479D01*
X87301Y21333D01*
X87281Y21177D01*
X87301Y21020D01*
X87362Y20874D01*
X87458Y20749D01*
X87583Y20653D01*
X87729Y20592D01*
X87886Y20572D01*
X88042Y20592D01*
X88188Y20653D01*
X88314Y20749D01*
X88410Y20874D01*
X88470Y21020D01*
X88491Y21177D01*
X88470Y21333D01*
X88410Y21479D01*
X88314Y21605D01*
X88188Y21701D01*
X88042Y21761D01*
X87886Y21782D01*
D02*
G37*
G36*
X83025Y20560D02*
X82868Y20540D01*
X82722Y20479D01*
X82597Y20383D01*
X82501Y20258D01*
X82440Y20112D01*
X82420Y19955D01*
X82440Y19798D01*
X82501Y19652D01*
X82565Y19569D01*
X82588Y19497D01*
X82565Y19426D01*
X82501Y19343D01*
X82440Y19197D01*
X82420Y19040D01*
X82440Y18883D01*
X82501Y18737D01*
X82565Y18654D01*
X82588Y18583D01*
X82565Y18511D01*
X82501Y18428D01*
X82440Y18282D01*
X82420Y18125D01*
X82440Y17968D01*
X82501Y17822D01*
X82597Y17697D01*
X82722Y17601D01*
X82868Y17540D01*
X83025Y17520D01*
X83182Y17540D01*
X83328Y17601D01*
X83453Y17697D01*
X83487Y17741D01*
X83613D01*
X83647Y17697D01*
X83772Y17601D01*
X83918Y17540D01*
X84075Y17520D01*
X84232Y17540D01*
X84378Y17601D01*
X84499Y17694D01*
X84526Y17710D01*
X84599D01*
X84626Y17694D01*
X84747Y17601D01*
X84893Y17540D01*
X85050Y17520D01*
X85207Y17540D01*
X85353Y17601D01*
X85478Y17697D01*
X85540Y17778D01*
X85544Y17780D01*
X85656D01*
X85660Y17778D01*
X85722Y17697D01*
X85847Y17601D01*
X85993Y17540D01*
X86150Y17520D01*
X86307Y17540D01*
X86453Y17601D01*
X86578Y17697D01*
X86600Y17726D01*
X86700D01*
X86722Y17697D01*
X86847Y17601D01*
X86993Y17540D01*
X87150Y17520D01*
X87307Y17540D01*
X87453Y17601D01*
X87578Y17697D01*
X87674Y17822D01*
X87735Y17968D01*
X87755Y18125D01*
X87735Y18282D01*
X87674Y18428D01*
X87625Y18492D01*
X87586Y18568D01*
X87625Y18643D01*
X87674Y18707D01*
X87735Y18853D01*
X87755Y19010D01*
X87735Y19167D01*
X87674Y19313D01*
X87610Y19396D01*
X87587Y19468D01*
X87610Y19539D01*
X87674Y19622D01*
X87735Y19768D01*
X87755Y19925D01*
X87735Y20082D01*
X87674Y20228D01*
X87578Y20353D01*
X87453Y20449D01*
X87307Y20510D01*
X87150Y20530D01*
X86993Y20510D01*
X86847Y20449D01*
X86722Y20353D01*
X86626Y20228D01*
X86565Y20082D01*
X86545Y19925D01*
X86565Y19768D01*
X86626Y19622D01*
X86690Y19539D01*
X86713Y19468D01*
X86690Y19396D01*
X86626Y19313D01*
X86565Y19167D01*
X86545Y19010D01*
X86565Y18853D01*
X86626Y18707D01*
X86675Y18643D01*
X86685Y18624D01*
X86669Y18598D01*
X86649Y18588D01*
X86542Y18581D01*
X86453Y18649D01*
X86307Y18710D01*
X86150Y18730D01*
X85993Y18710D01*
X85847Y18649D01*
X85722Y18553D01*
X85660Y18472D01*
X85656Y18470D01*
X85544D01*
X85540Y18472D01*
X85478Y18553D01*
X85353Y18649D01*
X85207Y18710D01*
X85050Y18730D01*
X84893Y18710D01*
X84747Y18649D01*
X84626Y18556D01*
X84599Y18540D01*
X84526D01*
X84499Y18556D01*
X84378Y18649D01*
X84232Y18710D01*
X84075Y18730D01*
X83918Y18710D01*
X83772Y18649D01*
X83647Y18553D01*
X83614Y18510D01*
X83518Y18513D01*
X83468Y18601D01*
X83485Y18654D01*
X83549Y18737D01*
X83610Y18883D01*
X83630Y19040D01*
X83610Y19197D01*
X83549Y19343D01*
X83485Y19426D01*
X83462Y19497D01*
X83485Y19569D01*
X83549Y19652D01*
X83610Y19798D01*
X83630Y19955D01*
X83610Y20112D01*
X83549Y20258D01*
X83453Y20383D01*
X83328Y20479D01*
X83182Y20540D01*
X83025Y20560D01*
D02*
G37*
G36*
X88200Y16502D02*
X88043Y16481D01*
X87897Y16421D01*
X87772Y16325D01*
X87676Y16199D01*
X87615Y16053D01*
X87595Y15897D01*
X87615Y15740D01*
X87676Y15594D01*
X87772Y15469D01*
X87897Y15373D01*
X88043Y15312D01*
X88200Y15292D01*
X88357Y15312D01*
X88503Y15373D01*
X88628Y15469D01*
X88724Y15594D01*
X88785Y15740D01*
X88805Y15897D01*
X88785Y16053D01*
X88724Y16199D01*
X88628Y16325D01*
X88503Y16421D01*
X88357Y16481D01*
X88200Y16502D01*
D02*
G37*
G36*
Y13975D02*
X88043Y13955D01*
X87897Y13894D01*
X87772Y13798D01*
X87676Y13673D01*
X87615Y13527D01*
X87595Y13370D01*
X87615Y13213D01*
X87676Y13067D01*
X87772Y12942D01*
X87897Y12846D01*
X88043Y12785D01*
X88200Y12765D01*
X88357Y12785D01*
X88503Y12846D01*
X88628Y12942D01*
X88724Y13067D01*
X88785Y13213D01*
X88805Y13370D01*
X88785Y13527D01*
X88724Y13673D01*
X88628Y13798D01*
X88503Y13894D01*
X88357Y13955D01*
X88200Y13975D01*
D02*
G37*
G36*
X86305Y8462D02*
X86148Y8442D01*
X86002Y8381D01*
X85877Y8285D01*
X85781Y8160D01*
X85720Y8014D01*
X85700Y7857D01*
X85720Y7700D01*
X85781Y7554D01*
X85877Y7429D01*
X86002Y7333D01*
X86148Y7272D01*
X86305Y7252D01*
X86462Y7272D01*
X86608Y7333D01*
X86733Y7429D01*
X86829Y7554D01*
X86890Y7700D01*
X86910Y7857D01*
X86890Y8014D01*
X86829Y8160D01*
X86733Y8285D01*
X86608Y8381D01*
X86462Y8442D01*
X86305Y8462D01*
D02*
G37*
G36*
X84975Y8325D02*
X84818Y8305D01*
X84672Y8244D01*
X84547Y8148D01*
X84451Y8023D01*
X84390Y7877D01*
X84370Y7720D01*
X84390Y7563D01*
X84451Y7417D01*
X84547Y7292D01*
X84672Y7196D01*
X84818Y7135D01*
X84975Y7115D01*
X85132Y7135D01*
X85278Y7196D01*
X85403Y7292D01*
X85499Y7417D01*
X85560Y7563D01*
X85580Y7720D01*
X85560Y7877D01*
X85499Y8023D01*
X85403Y8148D01*
X85278Y8244D01*
X85132Y8305D01*
X84975Y8325D01*
D02*
G37*
G36*
X82950Y6770D02*
X82793Y6750D01*
X82647Y6689D01*
X82522Y6593D01*
X82426Y6468D01*
X82365Y6322D01*
X82345Y6165D01*
X82365Y6008D01*
X82426Y5862D01*
X82522Y5737D01*
X82647Y5641D01*
X82793Y5580D01*
X82950Y5560D01*
X83107Y5580D01*
X83253Y5641D01*
X83378Y5737D01*
X83474Y5862D01*
X83535Y6008D01*
X83555Y6165D01*
X83535Y6322D01*
X83474Y6468D01*
X83378Y6593D01*
X83253Y6689D01*
X83107Y6750D01*
X82950Y6770D01*
D02*
G37*
G36*
X87886Y5610D02*
X87729Y5590D01*
X87583Y5529D01*
X87458Y5433D01*
X87362Y5308D01*
X87301Y5162D01*
X87281Y5005D01*
X87301Y4848D01*
X87362Y4703D01*
X87458Y4577D01*
X87583Y4481D01*
X87729Y4421D01*
X87886Y4400D01*
X88042Y4421D01*
X88188Y4481D01*
X88314Y4577D01*
X88410Y4703D01*
X88470Y4848D01*
X88491Y5005D01*
X88470Y5162D01*
X88410Y5308D01*
X88314Y5433D01*
X88188Y5529D01*
X88042Y5590D01*
X87886Y5610D01*
D02*
G37*
%LPD*%
D163*
X61356Y58448D02*
D03*
X60900Y57463D02*
D03*
X113300Y42750D02*
D03*
X129475Y49400D02*
D03*
X111071Y61092D02*
D03*
X108450Y61125D02*
D03*
X107701Y44250D02*
D03*
X104850Y54049D02*
D03*
X96585Y55685D02*
D03*
X100500Y43550D02*
D03*
X100500Y44950D02*
D03*
Y46359D02*
D03*
Y47750D02*
D03*
X104931Y48543D02*
D03*
X98600Y41300D02*
D03*
X69750Y64200D02*
D03*
X55575Y58100D02*
D03*
X77216Y63593D02*
D03*
X90600Y62800D02*
D03*
X34170Y73171D02*
D03*
X34175Y72321D02*
D03*
X31475D02*
D03*
X31450Y75771D02*
D03*
X32370Y73171D02*
D03*
X32375Y74046D02*
D03*
X32350Y75771D02*
D03*
X32375Y72321D02*
D03*
X32370Y74921D02*
D03*
X85425Y25833D02*
D03*
X85400Y9645D02*
D03*
X33270Y74921D02*
D03*
X33275Y72321D02*
D03*
X33250Y75771D02*
D03*
X33275Y74046D02*
D03*
X33270Y73171D02*
D03*
X48213Y35500D02*
D03*
X46624Y35487D02*
D03*
X45065Y35475D02*
D03*
X42614Y34513D02*
D03*
X39140Y35357D02*
D03*
X37013Y35375D02*
D03*
X56755Y58299D02*
D03*
X57370Y50424D02*
D03*
X58608Y46574D02*
D03*
X55695Y46586D02*
D03*
X81000Y60000D02*
D03*
X78706Y49184D02*
D03*
X72101Y65850D02*
D03*
X58350Y82875D02*
D03*
X65925Y50950D02*
D03*
X53230Y44539D02*
D03*
X68525Y80175D02*
D03*
X42934Y30016D02*
D03*
X34965Y35425D02*
D03*
X83300Y84225D02*
D03*
X98200Y70125D02*
D03*
Y71200D02*
D03*
X99149D02*
D03*
X97251D02*
D03*
Y70125D02*
D03*
X104000Y71600D02*
D03*
Y70850D02*
D03*
X103826Y69425D02*
D03*
X103000Y85105D02*
D03*
X104092Y85300D02*
D03*
X107600Y71300D02*
D03*
X106293Y86273D02*
D03*
X109895Y84295D02*
D03*
X110800Y71725D02*
D03*
X57704Y86200D02*
D03*
X62600Y85700D02*
D03*
X57737Y72554D02*
D03*
X58971Y74100D02*
D03*
X62499Y70921D02*
D03*
X64343Y69497D02*
D03*
X46943Y75879D02*
D03*
X47543Y72721D02*
D03*
X113493Y44236D02*
D03*
D164*
X85646Y64900D02*
D03*
M02*
