M48
;Layer_Color=9474304
;FILE_FORMAT=4:3
METRIC,LZ
;TYPE=PLATED
T1F00S00C0.300
T2F00S00C0.500
T3F00S00C0.800
T4F00S00C0.850
T5F00S00C0.890
T6F00S00C1.000
T7F00S00C1.020
T8F00S00C1.100
T9F00S00C1.300
T10F00S00C1.350
T11F00S00C1.600
T12F00S00C3.130
;TYPE=NON_PLATED
T13F00S00C1.100
T14F00S00C1.600
T15F00S00C3.250
T16F00S00C3.500
%
T01
X00361Y001347
Y001447
Y001547
Y001647
X00391Y0014934
X00405
Y00138
X00454Y00138
Y0014934
X00468
X00882Y0015897
Y001337
X00854Y0009645
X0084975Y000772
X0086305Y0007857
X0087886Y0005005
X00871Y00038
Y0002885
Y0002
X00861
X0085
X0084025
X0082975
Y0002915
Y000383
X008295Y0006165
X0091315Y0005714
Y0008254
X008967Y0003382
X009898Y0003301
X0101125Y00038
X0101157Y0002387
X0100738Y0007007
X0101988Y0007905
X0101788Y0010795
X0100725Y001081
X0100775Y001337
X0102013Y0013705
X0104563Y0010795
X0123009Y0028691
X01265Y0028717
X0127Y0033225
X01263Y00339
X0124925Y003425
X012355
X0123405Y003747
X0125075Y003747
X01282Y003747
X0128345Y003425
X0129423Y00315
X01305
X01316
X01327
X0133828
X012012Y003425
X0120265Y003747
X0120654Y0044236
X011935Y0043925
X01181Y0043927
X0117109Y0044876
X0117129Y0046225
X0115126Y0047936
Y0051044
X0111984Y0051065
X0111901Y0054186
X0108901
X0108815Y0051011
X0108876Y0047911
X0108725Y0045394
X0109725Y004475
X0110625Y004325
X0111234Y0041715
X01133Y004275
X0113493Y0044236
X0113726Y0045625
X0112026Y0047815
X0107701Y004425
X01145Y00417
X0116279Y0042975
X0120628Y0047275
X0121209Y0049515
X0120825Y0051525
X0120125Y005275
X0120875Y005355
X011795Y0051525
X0118497Y0049672
X0115076Y0054186
X012775Y005245
X01265Y0050886
X0129475Y00494
X0104931Y0048543
X0103009Y0049522
X00999Y00506
X01005Y004775
Y0046359
Y004495
X01005Y004355
X00986Y00413
X0095635Y0042615
X0094995Y00442
X00969Y0044116
X01058Y004518
X010485Y0054049
X0096585Y0055685
X0084737Y0049733
X0080381Y00477
X0078706Y0049184
X0076996Y0050208
X00749Y004745
X00739Y0046475
X00699Y0047525
X0068375Y0048236
X0088025Y003212
X0088075Y0029545
X0085425Y0025833
X0085025Y0023845
X0086332Y0024045
X0087886Y0021177
X008715Y0019925
Y001901
Y0018125
X008615
X008505
X0084075
X0083025
Y001904
Y0019955
X0083Y002229
X0091315Y0021914
Y0020644
X009898Y0019501
X0101125Y002
X0101157Y0018587
X0101125Y0016564
X0102364Y0016539
X009898Y0016809
X010065Y002322
X0102025Y00238
X01018Y002695
X0100675Y0027017
Y0029557
X0102Y002995
X0102364Y0032739
X0101125Y0032764
X009898Y0033009
X0104675Y00269
X004897Y0028
X00479
X004785Y0027048
X0048225Y003025
X0046634Y0030199
X004505Y0030156
X0042934Y0030016
X00445Y0027625
X003914Y0029728
X0037025Y0030075
X0034975
X0036Y00278
Y00268
Y00258
Y00248
Y00238
X0032744Y0023663
Y0022663
Y0021663
Y0020663
X0031625Y002065
X003125Y0025113
X0032744Y0024663
X0027375Y003045
X0027925Y00366
X0034965Y0035425
X0037013Y0035375
X003914Y0035357
X0040375Y0037
X0040275Y0038325
X003905Y00391
X0044225Y004085
X0045065Y0035475
X0046624Y0035487
X0048213Y00355
X0042614Y0034513
X00407Y0033625
X00394Y0049873
X003925Y0051525
X0038Y0051625
X0035274
X0033975Y0051443
X003385Y0049873
X0033234Y004895
X0028744Y004905
X0029836Y005303
X0048105Y0052539
Y0053933
Y0055333
X0051045Y0051824
X0050695Y0050999
X0050845Y0050074
X0051165Y0049274
X0051765Y0048649
X005197Y0047774
X005127Y0046579
X005129Y0045394
X005323Y0044539
X005474Y0044624
X0056665Y0044724
X005787Y0044649
X0058608Y0046574
X0059505Y0048224
X005933Y0049539
X005737Y0050424
X0055695Y0046586
X0046343Y0046393
X0047184Y0045234
X006325Y0049075
X006497Y004897
X0065925Y005095
X0025045Y005301
X002165Y00535
X00201
X00209Y005235
X002165Y0051225
X00201Y0051254
X0019663Y0048925
X0016575Y00555
X0001189Y005403
Y00532
Y005235
X-000175Y0052549
X-00019Y0051626
X-0002067Y0050838
X-0002745Y00492
X-0002739Y0048389
Y0047582
Y004685
X-0003661Y0045237
Y0044418
Y00436
Y0042783
X-0004456Y00407
X-0004478Y00398
X-00045Y00389
X-0004522Y0038
X-00045Y0037136
X-0000691Y0044037
Y0044887
Y0045717
X0000132Y0047918
Y0048768
Y0049598
X-0000706Y0055117
X0011499Y00396
Y00388
Y0038
X0010632Y003596
X00097Y0035949
X0008768Y0035939
X0007836Y0035928
X002135Y0036525
X0023076Y0034076
X0022763Y0030551
Y0029226
X0023763Y0029903
X0024788Y0030551
X0024813Y0029176
X000475Y00218
X0010975Y00563
X0010825Y0058775
X000935
X001005Y005985
X0009325Y00609
X0010825Y0060925
X0014325Y0060483
X001545Y0062025
X0016675Y0062
X00222Y0062787
X0023319Y00628
Y00638
Y00648
Y00658
Y00668
X0021825Y006725
X0012525Y007645
X00249Y0086475
Y0087526
X00012Y00593
X0032141Y00704
X0032375Y0072321
X003237Y0073171
X0032375Y0074046
X003237Y0074921
X003235Y0075771
X003145
X003325
X003327Y0074921
X0033275Y0074046
X003327Y0073171
X0033275Y0072321
X0034175
X003417Y0073171
X0031475Y0072321
X0033917Y0076975
X0034737
X0035557
Y00778
Y0078525
X0036473Y0078555
Y007783
Y0077005
X0037389Y0077034
Y0077859
Y0078584
X0036593Y00798
X0035762Y00798
X0035762Y00806
X0035762Y00814
X0034923Y00814
X003425Y0080951
X003262Y0080251
X0035762Y0083
Y00838
Y00846
X0036593
X0037365
X00326Y0086649
X00316
X00306
Y00877
X00316
X00326
X00336
X0033171Y0091929
X0032171
X0031171
X0034171
X0035171
X0029402Y0090151
X0028402
Y00891
X0027402
X0029402
X0035819Y0075765
X0036925Y00757
X0036941Y0074575
X0045606Y00743
X0046943Y0075879
X004855Y0076025
X0049925
X0051725Y0076075
X00533Y0076
X0054386
X00561Y0075922
X00556Y007255
X0054475Y00726
X005545Y0070391
X0057737Y0072554
X0058971Y00741
X0062525Y00725
X0062499Y0070921
X0064343Y0069497
X0060772Y0068128
X00605Y00667
X00593Y0066
X0061356Y0058448
X00609Y0057463
X00641Y0057963
X0064655Y006145
X0056755Y0058299
X0055575Y00581
X0055682Y0056387
X005787
X005322Y0056899
X0051745
X0047984Y0069398
X0047984Y007017
X0047184Y007017
X0047184Y0069398
X0047184Y0070975
X0046384Y0070975
X0045584
X0043984
X0043184Y0070975
X0042384Y0070975
X0042384Y007017
X0042384Y0069398
X0042384Y0068567
X0047984Y0070975
X0047543Y0072721
X0046999Y008035
X0046024Y0080925
X0047825Y0084125
X0049625Y008415
X0051425Y0084177
X0053234Y008417
X0055025Y0084161
X00565Y008412
X005835Y0082875
X00593Y00838
X00598Y00865
X0057704Y00862
X00626Y00857
Y00842
X006406Y008485
X00658Y0085
X00621Y00807
X00608Y0081725
X0064325Y007585
X006615
X00523Y00772
X0052195Y0080675
X0048935Y0090275
Y0091056
Y0091819
X00481Y0091866
X0047194Y0091875
X0068325Y008465
X0068525Y0080175
X0069443Y0080936
X0071243Y008095
X0073343Y0080857
X0074843Y008095
X00778Y00806
X00784Y0084225
X0080225Y0084177
X0082025
X00833Y0084225
X00847Y0080705
X0085643Y0080973
X0087443Y0080973
X0089238Y008098
X0091043Y0080973
X0092843Y0080973
X0094643Y0080973
X0096443Y008098
X0098243Y008098
X0100025Y008417
X0103Y0085105
X0104092Y00853
X0103986Y0084129
X0104863Y008412
X0105843
X0105943Y0080837
X0103643Y008098
X0103943Y0075875
X0105743
X010515Y0072671
X0103936
X0104Y00716
Y007085
X0103826Y0069425
X0105193Y0069706
X0105625Y00668
X0102392Y0067425
X0099249Y00681
X00982Y0070125
X0097251
Y00712
X00982
X0099149
X0100975Y007165
X0100325Y0072875
X0098525
X0094925Y0072875
X009315Y0072875
X009135
X0089525
X0089Y0071539
X00853Y0071539
X0085925Y0072875
X008415
X0082325Y007285
X0080525Y0072875
X0078725
X00774Y0072775
X0074875Y00727
X0073675Y0072725
X0073325Y007585
X0071543Y00758
X0069725Y00758
X0067943Y007585
X006662Y0070921
X006975Y00642
X0071125Y00641
X0072101Y006585
X00735Y006575
X0077216Y0063593
X0077216Y0060683
X0076641Y0058963
Y0057463
X0080132Y005807
X0081Y006
X0084737Y0057183
X0084146Y0067588
X0082626Y006655
X00906Y00628
X0105373Y00615
X0105905Y00562
X01037Y00573
X010508Y00883
X0094225Y0086781
X0077188Y0085025
X0075125Y00758
X0071057Y0059818
X006792Y0058963
X00686Y00573
X0107105Y0059645
X0109743Y0059617
X0112389Y0059634
X011363Y0059645
X0114575Y0057675
X0115675Y0056725
X0112389Y005672
X0109756Y0056733
X0111071Y0061092
X010845Y0061125
X010852Y0069706
X0109754Y0069731
X01108Y0071725
Y007395
X0109748Y0075943
X0108743Y0075922
X01089Y0072671
X0107043
X010615
X01076Y00713
X010662Y0069706
X0108743Y0080837
X01097Y0082479
X0109895Y0084295
X0108134Y0086112
X0106293Y0086273
X01125Y0081974
X0116755Y0059775
X0118075Y0059
X011965Y005818
X0122675Y0057033
X0125425Y00587
X0123925Y0060725
T02
X01036Y0006795
X01036Y0014602
X01036Y0022995
X01036Y0030802
X00385Y0055121
X00226Y0048975
X0014245Y0049542
Y0050803
Y0048281
Y004702
Y0045759
Y0044533
Y0043272
Y0042046
X0013203Y00427
Y0043926
Y0045187
Y0046412
Y0047674
X001001Y0047847
Y0046586
Y0045361
Y0049131
Y0050357
Y0051618
X0011053Y0052161
Y00509
Y0049674
X0012655Y0055463
X0012437Y0037045
X0013636Y0037057
X0014855
X0016098Y0037081
X0015543Y0036076
X0014324
X0013052Y00361
X0011788
X0016786
X-0001858Y00356
X-0001872Y00343
X-0003256
X-0004439
X-0004425Y00356
X-0003241
X-000325Y00299
X-0004434
Y00286
X-000325
Y00273
X-0004434
Y002605
X-000325
Y0024842
X-0004434
X-0001867Y00286
Y00299
X0014453Y00771
X00385Y0056425
X0046882Y0060525
X0047982
X0049082Y0060525
X0049082Y0061786
X0047982Y0061786
X0046882Y0061786
X0046882Y0063047
X0047982Y0063047
X0049082Y0063047
X0049082Y0064308
X00628Y00647
X005764Y009275
X0067025
X0083063Y0092037
X0077189Y00689
X0085646Y00649
T03
X00801Y009475
X00821
X0056699Y0095975
X0054699
T04
X00022Y00084
X00057Y00084
X00003Y00323
X-00032
T05
X012094Y0023525
X012348
X012602
X012856
X012729Y0026065
X012475
X012221
X012983
T06
X002685Y0016325
X002885
X0111034Y0016525
Y0018525
Y0020525
Y0022525
X0110934Y0029475
Y0031475
Y0033475
Y0035475
X0040433Y007866
X0040433Y00812
X0040433Y008628
X0040433Y008882
X0040433Y009136
X00903Y0090769
X00923Y0090769
X00943
X006606Y0095975
X006406
T07
X0118655Y0012605
X0121195
X0129575
X0132115
T08
X0011575Y0022675
X0015075
T09
X0112934Y0014525
X0112834Y0027475
X003085Y0018225
X00883Y0088869
X006806Y0097875
T10
X00841Y009665
X0058699Y0097875
T11
X011764Y0020225
X013313
T12
X0013325Y0014765
T13
X0111093Y00784
T14
X0044293Y00784
T15
X011967Y0017175
X01311
T16
X-0001751Y0013526
X0021563Y0010086
X0111063
X0024463Y0058448
X0008017Y0068926
X0073239Y0099793
M30
