M48
;Layer_Color=9474304
;FILE_FORMAT=4:3
METRIC,LZ
;TYPE=PLATED
T1F00S00C0.300
T2F00S00C0.500
T3F00S00C0.700
T4F00S00C0.800
T5F00S00C0.850
T6F00S00C0.900
T7F00S00C1.000
T8F00S00C1.300
T9F00S00C1.350
T10F00S00C1.400
T11F00S00C1.600
T12F00S00C3.400
;TYPE=NON_PLATED
T13F00S00C1.100
T14F00S00C1.600
T15F00S00C3.250
%
T01
X0009275Y0009321
X0010575Y0010475
X0011725Y0009375
X001295Y0010475
X0014275Y0009339
X00319Y0007785
X0034146Y0010507
X0034921Y0011311
X0034146Y0012108
X0034146Y0013097
X0034921Y00139
X0034146Y0014697
X0037725Y001545
X0039528Y0017225
X00405Y0016425
X00416Y0016436
X004415Y0017038
X004545Y0017022
X0045468Y0018979
X0044168
X0044818Y00216
X0046125
X0045449Y0028075
X004415
X0044157Y003
X0045457
X00403Y0026783
Y0025194
X0039145Y0025975
X0038Y002675
Y00252
X0037725Y0019047
X0034169Y0021375
X003Y0021325
X0028595Y0014787
X0038475Y0010591
X003765Y0009747
X003935
X004045Y0009749
X0041275Y0010597
X004215Y0009716
X004295Y00127
X0040025Y0006852
X004975Y0026525
X0064025Y0024647
X0065335Y0024647
Y0022725
X0064025
X0064675Y0020075
X0063375
X0068772Y0020225
X006961Y0019392
X0070623Y0019342
X0071475Y0020232
X0070625Y0021117
X0069625
X0067225Y0027458
X0076467Y002515
X0077483Y0025175
X0078514
X0079544
X0080575
X0080818Y0024175
X0081571Y002245
X0082601
X008335Y0024175
X0083625Y0025175
X008513Y0029375
X0077775Y002885
X007725Y0029525
X0089655Y002635
X00897Y0021689
X0096056Y002165
X009608Y002635
X010243Y002645
X0102442Y0027225
X0104275Y002846
X0100516
X010242Y0021775
X010875Y0021725
X010873Y00264
X0123511Y0025869
X0125042Y0027119
Y0028394
X0122711Y0029644
X0123507Y0022187
X0124986Y0022107
X0124246Y0019125
X0122486Y0018297
X01212Y0017525
X0121125Y0020175
X012225
X0125011Y0017044
X0125005Y0015794
X0123307Y001335
X0120075Y0011425
X0118081Y0015875
X01171Y0016
X0116256Y0016875
X01171Y0017825
X0118081Y001785
X0118981Y0016875
X0126979Y0011475
X0131825Y0011732
X0137667Y0015757
X0137643Y0017044
X0138156Y00178
X0138989Y0020206
X0138161Y0022575
X0140675Y00233
X0140661Y0024875
X0137643Y0027119
X013765Y0028344
X0138088Y0029129
X013895Y0031485
X0138078Y003395
X0140439Y0034875
X014045Y0036495
X014095Y0039275
X0141622Y004045
X0144175Y003765
X0137167Y0038443
X0134981Y003845
X0133354Y0040075
X0133972Y0041875
X013257Y0041862
X01324Y004818
X013245Y004995
X01316Y0050775
X0128847Y00508
X0128835Y004828
X013005Y0048275
X0135325Y004995
X0137171Y0048552
X0141622Y00479
X01493Y00413
X0131575Y005375
X0132396Y005845
X0132025Y0060768
X0132125Y0061874
X0129432Y0062506
X0129531Y006105
Y005825
X0134721Y0058075
X0136832Y0060225
X0136432Y0062475
X0137025Y0063425
X0137716Y00642
X0138473Y00649
X0139178Y0065675
X0139922Y006639
X0140157Y00675
X0140925Y0068228
X013405Y0064425
X0134467Y0063475
X012775Y006254
X012505Y0063687
X0120052Y0063607
Y00626
Y0061595
X01146Y006175
Y006075
Y0059775
Y0058775
X0111575Y005872
Y005672
Y005572
Y005472
X01084Y0054732
Y0055735
Y0056975
X0107265Y0057491
X0107265Y0058509
Y0059497
X0108412Y005872
X0108415Y0060975
X0108412Y0061975
X0108415Y0063144
Y0064413
X01082Y006715
X0104006Y0066439
X0102168Y006725
X0100135Y0067225
X0099237
X0098235Y00672
X0097197Y0067225
X009539Y0066446
X0092915Y0065757
X009294Y0063569
X0092888Y0061095
X0092565Y0059052
X0090815Y0058254
X0090975Y005649
X009098Y0053975
X009204Y0053969
X009302Y0053975
X009404Y0053532
X0094043Y0054557
X0093815Y005575
X0095943Y0057457
Y0060566
X0099085Y0060587
X0099168Y0063707
X0102168
X010485Y0063837
X0104701Y005951
X0104676Y0058491
X0104665Y0057497
X0102193Y0057432
X0102254Y0060532
X0099043Y0057337
X0097343Y0055147
X0096603Y0054532
X0096643Y005352
X009804Y0053769
X00977Y005129
X009645Y00513
X0095445
X009447Y0051475
X0093475Y00513
X00922Y0051275
X009045Y005129
X0089455Y005127
Y004825
X009045
X0093955
X00947Y0047625
X0095445Y004825
X0099444Y004814
X0100445Y0048165
Y005129
X0099444
X0101206Y0053757
Y0054782
X0102068Y0054182
X0103093
X01084Y0053475
Y0051975
X010745Y0051275
X010645
X01062Y0048275
X01077Y004825
X0113575Y0048495
X0115197Y0048475
X0116475Y0047775
X0118025Y004865
X01198Y0049463
X0120825Y0049425
X01238
X01239Y0048497
X0124705Y004718
X0124646Y004565
X0125925Y0042525
X012735
X0123116Y00398
X012225Y003905
X0119575Y003876
X0120125Y004035
Y0042925
X01177Y0043136
X0116775Y0045325
X01201Y004565
X0115725Y0041775
X011575Y0038775
X0117675Y003735
X0123311Y00371
Y0033494
X012485Y0033475
X01245Y0030475
X0108775Y003285
X0104483Y00315
X0102424Y00329
X010045Y003151
X0096081Y0032875
X0096007Y0038805
X0097649Y0039438
X0099247Y0038812
X0100852Y0037757
X0102488Y0038737
X0104119Y0039307
X0105746Y0038729
X0107376Y00377
X0109014Y0038718
X011068Y00393
X01123Y0041856
X010905Y004185
X0105744Y0041907
X0102494Y0041895
X0099278Y0041993
X0096034Y0041963
X00928Y0041951
X009276Y0038812
X0091184Y0039401
X0089544Y0038813
X0089554Y0041951
X009439Y0037787
X008972Y003285
X0090402Y0061095
X0090365Y0063566
X009034Y0064691
Y0065757
X0095993Y0063707
X01116Y0064363
Y00653
X0111575Y0062975
Y0061975
X011635Y00651
Y0066075
X011675Y0067625
X0117877Y0067346
X0118902Y006735
X0113925Y0069425
X0118902Y0056035
X01189Y0054765
X0122Y0055969
X01235Y0054625
X0123175Y0053225
X0126097Y005365
X0127829Y0053979
X0127821Y004915
X01264Y004905
X012565Y00498
X0126097Y0050825
X010689Y0056407
X00877Y0058275
X0086675Y005819
X0085955Y0059
X0083412Y0057972
X0084165Y0056862
Y0055862
X008165Y0055737
Y0054725
Y0053475
Y0051975
X0082455Y0051275
X0083455
Y0048255
X0082455Y004825
X008595Y004785
X008695
X0087216Y005165
X0086216
X008165Y0056975
Y005874
X0081638Y0061
Y0061975
Y006315
X008165Y0064175
X0081638Y006523
X0081775Y0066175
X008328Y00676
X00772Y006719
Y006619
X0078425Y006523
Y006423
X0078414Y00632
Y0061975
X007845Y005874
X0075375Y00587
Y00597
Y00607
Y00617
X007655Y00636
X0075042Y00651
X0073525Y006355
X0074167Y00695
X007Y006935
X00685Y0069325
X00685Y006777
X0067425Y0065675
X006541Y006675
X006411
X0064114Y006852
X006541Y0068525
X006476Y0064107
X006346Y0064107
X0063955Y0057649
X0065255Y0057674
X0065255Y0055749
X0063955
X0064596Y0053149
X0063305
X0063969Y0046649
X006527
X0065275Y0044725
X0063975
X0064625Y0042074
X0063319Y0042075
X0064025Y0035575
X0065325
X0065335Y0033725
X0064025
X0064675Y0031125
X0063375Y0031125
X0067125Y0036575
X0067525Y0049805
X0067499Y0060374
X0049807Y0048758
X004985Y0037757
X007927Y003485
X0080305Y003505
X008132
X0082376Y003485
X0083432
Y0032375
X008132Y0032606
X00803Y00326
X0078Y003275
X0077625Y0032
X007725Y0031225
Y0030375
X0078369Y0033525
X0082675Y0030395
X008515Y00304
X008513Y003145
X0086308Y0038788
X0087919Y0037838
X0045455Y0039074
X0044155Y0039124
X0044162Y0040999
X0045457
X0046105Y0043599
X0044805
X0045455Y005006
X0044155
Y0051949
X0045462Y0051945
X004611Y0054649
X0044803Y0054642
X0045432Y006105
X0044125Y0061062
X0044137Y0063006
X004545
X0046075Y00657
X0044775Y0065675
X0041975Y0061075
X00399Y0059236
X003725Y005886
X00373Y0056817
X0035964Y0054425
X0037179Y0052675
X0039225Y0050325
X00373Y0047925
X00361Y0044997
X00389Y0045
X00388Y0038225
X003625
X0036175Y003525
X00375Y0035725
X0035025Y0034153
X0033821Y003525
X0029825Y0034625
Y003285
X0023125Y0032851
X00213Y0032883
X0019155Y00329
X00177Y0033647
X0015825Y0033024
X0019925Y0035035
X00229Y00347
X0019959Y0039554
X0017725Y004095
X0015475Y003957
X0022025Y0047625
X0023022
Y005209
X002305Y0053065
X0022007Y0052083
X00251Y0053679
Y00553
X0026276Y0054485
X0027465Y00553
X002745Y005365
X0027425Y0049557
X0027408Y0048562
X00276Y0059375
X00291
X0030125Y0058425
X0027661Y006175
X0023278Y0061771
X0024625Y005945
X002465Y0064075
X0023425Y006645
X0018255Y0066125
X00159Y0065825
X0015775Y006415
X0016958
X0017025Y00676
X0018375Y0069125
X00343Y00671
Y00658
Y00643
X0035997Y0063315
X003775Y0061025
X0039528Y00321
X003978Y0030225
X00448Y003265
X0046107
X0045725Y00711
X0033425Y0072075
Y00737
X0032264Y0072917
X00311Y007215
Y0073725
X0029071Y0071331
X0028181Y0078425
X00305Y007965
X0032694Y0079625
X0034907Y0079675
X0032775Y0077275
X0032694Y008295
X00305Y0084275
X0035
X0037376Y0082984
X0039325Y008275
Y00864
X003694Y0089075
X0048525Y00876
X0048214Y009455
X002265Y007645
X002145Y00749
X00211Y0074
X001985Y007245
X0019688Y0071561
X0018462Y007005
X0051243Y0071748
X0052339Y007295
X0051237Y00741
X0051268Y0079423
X0052364Y0080625
X0051262Y0081775
X0052114Y008335
X0050311
X005035Y0086832
X00504Y0088574
X0051814Y0091485
X0053614Y00915
X0055414Y0091485
X0057214Y00915
X0057475Y0089975
X0059025Y00914
X00588Y00957
X0059825Y0095675
X0057814Y00948
X0056825
X0052364
X0051214Y0094775
X005Y0094575
X00539Y008635
X0055429Y0086375
X0057514Y00864
X005915Y0086525
X0060175
X00644Y0086375
X006495Y0087425
X0064275Y00883
X0065975Y0088366
X006565Y0089483
X0067157Y0088875
X006745Y00903
X0069214Y0091085
X0070427Y00911
X00722Y00903
X0073575Y0090863
X00763Y00899
X00768Y00889
X0077175Y0091113
X007957Y0091125
X0080525Y00889
X0079625Y00868
X0079125Y0083325
X0080925
X0082714
X0082925Y00823
X00819Y0082325
X0080551Y0081133
X0079525Y0081125
X007815Y0079275
X0077329Y0077513
X0078325Y0075275
X0078309Y0074175
X007843Y0073218
X00772Y0072356
Y0071331
X0074167Y00705
X0071737Y0070295
X0070714Y0072657
X0069272Y0072297
X0062694Y0072075
X0058025Y0074225
X0053875Y00709
X006685Y00795
X0066807Y0081568
X0066825Y0083303
X0068314Y0083325
X0069825Y0083325
X007225
X0073725Y0083336
X0075525Y0083325
X0077329Y0083336
X0084514Y0083325
X0086314
X0088125
X0086193Y00812
X0083194Y0078225
X00815Y0074475
Y00735
X0081504Y0072475
X0081505Y0071476
X0080625Y009448
X0079125Y0094775
X0076725
X0075214Y0094561
X0073414Y00946
X00719Y0094735
X0069814Y0094675
X0067714Y00947
X0066214Y0094606
X0064565Y0095675
X006354
X006325Y008995
X0067863Y0087575
X0068975Y00865
X0070663
X007175Y0087586
X0064414Y00832
X0082414Y0094525
X0083925Y00948
X0086325Y0094784
X0087814Y0094525
X0089614Y0094506
X0091414Y0094525
X00932Y0094567
X0095014Y0094606
X0096835Y0094567
X0098625Y009455
X01001Y0094735
X0100825Y0095275
X0101825
X010255Y0094725
X010245Y0091355
X010345
X010145
X0100445
X009945Y0091352
X009845Y0091355
X009745Y0091352
X0096425
X0095445Y0091355
X009445Y0091346
X009345Y0091355
X009245Y0091346
X0091435Y009135
X009045Y0091346
X0089455
X0091714Y0086289
X0093514Y0086325
X0095335Y00863
X0097125
X0097435Y00812
Y0078175
X0100714Y0083325
X0102514Y00833
X010595Y0083255
X0105425Y008255
X0106464Y0082536
X01073Y0083125
X0108275Y0083075
X0109325
X0110325
X0111299
X01112Y00866
X0110295Y0086575
X0109375
X0108299Y0086525
X0107325
X01063Y0086475
X010445Y0089125
X0106114Y0091475
X010733Y00915
X010825Y0091312
X0109225Y0091325
X0110281
X011132
Y0094775
X01103
X0109195Y0094825
X0108225Y00948
X0107314Y00946
X0106114
X0104595Y0097864
X0103475Y00978
X010925Y009715
X0117338Y0092188
X0118177Y0092775
X0118775Y00914
X0116875Y009045
X0119275Y0080851
X0119007Y0076675
X0117737
X0116467
X0115197
X0113918Y007415
X0112975Y0074062
Y0073
X0121675Y0073325
X0122415Y007405
X01231Y0074978
X01223Y0075754
X0125457Y0075887
X0126845Y007525
X0126425Y0078225
X0125675Y0079025
X0127125Y0079275
X01266Y00816
X0108Y0081133
X01072Y0078231
X0106325Y0078225
X0092925Y0082725
X0091902Y00827
X0128773Y0083742
X013125Y0083325
X01315Y0080825
X0129425Y00788
X012855Y0077085
X0140375Y0070725
T02
X0006542Y0001
X0007695
X0008847
X0008505Y00022
X0007353
X00062
X000573Y00035
X0006883
X0008035
X0007693Y00047
X0008845
X0008403Y00059
X000725
X0006098
X0004945
X0004603Y00071
X0005755
X0006908
X000806
X0007618Y00083
X0006466
X0005313
X000416
X0003818Y00095
X0004971
X0006123
X0007276
X0006933Y00107
X0005781
X0004628
X0003476
X0003133Y00119
X0004286
X0005438
X0006591
X0006248Y00131
X0005096
X0003943
X0002791
X0002548Y00143
X0003701
X0004854
X0006006
X0005764Y00155
X0004611
X0003459
X0002306
X0002064Y00167
X0003216
X0004369
X0005521
X0005379Y00179
X0004226
X0003074
X0001921
X0001779Y00191
X0002931
X0004084
X0005236
X0005094Y00203
X0003941
X0002789
X0001636
X0001494Y00215
X0002647
X0003799
X0004952
X0004809Y00227
X0003657
X0002504
X0001352
X0001209Y00239
X0002362
X0003514
X0004667
X0004624Y00251
X0003472
X0002319
X0001167
X0001024Y00263
X0002177
X0003329
X0004482
X000454Y00275
X0001082
X0005388Y00047
X000654
X0009188Y00035
X0009658Y00022
X001Y0001
X01501
X0151253
X0152405
X0153558
X01539Y00022
X0152747
X0151595
X0150442
X0150912Y00035
X0152065
X0153217
X015437
X0154712Y00047
X015356
X0152407
X0151255
X0151697Y00059
X015285
X0154002
X0155155
X0155497Y00071
X0154345
X0153192
X015204
X0152482Y00083
X0153634
X0154787
X015594
X0156282Y00095
X0155129
X0153977
X0152824
X0153167Y00107
X0154319
X0155472
X0156624
X0156967Y00119
X0155814
X0154662
X0153509
X0153852Y00131
X0155004
X0156157
X0157309
X0157552Y00143
X0156399
X0155246
X0154094
X0154336Y00155
X0155489
X0156641
X0157794
X0158036Y00167
X0156884
X0155731
X0154579
X0154721Y00179
X0155874
X0157026
X0158179
X0158321Y00191
X0157169
X0156016
X0154864
X0155006Y00203
X0156158
X0157311
X0158464
X0158606Y00215
X0157453
X0156301
X0155148
X0155291Y00227
X0156443
X0157596
X0158748
X0158891Y00239
X0157738
X0156586
X0155433
X0155476Y00251
X0156628
X0157781
X0158933
X0159076Y00263
X0157923
X0156771
X0155618
X015556Y00275
X0159018
X0159018Y00324
X0159076Y00336
X0157923Y00336
X0156771Y00336
X0155618Y00336
X015556Y00324
X0155476Y00348
X0156628Y00348
X0157781
X0158933Y00348
X0158891Y0036
X0157738Y0036
X0156586Y0036
X0155433
X0155291Y00372
X0156443Y00372
X0157596Y00372
X0158748Y00372
X0158606Y00384
X0157453Y00384
X0156301Y00384
X0155148Y00384
X0155006Y00396
X0156158Y00396
X0157311
X0158464
X0158321Y00408
X0157169Y00408
X0156016Y00408
X0154864Y00408
X0154721Y0042
X0155874
X0157026
X0158179Y0042
X0158036Y00432
X0156884Y00432
X0155731Y00432
X0154579Y00432
X0154336Y00444
X0155489Y00444
X0156641Y00444
X0157794Y00444
X0157552Y00456
X0156399Y00456
X0155246Y00456
X0154094
X0153852Y00468
X0155004Y00468
X0156157Y00468
X0157309Y00468
X0156967Y0048
X0155814Y0048
X0154662
X0153509Y0048
X0153167Y00492
X0154319Y00492
X0155472Y00492
X0156624Y00492
X0156282Y00504
X0155129Y00504
X0153977Y00504
X0152824Y00504
X0152482Y00516
X0153634Y00516
X0154787Y00516
X015594Y00516
X0155497Y00528
X0154345
X0153192Y00528
X015204Y00528
X0151697Y0054
X015285Y0054
X0154002Y0054
X0155155Y0054
X0154712Y00552
X015356Y00552
X0152407Y00552
X0151255Y00552
X0150912Y00564
X0152065Y00564
X0153217Y00564
X015437Y00564
X01539Y00577
X0152747Y00577
X0151595Y00577
X0150442Y00577
X01501Y00589
X0151253Y00589
X0152405Y00589
X0153558Y00589
X0153015Y00601
X0151863Y00601
X015071Y00601
X0149558Y00601
X0149015Y00613
X0150168Y00613
X015132Y00613
X0152473Y00613
X015193Y00625
X0150778Y00625
X0149625Y00625
X0148473Y00625
X014793Y00637
X0149083Y00637
X0150235Y00637
X0151388Y00637
X0150746Y00649
X0149593Y00649
X0148441Y00649
X0147288Y00649
X0147798Y00661
X0148951Y00661
X0150103Y00661
X0149461Y00673
X0146646Y00661
X0144655Y0069548
X0015445
X0013454Y00661
X0012302Y00661
X0011149Y00661
X0009997Y00661
X0010507Y00649
X0011659Y00649
X0012812Y00649
X001217Y00637
X0011017Y00637
X0009865Y00637
X0009354Y00649
X0009322Y00625
X0010475Y00625
X0011627Y00625
X0011085Y00613
X0009932Y00613
X000939Y00601
X0010542Y00601
X001Y00589
X0009658Y00577
X0009188Y00564
X0010639Y00673
X0008712Y00637
X000817Y00625
X0007627Y00613
X000878Y00613
X0008237Y00601
X0007085Y00601
X0006542Y00589
X0007695Y00589
X0008847Y00589
X0008505Y00577
X0007353Y00577
X00062Y00577
X000573Y00564
X0006883Y00564
X0008035Y00564
X0007693Y00552
X000654Y00552
X0005388Y00552
X0004945Y0054
X0006098Y0054
X000725Y0054
X0008403Y0054
X000806Y00528
X0006908Y00528
X0005755Y00528
X0004603
X000416Y00516
X0005313Y00516
X0006466Y00516
X0007618Y00516
X0007276Y00504
X0006123Y00504
X0004971Y00504
X0003818Y00504
X0003476Y00492
X0004628Y00492
X0005781Y00492
X0006933Y00492
X0006591Y0048
X0005438Y0048
X0004286
X0003133Y0048
X0002791Y00468
X0003943Y00468
X0005096Y00468
X0006248Y00468
X0006006Y00456
X0004854
X0003701Y00456
X0002548Y00456
X0002306Y00444
X0003459Y00444
X0004611Y00444
X0005764Y00444
X0005521Y00432
X0004369Y00432
X0003216Y00432
X0002064Y00432
X0001921Y0042
X0003074Y0042
X0004226
X0005379
X0005236Y00408
X0004084Y00408
X0002931Y00408
X0001779Y00408
X0001636Y00396
X0002789
X0003941
X0005094Y00396
X0004952Y00384
X0003799Y00384
X0002647Y00384
X0001494Y00384
X0001352Y00372
X0002504Y00372
X0003657Y00372
X0004809Y00372
X0004667Y0036
X0003514
X0002362Y0036
X0001209Y0036
X0001167Y00348
X0002319Y00348
X0003472
X0004624Y00348
X0004482Y00336
X0003329Y00336
X0002177Y00336
X0001024Y00336
X0001082Y00324
X000454Y00324
X0008845Y00552
X0012999Y0071386
X0014293Y0071545
X0015587Y0071703
X0016881Y0071861
X0016305Y0072859
X0017649Y0072931
X0017073Y0073929
X0015729Y0073857
X0014435Y0073699
X0015011Y0072701
X0013717Y0072543
X0014869Y0070547
X0016163Y0070705
X0016497Y0074927
X0017841Y0074999
X0019186Y007507
X0018609Y0076068
X0019954Y007614
X0019377Y0077138
X0018033Y0077067
X0016689Y0076995
X0017265Y0075997
X0015921Y0075925
X0015153Y0074855
X0018417Y0074001
X0018801Y0078136
X0017457Y0078065
X0018225Y0079134
X0019669Y0079033
X0021136Y0079092
X002258Y007899
X0022004Y0079988
X0023399Y0079973
X0022822Y0080971
X0021428Y0080986
X0019984Y0081088
X002056Y008009
X0019093Y0080031
X0020245Y0078035
X0021712Y0078094
X0020822Y0077037
X0020852Y0081984
X0022246Y0081969
X002369Y0081868
X0025085Y0081853
X0024508Y0082851
X0023114Y0082866
X002167Y0082968
X0022538Y0083864
X0023932Y0083849
X0025376Y0083748
X0026821Y0083646
X0026244Y0084644
X0027689Y0084542
X0027112Y0085541
X0025668Y0085642
X0024224Y0085744
X00248Y0084746
X0023356Y0084847
X0025092Y008664
X0026536Y0086539
X002798Y0086437
X0027404Y0087435
X002596Y0087537
X0026828Y0088433
X0028322Y0088245
X0028898Y0087247
X0029475Y0086249
X0030393Y0087059
X0029816Y0088057
X002924Y0089055
X0028664Y0090053
X0030158Y0089865
X0029582Y0090863
X003055Y0091586
X0031126Y0090588
X0031703Y008959
X0032279Y0088592
X0031311Y0087869
X0030735Y0088867
X0033247Y0089315
X0032671Y0090314
X0032094Y0091312
X0031518Y009231
X0032486Y0093033
X0033062Y0092035
X0033639Y0091037
X0034215Y0090039
X0035183Y0090762
X0034607Y009176
X003403Y0092758
X0033454Y0093756
X0034422Y009448
X0034998Y0093482
X0035575Y0092484
X0036151Y0091485
X0037119Y0092209
X0036543Y0093207
X0035966Y0094205
X003539Y0095203
X0036408Y009584
X0036984Y0094842
X0037561Y0093844
X0038137Y0092845
X0039105Y0093569
X0038529Y0094567
X0037952Y0095565
X0037376Y0096563
X0038444Y0097113
X0040173Y0094119
X0044417Y0096569
X0045427Y0097219
X0044851Y0098217
X0044275Y0099215
X0043698Y0100213
X0044809Y010069
X0045385Y0099692
X0045961Y0098694
X0046537Y0097696
X0047598Y0098259
X0047022Y0099257
X0046445Y0100255
X0045869Y0101253
X004698Y010173
X0047556Y0100732
X0048132Y0099734
X004809Y0102206
X0042688Y0099563
X0027746Y0089243
X0028557Y0085439
X0025953Y0082749
X0024267Y008087
X0048708Y0098735
X0049819Y0099212
X0049243Y010021
X0048666Y0101208
X0049777Y0101685
X00492Y0102683
X0050311Y010316
X0050887Y0102162
X0051463Y0101164
X005204Y0100165
X005315Y0100642
X0052574Y010164
X0051998Y0102638
X0051421Y0103636
X0052532Y0104113
X0053692Y0104503
X0054853Y0104893
X0056013Y0105283
X0057223Y0105587
X0058434Y010589
X0059644Y0106194
X0060855Y0106497
X0062115Y0106714
X0063326Y0107018
X0064586Y0107234
X0065796Y0107538
X0066373Y010654
X0065162Y0106236
X0063902Y0106019
X0062691Y0105716
X0061431Y0105499
X0060221Y0105196
X005901Y0104892
X00578Y0104589
X0056589Y0104285
X0055429Y0103895
X0054268Y0103505
X0053108Y0103115
X0053684Y0102117
X0054845Y0102507
X0056005Y0102897
X0057166Y0103287
X0058376Y0103591
X0059586Y0103894
X0060797Y0104198
X0062007Y0104501
X0063268Y0104718
X0064478Y0105021
X0065739Y0105238
X0066949Y0105542
X0067525Y0104544
X0066315Y010424
X0065054Y0104023
X0063844Y010372
X0062584Y0103503
X0061373Y0103199
X0060163Y0102896
X0058952Y0102592
X0057742Y0102289
X0056581Y0101899
X0055421Y0101509
X0054261Y0101119
X0050353Y0100687
X0050929Y0099689
X0068886Y0104787
X0070096Y010509
X0071407Y010522
X0072717Y0105351
X0074028Y0105481
X0075338Y0105611
X0076699Y0105655
X0078059Y0105699
X0077483Y0106697
X0076122Y0106653
X0074762Y0106609
X0073452Y0106479
X0072141Y0106349
X0070831Y0106218
X006952Y0106088
X006831Y0105785
X0067734Y0106783
X0068944Y0107086
X0070254Y0107217
X0071565Y0107347
X0072875Y0107477
X0074186Y0107607
X0075546Y0107651
X0076907Y0107695
X007633Y0108693
X0077691Y0108737
X007497Y0108649
X0073609Y0108606
X0072299Y0108475
X0070989Y0108345
X0069678Y0108215
X0068368Y0108084
X0067157Y0107781
X0083194Y0107695
X0084554Y0107651
X0085914Y0107607
X0087225Y0107477
X0086649Y0106479
X0087959Y0106349
X0087383Y0105351
X0086072Y0105481
X0084762Y0105611
X0083401Y0105655
X0082041Y0105699
X0082617Y0106697
X0083978Y0106653
X0085338Y0106609
X008513Y0108649
X0086491Y0108606
X0087801Y0108475
X008377Y0108693
X0082409Y0108737
X0089111Y0108345
X0090422Y0108215
X0091732Y0108084
X0092943Y0107781
X0092367Y0106783
X0091156Y0107086
X0089846Y0107217
X0088535Y0107347
X0089269Y0106218
X009058Y0106088
X009179Y0105785
X0091214Y0104787
X0090004Y010509
X0088693Y010522
X0092575Y0104544
X0093785Y010424
X0095046Y0104023
X0096256Y010372
X0097516Y0103503
X0098727Y0103199
X0099937Y0102896
X0101148Y0102592
X0102358Y0102289
X0103519Y0101899
X0104679Y0101509
X010584Y0101119
X0106416Y0102117
X0105255Y0102507
X0104095Y0102897
X0102934Y0103287
X0101724Y0103591
X0100514Y0103894
X0099303Y0104198
X0098093Y0104501
X0096832Y0104718
X0095622Y0105021
X0094361Y0105238
X0093151Y0105542
X0093727Y010654
X0094938Y0106236
X0096198Y0106019
X0097409Y0105716
X0098669Y0105499
X0099879Y0105196
X010109Y0104892
X01023Y0104589
X0103511Y0104285
X0104671Y0103895
X0105832Y0103505
X0106992Y0103115
X0107568Y0104113
X0106408Y0104503
X0105247Y0104893
X0104087Y0105283
X0102877Y0105587
X0101666Y010589
X0100456Y0106194
X0099245Y0106497
X0097985Y0106714
X0096774Y0107018
X0095514Y0107234
X0094304Y0107538
X0108679Y0103636
X0108102Y0102638
X0107526Y010164
X010695Y0100642
X010806Y0100165
X0108637Y0101164
X0109213Y0102162
X0109789Y010316
X01109Y0102683
X0110323Y0101685
X0109747Y0100687
X0109171Y0099689
X0110281Y0099212
X0110858Y010021
X0111434Y0101208
X011201Y0102206
X011312Y010173
X0112544Y0100732
X0111968Y0099734
X0111392Y0098735
X0112502Y0098259
X0113078Y0099257
X0113655Y0100255
X0114231Y0101253
X0115291Y010069
X0114715Y0099692
X0114139Y0098694
X0113563Y0097696
X0114673Y0097219
X0115249Y0098217
X0115826Y0099215
X0116402Y0100213
X0117412Y0099563
X0115683Y0096569
X0121656Y0097113
X0122724Y0096563
X0122148Y0095565
X0121571Y0094567
X0120995Y0093569
X0119927Y0094119
X0122539Y0093844
X0123116Y0094842
X0123692Y009584
X012471Y0095203
X0124134Y0094205
X0123557Y0093207
X0122981Y0092209
X0121963Y0092845
X0124525Y0092484
X0125102Y0093482
X0125678Y009448
X0126646Y0093756
X012607Y0092758
X0125493Y009176
X0124917Y0090762
X0123949Y0091485
X0126461Y0091037
X0125885Y0090039
X0126853Y0089315
X0127429Y0090314
X0128006Y0091312
X0127038Y0092035
X0127614Y0093033
X0127821Y0088592
X0128397Y008959
X0128974Y0090588
X012955Y0091586
X0128582Y009231
X0130518Y0090863
X0129942Y0089865
X0129365Y0088867
X0128789Y0087869
X0130284Y0088057
X013086Y0089055
X0131436Y0090053
X0132354Y0089243
X0131778Y0088245
X0131202Y0087247
X0130625Y0086249
X013212Y0086437
X0133564Y0086539
X0135008Y008664
X0134432Y0085642
X0132988Y0085541
X0131543Y0085439
X0132411Y0084542
X0133856Y0084644
X01353Y0084746
X0136744Y0084847
X0136168Y0083849
X0137562Y0083864
X0136986Y0082866
X0135592Y0082851
X0134147Y0082749
X0134724Y0083748
X0133279Y0083646
X0135015Y0081853
X013641Y0081868
X0137854Y0081969
X0139248Y0081984
X0138672Y0080986
X0137278Y0080971
X0135833Y008087
X0136701Y0079973
X0138096Y0079988
X013954Y008009
X0141007Y0080031
X0140431Y0079033
X0138964Y0079092
X013752Y007899
X0138388Y0078094
X0139855Y0078035
X0141299Y0078136
X0142643Y0078065
X0142067Y0077067
X0140723Y0077138
X0139278Y0077037
X0140146Y007614
X0141491Y0076068
X0142835Y0075997
X0144179Y0075925
X0143603Y0074927
X0142259Y0074999
X0140914Y007507
X0141683Y0074001
X0143027Y0073929
X0144371Y0073857
X0145665Y0073699
X0145089Y0072701
X0143795Y0072859
X0142451Y0072931
X0143219Y0071861
X0144513Y0071703
X0145807Y0071545
X0147101Y0071386
X0146383Y0072543
X0145231Y0070547
X0143937Y0070705
X0144947Y0074855
X0143411Y0076995
X0141875Y0079134
X0140116Y0081088
X013843Y0082968
X0135876Y0085744
X013414Y0087537
X0132696Y0087435
X0133272Y0088433
X0129707Y0087059
T03
X012907Y0004155
Y0006695
Y0009235
Y0011775
X0086575Y0100609
X0084035
X0081495Y0100609
X0078955Y0100609
T04
X006215Y0097525
X006415
X0071122Y0097525
X0073122
T05
X0008775Y0024825
X0012275
X0013Y001567
X00095
X0012225Y0033975
X001305Y00432
X000955
X0008725Y0033975
T06
X0047616Y0001675
X0050156
X0052696
X0055236
X0056506Y0004215
X0053966
X0051426Y0004215
X0048886Y0004215
X006852Y0004215
X007106Y0004215
X00736Y0004215
X007614
X007487Y0001675
X007233
X006979
X006725
X008685Y0001675
X0088119Y0004215
X0090659Y0004215
X0093199Y0004215
X0095739
X009447Y0001675
X009193
X008939
X0106455
X0108995
X0111535
X0114075
X0115345Y0004215
X0112805
X0110265Y0004215
X0107725Y0004215
X0121135Y0066226
X0123675
X0099375Y009785
X0096835
X009314
X00906
T07
X0050268Y0018847
Y0020847
X0050268Y0022847
X0050275Y0029875
X0059275Y002985
X0059275Y0022847
Y0020847
Y0018847
X0138375Y001089
Y000889
Y000689
Y000489
X0146101Y0004883
Y0006883
Y0008883
Y0010883
X0144575Y0023975
Y0025975
Y0027975
Y0029975
X015135
Y0027975
Y0025975
Y0023975
X01433Y005504
Y005704
Y005904
X005928Y0055874
Y0053874
Y0051874
X0059281Y0044867
Y0042867
Y0040867
X0059275Y003385
Y003185
X0050275Y0031875
Y0033875
X005028Y0040867
Y0042867
Y0044867
X005028Y0051849
Y0053849
Y0055849
X0050262Y0062875
Y0064875
Y0066875
X0059285Y0066875
Y0064875
Y0062875
X0120404Y0088366
X0121818Y0086952
X0123232Y0085538
X0124646Y0084123
T08
X0052168Y0016847
X0052175Y0027875
X0057375Y0024847
X0136475Y001289
X0144201Y0012883
X0146475Y0031975
X014945
X01414Y006104
X005738Y0057874
X0052162Y0060875
X005218Y0049849
X0057381Y0046867
X0057375Y003585
X005218Y0038867
X0057385Y0068875
X0117646Y0088437
T09
X006615Y0099425
X0075122Y0099425
T10
X0014428Y0005125
X0017928
X0021428
X0024928
X0028428
T11
X0044186Y0007625
X0059936
X006382Y0007625
X007957
X008342Y0007625
X009917
X0103025
X0118775
T12
X000255Y002995
X015755
X0147167Y00687
X0012933
X00413Y0097067
X008005Y010745
X01188Y0097067
T13
X0113264Y0088957
T14
X0046464Y0088957
T15
X0046336Y0010575
X0057766Y0010575
X006597Y0010575
X00774Y0010575
X008557Y0010575
X0097Y0010575
X0105175Y0010575
X0116605Y0010575
M30
